<svg xmlns="http://www.w3.org/2000/svg" width="46.408" height="48.408" viewBox="0 0 46.408 48.408">
  <g id="Raggruppa_84" data-name="Raggruppa 84" transform="translate(1.408 1)">
    <path id="Tracciato_853" data-name="Tracciato 853" d="M0,17.137a2.376,2.376,0,0,1,2-1H16c1.111,0,7.223-6.128,8-7a53.448,53.448,0,0,0,5-8,4,4,0,0,0-4-1c-1.768.411-2.808,1.68-4,4l-4.584,2.38" transform="translate(15 21.863)" fill="none" stroke="#f58600" stroke-linejoin="round" stroke-miterlimit="10" stroke-width="2"/>
    <path id="Tracciato_854" data-name="Tracciato 854" d="M14,7h8c4,0,4-5,0-5H16.716C15.883,2,14.321,0,13,0H8A6.993,6.993,0,0,0,4,2L0,6" transform="translate(7 25)" fill="none" stroke="#f58600" stroke-linejoin="round" stroke-miterlimit="10" stroke-width="2"/>
    <path id="Rettangolo_391" data-name="Rettangolo 391" d="M0,16.966V0H7.067V16.966Z" transform="translate(0 34) rotate(-45)" fill="none" stroke="#f58600" stroke-linejoin="round" stroke-miterlimit="10" stroke-width="2"/>
    <path id="Linea_24" data-name="Linea 24" d="M0,0,2,2" transform="translate(5 34)" fill="none" stroke="#f58600" stroke-linejoin="round" stroke-miterlimit="10" stroke-width="2"/>
    <path id="Tracciato_855" data-name="Tracciato 855" d="M0,16V0H8" transform="translate(15 7)" fill="none" stroke="#f58600" stroke-linejoin="round" stroke-miterlimit="10" stroke-width="2"/>
    <path id="Tracciato_856" data-name="Tracciato 856" d="M0,24V0H8V25" transform="translate(23)" fill="none" stroke="#f58600" stroke-linejoin="round" stroke-miterlimit="10" stroke-width="2"/>
    <path id="Tracciato_857" data-name="Tracciato 857" d="M0,0H8V6" transform="translate(31 14)" fill="none" stroke="#f58600" stroke-linejoin="round" stroke-miterlimit="10" stroke-width="2"/>
  </g>
</svg>
