<?xml version="1.0" encoding="UTF-8" standalone="no"?><!DOCTYPE svg PUBLIC "-//W3C//DTD SVG 1.1//EN" "http://www.w3.org/Graphics/SVG/1.1/DTD/svg11.dtd"><svg width="100%" height="100%" viewBox="0 0 319 347" version="1.1" xmlns="http://www.w3.org/2000/svg" xmlns:xlink="http://www.w3.org/1999/xlink" xml:space="preserve" xmlns:serif="http://www.serif.com/" style="fill-rule:evenodd;clip-rule:evenodd;stroke-linejoin:round;stroke-miterlimit:2;"><g id="Raggruppa_183"></g><g id="Raggruppa_184"></g><g id="Raggruppa_186"></g><g id="Raggruppa_187"></g><g id="Raggruppa_191"></g><g id="Raggruppa_192"></g><g id="Raggruppa_193"></g><g id="Raggruppa_194"></g><g><path d="M191.614,156.004l0,61.816c0,6.723 -5.448,12.174 -12.17,12.174l-56.323,0c-6.726,0 -12.174,-5.451 -12.174,-12.174l0,-61.816c0,-2.372 0.676,-4.586 1.85,-6.455c2.153,-3.437 5.97,-5.719 10.324,-5.719l56.323,0c4.656,0 8.701,2.613 10.748,6.455c0.907,1.706 1.422,3.653 1.422,5.719Z" style="fill:#fff;fill-rule:nonzero;"/><path d="M124.109,145.221c-6.49,0 -11.771,5.28 -11.771,11.771l0,59.837c0,6.491 5.281,11.771 11.771,11.771l54.344,0c6.49,0 11.771,-5.28 11.771,-11.771l0,-59.837c0,-6.491 -5.281,-11.771 -11.771,-11.771l-54.344,0Zm54.344,86.163l-54.344,0c-8.025,0 -14.554,-6.529 -14.554,-14.555l0,-59.837c0,-8.026 6.529,-14.555 14.554,-14.555l54.344,0c8.025,0 14.555,6.529 14.555,14.555l0,59.837c0,8.026 -6.53,14.555 -14.555,14.555Z" style="fill:#371a45;fill-rule:nonzero;"/><path d="M127.338,148.639c0,0 -28.566,7.858 -32.801,73.384l66.821,0l-3.959,-77.403l-30.061,4.019Z" style="fill:#fff;fill-rule:nonzero;"/><path d="M111.206,218.01l-7.131,0c-0.305,-1.691 -1.784,-2.973 -3.562,-2.973l-3.221,0c0,0 0,0 0.001,-0.001l1.547,0l-0.086,-1.34c2.744,-2.245 6.235,-4.077 8.632,-9.603c0.651,-1.502 1.37,-2.875 2.147,-4.126l0.539,0c-0.033,1.627 0.482,3.239 1.465,4.527c0.297,0.388 0.628,0.74 0.986,1.05c-0.217,1.911 -0.428,3.823 -0.632,5.736c-0.237,2.244 -0.466,4.486 -0.685,6.73Z" style="fill:#cdc6d0;fill-rule:nonzero;"/><path d="M96.027,220.632l63.866,0l-3.807,-74.432l-28.45,3.803c-0.774,0.253 -7.289,2.599 -14.187,11.844c-6.705,8.986 -15.117,26.453 -17.422,58.785Zm66.796,2.783l-69.771,0l0.096,-1.482c2.21,-34.192 11.153,-52.595 18.266,-62.013c7.866,-10.414 15.245,-12.538 15.555,-12.624l0.184,-0.037l31.559,-4.219l4.111,80.375Z" style="fill:#371a45;fill-rule:nonzero;"/><path d="M214.086,214.312c-4.28,9.059 -12.801,2.452 -12.801,2.452c0,0 -0.319,0.252 -2.771,0.779c-13.954,3.012 -23.151,-5.123 -23.151,-5.123c0,0 -3.083,2.857 -6.111,2.774c-2.597,-0.071 -4.383,-1.207 -5.281,-2.938c-1.664,-3.208 -0.389,-5.87 2.33,-10.25c2.571,-4.148 10.079,-8.486 20.931,-7.134l0,-0.007c0.611,-7.553 -9.037,-16.01 -16.426,-21.326c-4.495,-3.234 -8.151,-5.309 -8.151,-5.309l11.659,-27.338c41.078,34.385 44.2,64.049 39.772,73.42Z" style="fill:#fff;fill-rule:nonzero;"/><path d="M200.171,199.583c-0.13,-0.096 -2.833,-2.101 -7.492,-3.54c-0.955,-1.399 -2.385,-2.404 -4.034,-2.795c-0.615,-4.404 -1.291,-8.801 -2.051,-13.187c-0.551,-3.179 -1.156,-6.356 -1.939,-9.494c2.697,4.035 5.264,9.006 7.12,12.55c4.572,8.73 8.345,16.33 8.396,16.466Z" style="fill:#cdc6d0;fill-rule:nonzero;"/><path d="M207.609,217.699c-2.786,0 -5.445,-2.012 -5.473,-2.034l-0.857,-0.663l-0.736,0.575c-0.182,0.07 -0.781,0.273 -2.322,0.606c-2.051,0.442 -3.997,0.629 -5.82,0.629c-0.355,0 -0.706,-0.008 -1.051,-0.021c-0.165,-1.843 -0.34,-3.686 -0.541,-5.526c-0.076,-0.713 -0.152,-1.426 -0.23,-2.139c1.893,-0.008 3.912,-0.208 6.043,-0.667c2.452,-0.532 2.767,-0.78 2.767,-0.78c0,0 3.597,1.872 7.79,1.873c2.318,0 4.818,-0.573 6.993,-2.35c-0.112,2.795 -0.627,4.997 -1.345,6.515c-1.017,2.153 -2.363,3.445 -4.001,3.842c-0.403,0.098 -0.812,0.14 -1.217,0.14Z" style="fill:#cdc6d0;fill-rule:nonzero;"/><path d="M207.623,220.481c-2.822,0 -5.363,-1.398 -6.526,-2.151c-0.484,0.151 -1.203,0.34 -2.289,0.574c-12.065,2.604 -20.67,-2.669 -23.431,-4.701c-1.274,0.954 -3.683,2.466 -6.161,2.383c-2.988,-0.081 -5.289,-1.392 -6.481,-3.688c-2.046,-3.947 -0.385,-7.166 2.382,-11.627c2.789,-4.492 10.377,-8.736 20.703,-7.941c-0.996,-9.018 -17.306,-20.175 -23.852,-23.889c-0.669,-0.38 -0.904,-1.229 -0.524,-1.897c0.379,-0.669 1.228,-0.903 1.897,-0.525c1.075,0.61 26.328,15.081 25.278,27.965l-0.118,1.448l-1.441,-0.18c-9.918,-1.233 -17.101,2.498 -19.578,6.487c-2.765,4.457 -3.524,6.468 -2.276,8.877c0.715,1.377 2.128,2.134 4.086,2.188c2.007,0.056 4.378,-1.719 5.125,-2.407l0.925,-0.851l0.942,0.831c0.086,0.075 8.881,7.622 21.937,4.806c1.541,-0.333 2.14,-0.536 2.322,-0.606l0.736,-0.575l0.857,0.663c0.032,0.026 3.518,2.663 6.69,1.894c1.638,-0.397 2.984,-1.689 4.001,-3.842c1.976,-4.181 2.416,-13.552 -2.847,-26.2c-4.356,-10.47 -14.235,-26.872 -36.56,-45.559c-0.59,-0.494 -0.668,-1.371 -0.174,-1.961c0.493,-0.59 1.371,-0.668 1.96,-0.174c22.757,19.049 32.869,35.868 37.344,46.624c5.608,13.476 5.121,23.537 2.795,28.459c-1.398,2.959 -3.376,4.763 -5.881,5.363c-0.619,0.148 -1.237,0.212 -1.841,0.212Z" style="fill:#371a45;fill-rule:nonzero;"/><path d="M120.308,164.865c-5.581,24.727 -8.518,62.196 -8.518,62.196l78.982,0c0,0 -2.937,-37.469 -8.517,-62.196c0,0 -13.287,-26.078 -30.974,-26.078c-17.687,0 -30.973,26.078 -30.973,26.078Z" style="fill:#fff;fill-rule:nonzero;"/><path d="M188.452,218.01l-10.163,0l-51.366,0l-12.92,0c0.209,-2.147 0.429,-4.293 0.656,-6.436c0.164,-1.542 0.333,-3.083 0.507,-4.623c0.298,0.08 0.604,0.14 0.915,0.18c2.376,0.298 5.15,0.537 7.942,0.537c1.362,0 2.728,-0.057 4.054,-0.192l0,0.283c0,4.068 3.309,7.378 7.378,7.378l30.822,0c4.069,0 7.379,-3.31 7.379,-7.378l0,-0.601c2,0.367 4.164,0.51 6.32,0.51c2.546,0 5.079,-0.199 7.306,-0.461c0.166,1.46 0.328,2.92 0.484,4.381l0.686,6.422Z" style="fill:#cdc6d0;fill-rule:nonzero;"/><path d="M121.665,165.171c-1.125,5.074 -2.067,10.2 -2.922,15.344c-0.839,5.148 -1.573,10.317 -2.255,15.494c-0.672,5.179 -1.275,10.369 -1.829,15.565c-0.549,5.193 -1.057,10.403 -1.482,15.595l-1.387,-1.5l78.982,0l-1.387,1.5l-0.786,-7.789l-0.833,-7.792c-0.553,-5.194 -1.185,-10.38 -1.829,-15.56c-0.336,-2.589 -0.659,-5.18 -1.029,-7.762c-0.341,-2.589 -0.731,-5.167 -1.117,-7.746c-0.819,-5.153 -1.672,-10.281 -2.215,-15.502l-0.001,-0.006c-0.04,-0.384 0.24,-0.728 0.625,-0.769c0.33,-0.034 0.63,0.168 0.734,0.469c1.724,5.001 2.763,10.174 3.66,15.349c0.897,5.177 1.676,10.37 2.379,15.572c0.702,5.201 1.278,10.417 1.836,15.632c0.284,2.608 0.518,5.22 0.743,7.834c0.23,2.614 0.443,5.223 0.608,7.853l0.095,1.5l-1.483,0l0,0l-78.982,0l-1.511,0l0.123,-1.5c0.429,-5.243 0.937,-10.454 1.489,-15.672c0.556,-5.215 1.161,-10.426 1.836,-15.63c0.686,-5.202 1.423,-10.399 2.269,-15.585c0.862,-5.184 1.811,-10.357 2.953,-15.506c0.167,-0.751 0.91,-1.224 1.661,-1.058c0.751,0.166 1.224,0.91 1.058,1.66l-0.003,0.01Z" style="fill:#371a45;fill-rule:nonzero;"/><path d="M133.594,204.788c-4.813,2.023 -12.261,1.6 -17.338,0.962c-3.046,-0.383 -5.183,-3.302 -4.735,-6.453c0.41,-2.876 2.847,-4.968 5.643,-4.831c4.75,0.23 11.873,0.339 16.385,-0.701l0.045,11.023Z" style="fill:#fff;fill-rule:nonzero;"/><path d="M123.986,204.881c-2.291,0 -4.83,-0.17 -7.557,-0.513c-1.059,-0.133 -2.011,-0.688 -2.679,-1.563c-0.623,-0.817 -0.933,-1.81 -0.894,-2.838l1.967,0c0.447,0.192 0.927,0.325 1.432,0.389c2.269,0.285 5.014,0.527 7.785,0.527c1.357,0 2.72,-0.058 4.037,-0.197l0,3.986c-1.251,0.139 -2.62,0.209 -4.091,0.209Z" style="fill:#cdc6d0;fill-rule:nonzero;"/><path d="M133.594,204.788l0.003,0l-0.003,0Zm-16.689,-8.937c-2.002,0 -3.706,1.534 -4.006,3.642c-0.17,1.194 0.132,2.37 0.851,3.312c0.668,0.875 1.62,1.43 2.679,1.563c7.233,0.91 13.138,0.602 16.625,-0.863c0.659,-0.277 1.147,-1.238 1.34,-2.637c0.35,-2.547 -0.369,-4.995 -0.858,-5.674c-4.594,0.982 -11.445,0.904 -16.44,0.662c-0.063,-0.003 -0.128,-0.005 -0.191,-0.005Zm7.118,11.817c-2.792,0 -5.566,-0.239 -7.942,-0.537c-1.805,-0.227 -3.418,-1.164 -4.544,-2.637c-1.158,-1.517 -1.666,-3.483 -1.394,-5.394c0.513,-3.606 3.547,-6.192 7.089,-6.025c6.981,0.34 12.665,0.103 16.005,-0.666c0.686,-0.157 2.393,-0.184 3.415,2.98c1.147,3.553 0.909,9.24 -2.519,10.682l0,0c-2.844,1.195 -6.491,1.597 -10.11,1.597Z" style="fill:#371a45;fill-rule:nonzero;"/><path d="M170.405,204.788c4.813,2.023 12.261,1.6 17.338,0.962c3.046,-0.383 5.184,-3.302 4.735,-6.453c-0.409,-2.876 -2.847,-4.968 -5.643,-4.831c-4.75,0.23 -11.873,0.339 -16.385,-0.701l-0.045,11.023Z" style="fill:#fff;fill-rule:nonzero;"/><path d="M180.011,204.882c-2.416,0 -4.558,-0.19 -6.355,-0.564l0,-3.958c1.976,0.388 4.147,0.535 6.302,0.535c2.771,0 5.515,-0.243 7.787,-0.528c1.254,-0.158 2.357,-0.749 3.187,-1.609c0.075,0.236 0.132,0.481 0.168,0.735c0.17,1.194 -0.132,2.37 -0.852,3.312c-0.668,0.875 -1.619,1.43 -2.678,1.563c-2.728,0.344 -5.267,0.514 -7.559,0.514Z" style="fill:#b9afbe;fill-rule:nonzero;"/><path d="M170.945,203.505c3.487,1.466 9.391,1.773 16.625,0.863c1.059,-0.133 2.01,-0.688 2.678,-1.563c0.72,-0.942 1.022,-2.118 0.852,-3.312c-0.309,-2.175 -2.119,-3.739 -4.197,-3.637c-4.995,0.243 -11.845,0.32 -16.44,-0.662c-0.489,0.679 -1.208,3.127 -0.858,5.674c0.192,1.399 0.681,2.36 1.34,2.637Zm9.031,4.163c-3.619,0 -7.266,-0.401 -10.11,-1.597l-0.001,0c-3.427,-1.442 -3.665,-7.129 -2.518,-10.682c1.022,-3.164 2.729,-3.138 3.415,-2.98c3.34,0.769 9.023,1.006 16.005,0.666c3.539,-0.17 6.576,2.419 7.089,6.025c0.272,1.912 -0.237,3.878 -1.395,5.395c-1.125,1.473 -2.739,2.409 -4.544,2.636c-2.375,0.298 -5.15,0.537 -7.941,0.537Z" style="fill:#371a45;fill-rule:nonzero;"/><path d="M172.264,190.122l0,17.665c0,3.279 -2.582,5.96 -5.735,5.96l-31.324,0c-3.156,0 -5.735,-2.681 -5.735,-5.96l0,-17.665c0,-3.274 2.579,-5.956 5.735,-5.956l31.324,0c2.519,0 4.675,1.712 5.44,4.072c0.19,0.593 0.295,1.226 0.295,1.884Z" style="fill:#fff;fill-rule:nonzero;"/><path d="M166.277,212.354l-16.94,0l0,-5.181c2.291,-0.133 4.64,-0.568 6.989,-1.41c1.272,-0.455 2.589,-1.179 3.853,-2.014c0.554,0.222 1.155,0.344 1.784,0.344c2.397,0 4.395,-1.771 4.849,-4.121c0.001,0.002 0.001,0.003 0.002,0.005c0.064,-0.33 0.097,-0.67 0.097,-1.02c0,-0.261 -0.019,-0.518 -0.055,-0.768c0.47,-0.469 0.738,-0.756 0.738,-0.756c0,0 0.228,6.661 1.176,6.661c0.008,0 0.015,0 0.022,-0.001c1.031,-0.114 1.663,-2.196 2.08,-4.825l0,8.491c0,2.533 -2.061,4.595 -4.595,4.595Zm-19.723,0l-11.099,0c-2.534,0 -4.595,-2.062 -4.595,-4.595l0,-5.151c3.805,2.015 9.438,4.312 15.694,4.583l0,5.163Z" style="fill:#cdc6d0;fill-rule:nonzero;"/><path d="M135.455,185.558c-2.534,0 -4.595,2.061 -4.595,4.595l0,17.606c0,2.533 2.061,4.595 4.595,4.595l30.822,0c2.534,0 4.595,-2.062 4.595,-4.595l0,-17.606c0,-2.534 -2.061,-4.595 -4.595,-4.595l-30.822,0Zm30.822,29.579l-30.822,0c-4.069,0 -7.378,-3.31 -7.378,-7.378l0,-17.606c0,-4.069 3.309,-7.379 7.378,-7.379l30.822,0c4.069,0 7.379,3.31 7.379,7.379l0,17.606c0,4.068 -3.31,7.378 -7.379,7.378Z" style="fill:#371a45;fill-rule:nonzero;"/><path d="M166.909,198.956c0,2.837 -2.214,5.137 -4.946,5.137c-2.732,0 -4.946,-2.3 -4.946,-5.137c0,-2.837 2.214,-5.137 4.946,-5.137c2.732,0 4.946,2.3 4.946,5.137Z" style="fill:#f58600;fill-rule:nonzero;"/><path d="M166.911,198.957c0,0.35 -0.033,0.69 -0.097,1.02c-0.458,-2.353 -2.457,-4.123 -4.851,-4.123c-2.396,0 -4.395,1.77 -4.849,4.123c-0.065,-0.33 -0.097,-0.67 -0.097,-1.02c0,-2.837 2.213,-5.139 4.946,-5.139c2.731,0 4.948,2.302 4.948,5.139Z" style="fill:#fff;fill-rule:nonzero;"/><path d="M161.963,204.092c-2.394,0 -4.393,-1.767 -4.849,-4.116c0.095,-0.489 0.256,-0.952 0.473,-1.38c0.83,1.629 2.48,2.74 4.376,2.74c1.896,0 3.546,-1.111 4.376,-2.74c0.217,0.427 0.379,0.889 0.473,1.376c-0.454,2.351 -2.453,4.12 -4.849,4.12Zm-4.938,-4.838c-0.005,-0.099 -0.008,-0.199 -0.008,-0.299c0,-0.476 0.063,-0.941 0.18,-1.376l0,0.001c-0.118,0.439 -0.18,0.901 -0.18,1.377c0,0.1 0.003,0.199 0.008,0.297Z" style="fill:#8f5209;fill-rule:nonzero;"/><path d="M157.114,199.976c-0.045,-0.235 -0.076,-0.476 -0.089,-0.722c-0.005,-0.098 -0.008,-0.197 -0.008,-0.297c0,-0.476 0.062,-0.938 0.18,-1.377c0.095,0.356 0.227,0.696 0.39,1.016c-0.217,0.428 -0.378,0.891 -0.473,1.38Zm9.698,-0.004c-0.094,-0.487 -0.256,-0.949 -0.473,-1.376c0.163,-0.321 0.295,-0.661 0.391,-1.017c0.116,0.435 0.179,0.9 0.179,1.376c0,0.348 -0.033,0.688 -0.097,1.017Z" style="fill:#b9afbe;fill-rule:nonzero;"/><path d="M161.963,194.862c-2.152,0 -3.903,1.837 -3.903,4.094c0,2.257 1.751,4.093 3.903,4.093c2.152,0 3.903,-1.836 3.903,-4.093c0,-2.257 -1.751,-4.094 -3.903,-4.094Zm0,10.275c-3.303,0 -5.991,-2.773 -5.991,-6.181c0,-3.408 2.688,-6.181 5.991,-6.181c3.303,0 5.991,2.773 5.991,6.181c0,3.408 -2.688,6.181 -5.991,6.181Z" style="fill:#371a45;fill-rule:nonzero;"/><path d="M147.945,215.137c-0.768,0 -1.391,-0.623 -1.391,-1.391l0,-9.042c0,-1.801 -0.823,-3.519 -2.2,-4.596l-0.795,-0.622c-2.047,-1.6 -3.27,-4.138 -3.27,-6.789l0,-8.531c0,-0.769 0.623,-1.392 1.392,-1.392c0.769,0 1.392,0.623 1.392,1.392l0,8.531c0,1.801 0.822,3.519 2.2,4.596l0.795,0.622c2.047,1.6 3.269,4.138 3.269,6.789l0,9.042c0,0.768 -0.623,1.391 -1.392,1.391Z" style="fill:#371a45;fill-rule:nonzero;"/><path d="M188.429,151.995c-1.21,-1.234 -2.473,-2.482 -3.793,-3.745c0.298,-0.218 0.595,-0.439 0.888,-0.662c1.398,1.053 2.554,2.41 3.369,3.971c-0.154,0.146 -0.308,0.292 -0.464,0.436Z" style="fill:#cdc6d0;fill-rule:nonzero;"/><path d="M188.893,151.559c-0.815,-1.561 -1.971,-2.918 -3.369,-3.971c0.491,-0.373 0.978,-0.756 1.458,-1.144c1.317,1.04 2.414,2.348 3.21,3.841c-0.426,0.432 -0.859,0.857 -1.299,1.274Z" style="fill:#371a45;fill-rule:nonzero;"/><path d="M178.848,159.141c-1.037,-1.579 -2.293,-3.371 -3.741,-5.22c2.488,-1.177 4.893,-2.531 7.196,-4.05c1.409,1.339 2.754,2.663 4.038,3.969c-2.347,1.972 -4.853,3.747 -7.493,5.301Z" style="fill:#cdc6d0;fill-rule:nonzero;"/><path d="M186.341,153.84c-1.284,-1.306 -2.629,-2.63 -4.038,-3.969c0.791,-0.522 1.567,-1.061 2.333,-1.621c1.32,1.263 2.583,2.511 3.793,3.745c-0.68,0.632 -1.377,1.248 -2.088,1.845Z" style="fill:#371a45;fill-rule:nonzero;"/><path d="M151.8,166.539c-0.266,0 -0.532,-0.001 -0.798,-0.006c-2.696,-0.04 -5.344,-0.281 -7.929,-0.71l0,-7.071c2.706,0.399 5.4,0.593 8.07,0.593c8.408,0 16.557,-1.924 23.964,-5.424c1.448,1.849 2.704,3.641 3.741,5.22c-8,4.712 -17.237,7.398 -27.048,7.398Z" style="fill:#cdc6d0;fill-rule:nonzero;"/><path d="M203.806,123.767c-0.626,-0.066 -1.073,-0.645 -0.999,-1.294l3.848,-33.835c0.074,-0.649 0.642,-1.122 1.267,-1.055c6.565,0.693 11.26,6.772 10.486,13.578l-1.313,11.538c-0.774,6.806 -6.724,11.761 -13.289,11.068Z" style="fill:#fff;fill-rule:nonzero;"/><path d="M207.805,87.826c-0.451,0 -0.847,0.36 -0.901,0.84l-3.849,33.836c-0.029,0.255 0.042,0.503 0.198,0.697c0.146,0.182 0.352,0.296 0.579,0.32c6.419,0.676 12.257,-4.189 13.015,-10.849l1.312,-11.537c0.377,-3.312 -0.538,-6.534 -2.577,-9.074c-1.931,-2.407 -4.661,-3.908 -7.686,-4.228c-0.031,-0.002 -0.061,-0.005 -0.091,-0.005Zm-2.779,36.256c-0.412,0 -0.827,-0.021 -1.246,-0.066c-0.362,-0.038 -0.687,-0.217 -0.918,-0.504c-0.24,-0.299 -0.348,-0.678 -0.304,-1.067l3.849,-33.835c0.089,-0.784 0.784,-1.357 1.541,-1.276c3.16,0.333 6.009,1.9 8.025,4.412c2.122,2.645 3.074,5.998 2.683,9.443l-1.312,11.538c-0.74,6.498 -6.134,11.355 -12.318,11.355Z" style="fill:#371a45;fill-rule:nonzero;"/><path d="M205.028,122.44c-0.076,0 -0.152,-0.001 -0.228,-0.003c1.058,-2.579 1.949,-5.26 2.66,-8.029c3.36,-0.198 6.428,-1.851 8.542,-4.411l-0.29,2.544c-0.644,5.663 -5.328,9.899 -10.684,9.899Z" style="fill:#cdc6d0;fill-rule:nonzero;"/><path d="M204.215,122.408c5.688,0.454 10.821,-3.919 11.497,-9.867l1.312,-11.538c0.342,-3.006 -0.486,-5.929 -2.332,-8.23c-1.688,-2.103 -4.051,-3.438 -6.676,-3.778l-3.801,33.413Zm0.811,2.816c-0.451,0 -0.907,-0.024 -1.366,-0.073c-0.667,-0.07 -1.266,-0.398 -1.688,-0.924c-0.432,-0.539 -0.627,-1.217 -0.548,-1.911l3.848,-33.835c0.161,-1.405 1.412,-2.43 2.796,-2.282c3.465,0.365 6.588,2.081 8.795,4.832c2.315,2.884 3.354,6.538 2.927,10.287l-1.312,11.538c-0.805,7.078 -6.696,12.368 -13.452,12.368Z" style="fill:#371a45;fill-rule:nonzero;"/><path d="M100.193,76.212c0.626,0.066 1.073,0.646 0.999,1.294l-3.849,33.836c-0.073,0.648 -0.641,1.121 -1.266,1.055c-6.566,-0.693 -11.26,-6.772 -10.486,-13.579l1.313,-11.537c0.774,-6.807 6.724,-11.762 13.289,-11.069Z" style="fill:#fff;fill-rule:nonzero;"/><path d="M98.973,76.398c-5.934,0 -11.111,4.667 -11.821,10.911l-1.312,11.538c-0.377,3.311 0.538,6.534 2.576,9.073c1.931,2.407 4.661,3.908 7.686,4.228c0.496,0.051 0.934,-0.323 0.993,-0.835l3.849,-33.835c0.029,-0.255 -0.041,-0.503 -0.198,-0.698c-0.146,-0.182 -0.352,-0.295 -0.579,-0.319c-0.401,-0.043 -0.8,-0.063 -1.194,-0.063Zm-2.779,36.255c-0.048,0 -0.095,-0.003 -0.144,-0.008c-3.159,-0.333 -6.009,-1.9 -8.024,-4.412c-2.122,-2.644 -3.075,-5.998 -2.683,-9.443l1.312,-11.537c0.789,-6.932 6.877,-11.996 13.564,-11.289c0.362,0.037 0.687,0.216 0.918,0.503c0.24,0.299 0.348,0.679 0.304,1.067l-3.849,33.836c-0.084,0.735 -0.696,1.283 -1.398,1.283Z" style="fill:#371a45;fill-rule:nonzero;"/><path d="M95.39,110.89c-2.387,-0.452 -4.523,-1.74 -6.083,-3.684c-1.846,-2.301 -2.674,-5.223 -2.333,-8.23l0.282,-2.476c1.583,2.735 4.188,4.792 7.342,5.569c0.049,2.971 0.314,5.919 0.792,8.821Z" style="fill:#cdc6d0;fill-rule:nonzero;"/><path d="M98.973,77.539c-5.363,0 -10.042,4.236 -10.687,9.899l-1.312,11.538c-0.341,3.007 0.487,5.929 2.333,8.23c1.688,2.104 4.051,3.439 6.676,3.778l3.801,-33.412c-0.271,-0.022 -0.543,-0.033 -0.811,-0.033Zm-2.779,36.256c-0.087,0 -0.175,-0.005 -0.264,-0.014c-3.464,-0.366 -6.588,-2.082 -8.794,-4.833c-2.315,-2.884 -3.354,-6.537 -2.928,-10.286l1.312,-11.539c0.86,-7.551 7.503,-13.071 14.819,-12.295c0.667,0.07 1.266,0.398 1.688,0.924c0.432,0.539 0.627,1.218 0.548,1.911l-3.848,33.836c-0.15,1.315 -1.259,2.296 -2.533,2.296Z" style="fill:#371a45;fill-rule:nonzero;"/><path d="M207.018,109.935c-5.791,31.535 -35.116,52.645 -65.498,47.152c-30.383,-5.492 -50.317,-35.508 -44.526,-67.042c5.792,-31.534 35.116,-52.644 65.499,-47.151c30.382,5.492 50.317,35.508 44.525,67.041Z" style="fill:#fff;fill-rule:nonzero;"/><path d="M152.869,42.278c-26.578,0 -50.484,19.799 -55.629,47.812c-2.864,15.593 0.425,31.217 9.262,43.993c8.372,12.102 20.824,20.184 35.062,22.758c30.197,5.46 59.45,-15.602 65.209,-46.95c2.863,-15.594 -0.426,-31.217 -9.263,-43.992c-8.372,-12.103 -20.823,-20.185 -35.062,-22.759c-3.212,-0.581 -6.415,-0.862 -9.579,-0.862Zm-1.726,115.925c-3.194,0 -6.424,-0.283 -9.668,-0.869c-14.371,-2.599 -26.936,-10.754 -35.384,-22.967c-8.913,-12.885 -12.231,-28.642 -9.343,-44.367c5.807,-31.619 35.319,-52.859 65.789,-47.352c14.37,2.598 26.937,10.754 35.384,22.966c8.914,12.886 12.231,28.642 9.343,44.367c-5.189,28.253 -29.308,48.222 -56.121,48.222Z" style="fill:#371a45;fill-rule:nonzero;"/><path d="M151.143,156.561c-2.667,0 -5.365,-0.205 -8.07,-0.624l0,-4.428c3.964,0.611 7.758,0.863 11.32,0.863c8.111,0 15.014,-1.305 19.946,-2.635c2.099,-0.567 4.13,-1.218 6.042,-1.93c-8.626,5.586 -18.721,8.754 -29.238,8.754Z" style="fill:#b9afbe;fill-rule:nonzero;"/><path d="M152.869,43.42c-26.039,0 -49.461,19.411 -54.506,46.877c-2.808,15.292 0.416,30.612 9.078,43.136c8.198,11.851 20.388,19.765 34.326,22.285c3.143,0.568 6.28,0.843 9.376,0.843c26.039,0.001 49.461,-19.412 54.506,-46.876c2.809,-15.294 -0.415,-30.613 -9.078,-43.136c-8.198,-11.852 -20.389,-19.766 -34.326,-22.286c-3.143,-0.568 -6.28,-0.843 -9.376,-0.843Zm-1.726,115.925c-3.262,0 -6.56,-0.29 -9.871,-0.888c-14.671,-2.652 -27.498,-10.977 -36.12,-23.44c-9.086,-13.137 -12.47,-29.198 -9.527,-45.223c5.921,-32.236 36.027,-53.89 67.115,-48.27c14.671,2.652 27.499,10.977 36.12,23.44c9.087,13.137 12.47,29.198 9.527,45.223c-5.29,28.803 -29.89,49.158 -57.244,49.158Z" style="fill:#371a45;fill-rule:nonzero;"/><path d="M206.573,111.37c-1.889,11.202 -7.147,21.024 -14.591,28.642c-5.582,5.71 -25.955,13.959 -48.797,10.417c-21.18,-3.284 -38.447,-18.151 -41.852,-25.341c-4.542,-9.591 -6.292,-20.567 -4.402,-31.768c4.999,-29.642 31.615,-37.889 61.893,-32.904c30.278,4.984 52.749,21.313 47.749,50.954Z" style="fill:#f58600;fill-rule:nonzero;"/><path d="M143.084,60.144c-9.269,0 -17.484,1.586 -24.229,4.722c-11.539,5.365 -18.555,14.999 -20.856,28.634c-1.791,10.62 -0.299,21.383 4.314,31.124c3.277,6.919 20.259,21.511 41.038,24.734c23.023,3.57 42.831,-4.963 47.855,-10.105c7.563,-7.738 12.506,-17.442 14.298,-28.063c1.852,-10.982 -0.069,-20.556 -5.713,-28.455c-7.666,-10.732 -21.893,-18.08 -41.143,-21.25c-5.443,-0.896 -10.652,-1.341 -15.564,-1.341Zm11.309,92.228c-3.579,0 -7.391,-0.255 -11.374,-0.872c-12.1,-1.876 -21.924,-7.224 -28.035,-11.381c-6.929,-4.711 -12.671,-10.429 -14.631,-14.567c-4.803,-10.144 -6.357,-21.353 -4.492,-32.412c2.426,-14.382 9.854,-24.556 22.079,-30.24c10.717,-4.983 24.915,-6.213 41.06,-3.554c19.831,3.265 34.547,10.917 42.556,22.129c5.99,8.385 8.038,18.504 6.086,30.076c-1.865,11.058 -7.012,21.162 -14.886,29.218c-3.272,3.349 -10.329,6.785 -18.417,8.968c-4.932,1.33 -11.835,2.635 -19.946,2.635Z" style="fill:#f58600;fill-rule:nonzero;"/><path d="M187.779,114.4c-0.599,0 -1.192,-0.1 -1.766,-0.309c-3.722,-1.356 -5.208,-6.789 -3.318,-12.135c1.598,-4.523 5.101,-7.535 8.395,-7.535c0.6,0 1.193,0.1 1.767,0.309c3.008,1.095 4.556,4.854 4.041,9.078c-0.833,2.409 -1.795,4.751 -2.877,7.019c-1.755,2.234 -4.044,3.573 -6.242,3.573Z" style="fill:#9b8da2;fill-rule:nonzero;"/><path d="M176.811,127.627c-0.543,0 -1.077,-0.126 -1.572,-0.391c-1.901,-1.021 -2.481,-3.722 -1.296,-6.035c0.876,-1.71 2.474,-2.728 4.016,-2.728c0.542,0 1.077,0.126 1.571,0.391c1.901,1.02 2.482,3.722 1.297,6.034c-0.877,1.711 -2.475,2.729 -4.016,2.729Z" style="fill:#9b8da2;fill-rule:nonzero;"/><path d="M154.425,150.206c-3.569,0 -7.279,-0.26 -11.074,-0.848c-0.092,-0.015 -0.186,-0.029 -0.278,-0.044l0,-6.296c18.465,-1.851 33.052,-8.653 38.102,-13.821c5.21,-5.331 9.576,-11.513 12.846,-18.37c0.877,-1.116 1.622,-2.455 2.154,-3.962c0.362,-1.026 0.601,-2.054 0.723,-3.057c1.216,-3.517 2.156,-7.177 2.794,-10.961c0.526,-3.108 0.809,-6.103 0.873,-8.984c5.042,7.677 6.703,16.863 4.939,27.327c-1.792,10.621 -6.735,20.325 -14.298,28.063c-4.196,4.294 -18.701,10.953 -36.781,10.953Z" style="fill:#b60;fill-rule:nonzero;"/><path d="M154.371,151.284c-3.622,0 -7.371,-0.262 -11.188,-0.854c-0.036,-0.005 -0.073,-0.011 -0.11,-0.017l0,-1.099c0.092,0.015 0.186,0.029 0.278,0.044c3.795,0.588 7.505,0.848 11.074,0.848c18.08,0 32.585,-6.659 36.781,-10.953c7.563,-7.738 12.506,-17.442 14.298,-28.063c1.764,-10.464 0.103,-19.65 -4.939,-27.327c0.014,-0.639 0.017,-1.272 0.01,-1.9c5.582,7.738 8.004,17.5 5.997,29.406c-1.889,11.203 -7.149,21.025 -14.589,28.643c-4.65,4.756 -19.561,11.272 -37.612,11.272Z" style="fill:#2a1a3b;fill-rule:nonzero;"/><path d="M194.021,110.827c1.082,-2.268 2.044,-4.61 2.877,-7.019c-0.122,1.003 -0.361,2.031 -0.723,3.057c-0.532,1.507 -1.277,2.846 -2.154,3.962Z" style="fill:#6b6577;fill-rule:nonzero;"/><path d="M206.238,85.991c-0.401,0 -0.799,-0.174 -1.073,-0.509c-0.006,-0.007 -0.019,-0.023 -0.025,-0.031l-0.098,-0.126l-0.068,-0.144c-7.016,-15.059 -23.666,-25.775 -45.679,-29.399c-22.14,-3.644 -41.436,1.414 -52.941,13.88l-0.086,0.085c-0.565,0.513 -1.44,0.48 -1.961,-0.079c-0.508,-0.548 -0.495,-1.394 0.027,-1.922c12.154,-13.147 32.347,-18.509 55.413,-14.711c22.921,3.774 40.319,15.052 47.737,30.943c0.285,0.574 0.144,1.29 -0.375,1.705c-0.258,0.206 -0.566,0.308 -0.871,0.308Z" style="fill:#371a45;fill-rule:nonzero;"/><path d="M106.268,112.981c0,0 -3.916,-30.698 13.237,-39.851c8.781,-4.685 18.792,-6.017 26.37,-6.017c7.226,0 12.239,1.21 11.869,1.879c0,0 -25.214,2.094 -38.026,20.38c-9.879,14.1 -13.45,23.609 -13.45,23.609Z" style="fill:#9b8da2;fill-rule:nonzero;"/><path d="M229.654,219.477c0,10.421 -42.295,21.977 -102.729,21.977c-60.435,0 -102.734,-11.556 -102.734,-21.977l205.463,0Z" style="fill-rule:nonzero;"/><path d="M24.191,218.989c4.281,-0.755 8.561,-0.955 12.842,-1.035c4.28,-0.105 8.561,-0.049 12.841,0.008l6.421,0.046l6.42,0.002l141.257,0l6.42,-0.001c2.14,0.001 4.28,-0.066 6.421,-0.097c2.14,-0.032 4.281,0.017 6.421,0.14c1.069,0.07 2.14,0.167 3.21,0.321c1.07,0.15 2.14,0.328 3.21,0.616c0.271,0.072 0.431,0.35 0.358,0.62c-0.048,0.18 -0.189,0.312 -0.358,0.358c-1.07,0.287 -2.14,0.464 -3.21,0.615c-1.07,0.154 -2.141,0.251 -3.21,0.321c-2.14,0.122 -4.281,0.172 -6.421,0.14c-2.141,-0.031 -4.281,-0.098 -6.421,-0.097l-6.42,-0.001l-25.683,0l-51.366,0l-51.366,0l-12.842,0l-6.42,0.002l-6.421,0.046c-4.28,0.057 -8.561,0.113 -12.841,0.008c-4.281,-0.08 -8.561,-0.281 -12.842,-1.034c-0.27,-0.048 -0.45,-0.305 -0.403,-0.576c0.038,-0.211 0.204,-0.367 0.403,-0.402Z" style="fill:#371a45;fill-rule:nonzero;"/><path d="M187.232,194.871c-10.853,-1.349 -18.358,2.988 -20.932,7.134c-2.718,4.381 -3.993,7.043 -2.329,10.252c0.897,1.729 2.685,2.866 5.282,2.938c3.027,0.083 6.109,-2.776 6.109,-2.776c0,0 9.198,8.136 23.153,5.124c2.45,-0.528 2.769,-0.778 2.769,-0.778l1.367,-6.339c0,0 1.901,-8.212 -4.68,-12.138c-5.512,-3.286 -10.739,-3.417 -10.739,-3.417Z" style="fill:#fff;fill-rule:nonzero;"/><path d="M200.429,215.667m-0.001,0.001m-0.001,0l-0.001,0.002l0.001,-0.002Zm-8.138,3.943c-8.621,0.001 -14.678,-3.764 -16.912,-5.408c-1.274,0.954 -3.683,2.466 -6.161,2.383c-2.988,-0.081 -5.289,-1.392 -6.481,-3.688c-2.046,-3.947 -0.385,-7.166 2.382,-11.627c2.93,-4.718 11.154,-9.165 22.287,-7.781c0.763,0.095 1.304,0.79 1.21,1.552c-0.095,0.764 -0.786,1.305 -1.554,1.21c-9.919,-1.233 -17.101,2.498 -19.578,6.487c-2.764,4.457 -3.524,6.468 -2.276,8.877c0.715,1.377 2.128,2.134 4.086,2.188c2.007,0.056 4.378,-1.719 5.125,-2.407l0.925,-0.851l0.942,0.831c0.086,0.075 8.881,7.622 21.937,4.806c1.708,-0.369 2.259,-0.578 2.367,-0.624c0.592,-0.342 1.359,-0.204 1.792,0.349c0.473,0.605 0.367,1.48 -0.239,1.954c-0.185,0.144 -0.57,0.446 -3.333,1.042c-2.304,0.497 -4.484,0.707 -6.519,0.707Z" style="fill:#371a45;fill-rule:nonzero;"/><path d="M187.307,193.481c0.242,0.007 0.416,0.013 0.614,0.029c0.193,0.014 0.382,0.032 0.57,0.054c0.377,0.042 0.745,0.099 1.114,0.164c0.734,0.135 1.459,0.302 2.171,0.508c0.712,0.203 1.413,0.441 2.101,0.708c0.343,0.139 0.687,0.27 1.026,0.416l1.002,0.466c1.322,0.647 2.605,1.367 3.801,2.214c0.61,0.4 1.179,0.863 1.748,1.315c0.564,0.461 1.097,0.959 1.627,1.451c0.282,0.261 0.299,0.703 0.037,0.985c-0.222,0.24 -0.573,0.288 -0.847,0.137l-0.051,-0.028c-0.612,-0.337 -1.183,-0.722 -1.793,-1.046c-0.612,-0.321 -1.2,-0.669 -1.823,-0.957c-1.216,-0.626 -2.479,-1.14 -3.743,-1.625c-1.268,-0.477 -2.563,-0.859 -3.86,-1.201c-0.648,-0.177 -1.301,-0.319 -1.951,-0.462c-0.325,-0.06 -0.651,-0.139 -0.973,-0.19c-0.162,-0.031 -0.322,-0.061 -0.48,-0.085l-0.44,-0.073l-0.118,-0.02c-0.757,-0.126 -1.269,-0.842 -1.143,-1.599c0.116,-0.694 0.727,-1.182 1.411,-1.161Z" style="fill:#371a45;fill-rule:nonzero;"/><path d="M173.97,211.69c0.044,-0.563 0.112,-1.028 0.197,-1.529c0.082,-0.493 0.182,-0.979 0.297,-1.462c0.23,-0.966 0.524,-1.917 0.886,-2.845c0.376,-0.924 0.831,-1.82 1.375,-2.662c0.565,-0.835 1.241,-1.597 2.013,-2.243c0.233,-0.195 0.579,-0.163 0.774,0.069c0.176,0.211 0.167,0.515 -0.009,0.715l-0.021,0.024c-0.58,0.66 -1.057,1.395 -1.435,2.186c-0.361,0.803 -0.64,1.641 -0.848,2.502c-0.196,0.866 -0.328,1.748 -0.403,2.634c-0.038,0.443 -0.061,0.888 -0.068,1.33c-0.009,0.432 -0.003,0.905 0.026,1.281c0.06,0.768 -0.515,1.44 -1.283,1.5c-0.77,0.06 -1.441,-0.515 -1.501,-1.284c-0.005,-0.07 -0.004,-0.148 0,-0.216Z" style="fill:#371a45;fill-rule:nonzero;"/><path d="M199.897,216.636c0.156,-0.795 0.334,-1.526 0.536,-2.28c0.201,-0.746 0.427,-1.488 0.687,-2.224c0.263,-0.735 0.559,-1.465 0.939,-2.177c0.193,-0.356 0.409,-0.707 0.674,-1.043c0.267,-0.331 0.585,-0.664 1.034,-0.89c0.247,-0.126 0.55,-0.026 0.675,0.221c0.107,0.213 0.049,0.466 -0.126,0.613l-0.046,0.038c-0.394,0.329 -0.678,0.983 -0.876,1.63c-0.198,0.662 -0.333,1.363 -0.436,2.071c-0.101,0.71 -0.172,1.43 -0.219,2.152c-0.046,0.715 -0.074,1.461 -0.07,2.148c0.005,0.772 -0.616,1.403 -1.389,1.409c-0.772,0.005 -1.403,-0.617 -1.409,-1.39c0,-0.091 0.01,-0.19 0.026,-0.278Z" style="fill:#371a45;fill-rule:nonzero;"/><rect x="137.227" y="213.722" width="65.267" height="5.755" style="fill:#d8d8d8;fill-rule:nonzero;"/><path d="M138.619,218.085l62.483,0l0,-2.972l-62.483,0l0,2.972Zm63.875,2.784l-65.267,0c-0.769,0 -1.392,-0.623 -1.392,-1.392l0,-5.755c0,-0.769 0.623,-1.392 1.392,-1.392l65.267,0c0.769,0 1.392,0.623 1.392,1.392l0,5.755c0,0.769 -0.623,1.392 -1.392,1.392Z" style="fill:#371a45;fill-rule:nonzero;"/><path d="M134.998,198.575l-95.13,0c-3.691,0 -6.683,-2.992 -6.683,-6.683l0,-61.539c0,-3.69 2.992,-6.683 6.683,-6.683l95.13,0c3.691,0 6.683,2.993 6.683,6.683l0,61.539c0,3.691 -2.992,6.683 -6.683,6.683Z" style="fill:#d8d8d8;fill-rule:nonzero;"/><path d="M134.998,197.183l-37.318,0l-0.119,-1.825l37.94,0c1.631,0 2.96,-1.33 2.96,-2.964l0,-62.543c0,-1.635 -1.329,-2.961 -2.96,-2.961l-96.137,0c-1.631,0 -2.96,1.326 -2.96,2.961l0,62.543c0,1.634 1.329,2.964 2.96,2.964l37.942,0l-0.119,1.825l-37.319,0c-2.917,0 -5.291,-2.373 -5.291,-5.291l0,-61.539c0,-2.917 2.374,-5.291 5.291,-5.291l95.13,0c2.917,0 5.291,2.374 5.291,5.291l0,61.539c0,2.918 -2.374,5.291 -5.291,5.291Z" style="fill:#f3f3f3;fill-rule:nonzero;"/><path d="M138.461,129.851l0,62.543c0,1.634 -1.329,2.964 -2.96,2.964l-96.137,0c-1.631,0 -2.96,-1.33 -2.96,-2.964l0,-62.543c0,-1.635 1.329,-2.961 2.96,-2.961l96.137,0c1.631,0 2.96,1.326 2.96,2.961Z" style="fill:#d8d8d8;fill-rule:nonzero;"/><path d="M135.501,195.358l-37.94,0l-1.276,-19.614c16.27,-9.793 32.264,-24.35 42.176,-45.893l0,62.543c0,1.634 -1.329,2.964 -2.96,2.964Zm-58.195,0l-37.942,0c0,0 17.574,-1.664 38.618,-10.411l-0.676,10.411Z" style="fill:#b0a8b3;fill-rule:nonzero;"/><path d="M39.868,125.062c-2.917,0 -5.291,2.374 -5.291,5.291l0,61.539c0,2.918 2.374,5.291 5.291,5.291l95.13,0c2.917,0 5.291,-2.373 5.291,-5.291l0,-61.539c0,-2.917 -2.374,-5.291 -5.291,-5.291l-95.13,0Zm95.13,74.905l-95.13,0c-4.452,0 -8.075,-3.623 -8.075,-8.075l0,-61.539c0,-4.452 3.623,-8.075 8.075,-8.075l95.13,0c4.452,0 8.075,3.623 8.075,8.075l0,61.539c0,4.452 -3.623,8.075 -8.075,8.075Z" style="fill:#371a45;fill-rule:nonzero;"/><path d="M103.311,219.477l-31.757,0c-0.452,0 -0.82,-0.367 -0.82,-0.82c0,-1.999 1.621,-3.62 3.619,-3.62l26.16,0c1.998,0 3.619,1.621 3.619,3.62c0,0.453 -0.367,0.82 -0.821,0.82Z" style="fill:#d8d8d8;fill-rule:nonzero;"/><path d="M103.311,219.477l-31.757,0c-0.452,0 -0.82,-0.367 -0.82,-0.82c0,-1.999 1.621,-3.62 3.619,-3.62l26.16,0c1.998,0 3.619,1.621 3.619,3.62c0,0.453 -0.367,0.82 -0.821,0.82Z" style="fill:#b0a8b3;fill-rule:nonzero;"/><path d="M87.433,185.61c-2.626,0 -4.757,-2.13 -4.757,-4.756c0,-2.626 2.131,-4.756 4.757,-4.756c2.628,0 4.756,2.13 4.756,4.756c0,2.626 -2.128,4.756 -4.756,4.756Zm8.666,-12.731c-0.116,-1.805 -1.616,-3.208 -3.424,-3.208l-10.485,0c-1.808,0 -3.308,1.403 -3.424,3.208l-2.739,42.157l22.813,0l-2.741,-42.157Z" style="fill:#d8d8d8;fill-rule:nonzero;"/><path d="M98.84,215.036l-22.813,0l2.739,-42.157c0.116,-1.805 1.616,-3.208 3.424,-3.208l10.485,0c1.808,0 3.308,1.403 3.424,3.208l2.741,42.157Z" style="fill:#d8d8d8;fill-rule:nonzero;"/><path d="M98.84,215.036l-2.34,0l-2.797,0l-17.676,0l2.739,-42.157c0.116,-1.805 1.616,-3.208 3.424,-3.208l10.485,0c1.808,0 3.308,1.403 3.424,3.208l2.741,42.157Zm-2.404,-2.252l-1.534,-23.605l-1.052,-16.155c-0.039,-0.618 -0.554,-1.1 -1.175,-1.1l-10.485,0c-0.62,0 -1.136,0.482 -1.174,1.1l-2.481,38.17l-0.104,1.59l18.005,0Z" style="fill:#f3f3f3;fill-rule:nonzero;"/><path d="M96.436,212.784l-18.005,0l0.104,-1.59l2.481,-38.17c0.038,-0.618 0.554,-1.1 1.174,-1.1l10.485,0c0.621,0 1.136,0.482 1.175,1.1l1.052,16.155l1.534,23.605Z" style="fill:#d8d8d8;fill-rule:nonzero;"/><path d="M87.433,177.975c-1.588,0 -2.88,1.291 -2.88,2.879c0,1.588 1.292,2.879 2.88,2.879c1.588,0 2.879,-1.291 2.879,-2.879c0,-1.588 -1.291,-2.879 -2.879,-2.879Zm0,8.14c-2.901,0 -5.262,-2.36 -5.262,-5.261c0,-2.902 2.361,-5.262 5.262,-5.262c2.901,0 5.262,2.36 5.262,5.262c0,2.901 -2.361,5.261 -5.262,5.261Z" style="fill:#371a45;fill-rule:nonzero;"/><path d="M96.436,212.784l-18.005,0l0.104,-1.59c4.544,-2.72 12.846,-9.239 16.367,-22.015l1.534,23.605Z" style="fill:#b0a8b3;fill-rule:nonzero;"/><path d="M77.513,213.644l19.842,0l-2.645,-40.674l0,-0.001c-0.069,-1.069 -0.962,-1.906 -2.035,-1.906l-10.485,0c-1.072,0 -1.966,0.837 -2.035,1.906l-2.642,40.675Zm21.327,2.784l-22.813,0c-0.384,0 -0.752,-0.159 -1.015,-0.44c-0.263,-0.281 -0.398,-0.658 -0.373,-1.043l2.738,-42.155c0.162,-2.529 2.276,-4.511 4.813,-4.511l10.485,0c2.536,0 4.65,1.981 4.813,4.51l2.742,42.156c0.025,0.385 -0.11,0.762 -0.373,1.043c-0.264,0.281 -0.631,0.44 -1.017,0.44Z" style="fill:#371a45;fill-rule:nonzero;"/><path d="M45.645,224.161c0.244,-0.048 0.49,-0.085 0.731,-0.145c0.326,-0.084 0.397,-0.176 0.435,-0.513c0.025,-0.225 0.046,-0.449 0.072,-0.674c0.002,-0.018 0.03,-0.032 0.068,-0.07c0.047,0.227 0.084,0.439 0.135,0.648c0.093,0.386 0.202,0.477 0.61,0.502c0.224,0.013 0.45,0.01 0.687,0.075c-0.232,0.066 -0.464,0.13 -0.696,0.198c-0.408,0.119 -0.46,0.186 -0.482,0.615c-0.006,0.113 0,0.226 -0.003,0.34c-0.003,0.084 -0.012,0.169 -0.082,0.268c-0.073,-0.255 -0.15,-0.51 -0.218,-0.767c-0.054,-0.199 -0.175,-0.312 -0.38,-0.33c-0.291,-0.025 -0.581,-0.048 -0.872,-0.072c-0.002,-0.025 -0.004,-0.05 -0.005,-0.075Z" style="fill:#e5e9ec;fill-rule:nonzero;"/><path d="M101.411,223.829c0.248,0.012 0.497,0.035 0.745,0.033c0.337,-0.003 0.428,-0.076 0.545,-0.394c0.077,-0.212 0.151,-0.426 0.23,-0.638c0.006,-0.016 0.037,-0.024 0.083,-0.052c-0.009,0.232 -0.023,0.447 -0.023,0.662c-0.003,0.397 0.082,0.511 0.472,0.633c0.216,0.066 0.435,0.118 0.651,0.236c-0.242,0.009 -0.482,0.015 -0.724,0.026c-0.425,0.02 -0.491,0.072 -0.615,0.483c-0.032,0.108 -0.053,0.22 -0.084,0.329c-0.022,0.082 -0.052,0.162 -0.144,0.242c-0.01,-0.266 -0.023,-0.532 -0.028,-0.797c-0.005,-0.206 -0.095,-0.345 -0.29,-0.411c-0.277,-0.094 -0.554,-0.186 -0.831,-0.278c0.005,-0.025 0.009,-0.049 0.013,-0.074Z" style="fill:#e5e9ec;fill-rule:nonzero;"/><path d="M132.34,231.281c0.238,0.069 0.475,0.147 0.717,0.202c0.328,0.074 0.434,0.023 0.62,-0.259c0.124,-0.19 0.245,-0.38 0.37,-0.569c0.01,-0.014 0.042,-0.014 0.092,-0.031c-0.06,0.223 -0.123,0.429 -0.173,0.639c-0.093,0.386 -0.036,0.516 0.316,0.723c0.194,0.115 0.396,0.214 0.579,0.379c-0.237,-0.047 -0.473,-0.095 -0.71,-0.139c-0.419,-0.078 -0.495,-0.043 -0.71,0.329c-0.056,0.098 -0.102,0.203 -0.156,0.302c-0.041,0.074 -0.087,0.145 -0.195,0.202c0.05,-0.262 0.098,-0.523 0.154,-0.783c0.042,-0.201 -0.014,-0.357 -0.19,-0.466c-0.247,-0.154 -0.495,-0.306 -0.744,-0.46c0.01,-0.023 0.019,-0.046 0.03,-0.069Z" style="fill:#e5e9ec;fill-rule:nonzero;"/><path d="M177.437,222.776c0.3,-0.044 0.602,-0.075 0.899,-0.136c0.403,-0.082 0.494,-0.191 0.559,-0.599c0.043,-0.272 0.082,-0.545 0.126,-0.817c0.003,-0.021 0.039,-0.037 0.087,-0.081c0.044,0.279 0.078,0.539 0.127,0.797c0.092,0.475 0.219,0.592 0.715,0.645c0.273,0.03 0.547,0.039 0.833,0.13c-0.286,0.068 -0.573,0.133 -0.859,0.202c-0.504,0.123 -0.571,0.201 -0.623,0.722c-0.014,0.137 -0.012,0.276 -0.023,0.413c-0.008,0.103 -0.024,0.206 -0.115,0.323c-0.074,-0.316 -0.153,-0.63 -0.222,-0.947c-0.053,-0.245 -0.194,-0.39 -0.443,-0.424c-0.353,-0.047 -0.706,-0.091 -1.059,-0.137c0,-0.03 -0.001,-0.061 -0.002,-0.091Z" style="fill:#e5e9ec;fill-rule:nonzero;"/><path d="M199.775,224.782c0.24,-0.064 0.483,-0.118 0.719,-0.195c0.32,-0.106 0.384,-0.203 0.399,-0.542c0.009,-0.226 0.014,-0.451 0.024,-0.678c0.001,-0.017 0.029,-0.034 0.064,-0.074c0.062,0.222 0.114,0.432 0.179,0.637c0.119,0.378 0.234,0.461 0.643,0.458c0.225,-0.002 0.451,-0.02 0.691,0.027c-0.227,0.082 -0.453,0.162 -0.68,0.246c-0.399,0.148 -0.446,0.218 -0.439,0.647c0.002,0.113 0.016,0.226 0.021,0.339c0.003,0.085 0,0.17 -0.063,0.274c-0.091,-0.25 -0.185,-0.499 -0.271,-0.75c-0.067,-0.195 -0.195,-0.3 -0.402,-0.303c-0.291,-0.005 -0.583,-0.007 -0.875,-0.012c-0.003,-0.024 -0.007,-0.049 -0.01,-0.074Z" style="fill:#e5e9ec;fill-rule:nonzero;"/><path d="M155.645,231.847c0.246,-0.036 0.493,-0.062 0.737,-0.111c0.33,-0.068 0.405,-0.158 0.458,-0.492c0.036,-0.223 0.067,-0.447 0.104,-0.671c0.002,-0.017 0.031,-0.03 0.071,-0.066c0.036,0.228 0.064,0.442 0.104,0.654c0.075,0.39 0.179,0.486 0.586,0.529c0.224,0.025 0.449,0.032 0.683,0.107c-0.234,0.055 -0.469,0.108 -0.704,0.166c-0.413,0.1 -0.469,0.164 -0.511,0.591c-0.011,0.113 -0.01,0.227 -0.018,0.339c-0.007,0.085 -0.021,0.169 -0.095,0.265c-0.061,-0.259 -0.126,-0.517 -0.182,-0.777c-0.044,-0.2 -0.159,-0.319 -0.364,-0.347c-0.289,-0.038 -0.579,-0.075 -0.868,-0.113c0,-0.024 -0.001,-0.05 -0.001,-0.074Z" style="fill:#e5e9ec;fill-rule:nonzero;"/><path d="M124.617,223.39c0.243,-0.148 0.494,-0.287 0.728,-0.448c0.319,-0.22 0.358,-0.348 0.263,-0.725c-0.063,-0.253 -0.13,-0.503 -0.192,-0.755c-0.004,-0.019 0.02,-0.047 0.046,-0.103c0.141,0.226 0.266,0.439 0.404,0.644c0.254,0.378 0.408,0.433 0.857,0.296c0.247,-0.075 0.489,-0.168 0.77,-0.194c-0.224,0.163 -0.448,0.325 -0.67,0.491c-0.391,0.292 -0.421,0.385 -0.274,0.855c0.039,0.124 0.092,0.244 0.133,0.367c0.031,0.091 0.055,0.187 0.019,0.321c-0.181,-0.246 -0.365,-0.489 -0.541,-0.738c-0.137,-0.193 -0.312,-0.266 -0.54,-0.203c-0.323,0.089 -0.646,0.18 -0.968,0.271c-0.011,-0.027 -0.024,-0.053 -0.035,-0.079Z" style="fill:#e5e9ec;fill-rule:nonzero;"/><path d="M84.485,229.65c0.245,-0.036 0.493,-0.062 0.737,-0.112c0.33,-0.067 0.405,-0.156 0.458,-0.491c0.035,-0.223 0.067,-0.448 0.103,-0.67c0.003,-0.017 0.032,-0.031 0.072,-0.067c0.036,0.229 0.064,0.443 0.105,0.654c0.074,0.389 0.179,0.485 0.585,0.53c0.224,0.023 0.45,0.031 0.684,0.107c-0.235,0.054 -0.471,0.107 -0.705,0.164c-0.413,0.101 -0.469,0.165 -0.511,0.592c-0.011,0.113 -0.01,0.226 -0.019,0.34c-0.006,0.084 -0.02,0.168 -0.094,0.264c-0.061,-0.259 -0.125,-0.517 -0.182,-0.776c-0.044,-0.201 -0.159,-0.32 -0.364,-0.347c-0.289,-0.039 -0.578,-0.076 -0.868,-0.114c0,-0.024 -0.001,-0.049 -0.001,-0.074Z" style="fill:#e5e9ec;fill-rule:nonzero;"/><path d="M70.17,223.218c0.452,0.002 0.904,0.024 1.354,0c0.612,-0.032 0.772,-0.172 0.957,-0.759c0.125,-0.391 0.243,-0.785 0.368,-1.176c0.01,-0.031 0.065,-0.046 0.147,-0.101c0.002,0.421 -0.006,0.813 0.01,1.204c0.028,0.72 0.19,0.921 0.909,1.11c0.396,0.104 0.798,0.179 1.199,0.377c-0.438,0.036 -0.875,0.067 -1.311,0.106c-0.77,0.068 -0.887,0.169 -1.079,0.926c-0.05,0.198 -0.079,0.404 -0.125,0.604c-0.034,0.149 -0.082,0.297 -0.242,0.449c-0.04,-0.482 -0.085,-0.963 -0.116,-1.445c-0.024,-0.372 -0.2,-0.617 -0.56,-0.722c-0.509,-0.148 -1.019,-0.292 -1.528,-0.438c0.005,-0.045 0.011,-0.091 0.017,-0.135Z" style="fill:#e5e9ec;fill-rule:nonzero;"/><path d="M109.126,231.068c0.438,0.08 0.874,0.179 1.315,0.234c0.599,0.075 0.778,-0.034 1.059,-0.57c0.188,-0.359 0.371,-0.721 0.56,-1.079c0.015,-0.028 0.071,-0.034 0.16,-0.072c-0.07,0.408 -0.146,0.787 -0.198,1.169c-0.097,0.704 0.026,0.927 0.691,1.235c0.365,0.169 0.743,0.311 1.097,0.573c-0.43,-0.042 -0.859,-0.086 -1.29,-0.123c-0.759,-0.067 -0.889,0.01 -1.206,0.711c-0.084,0.185 -0.147,0.378 -0.226,0.565c-0.06,0.139 -0.131,0.274 -0.312,0.395c0.044,-0.475 0.083,-0.95 0.136,-1.424c0.041,-0.365 -0.087,-0.633 -0.418,-0.797c-0.469,-0.231 -0.939,-0.459 -1.408,-0.689c0.013,-0.042 0.027,-0.085 0.04,-0.128Z" style="fill:#e5e9ec;fill-rule:nonzero;"/><path d="M147.06,222.698c0.342,-0.035 0.688,-0.056 1.027,-0.111c0.462,-0.075 0.571,-0.195 0.665,-0.655c0.062,-0.308 0.118,-0.617 0.181,-0.924c0.005,-0.024 0.046,-0.04 0.103,-0.088c0.037,0.319 0.063,0.617 0.107,0.912c0.081,0.545 0.221,0.684 0.782,0.768c0.309,0.047 0.621,0.071 0.941,0.188c-0.328,0.062 -0.658,0.122 -0.986,0.188c-0.579,0.116 -0.659,0.201 -0.742,0.792c-0.023,0.155 -0.027,0.313 -0.046,0.469c-0.014,0.116 -0.037,0.232 -0.146,0.36c-0.07,-0.362 -0.144,-0.723 -0.208,-1.087c-0.049,-0.281 -0.202,-0.452 -0.484,-0.501c-0.399,-0.071 -0.798,-0.138 -1.197,-0.207c0.001,-0.035 0.002,-0.069 0.003,-0.104Z" style="fill:#e5e9ec;fill-rule:nonzero;"/><path d="M171.66,230.143c0.459,0.003 0.919,0.027 1.378,0.005c0.622,-0.03 0.784,-0.172 0.976,-0.767c0.128,-0.398 0.249,-0.798 0.379,-1.195c0.01,-0.031 0.066,-0.047 0.149,-0.102c0.001,0.428 -0.009,0.826 0.006,1.224c0.026,0.733 0.19,0.937 0.92,1.133c0.401,0.107 0.811,0.185 1.217,0.388c-0.445,0.034 -0.889,0.065 -1.334,0.103c-0.782,0.066 -0.902,0.168 -1.101,0.936c-0.052,0.202 -0.081,0.41 -0.129,0.614c-0.036,0.153 -0.084,0.302 -0.248,0.456c-0.038,-0.49 -0.083,-0.979 -0.113,-1.47c-0.023,-0.379 -0.2,-0.629 -0.565,-0.736c-0.517,-0.153 -1.036,-0.302 -1.553,-0.452c0.006,-0.046 0.012,-0.092 0.018,-0.137Z" style="fill:#e5e9ec;fill-rule:nonzero;"/><path d="M72.2,218.085l30.465,0c-0.253,-0.952 -1.121,-1.656 -2.153,-1.656l-26.158,0c-1.031,0 -1.901,0.704 -2.154,1.656Zm31.112,2.784l-31.757,0c-1.22,0 -2.213,-0.992 -2.213,-2.212c0,-2.763 2.248,-5.012 5.012,-5.012l26.158,0c2.764,0 5.012,2.249 5.012,5.012c0,1.22 -0.993,2.212 -2.212,2.212Z" style="fill:#371a45;fill-rule:nonzero;"/><path d="M211.001,187.752c-0.221,0 -0.445,-0.053 -0.653,-0.164c-10.171,-5.412 -23.696,-0.631 -23.831,-0.581c-0.722,0.26 -1.52,-0.112 -1.783,-0.836c-0.261,-0.722 0.112,-1.52 0.834,-1.782c0.6,-0.217 14.811,-5.259 26.088,0.741c0.678,0.362 0.936,1.204 0.575,1.883c-0.25,0.471 -0.732,0.738 -1.23,0.739Z" style="fill:#371a45;fill-rule:nonzero;"/><path d="M98.069,140.394c0.035,-0.259 0.062,-0.515 0.08,-0.768l-0.735,-0.089l0.655,0.857Zm-18.601,6.328c0.762,-1.035 1.515,-2.061 2.266,-3.083c-0.25,0.021 -0.497,0.065 -0.727,0.128c-1.467,0.403 -2.658,1.264 -3.706,2.249l2.167,0.706Zm8.078,-0.743c0.401,0 0.781,0.137 1.1,0.398c0.428,0.349 0.671,0.859 0.662,1.397c-0.01,0.552 -0.282,1.072 -0.748,1.426c-0.986,0.757 -1.978,1.517 -2.97,2.276c-0.621,0.475 -1.243,0.95 -1.863,1.426c3.452,-1.059 6.042,-2.122 8.343,-3.421c1.138,-0.642 2.008,-1.262 2.738,-1.953c0.885,-0.842 1.61,-1.903 2.208,-3.237c-0.152,-0.193 -0.303,-0.392 -0.454,-0.59l-0.288,-0.375c-0.975,-1.278 -1.945,-2.548 -2.925,-3.817c-0.814,0.117 -1.615,0.331 -2.407,0.639c-1.184,0.458 -2.286,1.219 -3.576,2.464c-1.192,1.144 -2.263,2.382 -3.184,3.684c-0.824,1.161 -1.63,2.367 -2.41,3.534l-0.134,0.199l1.577,-1.207c1.062,-0.816 2.125,-1.63 3.192,-2.443c0.348,-0.263 0.741,-0.4 1.139,-0.4Zm-0.906,12.23c0.793,-0.489 1.422,-0.971 1.963,-1.5c0.789,-0.777 1.282,-1.524 1.545,-2.344l-3.632,1.411c0.041,0.802 0.083,1.613 0.124,2.433Zm-1.676,4.627c-0.954,0 -1.686,-0.748 -1.74,-1.778c-0.066,-1.181 -0.123,-2.368 -0.18,-3.554l-0.038,-0.773c-0.015,0.001 -0.031,0.001 -0.047,0.001c-0.767,0 -1.227,-0.466 -1.541,-0.871c-0.191,-0.247 -0.381,-0.495 -0.573,-0.747c-0.167,0.128 -0.335,0.253 -0.505,0.374c-0.306,0.222 -0.66,0.34 -1.021,0.34c-0.323,0 -0.637,-0.091 -0.935,-0.271c-0.678,-0.4 -1.001,-1.188 -0.78,-1.915c0.101,-0.353 0.332,-0.719 0.629,-0.989c0.146,-0.133 0.294,-0.254 0.445,-0.37c-0.093,-0.121 -0.185,-0.242 -0.277,-0.363l-0.051,-0.069c-0.016,-0.023 -0.031,-0.046 -0.048,-0.066c-0.562,-0.594 -0.778,-1.262 -0.64,-1.917l-3.983,-1.289c-0.653,-0.22 -1.116,-0.673 -1.277,-1.246c-0.16,-0.568 -0.004,-1.19 0.427,-1.706c1.038,-1.245 2.466,-2.827 4.304,-3.984c1.678,-1.053 3.306,-1.565 4.982,-1.565c0.122,0 0.245,0.002 0.369,0.008c0.749,0.038 1.406,0.171 2.001,0.406l0.271,-0.256c0.547,-0.521 1.113,-1.059 1.725,-1.551c2.051,-1.652 4.477,-2.579 7.415,-2.832c0.486,-0.042 0.981,-0.063 1.471,-0.063c1.517,0 3.077,0.204 4.635,0.606c0.23,0.059 0.44,0.143 0.626,0.217c0.078,0.032 0.157,0.064 0.236,0.092c0.155,0.055 0.29,0.152 0.393,0.281c0.044,0.056 0.195,0.257 0.229,0.301c0.088,0.11 0.148,0.241 0.175,0.38c0.193,1.002 0.085,1.945 -0.02,2.857l-0.016,0.135c-0.291,2.573 -1.075,4.903 -2.33,6.922c-1.004,1.617 -2.29,2.943 -3.822,3.941c-0.34,0.22 -0.683,0.432 -1.026,0.643c-0.206,0.127 -0.412,0.255 -0.617,0.384c0.218,2.059 -0.421,3.97 -1.944,5.839c-1.03,1.256 -2.364,2.32 -4.081,3.253c-0.61,0.331 -1.249,0.653 -1.956,0.986c-0.29,0.138 -0.589,0.209 -0.885,0.209Z" style="fill:#fff;fill-rule:nonzero;"/><path d="M98.561,142.484c-1.025,-1.343 -2.026,-2.648 -3.028,-3.96c0.001,-0.03 0.01,-0.065 0.014,-0.097c1.168,0.139 2.337,0.282 3.519,0.424c-0.023,1.272 -0.21,2.438 -0.505,3.633Zm-0.615,1.875c-0.606,1.43 -1.401,2.731 -2.534,3.808c-0.874,0.827 -1.866,1.49 -2.91,2.08c-2.832,1.598 -5.866,2.701 -8.969,3.633c-0.152,0.043 -0.245,0.035 -0.345,-0.104c-0.216,-0.308 -0.459,-0.604 -0.688,-0.908c-0.016,-0.017 -0.02,-0.045 -0.043,-0.1c0.08,-0.064 0.164,-0.126 0.25,-0.192c1.771,-1.359 3.551,-2.714 5.321,-4.077c0.513,-0.388 0.534,-1.056 0.06,-1.442c-0.331,-0.271 -0.767,-0.266 -1.148,0.02c-1.066,0.813 -2.129,1.627 -3.192,2.443c-0.792,0.605 -1.579,1.21 -2.402,1.841c-0.284,-0.369 -0.556,-0.706 -0.802,-1.061c-0.042,-0.063 0.001,-0.224 0.058,-0.302c0.944,-1.409 1.88,-2.825 2.862,-4.209c0.972,-1.374 2.077,-2.644 3.292,-3.809c1.139,-1.101 2.374,-2.072 3.867,-2.651c0.957,-0.373 1.944,-0.626 2.965,-0.735c0.092,-0.014 0.226,0.079 0.292,0.164c1.037,1.342 2.063,2.684 3.09,4.031c0.308,0.399 0.613,0.808 0.931,1.204c0.094,0.12 0.105,0.221 0.045,0.366Zm-6.949,10.238c-0.339,1.079 -0.985,1.958 -1.78,2.742c-0.988,0.964 -2.14,1.682 -3.384,2.338c-0.076,-1.529 -0.152,-3.025 -0.227,-4.491c1.882,-0.731 3.721,-1.446 5.571,-2.164c0.071,0.509 -0.016,1.049 -0.18,1.575Zm-11.197,-6.842c-1.331,-0.434 -2.712,-0.884 -4.129,-1.345c1.465,-1.557 3.015,-2.917 5.103,-3.491c0.902,-0.248 1.945,-0.227 2.56,0.023c-1.169,1.596 -2.34,3.191 -3.534,4.813Zm20.952,-7.196c0.103,-0.9 0.222,-1.811 0.046,-2.726c-0.079,-0.1 -0.151,-0.201 -0.23,-0.3c-0.261,-0.094 -0.515,-0.217 -0.786,-0.285c-1.909,-0.493 -3.844,-0.688 -5.81,-0.519c-2.564,0.221 -4.917,1.012 -6.94,2.642c-0.733,0.587 -1.401,1.251 -2.085,1.895c-0.183,0.175 -0.324,0.248 -0.582,0.13c-0.605,-0.276 -1.258,-0.398 -1.921,-0.432c-1.777,-0.08 -3.363,0.494 -4.842,1.423c-1.604,1.009 -2.896,2.36 -4.099,3.804c-0.512,0.613 -0.313,1.296 0.449,1.553c0.482,0.157 0.963,0.311 1.444,0.468c1.153,0.373 2.304,0.743 3.454,1.116c-0.003,0.036 0,0.055 -0.005,0.072c-0.01,0.023 -0.02,0.048 -0.035,0.071c-0.48,0.616 -0.364,1.187 0.142,1.723c0.055,0.06 0.102,0.13 0.149,0.195c0.265,0.348 0.536,0.7 0.816,1.063c-0.383,0.296 -0.759,0.547 -1.093,0.851c-0.167,0.153 -0.316,0.376 -0.379,0.595c-0.108,0.356 0.076,0.719 0.392,0.906c0.336,0.202 0.681,0.194 0.994,-0.032c0.396,-0.282 0.774,-0.587 1.178,-0.895c0.381,0.502 0.741,0.976 1.103,1.445c0.415,0.534 0.701,0.625 1.344,0.448c0.117,-0.037 0.233,-0.062 0.371,-0.096c0.009,0.138 0.02,0.248 0.026,0.351c0.081,1.664 0.157,3.329 0.248,4.987c0.042,0.786 0.663,1.158 1.373,0.82c0.641,-0.302 1.282,-0.622 1.911,-0.963c1.449,-0.788 2.768,-1.754 3.819,-3.037c1.317,-1.615 2.046,-3.419 1.704,-5.55c-0.014,-0.084 0.056,-0.227 0.129,-0.271c0.646,-0.416 1.31,-0.806 1.957,-1.226c1.461,-0.952 2.636,-2.19 3.554,-3.668c1.249,-2.01 1.939,-4.216 2.204,-6.558Z" style="fill:#371a45;fill-rule:nonzero;"/><path d="M94.793,146.042c-1.355,1.02 -3.27,0.771 -4.287,-0.564c-1.023,-1.334 -0.765,-3.247 0.576,-4.282c1.317,-1.013 3.233,-0.751 4.259,0.582c1.016,1.326 0.769,3.268 -0.548,4.264Zm3.108,-2.049c-0.318,-0.396 -0.623,-0.805 -0.931,-1.204c-1.027,-1.347 -2.053,-2.689 -3.09,-4.031c-0.066,-0.085 -0.2,-0.178 -0.292,-0.164c-1.021,0.109 -2.008,0.362 -2.965,0.735c-1.493,0.579 -2.728,1.55 -3.867,2.651c-1.215,1.165 -2.32,2.435 -3.292,3.809c-0.982,1.384 -1.918,2.8 -2.862,4.209c-0.057,0.078 -0.1,0.239 -0.058,0.302c0.246,0.355 0.518,0.692 0.802,1.061c0.823,-0.631 1.61,-1.236 2.402,-1.841c1.063,-0.816 2.126,-1.63 3.192,-2.443c0.381,-0.286 0.817,-0.291 1.148,-0.02c0.474,0.386 0.453,1.054 -0.06,1.442c-1.77,1.363 -3.55,2.718 -5.321,4.077c-0.086,0.066 -0.17,0.128 -0.25,0.192c0.023,0.055 0.027,0.083 0.043,0.1c0.229,0.304 0.472,0.6 0.688,0.908c0.1,0.139 0.193,0.147 0.345,0.104c3.103,-0.932 6.137,-2.035 8.969,-3.633c1.044,-0.59 2.036,-1.253 2.91,-2.08c1.133,-1.077 1.928,-2.378 2.534,-3.808c0.06,-0.145 0.049,-0.246 -0.045,-0.366Z" style="fill:#fff;fill-rule:nonzero;"/><path d="M98.561,142.483c-1.026,-1.34 -2.026,-2.648 -3.028,-3.96c0.003,-0.031 0.01,-0.063 0.014,-0.097c1.167,0.142 2.337,0.284 3.52,0.425c-0.022,1.271 -0.211,2.438 -0.506,3.632Z" style="fill:#f58600;fill-rule:nonzero;"/><path d="M83.335,142.943c-1.17,1.594 -2.341,3.19 -3.534,4.813c-1.334,-0.436 -2.713,-0.885 -4.13,-1.346c1.467,-1.558 3.015,-2.918 5.104,-3.49c0.901,-0.25 1.942,-0.228 2.56,0.023Z" style="fill:#f58600;fill-rule:nonzero;"/><path d="M89.216,157.339c-0.989,0.964 -2.139,1.683 -3.384,2.337c-0.076,-1.528 -0.152,-3.023 -0.226,-4.49c1.882,-0.731 3.72,-1.445 5.572,-2.165c0.072,0.51 -0.018,1.049 -0.181,1.577c-0.337,1.08 -0.984,1.958 -1.781,2.741Z" style="fill:#f58600;fill-rule:nonzero;"/><path d="M93.88,144.916c-0.686,0.519 -1.693,0.383 -2.228,-0.302c-0.552,-0.707 -0.402,-1.745 0.33,-2.287c0.685,-0.514 1.711,-0.365 2.227,0.323c0.54,0.716 0.391,1.722 -0.329,2.266Zm1.461,-3.138c-1.026,-1.333 -2.942,-1.595 -4.259,-0.582c-1.341,1.035 -1.599,2.948 -0.576,4.282c1.017,1.335 2.932,1.584 4.287,0.564c1.317,-0.996 1.564,-2.938 0.548,-4.264Z" style="fill:#371a45;fill-rule:nonzero;"/><path d="M93.879,144.916c-0.686,0.519 -1.693,0.383 -2.228,-0.303c-0.55,-0.706 -0.401,-1.743 0.33,-2.286c0.687,-0.513 1.712,-0.365 2.227,0.323c0.539,0.716 0.393,1.723 -0.329,2.266Z" style="fill:#f58600;fill-rule:nonzero;"/><path d="M72.855,67.191c2.064,-2.71 3.291,-6.09 3.291,-9.758c0,-8.904 -7.219,-16.122 -16.122,-16.122c-8.904,0 -16.122,7.218 -16.122,16.122c0,8.904 7.218,16.121 16.122,16.121c2.477,0 4.822,-0.559 6.919,-1.557l7.251,2.426l-1.339,-7.232Z" style="fill:#fff;fill-rule:nonzero;"/><path d="M74.096,52.663c-2.759,-4.923 -8.026,-8.252 -14.072,-8.252c-6.046,0 -11.314,3.328 -14.072,8.252c1.991,-5.86 7.547,-10.088 14.072,-10.088c6.524,0 12.08,4.229 14.072,10.088Z" style="fill:#fff;fill-rule:nonzero;"/><path d="M66.943,70.732c0.135,0 0.27,0.022 0.401,0.065l5.215,1.746l-0.948,-5.122c-0.065,-0.351 0.021,-0.713 0.238,-0.997c1.983,-2.604 3.032,-5.713 3.032,-8.991c0,-8.193 -6.665,-14.858 -14.857,-14.858c-8.193,0 -14.858,6.665 -14.858,14.858c0,8.192 6.666,14.857 14.858,14.857c2.229,0 4.375,-0.483 6.375,-1.435c0.172,-0.082 0.357,-0.123 0.544,-0.123Zm7.251,4.956c-0.135,0 -0.271,-0.021 -0.402,-0.065l-6.777,-2.268c-2.207,0.972 -4.556,1.464 -6.991,1.465c-9.588,0 -17.387,-7.8 -17.387,-17.387c0,-9.588 7.799,-17.387 17.387,-17.387c9.587,0 17.387,7.799 17.387,17.387c0,3.646 -1.109,7.114 -3.212,10.067l1.239,6.693c0.08,0.441 -0.076,0.891 -0.415,1.185c-0.233,0.203 -0.529,0.31 -0.829,0.31Z" style="fill:#371a45;fill-rule:nonzero;"/><path d="M72.559,72.543l-5.215,-1.746c-0.131,-0.043 -0.266,-0.065 -0.401,-0.065c-0.187,0 -0.372,0.041 -0.544,0.123c-2,0.952 -4.146,1.435 -6.375,1.435c-7.726,0 -14.094,-5.928 -14.794,-13.474c1.937,4.668 5.753,8.537 10.882,10.387c2.086,0.754 4.218,1.11 6.314,1.11c3.279,0 6.472,-0.873 9.263,-2.471l0.87,4.701Z" style="fill:#b9afbe;fill-rule:nonzero;"/><path d="M74.194,74.423l-7.251,-2.426c-2.097,0.998 -4.442,1.557 -6.919,1.557c-8.904,0 -16.122,-7.217 -16.122,-16.121c0,-0.848 0.066,-1.68 0.192,-2.492c0.238,1.333 0.621,2.632 1.136,3.875c0.7,7.546 7.068,13.474 14.794,13.474c2.229,0 4.375,-0.483 6.375,-1.435c0.172,-0.082 0.357,-0.123 0.544,-0.123c0.135,0 0.27,0.022 0.401,0.065l5.215,1.746l-0.87,-4.701c0.435,-0.248 0.858,-0.514 1.272,-0.796c-0.036,0.048 -0.07,0.097 -0.106,0.145l1.339,7.232Z" style="fill:#371a45;fill-rule:nonzero;"/><path d="M65.152,52.907c-1.395,-1.395 -3.657,-1.145 -5.052,0.25l-0.217,0.217l-0.217,-0.217c-1.395,-1.395 -3.657,-1.645 -5.053,-0.25c-1.395,1.395 -1.395,3.657 0,5.052l0.217,0.218l4.387,4.386c0.368,0.368 0.964,0.368 1.332,0l4.387,-4.386l0.216,-0.218c1.396,-1.395 1.396,-3.657 0,-5.052Z" style="fill:#f58600;fill-rule:nonzero;"/></g></svg>