<?xml version="1.0" encoding="UTF-8" standalone="no"?><!DOCTYPE svg PUBLIC "-//W3C//DTD SVG 1.1//EN" "http://www.w3.org/Graphics/SVG/1.1/DTD/svg11.dtd"><svg width="100%" height="100%" viewBox="0 0 3989 4008" version="1.1" xmlns="http://www.w3.org/2000/svg" xmlns:xlink="http://www.w3.org/1999/xlink" xml:space="preserve" xmlns:serif="http://www.serif.com/" style="fill-rule:evenodd;clip-rule:evenodd;stroke-linejoin:round;stroke-miterlimit:2;"><rect id="Tavola-da-disegno1" serif:id="Tavola da disegno1" x="0" y="0" width="3988.45" height="4007.01" style="fill:none;"/><g><path d="M2228.71,2199.02c37.06,-31.3 63.51,-56.59 79.37,-75.91c473,258.81 501.39,578.29 -2.15,701.74c-150.77,36.96 -237.43,-151.77 -70.37,-250.91c-112.84,-121.33 -77.6,-157.1 105.74,-107.28c71.1,-25.17 109.77,-55.76 116.03,-91.76c-61.52,-77.38 -137.74,-136.01 -228.62,-175.88Z" style="fill:#fff;"/><path d="M2218.61,2447.23c-22.46,0 -36.59,4.7 -42.27,14.1c-11.03,18.25 9.49,55.59 60.98,110.97l2.04,2.19l-2.58,1.53c-91.49,54.3 -100.86,130.08 -81.09,178.47c19.36,47.37 73.16,86.77 149.67,68.02c219.09,-53.72 348.32,-148.82 363.89,-267.78c17.91,-136.83 -113.48,-292.95 -360.58,-428.55c-15.57,18.62 -40.94,42.89 -75.46,72.19c89.31,39.84 165.33,98.71 226.01,175.03l0.68,0.85l-0.19,1.07c-6.39,36.75 -45.96,68.25 -117.61,93.62l-0.71,0.25l-0.73,-0.2c-53.36,-14.5 -94.14,-21.76 -122.05,-21.76Zm48.74,384.9c-58.48,0 -99.48,-35.09 -116.13,-75.82c-20.31,-49.71 -11.21,-127.14 80.54,-182.91c-52.37,-56.73 -71.85,-94.22 -59.55,-114.57c14.14,-23.42 69.43,-21.68 168.99,5.3c68.72,-24.44 106.92,-54.24 113.56,-88.58c-60.87,-76.29 -137.25,-134.93 -227.02,-174.32l-3.55,-1.56l2.96,-2.5c36.78,-31.06 63.38,-56.49 79.07,-75.6l1.27,-1.54l1.75,0.96c250.06,136.82 383.02,295.14 364.8,434.36c-15.84,121.08 -146.37,217.63 -367.53,271.85c-13.78,3.38 -26.86,4.93 -39.16,4.93Z" style="fill:#371944;fill-rule:nonzero;"/><path d="M2457.83,2410.86c3.51,-4.35 4.68,-6.84 4.63,-8.54c4.42,-8.12 7.34,-16.57 8.8,-25.37l1.1,-6.63l-4.17,-5.15c3.28,-7.87 6.08,-16.07 8.4,-24.6c1.79,1.13 3.17,1.72 4.11,1.72l0.16,0l13.83,-1.12c16.34,18.27 -7.98,43.77 -36.86,69.69Zm-1.8,-60.28c-0.29,-0.33 -0.57,-0.65 -0.85,-0.98c-48.98,-56.78 -106.84,-103.23 -172.58,-138.6c9.42,-3.36 18.79,-6.86 28.11,-10.5c0.19,1.07 0.8,1.98 1.92,2.72c72.77,48.21 135.89,115.68 159.57,134.2c-6.05,4.54 -11.38,8.92 -16.17,13.16Z" style="fill:#c3bac7;fill-rule:nonzero;"/><path d="M2219.43,2461.33c-25.28,0 -31.15,6.21 -32.41,8.34c-1.19,1.99 -9.55,21.62 60.22,95.42l12.76,13.5l-15.89,9.61c-84.2,50.92 -92.77,119.91 -74.53,163.53c17.67,42.24 66.43,77 135.54,59.46c213.27,-54.16 338.38,-146.55 352.29,-260.14c15.91,-129.93 -111.02,-278.31 -348.69,-408.13c-13.34,15.07 -31.47,32.77 -54.87,53.55c83.81,39.68 155.82,96.33 214.28,168.63l4.23,5.22l-1.1,6.63c-6.97,42.21 -47.84,76.34 -124.93,104.36l-4.4,1.6l-4.53,-1.19c-60.02,-15.78 -96.2,-20.39 -117.97,-20.39Zm51.24,384.22c-57.2,0 -107.1,-30.57 -128.72,-82.26c-21.63,-51.69 -14.73,-130.92 71.35,-190.8c-50.83,-56.33 -66.89,-93.08 -52.05,-118.1c17.47,-29.47 72.83,-30.37 179.19,-2.84c57.91,-21.63 91.42,-46.23 99.79,-73.25c-59.53,-71.83 -133.43,-126.99 -219.72,-164.01l-22.08,-9.47l18.23,-15.65c35.94,-30.87 61.8,-55.97 76.84,-74.61l7.8,-9.66l10.94,5.87c255.99,137.33 392.64,299.14 374.9,443.93c-15.51,126.7 -148.56,228.1 -374.64,285.52c-14.17,3.6 -28.2,5.33 -41.83,5.33Z" style="fill:#371944;fill-rule:nonzero;"/><path d="M1999,3503.74c-601.99,0 -1090,-72.69 -1090,-162.34c0,-30.74 57.366,-59.48 157.01,-83.99c58.12,74.68 112.46,115.55 162.22,121.83c4.43,0.56 8.81,0.84 13.15,0.84c28.48,0 55.09,-12.01 79.25,-35.82c59.13,-58.27 109.52,-86.06 158,-86.06c14.69,0 29.21,2.55 43.74,7.58c62.98,21.82 117.15,32.68 163.58,32.68c21.27,0 40.92,-2.28 59.04,-6.83c77.88,36.6 164.76,57.05 256.35,57.05c90.96,0 177.28,-20.18 254.74,-56.3c17.27,4.05 35.9,6.09 55.97,6.09c46.43,-0.01 100.61,-10.87 163.58,-32.69c14.54,-5.03 29.05,-7.59 43.75,-7.59c48.48,0 98.88,27.81 157.99,86.07c24.17,23.81 50.77,35.82 79.25,35.82c4.34,0 8.73,-0.28 13.15,-0.84c49.77,-6.28 104.12,-47.16 162.22,-121.82c99.65,24.5 157.01,53.24 157.01,83.98c0,89.65 -488.01,162.34 -1090,162.34Z" style="fill:#ffd19a;fill-rule:nonzero;"/><path d="M1771.59,2200.53c-36.8,-31.6 -63.04,-57.11 -78.74,-76.57c-475.13,254.9 -506.15,574.13 -3.66,701.74c150.47,38.21 238.68,-149.8 72.45,-250.32c113.83,-120.4 78.9,-156.45 -104.85,-108.15c-70.89,-25.76 -109.31,-56.67 -115.27,-92.72c62.16,-76.87 138.86,-134.86 230.07,-173.98Z" style="fill:#fff;"/><path d="M1692.23,2127.03c-248.21,133.56 -380.88,288.59 -364.11,425.55c14.59,119.09 143.03,215.26 361.67,270.78c76.33,19.4 130.46,-19.57 150.22,-66.78c20.18,-48.23 11.43,-124.08 -79.62,-179.13l-2.56,-1.55l2.06,-2.18c51.95,-54.95 72.78,-92.11 61.9,-110.46c-12.56,-21.18 -67.87,-19.06 -164.38,6.31l-0.73,0.19l-0.71,-0.26c-71.45,-25.96 -110.75,-57.79 -116.83,-94.59l-0.18,-1.07l0.68,-0.85c61.31,-75.81 137.81,-134.05 227.45,-173.15c-34.28,-29.59 -59.44,-54.06 -74.86,-72.81Zm36.68,706.27c-12.65,0 -26.1,-1.65 -40.31,-5.26c-220.71,-56.05 -350.43,-153.67 -365.27,-274.87c-17.07,-139.37 117.19,-296.58 368.37,-431.34l1.76,-0.94l1.26,1.56c15.53,19.23 41.91,44.88 78.44,76.25l2.94,2.52l-3.56,1.53c-90.1,38.65 -166.96,96.65 -228.45,172.43c6.34,34.39 44.29,64.51 112.82,89.53c99.78,-26.17 155.08,-27.45 169.04,-3.91c12.12,20.45 -7.67,57.78 -60.51,114.07c91.29,56.52 99.75,134.03 79.03,183.57c-16.87,40.31 -57.72,74.86 -115.56,74.86Z" style="fill:#371944;fill-rule:nonzero;"/><path d="M1540.17,2410.85c-28.88,-25.92 -53.2,-51.41 -36.85,-69.68l13.82,1.12l0.16,0c11.1,0 82.99,-82.7 168.07,-139.07c8.84,-5.85 -13.73,-22.45 -30.45,-40.93c1.63,-0.95 3.27,-1.89 4.91,-2.84c24.95,14.89 50.65,28.45 77.07,40.51c-22.72,11.11 -44.76,23.58 -65.78,37.23l-9.89,6.6c-3.26,2.21 -6.5,4.43 -9.55,6.61l-0.45,0.31c-9.07,6.45 -18.06,13.23 -26.88,20.27l-25.53,16.06l-70.96,77.79l0.45,0.49c-5.9,-3.96 -12.48,-8.01 -19.95,-12.14c0.03,0.08 0.06,0.17 0.09,0.26c0.01,0.03 0.03,0.07 0.04,0.1c0.02,0.05 0.04,0.11 0.06,0.16c0.01,0.04 0.02,0.08 0.04,0.12c0.02,0.05 0.03,0.09 0.05,0.14c0.01,0.04 0.03,0.08 0.04,0.13c0.02,0.04 0.04,0.09 0.05,0.13c0.02,0.05 0.03,0.09 0.05,0.13c0.02,0.05 0.03,0.09 0.05,0.13c0.01,0.05 0.03,0.1 0.05,0.14c0.01,0.04 0.03,0.08 0.04,0.12c0.02,0.05 0.03,0.09 0.05,0.14c0.02,0.04 0.03,0.08 0.05,0.12c0.01,0.05 0.03,0.1 0.05,0.15c0.01,0.04 0.03,0.07 0.04,0.11c0.02,0.05 0.03,0.1 0.05,0.15c0.02,0.03 0.03,0.07 0.04,0.11c0.02,0.05 0.04,0.1 0.06,0.15c0.01,0.04 0.03,0.07 0.04,0.1c0.02,0.06 0.04,0.11 0.06,0.16c0.01,0.03 0.02,0.07 0.03,0.1c0.02,0.05 0.04,0.11 0.06,0.16c0.01,0.03 0.03,0.07 0.04,0.1c0.02,0.05 0.04,0.1 0.06,0.16c0.01,0.03 0.02,0.06 0.03,0.1c0.02,0.05 0.04,0.1 0.06,0.16c0.01,0.02 0.02,0.05 0.03,0.07c0.03,0.06 0.05,0.13 0.07,0.19c0.01,0.01 0.01,0.02 0.02,0.04c0.11,0.31 0.23,0.62 0.35,0.93c0,0.01 0.01,0.03 0.01,0.04c0.03,0.07 0.05,0.13 0.08,0.2c0.01,0.02 0.01,0.04 0.02,0.05c0.02,0.06 0.05,0.13 0.07,0.19c0.01,0.02 0.02,0.05 0.03,0.07c0.02,0.06 0.04,0.12 0.07,0.17c0.01,0.03 0.02,0.06 0.03,0.09c0.02,0.06 0.04,0.11 0.06,0.17c0.01,0.03 0.03,0.06 0.04,0.09c0.02,0.05 0.04,0.11 0.06,0.16c0.01,0.03 0.02,0.06 0.03,0.09c0.03,0.06 0.05,0.11 0.07,0.17c0.01,0.03 0.02,0.05 0.03,0.08c0.03,0.06 0.05,0.12 0.07,0.18c0.01,0.02 0.02,0.05 0.03,0.07c0.02,0.06 0.05,0.12 0.07,0.18c0.01,0.03 0.02,0.05 0.03,0.08c0.02,0.06 0.05,0.12 0.07,0.17c0.01,0.03 0.02,0.05 0.03,0.08c0.02,0.06 0.05,0.12 0.07,0.18c0.01,0.02 0.02,0.05 0.03,0.07c0.02,0.06 0.05,0.12 0.07,0.19c0.01,0.01 0.02,0.03 0.02,0.05c0.03,0.06 0.06,0.13 0.08,0.2c0.01,0.01 0.01,0.01 0.01,0.02c0.19,0.49 0.39,0.97 0.58,1.45c0.01,0.01 0.01,0.01 0.01,0.02c0.03,0.07 0.06,0.14 0.09,0.22c0,0.01 0.01,0.02 0.01,0.03c0.03,0.07 0.06,0.14 0.09,0.2c0,0.02 0.01,0.04 0.02,0.05c0.02,0.07 0.05,0.14 0.08,0.21c0.01,0.01 0.01,0.03 0.02,0.04c0.03,0.07 0.05,0.13 0.08,0.2c0.01,0.02 0.01,0.03 0.02,0.05c0.03,0.07 0.06,0.13 0.08,0.2c0.01,0.02 0.02,0.03 0.02,0.05c0.03,0.07 0.06,0.13 0.09,0.2c0,0.01 0.01,0.03 0.02,0.05c0.03,0.07 0.05,0.13 0.08,0.2c0.01,0.01 0.01,0.02 0.02,0.04c0.03,0.07 0.05,0.14 0.08,0.21c0.01,0.01 0.01,0.02 0.02,0.04c0.03,0.07 0.06,0.14 0.09,0.21c0,0 0,0.01 0.01,0.02c0.37,0.88 0.75,1.77 1.13,2.65l0.01,0.01c0.03,0.08 0.06,0.15 0.1,0.23l0,0.02c0.04,0.07 0.07,0.14 0.1,0.22c0,0.01 0.01,0.01 0.01,0.02c0.03,0.08 0.07,0.15 0.1,0.23l0.01,0.01c0.03,0.08 0.06,0.15 0.1,0.23l0,0.01c6.92,15.64 15.53,29.83 25.81,42.55Z" style="fill:#c3bac7;fill-rule:nonzero;"/><path d="M1611.3,2430.41l-14.68,26.93c-21.18,-11.51 -39.15,-25.99 -53.88,-43.38c-14.73,-17.4 -26.2,-37.68 -34.38,-60.78c53.31,29.48 60.99,54.41 102.94,77.23Z" style="fill:#371944;fill-rule:nonzero;"/><path d="M1736.29,2805.1c-14.36,0 -29.38,-1.74 -45.04,-5.21c-155.51,-39.86 -267.92,-102.76 -343.79,-217.35c-3.24,-10.25 -5.53,-20.69 -6.84,-31.33c-4.73,-38.41 3.03,-78.45 22.47,-119.15c-28.65,94.88 12.46,140.42 76.87,187.63c135.25,99.16 238.93,145.05 308.26,145.04c42.47,0 72.06,-17.23 88.1,-49.99c-0.42,13.48 -3.31,26.03 -7.9,36.99c-6.57,15.7 -17.43,30.37 -32.04,41.71c-18.58,7.78 -38.61,11.66 -60.09,11.66Z" style="fill:#c3bac7;fill-rule:nonzero;"/><path d="M1345.18,2616.68c-24.75,248.91 10.87,363.03 106.86,342.42c-18.09,-46.12 -30.54,-95.08 -36.49,-146.03c-5.41,-34.71 -4.97,-77.61 -2.37,-113.18c-30.67,-25.87 -53.26,-53.79 -68,-83.21Z" style="fill:#fff;"/><path d="M1346.8,2624.96c-16.42,172.38 -2.94,279.22 40.07,317.65c16.17,14.45 36.97,19.38 61.88,14.69c-17.87,-46.21 -29.84,-94.62 -35.59,-143.95c-6.23,-39.96 -4.28,-87.09 -2.48,-112.42c-27.58,-23.41 -49.04,-48.93 -63.88,-75.97Zm84.37,338.9c-18.45,0 -34.37,-5.9 -47.52,-17.65c-44.89,-40.11 -58.64,-151.05 -40.87,-329.77l0.82,-8.3l3.74,7.46c14.74,29.43 37.42,57.16 67.4,82.44l0.94,0.79l-0.09,1.23c-1.81,24.8 -3.92,72.4 2.35,112.64c5.83,49.96 18.05,98.89 36.35,145.52l1.03,2.64l-2.77,0.6c-7.46,1.6 -14.59,2.4 -21.38,2.4Z" style="fill:#371944;fill-rule:nonzero;"/><path d="M1347.14,2864.96c-46.86,24.63 -84.8,55 -113.85,91.1c-61.5,-69.76 -87.84,-43.05 -79.04,80.15c-89.85,-211.08 -262.965,-51.88 -157,115.28c124.32,206.63 236.19,275.3 321.69,191.05c71.04,-70.02 134.86,-103.06 204.22,-79.04c98.2,34.02 177.45,42.73 239.89,20.09c-141.78,-62.69 -254.23,-179.62 -311.01,-324.49c-54.25,11.65 -89.22,-19.74 -104.9,-94.14Z" style="fill:#fff;"/><path d="M1047.33,2937.5c-24.92,0 -48.48,14.85 -63.67,40.41c-21.894,36.82 -29.287,101.42 15.63,172.28c84.38,140.25 161.6,215.69 229.55,224.26c31.93,4.03 61.67,-7.29 88.4,-33.64c78.51,-77.36 142.27,-101.9 206.71,-79.6c97.84,33.91 174.02,41.15 232.54,22.09c-138.67,-63.09 -249.89,-179.86 -305.95,-321.43c-22.57,4.45 -42.13,1.43 -58.17,-8.97c-21.87,-14.2 -37.65,-42.56 -46.92,-84.31c-45.05,24.09 -82.14,54.02 -110.28,88.99l-1.8,2.23l-1.89,-2.15c-25.53,-28.95 -44.69,-41.03 -57.04,-35.87c-16.71,7.01 -22.69,45.45 -17.78,114.25l1.03,14.42l-5.66,-13.3c-35.37,-83.1 -78.15,-98.02 -100.49,-99.52c-1.41,-0.09 -2.81,-0.14 -4.21,-0.14Zm194.05,442.58c-4.34,0 -8.72,-0.28 -13.15,-0.84c-69.49,-8.77 -147.89,-84.98 -233.05,-226.51c-46.061,-72.66 -38.302,-139.23 -15.67,-177.29c16.99,-28.59 43.91,-44.56 72.35,-42.62c22.29,1.49 63.85,15.48 99.14,90.25c-3.4,-63.6 3.69,-98.24 21.57,-105.73c14.32,-6.01 34.15,5.45 60.64,35c28.92,-35.26 66.85,-65.37 112.8,-89.52l2.83,-1.49l0.66,3.13c8.89,42.17 24.2,70.56 45.5,84.39c15.39,9.98 34.41,12.64 56.53,7.89l2.01,-0.44l0.75,1.92c56.1,143.14 169,260.93 309.74,323.17l5.5,2.43l-5.65,2.05c-60.36,21.87 -139.35,15.3 -241.51,-20.09c-62.48,-21.63 -124.71,2.57 -201.74,78.48c-24.16,23.81 -50.77,35.82 -79.25,35.82Z" style="fill:#371944;fill-rule:nonzero;"/><path d="M1195.21,2905.77c26.33,7.94 48.72,31.63 67.11,71.06c17.08,36.58 31.22,87.47 42.4,152.62c-41.99,-45.12 -62.95,-169.07 -118.29,-194.22l8.78,-29.46Z" style="fill:#371944;fill-rule:nonzero;"/><path d="M1695.24,2134.16l0.05,0.08l1.59,-1.5l-1.64,1.42Zm-8.24,10.03c-236.24,129.56 -362.34,277.54 -346.38,407.02c14,113.52 139.1,205.84 352.26,259.98c69.11,17.55 117.87,-17.22 135.54,-59.46c18.25,-43.62 9.68,-112.61 -74.53,-163.53l-15.89,-9.61l12.75,-13.5c69.78,-73.8 61.42,-93.43 60.23,-95.42c-2.35,-3.98 -20.68,-22.05 -150.38,12.05l-4.53,1.19l-4.4,-1.6c-77.09,-28.02 -117.96,-62.16 -124.92,-104.36l-1.1,-6.63l4.23,-5.23c57.57,-71.18 128.26,-127.2 210.38,-166.76l-27.58,-26.46l-3,-3.07c-2.27,-2.34 -4.34,-4.52 -6.41,-6.71l-0.01,-0.01l-0.64,-0.68c-2.53,-2.71 -5.06,-5.43 -7.57,-8.2l-1.64,-1.82c-2.12,-2.33 -4.26,-4.74 -6.41,-7.19Zm40.33,701.36c-13.63,0 -27.65,-1.73 -41.82,-5.33c-225.96,-57.39 -359,-158.72 -374.61,-285.34c-17.8,-144.32 117.96,-305.71 372.45,-442.8l10.63,-5.72l14.55,16.95c2.36,2.7 4.73,5.38 7.14,8.03l1.66,1.85c2.1,2.3 4.3,4.68 6.52,7.06l1.04,1.11c2.02,2.14 4.07,4.3 6.15,6.45l28.94,27.98l17.28,14.93l18.63,15.52l-22.22,9.71c-84.62,36.96 -157.22,91.57 -215.89,162.35c8.36,27.01 41.87,51.62 99.78,73.25c106.38,-27.54 161.72,-26.63 179.19,2.84c14.84,25.02 -1.22,61.76 -52.05,118.1c86.08,59.87 92.98,139.11 71.35,190.8c-21.62,51.68 -71.53,82.26 -128.72,82.26Z" style="fill:#371944;fill-rule:nonzero;"/><path d="M2781.94,1656.73c-71.97,438.391 -626.59,633.58 -874.75,592.84c-248.17,-40.74 -711.27,-403.01 -639.3,-841.4c71.97,-438.398 454.99,-778.229 893.38,-706.258c438.39,71.972 692.65,516.428 620.67,954.818Z" style="fill:#7dc142;fill-rule:nonzero;"/><path d="M2781.93,1656.72c-71.95,438.391 -626.59,633.61 -874.76,592.84c-248.17,-40.72 -711.27,-403.01 -639.28,-841.4c33.67,-205.09 135.44,-388.66 279.18,-518.595c4.56,-4.104 9.11,-8.159 13.74,-12.11c161.73,-139.777 373.66,-212.748 600.46,-175.554c216.06,35.495 387.43,161.48 496.98,332.599c87,135.77 135.06,299.94 135.76,469.98c0.24,50.41 -3.76,101.38 -12.08,152.24Z" style="fill:#62ed2e;fill-rule:nonzero;"/><path d="M2747.86,1298.31c-22.72,-72.24 -54.49,-140.68 -94.48,-203.12c-50.02,-78.09 -112.89,-146.788 -187.01,-201.752c4.35,11.717 4.66,22.565 0.11,31.578c-7.34,14.474 -25.98,21.611 -50.64,21.612c-28.06,0 -63.92,-9.239 -99.8,-27.423c-67.41,-34.167 -109.35,-86.968 -93.63,-117.914c4.34,-8.597 12.62,-14.582 23.77,-18.058c-28.98,-8.637 -58.96,-15.564 -89.81,-20.627c-39.63,-6.498 -78.83,-9.633 -117.37,-9.633c-181.98,0 -349.6,69.853 -483.07,185.188c-4.63,3.968 -9.17,8.011 -13.76,12.099c-79.88,72.24 -146.81,161.04 -196.28,260.89l9.95,-22.95c4.56,-10.57 9.98,-20.73 14.92,-31.12c20.67,-41.09 44.47,-80.58 71.22,-117.96c53.32,-74.875 119.25,-140.683 194.21,-193.352c74.96,-52.553 159.25,-92.06 248.2,-112.902c52.09,-12.336 105.53,-18.425 159.019,-18.425c37.74,0 75.521,3.035 112.841,9.049c90.15,14.785 177.35,46.646 255.05,94.676c77.66,48.098 145.3,111.975 199.78,185.574c27.26,36.81 51.28,76.06 71.92,117.07c20.6,41.02 37.51,83.91 51.11,127.8c5.05,16.43 9.64,33 13.75,49.7Z" style="fill:#d0fac0;fill-rule:nonzero;"/><path d="M2241.96,2188.87l-8.28,-3.46c-43.34,-18.06 -88.22,-30.88 -134.21,-38.38c123.44,-8.18 268.13,-40.45 404.95,-97.66c-55.15,41.07 -115.34,75.7 -178.09,104.53c-27.63,12.73 -55.79,24.38 -84.37,34.97Zm-480.77,-0.14c-38.69,-22.25 -76.08,-46.44 -111.78,-72.91c-18.53,-13.94 -36.99,-27.94 -54.59,-42.999l-13.31,-11.131l-13.05,-11.45c-8.8,-7.5 -17.1,-15.57 -25.61,-23.39c-61.49,-57.55 -116.6,-122.13 -160.74,-193.34c173.83,167.75 397.87,282.56 552.36,307.93c1.66,0.27 3.33,0.53 5.01,0.79c-59.86,6.06 -118.07,20.95 -173.7,44.49l-4.59,2.01Z" style="fill:#55ad35;fill-rule:nonzero;"/><path d="M1757.78,2209.11c-88.14,-37.01 -168.7,-91.03 -240.19,-154.73c-35.69,-31.97 -69.08,-66.63 -99.52,-103.8c-30.5,-37.13 -58.32,-76.58 -82.58,-118.28c-48.67,-83.14 -82.31,-176.53 -92.03,-273.62c-4.92,-48.45 -3.84,-97.6 3.34,-145.81c7.37,-47.76 18.41,-94.58 32.85,-140.53c3.84,-11.4 7.36,-22.92 11.49,-34.22l12.83,-33.75l14.27,-33.17c4.75,-11.06 10.36,-21.72 15.51,-32.6c21.52,-43.07 46.33,-84.51 74.27,-123.78c55.7,-78.644 124.73,-148.045 203.67,-203.847c78.92,-55.675 168.11,-97.832 262.61,-120.268c94.38,-22.649 193.26,-25.998 289.02,-10.774c95.62,15.918 188.43,50.124 270.86,101.431c82.41,51.36 153.87,119.304 211.13,197.123c28.66,38.925 53.83,80.345 75.4,123.515c21.54,43.19 39.16,88.25 53.29,134.31c28.06,92.16 42.11,188.63 40.24,284.9c-0.81,48.15 -5.18,96.1 -13.23,143.67c-8.37,48.03 -22.83,95.01 -42.77,139.45c-39.88,89.03 -101.14,167.18 -173.65,230.63c-72.55,63.631 -155.13,114.93 -243.1,152.93c-87.99,37.72 -181.5,63.41 -276.79,70.73c-5.36,0.41 -10.031,-3.6 -10.44,-8.96c-0.39,-4.97 3.04,-9.35 7.81,-10.28l0.13,-0.03c45.71,-9.02 90.76,-20.47 134.85,-34.84c44.08,-14.4 87.28,-31.26 129.28,-50.61c83.95,-38.58 163.35,-87.529 232.18,-148.41c68.88,-60.61 126.11,-134.41 163.07,-217.52c18.48,-41.51 31.79,-85.23 39.47,-129.99c7.53,-45.29 11.61,-91.35 12.25,-137.33c1.55,-92.06 -12.19,-184.22 -39.19,-272.04c-13.6,-43.89 -30.51,-86.78 -51.11,-127.8c-20.64,-41.01 -44.66,-80.26 -71.92,-117.07c-54.48,-73.599 -122.12,-137.476 -199.78,-185.574c-77.7,-48.03 -164.9,-79.891 -255.05,-94.676c-90.2,-14.535 -183,-11.666 -271.86,9.376c-88.95,20.842 -173.24,60.349 -248.2,112.902c-74.96,52.669 -140.89,118.477 -194.21,193.352c-26.75,37.38 -50.55,76.87 -71.22,117.96c-4.94,10.39 -10.36,20.55 -14.92,31.12l-13.73,31.66l-12.35,32.22c-3.98,10.8 -7.36,21.8 -11.08,32.69c-13.92,43.82 -24.65,88.86 -31.76,134.13c-6.82,44.89 -7.95,90.58 -3.49,135.79c8.81,90.56 40,178.59 86.14,257.89c46.04,79.53 105.82,151.13 173.28,214.27c8.51,7.82 16.81,15.89 25.61,23.39l13.05,11.45l13.31,11.131c17.6,15.059 36.06,29.059 54.59,42.999c37.25,27.62 76.34,52.75 116.83,75.8l0.12,0.07c4.67,2.66 6.3,8.59 3.64,13.26c-2.46,4.33 -7.74,6.04 -12.22,4.16Z" style="fill:#371944;fill-rule:nonzero;"/><path d="M1454.89,1388.72c-55.07,51.46 -98.81,192.51 1.44,350.31c100.25,157.8 299.61,185.5 360.45,123.19c46.71,-47.84 81.01,-182.15 -19.24,-339.96c-100.25,-157.8 -286.25,-186.24 -342.65,-133.54Z" style="fill:#371944;fill-rule:nonzero;"/><path d="M1856.85,1783.55c0.04,-1.57 0.06,-3.14 0.08,-4.72c13.72,-65.17 4.43,-156.11 -59.39,-256.57c-70.34,-110.72 -182.91,-157.76 -263.3,-157.76c-34.17,0 -62.52,8.5 -79.35,24.22c-16.19,15.13 -31.41,38.02 -42.27,66.79c10.76,-37.57 28.87,-67.1 48.39,-85.34c16.82,-15.71 45.17,-24.21 79.33,-24.21c80.39,0 192.96,47.03 263.32,157.75c71.84,113.04 74.56,214.03 53.19,279.84Z" style="fill:#d0fac0;fill-rule:nonzero;"/><path d="M1856.93,1778.83l0,-0.02c4.47,-21.28 6.5,-45.31 4.97,-71.52c-2.9,6.46 -6.03,12.44 -9.34,17.93c-7.72,-45.9 -26.27,-97.03 -60.49,-150.9c-70.35,-110.74 -182.94,-157.79 -263.32,-157.79c-34.17,0 -62.5,8.49 -79.33,24.21c-10.94,10.21 -21.43,23.97 -30.44,40.7c-1.8,-11.35 -2.92,-22.44 -3.45,-33.23c-1.01,2.43 -2,4.9 -2.94,7.41c0.01,-0.03 0.02,-0.07 0.03,-0.11c10.86,-28.77 26.08,-51.66 42.27,-66.79c16.83,-15.72 45.18,-24.22 79.35,-24.22c80.39,0 192.96,47.04 263.3,157.76c63.82,100.46 73.11,191.4 59.39,256.57Z" style="fill:#c3bac7;fill-rule:nonzero;"/><path d="M1722.54,1893.08c-9.8,0 -19.97,-0.63 -30.41,-1.9c10.43,1.27 20.6,1.9 30.39,1.9c40.53,0 74.61,-10.74 94.26,-30.86c9.03,-9.24 17.59,-21.72 24.81,-36.97c-7.22,15.26 -15.78,27.74 -24.81,36.99c-19.64,20.11 -53.72,30.84 -94.24,30.84Zm-160.43,-49.02c-0.02,-0.01 -0.03,-0.02 -0.05,-0.03c0.02,0.01 0.03,0.02 0.05,0.03Zm-0.2,-0.12c-0.05,-0.03 -0.08,-0.05 -0.13,-0.08c0.04,0.02 0.09,0.05 0.13,0.08Zm-0.19,-0.12c-18.45,-11.57 -36.35,-25.28 -53.11,-41.21c16.77,15.93 34.66,29.64 53.11,41.21Zm279.93,-18.69c0.01,-0.03 0.03,-0.07 0.04,-0.09c-0.01,0.03 -0.03,0.06 -0.04,0.09Zm-333.08,-22.56c-0.07,-0.06 -0.14,-0.12 -0.21,-0.19c0.07,0.07 0.14,0.13 0.21,0.19Zm-83.6,-122.37c-0.02,-0.06 -0.04,-0.11 -0.06,-0.16c0.02,0.05 0.04,0.1 0.06,0.16Zm-0.15,-0.36c-0.06,-0.13 -0.11,-0.25 -0.17,-0.38c0.06,0.12 0.12,0.26 0.17,0.38Zm-0.19,-0.44c-0.06,-0.13 -0.11,-0.26 -0.17,-0.4c0.06,0.14 0.11,0.26 0.17,0.4Zm-0.18,-0.41c-28.64,-66.76 -32.9,-128.5 -23.93,-179.06c-8.96,50.57 -4.71,112.3 23.93,179.06Zm-23.93,-179.1c0.02,-0.08 0.03,-0.15 0.04,-0.22c-0.01,0.07 -0.02,0.14 -0.04,0.22Z" style="fill:#45a32c;fill-rule:nonzero;"/><path d="M1722.52,1893.08c-9.79,0 -19.96,-0.63 -30.39,-1.9c-41.54,-5.07 -87.26,-20.38 -130.02,-47.12c-0.02,-0.01 -0.03,-0.02 -0.05,-0.03c-0.05,-0.03 -0.1,-0.06 -0.15,-0.09c-0.04,-0.03 -0.09,-0.06 -0.13,-0.08c-0.02,-0.02 -0.03,-0.02 -0.06,-0.04c-18.45,-11.57 -36.34,-25.28 -53.11,-41.21c-0.01,-0.01 -0.04,-0.03 -0.04,-0.04c-0.07,-0.06 -0.14,-0.12 -0.21,-0.19c-19.09,-18.17 -36.71,-39.24 -52.02,-63.34c-12.6,-19.84 -22.93,-39.41 -31.25,-58.57c-0.04,-0.09 -0.08,-0.19 -0.12,-0.27c-0.02,-0.06 -0.04,-0.11 -0.06,-0.16c-0.03,-0.07 -0.06,-0.14 -0.09,-0.2c-0.05,-0.12 -0.11,-0.26 -0.17,-0.38c0,-0.02 -0.01,-0.04 -0.02,-0.06c-0.06,-0.14 -0.11,-0.26 -0.17,-0.4c0,-0.01 0,0 -0.01,-0.01c-28.64,-66.76 -32.89,-128.49 -23.93,-179.06l0,-0.04c0.02,-0.08 0.03,-0.15 0.04,-0.22c2.83,-15.85 6.95,-30.59 12.03,-44.05c-5.64,19.69 -9.25,41.57 -10,65.19c4.49,-14.45 10.08,-27.64 16.39,-39.37c7.04,44.39 24.37,92.79 56.2,142.88c67.85,106.85 181.16,154.07 266.16,154.07c40.54,0 74.62,-10.74 94.28,-30.87c5.92,-6.07 11.65,-13.55 16.94,-22.3c3.16,18.8 4.5,36.72 4.37,53.59c-3.65,17.33 -8.93,32.84 -15.24,46.23c-0.01,0.02 -0.03,0.06 -0.04,0.09c-0.02,0.04 -0.04,0.08 -0.06,0.12c-7.22,15.25 -15.78,27.73 -24.81,36.97c-19.65,20.12 -53.73,30.86 -94.26,30.86Z" style="fill:#29193a;fill-rule:nonzero;"/><path d="M1856.93,1778.81c0.13,-16.87 -1.21,-34.79 -4.37,-53.59c3.31,-5.49 6.44,-11.47 9.34,-17.93c1.53,26.21 -0.5,50.24 -4.97,71.52Zm-454.34,-258c0.75,-23.62 4.36,-45.5 10,-65.19c0.94,-2.51 1.93,-4.98 2.94,-7.41c0.53,10.79 1.65,21.88 3.45,33.23c-6.31,11.73 -11.9,24.92 -16.39,39.37Z" style="fill:#858290;fill-rule:nonzero;"/><path d="M2586.47,1574.49c35.73,66.37 32.07,214 -113.37,331.46c-145.44,117.47 -343.2,79.98 -380.92,1.49c-28.96,-60.27 -18.511,-198.5 126.93,-315.97c145.44,-117.46 330.77,-84.95 367.36,-16.98Z" style="fill:#371944;fill-rule:nonzero;"/><path d="M2095.63,1754.84c16.78,-57.39 55.82,-122.33 129.61,-181.92c69.71,-56.29 148.59,-78.13 215.86,-78.13c73.08,0 132.45,25.77 151.5,61.15c19.27,35.82 27.11,95.28 7.31,160.96c0.05,-1.98 0.08,-3.94 0.08,-5.89c4.92,-23.98 6.23,-46.78 4.78,-67.46l-0.01,0.01c-1.91,-27.46 -8.68,-51.21 -18.29,-69.07c-19.06,-35.39 -78.43,-61.17 -151.5,-61.17c-67.27,0 -146.15,21.85 -215.86,78.15c-65.94,53.26 -104.13,110.78 -123.48,163.37Z" style="fill:#d0fac0;fill-rule:nonzero;"/><path d="M2104.08,1774.26c-2.39,-8.48 -4.14,-17.87 -5.12,-28c-1.2,2.98 -2.34,5.94 -3.42,8.88c0.03,-0.09 0.06,-0.2 0.09,-0.3c19.35,-52.59 57.54,-110.11 123.48,-163.37c69.71,-56.3 148.59,-78.15 215.86,-78.15c73.07,0 132.44,25.78 151.5,61.17c9.61,17.86 16.38,41.61 18.29,69.07c-2.82,7.16 -5.98,14.38 -9.49,21.62c-3.3,-15.08 -8.16,-28.42 -14.12,-39.49c-19.05,-35.39 -78.44,-61.18 -151.52,-61.18c-67.27,0 -146.12,21.84 -215.84,78.15c-52.88,42.69 -87.92,88.15 -109.71,131.6Z" style="fill:#c3bac7;fill-rule:nonzero;"/><path d="M2209.79,1976.39c-57.12,-9.91 -101.66,-35.76 -117.62,-68.94c-4.65,-9.69 -8.291,-21.4 -10.501,-34.71c2.22,13.31 5.861,25.01 10.511,34.7c15.95,33.18 60.5,59.04 117.61,68.95Zm347.52,-162.62c0.01,-0.03 0.03,-0.06 0.05,-0.08c-0.02,0.02 -0.04,0.05 -0.05,0.08Zm0.16,-0.26c22.36,-34.8 35.81,-69.78 42.52,-102.55l0,0.05c-6.71,32.75 -20.16,67.71 -42.52,102.5Z" style="fill:#45a32c;fill-rule:nonzero;"/><path d="M2261.98,1980.79c-18.19,0 -35.71,-1.54 -52.19,-4.4c-57.11,-9.91 -101.66,-35.77 -117.61,-68.95c-4.65,-9.69 -8.291,-21.39 -10.511,-34.7c-5.309,-31.87 -2.5,-72.95 13.871,-117.6c-6.82,23.4 -9.93,45.53 -10.2,65.54c4.64,-15.05 10.81,-30.61 18.74,-46.42c1.92,6.8 4.25,13.02 6.91,18.56c20.55,42.78 88.62,73.38 169.82,73.38c67.86,0 144.89,-21.36 211.08,-74.82c49.57,-40.06 82.67,-83.57 103.38,-126.2c3.04,13.91 4.74,29.31 4.72,45.78c-6.71,32.77 -20.16,67.75 -42.52,102.55c-0.04,0.07 -0.07,0.12 -0.11,0.18c-0.02,0.02 -0.04,0.05 -0.05,0.08c-20.25,31.45 -47.79,62.77 -84.23,92.19c-66.19,53.46 -143.25,74.83 -211.1,74.83Z" style="fill:#29193a;fill-rule:nonzero;"/><path d="M2599.99,1711.01l0,-0.05c4.91,-23.96 6.21,-46.73 4.77,-67.4l0.01,-0.01c1.45,20.68 0.14,43.48 -4.78,67.46Z" style="fill:#8dab8b;fill-rule:nonzero;"/><path d="M2085.34,1820.68c0.27,-20.01 3.38,-42.14 10.2,-65.54c1.08,-2.94 2.22,-5.9 3.42,-8.88c0.98,10.13 2.73,19.52 5.12,28c-7.93,15.81 -14.1,31.37 -18.74,46.42Zm514.65,-109.72c0.02,-16.47 -1.68,-31.87 -4.72,-45.78c3.51,-7.24 6.67,-14.46 9.49,-21.62c1.44,20.67 0.14,43.44 -4.77,67.4Z" style="fill:#858290;fill-rule:nonzero;"/><path d="M1468.15,1402.91c-52.72,49.27 -86.15,182.88 4.58,325.7c60.31,94.93 156.35,136.52 226.12,143.78c45.96,4.79 84.85,-4.09 104.03,-23.74c41.93,-42.94 73.09,-166.69 -21.74,-315.97c-60.62,-95.42 -153.6,-138.51 -220.41,-147.01c-40.25,-5.14 -75.71,1.48 -92.58,17.24Zm254.55,509.61c-9.02,0 -18.33,-0.49 -27.88,-1.49c-78.81,-8.2 -187.15,-54.96 -254.89,-161.58c-108.42,-170.67 -56.49,-320.54 1.7,-374.92c25.85,-24.16 71.07,-34.15 124.01,-27.4c97.86,12.46 190.69,74.04 248.29,164.72c106.85,168.19 66.98,312.49 16.75,363.94c-23.28,23.84 -61.75,36.73 -107.98,36.73Z" style="fill:#371944;fill-rule:nonzero;"/><path d="M2435.8,1532.88c-61.38,0 -137.03,19.23 -204.48,73.71c-137.59,111.11 -147.63,238.34 -121.63,292.43c11.89,24.75 45.91,45.6 90.99,55.76c68.43,15.42 172.73,6.73 260.21,-63.94c131.64,-106.31 142.68,-243.61 108.47,-307.14c-10.94,-20.33 -42.44,-37.93 -82.2,-45.94c-15.38,-3.1 -32.72,-4.88 -51.36,-4.88Zm-174.56,467.15c-25.14,0 -48.54,-2.72 -69.1,-7.35c-57.41,-12.94 -100.22,-40.94 -117.471,-76.83c-31.139,-64.81 -22.78,-214.29 132.231,-339.49c83.58,-67.5 191.2,-96.17 287.93,-76.69c52.34,10.54 91.97,34.46 108.74,65.61c37.76,70.13 39.04,228.74 -118.26,355.79c-72.14,58.25 -154.7,78.96 -224.07,78.96Z" style="fill:#371944;fill-rule:nonzero;"/><path d="M1958.19,1877.09c4.33,11.46 2.68,22.7 -3.69,25.11c-6.37,2.4 -15.04,-4.94 -19.37,-16.41c-4.32,-11.46 -2.67,-22.7 3.7,-25.1c6.37,-2.41 15.04,4.94 19.36,16.4Z" style="fill:#371944;fill-rule:nonzero;"/><path d="M1977.95,1880.33c-7.77,9.48 -9.79,20.66 -4.53,24.97c5.27,4.32 15.83,0.13 23.6,-9.35c7.76,-9.48 9.79,-20.66 4.52,-24.97c-5.27,-4.31 -15.83,-0.13 -23.59,9.35Z" style="fill:#371944;fill-rule:nonzero;"/><path d="M2580.33,1079.87c3.8,-4.57 178.28,-79.61 303.13,8.22c104.85,73.76 88.31,249.62 87.78,265.03c18.82,30.72 8.13,79.28 -40.47,74.11c-38.77,-4.12 -44.46,-54.43 -17.13,-81.48c3.82,-16.58 4.54,-329.62 -293.34,-187.35l-39.97,-78.53Z" style="fill:#62ed2e;fill-rule:nonzero;"/><path d="M2572.86,1073.66c2.38,-2.5 2.71,-2.29 3.37,-2.85l1.43,-0.88l2.44,-1.39l4.57,-2.38c3.01,-1.5 6,-2.9 9.01,-4.25c6.02,-2.65 12.09,-5.06 18.2,-7.36c12.23,-4.55 24.65,-8.57 37.26,-11.99c25.27,-6.62 51.24,-11.09 77.7,-12.8c26.44,-1.7 53.39,0.02 79.95,5.43c26.49,5.51 52.72,14.97 76.37,29.3c11.68,7.02 23.42,15.59 33.62,25.4c10.31,9.75 19.35,20.68 27.25,32.21c15.73,23.15 26.72,48.7 33.94,74.69c7.31,26 11.54,52.42 13.49,78.79c0.89,13.19 1.23,26.38 1.1,39.53c-0.07,6.58 -0.23,13.15 -0.57,19.71l-0.63,9.82l-0.7,9.14l-0.01,0.01l-2.85,-10.82c6.19,10.14 9.89,21.35 11.16,32.97c1.2,11.6 0.06,23.85 -4.96,35.66c-4.86,11.76 -14.59,22.83 -26.68,28.76c-12.03,6.03 -24.89,7.34 -36.03,6.39c-5.68,-0.39 -12.48,-1.65 -18.64,-4.18c-6.26,-2.5 -12.26,-6.31 -17.23,-11.07c-10.11,-9.6 -15.54,-22.33 -17.33,-34.4c-3.52,-24.27 4.99,-48.22 21.88,-65.15l-5.26,9.44c-0.07,0.18 -0.11,0.36 -0.15,0.55c-0.02,0.14 0,-0.16 0,-0.21l0.04,-1.02l0.04,-2.77l-0.05,-6.24c-0.09,-4.28 -0.31,-8.66 -0.62,-13.04c-0.67,-8.78 -1.61,-17.6 -2.78,-26.36c-2.48,-17.52 -6.33,-34.78 -11.55,-51.34c-10.48,-32.92 -27.49,-63.58 -54.02,-82.37c-26.32,-19.04 -61.39,-24.47 -96.48,-20.74c-35.26,3.81 -70.54,15.15 -104.66,29.31l-0.05,0.02c-4.96,2.06 -10.65,-0.29 -12.71,-5.25c-1.93,-4.65 0.06,-9.96 4.39,-12.3c33.68,-18.03 69.69,-33.34 109.03,-40.28c19.61,-3.39 40.13,-4.64 60.82,-1.87c20.62,2.89 41.3,9.98 59.39,21.55c18.15,11.48 33.39,27.03 45.33,44.16c11.92,17.21 20.76,35.95 27.29,55.09c6.63,19.15 10.74,38.79 13.46,58.49c1.34,9.87 2.27,19.77 2.58,29.77c0.18,5 0.26,10.02 0.19,15.14c-0.03,2.57 -0.12,5.14 -0.31,7.85l-0.35,4.27l-0.29,2.5l-0.23,1.53l-0.45,2.28c-0.71,3.56 -2.44,6.64 -4.83,9.02l-0.44,0.43c-8.2,7.93 -12.54,20.9 -10.81,31.64c0.78,5.34 2.97,9.61 5.76,12.2c2.87,2.63 6.18,4.2 12.01,4.61c6.39,0.59 11.72,-0.43 15.53,-2.32c3.77,-1.93 6.5,-4.85 8.48,-9.35c4.05,-9.01 2.59,-23.3 -3.59,-33.07c-2.1,-3.32 -3.02,-7.04 -2.86,-10.68l0.01,-0.15l0,-0.02l0.33,-9.82l0.2,-9.16c0.11,-6.09 0.15,-12.18 0.06,-18.27c-0.18,-12.17 -0.78,-24.31 -1.88,-36.36c-2.08,-24.1 -5.85,-47.96 -12.39,-70.7c-6.57,-22.68 -15.49,-44.4 -27.87,-63.44c-6.23,-9.48 -13.26,-18.3 -21.22,-26.11c-7.93,-7.91 -16.62,-14.53 -26.49,-20.81c-19.42,-12.35 -40.93,-21.77 -63.8,-27.52c-22.85,-5.9 -46.81,-8.15 -70.97,-8.35c-24.18,-0.13 -48.62,2.3 -72.74,6.85c-12.09,2.16 -24.13,4.81 -36,8.02c-5.93,1.62 -11.83,3.36 -17.62,5.28c-2.9,0.93 -5.79,1.9 -8.58,2.92l-4.07,1.56l-1.8,0.76l-0.64,0.28c0,-0.14 -0.36,0.48 1.45,-1.47c-3.43,4.12 -9.56,4.69 -13.68,1.26c-4.13,-3.43 -4.69,-9.56 -1.26,-13.68Z" style="fill:#371944;fill-rule:nonzero;"/><path d="M1621.07,940.707c-2.34,-5.458 -148.31,-126.99 -292.97,-78.255c-121.49,40.926 -155.61,214.228 -159.47,229.158c-26.78,24.1 -30.33,73.7 17.74,82.55c38.34,7.07 58.09,-39.55 39.58,-73.25c1.05,-16.98 89.31,-317.32 334.49,-96.27l60.63,-63.933Z" style="fill:#62ed2e;fill-rule:nonzero;"/><path d="M1612.15,944.54c1.17,2.378 1.01,1.685 0.97,1.817l-0.54,-0.452l-1.5,-1.233l-3.46,-2.651c-2.39,-1.775 -4.88,-3.525 -7.4,-5.242c-5,-3.486 -10.17,-6.828 -15.39,-10.066c-10.47,-6.457 -21.27,-12.417 -32.24,-17.924c-21.84,-11.219 -44.58,-20.491 -67.8,-27.232c-23.21,-6.677 -46.83,-11.335 -70.41,-12.165c-23.56,-0.984 -46.86,1.928 -69,8.254c-11.24,3.215 -21.46,7.095 -31.31,12.422c-9.84,5.232 -19.09,11.694 -27.76,19.009c-17.28,14.738 -32,33.022 -44.75,52.905c-12.73,19.946 -23.12,41.745 -31.97,64.258c-4.48,11.24 -8.51,22.72 -12.14,34.33c-1.81,5.81 -3.5,11.66 -5.13,17.53l-2.41,8.84l-2.47,9.52l-0.01,0.02l-0.03,0.14c-0.96,3.8 -3.03,7.03 -5.78,9.42c-8.7,7.61 -14.16,20.9 -12.84,30.69c0.62,4.88 2.41,8.45 5.48,11.37c3.1,2.9 7.93,5.4 14.22,6.64c5.71,1.27 9.33,0.7 12.83,-1.01c3.41,-1.68 6.72,-5.16 8.99,-10.05c4.71,-9.81 4.23,-23.48 -1.38,-33.41l-0.3,-0.55c-1.73,-3.18 -2.38,-6.65 -2.06,-10.01l0.22,-2.32l0.21,-1.53l0.43,-2.48l0.88,-4.19c0.58,-2.65 1.23,-5.14 1.94,-7.61c1.38,-4.93 2.88,-9.72 4.48,-14.47c3.14,-9.5 6.84,-18.72 10.93,-27.8c8.21,-18.12 17.73,-35.785 29.52,-52.26c11.7,-16.494 25.5,-31.95 41.83,-45.058c16.31,-13.033 35.34,-23.611 56.01,-29.463c20.63,-5.952 42.47,-6.87 63.06,-3.787c20.63,3.228 39.95,10.254 57.79,19.077c35.74,17.835 65.91,42.744 93.08,69.607c3.82,3.775 3.85,9.932 0.08,13.754c-3.54,3.58 -9.17,3.83 -13.01,0.74l-0.08,-0.07c-28.68,-23.264 -59.29,-44.163 -92.01,-57.837c-32.59,-13.55 -67.75,-18.306 -98.39,-7.532c-30.78,10.474 -55.8,35.039 -75.21,63.619c-9.7,14.39 -18.3,29.85 -25.67,45.94c-3.6,8.07 -7.01,16.26 -10.15,24.48c-1.54,4.12 -3,8.26 -4.29,12.33l-1.83,5.97l-0.74,2.68l-0.25,0.97c-0.02,0.06 -0.09,0.35 -0.07,0.21c0.02,-0.19 0.03,-0.38 0.02,-0.57l-2.37,-10.55l0.01,0.01c11.38,21.03 12.73,46.4 2.46,68.68c-5.14,11.06 -13.97,21.72 -26.39,28.05c-6.12,3.16 -12.95,5.1 -19.67,5.73c-6.62,0.66 -13.5,-0.05 -19.06,-1.3c-10.95,-2.25 -22.9,-7.17 -32.72,-16.37c-9.91,-9.12 -16.09,-22.49 -17.41,-35.14c-1.46,-12.76 0.92,-24.83 5.38,-35.61c4.51,-10.78 11.25,-20.48 20.06,-28.44l-5.81,9.57l0.01,-0.01l1.92,-8.97l2.18,-9.59c1.54,-6.39 3.26,-12.73 5.06,-19.06c3.62,-12.65 7.69,-25.19 12.29,-37.59c9.36,-24.729 20.92,-48.857 35.32,-71.706c14.3,-22.869 32.1,-44.241 53.76,-61.965c10.85,-8.816 22.63,-16.722 35.28,-23.143c12.57,-6.506 26.26,-11.384 39.45,-14.802c26.75,-7.016 54.59,-8.63 81.55,-6.389c27.01,2.358 53.33,8.367 78.2,17.517c24.88,9.155 48.51,20.82 70.86,34.348c11.12,6.868 21.88,14.246 32.32,22.085c5.21,3.941 10.34,7.979 15.36,12.227c2.5,2.148 4.97,4.338 7.42,6.636l3.71,3.576l1.95,2.029l1.11,1.25c0.48,0.725 0.86,0.62 2.42,3.689c2.12,4.929 -0.16,10.64 -5.08,12.759c-4.93,2.116 -10.65,-0.161 -12.76,-5.091Z" style="fill:#371944;fill-rule:nonzero;"/><path d="M1879.81,1923.38c2.21,2.21 4.98,5.35 7.6,7.86c2.68,2.63 5.36,5.2 8.22,7.51c5.59,4.74 11.39,8.92 17.4,12.38c12,6.97 24.76,11.24 38.33,13.04c13.38,1.81 27.06,0.83 40.99,-2.63c6.98,-1.67 13.97,-4.05 20.99,-6.82c6.95,-2.64 14.22,-6.34 20.64,-9.46l1.35,-0.66c4.88,-2.37 10.75,-0.34 13.12,4.53c1.6,3.31 1.179,7.09 -0.781,9.91c-3.04,4.35 -5.849,7.62 -9.149,11.03c-3.21,3.37 -6.73,6.38 -10.34,9.35c-7.32,5.79 -15.43,10.74 -24.19,14.65c-17.47,7.83 -37.85,11.23 -57.63,8.6c-19.57,-2.36 -38.9,-10.63 -53.85,-23.43c-7.5,-6.36 -13.95,-13.73 -19.11,-21.77c-2.51,-4.08 -4.87,-8.19 -6.77,-12.55c-1.94,-4.47 -3.44,-8.54 -4.69,-13.94c-1.21,-5.24 2.05,-10.48 7.3,-11.69c3.39,-0.79 6.78,0.3 9.08,2.59l1.49,1.5Z" style="fill:#371944;fill-rule:nonzero;"/><path d="M2001.34,2154.1c128.95,0 248.23,41.43 345.29,111.64c37.95,28.82 72.32,62.28 103.13,100.37c-5.96,36.05 -44.39,66.96 -115.28,92.72c-183.74,-48.3 -218.68,-12.25 -104.85,108.15c-166.231,100.52 -78.01,288.53 72.45,250.32c131.14,-33.3 225.87,-79.67 285.92,-134.53c2.07,20.1 3.14,40.48 3.14,61.13c0,325.74 -264.06,589.81 -589.8,589.81c-325.74,0 -589.8,-264.07 -589.8,-589.81c0,-14.8 0.58,-29.48 1.64,-44.01c60.37,51.05 151.87,94.29 276.01,125.81c150.47,38.21 238.68,-149.8 72.45,-250.32c113.83,-120.4 78.9,-156.45 -104.85,-108.15c-70.85,-25.74 -109.28,-56.64 -115.25,-92.67l3.36,-4.2l3.46,-4.16l5.06,-5.98l5.61,-6.42l0.35,-0.4l3.05,-3.44l6.18,-6.75l3.12,-3.35l5.51,-5.78l0.78,-0.81l3.19,-3.26l3.08,-3.16l0.1,-0.08l1.13,-1.11l8.1,-7.91l0.52,-0.5l0.28,-0.28l0.78,-0.72l8.86,-8.27l0.71,-0.66l0.62,-0.53c17.29,-15.67 35.47,-30.34 54.52,-43.87l0.3,-0.21c3.12,-2.23 6.27,-4.38 9.45,-6.54l3.96,-2.68l1.48,-0.99l3.77,-2.48l0.5,-0.33c26.29,-17.08 54.08,-32.2 83.38,-45.29l8.29,-3.64l0.55,-0.23c70.62,-29.9 148.24,-46.43 229.75,-46.43Z" style="fill:#fff;"/><path d="M1415.26,2704.77c-0.87,13.26 -1.31,26.4 -1.31,39.13c0,323.89 263.5,587.39 587.39,587.39c323.89,0 587.38,-263.5 587.38,-587.39c0,-18.71 -0.89,-37.57 -2.65,-56.13c-62.68,55.67 -157.99,100.03 -283.39,131.87c-79.14,20.09 -135.31,-20.47 -155.87,-69.6c-20.73,-49.53 -12.27,-127.04 79.02,-183.56c-52.83,-56.3 -72.63,-93.63 -60.5,-114.08c13.96,-23.54 69.26,-22.26 169.03,3.9c68.53,-25.01 106.48,-55.13 112.83,-89.52c-30.38,-37.42 -64.69,-70.76 -102.02,-99.12c-100.51,-72.69 -219.42,-111.14 -343.83,-111.14c-79.35,0 -156.33,15.55 -228.81,46.23l-8.81,3.86c-28.9,12.91 -56.85,28.09 -83.04,45.11l-9.67,6.45c-3.16,2.14 -6.29,4.29 -9.4,6.5c-18.92,13.44 -37.19,28.14 -54.6,43.91l-1.3,1.17l-10.41,9.73l-16.32,16.28l-18.15,19.65l-16.73,19.81c6.36,34.38 44.31,64.48 112.81,89.49c99.78,-26.17 155.08,-27.45 169.04,-3.91c12.12,20.45 -7.67,57.78 -60.51,114.07c91.29,56.52 99.75,134.03 79.03,183.57c-20.56,49.12 -76.71,89.71 -155.87,69.6c-118.71,-30.14 -210.64,-71.6 -273.34,-123.27Zm586.08,631.35c-326.55,0 -592.22,-265.67 -592.22,-592.22c0,-14.35 0.56,-29.22 1.65,-44.19l0.35,-4.73l3.62,3.06c62.2,52.61 154.74,94.77 275.05,125.32c76.33,19.4 130.46,-19.57 150.22,-66.78c20.18,-48.23 11.43,-124.08 -79.62,-179.13l-2.56,-1.55l2.06,-2.18c51.95,-54.95 72.78,-92.11 61.9,-110.46c-12.56,-21.18 -67.87,-19.06 -164.38,6.31l-0.73,0.19l-0.71,-0.26c-71.42,-25.95 -110.72,-57.76 -116.82,-94.54l-0.17,-1.07l12.59,-15.23l18.39,-20.45l13.87,-14.27l9.73,-9.47l10.26,-9.51c17.5,-15.86 35.92,-30.68 54.69,-44.01c3.44,-2.45 6.6,-4.61 9.79,-6.78l9.73,-6.49c26.43,-17.17 54.59,-32.46 83.74,-45.49l8.87,-3.89c73.08,-30.93 150.7,-46.61 230.7,-46.61c125.43,0 245.32,38.76 346.7,112.09c37.97,28.84 72.81,62.74 103.59,100.81l0.68,0.84l-0.17,1.07c-6.08,36.81 -45.39,68.64 -116.83,94.6l-0.71,0.25l-0.73,-0.19c-96.5,-25.36 -151.82,-27.49 -164.38,-6.3c-10.88,18.35 9.94,55.51 61.89,110.46l2.06,2.18l-2.56,1.55c-91.05,55.06 -99.79,130.91 -79.62,179.13c19.76,47.21 73.88,86.18 150.23,66.78c127.03,-32.25 222.87,-77.33 284.88,-133.97l3.54,-3.24l0.49,4.77c2.09,20.26 3.16,40.91 3.16,61.38c0,326.55 -265.67,592.22 -592.22,592.22Z" style="fill:#371944;fill-rule:nonzero;"/><path d="M2001.34,3318.73c-220.93,0 -413.15,-125.29 -509.35,-308.54c29.55,35.61 65.15,67.94 105.69,96.09c105.5,99.09 247.49,159.8 403.66,159.8c156.17,0 298.17,-60.71 403.67,-159.81c40.52,-28.15 76.14,-60.49 105.67,-96.08c-96.19,183.25 -288.41,308.54 -509.34,308.54Z" style="fill:#c3bac7;fill-rule:nonzero;"/><path d="M2313.94,2451.28c-156.75,-36.25 -181.53,2.31 -74.33,115.7c-166.231,100.52 -78.01,288.53 72.46,250.32l0.36,-0.1l0.37,-0.08l0.36,-0.1l0.38,-0.1c6.63,-1.69 13.12,-3.42 19.56,-5.16l0.36,-0.1l0.35,-0.1l0.71,-0.19l0.37,-0.09l0.35,-0.1l0.44,-0.12c6.49,-1.79 12.88,-3.62 19.18,-5.48l0.31,-0.08l0.32,-0.1l0.33,-0.1l0.31,-0.08l0.32,-0.1l1.16,-0.34l0.86,-0.26l0.34,-0.1l0.33,-0.1l0.32,-0.1l0.33,-0.1l0.33,-0.1c6.09,-1.82 12.1,-3.66 18.04,-5.57l0.31,-0.11l0.32,-0.1l0.32,-0.09l0.11,-0.04l1.24,-0.39l0.29,-0.11c5.68,-1.82 11.27,-3.68 16.78,-5.57l0.28,-0.1l0.28,-0.08l0.29,-0.1l0.28,-0.11l1.4,-0.46l1.59,-0.56l0.28,-0.1l0.28,-0.1l0.28,-0.1l0.28,-0.1l0.29,-0.1l0.28,-0.1c5.16,-1.81 10.27,-3.62 15.3,-5.49l0.28,-0.1l0.27,-0.11l0.28,-0.09l0.63,-0.24l1.93,-0.73l0.26,-0.09l0.27,-0.11c5.01,-1.87 9.94,-3.78 14.81,-5.7l0.24,-0.11l0.27,-0.11l0.25,-0.1l0.27,-0.1l0.24,-0.1l0.75,-0.28l0.6,-0.25l0.24,-0.1l0.26,-0.1l0.25,-0.1l0.24,-0.1l0.52,-0.21l0.25,-0.1c4.61,-1.87 9.08,-3.72 13.52,-5.61l0.24,-0.1l0.25,-0.1l2.16,-0.92l0.96,-0.43l0.23,-0.1l0.23,-0.1l0.22,-0.09l0.23,-0.1l0.23,-0.11l0.23,-0.09l12.19,-5.43l0.23,-0.12l0.21,-0.1l0.24,-0.1l0.21,-0.09l0.15,-0.07l4.07,-1.88l0.1,-0.05l0.18,-0.08l0.2,-0.11l0.18,-0.08l0.19,-0.08l0.18,-0.08l0.2,-0.1l0.18,-0.08l8.85,-4.25l0.16,-0.09l0.18,-0.08l0.19,-0.1l0.18,-0.08l0.18,-0.08l0.19,-0.1l0.18,-0.08l0.18,-0.11l0.18,-0.08l6,-2.99l0.18,-0.08l0.16,-0.1l0.19,-0.08l0.18,-0.09l0.16,-0.1l0.19,-0.08l0.17,-0.1l0.18,-0.08l0.16,-0.08l0.18,-0.1l0.19,-0.09l0.69,-0.36l0.17,-0.08l3.49,-1.81l0.16,-0.09l1.05,-0.55l0.16,-0.08l0.19,-0.1l0.16,-0.08l0.35,-0.18l0.17,-0.09l0.18,-0.1l0.16,-0.08l0.19,-0.1l0.16,-0.08l0.17,-0.1l0.18,-0.08l0.17,-0.08l0.16,-0.11l0.19,-0.08l0.16,-0.1l0.18,-0.08l0.17,-0.1l0.17,-0.08l0.18,-0.1l0.17,-0.09l4.16,-2.2l0.42,-0.23l9.78,-5.45l6.55,-3.78l7.49,-4.49l7.32,-4.55l0.08,-0.04l3.57,-2.31l3.53,-2.31l6.93,-4.66l3.36,-2.34l3.34,-2.36l6.49,-4.75l5,-3.78l0.26,-0.2l0.27,-0.22l0.26,-0.19l6.58,-5.2l0.25,-0.21l0.26,-0.22l0.27,-0.2l0.24,-0.22l3.49,-2.87l0.23,-0.2l0.24,-0.18l0.23,-0.2l0.23,-0.2l0.28,-0.23c3.31,5.03 6.53,10.09 9.71,15.2c2.47,16.8 3.76,33.86 3.76,51.16c0,250.12 -264.07,452.88 -589.8,452.88c-325.75,0 -589.81,-202.76 -589.81,-452.88c0,-17.23 1.27,-34.24 3.72,-50.96l2.31,-3.73c60.37,49.48 150.43,91.44 271.63,122.21c150.46,38.21 238.68,-149.8 72.45,-250.32c109.31,-115.62 81.41,-153.44 -83.72,-113.48c98.06,-52.03 208.77,-80.52 323.45,-80.52c106.61,0 209.8,24.62 302.58,69.9Z" style="fill:#f58600;"/><path d="M2403.57,2781.27c-1.51,-3.27 -3.05,-6.53 -4.61,-9.76c32.31,-11.91 62.3,-25.41 90.09,-40.89c0.81,4.2 1.52,8.43 2.15,12.72c-26.31,13.66 -55.58,26.34 -87.63,37.93Zm-26.37,-50.95c-32.3,-55.95 -72.75,-105.69 -121.35,-149.22l4.15,-2.51l-12.76,-13.5c-1.52,-1.61 -3,-3.19 -4.45,-4.75l-2.82,-3.06c-7.25,-7.89 -13.84,-15.44 -19.8,-22.66c-33.97,-41.3 -34.94,-57.94 -33.8,-63.15c151.52,39.52 247.22,108.19 287.06,205.98c-34.74,21.81 -66.84,39.37 -96.23,52.87Z" style="fill:#fff;fill-rule:nonzero;"/><path d="M2403.6,2781.34c-0.01,-0.03 -0.02,-0.05 -0.03,-0.07c32.05,-11.59 61.32,-24.27 87.63,-37.93c0.01,0.06 0.02,0.12 0.03,0.18c-26.35,13.66 -55.57,26.27 -87.63,37.82Zm-147.75,-200.24c-2.78,-2.49 -5.59,-4.96 -8.42,-7.41l4.89,-2.98l-9.53,-10.37c1.45,1.56 2.93,3.14 4.45,4.75l12.76,13.5l-4.15,2.51Zm-35.68,-46.48c-2.32,-2.82 -4.54,-5.58 -6.66,-8.3c-25.12,-30.47 -32.22,-47.56 -33.75,-56.54c2.22,0.56 4.41,1.12 6.61,1.69c-1.14,5.21 -0.17,21.85 33.8,63.15Z" style="fill:#9b8ca2;fill-rule:nonzero;"/><path d="M2460.54,2971.87c-9.57,-58.48 -24.56,-112.81 -45,-163.01c24.7,-8.96 47.85,-18.57 69.38,-28.8c3.16,-1.51 6.3,-3.03 9.4,-4.56c2.83,58.1 -8.43,123.56 -33.78,196.37Zm-293.18,-457.55c-43.09,-27.38 -90.711,-51.3 -142.91,-71.75c44.88,5.02 86.53,11.71 124.99,20.09c-0.07,1.02 -0.11,2.05 -0.11,3.09c0.02,15.5 7.82,32.56 18.03,48.57Z" style="fill:#9b8ca2;fill-rule:nonzero;"/><path d="M1795.6,3083.78c-14.54,0 -31.34,-3.38 -47.02,-10.05c-37.91,-16.13 -67.26,-32.04 -51.68,-69.05c6.37,-15.14 20.66,-21.42 37.74,-21.42c43.4,0 104.78,40.63 99.52,79.82c-1.86,13.89 -17.94,20.7 -38.56,20.7Z" style="fill:#9b8ca2;fill-rule:nonzero;"/><path d="M1635.6,2978.99c-23.56,0 -72.25,-40.28 -55.36,-60.95c4.07,-4.97 9.57,-7.12 15.68,-7.12c24.96,0 60.2,35.76 50.69,61.38c-1.74,4.68 -5.75,6.69 -11.01,6.69Z" style="fill:#9b8ca2;fill-rule:nonzero;"/><path d="M1431.07,2951.48c-22.45,0 -40.85,-9.02 -55.21,-27.06c-3.1,-2.53 -6.02,-5.22 -8.76,-8.06c-25.68,-48.78 -33.13,-139.4 -22.17,-270.49c13.76,21.1 31.43,41.14 52.84,60c-0.46,7.34 -0.78,14.63 -0.98,21.81c-1.41,-0.25 -2.81,-0.37 -4.2,-0.37c-12.74,0 -24.1,10.26 -23.86,24.18c1.68,96.88 21.19,157.81 58.52,182.78c1.92,5.77 3.91,11.48 6,17.18c-0.73,0.02 -1.46,0.03 -2.18,0.03Z" style="fill:#b9afbe;fill-rule:nonzero;"/><path d="M1367.1,2916.36c-7.37,-13.95 -13.25,-31.27 -17.6,-51.9l-0.66,-3.13l-2.2,1.16c-10.63,-52.46 -11.91,-125.78 -3.85,-219.96c0.7,1.12 1.42,2.23 2.14,3.34c-10.96,131.09 -3.51,221.71 22.17,270.49Z" style="fill:#371944;fill-rule:nonzero;"/><path d="M1367.1,2916.36c-2.14,-2.23 -4.17,-4.54 -6.1,-6.95c-5.63,-12.55 -10.25,-27.37 -13.85,-44.46c-0.18,-0.81 -0.35,-1.63 -0.51,-2.46l2.2,-1.16l0.66,3.13c4.35,20.63 10.23,37.95 17.6,51.9Z" style="fill:#371944;fill-rule:nonzero;"/><path d="M1397.77,2705.87c-21.41,-18.86 -39.08,-38.9 -52.84,-60c-0.72,-1.11 -1.44,-2.22 -2.14,-3.34c0.72,-8.45 1.52,-17.06 2.39,-25.85c12.38,24.73 30.31,48.38 53.9,70.64l-0.83,11.48c-0.18,2.36 -0.34,4.72 -0.48,7.07Z" style="fill:#371944;fill-rule:nonzero;"/><path d="M1241.44,3367.68c-71.45,0 -154.59,-77.26 -244.19,-226.17c73.89,77.13 135.26,121.69 184.12,133.66c7.4,2.29 14.92,3.43 22.57,3.43c1.56,0 3.13,-0.05 4.7,-0.14c15.91,-0.29 30.18,-4.85 42.81,-13.68c4.44,-2.5 8.91,-5.34 13.42,-8.53c11.21,-7.91 22.66,-17.91 34.32,-30.02c36.62,-26.36 82.72,-44.45 138.33,-54.28l0.33,0c25.38,0 43.9,-2.29 55.58,-6.88c12.37,-4.86 17.05,-12.32 14.03,-22.36c-37.52,-45.34 -65.17,-93.76 -82.96,-145.24c-53.67,-17.34 -80.39,-56.69 -80.17,-118.06c2.84,7.76 6.37,14.93 10.59,21.51c9.26,24.4 21.79,41.82 37.45,51.98c11.25,7.3 24.24,10.96 38.78,10.96c2.2,0 4.44,-0.08 6.71,-0.25c54.16,138.44 157.93,252.19 289.33,319.3c-13.19,2.19 -27.02,3.26 -41.5,3.26c-47.11,0 -101.12,-11.38 -162.53,-32.66c-15.19,-5.26 -30.1,-7.78 -44.89,-7.78c-52.76,0 -103.84,32.14 -159.33,86.82c-23.88,23.53 -49.81,35.13 -77.5,35.13Z" style="fill:#c3bac7;fill-rule:nonzero;"/><path d="M1431.15,2963.86c-14.54,0 -27.53,-3.66 -38.78,-10.96c-15.66,-10.16 -28.19,-27.58 -37.45,-51.98c1.89,2.95 3.92,5.78 6.08,8.49c15.58,34.7 38.94,52.05 70.06,52.05c1.93,0 3.89,-0.06 5.88,-0.2c0.31,0.79 0.61,1.56 0.92,2.35c-2.27,0.17 -4.51,0.25 -6.71,0.25Z" style="fill:#371944;fill-rule:nonzero;"/><path d="M1246.07,2937.63c-0.83,-1.25 -1.68,-2.47 -2.53,-3.66c15.23,-17.04 32.58,-32.71 52.06,-46.99c-1.5,3.46 -2.89,6.83 -4.17,10.11c-16.7,12.5 -31.85,26.03 -45.36,40.54Z" style="fill:#42acb1;fill-rule:nonzero;"/><path d="M1304.72,3119.46c-11.18,-65.14 -25.32,-116.03 -42.4,-152.62c-4.29,-9.21 -8.8,-17.55 -13.53,-25.04c11.89,-12.87 25.09,-24.97 39.53,-36.25c-6.64,19.26 -8.95,35.04 -6.93,47.35c0.74,4.45 2.02,8.44 3.89,11.98c12.07,40.16 18.55,91.68 19.44,154.58Z" style="fill:#c3bac7;fill-rule:nonzero;"/><path d="M1248.79,2941.8c-0.9,-1.42 -1.8,-2.81 -2.72,-4.17c13.51,-14.51 28.66,-28.04 45.36,-40.54c-1.12,2.89 -2.16,5.71 -3.11,8.46c-14.44,11.28 -27.64,23.38 -39.53,36.25Z" style="fill:#371944;fill-rule:nonzero;"/><path d="M1431.24,2959.02c-16,0 -29.92,-4.7 -41.6,-14.06c-8.55,-6.89 -16.03,-16.36 -22.4,-28.34c-0.04,-0.09 -0.09,-0.18 -0.14,-0.26c2.74,2.84 5.66,5.53 8.76,8.06c14.36,18.04 32.76,27.06 55.21,27.06c0.72,0 1.45,-0.01 2.18,-0.03c0.91,2.48 1.84,4.97 2.78,7.43c-1.62,0.09 -3.21,0.14 -4.79,0.14Z" style="fill:#928299;fill-rule:nonzero;"/><path d="M1431.19,2959.02c-13.62,0 -25.74,-3.4 -36.19,-10.17c-1.83,-1.19 -3.61,-2.49 -5.36,-3.89c11.68,9.36 25.6,14.06 41.6,14.06c1.58,0 3.17,-0.05 4.79,-0.14c-1.63,0.1 -3.25,0.14 -4.84,0.14Zm-63.95,-42.4c-0.04,-0.09 -0.09,-0.18 -0.14,-0.26c0.05,0.08 0.1,0.17 0.14,0.26Z" style="fill:#371944;fill-rule:nonzero;"/><path d="M1431.06,2961.46c-31.12,0 -54.48,-17.35 -70.06,-52.05c1.93,2.41 3.96,4.72 6.1,6.95c0.05,0.08 0.1,0.17 0.14,0.26c6.37,11.98 13.85,21.45 22.4,28.34c1.75,1.4 3.53,2.7 5.36,3.89c10.45,6.77 22.57,10.17 36.19,10.17c1.59,0 3.21,-0.04 4.84,-0.14c0.3,0.8 0.61,1.59 0.91,2.38c-1.99,0.14 -3.95,0.2 -5.88,0.2Z" style="fill:#371944;fill-rule:nonzero;"/><path d="M2384.83,2420.99l17.57,25.14c19.78,-13.8 36.03,-30.18 48.73,-49.1c12.71,-18.93 21.85,-40.36 27.41,-64.23c-49.7,35.23 -54.56,60.86 -93.71,88.19Z" style="fill:#371944;fill-rule:nonzero;"/><path d="M2652.82,2616.68c24.75,248.91 -10.87,363.03 -106.85,342.42c18.09,-46.12 30.53,-95.08 36.48,-146.03c5.41,-34.71 4.98,-77.61 2.37,-113.18c30.67,-25.87 53.27,-53.79 68,-83.21Z" style="fill:#fff;"/><path d="M2549.26,2957.3c24.91,4.71 45.71,-0.24 61.88,-14.69c43.01,-38.43 56.48,-145.27 40.06,-317.65c-14.84,27.04 -36.3,52.56 -63.88,75.97c1.81,25.33 3.76,72.46 -2.49,112.51c-5.74,49.23 -17.71,97.65 -35.57,143.86Zm17.58,6.56c-6.79,0 -13.92,-0.8 -21.38,-2.4l-2.78,-0.6l1.03,-2.64c18.29,-46.64 30.52,-95.57 36.34,-145.43c6.29,-40.32 4.18,-87.93 2.36,-112.73l-0.09,-1.23l0.94,-0.79c29.99,-25.28 52.66,-53.01 67.41,-82.44l3.73,-7.46l0.83,8.3c17.77,178.72 4.02,289.66 -40.88,329.77c-13.14,11.75 -29.07,17.65 -47.51,17.65Z" style="fill:#371944;fill-rule:nonzero;"/><path d="M2650.87,2864.96c46.85,24.63 84.79,55 113.84,91.1c61.5,-69.76 87.84,-43.05 79.04,80.15c89.85,-211.08 262.97,-51.88 157.01,115.28c-124.33,206.63 -236.2,275.3 -321.69,191.05c-71.04,-70.02 -134.87,-103.06 -204.23,-79.04c-98.19,34.02 -177.45,42.73 -239.89,20.09c141.78,-62.69 254.23,-179.62 311.02,-324.49c54.24,11.65 89.21,-19.74 104.9,-94.14Z" style="fill:#fff;"/><path d="M2519.5,3253.32c49.73,0 101.17,28.27 161.26,87.49c26.74,26.35 56.51,37.66 88.41,33.64c67.94,-8.57 145.16,-84.01 229.51,-224.21c44.95,-70.91 37.56,-135.5 15.66,-172.33c-16.05,-26.99 -41.47,-42 -67.88,-40.27c-22.35,1.5 -65.11,16.42 -100.49,99.52l-5.65,13.3l1.03,-14.42c4.91,-68.8 -1.07,-107.24 -17.78,-114.25c-12.29,-5.15 -31.51,6.91 -57.05,35.87l-1.89,2.15l-1.8,-2.23c-28.13,-34.96 -65.22,-64.89 -110.28,-88.99c-9.27,41.76 -25.04,70.11 -46.92,84.31c-16.03,10.4 -35.6,13.41 -58.16,8.97c-56.07,141.57 -167.29,258.34 -305.96,321.43c58.53,19.06 134.7,11.81 232.54,-22.09c15.12,-5.23 30.21,-7.89 45.45,-7.89Zm237.12,126.76c-28.48,0 -55.08,-12.01 -79.25,-35.82c-77.03,-75.92 -139.25,-100.12 -201.74,-78.48c-102.16,35.4 -181.16,41.97 -241.51,20.09l-5.65,-2.05l5.5,-2.43c140.74,-62.24 253.64,-180.03 309.74,-323.17l0.76,-1.92l2,0.44c22.12,4.74 41.14,2.09 56.53,-7.89c21.3,-13.83 36.61,-42.22 45.5,-84.39l0.66,-3.13l2.83,1.49c45.96,24.16 83.89,54.26 112.8,89.52c26.48,-29.54 46.36,-41 60.64,-35c17.89,7.49 24.97,42.13 21.57,105.73c35.3,-74.77 76.85,-88.76 99.14,-90.25c28.33,-1.94 55.36,14.03 72.35,42.62c22.64,38.06 30.39,104.63 -15.69,177.34c-85.13,141.48 -163.54,217.69 -233.03,226.46c-4.42,0.56 -8.81,0.84 -13.15,0.84Z" style="fill:#371944;fill-rule:nonzero;"/><path d="M2802.8,2905.77c-26.34,7.94 -48.72,31.63 -67.12,71.06c-17.07,36.58 -31.21,87.47 -42.39,152.62c41.98,-45.12 62.94,-169.07 118.29,-194.22l-8.78,-29.46Z" style="fill:#371944;fill-rule:nonzero;"/><path d="M2261.71,2805.1c-21.47,0 -41.49,-3.88 -60.06,-11.65c-14.62,-11.34 -25.5,-26.01 -32.07,-41.72c-4.58,-10.96 -7.47,-23.52 -7.9,-36.99c16.04,32.76 45.63,49.99 88.1,49.99c34.22,0 76.79,-11.17 127.42,-34.41c7.72,13.38 14.97,27.1 21.76,41.19c-28.88,10.65 -59.6,20.02 -92.21,28.38c-15.66,3.47 -30.68,5.21 -45.04,5.21Zm227.34,-74.48c-3.55,-18.59 -8.75,-36.3 -15.62,-53.17c26.66,-16.72 54.87,-35.95 84.61,-57.76c64.46,-47.25 105.59,-92.82 76.81,-187.86c19.47,40.72 27.27,80.78 22.56,119.22c-1.31,10.68 -3.6,21.18 -6.85,31.47c-42.17,63.7 -95.63,111.43 -161.51,148.1Z" style="fill:#c3bac7;fill-rule:nonzero;"/><path d="M2201.65,2793.45c-0.14,-0.06 -0.27,-0.11 -0.4,-0.17c-2.49,-1.95 -4.89,-4.02 -7.21,-6.21c0,-0.01 -0.01,-0.01 -0.01,-0.01c0,-0.01 -0.01,-0.01 -0.01,-0.01c-4.57,-4.34 -8.8,-9.14 -12.64,-14.39l-0.85,-1.07c-16.73,-18.99 -25.73,-43.42 -25.73,-68.82c0,-1.75 0.04,-3.5 0.13,-5.26c1.89,6.15 4.14,11.9 6.75,17.23c0.43,13.47 3.32,26.03 7.9,36.99c6.57,15.71 17.45,30.38 32.07,41.72Zm448.91,-210.93c3.25,-10.29 5.54,-20.79 6.85,-31.47c4.71,-38.44 -3.09,-78.5 -22.56,-119.22c-8.59,-28.36 -23.4,-61.13 -45.68,-99.67c93.66,88.83 92.58,131.79 83.33,213.89c-6.94,12.7 -14.26,24.86 -21.94,36.47Z" style="fill:#371944;fill-rule:nonzero;"/><path d="M2398.96,2771.51c-6.79,-14.09 -14.04,-27.81 -21.76,-41.19c29.39,-13.5 61.49,-31.06 96.23,-52.87c6.87,16.87 12.07,34.58 15.62,53.17c-27.79,15.48 -57.78,28.98 -90.09,40.89Z" style="fill:#c3bac7;fill-rule:nonzero;"/><path d="M2569.43,2951.44c2.63,-7.18 5.14,-14.46 7.5,-21.76c31.62,-26.01 48.94,-80.85 51.98,-164.51c0.56,-15.49 -9.47,-27.95 -22.9,-32.29c-0.23,-12.69 -0.85,-25.42 -1.86,-37.97l-0.69,-8.6c19.94,-19.29 35.93,-39.84 47.74,-61.35c13.56,142.4 6.73,240.07 -20.3,291.4c-2.74,2.84 -5.66,5.53 -8.76,8.06c-13.82,17.37 -31.4,26.37 -52.71,27.02Z" style="fill:#b9afbe;fill-rule:nonzero;"/><path d="M2630.9,2916.36c27.03,-51.33 33.86,-149 20.3,-291.4c-11.81,21.51 -27.8,42.06 -47.74,61.35l-0.25,-3.11c21.49,-21.05 37.99,-43.31 49.61,-66.52c10.61,106.71 10.12,188.64 -1.46,245.81l-2.2,-1.16l-0.66,3.13c-4.35,20.63 -10.23,37.95 -17.6,51.9Z" style="fill:#371944;fill-rule:nonzero;"/><path d="M2630.9,2916.36c7.37,-13.95 13.25,-31.27 17.6,-51.9l0.66,-3.13l2.2,1.16c-0.16,0.82 -0.33,1.65 -0.5,2.46c-3.61,17.09 -8.22,31.91 -13.86,44.46c-1.92,2.41 -3.96,4.72 -6.1,6.95Z" style="fill:#371944;fill-rule:nonzero;"/><path d="M2756.56,3367.68c-27.69,0 -53.62,-11.6 -77.5,-35.13c-55.48,-54.68 -106.57,-86.82 -159.33,-86.82c-14.79,0 -29.7,2.52 -44.89,7.78c-61.4,21.28 -115.41,32.66 -162.53,32.66c-13.18,0 -25.82,-0.89 -37.93,-2.7c131.84,-67 236.01,-180.92 290.35,-319.64c0.71,0.02 1.41,0.03 2.12,0.03c14.54,0 27.53,-3.66 38.78,-10.96c15.66,-10.17 28.2,-27.58 37.45,-51.98c4.22,-6.58 7.75,-13.75 10.59,-21.51c0.22,61.37 -26.5,100.72 -80.17,118.06c-17.79,51.48 -45.44,99.9 -82.96,145.24c-3.02,10.04 1.66,17.5 14.03,22.36c11.68,4.59 30.21,6.88 55.58,6.88l0.33,0c55.61,9.83 101.71,27.92 138.33,54.28c11.67,12.11 23.1,22.11 34.32,30.02c4.51,3.19 8.99,6.03 13.42,8.53c12.63,8.83 26.9,13.39 42.81,13.68c1.57,0.09 3.14,0.14 4.7,0.14c7.65,0 15.17,-1.14 22.58,-3.43c48.85,-11.97 110.23,-56.53 184.12,-133.66c-89.61,148.91 -172.74,226.17 -244.2,226.17Z" style="fill:#c3bac7;fill-rule:nonzero;"/><path d="M2566.85,2963.86c-0.71,0 -1.41,-0.01 -2.12,-0.03c0.31,-0.78 0.62,-1.59 0.92,-2.38c0.43,0.01 0.86,0.01 1.29,0.01c31.12,0 54.48,-17.35 70.06,-52.05c2.17,-2.71 4.19,-5.54 6.08,-8.49c-9.25,24.4 -21.79,41.81 -37.45,51.98c-11.25,7.3 -24.24,10.96 -38.78,10.96Z" style="fill:#371944;fill-rule:nonzero;"/><path d="M2751.93,2937.63c-13.51,-14.51 -28.65,-28.04 -45.36,-40.54c-1.27,-3.28 -2.66,-6.65 -4.17,-10.11c19.49,14.28 36.84,29.95 52.06,46.99c-0.85,1.19 -1.69,2.41 -2.53,3.66Z" style="fill:#42acb1;fill-rule:nonzero;"/><path d="M2693.29,3119.46c0.88,-62.9 7.36,-114.42 19.44,-154.58c1.85,-3.54 3.15,-7.53 3.88,-11.98c2.02,-12.31 -0.29,-28.09 -6.93,-47.35c14.45,11.29 27.64,23.39 39.53,36.25c-4.72,7.49 -9.24,15.83 -13.53,25.04c-17.07,36.59 -31.21,87.48 -42.39,152.62Z" style="fill:#c3bac7;fill-rule:nonzero;"/><path d="M2749.21,2941.8c-11.89,-12.86 -25.08,-24.96 -39.53,-36.25c-0.95,-2.75 -1.98,-5.57 -3.11,-8.46c16.71,12.5 31.85,26.03 45.36,40.54c-0.91,1.36 -1.82,2.75 -2.72,4.17Z" style="fill:#371944;fill-rule:nonzero;"/><path d="M2566.81,2959.02l-0.22,0c0.97,-2.53 1.9,-5.03 2.84,-7.58c21.31,-0.65 38.89,-9.65 52.71,-27.02c3.1,-2.53 6.02,-5.22 8.76,-8.06c-0.05,0.1 -0.11,0.21 -0.17,0.31c-6.42,12.07 -13.96,21.58 -22.59,28.47c-11.58,9.2 -25.35,13.84 -41.15,13.88l-0.18,0Z" style="fill:#928299;fill-rule:nonzero;"/><path d="M2566.99,2959.02c15.8,-0.04 29.57,-4.68 41.15,-13.88c-1.67,1.33 -3.39,2.57 -5.14,3.71c-10.4,6.75 -22.46,10.15 -36.01,10.17Zm63.74,-42.35c0.06,-0.1 0.12,-0.21 0.17,-0.31c-0.05,0.1 -0.11,0.21 -0.17,0.31Z" style="fill:#371944;fill-rule:nonzero;"/><path d="M2566.94,2960.46c-0.43,0 -0.86,0 -1.29,-0.01c0.32,-0.8 0.63,-1.62 0.94,-2.43l0.4,0c13.55,-0.02 25.61,-3.42 36.01,-10.17c1.75,-1.14 3.47,-2.38 5.14,-3.71c8.63,-6.89 16.17,-16.4 22.59,-28.47c0.06,-0.1 0.12,-0.21 0.17,-0.31c2.14,-2.23 4.18,-4.54 6.1,-6.95c-15.58,34.7 -38.94,52.05 -70.06,52.05Z" style="fill:#371944;fill-rule:nonzero;"/><path d="M1426.7,2733.49c-0.13,4.87 -0.19,9.67 -0.19,14.42c0,316.96 257.87,574.82 574.83,574.82c316.96,0 574.82,-257.86 574.82,-574.82c0,-5.92 -0.09,-11.85 -0.27,-17.79c-63.39,47.44 -151.81,85.76 -263.39,114.1c-61.64,15.65 -120.92,-3.26 -154.91,-49.36c-25.84,-29.64 -37.19,-69.31 -31.17,-108.94c6.8,-44.7 34.91,-85.91 79.75,-117.49c-5.87,-6.75 -11.23,-13.23 -16.02,-19.36c-23.79,-28.87 -53.6,-71.02 -34.98,-100.11c18.21,-28.46 73.34,-29.04 178.54,-1.81c57.69,-21.54 91.16,-46.04 99.69,-72.94c-58.28,-67.87 -129.87,-120.31 -212.89,-155.92l-22.08,-9.47l0.84,-0.73c-63.25,-23.24 -129.71,-35.01 -197.93,-35.01c-77.65,0 -152.98,15.22 -223.92,45.24l-8.65,3.79c-28.21,12.6 -55.57,27.47 -81.24,44.14l-9.48,6.33c-3.05,2.07 -6.11,4.17 -9.15,6.33l-0.45,0.31c-18.13,12.88 -36.01,27.27 -53.01,42.67l-1.27,1.14l-10.2,9.54l-15.9,15.85l-17.86,19.34l-12.43,14.54c8.36,27.02 41.87,51.62 99.78,73.25c106.38,-27.53 161.72,-26.62 179.19,2.84c14.83,25.02 -1.22,61.76 -52.05,118.1c86.08,59.87 92.98,139.11 71.35,190.8c-26.77,63.99 -96.89,95.62 -170.54,76.93c-108.86,-27.64 -195.74,-64.83 -258.81,-110.73Zm574.64,619.19c-333.48,0 -604.78,-271.3 -604.78,-604.77c0,-14.59 0.57,-29.77 1.69,-45.11l2.13,-29.36l22.47,19.01c60.74,51.37 151.59,92.66 270.03,122.74c69.12,17.55 117.87,-17.22 135.54,-59.46c18.25,-43.62 9.68,-112.61 -74.53,-163.53l-15.89,-9.61l12.76,-13.5c69.77,-73.8 61.41,-93.43 60.22,-95.43c-2.35,-3.97 -20.68,-22.04 -150.38,12.06l-4.52,1.19l-4.4,-1.6c-77.06,-28 -117.93,-62.12 -124.92,-104.3l-1.1,-6.6l16.32,-19.86l18.79,-20.9l14.24,-14.66l10.07,-9.79l10.44,-9.67c17.68,-16.03 36.49,-31.16 55.71,-44.82l0.45,-0.31c3.05,-2.18 6.29,-4.4 9.55,-6.61l9.89,-6.6c27.06,-17.58 55.81,-33.19 85.52,-46.47l9.14,-4c74.62,-31.57 153.88,-47.59 235.56,-47.59c80.47,0 158.64,15.57 232.34,46.28l22.44,9.35l-2.09,1.8c80.46,38.12 150.06,91.91 207.17,160.13l4.44,5.29l-1.15,6.81c-7.1,42.11 -47.95,76.16 -124.9,104.11l-4.39,1.6l-4.53,-1.19c-128.81,-33.86 -147.78,-16.11 -150.27,-12.21c-0.92,1.45 -7.84,15.53 33.11,65.22c7.57,9.68 16.39,20 26.46,30.96l12.35,13.43l-15.59,9.49c-45.86,27.93 -74.52,65.65 -80.69,106.22c-4.73,31.09 4.2,62.13 24.49,85.17l0.85,1.07c26.97,36.96 73.23,51.37 123.74,38.53c121.32,-30.81 213.59,-73.32 274.25,-126.36l22.4,-19.59l2.38,29.67c1.3,16.19 1.96,32.67 1.96,49c0,333.47 -271.3,604.77 -604.77,604.77Z" style="fill:#371944;fill-rule:nonzero;"/><path d="M1427.69,2730.17c-0.78,9.33 -1.18,18.69 -1.18,28.01c0,241.46 257.87,437.9 574.83,437.9c316.96,0 574.82,-196.44 574.82,-437.9c0,-10.36 -0.49,-20.78 -1.45,-31.16c-63.31,47.01 -151.34,85.04 -262.21,113.2c-61.62,15.65 -120.92,-3.26 -154.91,-49.36c-25.84,-29.64 -37.19,-69.31 -31.17,-108.94c6.8,-44.7 34.91,-85.91 79.75,-117.49c-5.87,-6.75 -11.23,-13.23 -16.02,-19.36c-23.79,-28.87 -53.6,-71.02 -34.98,-100.11c18.2,-28.45 73.33,-29.05 178.55,-1.81l27.84,-11.51l12.99,-6.34c-104.07,-67.86 -235.61,-105.02 -373.21,-105.02c-143.52,0 -279.35,40.02 -385.26,113.09c12.1,6.3 25.97,12.38 41.49,18.18c106.38,-27.54 161.71,-26.62 179.18,2.84c14.83,25.02 -1.22,61.76 -52.05,118.1c86.08,59.87 92.98,139.11 71.35,190.8c-26.77,63.99 -96.89,95.62 -170.54,76.93c-108.24,-27.49 -194.8,-64.45 -257.82,-110.05Zm573.65,495.87c-333.48,0 -604.78,-209.89 -604.78,-467.86c0,-19.46 1.57,-39.09 4.68,-58.34l4.17,-25.85l20.17,16.7c60.77,50.35 150.7,90.89 267.3,120.5c69.12,17.55 117.87,-17.22 135.54,-59.46c18.25,-43.62 9.68,-112.61 -74.53,-163.53l-15.89,-9.61l12.76,-13.5c69.77,-73.8 61.41,-93.43 60.22,-95.43c-2.35,-3.97 -20.68,-22.04 -150.38,12.06l-4.52,1.19l-4.4,-1.6c-28.64,-10.41 -52.62,-21.87 -71.26,-34.06l-17.87,-11.67l17.05,-12.83c113.51,-85.4 263.28,-132.43 421.74,-132.43c152.48,0 298.08,43.98 409.99,123.82l17.69,12.62l-40.49,25.05l-49.06,21.14l-4.34,1.53l-4.46,-1.17c-128.77,-33.84 -147.77,-16.1 -150.27,-12.21c-0.92,1.45 -7.84,15.53 33.11,65.22c7.57,9.68 16.39,20 26.46,30.96l12.35,13.43l-15.59,9.49c-45.86,27.93 -74.52,65.65 -80.69,106.22c-4.73,31.09 4.2,62.13 24.49,85.17l0.85,1.07c26.97,36.95 73.23,51.37 123.74,38.53c119.3,-30.31 210.56,-71.94 271.25,-123.74l20.04,-17.11l4.44,25.98c3.49,20.43 5.26,41.24 5.26,61.86c0,257.97 -271.3,467.86 -604.77,467.86Z" style="fill:#371944;fill-rule:nonzero;"/><path d="M1358.26,2668.9c-12.32,175.77 13.49,240.01 38.64,262.48c8.63,7.71 18.83,11.86 30.88,12.51c-14.49,-41.54 -24.41,-84.65 -29.54,-128.47c-5.83,-37.69 -4.71,-81 -3.07,-108.01c-13.89,-12.3 -26.21,-25.17 -36.91,-38.51Zm72.64,310.06c-22.06,0 -41.25,-7.2 -57.28,-21.52c-49.37,-44.1 -64.35,-156.13 -45.83,-342.49l5.97,-60.06l27.04,53.96c13.82,27.59 35.23,53.72 63.65,77.67l6.81,5.75l-0.65,8.89c-1.77,24.15 -3.83,70.47 2.21,109.22l0.09,0.66c5.67,48.59 17.58,96.26 35.39,141.68l7.52,19.14l-20.11,4.32c-8.63,1.85 -16.9,2.78 -24.81,2.78Z" style="fill:#371944;fill-rule:nonzero;"/><path d="M1047.22,2952.55c-19.74,0 -38.03,11.89 -50.62,33.05c-19.61,32.99 -25.86,91.43 15.4,156.53c80.92,134.48 156.47,209.52 218.72,217.38c27.5,3.48 52.34,-6.15 75.95,-29.42c55.96,-55.14 131.77,-114.42 222.21,-83.1c72.97,25.28 133.1,35.37 182.14,30.39c-120.36,-65.84 -216.82,-172.22 -269.98,-298.92c-21.42,2.01 -40.52,-2.32 -56.87,-12.93c-21.87,-14.2 -37.81,-38.58 -48.4,-74.18c-35.74,21.32 -65.57,46.71 -88.87,75.67c-3.23,4.01 -8.07,6.4 -13.22,6.51c-5,0.07 -10.09,-2.04 -13.5,-5.91c-29.02,-32.93 -39.95,-31.91 -40.03,-31.91c-0.01,0.04 -14.88,9.49 -8.47,99.26c0.61,8.52 -5.03,16.22 -13.33,18.23c-8.31,2.02 -16.83,-2.29 -20.18,-10.14c-23.53,-55.29 -55.48,-88.24 -87.64,-90.4c-1.11,-0.07 -2.21,-0.11 -3.31,-0.11Zm194.37,442.6c-5.02,0 -10.1,-0.32 -15.24,-0.97c-74.3,-9.37 -156.42,-88 -244.072,-233.68c-49.526,-78.12 -40.625,-150.85 -15.713,-192.75c19.956,-33.57 52.235,-52.23 86.305,-49.96c19.53,1.32 51.76,10.58 83.09,51.07c2.85,-37.44 12.81,-57.87 30.79,-65.41c22.66,-9.49 46.71,7.39 65.96,26.45c28.55,-31.3 64.22,-58.29 106.3,-80.41c4.84,-2.55 10.6,-2.68 15.56,-0.35c4.96,2.34 8.53,6.86 9.66,12.21c8.04,38.11 21.15,63.3 38.97,74.86c12.08,7.84 26.85,9.74 45.17,5.81c8.39,-1.81 16.81,2.73 19.94,10.7c54.67,139.48 164.67,254.25 301.81,314.89c6.53,2.89 10.64,9.45 10.4,16.58c-0.25,7.13 -4.8,13.4 -11.51,15.83c-63.73,23.11 -146.01,16.56 -251.57,-20.01c-57.13,-19.8 -112.84,2.63 -186.24,74.97c-27.1,26.7 -57.18,40.17 -89.61,40.17Z" style="fill:#371944;fill-rule:nonzero;"/><path d="M2599.76,2815.43c-5.13,43.81 -15.05,86.91 -29.54,128.46c12.05,-0.65 22.25,-4.8 30.89,-12.51c25.14,-22.47 50.96,-86.71 38.63,-262.48c-10.69,13.34 -23.02,26.21 -36.91,38.51c1.65,27.02 2.76,70.33 -3.07,108.02Zm-32.66,163.53c-7.9,0 -16.17,-0.93 -24.8,-2.78l-20.11,-4.32l7.51,-19.14c17.82,-45.43 29.72,-93.09 35.39,-141.68l0.09,-0.66c6.04,-38.75 3.98,-85.06 2.22,-109.22l-0.65,-8.89l6.81,-5.75c28.41,-23.95 49.82,-50.08 63.65,-77.67l27.03,-53.96l5.97,60.06c18.53,186.36 3.54,298.39 -45.82,342.49c-16.03,14.32 -35.23,21.52 -57.29,21.52Z" style="fill:#371944;fill-rule:nonzero;"/><path d="M2519.6,3238.3c68.36,0 126.53,47.24 171.73,91.79c23.61,23.27 48.46,32.9 75.95,29.42c62.25,-7.86 137.8,-82.9 218.5,-217.03c41.48,-65.45 35.23,-123.89 15.62,-156.88c-13.29,-22.34 -32.95,-34.3 -53.93,-32.94c-32.16,2.16 -64.11,35.11 -87.64,90.4c-3.34,7.85 -11.85,12.16 -20.18,10.14c-8.3,-2.01 -13.93,-9.71 -13.32,-18.23c6.41,-89.77 -8.47,-99.22 -8.62,-99.31c0.04,0.03 -10.88,-0.95 -39.89,31.96c-3.41,3.87 -8.38,5.96 -13.51,5.91c-5.15,-0.11 -9.99,-2.5 -13.21,-6.51c-23.3,-28.96 -53.13,-54.35 -88.87,-75.67c-10.58,35.6 -26.52,59.98 -48.4,74.18c-16.35,10.61 -35.43,14.94 -56.86,12.93c-53.16,126.7 -149.62,233.08 -269.99,298.92c49.05,4.98 109.17,-5.11 182.14,-30.39c17.38,-6.02 34.22,-8.69 50.48,-8.69Zm236.81,156.85c-32.43,0 -62.51,-13.47 -89.61,-40.17c-73.4,-72.34 -129.1,-94.76 -186.24,-74.97c-105.54,36.57 -187.83,43.12 -251.57,20.01c-6.7,-2.43 -11.26,-8.7 -11.5,-15.83c-0.25,-7.13 3.87,-13.69 10.39,-16.58c137.14,-60.64 247.15,-175.41 301.82,-314.89c3.12,-7.97 11.56,-12.52 19.94,-10.7c18.31,3.93 33.09,2.03 45.16,-5.81c17.83,-11.56 30.94,-36.75 38.97,-74.86c1.13,-5.35 4.7,-9.87 9.66,-12.21c4.96,-2.33 10.72,-2.2 15.57,0.35c42.08,22.12 77.75,49.12 106.29,80.41c19.25,-19.06 43.31,-35.95 65.97,-26.45c17.98,7.54 27.93,27.97 30.79,65.41c31.32,-40.5 63.56,-49.75 83.08,-51.07c34.13,-2.24 66.36,16.39 86.31,49.96c24.91,41.9 33.81,114.63 -15.93,193.09c-87.44,145.34 -169.55,223.97 -243.85,233.34c-5.14,0.65 -10.23,0.97 -15.25,0.97Z" style="fill:#371944;fill-rule:nonzero;"/><path d="M2333.72,2443.15c-28.9,-7.48 -54.01,-12.86 -75.62,-16.14c-12.85,-4.92 -25.86,-9.47 -39.01,-13.62c35.06,-6.18 57.67,-18.25 71.39,-33.66c29.55,13.15 57.7,28.38 84.07,45.57l-12.99,6.34l-27.69,11.45c-0.05,0.02 -0.1,0.04 -0.16,0.06" style="fill:#c3bac7;fill-rule:nonzero;"/><path d="M2258.1,2427.01c-11.85,-1.8 -22.65,-2.97 -32.44,-3.51c-4.16,-0.22 -8.14,-0.34 -11.94,-0.34c-5.23,0 -10.11,0.22 -14.67,0.65l-28.7,-6c18.43,-0.4 34.59,-1.93 48.74,-4.42c13.15,4.15 26.16,8.7 39.01,13.62Z" style="fill:#371944;fill-rule:nonzero;"/><path d="M2333.72,2443.15c0.05,-0.02 0.1,-0.04 0.15,-0.06l-0.15,0.06Zm-134.67,-19.34c4.56,-0.43 9.44,-0.65 14.67,-0.65c3.8,0 7.78,0.12 11.94,0.34c-4.16,-0.22 -8.14,-0.34 -11.94,-0.34c-5.22,0 -10.11,0.22 -14.67,0.65Z" style="fill:#371944;fill-rule:nonzero;"/><path d="M2401.82,2407.5c-30.09,-20.58 -62.5,-38.64 -96.7,-54.03c10.33,-34.39 -4.64,-75.95 -20.84,-107.23c56.38,32.64 106.34,74.15 149.12,123.97c-0.6,1.88 -1.31,3.75 -2.15,5.61c-9.66,11 -18,21.35 -29.43,31.68Z" style="fill:#c3bac7;fill-rule:nonzero;"/><path d="M2402.75,2408.13c-0.31,-0.21 -0.62,-0.42 -0.93,-0.63c11.43,-10.33 19.77,-20.68 29.43,-31.68c-5.08,11.22 -14.6,22.01 -28.5,32.31Z" style="fill:#371944;fill-rule:nonzero;"/><path d="M2408.06,2411.82c-1.77,-1.24 -3.53,-2.46 -5.31,-3.69c13.9,-10.3 23.42,-21.09 28.5,-32.31c0.84,-1.86 1.55,-3.73 2.15,-5.61c-42.78,-49.82 -92.74,-91.33 -149.12,-123.97c-14.15,-27.32 -29.25,-46.79 -29.25,-46.79l130.5,87.59l70.95,77.79l-37.78,40.84l-10.64,6.15Z" style="fill:#371944;fill-rule:nonzero;"/><path d="M2337.37,2452.71l-138.32,-28.9c4.56,-0.43 9.45,-0.65 14.67,-0.65c3.8,0 7.78,0.12 11.94,0.34c9.79,0.54 20.59,1.71 32.44,3.51c21.61,3.28 46.72,8.66 75.62,16.14l0.15,-0.06l27.69,-11.45l12.99,-6.34c-26.37,-17.19 -54.52,-32.42 -84.07,-45.57c7.1,-7.98 11.82,-16.85 14.64,-26.26c34.2,15.39 66.61,33.45 96.7,54.03c0.31,0.21 0.62,0.42 0.93,0.63c1.78,1.23 3.54,2.45 5.31,3.69l-70.69,40.89Z" style="fill:#371944;fill-rule:nonzero;"/><path d="M1655.75,2450.87c-14.78,-5.6 -28.04,-11.45 -39.67,-17.5c26.36,-18.18 54.56,-34.32 84.28,-48.3c17.21,16.4 46.38,28.2 92.75,31.74c-11.69,3.9 -23.26,8.11 -34.7,12.61l-44.46,9.29c-8.17,1.55 -16.77,3.35 -25.8,5.39l-32.4,6.77Z" style="fill:#c3bac7;fill-rule:nonzero;"/><path d="M1758.41,2429.42c11.44,-4.5 23.01,-8.71 34.7,-12.61c6.6,0.5 13.57,0.84 20.89,1l-55.59,11.61Z" style="fill:#371944;fill-rule:nonzero;"/><path d="M1588.27,2416.35c-16.19,-12.06 -26.38,-24.76 -30.49,-38.05l12.43,-14.54l17.86,-19.34l15.9,-15.85l10.2,-9.54l1.27,-1.14c17,-15.4 34.88,-29.79 53.01,-42.67l0.45,-0.31c3.04,-2.16 6.1,-4.26 9.15,-6.33l9.48,-6.33c5.34,-3.47 10.76,-6.86 16.24,-10.17c-17.33,32.52 -32.32,74.27 -20.07,107.75c-33.84,16.2 -65.81,35.08 -95.43,56.52Z" style="fill:#c3bac7;fill-rule:nonzero;"/><path d="M1529.21,2365.92c-0.3,-0.2 -0.6,-0.4 -0.9,-0.6l-0.45,-0.49l70.96,-77.79l25.53,-16.06c-9.85,7.88 -19.5,16.09 -28.83,24.55l-3.67,3.4c-0.93,0.86 -1.87,1.72 -2.79,2.58l-3.98,3.69l-4.06,3.95c-0.77,0.74 -1.53,1.48 -2.29,2.23l-3.72,3.61l-1.62,1.67c-3.87,3.88 -7.69,7.81 -11.47,11.8l-1.15,1.19l-0.75,0.83c-5.93,6.33 -11.75,12.8 -17.45,19.41l-0.59,0.66l-0.56,0.68c-3.91,4.56 -7.75,9.18 -11.54,13.86l-0.67,0.83Z" style="fill:#99899f;fill-rule:nonzero;"/><path d="M1529.05,2366.11l-0.74,-0.79c0.3,0.2 0.6,0.4 0.9,0.6l-0.16,0.19Z" style="fill:#371944;fill-rule:nonzero;"/><path d="M1529.13,2366.19l-0.08,-0.08l0.16,-0.19l0.67,-0.83c3.79,-4.68 7.63,-9.3 11.54,-13.86l-12.29,14.96Zm13.44,-16.3c5.7,-6.61 11.52,-13.08 17.45,-19.41l-17.45,19.41Zm19.35,-21.43c3.78,-3.99 7.6,-7.92 11.47,-11.8l-11.47,11.8Zm16.81,-17.08c0.76,-0.75 1.52,-1.49 2.29,-2.23l-2.29,2.23Zm10.33,-9.87c0.92,-0.86 1.86,-1.72 2.79,-2.58l-2.79,2.58Z" style="fill:#371944;fill-rule:nonzero;"/><path d="M1586.43,2417.69l-20.78,-12.02l-36.52,-39.48l12.29,-14.96l0.56,-0.68l0.59,-0.66l17.45,-19.41l0.75,-0.83l1.15,-1.19l11.47,-11.8l1.62,-1.67l3.72,-3.61l2.29,-2.23l4.06,-3.95l3.98,-3.69l2.79,-2.58l3.67,-3.4c9.33,-8.46 18.98,-16.67 28.83,-24.55l113.79,-71.53c0,0 -18.2,22.29 -34.37,52.63c-5.48,3.31 -10.9,6.7 -16.24,10.17l-9.48,6.33c-3.05,2.07 -6.11,4.17 -9.15,6.33l-0.45,0.31c-18.13,12.88 -36.01,27.27 -53.01,42.67l-1.27,1.14l-10.2,9.54l-15.9,15.85l-17.86,19.34l-12.43,14.54c4.11,13.29 14.3,25.99 30.49,38.05c-0.62,0.44 -1.23,0.89 -1.84,1.34Z" style="fill:#371944;fill-rule:nonzero;"/><path d="M1646.97,2452.71l-60.54,-35.02c0.61,-0.45 1.22,-0.9 1.84,-1.34c29.62,-21.44 61.59,-40.32 95.43,-56.52c3.35,9.15 8.74,17.68 16.66,25.24c-29.72,13.98 -57.92,30.12 -84.28,48.3c11.63,6.05 24.89,11.9 39.67,17.5l-8.78,1.84Zm41.18,-8.61c9.03,-2.04 17.63,-3.84 25.8,-5.39l-25.8,5.39Z" style="fill:#371944;fill-rule:nonzero;"/></g></svg>