<?xml version="1.0" encoding="UTF-8" standalone="no"?><!DOCTYPE svg PUBLIC "-//W3C//DTD SVG 1.1//EN" "http://www.w3.org/Graphics/SVG/1.1/DTD/svg11.dtd"><svg width="100%" height="100%" viewBox="0 0 3989 3987" version="1.1" xmlns="http://www.w3.org/2000/svg" xmlns:xlink="http://www.w3.org/1999/xlink" xml:space="preserve" xmlns:serif="http://www.serif.com/" style="fill-rule:evenodd;clip-rule:evenodd;stroke-linejoin:round;stroke-miterlimit:2;"><rect id="Tavola-da-disegno1" serif:id="Tavola da disegno1" x="0" y="0" width="3988.19" height="3986.24" style="fill:none;"/><g><path d="M3357.37,3450.22c-6.69,-2.23 -7.54,-7.93 -11.16,-31.94c-1.87,-12.39 -3.98,-26.44 -6.48,-34.45c-3.11,-6 -35.03,-11.12 -66.88,-10.58c-2.28,0.12 -4.7,-0.93 -6.36,-2.67c-1.65,-1.74 -2.49,-4.09 -2.33,-6.49c0.58,-8.35 1.52,-31.89 -0.71,-43.06c-5.12,-3.28 -28.47,-3.26 -50.23,0.15c-4.16,0.65 -8.31,-1.91 -9.54,-6.02c-0.8,-2.7 -82.37,-271.27 -267.78,-463.86c-171.16,-177.79 -434.85,-261.49 -476.23,-273.81c-15.63,19.22 -32.55,37.22 -50.69,53.98c28.1,22.26 116.94,100.4 189.17,249.55c69.92,144.4 71.31,357.96 71.82,438.36c0.08,12.11 0.15,23.58 0.52,26.84c0.88,2.28 0.88,4.93 -0.19,7.11c-3.25,6.62 -5.69,6.27 -35.74,1.97c-24.09,-3.44 -64.38,-9.18 -76.79,-5.62c-3.41,4.83 6.6,31.65 24.36,58.98c1.4,2.14 1.76,4.79 1,7.23c-0.76,2.43 -2.58,4.41 -4.94,5.37c-34.24,13.97 -65.73,30.91 -73.83,39.39c17.38,7.24 88.58,11.55 113.09,13.03c15,0.91 22.98,1.4 26.37,1.97c10.08,1.69 14.64,9.22 18.66,15.86c4.02,6.64 8.58,14.16 19.72,20.84c12.27,7.37 64.56,5.94 110.15,2.38c-32.97,-14.79 -60.46,-35.31 -77.58,-62.56c-25.56,-40.66 -32.07,-76.13 -19.38,-105.41c15.85,-36.57 56.84,-51.9 74.65,-56.97c-3.55,-23.06 -4.82,-85.08 75.8,-112.91c84.91,-29.31 77.05,-103.27 76.67,-106.41c-0.31,-2.59 0.57,-5.2 2.41,-7.06c1.84,-1.85 4.43,-2.81 7.01,-2.51c111.84,11.99 120.55,97.32 120.64,122.55c75.21,27.04 78.96,107.37 77.51,137.83c67.14,33.72 60.65,92.61 43.33,136.13c-6.11,15.37 -18.36,29.3 -35.4,41.36c35.05,3.42 95.82,9.18 114.06,9.94c0.16,0.01 0.33,0.01 0.51,0.01c18.55,0 91.93,-37.8 120.06,-55.72c-2.94,-0.54 -5.72,-0.98 -7.42,-1.26c-4.35,-0.69 -6.33,-1.02 -7.85,-1.52Z" style="fill:#08000b;fill-rule:nonzero;"/><path d="M2946.85,3087.75c-3.03,36.18 -24.52,88.39 -93.09,112.06c-75.6,26.1 -60.62,85.13 -58.66,91.78c1.25,4.24 0.66,8.85 -1.63,12.63c-2.29,3.77 -6.06,6.45 -10.4,7.29c-0.47,0.1 -50.6,10.46 -65.47,45c-9.25,21.49 -3.29,49.33 17.71,82.75c42.13,67.05 163.74,88.23 258.9,79.54c81.12,-7.42 142.61,-35.03 156.66,-70.35c29.81,-74.92 -15.2,-97.3 -32.15,-105.73c-4.93,-2.45 -13.19,-6.56 -13.19,-16.75c0,-0.31 0.02,-1.09 0.11,-2.29c2.07,-29.1 -0.26,-98.96 -66.4,-119.09c-7.18,-2.19 -11.81,-9.16 -11.03,-16.63c0.82,-8.75 5.08,-82.19 -81.36,-100.21Zm5.31,464.33c-97.02,0 -200.69,-28.11 -243.42,-96.12c-26.87,-42.77 -33.56,-80.46 -19.88,-112.03c15.31,-35.34 52.03,-52.11 72.98,-59.05c-4.05,-35.35 8.95,-89.62 81.68,-114.73c79.19,-27.34 72.25,-95.94 71.92,-98.85c-0.54,-4.73 1.09,-9.5 4.45,-12.89c3.36,-3.38 8.06,-5.08 12.8,-4.59c110.97,11.89 125.48,92.92 126.85,124.66c71.89,28.76 78.64,104.5 77.82,138.56c67.61,36.43 60.73,97.61 42.67,143.01c-18.95,47.61 -87.34,81.25 -182.97,90c-14.62,1.33 -29.68,2.03 -44.9,2.03Z" style="fill:#010101;fill-rule:nonzero;"/><path d="M2931.02,3069.43c0,0 10.5,83.48 -82.38,115.55c-92.89,32.07 -68.56,111.14 -68.56,111.14c0,0 -136.57,26.53 -58.06,151.49c78.51,124.96 402.52,109.48 443.43,6.64c40.92,-102.84 -44.23,-124.96 -44.23,-128.28c0,-3.32 12.16,-109.13 -77.41,-136.39c0,0 11.06,-106.89 -112.79,-120.15Z" style="fill-rule:nonzero;"/><path d="M2671.18,3340.18l0.02,0.02l-0.02,-0.02Zm0.03,0.03l0.02,0.01l-0.02,-0.01Zm0.02,0.01c0.27,0.27 0.53,0.55 0.77,0.83c-0.23,-0.27 -0.49,-0.55 -0.77,-0.83Zm59.58,198.58c-25.9,0 -49.01,-2.06 -59.47,-8.34c-15.63,-9.37 -22.43,-20.59 -26.92,-28.01c-1.39,-2.29 -3.29,-5.42 -4.16,-6.03c-2.36,-0.35 -13.38,-1.01 -24.03,-1.65c-110.99,-6.71 -130.87,-13.14 -134.28,-29.05c-1.57,-7.31 -5.13,-23.94 74.62,-58.3c-11.26,-19.36 -25.06,-48.21 -18.86,-64.89c2.43,-6.52 7.46,-11.18 14.18,-13.13c15.48,-4.5 47.95,-0.4 85.65,4.99c3.81,0.55 7.83,1.12 11.46,1.62c-0.07,-4.38 -0.11,-9.77 -0.15,-16.48c-0.51,-79.09 -1.86,-289.19 -69.72,-429.3c-82.54,-170.45 -190.1,-247.45 -191.18,-248.2c-2.99,-2.11 -4.92,-5.41 -5.27,-9.05c-0.36,-3.63 0.88,-7.24 3.4,-9.89l61.17,-64.16c3.19,-3.34 7.94,-4.67 12.4,-3.44c3,0.82 302.17,84.53 491.47,281.17c168.18,174.7 252.41,410.38 269.51,462.15c38.34,-4.67 59.59,0.91 63.21,16.6c2.26,9.79 2.34,25.45 2.02,36.73c32.9,0.63 67.98,6.01 74.03,25.39c2.99,9.55 5.23,24.44 7.21,37.58c0.76,5.12 1.72,11.48 2.55,15.95c17.56,2.85 25.73,5.11 30.32,11.23c3.04,4.06 3.43,9.43 1.01,14.02c-8.01,15.22 -120.44,73.52 -149,73.52c-0.28,0 -0.54,0 -0.8,-0.02c-26.6,-1.1 -136.15,-12.08 -140.8,-12.54c-6.89,-0.7 -11.92,-6.85 -11.23,-13.75c0.69,-6.89 6.85,-11.85 13.74,-11.23c1.13,0.11 113.46,11.37 139.34,12.45c0.15,0 0.3,0.01 0.46,0.01c15.87,0 76.83,-30.79 108.69,-49.6c-2.48,-0.41 -3.96,-0.72 -5.29,-1.17c-8.98,-2.98 -10.01,-9.8 -13.82,-35.13c-1.68,-11.19 -3.76,-25.02 -6.06,-32.92c-5.94,-5.02 -35.62,-9.1 -63.3,-8.7c-3.49,-0.11 -6.88,-1.37 -9.3,-3.91c-2.42,-2.55 -3.66,-6 -3.42,-9.5c0.73,-10.61 1.2,-29.66 -0.29,-39.92c-7.11,-2.13 -27.65,-1.67 -46.06,1.2c-6.2,0.99 -12.18,-2.79 -13.97,-8.82c-0.8,-2.68 -82.15,-270.37 -266.84,-462.21c-168.31,-174.84 -426.79,-258.41 -472.89,-272.29l-46.25,48.52c30.91,24.99 117.37,103.47 187.84,248.99c70.32,145.22 71.7,359.44 72.22,440.08c0.08,11.5 0.15,22.41 0.46,25.98c1.06,3.16 0.94,6.71 -0.54,9.73c-4.52,9.22 -9.23,8.55 -39.88,4.16c-20.98,-3 -59.02,-8.46 -72.91,-6.2c0.12,8.74 10.99,32.82 24.39,53.45c2.04,3.13 2.57,7.02 1.45,10.59c-1.11,3.57 -3.76,6.46 -7.23,7.87c-28.05,11.45 -54.88,25.22 -67.12,34.03c23.89,5.82 83.47,9.41 105.17,10.73c15.53,0.93 23.14,1.41 26.73,2.01c11.89,1.98 17.17,10.71 21.42,17.73c3.96,6.54 8.06,13.31 18.35,19.48c12.78,7.66 85.28,5.08 145.12,-1.7c6.88,-0.79 13.1,4.17 13.88,11.05c0.78,6.89 -4.17,13.11 -11.06,13.89c-18.6,2.11 -63.04,6.63 -101.37,6.63Z" style="fill:#371a45;fill-rule:nonzero;"/><path d="M2953.58,2995.46l4.69,17.88l17.39,6.27c4.7,1.69 5.42,8.04 1.21,10.74l-15.55,9.99l-0.59,18.47c-0.16,5 -5.97,7.64 -9.84,4.48l-14.3,-11.71l-17.75,5.15c-4.8,1.39 -9.11,-3.32 -7.3,-7.97l6.71,-17.23l-10.38,-15.29c-2.81,-4.13 0.34,-9.69 5.33,-9.4l18.45,1.06l11.34,-14.6c3.06,-3.95 9.32,-2.67 10.59,2.16Z" style="fill:#ffd243;fill-rule:nonzero;"/><path d="M2960.73,3058.81c-0.15,5 -5.97,7.64 -9.84,4.47l-14.3,-11.69l-17.75,5.14c-4.8,1.39 -9.11,-3.32 -7.3,-7.97l2.08,-5.35c1.14,2.62 4.08,4.35 7.24,3.44l17.75,-5.15l14.3,11.7c2.54,2.08 5.93,1.65 8.01,-0.31l-0.19,5.72Z" style="fill:#ffa92c;fill-rule:nonzero;"/><path d="M2931.4,3012.28l-17.87,-1.13l-0.84,-1.23c-0.64,-0.96 -0.93,-1.98 -0.93,-2.99c0.35,-0.06 0.72,-0.1 1.09,-0.1c0.12,0 0.23,0 0.35,0.01l21.4,1.34l-3.2,4.1Z" style="fill:#ffedb4;fill-rule:nonzero;"/><path d="M2972.02,3018.3l-13.75,-4.96l-4.69,-17.88c-0.24,-0.9 -0.65,-1.68 -1.19,-2.32c0.54,0.64 0.95,1.42 1.19,2.33l4.7,17.87l13.74,4.96Zm-30.5,-23.12l1.47,-1.88c0.25,-0.32 0.52,-0.61 0.81,-0.87c-0.29,0.26 -0.56,0.55 -0.81,0.87l-1.46,1.88l-0.01,0Z" style="fill:#afa3b5;fill-rule:nonzero;"/><path d="M2972.32,3024.31c-0.4,-0.28 -0.84,-0.5 -1.33,-0.68l-17.39,-6.27l-4.69,-17.88c-0.76,-2.87 -3.29,-4.49 -5.86,-4.49c-0.51,0 -1.02,0.06 -1.52,0.19l1.46,-1.88c0.25,-0.32 0.52,-0.61 0.81,-0.87c1.14,-0.99 2.54,-1.46 3.92,-1.46c1.76,0 3.51,0.76 4.67,2.17c0.54,0.64 0.95,1.42 1.19,2.32l4.69,17.88l13.75,4.96l3.64,1.31c0.47,0.17 0.9,0.39 1.29,0.65c-0.39,0.93 -1.07,1.76 -2.03,2.38l-2.6,1.67Z" style="fill:#ffedb4;fill-rule:nonzero;"/><path d="M2920.08,3033.84l-12.21,-17.6c-2.26,-3.33 -0.66,-7.58 2.66,-8.94l12.74,18.38l-3.19,8.16Z" style="fill:#ffa92c;fill-rule:nonzero;"/><path d="M2976.87,3030.35l-18.03,11.09l0.28,-8.77l18.81,-11.59c2.52,2.56 2.33,7.1 -1.06,9.27Z" style="fill:#ffa92c;fill-rule:nonzero;"/><path d="M2936.62,3051.41l0.07,0.05l14.3,11.7c1.74,1.43 4.1,1.74 6.15,0.8c2.05,-0.93 3.36,-2.9 3.43,-5.15l0.6,-18.56l0.07,-0.04l15.55,-9.99c1.89,-1.22 2.91,-3.36 2.66,-5.6c-0.25,-2.23 -1.73,-4.1 -3.84,-4.86l-17.47,-6.3l-0.02,-0.08l-4.69,-17.88c-0.58,-2.17 -2.3,-3.8 -4.51,-4.25c-2.2,-0.46 -4.43,0.37 -5.81,2.15l-11.38,14.66l-18.54,-1.06c-2.26,-0.12 -4.33,1 -5.44,2.96c-1.11,1.96 -1.01,4.33 0.25,6.19l10.43,15.36l-0.03,0.08l-6.71,17.22c-0.82,2.1 -0.38,4.43 1.14,6.09c1.51,1.66 3.8,2.31 5.96,1.68l17.83,-5.17Zm18.08,13.4c-1.4,0 -2.77,-0.48 -3.91,-1.4l-14.24,-11.65l-17.67,5.12c-2.28,0.66 -4.69,-0.01 -6.29,-1.76c-1.6,-1.75 -2.06,-4.21 -1.2,-6.42l6.69,-17.15l-10.34,-15.22c-1.33,-1.96 -1.43,-4.46 -0.26,-6.52c1.17,-2.07 3.35,-3.28 5.73,-3.13l18.37,1.06l11.28,-14.54c1.46,-1.87 3.81,-2.74 6.13,-2.26c2.32,0.47 4.14,2.19 4.74,4.49l4.67,17.79l17.31,6.24c2.23,0.81 3.78,2.77 4.05,5.13c0.27,2.35 -0.81,4.61 -2.8,5.89l-15.48,9.95l-0.59,18.39c-0.08,2.37 -1.46,4.45 -3.62,5.43c-0.83,0.38 -1.7,0.56 -2.57,0.56Z" style="fill:#371a45;fill-rule:nonzero;"/><path d="M2936.59,3050.18c0.32,0 0.63,0.11 0.89,0.31l14.3,11.71c1.39,1.14 3.2,1.37 4.84,0.63c1.64,-0.75 2.65,-2.26 2.71,-4.06l0.59,-18.48c0.01,-0.46 0.25,-0.88 0.64,-1.13l15.55,-9.99c1.52,-0.97 2.3,-2.62 2.1,-4.41c-0.2,-1.79 -1.33,-3.22 -3.03,-3.83l-17.39,-6.27c-0.43,-0.15 -0.76,-0.51 -0.88,-0.96l-4.69,-17.88c-0.46,-1.74 -1.78,-2.99 -3.55,-3.35c-1.76,-0.36 -3.47,0.27 -4.57,1.69l-11.34,14.6c-0.28,0.37 -0.73,0.57 -1.19,0.54l-18.45,-1.06c-1.8,-0.1 -3.4,0.77 -4.28,2.34c-0.89,1.56 -0.82,3.38 0.19,4.87l10.38,15.29c0.26,0.39 0.32,0.87 0.15,1.3l-6.71,17.23c-0.65,1.67 -0.32,3.46 0.9,4.79c1.21,1.33 2.96,1.82 4.69,1.32l17.76,-5.15c0.12,-0.03 0.26,-0.05 0.39,-0.05Zm18.11,15.88c-1.68,0 -3.34,-0.57 -4.7,-1.69l-13.73,-11.23l-17.04,4.94c-2.74,0.79 -5.63,-0.02 -7.56,-2.12c-1.92,-2.1 -2.47,-5.06 -1.44,-7.71l6.44,-16.54l-9.96,-14.68c-1.6,-2.36 -1.73,-5.36 -0.32,-7.84c1.41,-2.48 4.04,-3.92 6.89,-3.75l17.72,1.02l10.88,-14.02c1.75,-2.25 4.56,-3.3 7.36,-2.73c2.79,0.58 4.97,2.64 5.7,5.4l4.5,17.16l16.7,6.02c2.68,0.97 4.54,3.32 4.86,6.16c0.32,2.83 -0.97,5.54 -3.37,7.08l-14.93,9.59l-0.56,17.74c-0.09,2.85 -1.76,5.35 -4.36,6.53c-0.99,0.45 -2.04,0.67 -3.08,0.67Z" style="fill:#371a45;fill-rule:nonzero;"/><path d="M2729.43,2755.65l9.5,15.86l18.44,1.17c4.99,0.31 7.45,6.21 4.16,9.97l-12.15,13.93l4.59,17.91c1.24,4.84 -3.6,9 -8.2,7.04l-17,-7.25l-15.61,9.89c-4.22,2.68 -9.67,-0.65 -9.23,-5.62l1.64,-18.41l-14.24,-11.79c-3.84,-3.19 -2.37,-9.4 2.5,-10.52l18.02,-4.12l6.81,-17.19c1.84,-4.64 8.21,-5.16 10.77,-0.87Z" style="fill:#ffd243;fill-rule:nonzero;"/><path d="M2753.97,2814.49c1.25,4.84 -3.61,9 -8.2,7.04l-17,-7.25l-15.61,9.89c-4.22,2.68 -9.67,-0.64 -9.23,-5.62l0.51,-5.71c1.82,2.2 5.12,3.04 7.9,1.28l15.62,-9.9l16.99,7.25c3.02,1.29 6.16,-0.07 7.6,-2.53l1.42,5.55Z" style="fill:#ffa92c;fill-rule:nonzero;"/><path d="M2695.35,2781.88l-1.15,-0.95c-0.88,-0.73 -1.45,-1.64 -1.73,-2.6c0.42,-0.22 0.88,-0.38 1.36,-0.49l20.92,-4.69l-1.92,4.84l-17.48,3.89Z" style="fill:#ffedb4;fill-rule:nonzero;"/><path d="M2753.29,2772.42l-14.36,-0.91l-9.5,-15.86c-0.56,-0.94 -1.31,-1.65 -2.15,-2.14c0.84,0.49 1.59,1.2 2.16,2.14l9.49,15.85l14.36,0.92Zm-35.51,-13.68l0.88,-2.21c0.17,-0.45 0.4,-0.87 0.65,-1.24c-0.25,0.37 -0.47,0.78 -0.65,1.23l-0.88,2.22Z" style="fill:#afa3b5;fill-rule:nonzero;"/><path d="M2755.48,2778.12c-0.46,-0.15 -0.95,-0.24 -1.47,-0.28l-18.45,-1.17l-9.49,-15.86c-1.18,-1.97 -3.17,-2.93 -5.16,-2.93c-1.09,0 -2.18,0.29 -3.13,0.86l0.88,-2.22c0.18,-0.45 0.4,-0.86 0.65,-1.23c1.17,-1.69 3.07,-2.57 4.97,-2.57c1.03,0 2.07,0.26 3,0.79c0.84,0.49 1.59,1.2 2.15,2.14l9.5,15.86l14.36,0.91l4.08,0.26c0.5,0.03 0.97,0.12 1.43,0.26c-0.13,1 -0.54,1.98 -1.29,2.85l-2.03,2.33Z" style="fill:#ffedb4;fill-rule:nonzero;"/><path d="M2707.97,2801.85l-16.64,-13.5c-3.09,-2.57 -2.74,-7.09 0.07,-9.33l17.35,14.09l-0.78,8.74Z" style="fill:#ffa92c;fill-rule:nonzero;"/><path d="M2761.53,2782.65l-14.22,15.68l-2.18,-8.49l14.84,-16.39c3.13,1.76 4.21,6.17 1.56,9.2Z" style="fill:#ffa92c;fill-rule:nonzero;"/><path d="M2728.75,2814.1l0.08,0.03l17,7.25c2.07,0.88 4.42,0.52 6.13,-0.94c1.71,-1.47 2.42,-3.73 1.86,-5.91l-4.61,-17.99l0.06,-0.06l12.14,-13.93c1.48,-1.7 1.86,-4.04 1,-6.12c-0.87,-2.07 -2.8,-3.45 -5.05,-3.6l-18.53,-1.17l-0.04,-0.07l-9.49,-15.86c-1.16,-1.93 -3.27,-3.02 -5.51,-2.83c-2.25,0.18 -4.15,1.59 -4.98,3.68l-6.85,17.26l-18.09,4.15c-2.21,0.51 -3.88,2.17 -4.4,4.36c-0.52,2.19 0.23,4.44 1.96,5.88l14.3,11.84l0,0.08l-1.64,18.41c-0.2,2.25 0.87,4.36 2.79,5.54c1.92,1.17 4.29,1.15 6.19,-0.06l15.68,-9.94Zm21.1,7.83c-1.34,0.39 -2.8,0.32 -4.14,-0.26l-16.93,-7.21l-15.54,9.85c-2,1.27 -4.5,1.29 -6.53,0.06c-2.02,-1.24 -3.15,-3.47 -2.94,-5.83l1.63,-18.33l-14.17,-11.74c-1.82,-1.51 -2.62,-3.88 -2.07,-6.19c0.55,-2.31 2.31,-4.08 4.64,-4.6l17.93,-4.11l6.78,-17.1c0.88,-2.21 2.89,-3.7 5.25,-3.89c2.37,-0.19 4.59,0.95 5.81,2.99l9.45,15.79l18.36,1.16c2.37,0.15 4.41,1.6 5.32,3.79c0.91,2.19 0.51,4.66 -1.05,6.45l-12.09,13.86l4.57,17.83c0.58,2.3 -0.17,4.68 -1.97,6.23c-0.69,0.59 -1.48,1.01 -2.31,1.25Z" style="fill:#371a45;fill-rule:nonzero;"/><path d="M2728.38,2812.93c0.31,-0.09 0.64,-0.07 0.94,0.06l17,7.25c1.66,0.7 3.46,0.42 4.82,-0.75c1.37,-1.17 1.92,-2.91 1.47,-4.65l-4.59,-17.91c-0.11,-0.45 0,-0.92 0.31,-1.27l12.14,-13.93c1.19,-1.36 1.48,-3.16 0.79,-4.82c-0.7,-1.66 -2.18,-2.72 -3.98,-2.83l-18.44,-1.17c-0.46,-0.03 -0.88,-0.28 -1.12,-0.68l-9.49,-15.86c-0.93,-1.54 -2.55,-2.38 -4.34,-2.23c-1.79,0.15 -3.26,1.23 -3.92,2.9l-6.82,17.18c-0.17,0.43 -0.54,0.75 -0.99,0.86l-18.01,4.12c-1.76,0.41 -3.05,1.69 -3.47,3.44c-0.41,1.75 0.16,3.48 1.55,4.63l14.24,11.79c0.35,0.29 0.54,0.74 0.5,1.2l-1.64,18.41c-0.16,1.8 0.66,3.42 2.2,4.36c1.53,0.94 3.35,0.92 4.88,-0.04l15.61,-9.9c0.11,-0.07 0.23,-0.12 0.36,-0.16Zm21.82,10.2c-1.61,0.47 -3.36,0.38 -4.98,-0.31l-16.32,-6.96l-14.99,9.5c-2.41,1.53 -5.41,1.55 -7.85,0.07c-2.43,-1.48 -3.78,-4.17 -3.53,-7l1.57,-17.68l-13.66,-11.32c-2.2,-1.81 -3.15,-4.67 -2.49,-7.44c0.66,-2.77 2.78,-4.89 5.57,-5.52l17.29,-3.97l6.54,-16.49c1.05,-2.65 3.47,-4.44 6.31,-4.67c2.84,-0.23 5.51,1.14 6.98,3.59l9.11,15.22l17.71,1.12c2.85,0.19 5.29,1.93 6.39,4.56c1.1,2.63 0.62,5.6 -1.26,7.75l-11.66,13.37l4.4,17.19c0.71,2.76 -0.19,5.63 -2.36,7.48c-0.82,0.71 -1.77,1.22 -2.77,1.51Z" style="fill:#371a45;fill-rule:nonzero;"/><path d="M2748.48,3148.65l9.49,15.86l18.45,1.17c4.98,0.32 7.44,6.21 4.16,9.98l-12.15,13.93l4.59,17.9c1.24,4.84 -3.61,9 -8.2,7.04l-17,-7.25l-15.62,9.9c-4.21,2.67 -9.67,-0.65 -9.23,-5.63l1.65,-18.41l-14.24,-11.79c-3.85,-3.18 -2.37,-9.39 2.5,-10.51l18.01,-4.13l6.82,-17.18c1.84,-4.65 8.2,-5.16 10.77,-0.88Z" style="fill:#ffd243;fill-rule:nonzero;"/><path d="M2773.02,3207.49c1.24,4.84 -3.61,9 -8.2,7.04l-17,-7.24l-15.61,9.89c-4.22,2.67 -9.67,-0.65 -9.24,-5.62l0.51,-5.72c1.82,2.2 5.13,3.04 7.91,1.28l15.61,-9.89l17,7.24c3.02,1.29 6.16,-0.06 7.6,-2.53l1.42,5.55Z" style="fill:#ffa92c;fill-rule:nonzero;"/><path d="M2714.4,3174.89l-1.15,-0.96c-0.88,-0.73 -1.45,-1.63 -1.73,-2.6c0.42,-0.21 0.87,-0.38 1.36,-0.49l20.92,-4.68l-1.92,4.83l-17.48,3.9Z" style="fill:#ffedb4;fill-rule:nonzero;"/><path d="M2768.91,3165.21l-10.94,-0.7l-9.49,-15.86c-0.39,-0.64 -0.86,-1.18 -1.4,-1.61c0.54,0.43 1.01,0.97 1.4,1.62l9.5,15.85l10.93,0.7Zm-32.09,-13.46l0.88,-2.22c0.21,-0.53 0.48,-1 0.8,-1.42c-0.32,0.42 -0.58,0.89 -0.79,1.42l-0.88,2.22l-0.01,0Z" style="fill:#afa3b5;fill-rule:nonzero;"/><path d="M2774.52,3171.13c-0.45,-0.16 -0.94,-0.25 -1.47,-0.29l-18.44,-1.16l-9.5,-15.86c-1.18,-1.98 -3.17,-2.93 -5.15,-2.93c-1.09,0 -2.18,0.29 -3.13,0.86l0.88,-2.22c0.21,-0.53 0.47,-1 0.79,-1.42c1.17,-1.57 2.99,-2.39 4.82,-2.39c1.34,0 2.67,0.44 3.76,1.32c0.54,0.43 1.01,0.97 1.4,1.61l9.49,15.86l10.94,0.7l7.51,0.47c0.5,0.03 0.97,0.13 1.42,0.27c-0.12,1 -0.54,1.98 -1.29,2.85l-2.03,2.33Z" style="fill:#ffedb4;fill-rule:nonzero;"/><path d="M2727.02,3194.85l-16.64,-13.5c-3.1,-2.56 -2.74,-7.09 0.06,-9.33l17.36,14.1l-0.78,8.73Z" style="fill:#ffa92c;fill-rule:nonzero;"/><path d="M2780.58,3175.66l-14.22,15.67l-2.18,-8.49l14.83,-16.38c3.13,1.75 4.21,6.17 1.57,9.2Z" style="fill:#ffa92c;fill-rule:nonzero;"/><path d="M2747.8,3207.11l0.08,0.03l17,7.25c2.07,0.88 4.42,0.52 6.12,-0.95c1.71,-1.46 2.43,-3.73 1.87,-5.91l-4.61,-17.98l0.05,-0.07l12.15,-13.93c1.48,-1.69 1.86,-4.04 0.99,-6.11c-0.86,-2.08 -2.79,-3.46 -5.04,-3.6l-18.53,-1.18l-0.04,-0.07l-9.5,-15.86c-1.15,-1.93 -3.26,-3.01 -5.51,-2.83c-2.24,0.18 -4.15,1.59 -4.98,3.69l-6.84,17.26l-18.1,4.14c-2.2,0.52 -3.88,2.18 -4.4,4.37c-0.52,2.19 0.24,4.44 1.97,5.87l14.3,11.85l-0.01,0.08l-1.64,18.41c-0.2,2.24 0.87,4.36 2.79,5.53c1.92,1.17 4.3,1.15 6.2,-0.05l15.68,-9.94Zm21.1,7.83c-1.34,0.39 -2.8,0.31 -4.14,-0.26l-16.93,-7.22l-15.54,9.85c-2.01,1.27 -4.51,1.29 -6.53,0.06c-2.03,-1.23 -3.15,-3.47 -2.94,-5.83l1.63,-18.33l-14.17,-11.73c-1.83,-1.52 -2.62,-3.89 -2.07,-6.2c0.54,-2.3 2.31,-4.08 4.63,-4.59l17.94,-4.11l6.78,-17.11c0.87,-2.2 2.89,-3.69 5.25,-3.88c2.36,-0.2 4.59,0.95 5.8,2.98l9.46,15.79l18.36,1.16c2.37,0.15 4.4,1.61 5.32,3.8c0.91,2.18 0.51,4.65 -1.05,6.44l-12.1,13.87l4.57,17.82c0.59,2.3 -0.16,4.69 -1.96,6.23c-0.69,0.59 -1.48,1.01 -2.31,1.26Z" style="fill:#371a45;fill-rule:nonzero;"/><path d="M2747.42,3205.93c0.31,-0.09 0.64,-0.07 0.95,0.06l17,7.25c1.65,0.71 3.46,0.43 4.82,-0.74c1.37,-1.18 1.91,-2.92 1.47,-4.66l-4.59,-17.9c-0.12,-0.45 0,-0.93 0.3,-1.28l12.15,-13.93c1.18,-1.35 1.48,-3.15 0.78,-4.81c-0.69,-1.66 -2.17,-2.72 -3.97,-2.84l-18.45,-1.16c-0.46,-0.03 -0.88,-0.29 -1.11,-0.69l-9.5,-15.85c-0.92,-1.55 -2.54,-2.38 -4.34,-2.24c-1.79,0.15 -3.26,1.23 -3.92,2.91l-6.81,17.18c-0.17,0.43 -0.55,0.74 -0.99,0.85l-18.02,4.13c-1.76,0.4 -3.05,1.69 -3.46,3.44c-0.42,1.75 0.16,3.48 1.55,4.62l14.23,11.79c0.36,0.3 0.55,0.75 0.51,1.21l-1.65,18.41c-0.15,1.79 0.67,3.42 2.2,4.36c1.54,0.93 3.36,0.92 4.88,-0.05l15.61,-9.89c0.12,-0.08 0.24,-0.13 0.36,-0.17Zm21.82,10.21c-1.61,0.46 -3.36,0.37 -4.97,-0.32l-16.33,-6.96l-14.98,9.51c-2.41,1.52 -5.42,1.55 -7.85,0.07c-2.43,-1.49 -3.79,-4.17 -3.53,-7.01l1.57,-17.67l-13.67,-11.32c-2.19,-1.82 -3.15,-4.67 -2.49,-7.44c0.66,-2.78 2.79,-4.89 5.57,-5.53l17.3,-3.96l6.54,-16.5c1.05,-2.65 3.46,-4.44 6.31,-4.67c2.84,-0.23 5.51,1.15 6.97,3.59l9.12,15.23l17.71,1.12c2.84,0.18 5.29,1.93 6.39,4.56c1.09,2.63 0.61,5.59 -1.26,7.74l-11.66,13.37l4.4,17.19c0.71,2.76 -0.2,5.63 -2.36,7.49c-0.83,0.71 -1.77,1.22 -2.78,1.51Z" style="fill:#371a45;fill-rule:nonzero;"/><path d="M3120.87,3318.63l3.4,18.17l16.9,7.49c4.57,2.03 4.83,8.41 0.44,10.8l-16.23,8.85l-1.9,18.39c-0.52,4.97 -6.51,7.19 -10.14,3.75l-13.43,-12.69l-18.07,3.86c-4.89,1.05 -8.85,-3.96 -6.71,-8.47l7.93,-16.7l-9.27,-16c-2.5,-4.32 1.04,-9.64 5.99,-8.99l18.33,2.37l12.35,-13.75c3.34,-3.71 9.49,-1.99 10.41,2.92Z" style="fill:#ffd243;fill-rule:nonzero;"/><path d="M3123.48,3382.33c-0.52,4.97 -6.51,7.18 -10.14,3.75l-13.43,-12.69l-18.07,3.86c-4.89,1.05 -8.85,-3.96 -6.71,-8.47l2.46,-5.19c0.94,2.7 3.75,4.63 6.97,3.95l18.08,-3.86l13.42,12.69c2.39,2.25 5.8,2.07 8.01,0.26l-0.59,5.7Z" style="fill:#ffa92c;fill-rule:nonzero;"/><path d="M3097.55,3333.82l-17.74,-2.41l-0.75,-1.29c-0.57,-1 -0.8,-2.04 -0.72,-3.04c0.22,-0.03 0.44,-0.04 0.67,-0.04c0.26,0 0.51,0.01 0.78,0.05l21.24,2.86l-3.48,3.87Z" style="fill:#ffedb4;fill-rule:nonzero;"/><path d="M3122.44,3326.99l-0.96,-5.11l0,-0.01l0.96,5.12Z" style="fill:#afa3b5;fill-rule:nonzero;"/><path d="M3136.76,3342.34l-12.49,-5.54l-1.83,-9.81l1.84,9.8l12.48,5.55Zm-15.28,-20.46l-0.61,-3.25c-0.21,-1.14 -0.7,-2.1 -1.38,-2.87c0.68,0.77 1.17,1.73 1.38,2.87l0.61,3.24l0,0.01Zm-12.61,-4.39l1.59,-1.78c0.32,-0.35 0.66,-0.65 1.01,-0.9c-0.35,0.25 -0.69,0.55 -1.01,0.9l-1.59,1.78Z" style="fill:#afa3b5;fill-rule:nonzero;"/><path d="M3137.5,3348.74c-0.37,-0.3 -0.8,-0.56 -1.28,-0.77l-16.89,-7.5l-3.41,-18.17c-0.57,-3.09 -3.23,-4.91 -5.95,-4.91c-0.37,0 -0.74,0.03 -1.1,0.1l1.59,-1.78c0.32,-0.35 0.66,-0.65 1.01,-0.9c1.05,-0.75 2.25,-1.1 3.45,-1.1c1.72,0 3.41,0.73 4.57,2.05c0.68,0.77 1.17,1.73 1.38,2.87l0.61,3.25l0.96,5.11l1.83,9.81l12.49,5.54l4.41,1.95c0.45,0.2 0.87,0.45 1.24,0.75c-0.46,0.89 -1.19,1.67 -2.2,2.22l-2.71,1.48Z" style="fill:#ffedb4;fill-rule:nonzero;"/><path d="M3084.72,3354.51l-10.93,-18.43c-2.01,-3.48 -0.11,-7.6 3.3,-8.73l11.39,19.24l-3.76,7.92Z" style="fill:#ffa92c;fill-rule:nonzero;"/><path d="M3141.61,3355.09l-18.77,9.77l0.9,-8.72l19.59,-10.22c2.33,2.73 1.81,7.24 -1.72,9.17Z" style="fill:#ffa92c;fill-rule:nonzero;"/><path d="M3099.96,3373.22l0.06,0.05l13.43,12.7c1.63,1.54 3.96,2.02 6.07,1.24c2.11,-0.78 3.57,-2.66 3.8,-4.9l1.92,-18.47l0.07,-0.04l16.23,-8.85c1.97,-1.07 3.14,-3.14 3.05,-5.39c-0.09,-2.25 -1.43,-4.21 -3.48,-5.12l-16.98,-7.53l-0.01,-0.09l-3.4,-18.16c-0.42,-2.21 -2.02,-3.96 -4.19,-4.57c-2.16,-0.61 -4.44,0.05 -5.95,1.73l-12.4,13.81l-18.42,-2.39c-2.24,-0.28 -4.39,0.7 -5.63,2.57c-1.25,1.87 -1.33,4.25 -0.2,6.19l9.3,16.07l-0.03,0.07l-7.93,16.7c-0.96,2.04 -0.69,4.39 0.7,6.16c1.4,1.76 3.63,2.57 5.83,2.1l18.16,-3.88Zm17.07,14.66c-1.39,-0.1 -2.73,-0.68 -3.8,-1.68l-13.37,-12.64l-17.99,3.85c-2.32,0.49 -4.67,-0.36 -6.15,-2.21c-1.47,-1.86 -1.75,-4.35 -0.73,-6.49l7.89,-16.63l-9.22,-15.92c-1.19,-2.05 -1.11,-4.55 0.2,-6.53c1.32,-1.97 3.59,-3.02 5.94,-2.7l18.25,2.37l12.3,-13.69c1.58,-1.77 3.99,-2.46 6.27,-1.83c2.28,0.64 3.97,2.49 4.41,4.82l3.38,18.09l16.82,7.46c2.17,0.96 3.58,3.03 3.67,5.4c0.1,2.37 -1.13,4.54 -3.21,5.68l-16.16,8.81l-1.9,18.3c-0.24,2.36 -1.78,4.34 -4,5.16c-0.85,0.32 -1.74,0.44 -2.6,0.38Z" style="fill:#371a45;fill-rule:nonzero;"/><path d="M3100.01,3371.98c0.32,0.03 0.63,0.16 0.87,0.39l13.43,12.69c1.3,1.24 3.09,1.6 4.78,0.98c1.68,-0.63 2.8,-2.07 2.99,-3.86l1.91,-18.38c0.04,-0.46 0.32,-0.87 0.72,-1.09l16.23,-8.85c1.58,-0.86 2.48,-2.45 2.4,-4.25c-0.07,-1.8 -1.1,-3.3 -2.74,-4.03l-16.9,-7.5c-0.42,-0.19 -0.72,-0.57 -0.81,-1.03l-3.4,-18.16c-0.33,-1.77 -1.56,-3.12 -3.29,-3.6c-1.74,-0.49 -3.49,0.02 -4.69,1.36l-12.35,13.75c-0.31,0.35 -0.77,0.51 -1.23,0.46l-18.33,-2.38c-1.78,-0.23 -3.44,0.52 -4.44,2.02c-0.99,1.5 -1.05,3.32 -0.15,4.88l9.26,15.99c0.23,0.4 0.25,0.89 0.06,1.31l-7.93,16.7c-0.77,1.62 -0.56,3.44 0.55,4.85c1.12,1.41 2.83,2.02 4.59,1.65l18.08,-3.87c0.13,-0.03 0.26,-0.03 0.39,-0.03Zm16.93,17.14c-1.68,-0.12 -3.29,-0.81 -4.56,-2.02l-12.9,-12.18l-17.35,3.71c-2.79,0.59 -5.62,-0.43 -7.38,-2.66c-1.77,-2.24 -2.11,-5.22 -0.89,-7.8l7.61,-16.03l-8.89,-15.35c-1.43,-2.47 -1.34,-5.48 0.24,-7.85c1.58,-2.37 4.31,-3.61 7.15,-3.25l17.59,2.29l11.86,-13.21c1.9,-2.12 4.79,-2.96 7.53,-2.19c2.75,0.77 4.78,2.99 5.3,5.79l3.27,17.44l16.22,7.2c2.6,1.15 4.3,3.64 4.41,6.49c0.12,2.84 -1.36,5.46 -3.87,6.82l-15.57,8.5l-1.84,17.65c-0.29,2.84 -2.13,5.21 -4.81,6.2c-1.02,0.38 -2.08,0.53 -3.12,0.45Z" style="fill:#371a45;fill-rule:nonzero;"/><path d="M2929.65,3386.77l6.44,17.33l17.92,4.51c4.85,1.22 6.19,7.47 2.27,10.57l-14.48,11.48l1.24,18.44c0.34,4.98 -5.18,8.19 -9.35,5.43l-15.39,-10.23l-17.15,6.88c-4.64,1.86 -9.4,-2.4 -8.05,-7.22l4.97,-17.8l-11.85,-14.19c-3.2,-3.83 -0.61,-9.67 4.38,-9.88l18.46,-0.77l9.84,-15.65c2.65,-4.23 9.01,-3.58 10.75,1.1Z" style="fill:#ffd243;fill-rule:nonzero;"/><path d="M2943.04,3449.1c0.34,4.98 -5.19,8.19 -9.35,5.42l-15.39,-10.22l-17.15,6.88c-4.64,1.86 -9.39,-2.4 -8.05,-7.21l1.54,-5.53c1.39,2.49 4.49,3.92 7.54,2.7l17.15,-6.88l15.39,10.23c2.74,1.82 6.07,1.05 7.94,-1.11l0.38,5.72Z" style="fill:#ffa92c;fill-rule:nonzero;"/><path d="M2891.35,3406.35l-0.96,-1.15c-0.73,-0.88 -1.12,-1.87 -1.22,-2.87c0.45,-0.14 0.93,-0.22 1.43,-0.24l21.42,-0.79l-2.77,4.41l-17.9,0.64Z" style="fill:#ffedb4;fill-rule:nonzero;"/><path d="M2951.17,3407.89l-15.08,-3.79l-6.44,-17.33c-0.31,-0.82 -0.76,-1.52 -1.3,-2.09c0.54,0.57 0.99,1.27 1.3,2.09l6.44,17.32l15.08,3.8Zm-33.55,-20.2l1.27,-2.02c0.23,-0.36 0.49,-0.69 0.76,-0.98c-0.27,0.29 -0.53,0.61 -0.75,0.98l-1.27,2.02l-0.01,0Z" style="fill:#afa3b5;fill-rule:nonzero;"/><path d="M2951.16,3413.62c-0.43,-0.24 -0.89,-0.42 -1.4,-0.55l-17.92,-4.51l-6.44,-17.33c-0.96,-2.56 -3.3,-3.92 -5.67,-3.92c-0.71,0 -1.42,0.12 -2.1,0.38l1.27,-2.02c0.22,-0.37 0.48,-0.69 0.75,-0.98c1.18,-1.24 2.76,-1.84 4.33,-1.84c1.61,0 3.21,0.62 4.37,1.83c0.54,0.57 0.99,1.27 1.3,2.09l6.44,17.33l15.08,3.79l2.84,0.72c0.48,0.12 0.94,0.3 1.35,0.52c-0.3,0.96 -0.89,1.85 -1.78,2.57l-2.42,1.92Z" style="fill:#ffedb4;fill-rule:nonzero;"/><path d="M2900.12,3428.28l-13.9,-16.31c-2.57,-3.08 -1.4,-7.47 1.77,-9.16l14.49,17.03l-2.36,8.44Z" style="fill:#ffa92c;fill-rule:nonzero;"/><path d="M2956.28,3419.18l-16.84,12.82l-0.59,-8.75l17.57,-13.4c2.76,2.29 3.01,6.83 -0.14,9.33Z" style="fill:#ffa92c;fill-rule:nonzero;"/><path d="M2918.32,3444.12l0.07,0.04l15.39,10.23c1.88,1.25 4.25,1.32 6.2,0.19c1.94,-1.13 3.06,-3.22 2.91,-5.47l-1.26,-18.52l0.07,-0.06l14.49,-11.48c1.76,-1.39 2.56,-3.63 2.09,-5.83c-0.47,-2.2 -2.12,-3.91 -4.31,-4.46l-18,-4.53l-0.03,-0.08l-6.44,-17.32c-0.78,-2.11 -2.66,-3.57 -4.9,-3.8c-2.24,-0.23 -4.37,0.81 -5.57,2.72l-9.88,15.72l-18.55,0.78c-2.26,0.1 -4.21,1.43 -5.12,3.49c-0.91,2.05 -0.58,4.41 0.86,6.13l11.9,14.26l-0.02,0.07l-4.97,17.81c-0.61,2.16 0.06,4.44 1.73,5.95c1.68,1.5 4.02,1.91 6.11,1.07l17.23,-6.91Zm19.31,11.55c-1.39,0.13 -2.8,-0.2 -4.02,-1.01l-15.33,-10.19l-17.08,6.85c-2.2,0.89 -4.66,0.45 -6.43,-1.13c-1.76,-1.58 -2.46,-3.98 -1.82,-6.27l4.94,-17.72l-11.79,-14.12c-1.52,-1.82 -1.87,-4.3 -0.91,-6.47c0.96,-2.17 3.02,-3.59 5.4,-3.68l18.38,-0.77l9.79,-15.58c1.26,-2.01 3.52,-3.1 5.87,-2.86c2.36,0.24 4.34,1.77 5.16,4l6.42,17.24l17.84,4.5c2.3,0.58 4.04,2.38 4.54,4.7c0.5,2.31 -0.35,4.67 -2.21,6.14l-14.42,11.43l1.24,18.36c0.16,2.37 -1.02,4.57 -3.07,5.76c-0.78,0.46 -1.63,0.73 -2.5,0.82Z" style="fill:#371a45;fill-rule:nonzero;"/><path d="M2918.16,3442.9c0.32,-0.03 0.64,0.04 0.92,0.23l15.39,10.22c1.5,1 3.32,1.06 4.88,0.15c1.56,-0.9 2.41,-2.51 2.29,-4.31l-1.24,-18.44c-0.04,-0.46 0.16,-0.91 0.52,-1.19l14.49,-11.48c1.41,-1.12 2.03,-2.84 1.65,-4.6c-0.38,-1.75 -1.65,-3.07 -3.39,-3.51l-17.92,-4.51c-0.45,-0.11 -0.82,-0.44 -0.98,-0.87l-6.44,-17.33c-0.63,-1.68 -2.07,-2.8 -3.86,-2.98c-1.79,-0.19 -3.43,0.61 -4.38,2.13l-9.84,15.66c-0.24,0.39 -0.67,0.63 -1.13,0.65l-18.46,0.78c-1.81,0.07 -3.31,1.1 -4.04,2.74c-0.73,1.65 -0.47,3.45 0.68,4.83l11.85,14.19c0.29,0.36 0.4,0.84 0.27,1.28l-4.97,17.8c-0.48,1.73 0.03,3.49 1.37,4.69c1.34,1.2 3.13,1.51 4.8,0.84l17.16,-6.88c0.12,-0.05 0.25,-0.08 0.38,-0.09Zm19.59,14.01c-1.67,0.17 -3.37,-0.24 -4.83,-1.21l-14.78,-9.82l-16.47,6.6c-2.65,1.06 -5.61,0.54 -7.73,-1.36c-2.12,-1.9 -2.96,-4.79 -2.2,-7.53l4.78,-17.09l-11.38,-13.62c-1.82,-2.19 -2.24,-5.17 -1.09,-7.78c1.16,-2.6 3.63,-4.29 6.49,-4.41l17.73,-0.74l9.44,-15.03c1.51,-2.41 4.21,-3.73 7.05,-3.44c2.83,0.29 5.21,2.13 6.2,4.8l6.19,16.63l17.21,4.34c2.76,0.69 4.85,2.86 5.45,5.64c0.6,2.79 -0.42,5.62 -2.65,7.39l-13.91,11.02l1.19,17.7c0.2,2.85 -1.22,5.5 -3.68,6.93c-0.94,0.55 -1.97,0.88 -3.01,0.98Z" style="fill:#371a45;fill-rule:nonzero;"/><path d="M2619.07,2710.21c0,6.19 -5.02,11.21 -11.21,11.21c-6.2,0 -11.22,-5.02 -11.22,-11.21c0,-6.2 5.02,-11.22 11.22,-11.22c6.19,0 11.21,5.02 11.21,11.22Z" style="fill:#fff;fill-rule:nonzero;"/><path d="M2854.99,2857.94c0,4.93 -3.99,8.92 -8.92,8.92c-4.93,0 -8.92,-3.99 -8.92,-8.92c0,-4.93 3.99,-8.92 8.92,-8.92c4.93,0 8.92,3.99 8.92,8.92Z" style="fill:#fff;fill-rule:nonzero;"/><path d="M2820.61,2953.41c0,5.99 -4.86,10.86 -10.86,10.86c-6,0 -10.86,-4.87 -10.86,-10.86c0,-6 4.86,-10.86 10.86,-10.86c6,0 10.86,4.86 10.86,10.86Z" style="fill:#fff;fill-rule:nonzero;"/><path d="M2669.28,2908.9c0,5.01 -4.07,9.08 -9.08,9.08c-5.01,0 -9.08,-4.07 -9.08,-9.08c0,-5.02 4.07,-9.08 9.08,-9.08c5.01,0 9.08,4.06 9.08,9.08Z" style="fill:#fff;fill-rule:nonzero;"/><path d="M2861.35,3144.32c0,6.08 -4.93,11.01 -11.01,11.01c-6.08,0 -11.01,-4.93 -11.01,-11.01c0,-6.08 4.93,-11.01 11.01,-11.01c6.08,0 11.01,4.93 11.01,11.01Z" style="fill:#fff;fill-rule:nonzero;"/><path d="M2988.94,3183.44c0,4.36 -3.53,7.89 -7.89,7.89c-4.36,0 -7.9,-3.53 -7.9,-7.89c0,-4.36 3.54,-7.9 7.9,-7.9c4.36,0 7.89,3.54 7.89,7.9Z" style="fill:#fff;fill-rule:nonzero;"/><path d="M2847.65,3330.43c0,5.8 -4.7,10.5 -10.5,10.5c-5.8,0 -10.5,-4.7 -10.5,-10.5c0,-5.8 4.7,-10.51 10.5,-10.51c5.8,0 10.5,4.71 10.5,10.51Z" style="fill:#fff;fill-rule:nonzero;"/><path d="M2743.19,3398.23c0,8.5 -6.89,15.39 -15.39,15.39c-8.5,0 -15.39,-6.89 -15.39,-15.39c0,-8.49 6.89,-15.38 15.39,-15.38c8.5,0 15.39,6.89 15.39,15.38Z" style="fill:#fff;fill-rule:nonzero;"/><path d="M3035.15,3290.25c0,2.36 -1.92,4.27 -4.28,4.27c-2.36,0 -4.27,-1.91 -4.27,-4.27c0,-2.36 1.91,-4.27 4.27,-4.27c2.36,0 4.28,1.91 4.28,4.27Z" style="fill:#fff;fill-rule:nonzero;"/><path d="M3112.21,3178.9c0,-1.86 -1.5,-3.36 -3.35,-3.36c-1.85,0 -3.35,1.5 -3.35,3.36c0,1.85 1.5,3.35 3.35,3.35c1.85,0 3.35,-1.5 3.35,-3.35Z" style="fill:#fff;fill-rule:nonzero;"/><path d="M3202.74,3420.92c0,4.07 -3.3,7.36 -7.36,7.36c-4.06,0 -7.36,-3.29 -7.36,-7.36c0,-4.06 3.3,-7.36 7.36,-7.36c4.06,0 7.36,3.3 7.36,7.36Z" style="fill:#fff;fill-rule:nonzero;"/><path d="M2764.43,3046.89c0,1.55 -1.25,2.8 -2.8,2.8c-1.55,0 -2.81,-1.25 -2.81,-2.8c0,-1.55 1.26,-2.81 2.81,-2.81c1.55,0 2.8,1.26 2.8,2.81Z" style="fill:#fff;fill-rule:nonzero;"/><path d="M2386.65,2705.05c0,0 57.18,-28.28 130.83,-72.33c14.37,-8.69 29.39,-17.9 44.75,-27.61c2.46,-1.48 4.87,-3.05 7.28,-4.61c7.31,-4.69 14.74,-9.48 22.17,-14.39c106.7,-70.5 219.42,-161.91 241.02,-244.36c35.26,-134.75 -182.3,-592.2 -347.92,-732.81c-43.64,-37.09 -124.95,-35.43 -210.93,-18.31c-0.57,0.09 -1.17,0.26 -1.74,0.36c-63.08,12.66 -128.54,33.61 -183.26,53.62c-4.86,1.75 -9.65,3.52 -14.28,5.28c-9.36,3.5 -18.25,6.96 -26.75,10.28c-6.59,2.61 -12.95,5.11 -18.99,7.58c-43.13,17.43 -70.83,30.52 -70.83,30.52l41.61,97.78l21.23,49.84l39.309,92.45l11.911,27.97l314.59,738.74Z" style="fill:#fff;fill-rule:nonzero;"/><path d="M2536.76,2598.92c67.69,-166.66 -36.34,-342.49 -60.86,-380.28c-0.05,-0.08 -0.1,-0.16 -0.15,-0.24c-68.48,58.24 -146.51,99.93 -220.62,129.67l-6.29,-14.78c74.99,-30.05 154.03,-72.55 222.62,-132.45c1.48,-2.14 6.14,-9.52 9.43,-21.3l0.07,-0.23c2.41,-8.75 4.04,-19.88 3,-33.05c4.24,14.98 10.14,34.11 17.7,54.61c7.17,19.44 15.84,40.11 25.99,59.66c21.89,42.13 50.71,79.03 86.43,87.05c8.15,1.83 16.46,2.71 24.79,2.71c22.81,0 45.82,-6.53 66.25,-17.77c0.03,-0.02 0.05,-0.03 0.08,-0.05c0.06,-0.03 0.12,-0.06 0.18,-0.1c26.35,-14.56 48.38,-36.97 60.15,-63.32c5.64,-12.67 7.76,-28.08 7.3,-45.09l0,-0.07c0,-0.04 -0.01,-0.07 -0.01,-0.1l0,-0.25c-1.71,-58.35 -33.54,-135.28 -56.98,-184.43c-14.78,-55.32 -38.3,-118.93 -67.32,-184.06c23.72,40.97 46.85,84.91 68.55,130.58c74.18,156.16 112.42,294.09 97.4,351.38c-23.17,88.43 -162.63,190.64 -277.71,261.91Zm-344.67,-398.89l-6.59,-15.47c103.44,-55.09 153.38,-118.449 165.25,-135.02c-66.44,-104.99 -201.03,-229.65 -263.331,-284.71c25.341,-8.66 42.871,-14.08 47.511,-14.08c0.38,0 0.68,0.04 0.88,0.12c195.04,72.24 302.75,225.63 367.75,348.01l-4.07,2.35c-10.72,6.19 -17.29,17.24 -17.97,29.09c-2.17,-9.57 -5.77,-19.94 -11.32,-31.03c-18.71,-37.419 -54.56,-44.74 -79.76,-44.74c-11.38,0 -20.58,1.49 -25.05,2.38c-10.39,15.34 -61.21,84.13 -173.3,143.1Z" style="fill:#c3bac7;fill-rule:nonzero;"/><path d="M1982.46,1707.71l413.61,971.37c77.45,-40.4 383.07,-207.24 418.4,-342.07c15.02,-57.29 -23.22,-195.22 -97.4,-351.38c-76.02,-160.02 -169.7,-298.88 -244.47,-362.39c-86.73,-73.66 -368.75,29.82 -490.14,84.47Zm394.69,1023.05l-443.61,-1041.82l16.41,-7.72c1.03,-0.49 104.28,-48.85 220.95,-83.95c161.36,-48.53 271.07,-49.45 326.08,-2.73c172.69,146.68 390.99,610.53 353.92,752.01c-44.63,170.28 -439.12,367.08 -455.88,375.37l-17.87,8.84Z" style="fill:#371a45;fill-rule:nonzero;"/><path d="M2658.52,2009.44l-159.03,91.79c-14.19,8.19 -21.1,24.91 -16.73,40.71c15.98,57.86 59.83,189.58 131.32,205.64c59.34,13.34 127.19,-24.23 151.43,-78.51c27.11,-60.71 -26.99,-184.57 -56.72,-244.46c-9.25,-18.62 -32.26,-25.56 -50.27,-15.17Z" style="fill:#fff;fill-rule:nonzero;"/><path d="M2705.12,2332.52c0.03,-0.02 0.05,-0.03 0.08,-0.05c-0.03,0.02 -0.05,0.03 -0.08,0.05Zm0.26,-0.15c26.34,-14.56 48.37,-36.96 60.13,-63.3c5.66,-12.67 7.78,-28.09 7.32,-45.11c0.46,17.01 -1.66,32.42 -7.3,45.09c-11.77,26.35 -33.8,48.76 -60.15,63.32Zm-177.73,-71.84c-10.15,-19.55 -18.82,-40.22 -25.99,-59.66c7.17,19.44 15.84,40.11 25.99,59.66Zm245.18,-36.64c0,-0.03 -0.01,-0.07 -0.01,-0.1c0,0.03 0.01,0.06 0.01,0.1Zm-0.01,-0.3l0,-0.05l0,0.05Z" style="fill:#998aa0;fill-rule:nonzero;"/><path d="M2638.91,2350.27c-8.34,0 -16.66,-0.87 -24.82,-2.7c-35.72,-8.02 -64.54,-44.91 -86.44,-87.04c-10.15,-19.55 -18.82,-40.22 -25.99,-59.66c-7.57,-20.54 -13.47,-39.69 -17.7,-54.68c-0.4,-4.98 -1.17,-10.24 -2.42,-15.77c0.04,-0.62 0.09,-1.22 0.16,-1.83c20.76,55.28 61.44,156.7 93.68,156.7c3.08,0 6.09,-0.93 9,-2.92c7.95,-5.44 7.6,-33.76 7.6,-33.76c0,0 29.15,17.67 63.38,17.67c31.61,0 67.55,-15.08 88.81,-73.09c7.73,-21.09 9.06,-48.19 3.75,-78.24c13.3,36.53 23.92,75.54 24.9,108.59l0,0.25c0,0.03 0.01,0.07 0.01,0.1l0,0.07c0.46,17.02 -1.66,32.44 -7.32,45.11c-11.76,26.34 -33.79,48.74 -60.13,63.3c-0.06,0.04 -0.12,0.07 -0.18,0.1c-0.03,0.02 -0.05,0.03 -0.08,0.05c-20.42,11.23 -43.41,17.75 -66.21,17.75Z" style="fill:#c3bac7;fill-rule:nonzero;"/><path d="M2666.37,2023.03l-159.04,91.78c-8.02,4.63 -11.9,14.07 -9.45,22.95c30.91,111.91 75.64,184.63 119.64,194.52c50.53,11.37 111.75,-20.53 133.66,-69.6c17.28,-38.7 -3.82,-125.09 -56.45,-231.09c-2.52,-5.09 -6.89,-8.78 -12.31,-10.42c-5.43,-1.64 -11.14,-0.98 -16.05,1.86Zm-27.53,342.93c-9.51,0 -18.95,-0.99 -28.2,-3.07c-77.11,-17.33 -122.7,-143.25 -143.01,-216.77c-6.25,-22.66 3.62,-46.71 24.02,-58.48l159.03,-91.79c12.32,-7.11 27.19,-8.83 40.81,-4.72c13.61,4.11 25.03,13.77 31.35,26.5c33.84,68.18 86.25,192.32 56.99,257.84c-24.08,53.95 -83.42,90.49 -140.99,90.49Z" style="fill:#371a45;fill-rule:nonzero;"/><path d="M2706.87,2347.09c-87.48,-11.99 -135.14,-100.33 -157.34,-177.29c-1.32,-5.33 -2.51,-10.3 -3.11,-16.39c-0.26,-2.57 1.62,-4.86 4.2,-5.12c2.42,-0.24 4.6,1.42 5.05,3.76c8.74,34.41 27.55,66.66 47.27,95.91c23.75,33.24 57.79,61.76 98.87,67.41c1.97,0.24 4.64,0.4 5.51,0.34c22.42,-0.62 22.08,32.57 -0.45,31.38Z" style="fill:#371a45;fill-rule:nonzero;"/><path d="M2224.1,1707.98c57.31,-37.32 115.72,-72.25 177.83,-101.2c20.99,-9.54 42.35,-18.56 65.55,-25.27c10,-2.89 20.44,2.87 23.34,12.86c3.05,10.41 -3.47,21.36 -14.07,23.64c-63.74,15.08 -124.75,45.17 -183.37,74.65c-19.89,10.26 -39.77,20.86 -59.13,31.86c-10.75,5.94 -20.39,-9.57 -10.15,-16.54Z" style="fill:#371a45;fill-rule:nonzero;"/><path d="M1742.31,3429.39c-597.74,0 -1082.31,-54.32 -1082.31,-121.34c0,-27.12 79.326,-52.16 213.414,-72.36c3.252,17.81 9.054,28.98 14.846,35.94c9.921,11.93 20.507,12.47 20.95,12.48l227.93,0c-24.97,-16.09 -44.92,-41.47 -56.35,-72.11c0.8,-0.07 1.54,-0.13 2.34,-0.2c10.11,35.04 34.75,65.62 82.81,74.94c11.49,2.22 22.03,3.23 31.73,3.23c86.38,0 104.74,-79.55 105.45,-82.78c1.27,-3.35 2.43,-6.77 3.46,-10.25c71.26,-3.52 146.48,-6.2 224.8,-7.93c-3.58,8.86 -5.61,17.74 -6.14,26.23c-0.01,0.01 -0.01,0.02 -0.01,0.03l0,0.13c-0.01,0.03 -0.01,0.06 -0.01,0.08c0,0.04 0,0.07 -0.01,0.11c0,0.06 0,0.12 -0.01,0.19c-0.08,1.45 -0.12,2.89 -0.12,4.31c0,29 16.53,52.45 44.91,63.26c31.84,12.13 98.84,16.83 171.1,16.83c119.44,0 253.3,-12.82 266.93,-26.04c6.02,-5.85 10.28,-37.37 12.91,-83.38c5.39,0.16 10.73,0.33 16.09,0.5c-0.41,6.49 -0.86,12.78 -1.36,18.85c-0.01,0.01 -0.01,0.04 -0.01,0.06c0,0.06 -0.01,0.12 -0.01,0.17c-0.01,0.04 -0.01,0.08 -0.01,0.12c-0.01,0.05 -0.01,0.09 -0.01,0.13c-0.01,0.05 -0.01,0.09 -0.02,0.14c0,0.05 0,0.1 -0.01,0.15c0,0.04 -0.01,0.08 -0.01,0.12c0,0.06 -0.01,0.11 -0.01,0.17c-0.01,0.03 -0.01,0.06 -0.01,0.09c-0.01,0.06 -0.01,0.11 -0.01,0.17c-0.01,0.04 -0.01,0.07 -0.01,0.11c-0.01,0.09 -0.02,0.18 -0.03,0.27c18.8,4.97 78.46,19.41 137.36,19.41c32.11,0 63.99,-4.29 88.9,-16.75c5.37,-2.68 10.07,-6.76 14.15,-12.02c149.74,9.53 277.18,22.95 371.46,39.03c1.17,31.84 1.35,58.82 1.47,78.05c0.04,6.71 0.08,12.1 0.15,16.48c-3.63,-0.5 -7.65,-1.07 -11.46,-1.62c-26.4,-3.77 -50.24,-6.91 -67.47,-6.91c-7.37,0 -13.54,0.57 -18.18,1.92c-6.72,1.95 -11.75,6.61 -14.18,13.13c-4.45,11.97 1.39,30.19 9.21,46.68c-198.11,24.67 -485.2,40.18 -804.61,40.18Zm-529.21,-214.21c-10.26,0 -19.77,-4.16 -27.51,-11.21c19.18,-1.3 38.74,-2.52 58.67,-3.68c-8.32,9.26 -19.23,14.89 -31.16,14.89Z" style="fill:#f58600;fill-rule:nonzero;"/><path d="M2573.41,3385.78c-7.31,-14.04 -12.25,-26.86 -12.33,-32.74c2.28,-0.37 5.21,-0.54 8.6,-0.54c17.32,0 46.77,4.23 64.31,6.74c13.3,1.91 21.71,3.11 27.35,3.11c7.35,0 9.97,-2.05 12.53,-7.27c1.48,-3.02 1.6,-6.57 0.54,-9.73c-0.31,-3.57 -0.38,-14.48 -0.46,-25.98c-0.11,-18.34 -0.28,-43.59 -1.29,-73.36c35.29,6.63 65.1,13.68 88.7,21.06c-0.37,6.28 -0.15,12.28 0.48,17.81c-20.95,6.94 -57.67,23.71 -72.98,59.05c-3.35,7.73 -5.48,15.83 -6.39,24.28c-31.76,6.22 -68.3,12.1 -109.06,17.57Zm98.59,-44.73c-0.21,-0.25 -0.44,-0.49 -0.67,-0.72c0.24,0.24 0.46,0.48 0.67,0.72Z" style="fill-rule:nonzero;"/><path d="M2682.47,3368.21c0.91,-8.45 3.04,-16.55 6.39,-24.28c15.31,-35.34 52.03,-52.11 72.98,-59.05c-0.63,-5.53 -0.85,-11.53 -0.48,-17.81c5.64,1.76 10.92,3.55 15.84,5.34c-0.11,14 2.88,23.71 2.88,23.71c0,0 -71.37,13.87 -81.26,68.76c-5.32,1.12 -10.74,2.23 -16.35,3.33Z" style="fill:#371a45;fill-rule:nonzero;"/><path d="M2698.82,3364.88c9.89,-54.89 81.26,-68.76 81.26,-68.76c0,0 -2.99,-9.71 -2.88,-23.71c30.84,11.27 47.42,23.24 47.42,35.64c0,20.53 -45.51,39.88 -125.8,56.83Z" style="fill:#0a000f;fill-rule:nonzero;"/><path d="M2546.92,3389.21c-7.82,-16.49 -13.66,-34.71 -9.21,-46.68c2.43,-6.52 7.46,-11.18 14.18,-13.13c4.64,-1.35 10.81,-1.92 18.18,-1.92c17.23,0 41.07,3.14 67.47,6.91c3.81,0.55 7.83,1.12 11.46,1.62c-0.07,-4.38 -0.11,-9.77 -0.15,-16.48c-0.12,-19.23 -0.3,-46.21 -1.47,-78.05c8.71,1.49 17.15,3 25.28,4.53c1.01,29.77 1.18,55.02 1.29,73.36c0.08,11.5 0.15,22.41 0.46,25.98c1.06,3.16 0.94,6.71 -0.54,9.73c-2.56,5.22 -5.18,7.27 -12.53,7.27c-5.64,0 -14.05,-1.2 -27.35,-3.11c-17.54,-2.51 -46.99,-6.74 -64.31,-6.74c-3.39,0 -6.32,0.17 -8.6,0.54c0.08,5.88 5.02,18.7 12.33,32.74c-8.63,1.16 -17.49,2.31 -26.49,3.43Zm124.41,-48.88c0.23,0.23 0.46,0.47 0.67,0.72c-0.21,-0.24 -0.43,-0.48 -0.67,-0.72Zm-0.12,-0.12l0.02,0.01l-0.02,-0.01Zm-0.03,-0.03l0.02,0.02l-0.02,-0.02Z" style="fill:#371a45;fill-rule:nonzero;"/><path d="M1727.05,3189.85c-5.2,-1.04 -10.47,-1.96 -15.7,-3.1c1.96,-0.01 3.92,-0.01 5.88,-0.02c3.26,1.05 6.54,2.05 9.82,3.12Z" style="fill:#9184da;fill-rule:nonzero;"/><path d="M2365.39,2056.93c-15.11,22.31 -115.77,157.69 -366.01,211.48c-1.5,20.86 -7.41,88.7 -22.92,134.16c59.17,-6.58 313.64,-43.36 495,-201.73c1.48,-2.14 6.14,-9.52 9.43,-21.3l0.07,-0.23c4.9,-17.77 6.55,-45.41 -10.76,-80.02c-27.15,-54.32 -90.46,-45.209 -104.81,-42.36Z" style="fill:#fff;fill-rule:nonzero;"/><path d="M1731.34,1908.73c3.92,1.86 6.92,3.49 8.75,4.58c10.44,-0.24 48.72,0.19 83.5,16.52c45.32,21.27 63.28,102.46 36.96,167.06c-24.59,60.36 8.67,207.53 9.01,209.02c0.57,2.46 -0.06,5.05 -1.68,6.99c-90.63,108.62 -255.82,96.91 -303.54,90.91c6.81,20.33 16.3,39.47 29.39,55.46c37.55,45.84 126.5,72.06 206.87,61.02c50.08,-6.89 91.74,-27.44 121.81,-59.3c0.35,-0.41 0.69,-0.81 1.13,-1.14c13.66,-14.75 24.87,-31.87 33.32,-51.15c20.87,-48.5 26.72,-146.43 26.78,-147.41c0.7,-27.74 1.07,-55.59 1.02,-83.39c-0.09,-28.03 -0.46,-56.06 -2.34,-84.06c4.56,27.71 7.64,55.68 10.43,83.65c2.43,24.75 4.48,49.5 6.31,74.33c233.53,-51.19 334.16,-177.8 351.69,-202.28c-80.33,-126.94 -260.28,-282.63 -291.63,-309.29c-146.53,100.59 -271.5,141.31 -383.19,152.6c24.24,3.66 41.73,9.74 52.66,14.6c0.99,0.24 1.9,0.67 2.75,1.28Z" style="fill:#fff;fill-rule:nonzero;"/><path d="M1434.11,2058.91c-0.59,4.26 -0.92,8.52 -1.14,12.78c0.11,0.27 0.3,0.47 0.38,0.75c0.53,1.96 0.21,3.911 -0.6,5.61c-0.47,40.22 13.69,77.25 23.11,80.12c16.63,5.06 40.5,5.13 40.73,5.13c2.28,0 4.45,0.96 5.99,2.65l47.79,52.49c1.64,1.8 2.38,4.26 2.01,6.67c-0.17,1.15 -12.65,85.86 6.94,161.63c31.63,4.42 203.25,22.83 293.57,-81.21c-5.41,-24.94 -31.76,-154.79 -7.33,-214.75c24.45,-60.02 4.57,-130.61 -28.85,-146.3c-27.85,-13.07 -59.19,-14.85 -72.19,-14.98c1.83,3.39 3.68,6.76 5.41,10.22c4.9,9.85 9.26,19.94 13.06,30.22c7.5,20.56 12.49,42.21 12.5,63.85c-2.72,-21.47 -10.22,-41.72 -19.92,-60.61c-4.9,-9.43 -10.3,-18.58 -16.16,-27.39c-5.41,-8.12 -11.32,-16.14 -17.38,-23.41c-20.59,-9.06 -69.81,-24.38 -149.75,-11.7c-99.49,15.78 -130.06,89.32 -138.17,148.23Z" style="fill:#fff;fill-rule:nonzero;"/><path d="M1401.11,2349.49c-5.38,-62.89 -7.94,-129.5 2.82,-148.18c11.86,-20.6 24.93,-31.57 34.42,-37.32c-12.97,-16.35 -21.01,-49.41 -21.69,-80.56c-11.96,0.421 -23.06,-1.51 -34.05,-4.829c-13.83,-4.321 -26.5,-11.411 -37.64,-20.051c-11.14,-8.74 -20.39,-19.34 -28.58,-30.48c-4.05,-5.6 -7.41,-11.67 -11.12,-17.43l-9.23,-18.39l10.95,17.31c4.23,5.35 8.1,10.94 12.58,16c9.03,10.05 18.91,19.281 30.1,26.4c11.21,7.03 23.38,12.28 36.01,14.891c6.27,1.51 12.72,1.909 19.05,2.069c4.05,-0.02 8.34,-0.329 12.28,-0.9c0.24,-3.87 0.56,-7.669 1.06,-11.32c7.19,-52.13 36.07,-141.83 148.19,-161.38c-34.6,-1.75 -68.06,-5.6 -100.63,-10.49c-33.93,-5.08 -62.84,-7.36 -87.48,-7.36c-110.41,0 -135.19,45.68 -143.09,88.57c-8.37,45.44 -18.51,212.76 -11.2,324.98c10.26,11.09 67.49,66.52 177.25,58.47Z" style="fill:#fff;fill-rule:nonzero;"/><path d="M2468.46,2714.69c25.33,-31.95 46.88,-67.41 64.26,-106.31c75.86,-169.76 -32.28,-351.98 -56.97,-389.98c-194.65,165.55 -466.46,197.35 -506.02,201.15c-5.73,12.31 -12.51,23.75 -20.26,34.32c10.87,-1.53 21.66,-2.34 32.61,-2.55c18.48,-0.3 36.94,1.17 54.96,4.7c18.01,3.46 35.74,8.4 52.49,15.62c16.99,6.65 32.7,15.96 47.91,25.66c-15.93,-8.56 -32.13,-16.58 -49.32,-21.87c-16.961,-5.85 -34.61,-9.36 -52.27,-11.4c-17.68,-2.11 -35.53,-2.19 -53.13,-0.58c-16.82,1.5 -34.03,4.69 -49.4,9.71c-32.45,33.96 -77.08,55.82 -130.51,63.17c-3.37,0.47 -6.79,0.7 -10.19,1.04c-109.26,58.1 -120.41,94.68 -120.51,95.05c-0.08,0.29 -0.26,0.51 -0.37,0.79c-0.07,0.2 -0.03,0.43 -0.12,0.63c-0.27,0.59 -27.37,60.57 -45.78,128.81c-9.24,34.28 -7.28,121.33 -3.08,199.12c31.92,8.99 202.56,52.07 400.67,8.98c-0.26,-13.55 -0.58,-27.11 -0.96,-40.6c-13.89,-1.47 -27.41,-3.53 -40.93,-6.23c-15.95,-3.26 -31.72,-7.31 -47.18,-12.32c-15.42,-5.17 -30.49,-11.3 -44.92,-18.67c-14.28,-7.69 -27.8,-16.71 -39.78,-27.43c12.86,9.69 26.9,17.42 41.51,23.77c14.76,6.03 29.96,10.77 45.39,14.54c15.48,3.61 31.15,6.26 46.9,8.12c15.58,1.78 31.52,2.93 46.84,2.93c92.95,-4.22 176.57,-23.11 249.06,-55.41c1.02,-0.88 2.18,-1.6 3.59,-1.89c0.11,-0.02 0.21,-0.01 0.32,0c0.09,0.01 0.18,0.01 0.28,0c47.05,-21.42 89.32,-48.57 126.29,-81.13c0.21,-0.29 0.3,-0.64 0.55,-0.9l57.78,-60.61l0.29,-0.23Z" style="fill:#fff;fill-rule:nonzero;"/><path d="M1844.24,3005.79c-108.58,0 -191.52,-19.23 -220.52,-26.98c3.92,66.39 9.01,122.07 9.38,126.06c0.73,4.26 2.46,9.61 4.35,14.32c2.14,4.94 4.5,9.89 7.48,14.48c5.78,9.32 13.13,17.76 21.5,25.25c8.62,7.17 18.04,13.64 28.34,18.66c5.03,2.77 10.5,4.57 15.78,6.93c5.43,1.91 10.97,3.54 16.5,5.34c-5.67,-1.14 -11.41,-2.12 -17.1,-3.41c-5.55,-1.73 -11.34,-2.93 -16.78,-5.14c-11.1,-3.9 -21.65,-9.42 -31.68,-15.97c-9.79,-6.88 -18.85,-15.07 -26.47,-24.65c-5.93,-7.61 -11,-15.48 -14.86,-24.78c-62.64,18.72 -92.9,63.04 -94.96,99.88c-1.72,30.97 15.02,56.23 44.79,67.57c84.47,32.19 416.16,12.01 438.03,-9.21c13.08,-12.7 17.83,-146.5 15.69,-286.92c-63.86,13.61 -124.91,18.57 -179.47,18.57Z" style="fill:#fff;fill-rule:nonzero;"/><path d="M1378.97,2366.56c-79.72,0 -129.53,-31.42 -153.15,-51.35c2.12,21.77 5.07,40.54 9.06,54.52c19.88,69.58 142.67,89.13 178.68,93.4c-2.45,-18.68 -7.16,-56.26 -11.02,-97.56c-8.09,0.6 -16.01,0.99 -23.57,0.99Z" style="fill:#fff;fill-rule:nonzero;"/><path d="M1756.81,2538.8c-71.55,-1.62 -142.01,-28.26 -175.6,-69.27c-63.75,-77.83 -48.76,-217.42 -45.37,-243.01l-42.88,-47.09c-7.44,-0.2 -24.78,-1.15 -39.3,-5.1c-4.94,1.79 -20.85,9.25 -35.71,35.06c-8.42,14.64 -5.95,78.89 0.07,146.67l0.01,0.04l-0.01,0.04c3.56,40.12 8.37,81.45 12.89,114.48c1.42,5.22 22.24,80.21 43.55,104.37c15.18,17.21 118.72,37.27 184.7,46.62c6.62,-12.98 28.22,-42.1 97.65,-82.81Z" style="fill:#fff;fill-rule:nonzero;"/><path d="M2038.68,2930.66c1.38,49.46 4.39,191.8 -3.17,281.15c29.05,7.68 155.65,37.97 226.26,2.66c61.56,-30.78 34.68,-244.42 16.92,-336.95c-70.57,30.25 -151.08,48.32 -240.01,53.14Z" style="fill:#fff;fill-rule:nonzero;"/><path d="M1223.97,2291.14c-0.02,-0.03 -0.05,-0.06 -0.08,-0.09c0.03,0.03 0.06,0.06 0.08,0.09Zm-0.13,-0.49c-0.01,-0.07 -0.01,-0.13 -0.01,-0.2c0,0.06 0,0.13 0.01,0.2Zm-0.03,-0.37c0,-0.08 0,-0.15 -0.01,-0.23c0.01,0.08 0.01,0.15 0.01,0.23Zm-0.02,-0.32c-2.31,-36.24 -2.83,-78.13 -2.18,-119.77c-0.65,41.65 -0.13,83.53 2.18,119.77Zm-2.18,-119.89l0,-0.28l0,0.28Z" style="fill:#8677c7;fill-rule:nonzero;"/><path d="M1280.94,2330.02c-32.56,-14.65 -51.38,-32.87 -56.97,-38.88c-0.02,-0.03 -0.05,-0.06 -0.08,-0.09c-0.01,-0.01 -0.02,-0.02 -0.03,-0.03c-0.01,-0.13 -0.01,-0.25 -0.02,-0.37c-0.01,-0.07 -0.01,-0.14 -0.01,-0.2c-0.01,-0.05 -0.01,-0.12 -0.02,-0.17c0,-0.08 0,-0.15 -0.01,-0.23c0,-0.03 0,-0.06 -0.01,-0.09c-2.31,-36.24 -2.83,-78.12 -2.18,-119.77l0,-0.4c0.68,-43.12 2.6,-85.949 5.05,-121.929l15.06,6.689c0,0 6.48,224.73 39.22,275.47Z" style="fill:#c3bac7;fill-rule:nonzero;"/><path d="M1409.52,2430.79c-2.03,-16.98 -4.32,-37.51 -6.42,-59.31c2.1,21.83 4.4,42.31 6.42,59.31Zm-6.42,-59.37c-0.02,-0.17 -0.03,-0.33 -0.05,-0.5c0.02,0.17 0.03,0.33 0.05,0.5Zm-0.05,-0.54c-0.01,-0.09 -0.02,-0.17 -0.03,-0.26c0.01,0.09 0.02,0.18 0.03,0.26Zm-0.07,-0.66c-0.01,-0.12 -0.02,-0.23 -0.03,-0.34c0.01,0.11 0.02,0.22 0.03,0.34Zm-0.05,-0.55l0,-0.01l0,0.01Zm-0.27,-2.89l0,-0.01l0,0.01Zm-0.05,-0.45c0,-0.03 0,-0.08 -0.01,-0.11c0.01,0.04 0.01,0.07 0.01,0.11Zm-0.02,-0.26c0,-0.04 -0.01,-0.08 -0.01,-0.11c0,0.03 0.01,0.07 0.01,0.11Zm-0.02,-0.23c-0.01,-0.09 -0.02,-0.18 -0.03,-0.27c0.01,0.09 0.02,0.18 0.03,0.27Z" style="fill:#8677c7;fill-rule:nonzero;"/><path d="M1409.52,2430.79c-21.62,-1.69 -91.21,-9.11 -133.59,-36.64c-21.12,-13.72 -35.33,-27.31 -44.86,-41.19c-2.12,-11.07 -3.88,-23.69 -5.25,-37.75c23.62,19.93 73.43,51.35 153.15,51.35c7.56,0 15.48,-0.39 23.57,-0.99c0.01,0.09 0.02,0.18 0.03,0.27c0,0.04 0.01,0.08 0.01,0.12c0,0.03 0.01,0.07 0.01,0.11c0,0.05 0.01,0.1 0.01,0.15c0.01,0.03 0.01,0.08 0.01,0.11c0.02,0.15 0.03,0.3 0.05,0.44l0,0.01c0.09,0.96 0.18,1.93 0.27,2.88l0,0.01c0.01,0.07 0.01,0.14 0.02,0.21c0.01,0.11 0.02,0.22 0.03,0.34c0.02,0.13 0.03,0.27 0.04,0.4c0.01,0.09 0.02,0.17 0.03,0.26l0,0.04c0.02,0.17 0.03,0.33 0.05,0.5l0,0.06c2.1,21.8 4.39,42.33 6.42,59.31Z" style="fill:#c3bac7;fill-rule:nonzero;"/><path d="M1559.63,2386.78c-0.06,-0.01 -0.13,-0.02 -0.2,-0.03c0.07,0.01 0.14,0.02 0.2,0.03Zm-103.82,-228.63l-0.02,0l0.02,0Zm-0.06,-0.02l-0.02,0l0.02,0Zm-0.06,-0.02l-0.02,0l0.02,0Zm-0.06,-0.02l-0.02,0l0.02,0Zm-0.06,-0.02l-0.01,0l0.01,0Zm-0.06,-0.02l-0.01,-0.01c0.01,0 0.01,0.01 0.01,0.01Z" style="fill:#8677c7;fill-rule:nonzero;"/><path d="M1622.29,2390.79c-29.69,0 -52.7,-2.63 -62.66,-4.01c-0.06,-0.01 -0.13,-0.02 -0.2,-0.03c-0.04,0 -0.08,-0.01 -0.11,-0.01c-8.59,-33.23 -11.01,-68.17 -11.01,-97.03c0,-36.96 3.98,-63.95 4.07,-64.6c0.07,-0.41 0.1,-0.83 0.1,-1.24c-0.01,-2 -0.75,-3.94 -2.11,-5.43l-47.79,-52.49c-1.54,-1.69 -3.71,-2.65 -5.99,-2.65c-0.23,0 -24.1,-0.07 -40.73,-5.13c-0.02,-0.01 -0.04,-0.01 -0.05,-0.02l-0.02,0c-0.02,-0.01 -0.03,-0.01 -0.04,-0.02l-0.02,0c-0.02,-0.01 -0.03,-0.01 -0.04,-0.02l-0.02,0c-0.01,-0.01 -0.03,-0.01 -0.04,-0.02l-0.02,0c-0.01,-0.01 -0.03,-0.01 -0.04,-0.02l-0.01,0c-0.02,-0.01 -0.04,-0.02 -0.05,-0.02c0,0 0,-0.01 -0.01,-0.01c-4.98,-1.94 -11.17,-13.14 -15.84,-29.09c-1,-8.79 -2.08,-17.11 -2.08,-19.18c0,-0.34 0.43,-0.49 1.23,-0.49c6.05,0 33.07,8.72 49.69,11.72c18.8,3.39 97.4,55.88 110.72,82.52c9.1,18.18 15.42,117.29 58.22,186.01c-12.41,0.9 -24.23,1.26 -35.15,1.26Z" style="fill:#c3bac7;fill-rule:nonzero;"/><path d="M2048.78,2458.54c-3.901,-0.9 -7.81,-1.76 -11.74,-2.52c-16.5,-3.23 -33.36,-4.74 -50.27,-4.74c-1.56,0 -3.13,0.02 -4.69,0.04c-10.95,0.21 -21.74,1.02 -32.61,2.55c10.87,-1.53 21.66,-2.34 32.61,-2.55c1.56,-0.02 3.13,-0.04 4.69,-0.04c16.91,0 33.77,1.51 50.27,4.74c3.97,0.76 7.93,1.6 11.859,2.51c-0.039,0 -0.079,0.01 -0.119,0.01Z" style="fill:#8677c7;fill-rule:nonzero;"/><path d="M2475.9,2218.64c-0.05,-0.08 -0.1,-0.16 -0.15,-0.24c0.05,0.08 0.1,0.16 0.15,0.24Z" style="fill:#998aa0;fill-rule:nonzero;"/><path d="M2048.9,2458.53c-3.929,-0.91 -7.889,-1.75 -11.859,-2.51c-16.5,-3.23 -33.36,-4.74 -50.27,-4.74c-1.56,0 -3.13,0.02 -4.69,0.04c-10.95,0.21 -21.74,1.02 -32.61,2.55c7.75,-10.57 14.53,-22.01 20.26,-34.32c39.56,-3.8 311.37,-35.6 506.02,-201.15c0.05,0.08 0.1,0.16 0.15,0.24c1.99,3.06 4.53,7.1 7.42,11.89c-7.53,17 -60.24,102.77 -222.1,175.89c-83.46,37.71 -156.27,49.26 -212.321,52.11Z" style="fill:#c3bac7;fill-rule:nonzero;"/><path d="M1976.46,2402.57c0.04,-0.11 0.08,-0.23 0.12,-0.34c-0.04,0.11 -0.08,0.23 -0.12,0.34Zm0.13,-0.38c0.04,-0.11 0.08,-0.22 0.11,-0.33c-0.03,0.11 -0.07,0.22 -0.11,0.33Zm0.13,-0.37c5.2,-15.45 9.29,-33.41 12.51,-51.21l0.03,0c-3.22,17.8 -7.34,35.76 -12.54,51.21Z" style="fill:#8677c7;fill-rule:nonzero;"/><path d="M1976.46,2402.57c0.04,-0.11 0.08,-0.23 0.12,-0.34c0,-0.02 0.01,-0.03 0.01,-0.04c0.04,-0.11 0.08,-0.22 0.11,-0.33c0.01,-0.01 0.01,-0.03 0.02,-0.04c5.2,-15.45 9.32,-33.41 12.54,-51.21c74.53,-18.31 368.73,-96.3 437,-202.27c0,0 41.26,15.22 38.17,58.42c-180.84,153.3 -429.56,189.31 -487.97,195.81Z" style="fill:#c3bac7;fill-rule:nonzero;"/><path d="M1581.21,2469.53c-0.07,-0.08 -0.13,-0.16 -0.19,-0.23c0.06,0.07 0.12,0.15 0.19,0.23Zm-0.25,-0.31c-0.05,-0.05 -0.09,-0.1 -0.14,-0.16c0.05,0.06 0.09,0.11 0.14,0.16Zm-0.2,-0.24c-0.04,-0.05 -0.09,-0.11 -0.13,-0.15c0.04,0.05 0.09,0.1 0.13,0.15Zm-0.2,-0.24c-0.04,-0.05 -0.08,-0.1 -0.12,-0.15c0.04,0.05 0.08,0.1 0.12,0.15Zm-0.18,-0.23c-0.04,-0.05 -0.09,-0.11 -0.13,-0.16c0.04,0.05 0.09,0.11 0.13,0.16Zm-0.2,-0.24c-0.04,-0.06 -0.07,-0.1 -0.12,-0.15c0.04,0.05 0.08,0.1 0.12,0.15Zm-0.19,-0.24c-0.04,-0.05 -0.08,-0.1 -0.12,-0.15c0.04,0.05 0.08,0.1 0.12,0.15Zm-0.19,-0.24c-0.04,-0.05 -0.07,-0.1 -0.12,-0.15c0.04,0.05 0.08,0.1 0.12,0.15Zm-0.18,-0.23c-0.04,-0.06 -0.08,-0.11 -0.13,-0.16c0.05,0.05 0.09,0.1 0.13,0.16Zm-0.19,-0.24c-0.04,-0.05 -0.09,-0.11 -0.13,-0.16c0.05,0.05 0.09,0.11 0.13,0.16Zm-0.18,-0.23c-0.05,-0.06 -0.09,-0.11 -0.14,-0.17c0.05,0.05 0.09,0.11 0.14,0.17Zm-0.19,-0.24c-0.05,-0.06 -0.09,-0.12 -0.14,-0.18c0.05,0.06 0.09,0.12 0.14,0.18Zm-0.18,-0.24c-0.05,-0.06 -0.1,-0.12 -0.15,-0.18c0.05,0.06 0.1,0.12 0.15,0.18Zm-0.19,-0.24c-0.05,-0.06 -0.1,-0.12 -0.15,-0.19c0.05,0.07 0.1,0.13 0.15,0.19Zm-0.18,-0.24c-0.05,-0.06 -0.11,-0.13 -0.16,-0.2c0.05,0.07 0.1,0.14 0.16,0.2Zm-0.19,-0.23c-0.05,-0.08 -0.11,-0.15 -0.17,-0.23c0.06,0.08 0.11,0.15 0.17,0.23Zm-0.18,-0.24c-31.01,-40.44 -42.18,-96 -45.26,-143.81c0,-0.01 0,-0.03 0.01,-0.04c3.08,47.82 14.23,103.4 45.25,143.85Z" style="fill:#8677c7;fill-rule:nonzero;"/><path d="M1659.16,2621.61c-65.98,-9.35 -169.52,-29.41 -184.7,-46.62c-21.31,-24.16 -42.13,-99.15 -43.55,-104.37c-1.79,-13.06 -3.62,-27.44 -5.4,-42.51l7.22,-0.27c0,0 44.54,87.74 92.59,98.19l48.05,10.44c0,0 -34.99,-53.79 -43.35,-141.54c-4,-42 -1.18,-62.79 2.86,-73.08c3.08,47.81 14.25,103.37 45.26,143.81c0,0.01 0.01,0.01 0.01,0.01c0.06,0.08 0.12,0.15 0.17,0.23c0.01,0.01 0.02,0.02 0.03,0.03c0.05,0.07 0.11,0.14 0.16,0.2c0.01,0.02 0.02,0.04 0.03,0.05c0.05,0.07 0.1,0.13 0.15,0.19c0.01,0.02 0.03,0.04 0.04,0.06c0.05,0.06 0.1,0.12 0.15,0.18c0.01,0.02 0.03,0.04 0.04,0.06c0.05,0.06 0.09,0.12 0.14,0.18c0.02,0.02 0.04,0.04 0.05,0.07c0.05,0.06 0.09,0.11 0.14,0.17c0.01,0.02 0.04,0.05 0.05,0.07c0.04,0.05 0.09,0.11 0.13,0.16c0.02,0.03 0.04,0.05 0.06,0.08c0.05,0.05 0.09,0.1 0.13,0.16c0.02,0.03 0.04,0.05 0.06,0.08c0.05,0.05 0.08,0.1 0.12,0.15c0.03,0.03 0.05,0.06 0.07,0.09c0.04,0.05 0.08,0.1 0.12,0.15c0.03,0.03 0.05,0.06 0.07,0.09c0.05,0.05 0.08,0.09 0.12,0.15c0.03,0.03 0.05,0.05 0.07,0.08c0.04,0.05 0.09,0.11 0.13,0.16c0.02,0.02 0.04,0.05 0.06,0.08c0.04,0.05 0.08,0.1 0.12,0.15c0.03,0.03 0.05,0.06 0.07,0.09c0.04,0.04 0.09,0.1 0.13,0.15c0.02,0.03 0.04,0.05 0.06,0.08c0.05,0.06 0.09,0.11 0.14,0.16c0.02,0.03 0.04,0.05 0.06,0.08c0.06,0.07 0.12,0.15 0.19,0.23c33.59,41.01 104.05,67.65 175.6,69.27c-69.43,40.71 -91.03,69.83 -97.65,82.81Z" style="fill:#c3bac7;fill-rule:nonzero;"/><path d="M1956.93,2408.53c0.01,0 0.01,-0.01 0.02,-0.02c-0.01,0.01 -0.01,0.02 -0.02,0.02Zm0.08,-0.17c0,0 0.01,-0.01 0.01,-0.02c-0.01,0.01 -0.01,0.01 -0.01,0.02Zm-332.63,-0.92c-26,0 -47.24,-2.02 -60.04,-3.63c12.79,1.6 34.02,3.62 60,3.62c13.6,0 28.51,-0.55 44.18,-2.01l0.01,0.01c-15.66,1.45 -30.55,2.01 -44.15,2.01Z" style="fill:#8677c7;fill-rule:nonzero;"/><path d="M1763.14,2522.81c-69.04,0 -137.63,-24.75 -169.41,-63.54c-13.09,-15.99 -22.58,-35.13 -29.39,-55.46c12.8,1.61 34.04,3.63 60.04,3.63c13.6,0 28.49,-0.56 44.15,-2.01c18.8,24.25 43.4,42.74 76.15,49.05c16.9,3.25 32.94,4.73 48.12,4.73c96.94,0 158.41,-60.35 179.21,-104.48c-3.8,19.66 -8.71,38.88 -14.99,53.61c0,0.01 -0.01,0.02 -0.01,0.02c-0.02,0.05 -0.04,0.1 -0.06,0.15c-0.01,0.01 -0.01,0.02 -0.02,0.02c-0.02,0.06 -0.04,0.11 -0.07,0.17c-8.45,19.28 -19.66,36.4 -33.32,51.15c-0.44,0.33 -0.78,0.73 -1.13,1.14c-30.07,31.86 -71.73,52.41 -121.81,59.3c-12.36,1.7 -24.91,2.52 -37.46,2.52Z" style="fill:#c3bac7;fill-rule:nonzero;"/><path d="M1828.6,1932.49c-0.01,-0.01 -0.23,-0.04 -0.52,-0.1c-1.49,-0.87 -2.94,-1.83 -4.49,-2.56c-31.68,-14.87 -66.25,-16.56 -80.06,-16.56c-1.35,0 -2.5,0.02 -3.44,0.04c-1.83,-1.09 -4.83,-2.72 -8.75,-4.58c-0.85,-0.61 -1.76,-1.04 -2.75,-1.28c-2.51,-1.12 -5.37,-2.3 -8.58,-3.5c3.21,1.2 6.07,2.38 8.58,3.5c0.99,0.24 1.9,0.67 2.75,1.28c3.92,1.86 6.92,3.49 8.75,4.58c0.94,-0.02 2.09,-0.04 3.44,-0.04c13.81,0 48.38,1.69 80.06,16.56c1.71,0.8 3.38,1.69 5.01,2.66Z" style="fill:#8677c7;fill-rule:nonzero;"/><path d="M2071.88,1751.21c-0.399,-0.34 -0.779,-0.67 -1.159,-1c0.38,0.33 0.76,0.66 1.159,1c-0.009,0.01 0,0 0,0Z" style="fill:#c3bac7;fill-rule:nonzero;"/><path d="M1828.6,1932.49c-1.63,-0.97 -3.3,-1.86 -5.01,-2.66c-31.68,-14.87 -66.25,-16.56 -80.06,-16.56c-1.35,0 -2.5,0.02 -3.44,0.04c-1.83,-1.09 -4.83,-2.72 -8.75,-4.58c-0.85,-0.61 -1.76,-1.04 -2.75,-1.28c-2.51,-1.12 -5.37,-2.3 -8.58,-3.5c12.82,-2.05 25.74,-4.43 38.47,-7.1c115.91,-24.56 222.18,-75.83 311.52,-147.26c0.24,0.2 0.48,0.41 0.72,0.62c0.38,0.33 0.76,0.66 1.159,1c-54.889,127.47 -243.279,181.28 -243.279,181.28Z" style="fill:#c3bac7;fill-rule:nonzero;"/><path d="M1957.14,2998.58l0,-0.04c21.33,-2.76 43.12,-6.36 65.29,-11.05c-22.16,4.69 -43.97,8.33 -65.29,11.09Zm65.69,-11.17c0.08,-0.02 0.15,-0.03 0.22,-0.05c-0.07,0.02 -0.14,0.03 -0.22,0.05Z" style="fill:#8677c7;fill-rule:nonzero;"/><path d="M1525.2,3215.78c0.01,-0.07 0.01,-0.13 0.01,-0.19c0,0.06 0,0.12 -0.01,0.19Zm0.02,-0.3c0,-0.02 0,-0.05 0.01,-0.08c-0.01,0.03 -0.01,0.06 -0.01,0.08Zm0.01,-0.21c0,-0.01 0,-0.02 0.01,-0.03c-0.01,0.01 -0.01,0.02 -0.01,0.03Z" style="fill:#7664ad;fill-rule:nonzero;"/><path d="M1741.08,3300.18c-72.25,-0.01 -139.25,-4.7 -171.09,-16.83c-28.38,-10.81 -44.91,-34.26 -44.91,-63.26c0,-1.42 0.04,-2.86 0.12,-4.31c0.01,-0.07 0.01,-0.13 0.01,-0.19c0.01,-0.04 0.01,-0.07 0.01,-0.11c0,-0.02 0,-0.05 0.01,-0.08l0,-0.13c0,-0.01 0,-0.02 0.01,-0.03c0.93,-14.73 6.44,-30.6 16.62,-45.56l0.08,0c2.86,0 5.72,1.22 8.45,3.98c0,0 -7.47,60.06 68.86,77.82c19.54,4.54 51.06,6.4 87.19,6.4c105.06,0 248.99,-15.7 249.76,-26.66c0.84,-11.85 2.69,-169.88 0.94,-232.64c21.32,-2.76 43.13,-6.4 65.29,-11.09c0.13,-0.03 0.27,-0.06 0.4,-0.08c0.08,-0.02 0.15,-0.03 0.22,-0.05c0.22,-0.05 0.44,-0.09 0.66,-0.14c2,131.46 -2.03,257.11 -13.29,283.03c-2.86,2.82 -6.29,5.46 -10.24,7.92c-33.04,11.68 -151.88,22.01 -259.1,22.01Z" style="fill:#c3bac7;fill-rule:nonzero;"/><path d="M2022.14,2971.03c0.14,-0.03 0.28,-0.06 0.42,-0.09c-0.14,0.03 -0.28,0.06 -0.42,0.09Zm0.62,-0.13c0.22,-0.05 0.45,-0.1 0.67,-0.15c-0.22,0.05 -0.44,0.1 -0.67,0.15Z" style="fill:#8677c7;fill-rule:nonzero;"/><path d="M2532.89,2608.02c0,-0.02 0.02,-0.06 0.03,-0.08c-0.01,0.03 -0.02,0.05 -0.03,0.08Zm0.18,-0.42c0.02,-0.04 0.03,-0.07 0.04,-0.1c-0.01,0.03 -0.02,0.07 -0.04,0.1Zm0.18,-0.41c0.01,-0.02 0.02,-0.05 0.03,-0.07c-0.01,0.03 -0.02,0.05 -0.03,0.07Zm0.18,-0.39c0.01,-0.03 0.03,-0.08 0.04,-0.11c-0.01,0.04 -0.03,0.07 -0.04,0.11Zm0.19,-0.45c0.01,-0.03 0.03,-0.05 0.04,-0.09c-0.01,0.03 -0.03,0.06 -0.04,0.09Zm0.17,-0.38c0.01,-0.03 0.02,-0.05 0.03,-0.08c-0.01,0.03 -0.02,0.05 -0.03,0.08Zm0.17,-0.4c0.02,-0.04 0.04,-0.09 0.06,-0.12c-0.02,0.04 -0.04,0.08 -0.06,0.12Zm0.19,-0.44c0.02,-0.04 0.04,-0.08 0.05,-0.12c-0.01,0.04 -0.03,0.08 -0.05,0.12Zm0.17,-0.39c0.01,-0.03 0.03,-0.06 0.04,-0.09c-0.01,0.03 -0.03,0.06 -0.04,0.09Zm0.18,-0.42c0.02,-0.03 0.03,-0.07 0.05,-0.1c-0.02,0.03 -0.03,0.06 -0.05,0.1Zm0.19,-0.44c0.01,-0.02 0.03,-0.07 0.04,-0.09c-0.02,0.03 -0.03,0.06 -0.04,0.09Zm0.16,-0.38c0.01,-0.02 0.03,-0.06 0.04,-0.08c-0.02,0.03 -0.03,0.05 -0.04,0.08Zm0.18,-0.42c0.01,-0.02 0.03,-0.07 0.04,-0.09c-0.01,0.02 -0.03,0.06 -0.04,0.09Zm0.19,-0.44c0.01,-0.02 0.02,-0.05 0.03,-0.07c-0.02,0.03 -0.02,0.04 -0.03,0.07Zm0.16,-0.39c0.01,-0.02 0.02,-0.04 0.03,-0.06c-0.01,0.02 -0.02,0.04 -0.03,0.06Zm0.17,-0.41c0.02,-0.03 0.03,-0.06 0.04,-0.09c-0.01,0.03 -0.02,0.06 -0.04,0.09Zm0.36,-0.86l0.01,-0.01l-0.01,0.01Z" style="fill:#371a45;fill-rule:nonzero;"/><path d="M1956.47,2982.32c-0.36,-5.55 -0.79,-8.93 -1.31,-9.22c-4.7,-2.61 -119.67,-22.98 -131.91,-154.59c0,0 72.71,21.65 174.68,21.65c57.989,0 125.43,-7 194.35,-28.97c180.98,-57.67 356.14,-230.83 359.04,-408.64c12.19,61.14 12.74,130.57 -15.4,198.42l-0.01,0.01c-0.1,0.25 -0.21,0.52 -0.32,0.77c-0.01,0.03 -0.02,0.06 -0.04,0.09c-0.04,0.11 -0.09,0.23 -0.14,0.35c-0.01,0.02 -0.02,0.04 -0.03,0.06c-0.04,0.11 -0.09,0.22 -0.13,0.32c-0.01,0.02 -0.02,0.05 -0.03,0.07c-0.05,0.12 -0.1,0.23 -0.15,0.35c-0.01,0.02 -0.03,0.07 -0.04,0.09c-0.05,0.11 -0.09,0.22 -0.14,0.34c-0.01,0.02 -0.03,0.06 -0.04,0.08c-0.04,0.1 -0.08,0.2 -0.12,0.29c-0.01,0.02 -0.03,0.07 -0.04,0.09c-0.05,0.11 -0.1,0.22 -0.14,0.34c-0.02,0.03 -0.03,0.07 -0.05,0.1c-0.04,0.11 -0.09,0.22 -0.14,0.33c-0.01,0.03 -0.03,0.06 -0.04,0.09c-0.04,0.09 -0.08,0.18 -0.12,0.27c-0.01,0.04 -0.03,0.08 -0.05,0.12c-0.04,0.11 -0.09,0.21 -0.13,0.32c-0.02,0.03 -0.04,0.08 -0.06,0.12c-0.04,0.1 -0.09,0.22 -0.14,0.32c-0.01,0.03 -0.02,0.05 -0.03,0.08c-0.04,0.1 -0.09,0.2 -0.13,0.29c-0.01,0.04 -0.03,0.06 -0.04,0.09c-0.05,0.12 -0.1,0.23 -0.15,0.34c-0.01,0.03 -0.03,0.08 -0.04,0.11c-0.05,0.11 -0.1,0.22 -0.15,0.32c-0.01,0.02 -0.02,0.05 -0.03,0.07c-0.04,0.1 -0.09,0.21 -0.14,0.31c-0.01,0.03 -0.02,0.06 -0.04,0.1c-0.05,0.11 -0.1,0.22 -0.15,0.34c-0.01,0.02 -0.03,0.06 -0.03,0.08c-0.06,0.12 -0.11,0.24 -0.17,0.36c-14.19,31.77 -31.18,61.26 -50.73,88.41c-4.38,6.09 -8.89,12.05 -13.53,17.9l-0.29,0.23l-2.11,2.22l-55.67,58.39c-0.25,0.26 -0.34,0.61 -0.55,0.9c-36.97,32.56 -79.24,59.71 -126.29,81.13c-0.04,0.01 -0.07,0.01 -0.1,0.01c-0.06,0 -0.12,-0.01 -0.18,-0.01c-0.06,-0.01 -0.11,-0.01 -0.17,-0.01c-0.05,0 -0.1,0 -0.15,0.01c-1.41,0.29 -2.57,1.01 -3.59,1.89c-72.49,32.3 -156.11,51.19 -249.06,55.41l-0.06,0c-15.3,0 -31.22,-1.15 -46.78,-2.93c-15.75,-1.86 -31.42,-4.51 -46.9,-8.12c-15.43,-3.77 -30.63,-8.51 -45.39,-14.54c-14.61,-6.35 -28.65,-14.08 -41.51,-23.77c11.98,10.72 25.5,19.74 39.78,27.43c14.43,7.37 29.5,13.5 44.92,18.67c15.46,5.01 31.23,9.06 47.18,12.32c13.52,2.7 27.04,4.76 40.93,6.23c0.38,13.49 0.7,27.05 0.96,40.6c-0.22,0.05 -0.45,0.1 -0.67,0.15c-0.06,0.01 -0.13,0.03 -0.2,0.04c-0.14,0.03 -0.28,0.06 -0.42,0.09c-22.31,4.81 -44.23,8.49 -65.67,11.29Z" style="fill:#c3bac7;fill-rule:nonzero;"/><path d="M2037.02,3191.26c1.15,-18.31 1.95,-38.14 2.49,-58.49c-0.54,20.36 -1.34,40.18 -2.49,58.49Zm2.52,-224.36c-0.15,-7.78 -0.31,-14.92 -0.47,-21.28c0.16,6.36 0.32,13.5 0.47,21.28Z" style="fill:#8677c7;fill-rule:nonzero;"/><path d="M2035.51,3211.81c0.01,-0.09 0.02,-0.18 0.03,-0.27c-0.01,0.09 -0.02,0.18 -0.03,0.27Zm0.04,-0.38c0,-0.06 0,-0.11 0.01,-0.17c-0.01,0.06 -0.01,0.12 -0.01,0.17Zm0.02,-0.26c0,-0.06 0.01,-0.11 0.01,-0.17c0,0.06 -0.01,0.12 -0.01,0.17Zm0.02,-0.29c0.01,-0.05 0.01,-0.1 0.01,-0.15c0,0.05 0,0.1 -0.01,0.15Zm0.03,-0.29c0,-0.04 0,-0.08 0.01,-0.13c-0.01,0.04 -0.01,0.09 -0.01,0.13Zm0.02,-0.25c0,-0.05 0.01,-0.11 0.01,-0.17c0,0.06 -0.01,0.11 -0.01,0.17Zm0.02,-0.23c0.5,-6.07 0.95,-12.36 1.36,-18.85c-0.41,6.49 -0.86,12.78 -1.36,18.85Z" style="fill:#7664ad;fill-rule:nonzero;"/><path d="M2172.87,3231.22c-58.9,0 -118.56,-14.44 -137.36,-19.41c0.01,-0.09 0.02,-0.18 0.03,-0.27c0,-0.04 0,-0.07 0.01,-0.11c0,-0.05 0,-0.11 0.01,-0.17c0,-0.03 0,-0.06 0.01,-0.09c0,-0.05 0.01,-0.11 0.01,-0.17c0,-0.04 0.01,-0.08 0.01,-0.12c0.01,-0.05 0.01,-0.1 0.01,-0.15c0.01,-0.05 0.01,-0.09 0.02,-0.14c0,-0.04 0,-0.09 0.01,-0.13c0,-0.04 0,-0.08 0.01,-0.12c0,-0.06 0.01,-0.11 0.01,-0.17c0,-0.02 0,-0.04 0.01,-0.06c0.5,-6.07 0.95,-12.36 1.36,-18.85c1.15,-18.31 1.95,-38.13 2.49,-58.49c13.22,1.39 41.31,3.91 71.27,3.91c40.5,0 84.4,-4.6 99.52,-22.82c30.55,-36.82 14.88,-151.99 14.88,-151.99c0,0 -60.86,14.73 -119.09,14.73c-24.14,0 -47.84,-2.54 -66.55,-9.7c-0.15,-7.78 -0.31,-14.92 -0.47,-21.28c-0.13,-5.63 -0.27,-10.65 -0.39,-14.96c88.93,-4.82 169.44,-22.89 240.01,-53.14c9.42,49.06 21.4,132.18 21.4,204.04c0,63.65 -9.4,118.45 -38.32,132.91c-24.91,12.46 -56.79,16.75 -88.9,16.75Z" style="fill:#c3bac7;fill-rule:nonzero;"/><path d="M1999.51,3267.64m-622.29,-1379.52c-116.9,0 -126.53,52.29 -131.61,79.86c-10.66,57.86 -24.34,315.05 -0.41,398.8c17.56,61.46 135.27,83.41 179.14,86.68c7.97,0.59 14.71,6.15 16.79,13.87c8.06,29.88 26.41,83.6 41.38,100.56c12.39,12.92 105.3,33.16 184.28,43.94c5.89,0.8 11.06,4.35 13.94,9.56c2.87,5.2 3.12,11.47 0.66,16.88c-0.27,0.59 -27.03,59.85 -45.19,127.16c-14.69,54.5 0.52,263.07 7.62,338.84c0.87,9.21 -5.09,17.67 -14.04,19.99c-62.18,16.04 -91.95,57.83 -93.86,92.12c-1.47,26.45 12.34,47.2 37.88,56.94c75.65,28.82 388.92,13.2 426.36,-6.87c12.79,-26.21 15.87,-193.4 11.39,-342.92c-0.31,-10.28 7.7,-18.91 17.97,-19.37c236.45,-10.65 411.68,-117.25 493.41,-300.16c82.37,-184.36 -59.33,-384.61 -60.77,-386.61c-4.84,-6.72 -4.72,-15.82 0.31,-22.41c0.93,-1.29 25.48,-36.19 -1.87,-90.9c-26.14,-52.28 -92.82,-36.78 -95.64,-36.09c-7.93,1.93 -16.24,-1.46 -20.53,-8.389c-73.92,-119.691 -241.83,-267.851 -286.051,-305.861c-244.999,165.87 -430.389,166.31 -594.349,141.71c-34.09,-5.12 -62.73,-7.33 -86.81,-7.33Zm368.09,1438.72c-62.34,0 -145.12,-3.18 -184.91,-18.33c-40.67,-15.5 -64.45,-51.6 -62.08,-94.23c2.5,-44.8 36.49,-98.1 106.63,-121.9c-5.21,-59.96 -22.14,-273.58 -5.1,-336.75c12.14,-45.02 27.61,-85.79 37.48,-109.99c-61.08,-9.24 -160.96,-27.79 -183.06,-52.84c-20.56,-23.3 -38.41,-77.82 -45.93,-103.14c-42.94,-5.17 -175.15,-27.85 -199.35,-112.54c-25.76,-90.17 -11.78,-354.21 -0.41,-415.96c17.38,-94.34 100.33,-127.07 261.04,-102.95c158.94,23.83 339.11,22.95 579.269,-143.61c6.961,-4.82 16.28,-4.41 22.78,1.01c8.571,7.14 206.071,172.48 297.861,313.28c37.06,-4.89 96.75,2.36 124.75,58.36c27.87,55.72 15.01,98.41 5.34,118.31c29.71,45.55 138.68,232.53 57.69,413.81c-44.43,99.43 -114.55,178.12 -208.4,233.87c-85.13,50.57 -185.73,79.97 -299.251,87.51c0.671,29.32 1.77,89.71 1.171,151.19c-1.78,179.89 -15.73,193.43 -24.06,201.52c-23.85,23.14 -158.21,30.25 -214.87,32.23c-13.91,0.49 -38.12,1.15 -66.59,1.15Z" style="fill:#371a45;fill-rule:nonzero;"/><path d="M1964.29,2430.74c-2.48,0 -5,-0.49 -7.43,-1.54c-9.55,-4.1 -13.96,-15.18 -9.85,-24.73c20.13,-46.81 25.86,-142.83 25.91,-143.8c0.49,-8.5 6.63,-15.62 14.97,-17.35c260.69,-54.14 355.66,-202.09 356.59,-203.58c5.51,-8.82 17.12,-11.5 25.94,-6c8.82,5.5 11.51,17.111 6,25.94c-4.07,6.52 -101.19,157.85 -366.95,217.5c-2.5,30.21 -10,100.61 -27.88,142.17c-3.06,7.12 -10,11.39 -17.3,11.39Z" style="fill:#371a45;fill-rule:nonzero;"/><path d="M1972.9,2262.12c2.51,-27.81 4.66,-55.93 6.41,-83.95c1.69,-28.06 3.11,-56.13 3.01,-84.33c12.41,55.28 20.46,111.34 28.22,167.55c2.31,27.82 -38.85,28.66 -37.64,0.73Z" style="fill:#371a45;fill-rule:nonzero;"/><path d="M1460.65,2148.66m107.24,228.36c42.7,5.03 191.1,15.02 273.36,-74.55c-7.73,-36.61 -29.97,-156 -5.63,-215.74c21.99,-53.98 5.19,-119.08 -23.47,-132.53c-33.71,-15.83 -72.88,-13.95 -73.25,-13.91c-4.18,0.19 -8.29,-0.95 -11.72,-3.32c-0.34,-0.22 -49.86,-32.09 -153.21,-15.69c-92.99,14.75 -121.6,83.78 -129.23,139.1c-5.35,38.78 7.77,80.62 15.43,87.87c12.47,3.5 30.4,4.31 36.44,4.32c5.29,0.01 10.35,2.24 13.91,6.15l47.78,52.49c3.83,4.21 5.56,9.91 4.69,15.53c-0.16,1.08 -11.57,78.9 4.9,150.28Zm196.2,172.64c-77.09,0 -154.58,-28.64 -191.18,-73.33c-63.03,-76.95 -52.56,-210.07 -48.33,-246.23l-36.52,-40.1c-9.84,-0.47 -26.23,-1.87 -40.03,-6.07c-33.67,-10.25 -46.73,-84.25 -40.59,-128.7c7.67,-55.62 38.74,-151.81 160.63,-171.14c100.02,-15.85 157.25,8.92 174.77,18.46c14.42,-0.12 51.37,1.63 85.31,17.56c50.06,23.5 70.63,111.38 42.34,180.83c-19.34,47.47 0.32,162.32 9.53,202.57c1.31,5.73 -0.13,11.75 -3.89,16.27c-84.89,101.74 -231.72,101.93 -295.64,96.49c5.67,13.17 12.75,25.46 21.55,36.2c34.79,42.49 121.37,67.59 197.1,57.19c40.45,-5.56 113.45,-26.64 147.91,-105.3c2.81,-6.41 8.93,-10.73 15.9,-11.23c2.97,-0.21 299.53,-23.54 502.09,-200.9c7.82,-6.85 19.72,-6.07 26.57,1.76c6.85,7.82 6.06,19.72 -1.77,26.57c-192.03,168.15 -455.28,203.29 -513.09,209.14c-32.43,64.89 -93.25,106.37 -172.48,117.27c-13.23,1.81 -26.71,2.69 -40.18,2.69Z" style="fill:#371a45;fill-rule:nonzero;"/><path d="M2172.12,3258.13c-73.84,0 -145.89,-20.86 -150.33,-22.17c-9.97,-2.94 -15.67,-13.41 -12.74,-23.38c2.94,-9.97 13.4,-15.69 23.38,-12.75c1.47,0.44 148.65,42.99 224.55,5.04c48.68,-24.34 34.65,-210.9 9.14,-335.6c-2.09,-10.19 4.48,-20.13 14.67,-22.22c10.17,-2.11 20.13,4.48 22.22,14.66c0.67,3.27 16.42,80.82 22.09,164.96c8.18,121.23 -8.6,190.54 -51.28,211.88c-29.24,14.61 -65.68,19.58 -101.7,19.58Z" style="fill:#371a45;fill-rule:nonzero;"/><path d="M1842.53,3016.86c-133.91,0 -227.74,-29.23 -233.29,-31c-9.9,-3.16 -15.37,-13.76 -12.21,-23.66c3.16,-9.9 13.75,-15.37 23.65,-12.22c2.35,0.75 188.5,58.31 406.71,8.97c10.13,-2.31 20.22,4.07 22.509,14.21c2.291,10.15 -4.069,20.22 -14.209,22.52c-69.3,15.66 -135.02,21.18 -193.16,21.18Z" style="fill:#371a45;fill-rule:nonzero;"/><path d="M2029.86,2941.78c-64.62,-10.21 -132.28,-29.91 -180.2,-76.28c26.63,17.95 57.23,27.47 88.36,33.15c30.45,5.15 62.2,7.25 92.86,5.49c27.48,-0.67 26.45,39.78 -1.02,37.64Z" style="fill:#371a45;fill-rule:nonzero;"/><path d="M1422.93,2491.06c-9.26,0 -17.34,-6.84 -18.63,-16.27c-7.68,-56.02 -31.07,-241.68 -9.68,-278.84c23.33,-40.52 51.71,-47.74 54.87,-48.43l8.03,36.79l0.55,-0.13c-0.64,0.18 -15.99,4.81 -30.81,30.56c-10.09,19.16 -0.42,147.26 14.34,254.93c1.42,10.31 -5.79,19.8 -16.09,21.21c-0.87,0.12 -1.73,0.18 -2.58,0.18Z" style="fill:#371a45;fill-rule:nonzero;"/><path d="M1429.28,2093.02c-31.55,3.81 -64.33,-9.649 -87.43,-30.1c-16.06,-14.25 -28.22,-32.58 -37.72,-51.57l-8.09,-19.1c21.2,31.6 52.54,62.14 91.68,66.81c10.6,1.311 22.67,1.11 32.49,-2.59c24.31,-5.26 33.05,29.81 9.07,36.55Z" style="fill:#371a45;fill-rule:nonzero;"/><path d="M1379.09,2377.29c-119.2,0 -175.38,-68.17 -177.9,-71.32c-6.51,-8.11 -5.21,-19.96 2.9,-26.47c8.09,-6.49 19.89,-5.21 26.41,2.84c2.4,2.92 57.32,67.78 177.61,55.82c10.35,-1.05 19.57,6.52 20.59,16.87c1.03,10.35 -6.52,19.57 -16.87,20.6c-11.4,1.13 -22.31,1.66 -32.74,1.66Z" style="fill:#371a45;fill-rule:nonzero;"/><path d="M1682.35,2635.61c0.26,-0.76 0.3,-1.15 0.3,-1.15l-36.81,-7.96c1.71,-7.88 16.24,-50.44 135.2,-113.47c9.2,-4.88 20.59,-1.37 25.45,7.82c4.87,9.18 1.37,20.58 -7.81,25.45c-103.29,54.73 -116.21,88.97 -116.33,89.31Z" style="fill:#371a45;fill-rule:nonzero;"/><path d="M1923.05,2448.14c55.98,-11.39 116.04,-3.23 167.41,20.98c16.58,7.39 32.21,17.7 46.98,28.18c-47.24,-23.96 -101.98,-33.73 -154.3,-25.81c-14.7,2.17 -29.17,5.39 -43.08,10.36c-1.65,0.57 -3.73,1.37 -5.1,2.01c-9.23,5.07 -20.82,1.69 -25.89,-7.54c-6.54,-11.48 1.12,-26.17 13.98,-28.18Z" style="fill:#371a45;fill-rule:nonzero;"/><path d="M1741.97,1904.19c21.13,39.65 36.53,84.38 33.53,129.6c-6.74,-31.38 -23.41,-59.19 -43.06,-83.98c-6.19,-7.68 -13.38,-16.08 -20.3,-22.65c-20.35,-21.32 14.37,-48.1 29.83,-22.97Z" style="fill:#371a45;fill-rule:nonzero;"/><path d="M1643.55,3102.39c3.63,36.77 34.96,65.86 67.39,80.83c5.26,2.33 10.68,4.4 16.11,6.63c-11.45,-1.21 -23.8,-2.75 -34.93,-6.08c-37.23,-10.22 -72.15,-36.71 -85.52,-74.11c-4.05,-24.55 31.38,-31.55 36.95,-7.27Z" style="fill:#371a45;fill-rule:nonzero;"/><path d="M1070.15,3152.25c0,-50.86 21.83,-95.83 55.11,-123.13c-102.39,-2.51 -149.286,138.21 -149.777,139.73c-0.885,2.72 -3.138,4.77 -5.937,5.4c-0.585,0.13 -1.178,0.2 -1.764,0.2c-2.213,0 -4.364,-0.91 -5.905,-2.57l-41.615,-44.43l-46.012,29.58c-9.521,69.07 2.264,100.48 14.01,114.6c9.921,11.93 20.507,12.47 20.95,12.48l227.93,0c-39.89,-25.71 -66.99,-75.15 -66.99,-131.86Z" style="fill:#fff;fill-rule:nonzero;"/><path d="M927.464,3111.46l37.354,39.89c16.055,-39.24 73.542,-155.86 181.452,-136.22c15.05,-7.96 31.6,-12.62 49.03,-13.31c-91.98,-35 -242.21,-24.58 -329.208,3.75c-76.242,24.83 -116.498,94.28 -132.34,128.93l41.394,-22.29c3.312,-1.76 7.447,-1.03 9.937,1.81l38.722,44.46l39.358,-13.57l54.016,-34.72c3.272,-2.13 7.613,-1.58 10.285,1.27Z" style="fill:#fff;fill-rule:nonzero;"/><path d="M1213.1,3215.18c-26.01,0 -47.16,-26.73 -47.16,-59.61c0,-32.86 21.15,-59.6 47.16,-59.6c26.01,0 47.16,26.74 47.16,59.6c0,32.88 -21.15,59.61 -47.16,59.61Zm-13.42,-197.42c-62.49,0 -113.34,60.33 -113.34,134.49c0,74.15 50.85,134.49 113.34,134.49c62.49,0 113.34,-60.34 113.34,-134.49c0,-74.16 -50.85,-134.49 -113.34,-134.49Z" style="fill:#fff;fill-rule:nonzero;"/><path d="M1213.1,3112.17c-17.08,0 -30.97,19.47 -30.97,43.4c0,23.94 13.89,43.42 30.97,43.42c17.07,0 30.97,-19.48 30.97,-43.42c0,-23.93 -13.9,-43.4 -30.97,-43.4Z" style="fill:#fff;fill-rule:nonzero;"/><path d="M1213.1,3198.99c-17.08,0 -30.97,-19.48 -30.97,-43.42c0,-23.93 13.89,-43.4 30.97,-43.4c17.07,0 30.97,19.47 30.97,43.4c0,23.94 -13.9,43.42 -30.97,43.42Z" style="fill:#c3bac7;fill-rule:nonzero;"/><path d="M874.211,3157.32c0.013,-0.1 0.026,-0.2 0.039,-0.29c-0.013,0.09 -0.026,0.19 -0.039,0.29Zm203.939,-57.15c9.02,-28.3 25.16,-52.61 45.86,-70.02c-20.56,17.3 -36.6,41.42 -45.65,69.48c-0.03,0.1 -0.08,0.19 -0.11,0.28c-0.04,0.09 -0.07,0.17 -0.1,0.26Zm45.88,-70.03c0.16,-0.13 0.32,-0.27 0.48,-0.4c-0.16,0.13 -0.32,0.27 -0.48,0.4Zm0.51,-0.42c0.06,-0.06 0.13,-0.11 0.19,-0.17c-0.06,0.06 -0.13,0.11 -0.19,0.17Zm0.25,-0.22c0.06,-0.04 0.12,-0.09 0.18,-0.14c-0.06,0.05 -0.12,0.1 -0.18,0.14Zm0.24,-0.19c0.07,-0.06 0.15,-0.13 0.23,-0.19c-0.08,0.06 -0.15,0.13 -0.23,0.19Z" style="fill:#8677c7;fill-rule:nonzero;"/><path d="M986.375,3212.34c-2.316,0 -56.086,-24.1 -63.247,-26.15c-1.22,-0.34 -3.598,-0.49 -6.719,-0.49c-12.138,0 -35.473,2.2 -45.222,3.17c0.491,-9.55 1.438,-19.98 3.024,-31.55c0.013,-0.1 0.026,-0.2 0.039,-0.29l46.012,-29.58l41.615,44.43c1.541,1.66 3.692,2.57 5.905,2.57c0.586,0 1.179,-0.07 1.764,-0.2c2.799,-0.63 5.052,-2.68 5.937,-5.4c0.486,-1.5 46.547,-139.76 147.077,-139.76c0.89,0 1.8,0.01 2.7,0.03c-0.08,0.06 -0.16,0.13 -0.23,0.19c-0.02,0.02 -0.04,0.03 -0.06,0.05c-0.06,0.05 -0.12,0.1 -0.18,0.14c-0.02,0.02 -0.04,0.04 -0.06,0.05c-0.06,0.06 -0.13,0.11 -0.19,0.17c-0.01,0.01 -0.02,0.01 -0.03,0.02c-0.16,0.13 -0.32,0.27 -0.48,0.4c-0.01,0.01 -0.01,0.01 -0.02,0.01c-20.7,17.41 -36.84,41.72 -45.86,70.02c-12.97,36 -15.57,59.92 -15.57,63.57c0,3.65 -48.58,24.02 -48.58,24.02c0,0 -27.419,23.5 -27.548,24.55c-0.003,0.02 -0.028,0.03 -0.077,0.03Z" style="fill:#c3bac7;fill-rule:nonzero;"/><path d="M733.81,3134.37c0.338,-0.74 0.686,-1.49 1.046,-2.26c-0.36,0.77 -0.708,1.52 -1.046,2.26Zm1.053,-2.27c0.023,-0.05 0.046,-0.1 0.07,-0.15c-0.024,0.05 -0.046,0.1 -0.07,0.15Z" style="fill:#8677c7;fill-rule:nonzero;"/><path d="M823.805,3158.48l-38.722,-44.46c-1.584,-1.81 -3.834,-2.76 -6.114,-2.76c-1.304,0 -2.618,0.31 -3.823,0.95l-41.394,22.29c0.019,-0.04 0.039,-0.09 0.058,-0.13c0.338,-0.74 0.686,-1.49 1.046,-2.26c0.002,0 0.005,-0.01 0.007,-0.01c0.024,-0.05 0.046,-0.1 0.07,-0.15c6.968,-14.85 18.09,-35.21 34.125,-55.63l7.96,-2.42c0,0 32.933,32.94 52.656,32.94c0.339,0 0.677,-0.01 1.008,-0.03c18.983,-1.14 95.732,-37.86 105.792,-37.86c0.32,0 0.573,0.04 0.754,0.12c5.877,2.48 23.111,9.14 23.111,9.14c0,0 10.185,-42.51 83.431,-68.55c50.49,-17.94 83.02,-20.73 98.37,-20.73c4.36,0 7.33,0.22 8.93,0.39c15.72,3.27 30.66,7.34 44.23,12.5c-17.43,0.69 -33.98,5.35 -49.03,13.31c-8.28,-1.51 -16.24,-2.21 -23.93,-2.21c-92.54,0 -142.699,102.2 -157.522,138.43l-37.354,-39.89c-1.578,-1.68 -3.739,-2.56 -5.917,-2.56c-1.51,0 -3.029,0.42 -4.368,1.29l-54.016,34.72l-39.358,13.57Z" style="fill:#c3bac7;fill-rule:nonzero;"/><path d="M1083.13,3211.8c-14.26,-49.44 0.39,-107.78 18.95,-127.87c-9.99,20.03 -15.74,43.4 -15.74,68.32c0,20.88 4.04,40.67 11.23,58.32c-4.84,0.41 -9.66,0.82 -14.44,1.23Z" style="fill:#8677c7;fill-rule:nonzero;"/><path d="M1197.67,3289.97c-9.7,0 -20.24,-1.01 -31.73,-3.23c-48.06,-9.32 -72.7,-39.9 -82.81,-74.94c4.78,-0.41 9.6,-0.82 14.44,-1.23c18.34,45.03 57.21,76.17 102.11,76.17c46.01,0 85.7,-32.71 103.44,-79.55c-0.71,3.23 -19.07,82.78 -105.45,82.78Z" style="fill:#7664ad;fill-rule:nonzero;"/><path d="M1199.68,3286.74c-44.9,0 -83.77,-31.14 -102.11,-76.17c-7.19,-17.65 -11.23,-37.44 -11.23,-58.32c0,-24.92 5.75,-48.29 15.74,-68.32c0.02,-0.02 0.03,-0.03 0.04,-0.04c0,0 -2.72,142.78 85.02,164.72c12.93,3.23 24.57,4.61 35.02,4.61c60.44,0 80.99,-46.13 80.99,-46.13c0,0 -0.01,0.03 -0.03,0.1c-17.74,46.84 -57.43,79.55 -103.44,79.55Z" style="fill:#c3bac7;fill-rule:nonzero;"/><path d="M1199.68,3025.35c-58.31,0 -105.75,56.93 -105.75,126.9c0,69.97 47.44,126.89 105.75,126.89c58.3,0 105.74,-56.92 105.74,-126.89c0,-69.97 -47.44,-126.9 -105.74,-126.9Zm0,285.17c-75.61,0 -137.12,-71 -137.12,-158.27c0,-87.27 61.51,-158.28 137.12,-158.28c75.6,0 137.12,71.01 137.12,158.28c0,87.27 -61.52,158.27 -137.12,158.27Z" style="fill:#371a45;fill-rule:nonzero;"/><path d="M908.992,3276.52l0.057,0l-0.057,0Zm267.528,31.38l-267.496,0c-2.28,-0.02 -21.638,-0.74 -38.376,-20.26c-19.417,-22.64 -26.929,-60.4 -22.42,-112.42l-21.831,7.53c-6.047,2.07 -12.746,0.29 -16.946,-4.53l-34.072,-39.12l-50.071,26.96c-5.617,3.04 -12.517,2.35 -17.441,-1.72c-4.92,-4.08 -6.882,-10.73 -4.959,-16.82c1.634,-5.18 41.35,-127.28 155.821,-164.57c105.942,-34.51 307.871,-45.59 395.861,24.66c6.77,5.41 7.88,15.28 2.47,22.05c-5.41,6.78 -15.28,7.88 -22.05,2.47c-69.51,-55.49 -254.121,-55.97 -366.565,-19.34c-60.056,19.56 -97.058,68.14 -116.936,103.52l20.03,-10.78c6.457,-3.48 14.458,-2.02 19.27,3.51l35.359,40.59l35.437,-12.22c5.18,-1.79 10.91,-0.74 15.124,2.76c4.216,3.49 6.306,8.93 5.515,14.34c-10.476,71.73 2.642,100.77 11.394,111.7c7.2,8.99 14.663,10.17 15.843,10.31l267.039,0c8.67,0 15.69,7.02 15.69,15.69c0,8.66 -7.02,15.69 -15.69,15.69Z" style="fill:#371a45;fill-rule:nonzero;"/><path d="M967.781,3182.04c-4.289,0 -8.452,-1.76 -11.452,-4.97l-37.283,-39.81l-43.843,28.18c-7.29,4.68 -16.999,2.58 -21.682,-4.71c-4.685,-7.29 -2.576,-16.99 4.715,-21.68l54.841,-35.26c6.377,-4.09 14.763,-3.05 19.936,2.48l29.085,31.05c27.744,-63.48 91.622,-148.79 188.432,-129.18c8.49,1.72 13.98,10 12.26,18.49c-1.72,8.5 -9.97,14.01 -18.49,12.26c-110.091,-22.25 -161.094,130.75 -161.594,132.3c-1.712,5.28 -6.089,9.26 -11.507,10.47c-1.135,0.25 -2.282,0.38 -3.418,0.38Z" style="fill:#371a45;fill-rule:nonzero;"/><path d="M1213.1,3116.62c-14.37,0 -26.52,17.84 -26.52,38.96c0,21.11 12.15,38.95 26.52,38.95c14.37,0 26.51,-17.84 26.51,-38.95c0,-21.12 -12.14,-38.96 -26.51,-38.96Zm0,103.02c-28.46,0 -51.62,-28.74 -51.62,-64.06c0,-35.33 23.16,-64.07 51.62,-64.07c28.46,0 51.62,28.74 51.62,64.07c0,35.32 -23.16,64.06 -51.62,64.06Z" style="fill:#371a45;fill-rule:nonzero;"/><path d="M1016.27,1586.47c66.88,97.62 158.86,178.96 270.46,233.68c22.77,11.15 46.27,21.2 70.55,30.04c11.8,4.34 23.87,8.34 36.1,12.16c36.91,11.29 74.06,19.46 111.19,24.65c32,4.55 64.01,6.84 95.75,7.06c38.33,0.29 76.34,-2.54 113.69,-8.23c13.62,-2.12 27.14,-4.58 40.57,-7.4c245.62,-52.04 457.37,-229.83 538.69,-483.38c119.87,-373.49 -88.74,-769.802 -465.82,-885.239c-72.65,-22.181 -146.31,-32.448 -218.65,-31.646c-8.46,0.013 -16.95,0.271 -25.42,0.705c-22.68,1.006 -45.18,3.068 -67.46,6.177c-51.51,7.209 -101.86,19.954 -150.12,37.722c-48.27,17.711 -94.57,40.516 -137.93,67.893c-13.79,8.697 -27.29,17.84 -40.5,27.49c-19.79,14.467 -38.87,29.875 -57.18,46.392c-91.361,81.966 -162.732,188.136 -202.635,312.567c-68.966,214.839 -29.213,437.199 88.715,609.359Z" style="fill:#fff;fill-rule:nonzero;"/><path d="M1017.95,1585.31c68.02,99.28 161.27,179.85 269.68,233.01c22.97,11.24 46.64,21.32 70.35,29.95c10.89,4 22.67,7.97 36.01,12.13c36.29,11.1 73.59,19.37 110.87,24.58c31.23,4.44 63.36,6.81 95.47,7.04c37.64,0.32 75.73,-2.48 113.37,-8.21c13.48,-2.09 27.1,-4.58 40.46,-7.38c253.18,-53.64 459.02,-238.34 537.16,-482.01c57.58,-179.38 41.42,-369.75 -45.48,-536.039c-87.6,-167.624 -236.41,-290.722 -418.99,-346.618c-71.25,-21.753 -144.54,-32.371 -218.03,-31.556c-8,0.013 -16.51,0.25 -25.34,0.704c-22.5,0.999 -45.13,3.069 -67.27,6.16c-50.88,7.118 -101.25,19.775 -149.71,37.615c-48.03,17.627 -94.31,40.405 -137.54,67.705c-13.91,8.768 -27.49,17.993 -40.39,27.412c-20.09,14.69 -39.27,30.254 -57.01,46.257c-93.78,84.138 -163.654,191.914 -202.06,311.677c-66.46,207.033 -34.219,428.493 88.45,607.573Zm587.66,310.82c-1.77,0 -3.54,-0.01 -5.31,-0.02c-32.3,-0.24 -64.6,-2.62 -96.01,-7.09c-37.48,-5.23 -75,-13.55 -111.51,-24.72c-13.42,-4.18 -25.25,-8.17 -36.2,-12.19c-23.84,-8.68 -47.65,-18.81 -70.74,-30.12c-109.05,-53.47 -202.85,-134.51 -271.25,-234.37c-123.397,-180.14 -155.83,-402.89 -88.982,-611.132c38.629,-120.453 108.902,-228.846 203.212,-313.466c17.84,-16.093 37.14,-31.745 57.34,-46.521c12.97,-9.472 26.64,-18.747 40.62,-27.568c43.48,-27.45 90.01,-50.358 138.31,-68.083c48.73,-17.94 99.39,-30.667 150.55,-37.828c22.27,-3.105 45.03,-5.19 67.64,-6.193c8.88,-0.457 17.47,-0.693 25.51,-0.708c73.8,-0.828 147.61,9.858 219.25,31.736c183.65,56.215 333.31,180.029 421.42,348.633c87.42,167.26 103.67,358.75 45.76,539.18c-78.6,245.06 -285.6,430.81 -540.22,484.76c-13.43,2.81 -27.12,5.31 -40.67,7.42c-36.1,5.5 -72.64,8.28 -108.72,8.28Z" style="fill:#371a45;fill-rule:nonzero;"/><path d="M2293.27,1395.03c-81.3,253.58 -293.09,431.38 -538.71,483.39c-13.42,2.83 -26.94,5.3 -40.54,7.4c-37.36,5.71 -75.36,8.51 -113.69,8.25c-31.74,-0.25 -63.76,-2.51 -95.74,-7.06c-37.15,-5.18 -74.28,-13.35 -111.22,-24.64c-12.21,-3.86 -24.27,-7.84 -36.1,-12.15c-24.28,-8.86 -47.76,-18.95 -70.54,-30.08c-111.6,-54.72 -203.6,-136.03 -270.47,-233.69c-36.753,-53.63 -65.927,-112.17 -86.571,-173.82c65.981,91.71 154.601,168.11 261.071,220.32c22.76,11.19 46.26,21.22 70.54,30.08c11.78,4.33 23.85,8.31 36.1,12.14c36.94,11.3 74.06,19.47 111.18,24.67c32.02,4.52 64,6.81 95.74,7.06c38.32,0.26 76.37,-2.57 113.69,-8.25c13.64,-2.12 27.15,-4.59 40.58,-7.43c245.62,-52 457.37,-229.78 538.7,-483.38c47.49,-147.93 43.39,-299.42 -2.24,-435.601c125.28,173.933 168.99,402.351 98.22,622.791Z" style="fill:#d8d8d8;fill-rule:nonzero;"/><path d="M1029.25,1577.57c66.68,97.34 158.11,176.34 264.41,228.45c22.53,11.03 45.75,20.92 69,29.39c10.71,3.93 22.28,7.83 35.4,11.92c35.54,10.87 72.13,18.98 108.69,24.09c30.67,4.36 62.17,6.68 93.68,6.91c36.83,0.31 74.28,-2.43 111.21,-8.05c13.2,-2.06 26.58,-4.5 39.71,-7.25c248.36,-52.62 450.29,-233.79 526.94,-472.79c56.44,-175.87 40.61,-362.5 -44.59,-525.516c-85.89,-164.353 -231.8,-285.056 -410.86,-339.868c-69.89,-21.338 -141.83,-31.758 -213.87,-30.957c-7.9,0.012 -16.19,0.244 -24.79,0.686c-22.17,0.981 -44.36,3.015 -66.08,6.045c-49.91,6.985 -99.32,19.402 -146.87,36.904c-47.14,17.301 -92.54,39.649 -134.96,66.431c-13.65,8.611 -26.98,17.656 -39.62,26.892c-19.71,14.414 -38.53,29.678 -55.92,45.369c-92,82.544 -160.527,188.24 -198.193,305.691c-65.156,202.983 -33.549,420.083 86.713,595.653Zm576.36,332.25c-1.8,0 -3.61,-0.01 -5.41,-0.02c-32.9,-0.24 -65.82,-2.67 -97.84,-7.22c-38.16,-5.33 -76.39,-13.81 -113.58,-25.18c-13.71,-4.28 -25.76,-8.34 -36.93,-12.44c-24.25,-8.83 -48.5,-19.16 -72.03,-30.68c-111.17,-54.5 -206.79,-137.12 -276.53,-238.92c-125.804,-183.66 -158.868,-410.75 -90.719,-623.057c39.371,-122.76 110.989,-233.233 207.109,-319.47c18.16,-16.383 37.82,-32.332 58.4,-47.384c13.22,-9.66 27.15,-19.111 41.4,-28.095c44.28,-27.964 91.69,-51.299 140.9,-69.356c49.63,-18.272 101.23,-31.24 153.37,-38.535c22.69,-3.166 45.88,-5.29 68.93,-6.314c9.01,-0.46 17.82,-0.705 26.09,-0.72c75.11,-0.796 150.27,10.044 223.27,32.332c187.18,57.302 339.73,183.513 429.56,355.386c89.12,170.533 105.69,365.763 46.65,549.713c-80.09,249.72 -290.99,439 -550.41,493.97c-13.7,2.86 -27.62,5.4 -41.41,7.55c-36.82,5.6 -74.06,8.44 -110.82,8.44Z" style="fill:#371a45;fill-rule:nonzero;"/><path d="M1031.8,1575.83c66.38,96.89 157.4,175.53 263.22,227.42c22.43,10.98 45.54,20.82 68.7,29.25c10.67,3.92 22.19,7.8 35.26,11.88c35.37,10.81 71.8,18.89 108.2,23.98c30.54,4.34 61.9,6.65 93.27,6.88c36.73,0.29 73.96,-2.42 110.73,-8.02c13.14,-2.04 26.46,-4.48 39.54,-7.22c247.27,-52.39 448.31,-232.76 524.62,-470.7c56.19,-175.08 40.43,-360.87 -44.38,-523.142c-85.5,-163.616 -230.77,-283.775 -409.02,-338.345c-69.59,-21.248 -141.3,-31.575 -212.93,-30.823c-7.88,0.014 -16.12,0.245 -24.67,0.683c-22.09,0.979 -44.19,3.003 -65.81,6.021c-49.69,6.954 -98.89,19.316 -146.23,36.743c-46.94,17.224 -92.14,39.478 -134.38,66.145c-13.59,8.572 -26.86,17.579 -39.44,26.773c-19.63,14.351 -38.36,29.548 -55.68,45.168c-91.6,82.183 -159.818,187.41 -197.319,304.338c-64.858,202.059 -33.381,418.199 86.319,592.969Zm573.81,337.08c-1.81,0 -3.62,-0.01 -5.43,-0.02c-33.04,-0.24 -66.1,-2.68 -98.26,-7.25c-38.31,-5.35 -76.7,-13.86 -114.05,-25.29c-13.77,-4.29 -25.87,-8.37 -37.08,-12.49c-24.35,-8.86 -48.71,-19.23 -72.33,-30.8c-111.65,-54.74 -207.68,-137.71 -277.72,-239.96c-126.349,-184.44 -159.557,-412.52 -91.112,-625.742c39.535,-123.282 111.451,-234.224 207.992,-320.828c18.23,-16.445 37.97,-32.466 58.64,-47.576c13.28,-9.702 27.26,-19.194 41.57,-28.217c44.46,-28.079 92.07,-51.511 141.48,-69.644c49.83,-18.345 101.66,-31.367 154.01,-38.691c22.79,-3.182 46.08,-5.315 69.22,-6.341c9.04,-0.464 17.91,-0.71 26.22,-0.725c75.37,-0.776 150.88,10.086 224.18,32.466c187.99,57.546 341.18,184.299 431.4,356.914c89.51,171.274 106.15,367.344 46.86,552.084c-80.43,250.78 -292.22,440.85 -552.72,496.05c-13.76,2.88 -27.73,5.43 -41.57,7.59c-36.98,5.63 -74.38,8.47 -111.3,8.47Z" style="fill:#371a45;fill-rule:nonzero;"/><path d="M1137.47,1721.75c445.96,245.15 994.32,-18.87 975.79,-519.42c-12.61,-340.536 -359.99,-588.594 -690.43,-553.072c-240.49,25.853 -464.671,154.932 -529.07,534.302c0,0 -2.288,172.08 55.485,280.54c57.775,108.46 132.575,204.16 132.575,204.16l55.65,53.49Z" style="fill:#f58600;fill-rule:nonzero;"/><path d="M2113.24,1202.34c18.55,500.53 -529.83,764.55 -975.77,519.43l-11.27,-10.85c467.67,33.63 899.31,-285.26 890.1,-791.766c57.3,81.816 93.03,178.096 96.94,283.186Z" style="fill:#c06900;fill-rule:nonzero;"/><path d="M1029.21,1577.6c66.691,97.34 158.131,176.34 264.431,228.46c22.53,11.03 45.75,20.92 69.01,29.39c10.71,3.93 22.28,7.83 35.4,11.92c35.14,10.75 71.32,18.81 107.48,23.92c193.74,-3.66 375.84,-80.72 499.74,-211.53c116.27,-122.74 174.25,-281.86 167.66,-460.13c-6.02,-162.82 -83.1,-316.327 -217.03,-432.232c-149.74,-129.588 -352.22,-194.805 -541.65,-174.434c-104.96,11.285 -197.4,39.658 -274.78,84.336c-91.38,82.363 -159.469,187.654 -196.977,304.602c-65.161,202.998 -33.551,420.118 86.716,595.698Zm474.411,325.11l-1.22,-0.17c-38.19,-5.34 -76.42,-13.81 -113.61,-25.19c-13.71,-4.27 -25.76,-8.33 -36.92,-12.43c-24.25,-8.83 -48.51,-19.16 -72.04,-30.68c-111.16,-54.5 -206.77,-137.11 -276.5,-238.91c-125.798,-183.64 -158.862,-410.72 -90.714,-623.013c39.365,-122.752 110.973,-233.217 207.094,-319.45l1.2,-1.077l1.39,-0.811c81.5,-47.37 178.59,-77.387 288.6,-89.216c197.9,-21.282 409.33,46.726 565.54,181.907c140.59,121.665 221.5,283.18 227.85,454.8c6.9,186.89 -54.04,353.87 -176.24,482.87c-129.92,137.17 -320.63,217.85 -523.21,221.35l-1.22,0.02Z" style="fill:#371a45;fill-rule:nonzero;"/><path d="M1146.84,1708.99c222.3,121.42 485.18,119.78 686.55,-4.4c175.69,-108.34 271.98,-291.19 264.19,-501.67c-5.35,-144.38 -73.71,-280.503 -192.5,-383.298c-132.86,-114.973 -312.53,-172.84 -480.57,-154.763c-288.07,30.964 -461.36,205.949 -515.069,520.071c-0.036,15.15 0.913,172.78 53.65,271.79c53.569,100.56 122.899,191.28 130.419,201.03l53.33,51.24Zm346.75,121.28c-123.14,0 -248.7,-31.57 -363.67,-94.77l-1.82,-1l-58.65,-56.58c-0.75,-0.96 -76.305,-98.03 -134.054,-206.45c-58.987,-110.74 -57.419,-280.93 -57.324,-288.12l0.22,-2.42c56.096,-330.451 238.738,-514.58 542.868,-547.272c176.54,-18.975 365.13,41.669 504.45,162.236c125.45,108.552 197.65,252.686 203.33,405.856c8.22,222.1 -93.5,415.11 -279.08,529.55c-106.94,65.95 -230.34,98.97 -356.27,98.97Z" style="fill:#371a45;fill-rule:nonzero;"/><path d="M2426.51,1138.78c22.13,137.72 -41.74,266.73 -142.68,288.13c-100.94,21.41 -200.701,-72.9 -222.82,-210.62c-0.15,-0.86 -0.28,-1.78 -0.39,-2.65c-20.92,-136.72 42.84,-264.235 143.07,-285.48c77.98,-16.54 155.25,35.982 196.58,124.2c12.15,25.98 21.21,55.1 26.24,86.42Z" style="fill:#fff;fill-rule:nonzero;"/><path d="M2426.51,1138.78c22.13,137.72 -41.74,266.73 -142.68,288.13c-100.94,21.41 -200.701,-72.9 -222.82,-210.62c-0.15,-0.86 -0.28,-1.78 -0.39,-2.65c13.37,11.78 32.88,22.04 55.53,12.38c39.66,-16.92 98.98,-121.08 98.98,-121.08c0,0 80.14,-23.32 185.14,-52.58c12.15,25.98 21.21,55.1 26.24,86.42Z" style="fill:#d8d8d8;fill-rule:nonzero;"/><path d="M2232.52,943.951c-8.32,0 -16.64,0.869 -24.9,2.622c-91.12,19.321 -148.54,138.967 -128.02,266.717c11.85,73.75 48.66,138.18 98.47,172.35c32.38,22.21 67.6,30.11 101.86,22.84c91.11,-19.32 148.54,-138.97 128.02,-266.72c-11.85,-73.74 -48.66,-138.17 -98.48,-172.343c-24.56,-16.853 -50.77,-25.466 -76.95,-25.466Zm22.26,504.849c-33.66,0 -67.03,-10.86 -98.01,-32.11c-59.02,-40.49 -100.7,-112.45 -114.35,-197.42c-23.65,-147.26 46.95,-286.115 157.39,-309.533c44.59,-9.449 89.88,0.444 130.96,28.628c59.02,40.488 100.7,112.455 114.35,197.425c23.66,147.26 -46.95,286.11 -157.38,309.53c-10.97,2.32 -21.98,3.48 -32.96,3.48Z" style="fill:#371a45;fill-rule:nonzero;"/><path d="M2455.11,1237.13c-17.39,107.5 -98.06,172.93 -180.2,146.12c-82.13,-26.8 -134.62,-135.68 -117.24,-243.19c17.38,-107.5 98.06,-172.926 180.19,-146.123c82.14,26.803 134.63,135.683 117.25,243.193Z" style="fill:#fff;fill-rule:nonzero;"/><path d="M2300.66,989.998c-20.98,0 -41.57,5.932 -60.85,17.692c-41.3,25.18 -70.48,73.55 -80.04,132.71c-17.2,106.35 34.75,214.39 115.8,240.84c33.31,10.86 66.99,6.81 97.4,-11.73c41.3,-25.19 70.48,-73.56 80.04,-132.72c17.2,-106.35 -34.75,-214.38 -115.8,-240.84c-12.19,-3.972 -24.44,-5.952 -36.55,-5.952Zm11.49,401.452c-12.56,0 -25.25,-2.05 -37.89,-6.18c-82.96,-27.07 -136.2,-137.22 -118.68,-245.55c9.76,-60.38 39.66,-109.83 82.02,-135.66c31.5,-19.206 66.4,-23.405 100.92,-12.138c82.96,27.068 136.2,137.218 118.68,245.548c-9.76,60.38 -39.66,109.83 -82.02,135.66c-19.97,12.17 -41.3,18.32 -63.03,18.32Z" style="fill:#371a45;fill-rule:nonzero;"/><path d="M2178.33,1295.81c-15.13,-34.89 -20.59,-74.07 -17.55,-112.21c41.3,76.62 121.55,97.45 185.62,45.35c41.42,-33.66 66.52,-90.07 71.21,-149.09c2.63,4.82 5.07,9.94 7.38,15.22c38.48,88.85 14.45,205.82 -53.67,261.24c-68.13,55.43 -154.53,28.29 -192.99,-60.51Z" style="fill:#d8d8d8;fill-rule:nonzero;"/><path d="M2295.25,996.43c-5.61,0 -11.19,0.6 -16.72,1.82c-66.44,14.63 -107.44,109.95 -91.39,212.49c9.73,62.11 39.01,115.23 78.32,142.1c22.2,15.16 45.94,20.53 68.69,15.52c66.44,-14.63 107.44,-109.95 91.39,-212.49c-9.73,-62.11 -39.01,-115.23 -78.32,-142.1c-16.81,-11.48 -34.5,-17.34 -51.97,-17.34Zm21.95,411.45c-24.93,0 -49.77,-8.09 -72.98,-23.95c-47.73,-32.61 -82.98,-95.18 -94.28,-167.37c-19.08,-121.82 34.98,-236.255 120.5,-255.085c33.13,-7.305 67.03,0.032 98.02,21.206c47.73,32.609 82.97,95.179 94.28,167.369c19.07,121.82 -34.98,236.25 -120.5,255.09c-8.32,1.83 -16.69,2.74 -25.04,2.74Z" style="fill:#371a45;fill-rule:nonzero;"/><clipPath id="_clip1"><path d="M1134.98,1511.75c-82.46,-58.92 -133.57,-131.08 -147.466,-238.38c-1.341,-10.58 -2.327,-21.54 -2.981,-32.83c-0.159,-2.6 -0.259,-5.18 -0.319,-7.78l0.018,-0.16c0.305,-22.96 1.858,-53.14 6.489,-87.05c13.899,-102.29 55.499,-238.622 174.289,-314.24c107.1,-68.169 217.29,-87.426 301.67,-87.426c90.64,0 151.49,22.213 146.75,29.881c0,0 -1.24,-0.029 -3.59,-0.029c-34.08,0 -302.3,5.935 -446.33,189.587c-0.16,0.206 -0.32,0.413 -0.48,0.62c-32.37,41.347 -67.93,150.667 -74.83,202.347c-9.13,68.34 -5.3,116.67 -0.26,159.08c15.39,128.98 47.04,186.38 47.04,186.38Z"/></clipPath><g clip-path="url(#_clip1)"><rect x="984.214" y="743.884" width="633.956" height="767.866" style="fill:#9b8da2;fill-rule:nonzero;"/></g><path d="M1879.02,1216.14c-40.35,0 -80.58,-27.93 -98.59,-72.53c-22.78,-56.39 -1.41,-118.08 47.74,-137.78c10.29,-4.12 20.98,-6.08 31.66,-6.08c40.35,0 80.57,27.94 98.59,72.53c22.78,56.39 1.4,118.08 -47.75,137.78c-10.29,4.12 -20.97,6.08 -31.65,6.08Z" style="fill:#9b8da2;fill-rule:nonzero;"/><path d="M1915.68,1321.31c-2.55,-3.01 -4.81,-6.39 -6.7,-10.1c-11.37,-22.41 -4.74,-48.51 14.8,-58.3c5.03,-2.52 10.43,-3.72 15.87,-3.72c3.97,0 7.97,0.64 11.85,1.86c-10.75,24.25 -22.71,47.67 -35.82,70.26Z" style="fill:#9b8da2;fill-rule:nonzero;"/><path d="M1949.08,1337.76c-12.17,0 -24.53,-5.99 -33.4,-16.45c13.11,-22.59 25.07,-46.01 35.82,-70.26c11.44,3.6 21.95,12.28 28.25,24.7c11.37,22.4 4.74,48.5 -14.8,58.29c-5.03,2.53 -10.43,3.72 -15.87,3.72Z" style="fill:#918796;fill-rule:nonzero;"/></g></svg>