<svg xmlns="http://www.w3.org/2000/svg" width="67.414" height="62" viewBox="0 0 67.414 62">
  <g id="Raggruppa_47" data-name="Raggruppa 47" transform="translate(0.707 1)">
    <path id="Tracciato_745" data-name="Tracciato 745" d="M13.5,30H0V0" transform="translate(9 30)" fill="none" stroke="#f58600" stroke-linejoin="round" stroke-miterlimit="10" stroke-width="2"/>
    <path id="Tracciato_746" data-name="Tracciato 746" d="M13.5,0V30H0" transform="translate(43.5 30)" fill="none" stroke="#f58600" stroke-linejoin="round" stroke-miterlimit="10" stroke-width="2"/>
    <path id="Tracciato_747" data-name="Tracciato 747" d="M0,33,33,0,66,33" fill="none" stroke="#f58600" stroke-linejoin="round" stroke-miterlimit="10" stroke-width="2"/>
    <path id="Tracciato_748" data-name="Tracciato 748" d="M7.5,6V0H0V13.5" transform="translate(12 1.5)" fill="none" stroke="#f58600" stroke-linejoin="round" stroke-miterlimit="10" stroke-width="2"/>
    <path id="Tracciato_749" data-name="Tracciato 749" d="M19.436,4.029A13.73,13.73,0,0,0,0,4.029" transform="translate(23.421 46.868)" fill="none" stroke="#232d36" stroke-miterlimit="10" stroke-width="2"/>
    <path id="Tracciato_750" data-name="Tracciato 750" d="M9.81,2.026A6.959,6.959,0,0,0,0,2.026" transform="translate(28.233 55.175)" fill="none" stroke="#232d36" stroke-miterlimit="10" stroke-width="2"/>
    <path id="Tracciato_751" data-name="Tracciato 751" d="M27.128,5.621A19.175,19.175,0,0,0,0,5.621" transform="translate(19.742 38.8)" fill="none" stroke="#232d36" stroke-miterlimit="10" stroke-width="2"/>
  </g>
</svg>
