<svg xmlns="http://www.w3.org/2000/svg" width="325.35" height="60.51" viewBox="0 0 325.35 60.51">
  <g id="Raggruppa_9" data-name="Raggruppa 9" transform="translate(-299.61 -19.721)">
    <g id="Raggruppa_1" data-name="Raggruppa 1" transform="translate(85.23 -230.114)">
      <g id="Raggruppa_1-2" data-name="Raggruppa 1" transform="translate(309.829 266.651)">
        <path id="Tracciato_1" data-name="Tracciato 1" d="M323.814,280.6a10.31,10.31,0,0,0-9.5,0,8.753,8.753,0,0,0-3.283,3.155,9.26,9.26,0,0,0,0,9.141,8.751,8.751,0,0,0,3.283,3.154,10.305,10.305,0,0,0,9.5,0,8.628,8.628,0,0,0,3.267-3.154,9.368,9.368,0,0,0,0-9.141A8.629,8.629,0,0,0,323.814,280.6Zm-1.272,10.01a4.03,4.03,0,0,1-1.417,1.577,3.722,3.722,0,0,1-2.06.579,3.8,3.8,0,0,1-2.075-.579,3.983,3.983,0,0,1-1.432-1.577,4.641,4.641,0,0,1-.483-2.285,4.735,4.735,0,0,1,.483-2.3,3.957,3.957,0,0,1,1.432-1.593,3.8,3.8,0,0,1,2.075-.579,3.722,3.722,0,0,1,2.06.579,4,4,0,0,1,1.417,1.593,4.748,4.748,0,0,1,.483,2.3A4.654,4.654,0,0,1,322.542,290.609Z" transform="translate(-309.829 -273.004)" fill="#f58600"/>
        <path id="Tracciato_2" data-name="Tracciato 2" d="M374.6,274.5a2.427,2.427,0,0,1,.178-.982,1.171,1.171,0,0,1,.563-.6,2.154,2.154,0,0,1,.965-.194,2.263,2.263,0,0,1,.708.129,5.108,5.108,0,0,1,.8.354l1.481-3.766a6.088,6.088,0,0,0-1.835-1,6.907,6.907,0,0,0-2.252-.354,5.766,5.766,0,0,0-3.042.788,5.491,5.491,0,0,0-2.027,2.14,6.3,6.3,0,0,0-.724,3.026v1.32H366.94v4.248h2.479V291.98H374.6V279.621h3.508v-4.248H374.6Z" transform="translate(-334.529 -268.098)" fill="#f58600"/>
        <path id="Tracciato_3" data-name="Tracciato 3" d="M352.489,273.521a1.171,1.171,0,0,1,.563-.6,2.156,2.156,0,0,1,.965-.194,2.263,2.263,0,0,1,.708.129,5.13,5.13,0,0,1,.8.354l1.481-3.766a6.088,6.088,0,0,0-1.835-1,6.905,6.905,0,0,0-2.252-.354,5.765,5.765,0,0,0-3.042.788,5.491,5.491,0,0,0-2.027,2.14,6.3,6.3,0,0,0-.724,3.026v1.32h-2.479v4.248h2.479V291.98h5.181V279.621h3.508v-4.248h-3.508V274.5A2.427,2.427,0,0,1,352.489,273.521Z" transform="translate(-324.889 -268.098)" fill="#f58600"/>
        <path id="Tracciato_4" data-name="Tracciato 4" d="M403.073,281.887a7.726,7.726,0,0,0-2.591-1.8,8.264,8.264,0,0,0-3.3-.644,9.049,9.049,0,0,0-3.492.659,8.025,8.025,0,0,0-2.752,1.867,8.593,8.593,0,0,0-1.8,2.848,9.785,9.785,0,0,0-.644,3.6,8.789,8.789,0,0,0,1.158,4.522,8.283,8.283,0,0,0,3.251,3.122,10.112,10.112,0,0,0,4.924,1.143,10.246,10.246,0,0,0,2.334-.274,10.856,10.856,0,0,0,2.3-.821,9.689,9.689,0,0,0,2.125-1.416l-2.414-3.412a7.354,7.354,0,0,1-1.851,1.094,5.484,5.484,0,0,1-1.948.322,5.949,5.949,0,0,1-2.719-.579,4.05,4.05,0,0,1-1.738-1.625,4.342,4.342,0,0,1-.418-1.046h11.731l.032-1.384a9.012,9.012,0,0,0-.515-3.444A7.9,7.9,0,0,0,403.073,281.887Zm-9.3,3.814a3.185,3.185,0,0,1,1.335-1.448,4.3,4.3,0,0,1,2.141-.5,3.55,3.55,0,0,1,1.609.354,3,3,0,0,1,1.143.981,2.881,2.881,0,0,1,.5,1.432v.032h-7.013A4.288,4.288,0,0,1,393.771,285.7Z" transform="translate(-343.851 -273.004)" fill="#f58600"/>
        <path id="Tracciato_5" data-name="Tracciato 5" d="M433.868,279.441a5.267,5.267,0,0,0-2.542.644,6.934,6.934,0,0,0-2.5,2.327l-.106-2.616h-4.892v17.09h5.182v-8.561a3.755,3.755,0,0,1,.241-1.384,3.356,3.356,0,0,1,.66-1.062,2.774,2.774,0,0,1,1.029-.692,3.57,3.57,0,0,1,1.32-.241,5.233,5.233,0,0,1,1.239.145,3.2,3.2,0,0,1,.95.371l1.416-5.7a8.829,8.829,0,0,0-.917-.225A5.706,5.706,0,0,0,433.868,279.441Z" transform="translate(-359.133 -273.004)" fill="#f58600"/>
        <path id="Tracciato_6" data-name="Tracciato 6" d="M456.1,272.465h-5.15v4.313H447.93v4.506h3.025v12.585h5.15V281.283h3.315v-4.506H456.1Z" transform="translate(-369.558 -269.987)" fill="#f58600"/>
        <path id="Tracciato_7" data-name="Tracciato 7" d="M483.677,281.9a6.516,6.516,0,0,0-1.062-1.119,5.864,5.864,0,0,0-1.786-.982,6.748,6.748,0,0,0-2.237-.354,7.05,7.05,0,0,0-3.959,1.142,7.893,7.893,0,0,0-2.736,3.138,11.005,11.005,0,0,0,0,9.157,8,8,0,0,0,2.688,3.154,7.006,7.006,0,0,0,6.034.789,7,7,0,0,0,1.867-.965,6.39,6.39,0,0,0,1.094-1.038v2.067h5.215V279.8h-5.118Zm-1.77,10.388a3.783,3.783,0,0,1-2.06.547,3.638,3.638,0,0,1-2.012-.547,3.68,3.68,0,0,1-1.335-1.561,6.193,6.193,0,0,1,0-4.8,3.788,3.788,0,0,1,1.335-1.577,3.565,3.565,0,0,1,2.012-.564,3.705,3.705,0,0,1,2.06.564,3.755,3.755,0,0,1,1.352,1.577,6.2,6.2,0,0,1,0,4.8A3.649,3.649,0,0,1,481.907,292.283Z" transform="translate(-379.492 -273.004)" fill="#f58600"/>
        <path id="Tracciato_8" data-name="Tracciato 8" d="M520.973,288.743a5.472,5.472,0,0,0-1.738-1.224,16.5,16.5,0,0,0-2.607-.933q-1.224-.354-1.931-.6a5.663,5.663,0,0,1-1.03-.435,1.424,1.424,0,0,1-.5-.482,1.154,1.154,0,0,1-.177-.611,1.115,1.115,0,0,1,.515-.982,1.759,1.759,0,0,1,.627-.257,4.066,4.066,0,0,1,.853-.08,4.521,4.521,0,0,1,1.417.257,7.734,7.734,0,0,1,2.8,1.674l2.7-3.025a9.08,9.08,0,0,0-1.979-1.384,10.879,10.879,0,0,0-2.4-.9,11.137,11.137,0,0,0-2.7-.322,8.9,8.9,0,0,0-2.559.37,6.953,6.953,0,0,0-2.188,1.078,5.583,5.583,0,0,0-1.513,1.674,4.194,4.194,0,0,0-.564,2.157,4.619,4.619,0,0,0,.354,1.851,5.058,5.058,0,0,0,1,1.5,6.518,6.518,0,0,0,1.818,1.239,14.283,14.283,0,0,0,2.623.917q1.062.29,1.739.515a6.4,6.4,0,0,1,.965.386,1.111,1.111,0,0,1,.579,1,1.185,1.185,0,0,1-.129.563,1.242,1.242,0,0,1-.37.418,1.81,1.81,0,0,1-.6.274,3.083,3.083,0,0,1-.8.1,6.828,6.828,0,0,1-2.382-.467,6.215,6.215,0,0,1-2.253-1.465l-3.122,2.7a7.8,7.8,0,0,0,3.042,2.156,11.36,11.36,0,0,0,4.425.8,8.856,8.856,0,0,0,3.669-.725,6.138,6.138,0,0,0,2.527-2,4.852,4.852,0,0,0,.917-2.913,4.619,4.619,0,0,0-.258-1.561A3.6,3.6,0,0,0,520.973,288.743Z" transform="translate(-395.288 -273.004)" fill="#f58600"/>
        <path id="Tracciato_9" data-name="Tracciato 9" d="M549.234,290.268a2.98,2.98,0,0,1-.225,1.174,2.916,2.916,0,0,1-.628.934,2.833,2.833,0,0,1-.965.628,3.3,3.3,0,0,1-1.239.225,2.853,2.853,0,0,1-1.545-.4,2.464,2.464,0,0,1-.966-1.142,4.41,4.41,0,0,1-.322-1.77v-9.849h-5.182v10.557a8.663,8.663,0,0,0,.724,3.7,5.361,5.361,0,0,0,2.06,2.366,6.062,6.062,0,0,0,3.235.821,6.465,6.465,0,0,0,2.671-.563,6.748,6.748,0,0,0,2.156-1.513,5.818,5.818,0,0,0,.406-.477l.141,2.2h4.86v-17.09h-5.182Z" transform="translate(-408.583 -273.274)" fill="#f58600"/>
        <path id="Tracciato_10" data-name="Tracciato 10" d="M589.043,280.64a6.844,6.844,0,0,0-3.895-1.142,7.549,7.549,0,0,0-2.816.531,6.427,6.427,0,0,0-2.2,1.4c-.084.084-.153.172-.228.258l-.094-1.867h-4.892v24.172H580.1v-8.819a6.483,6.483,0,0,0,2.221,1.48,7.154,7.154,0,0,0,2.768.548,6.965,6.965,0,0,0,3.943-1.143,7.8,7.8,0,0,0,2.7-3.138,11.173,11.173,0,0,0,0-9.157A7.887,7.887,0,0,0,589.043,280.64Zm-1.835,10.09a3.755,3.755,0,0,1-1.352,1.561,3.642,3.642,0,0,1-2.028.563,3.7,3.7,0,0,1-2.059-.563,3.769,3.769,0,0,1-1.352-1.561,5.429,5.429,0,0,1-.482-2.382,5.568,5.568,0,0,1,.482-2.382,3.63,3.63,0,0,1,1.352-1.577,3.784,3.784,0,0,1,2.059-.547,3.63,3.63,0,0,1,2.044.563,3.791,3.791,0,0,1,1.335,1.577,6.07,6.07,0,0,1,0,4.748Z" transform="translate(-424.478 -273.028)" fill="#f58600"/>
        <path id="Tracciato_11" data-name="Tracciato 11" d="M624.77,281.887a7.721,7.721,0,0,0-2.591-1.8,8.262,8.262,0,0,0-3.3-.644,9.046,9.046,0,0,0-3.492.659,8.027,8.027,0,0,0-2.752,1.867,8.6,8.6,0,0,0-1.8,2.848,9.785,9.785,0,0,0-.644,3.6,8.789,8.789,0,0,0,1.158,4.522,8.283,8.283,0,0,0,3.251,3.122,10.114,10.114,0,0,0,4.925,1.143,10.246,10.246,0,0,0,2.333-.274,10.873,10.873,0,0,0,2.3-.821,9.7,9.7,0,0,0,2.124-1.416l-2.414-3.412a7.353,7.353,0,0,1-1.851,1.094,5.481,5.481,0,0,1-1.947.322,5.945,5.945,0,0,1-2.719-.579,4.049,4.049,0,0,1-1.739-1.625,4.364,4.364,0,0,1-.418-1.046h11.731l.032-1.384a9,9,0,0,0-.515-3.444A7.9,7.9,0,0,0,624.77,281.887Zm-9.3,3.814a3.189,3.189,0,0,1,1.336-1.448,4.3,4.3,0,0,1,2.14-.5,3.55,3.55,0,0,1,1.609.354,3,3,0,0,1,1.143.981,2.876,2.876,0,0,1,.5,1.432v.032h-7.013A4.334,4.334,0,0,1,615.468,285.7Z" transform="translate(-439.735 -273.004)" fill="#f58600"/>
        <path id="Tracciato_12" data-name="Tracciato 12" d="M656.644,279.537a5.706,5.706,0,0,0-1.078-.1,5.269,5.269,0,0,0-2.543.644,6.933,6.933,0,0,0-2.5,2.327l-.106-2.616h-4.893v17.09h5.182v-8.561a3.755,3.755,0,0,1,.241-1.384,3.357,3.357,0,0,1,.66-1.062,2.773,2.773,0,0,1,1.03-.692,3.565,3.565,0,0,1,1.319-.241,5.23,5.23,0,0,1,1.239.145,3.2,3.2,0,0,1,.95.371l1.416-5.7A8.835,8.835,0,0,0,656.644,279.537Z" transform="translate(-455.017 -273.004)" fill="#f58600"/>
      </g>
      <g id="Raggruppa_2" data-name="Raggruppa 2" transform="translate(510.378 264.752)">
        <path id="Tracciato_13" data-name="Tracciato 13" d="M665.987,300.652a2.645,2.645,0,0,0-2,.8,3.344,3.344,0,0,0-.048,4.217,2.73,2.73,0,0,0,2.044.74,2.684,2.684,0,0,0,2.028-.8,2.851,2.851,0,0,0,.772-2.059,2.935,2.935,0,0,0-.739-2.141A2.754,2.754,0,0,0,665.987,300.652Z" transform="translate(-663.219 -280.279)" fill="#232d36"/>
        <rect id="Rettangolo_1" data-name="Rettangolo 1" width="5.15" height="17.09" transform="translate(9.494 8.69)" fill="#232d36"/>
        <path id="Tracciato_14" data-name="Tracciato 14" d="M682.132,264.752a3.276,3.276,0,0,0-2.252.74,2.419,2.419,0,0,0-.837,1.9,2.444,2.444,0,0,0,.821,1.979,3.41,3.41,0,0,0,2.269.692,3.216,3.216,0,0,0,2.237-.741,2.476,2.476,0,0,0,.821-1.931,2.431,2.431,0,0,0-.8-1.947A3.353,3.353,0,0,0,682.132,264.752Z" transform="translate(-670.062 -264.752)" fill="#232d36"/>
        <path id="Tracciato_15" data-name="Tracciato 15" d="M706.185,276.778h-3.315v-4.313h-5.15v4.313h-3.025v4.506h3.025v12.585h5.15V281.283h3.315Z" transform="translate(-676.832 -268.088)" fill="#232d36"/>
      </g>
    </g>
    <g id="Raggruppa_3" data-name="Raggruppa 3" transform="translate(200.94 -202.045)">
      <circle id="Ellisse_1" data-name="Ellisse 1" cx="29.27" cy="29.27" r="29.27" transform="translate(119.282 221.766)" fill="#d0d3d6"/>
      <path id="Tracciato_16" data-name="Tracciato 16" d="M150.414,258.569a25.685,25.685,0,0,0-10.78-.4,30.42,30.42,0,0,0-5.28,1.422c-1.54.563-2.988,1.308-4.557,1.784a37.67,37.67,0,0,1-3.711.916c-1.545.283-3.49.525-5.6.732-6.669.655-14.973.952-17.437,1.029l9.814.281,7.322-.222,4.656-.141,7.337-.962-7.337,2.055-4.959.364-5.2.382L99.647,267.5a11.8,11.8,0,0,0-.977,1.777l4.635-.5,5.228,2.766a16.306,16.306,0,0,0,3.969,5.857l4.066-1.234,3.176,1.581s8.03-2.657,11.129-4.026c3.388-1.5,8.772-4.813,8.946-5.447l10.847-9.652C150.584,258.612,150.5,258.591,150.414,258.569Z" transform="translate(0 -20.327)" fill="#fff"/>
      <path id="Tracciato_17" data-name="Tracciato 17" d="M169,323.693c-1.259-1.091-2.6-2.078-3.934-3.073-1.146-.855-2.342-1.645-3.464-2.529a24.619,24.619,0,0,1-3.392-3.077,4,4,0,0,1-.922-2.587c-.014-.322.068-.63.031-.945a27.919,27.919,0,0,0-4.234,3.429A37.037,37.037,0,0,0,148,320.787a.568.568,0,0,1-.653.287,28.188,28.188,0,0,0-4.8-.314,1.49,1.49,0,0,0-.8.214c-.354.215-.715.416-1.073.623a.8.8,0,0,0,.156.487,8.523,8.523,0,0,0,1.638,2.186,14.72,14.72,0,0,0,1.586,1.488,14.432,14.432,0,0,1,4.6-.6,9.1,9.1,0,0,0,1.665-.411,13.341,13.341,0,0,0,1.7-.939,88.536,88.536,0,0,0,8.059-4.966c.141-.1.243-.151.349.041a32.576,32.576,0,0,0,2.9,3.294,1.105,1.105,0,0,0,.444.207,26.862,26.862,0,0,1,3.246,1,20.363,20.363,0,0,1,2.921,1.269A4.094,4.094,0,0,0,169,323.693Z" transform="translate(-23.706 -50.631)" fill="#eb6300"/>
      <path id="Tracciato_18" data-name="Tracciato 18" d="M159.667,338.234c2.064-.508,4.126-1.024,6.2-1.5a13.972,13.972,0,0,1,2.609-.407,1.854,1.854,0,0,0,.1,1.091,10.767,10.767,0,0,0,1.116,2.632,5.8,5.8,0,0,1,.734,1.483c-.346-.023-7.887-.59-11.323-.661a.822.822,0,0,0-.529.129c-1.339.944-2.857,1.572-4.261,2.4-.478.282-.767.134-.888-.415a1.433,1.433,0,0,1-.041-.437,3.417,3.417,0,0,1,1.891-3.046c.192-.092.37-.212.555-.319.576-.376.852-1.017,1.314-1.494a.889.889,0,0,1,1.138-.226C158.553,337.574,159.33,338.316,159.667,338.234Z" transform="translate(-30.874 -64.65)" fill="#232d36"/>
      <path id="Tracciato_19" data-name="Tracciato 19" d="M170.518,284.328c-.658-.09-1.327-.023-1.985-.137a3.126,3.126,0,0,1-2.567-1.637,6.444,6.444,0,0,0-1.071,2.856,31.5,31.5,0,0,0-.5,3.365c-.041.56-.084,1.119-.122,1.679a.729.729,0,0,1-.215.419c-.5.6-.981,1.2-1.49,1.785a.508.508,0,0,0-.113.538,5.428,5.428,0,0,0,1.2,2.155,4.439,4.439,0,0,0,1.34.585c.572.23,1.076.266,1.354-.43.078-.2.264-.142.416-.16.632-.074.677-.129.6-.734a7.289,7.289,0,0,1-.09-.755,2.723,2.723,0,0,0-.813-1.974c-.132-.131-.2-.241-.059-.442,1.2-1.719,2.408-3.436,3.458-5.255A11.932,11.932,0,0,0,170.518,284.328Z" transform="translate(-35.981 -34.306)" fill="#232d36"/>
      <g id="Raggruppa_3-2" data-name="Raggruppa 3" transform="translate(155.992 229.582)">
        <path id="Tracciato_20" data-name="Tracciato 20" d="M248.16,255.593a20.354,20.354,0,0,1-2.258-3.344q-.172-.336-.327-.679a29.337,29.337,0,0,0-2.405,1.719,4.914,4.914,0,0,1-2.281.968c-1.28.189-2.548.459-3.821.689,0,0-4.789,1.035-4.97,1.028s-.554,1.752-.554,1.752c-.439.707-.863,1.422-1.294,2.134a.307.307,0,0,1,.33.2,5.746,5.746,0,0,1,.5,1.712c.176,1.03-.608,2.037-.83,3.076-.016.075.869.192.875.271a7.651,7.651,0,0,1,3.019-1.326,23.4,23.4,0,0,0,6.738-3.425,44.6,44.6,0,0,1,7.075-4.008,2.265,2.265,0,0,0,.654-.383C248.541,256.03,248.2,255.643,248.16,255.593Z" transform="translate(-230.25 -246.402)" fill="#eb6300"/>
        <path id="Tracciato_21" data-name="Tracciato 21" d="M277.713,240.866a.3.3,0,0,0-.163-.293,9.441,9.441,0,0,0-2.912-.863c-.15-.026-.244.088-.349.168a13.36,13.36,0,0,0-1.9,1.891,2.011,2.011,0,0,1-.887.58c-2.007.708-3.957,1.56-5.9,2.422a1.559,1.559,0,0,0-.17.1q.155.343.327.679a20.353,20.353,0,0,0,2.258,3.344c.04.051.381.437.451.382a43.734,43.734,0,0,0,4.744-4.487,1.11,1.11,0,0,0,.083-.088,1.124,1.124,0,0,1,1.395-.5,3.641,3.641,0,0,0,2.736-.5.463.463,0,0,0,.227-.433A19.163,19.163,0,0,0,277.713,240.866Z" transform="translate(-250.103 -239.706)" fill="#232d36"/>
      </g>
      <path id="Tracciato_22" data-name="Tracciato 22" d="M244.591,251.169c-.005.026,0,.039.031.039A.039.039,0,0,0,244.591,251.169Z" transform="translate(-82.35 -16.594)" fill="#d0d3d6"/>
      <path id="Tracciato_23" data-name="Tracciato 23" d="M224.638,279.328l-.018-.014,0,.024Z" transform="translate(-71.079 -32.477)" fill="#f58600"/>
      <path id="Tracciato_24" data-name="Tracciato 24" d="M220.471,258.856" transform="translate(-68.739 -20.932)" fill="#fff"/>
      <path id="Tracciato_25" data-name="Tracciato 25" d="M187.57,286.306" transform="translate(-50.171 -36.423)" fill="#fff"/>
      <path id="Tracciato_26" data-name="Tracciato 26" d="M231.023,249.7c0-.031-.051,0-.076,0A.3.3,0,0,0,231.023,249.7Z" transform="translate(-74.651 -15.754)" fill="none"/>
      <path id="Tracciato_27" data-name="Tracciato 27" d="M224.283,242.376c-.034-.716.284-1.161.755-1.276l.074-.017a1.375,1.375,0,0,1,.766.119l1.438-2.231c.126-.213.2-.484.543-.561.75-.169,1.5-.332,2.251-.5.325-.3,1.9-2.313.857-2.253a1.058,1.058,0,0,1-.191-.01c.12-.413.473-.713.515-1.2a14.447,14.447,0,0,1-4.976.634h0c-2.057-.182-3.565,1.567-5.3,2.417-1.327,1.93.168,4.184.686,6.166A9.357,9.357,0,0,0,224.283,242.376Z" transform="translate(-68.742 -7.156)" fill="#232d36"/>
      <g id="Raggruppa_5" data-name="Raggruppa 5" transform="translate(148.319 230.756)">
        <path id="Tracciato_28" data-name="Tracciato 28" d="M214.766,260.037c.031.022.063.045.093.069C214.829,260.082,214.8,260.059,214.766,260.037Z" transform="translate(-213.838 -252.354)" fill="none"/>
        <path id="Tracciato_29" data-name="Tracciato 29" d="M215.18,260.361c.037.033.073.068.109.1C215.253,260.428,215.217,260.393,215.18,260.361Z" transform="translate(-214.071 -252.537)" fill="none"/>
        <path id="Tracciato_30" data-name="Tracciato 30" d="M214.347,259.774l.077.044Z" transform="translate(-213.601 -252.206)" fill="none"/>
        <path id="Tracciato_31" data-name="Tracciato 31" d="M213.992,259.593l.025.011Z" transform="translate(-213.401 -252.104)" fill="none"/>
        <path id="Tracciato_32" data-name="Tracciato 32" d="M217.7,264.1a19.586,19.586,0,0,0-1.953-3.153c-.054-.071-.111-.136-.168-.2.057.062.113.127.168.2A19.586,19.586,0,0,1,217.7,264.1Z" transform="translate(-214.298 -252.756)" fill="none"/>
        <g id="Raggruppa_4" data-name="Raggruppa 4" transform="translate(0 0)">
          <path id="Tracciato_33" data-name="Tracciato 33" d="M215.966,261.2a18.312,18.312,0,0,1,1.056,1.537A18.312,18.312,0,0,0,215.966,261.2Z" transform="translate(-214.515 -253.012)" fill="none"/>
          <path id="Tracciato_34" data-name="Tracciato 34" d="M213.227,259.366a2.388,2.388,0,0,0-.59-.176l.616.186Z" transform="translate(-212.636 -251.876)" fill="none"/>
          <path id="Tracciato_35" data-name="Tracciato 35" d="M227.576,247.334c-1.108-.98-1.51-1.689-1.073-3.108a6.944,6.944,0,0,0-.816-1.824c-.75.166-1.5.329-2.251.5-.341.077-.416.349-.543.561l-1.439,2.231a1.374,1.374,0,0,0-.766-.119l-.074.017c-.471.115-.789.56-.755,1.276a9.355,9.355,0,0,1-2.584,1.288l-1.334,1.456a.749.749,0,0,1-.956.341l-2.348-.234h0a2.39,2.39,0,0,1,.59.176l.025.011c.044.02.087.044.129.068l.077.044c.036.022.071.046.105.071s.063.045.093.069.058.047.087.072.073.068.109.1.044.042.066.065c.057.062.113.127.168.2a18.314,18.314,0,0,1,1.056,1.537c.324.526.621,1.066.9,1.616a30.879,30.879,0,0,1,1.438,3.415l.775,2.425c.205-.07,1.984-4.611,2.191-4.83.094-.155.051-.38.145-.535.335-.558.67-1.116,1.014-1.669.326-.524.336-.523.914-.349a11.1,11.1,0,0,0,3.826.511c.4-.022.912-.8.7-1.123a2.052,2.052,0,0,1-.286-1.557,1.435,1.435,0,0,1,.074-.289,1.187,1.187,0,0,1,.708-1.3C227.941,248.256,227.907,247.645,227.576,247.334Z" transform="translate(-212.635 -242.402)" fill="#fff"/>
        </g>
      </g>
      <path id="Tracciato_36" data-name="Tracciato 36" d="M220.051,264.708h0l-.961,1.367c-.672-1.833-3.03-6.3-3.834-6.611a9.779,9.779,0,0,0-2.62-.277h0c3.369,3.937,5.673,10.083,5.673,10.083C219.76,267.965,220.05,264.713,220.051,264.708Z" transform="translate(-64.316 -21.118)" fill="#232d36"/>
      <path id="Tracciato_37" data-name="Tracciato 37" d="M197.388,266.036a20.25,20.25,0,0,0-.55-2.375,10.771,10.771,0,0,0-.538,1.015s-.291,3.257-1.742,4.563c0,0-2.3-6.146-5.673-10.083a18.636,18.636,0,0,0-6.543.894,24.3,24.3,0,0,0-8.315,5.031,16.991,16.991,0,0,0-3.291,3.9c-.071.112-.124.236-.186.354a3.126,3.126,0,0,0,2.567,1.637c.657.113,1.327.047,1.985.137.076-.3.165-.593.224-.894a.364.364,0,0,1,.376-.329c.917-.1,1.816-.305,2.723-.464a12.209,12.209,0,0,1,1.96-.38l-.6,1.92-.609,2.254a18.232,18.232,0,0,1-.881,2.654,3.962,3.962,0,0,1-1.707,2.111,4.266,4.266,0,0,0-.994.958l0,0-.269.338h0a5.051,5.051,0,0,0-1.045,2.2c-.037.155-.068.311-.1.466.037.315-.046.623-.031.945a4,4,0,0,0,.922,2.587,24.615,24.615,0,0,0,3.392,3.077c1.122.885,2.318,1.674,3.464,2.529,1.334,1,2.676,1.982,3.934,3.073a4.094,4.094,0,0,1,.943.96,20.356,20.356,0,0,0-2.921-1.27,26.857,26.857,0,0,0-3.246-1,1.106,1.106,0,0,1-.444-.207l-2.028.124a2,2,0,0,0,.1,1.392,26.418,26.418,0,0,0,1.851,3.814l.829.066h0c2,.158,4.007.3,6,.547a1.277,1.277,0,0,0,.859-.287,3.624,3.624,0,0,0,1.292-1.6,1.142,1.142,0,0,0,.037-.67,16.962,16.962,0,0,0-1.276-3.835A28.16,28.16,0,0,0,184.2,285.7c-.356-.451-1.228-1.4-1.228-1.4a26.823,26.823,0,0,0,2.931-1.868,56.293,56.293,0,0,0,7.153-5.925,18.561,18.561,0,0,0,2.635-3.108l.1-.146a8.82,8.82,0,0,0,1.64-3.871A22.835,22.835,0,0,0,197.388,266.036Z" transform="translate(-40.566 -21.087)" fill="#f58600"/>
      <path id="Tracciato_38" data-name="Tracciato 38" d="M193.723,283.169a.83.83,0,0,1-.229-.649c.06-1.276.481-4.269.506-4.512.033-.334-.138-.323-.349-.273-.26.061-.514.142-.769.221-1.577.488-5.518,1.383-5.884,1.445-.091.015-.15.04-.179.126l-.6,1.92-.609,2.254a18.235,18.235,0,0,1-.881,2.654,3.962,3.962,0,0,1-1.707,2.111,4.445,4.445,0,0,0-1.072,1.056,7.321,7.321,0,0,1,2.351.305,5.254,5.254,0,0,1,2.352,1.616c.5.514.921,1.081,1.364,1.636l.041.052,1.15,1.413.2.242c-.009-.142-.519-2.132-.576-2.319-.195-.653-.413-1.3-.628-1.946a.835.835,0,0,1,.064-.722c.377-.685,2.964-5.6,3.161-5.98a.349.349,0,0,1,.41-.211c.827.1,1.66.147,2.548.219C194.211,283.509,193.918,283.386,193.723,283.169Z" transform="translate(-46.998 -31.571)" fill="#eb6300"/>
      <g id="Raggruppa_6" data-name="Raggruppa 6" transform="translate(153.539 246.837)">
        <path id="Tracciato_39" data-name="Tracciato 39" d="M224.62,279.314l0,.024.021-.01Z" transform="translate(-224.617 -279.314)" fill="#fff"/>
      </g>
      <path id="Tracciato_40" data-name="Tracciato 40" d="M126.7,338.862a14.764,14.764,0,0,1-1.586-1.488,10.9,10.9,0,0,1-1.794-2.674,74.454,74.454,0,0,0-6.494,4.234c-.445.321-.9.633-1.336.961a.3.3,0,0,1-.448,0,2.877,2.877,0,0,0-.919-.481.845.845,0,0,0-1.091.319,7.15,7.15,0,0,0-.581.958,2.587,2.587,0,0,1-.958,1.054,3.407,3.407,0,0,0-1.574,3.3,1.194,1.194,0,0,0,.076.391c.228.567.465.782,1.025.328,1.225-1,2.613-1.775,3.787-2.841a1.513,1.513,0,0,1,.464-.227C118.82,341.29,126.55,339.042,126.7,338.862Z" transform="translate(-6.347 -63.734)" fill="#232d36"/>
    </g>
  </g>
</svg>
