<?xml version="1.0" encoding="UTF-8" standalone="no"?><!DOCTYPE svg PUBLIC "-//W3C//DTD SVG 1.1//EN" "http://www.w3.org/Graphics/SVG/1.1/DTD/svg11.dtd"><svg width="100%" height="100%" viewBox="0 0 1916 854" version="1.1" xmlns="http://www.w3.org/2000/svg" xmlns:xlink="http://www.w3.org/1999/xlink" xml:space="preserve" xmlns:serif="http://www.serif.com/" style="fill-rule:evenodd;clip-rule:evenodd;stroke-linejoin:round;stroke-miterlimit:2;"><rect id="Tavola-da-disegno1" serif:id="Tavola da disegno1" x="0" y="0" width="1915.48" height="853.68" style="fill:none;"/><clipPath id="_clip1"><rect x="0" y="0" width="1915.48" height="853.68"/></clipPath><g clip-path="url(#_clip1)"><path id="Tracciato_1" d="M-4.494,853.79l1920,-178.053l0,-675.724l-1920,0l0,853.777Z" style="fill:url(#_Linear2);fill-rule:nonzero;"/><clipPath id="_clip3"><rect x="-262.098" y="249.775" width="524.73" height="139.596"/></clipPath><g clip-path="url(#_clip3)"><path id="Tracciato_847" d="M262.633,389.37l-71.68,-14.4c4.686,-4.667 7.362,-10.988 7.452,-17.6c0,-15.787 -15.713,-28.584 -35.1,-28.584c-10.727,0 -20.324,3.924 -26.762,10.1c-2.756,-20.509 -24.085,-36.468 -50,-36.468c-3.224,0.001 -6.444,0.254 -9.629,0.758c-6.485,-30.334 -38.975,-53.398 -78.084,-53.398c-41.058,0 -74.825,25.424 -78.865,58c-7.794,-3.562 -16.27,-5.386 -24.839,-5.347c-27.785,0 -50.308,18.344 -50.308,40.974c0.005,3.161 0.452,6.305 1.329,9.342c-1.671,-0.325 -3.369,-0.488 -5.071,-0.488c-12.037,0 -21.8,7.948 -21.8,17.751c0.001,1.244 0.16,2.484 0.474,3.688l-81.847,15.672l524.73,0Z" style="fill:#e2f1ff;fill-rule:nonzero;"/></g><clipPath id="_clip4"><rect x="1699.7" y="246.402" width="315.008" height="67.715"/></clipPath><g clip-path="url(#_clip4)"><path id="Tracciato_848" d="M2014.71,314.118l-34.772,-6.983c2.273,-2.263 3.571,-5.329 3.615,-8.537c0,-7.658 -7.622,-13.866 -17.025,-13.866c-4.793,-0.085 -9.441,1.67 -12.982,4.9c-1.337,-9.948 -11.685,-17.69 -24.255,-17.69c-1.564,0.001 -3.126,0.124 -4.671,0.368c-3.148,-14.718 -18.91,-25.91 -37.881,-25.91c-9.198,-0.105 -18.197,2.706 -25.7,8.027c-9.463,-5.373 -20.183,-8.143 -31.064,-8.027c-27.824,0 -50.377,16.9 -50.377,37.749c-0.136,4.776 1.348,9.46 4.208,13.286l-84.108,16.683l315.012,0Z" style="fill:#e2f1ff;fill-rule:nonzero;"/></g><clipPath id="_clip5"><rect x="1594.25" y="190.625" width="137.098" height="31.837"/></clipPath><g clip-path="url(#_clip5)"><path id="Tracciato_849" d="M1731.35,222.462l-137.1,0l21.618,-5.273c-0.078,-0.431 -0.118,-0.868 -0.119,-1.306c0,-5.4 5.874,-9.778 13.12,-9.778c1.863,-0.006 3.714,0.296 5.479,0.894c2.787,-9.367 14.002,-16.374 27.402,-16.374c11.723,0 21.762,5.35 25.967,12.952c1.261,-0.359 2.55,-0.611 3.854,-0.754c9.679,-1.072 18.179,3.902 18.979,11.118c0.13,1.198 0.045,2.41 -0.253,3.577l21.053,4.944Z" style="fill:#e2f1ff;fill-rule:nonzero;"/></g><clipPath id="_clip6"><rect x="1395.53" y="510.517" width="314.503" height="342.519"/></clipPath><g clip-path="url(#_clip6)"><g id="Raggruppa_183"><path id="Tracciato_285" d="M1613.32,597.297c12.646,20.38 39.182,63.906 55.886,79.427c15.051,13.984 33.607,26.683 38.78,29.654c-1.192,12.07 -2.143,23.075 -6.028,27.3c-10.9,-3.132 -45.98,-7.779 -48.465,8.077c-0.594,3.79 0.674,8.751 4.578,15.183c-4.847,6.292 -16.539,14.725 -33.611,16.115c-5.375,-0.644 -12.567,-3.215 -19.371,-7.193c-12.243,-7.156 -35.026,-17 -41.684,-21.616c-6.311,-29.26 4.59,-64.545 -1.722,-93.805c-5.737,-21.8 -15.67,-46.4 -21.407,-68.2c25.517,-7.667 57.897,-1.458 73.044,15.058Z" style="fill:#d1d2d2;"/><path id="Tracciato_286" d="M1658.31,757.465c-16.2,-32.84 -32.324,-77.557 -46.58,-111.771c5.164,34.353 16.137,91.08 16.352,126.939c10.91,-1.543 21.655,-6.054 30.228,-15.168Z" style="fill:#babcbd;"/><path id="Tracciato_287" d="M1701.51,733.551c-11.387,-3.127 -45.559,-7.439 -48.01,8.2c-0.307,2.492 -0.018,5.023 0.844,7.382c-15.492,-33.49 -34.014,-84.231 -47.129,-115.706c-1.1,-10.875 2.488,-31.541 11.02,-23.136c22.289,45.523 68.056,92.219 83.275,123.256l0,0.004Zm-43.552,23.189l0.12,0.2l-0.014,0.018l-0.106,-0.218Z" style="fill:#d1d2d2;"/><path id="Tracciato_288" d="M1613.33,597.297c12.646,20.38 39.182,63.906 55.886,79.427c15.051,13.984 33.607,26.683 38.78,29.654c4.469,17.476 1.034,35.354 -4.972,38.8c-36.069,-46.759 -62.933,-86.738 -91.353,-149.248c0.565,0.456 1.118,0.911 1.659,1.367Z" style="fill:#e7e9e5;"/></g><g id="Raggruppa_184"><path id="Tracciato_289" d="M1474.35,621.624l7.665,-11.643l24.862,-16.043l6.5,-2.574l24.811,17.228l-0.409,14.439c0,0 -13.517,4.37 -17.594,5.66c-16.835,18.5 -36.364,13.834 -53.508,18.026c-3.3,-2.657 -4.639,-3.678 -10.22,-11.256c-1.722,-3.213 -7.554,-17.735 -9.338,-21.224c6.362,-0.614 8.348,-2.455 12.813,-6.425l8.142,5.316l6.276,8.496Z" style="fill:#f58600;fill-rule:nonzero;"/><path id="Tracciato_290" d="M1609.49,593.831c-4.109,-1.781 -14.285,-7.013 -14.285,-7.013l-19.11,-6.78l-12.122,-2.26c0,0 -10.547,1.369 -15.341,1.917c-7.036,3.64 -18.816,3.45 -35.252,11.669l-6.935,9.7c-7.338,12.384 8.753,30.107 8.753,30.107l9.738,15.641l11.917,22.19c0,0 -5.264,22.132 -8.519,37.489c6.575,3.288 61.424,4.167 61.424,4.167l-1.952,-0.976l2.739,-2.329l2.74,-12.6l-5.479,-31.776l12.944,-28.285l2.671,-4.931c1.262,-14.601 7.849,-21.171 6.069,-35.93Z" style="fill:#f58600;fill-rule:nonzero;"/></g><g id="Raggruppa_186"><path id="Tracciato_291" d="M1474.59,621.178l7.665,-11.643l24.862,-16.044l6.5,-2.574l24.811,17.228l-0.409,14.439c0,0 -13.518,4.37 -17.594,5.66c-16.835,18.5 -36.364,13.834 -53.508,18.026c-3.3,-2.657 -4.639,-3.678 -10.22,-11.256c-1.723,-3.213 -7.554,-17.735 -9.338,-21.224c6.361,-0.614 8.348,-2.455 12.813,-6.425l8.142,5.316l6.276,8.497Z" style="fill:#f58600;fill-rule:nonzero;"/><path id="Tracciato_292" d="M1481.3,620.997l-5.293,2.324l-1.412,-1.911l5.82,-9.2l-1.442,6.379l2.327,2.408Z" style="fill:#eb6300;fill-rule:nonzero;"/><path id="Tracciato_293" d="M1518.49,621.93l-3.631,-0.327l-1.843,-4.812l-1.092,7.085l2.467,0.264l4.099,-2.21Z" style="fill:#eb6300;fill-rule:nonzero;"/><g id="Raggruppa_185"><path id="Tracciato_294" d="M1414.04,586.168l24.627,1.318l4.124,-1.318l9.492,0l0.661,6.547l1.444,4.909l10.461,12.871c-0.337,2.615 -2.491,8.2 -5.562,12.351l-9.889,-15.682l5.267,14.223l2.757,3.66c-1.126,1.237 -2.552,2.163 -4.14,2.689c-3.837,-8.2 -9.091,-17.025 -10.75,-20.716c-0.5,-1.106 -6.887,-8.735 -6.887,-8.735l-22.036,-7.5l-4.859,-4.612l5.29,-0.005Z" style="fill:#232d36;fill-rule:nonzero;"/><path id="Tracciato_295" d="M1459.28,622.846l6.478,9.423l-6.6,-4.9l-1.748,-2.32c0.674,-0.69 1.299,-1.426 1.87,-2.203Z" style="fill:#eb6300;fill-rule:nonzero;"/><path id="Tracciato_296" d="M1449.39,607.164l9.889,15.682c-0.57,0.776 -1.193,1.511 -1.865,2.2l-2.757,-3.66l-5.267,-14.222Z" style="fill:#3b424c;fill-rule:nonzero;"/></g><path id="Tracciato_297" d="M1474.08,639.764l-5.132,1.721l-5.155,-4.758l5.764,2.646l4.523,0.391Z" style="fill:#eb6300;fill-rule:nonzero;"/><path id="Tracciato_298" d="M1532.38,613.008l0.805,-3.839l-1.377,-1.5l-1.9,3.707l2.472,1.632Z" style="fill:#eb6300;fill-rule:nonzero;"/><path id="Tracciato_299" d="M1451.16,588.43l-3.8,1.044l1.4,1.078l2.991,2.773l-0.9,-2.324l0.309,-2.571Z" style="fill:#5a1824;fill-opacity:0.23;fill-rule:nonzero;"/><path id="Tracciato_300" d="M1503.76,626.41l-6.544,6.877l-4.93,0.3l4.372,-2.485l7.102,-4.692Z" style="fill:#eb6300;fill-rule:nonzero;"/></g><path id="Tracciato_301" d="M1640.28,622.653c-5.12,-6.144 -9.009,-9.42 -10.785,-11.468c-0.274,-1.638 -1.4,-3.959 -1.673,-5.325c-3.166,-4.887 -9.045,-8.874 -12.594,-11.877c-1.5,-0.322 -3.209,0 -7.577,-0.819c-6.144,-2.73 -19.892,-9.381 -23.209,-10.376c1.775,15.367 9.147,31.127 14.881,44.234l2.73,1.365l1.639,13.106l13.269,11.646l-4.4,13.338c1.761,4.356 -4.793,11.032 -2.773,15.331l17.38,-6.457c7.527,-3.915 14.581,-8.68 21.025,-14.2c0.418,-5.395 -3.203,-26.211 -7.913,-38.498Z" style="fill:#f58600;fill-rule:nonzero;"/><path id="Tracciato_302" d="M1570.65,703.201l1.869,-11.153l-38.184,-6.594c0,0 -10.24,33.039 -13.926,49.831c0.159,8.902 0.797,17.788 1.911,26.622c-1.3,7.918 -8.455,15.341 -11.568,27.192c1.31,3.243 0.126,19.352 2.858,20.222c5.375,1.714 15.171,-8.155 20.829,-11.006c1.332,-4.345 2.111,-8.841 2.32,-13.38c0.819,-4.643 0.784,-11.286 2.627,-17.43c2.595,-6.963 11.195,-21.3 15.018,-28.943c3.686,-7.373 11.708,-30.49 11.708,-30.49l4.538,-4.871Z" style="fill:#f58600;fill-rule:nonzero;"/><path id="Tracciato_303" d="M1623.07,780.883c-6.068,-7.753 -8.737,-20.752 -8.737,-20.752c-1.161,-7.281 -1.629,-14.655 -1.4,-22.024c-2.047,-6.553 -4.632,-15.1 -6.962,-20.478l-14,-34.865l-24.755,8.385l-6.672,17.24c0,0 9.009,16.657 21.024,36.452c5.045,8.312 7.157,11.753 12.834,20.752c3.56,5.774 5.841,12.245 6.69,18.976c0.635,4.368 1.686,8.666 3.139,12.835c6.963,0.409 14.327,1.011 22.836,-0.319c-0.822,-5.734 0.918,-9.922 -3.997,-16.202Z" style="fill:#f58600;fill-rule:nonzero;"/><g id="Raggruppa_187"><path id="Tracciato_304" d="M1554.12,597.832c-8.051,2.39 -10.7,3.436 -11.831,6.886c-0.843,2.573 -1.894,6.53 1.934,13.123l9.897,-20.009Z" style="fill:#232d36;"/><path id="Tracciato_305" d="M1553.37,597.657c11.7,11.54 9.175,16.37 0,25.726c-0.369,-4.244 -0.827,-8.132 -1.01,-11.994c-0.288,-4.602 0.052,-9.222 1.01,-13.732Z" style="fill:#232d36;"/></g><path id="Tracciato_306" d="M1544.38,580.72l-0.624,6.008c2.869,4.736 6.483,8.651 8.447,12.121c6.49,-2.873 16.19,-9.578 22.638,-12.275c0.734,-1.603 1.118,-3.345 1.126,-5.108l-0.005,-1.625c3.412,0.461 6.785,1.176 10.092,2.139c3.077,0.832 6.097,1.862 9.041,3.085l-0.809,0.413l0.031,0.018c-0.336,0.154 -0.679,0.319 -1.029,0.492l-0.07,0.036c-10.878,5.423 -28,19.6 -41.224,16.509c-0.485,-0.058 -0.973,-0.133 -1.463,-0.223c-6.207,-1.156 -13.815,-4.991 -14.957,-19.086c2.818,-1.203 5.776,-2.044 8.806,-2.504Z" style="fill:#232d36;fill-rule:nonzero;"/><g id="Raggruppa_191"><g id="Raggruppa_188"><path id="Tracciato_307" d="M1545.21,572.648l24.957,-12.942l-9.405,5.11l-15.552,7.832Z" style="fill:#e79b54;fill-rule:nonzero;"/><path id="Tracciato_308" d="M1544.27,580.577l0,-7.459l0.932,-0.47l-0.829,7.986l-0.103,-0.057Z" style="fill:#cb7d35;fill-opacity:0.85;fill-rule:nonzero;"/><path id="Tracciato_309" d="M1544.38,580.635l0.829,-7.987l15.553,-7.836l9.405,-5.11l5.727,-2.97l0.051,16.563l0.024,8.075c-0.007,1.763 -0.391,3.505 -1.126,5.108c-6.448,2.7 -16.148,9.4 -22.638,12.274c-1.964,-3.469 -5.578,-7.384 -8.447,-12.12l0.622,-5.997Z" style="fill:#e79b54;fill-rule:nonzero;"/><path id="Tracciato_310" d="M1546.76,581.958l-2.383,-1.324l0.829,-7.986l15.552,-7.836l9.405,-5.11l5.727,-2.97l0.051,16.563l-9.809,10.418l-19.372,-1.755Z" style="fill:#cb7d35;fill-opacity:0.85;fill-rule:nonzero;"/></g><path id="Tracciato_311" d="M1578.73,544.361c-0.026,0.557 -0.168,1.851 0.823,2.165c-0.369,1.79 -0.861,3.553 -1.473,5.276c-2.639,7.457 -2.935,8.84 -4.58,13.75c-2.752,4.513 -2.367,8.433 -3.681,10.857c-0.981,0.17 -6.834,2.66 -9.46,2.963c-5.959,-0.1 -14.294,-0.991 -17.071,-1.717c-0.36,-0.176 -2.039,-1.37 -5.147,-3.235c-0.727,-2.4 -0.621,-6.009 -1.243,-9.945c1.616,-2.223 2.694,-3.73 4.37,-5.911c0.949,-1.612 1.529,-3.309 2.191,-4.587c-0.054,-1.346 -0.2,-2.672 -0.138,-4.7c0.8,-1.891 2.806,-5.847 3.806,-8.157l2.087,-9.158c0.191,-1.057 0.261,-2.132 0.207,-3.205c11.622,-2.291 26.914,0.711 29.309,15.604Z" style="fill:#eab070;fill-rule:nonzero;"/><path id="Tracciato_312" d="M1547.81,543.815l-0.9,1.859l0.524,1.791l2.245,1.331l2.082,0.655l1.289,-2.718l0.089,-3.477l-5.329,0.559Z" style="fill:#d38e4f;fill-rule:nonzero;"/><path id="Tracciato_313" d="M1556.57,510.517c0.072,2.019 -0.053,5.8 4.875,7.353c7.985,2.512 12.272,5.519 16.38,7.564c2.419,1.817 4.692,3.821 6.8,5.993c0.412,5.24 -2.156,7.744 -2.156,7.744c-0.191,2.551 -2.217,5.849 -3.469,9.943c-0.993,-0.314 -3.095,-0.333 -3.069,-0.889c-0.168,-4.239 0.518,-7.338 -1.219,-10.713c-2.473,-0.955 -5.083,-1.509 -7.73,-1.641c-5.044,0.694 -11.1,3.068 -18.535,-2.655c-4.974,-6.109 -8.318,-19.213 8.123,-22.699Z" style="fill:#1e1612;fill-rule:nonzero;"/><path id="Tracciato_314" d="M1582.49,548.071c-0.466,-2.53 -2.466,-2.039 -3.264,-1.741c-1.183,0.383 -2.096,1.336 -2.428,2.534c-0.473,0.996 -0.664,2.103 -0.553,3.2l0.23,6.049l2.228,-0.512c0,0 4.024,-8.243 3.787,-9.53Z" style="fill:#eab070;fill-rule:nonzero;"/><path id="Tracciato_315" d="M1547.17,542.712l4.63,-2.162l1.526,2.581l-6.035,0.849l-0.121,-1.268Z" style="fill:#2f2622;fill-rule:nonzero;"/><path id="Tracciato_316" d="M1566.94,557.297l-9.969,2.041l-8.267,-1.321l-3.3,-3.384c0,0 -0.571,8.082 0.853,10.209c1.72,2.568 7.959,4.219 11.926,1.865c2.676,-1.59 8.757,-9.41 8.757,-9.41Z" style="fill:#fff;fill-rule:nonzero;"/><path id="Tracciato_317" d="M1557.46,553.96l-7,-0.81l1.851,2.519l1.818,0.74l3.331,-2.449Z" style="fill:#cb7d35;fill-rule:nonzero;"/><path id="Tracciato_318" d="M1561.99,543.449l-3.456,0.122l-0.01,3.883l1.493,3.712l6.5,-1.077l1.889,-1.63l0.134,-2.818l-6.55,-2.192Z" style="fill:#d38e4f;fill-rule:nonzero;"/><path id="Tracciato_319" d="M1563.18,546.012l-3.369,-0.24l-0.6,1.022l7.382,1.657l-3.413,-2.439Z" style="fill:#382625;fill-rule:nonzero;"/><path id="Tracciato_320" d="M1568.08,544.163l-8.131,-3.435l-1.286,2.895l9.328,2.39l0.089,-1.85Z" style="fill:#2f2622;fill-rule:nonzero;"/><path id="Tracciato_321" d="M1552.51,545.542l-2.171,-0.427l-2.614,1.271l5.119,0.053l-0.334,-0.897Z" style="fill:#382625;fill-rule:nonzero;"/><path id="Tracciato_322" d="M1576.61,551.674c0.516,-1.169 3.893,-3.73 3.893,-3.73l-0.043,2.338l-1.985,5.121l-0.933,-1.243l-1.864,1.657c0,0 2.076,-3.336 0.932,-4.143Z" style="fill:#d38e4f;fill-rule:nonzero;"/><path id="Tracciato_323" d="M1553.09,571.357l-5.387,-0.414l1.243,1.658l1.865,0.207l2.279,-1.451Z" style="fill:#d38e4f;fill-rule:nonzero;"/><path id="Tracciato_324" d="M1578.89,546.29c0,0 -14.032,-5.438 -22.553,-6.176c-3.244,-0.347 -6.524,-0.118 -9.688,0.676l-2.92,6.422c0,0 0.886,3.141 3.521,3.306c1.576,0.1 4.49,-1.787 6.374,-1.7c1.529,0.068 2.99,2.937 8.729,3.6c2.3,0.264 6.627,-2.161 8.587,-2.711c1.859,-0.277 3.742,-0.351 5.618,-0.221l2.332,-3.196Z" style="fill:#232d36;fill-rule:nonzero;"/><path id="Tracciato_325" d="M1569.17,546.234c0,-1.658 -6.152,-2.475 -6.152,-2.475c0,0 -4.9,-0.148 -5.335,1.218c-0.452,1.433 2.095,3.676 3.363,3.974c2.443,0.573 8.12,-0.661 8.124,-2.717Z" style="fill:#eab070;fill-rule:nonzero;"/><path id="Tracciato_326" d="M1553.1,545.09c-0.261,0.8 -2.49,1.655 -3.536,2.023c-2.838,1 -4.247,-0.645 -3.936,-1.864c0.205,-0.771 0.786,-1.387 1.544,-1.636c1.157,-0.531 2.457,-0.667 3.7,-0.388c1.349,0.39 2.508,0.996 2.228,1.865Z" style="fill:#eab070;fill-rule:nonzero;"/><path id="Tracciato_327" d="M1566.87,547.703l-3.35,-2.521l-4.627,0.38l7.977,2.141Z" style="fill:#1e1612;fill-rule:nonzero;"/><path id="Tracciato_328" d="M1551.74,545.458l-2.867,-1.243l-2.624,1.45l5.491,-0.207Z" style="fill:#1e1612;fill-rule:nonzero;"/><path id="Tracciato_329" d="M1560.01,561.8c-0.151,0.056 -5.808,0.4 -5.808,0.4l-7.339,-1.279l4.442,1.854l4.85,-0.036l3.855,-0.939Z" style="fill:#cac1ca;fill-rule:nonzero;"/><path id="Tracciato_330" d="M1547.03,553.73l-2.3,-0.188l-0.969,3l1.821,-1.816l1.448,-0.996Z" style="fill:#d38e4f;fill-rule:nonzero;"/><path id="Tracciato_331" d="M1567.06,560.73l3.021,-4.291l-6.943,-1.768l3.6,2.424l0.322,3.635Z" style="fill:#d38e4f;fill-rule:nonzero;"/><path id="Tracciato_332" d="M1575.67,570.483l-2.072,9.738l-0.414,-8.081l2.486,-1.657Z" style="fill:#cb7d35;fill-rule:nonzero;"/><path id="Tracciato_333" d="M1568.18,581.465l-5.594,9.945l0.753,-8.892l4.841,-1.053Z" style="fill:#cb7d35;fill-rule:nonzero;"/><path id="Tracciato_334" d="M1564.34,519.075c0,0 -3.468,-0.857 -4.282,-1.8c-2.432,-1.042 -3.861,0.943 -4.891,1.24c-3.173,0.918 -2.588,-0.867 -3.485,-0.844c-2.759,0.07 -1.831,2.194 -2.863,2.388c-1.413,0.077 -2.829,0.024 -4.231,-0.159c-1.403,-0.183 -0.66,6.214 0.828,7.183c0.989,0.644 2.925,-0.835 4.675,0.642c0.9,0.762 1.3,-1.9 4.643,-0.879c1.063,0.324 1.038,-3.617 2.108,-3.92c0.952,-0.268 2.585,1.044 3.524,0.729c0.912,-0.301 3.974,-4.58 3.974,-4.58Z" style="fill:#434140;fill-opacity:0.52;fill-rule:nonzero;"/><path id="Tracciato_335" d="M1574.27,536.98l0.249,-0.332l-12.928,-9.7c-6.717,-5.036 -8.81,-10.242 -6.4,-15.914l-0.382,-0.162c-2.5,5.873 -0.36,11.24 6.53,16.408l12.931,9.7Z" style="fill:#59524e;fill-opacity:0.36;fill-rule:nonzero;"/><path id="Tracciato_336" d="M1556.06,536.69c0.055,0 0.108,-0.022 0.148,-0.061c0.038,-0.039 0.06,-0.092 0.06,-0.147c0,-0.055 -0.022,-0.107 -0.06,-0.146c-0.138,-0.137 -13.812,-13.744 -6.476,-22.65c0.071,-0.089 0.058,-0.22 -0.029,-0.292c-0.038,-0.031 -0.084,-0.048 -0.133,-0.048c-0.061,0 -0.12,0.028 -0.159,0.076c-7.575,9.2 6.366,23.07 6.507,23.209c0.037,0.038 0.088,0.059 0.142,0.059Z" style="fill:#59524e;fill-opacity:0.63;fill-rule:nonzero;"/><path id="Tracciato_337" d="M1572.68,557.144l-1.982,3.853l-2.072,4.144l3.364,-2.34l0.69,-5.657Z" style="fill:#d38e4f;fill-rule:nonzero;"/><path id="Tracciato_338" d="M1553.49,577.755l-2.425,2.223l-5.858,-0.707l-1.01,-2.929l9.293,1.413Z" style="fill:#eab070;fill-rule:nonzero;"/><path id="Tracciato_339" d="M1549.41,576.948l-1.01,-1.078l-0.538,1.818l0.4,0.741l1.148,-1.481Z" style="fill:#d38e4f;fill-rule:nonzero;"/></g><path id="Tracciato_340" d="M1513.95,621.397l2.116,6.621l7.1,9.557l29.078,-2.457l-15.254,5.945l-12.186,3.338c-1.856,0.002 -3.557,-1.061 -4.368,-2.73l-6.282,-12.833l-0.204,-7.441Z" style="fill:#eb6300;fill-rule:nonzero;"/><path id="Tracciato_341" d="M1608.67,616.175l-6.861,9.113l-4.505,3.277l-26.622,3.276l-3.822,-2.321l1.911,3.823l14.2,2.321l9.113,1.706c1.819,0.043 6.041,-1.433 8.908,-2.662l4.37,-10.512l3.308,-8.021Z" style="fill:#eb6300;fill-rule:nonzero;"/><path id="Tracciato_342" d="M1566.25,718.721c-0.546,0.205 7.224,-12.912 10.854,-16.451c5.229,-5.05 10.781,-9.755 16.62,-14.086l-2.431,-4.737l-27.167,18.293l-2.143,8.766l4.267,8.215Z" style="fill:#eb6300;fill-rule:nonzero;"/><path id="Tracciato_343" d="M1562.15,718.175c-3.781,-3.659 -15.6,-16.649 -21.3,-20.41c-2.061,-1.36 -9.011,-4.915 -9.011,-4.915l2.458,-7.987l22.176,19.061l8.165,9.518l-2.488,4.733Z" style="fill:#eb6300;fill-rule:nonzero;"/><path id="Tracciato_344" d="M1612.97,649.548l4.1,3.686l3.823,0.819l1.911,-5.734l-2.73,2.457l-7.104,-1.228Z" style="fill:#eb6300;fill-rule:nonzero;"/><path id="Tracciato_345" d="M1568.7,581.19l-5.529,9.83l0.744,-8.788l4.785,-1.042Z" style="fill:#cb7d35;fill-rule:nonzero;"/><path id="Tracciato_346" d="M1643.28,652.142l1.365,7.1l-4.369,2.457l2.185,-3.55l0.819,-6.007Z" style="fill:#eb6300;fill-rule:nonzero;"/><path id="Tracciato_347" d="M1541.19,663.79l9.83,-11.468l15.563,-0.409c0,0 11.059,9.01 10.649,10.239c-3.276,-0.819 -13.925,-5.734 -13.925,-5.734l-9.011,1.229l-13.106,6.143Z" style="fill:#eb6300;fill-rule:nonzero;"/><path id="Tracciato_348" d="M1548.26,666.89l4.3,0.2l7.577,-3.276l-1.024,3.686c0,0 -5.939,2.252 -7.168,2.252c-1.17,-1.028 -2.4,-1.984 -3.685,-2.862Z" style="fill:#eb6300;fill-rule:nonzero;"/><path id="Tracciato_349" d="M1571.43,665.221l-6.691,0.614l-4.095,-2.8l0.546,3.822c0,0 4.916,2.185 6.144,2.185c1.639,-0.408 4.096,-3.821 4.096,-3.821Z" style="fill:#eb6300;fill-rule:nonzero;"/><path id="Tracciato_350" d="M1533.82,763.99l-4.915,1.912l-2.459,-3.208l-0.544,4.3c-0.025,1.449 0.572,2.841 1.638,3.823c1.02,-1.019 6.28,-6.827 6.28,-6.827Z" style="fill:#eb6300;fill-rule:nonzero;"/><path id="Tracciato_351" d="M1612.18,763.176l-2.757,2.008l-5.189,-0.548l5.189,6.008c0,0 3,0.546 4.327,-1.461c-0.64,-1.97 -1.164,-3.976 -1.57,-6.007Z" style="fill:#eb6300;fill-rule:nonzero;"/><path id="Tracciato_352" d="M1529.15,757.333l-3.55,-0.614l-4.641,-7.373l1.365,7.92c0.045,1.757 0.321,3.501 0.819,5.187c1.02,-1.024 6.007,-5.12 6.007,-5.12Z" style="fill:#eb6300;fill-rule:nonzero;"/><g id="Raggruppa_192"><path id="Tracciato_353" d="M1593.1,674.641l6.553,2.969l3.789,-0.409l4.71,-4.3l6.041,-11.16c4.215,1.775 8.147,4.162 11.668,7.083l-3.222,2.238l-9.138,8.016l14.016,-8.741c1.592,1.591 2.677,3.174 2.763,4.536l-18.942,10.581l-3.55,2.183l-6.28,5.053l-5.324,0.819l-2.867,-6.553l-2.458,-4.3l-0.819,-7.168l3.06,-0.847Z" style="fill:#232d36;fill-rule:nonzero;"/><path id="Tracciato_354" d="M1625.86,668.824l1.318,-0.915l9.038,-7.672l-7.346,9.255l-1.354,0.845c-0.506,-0.506 -1.062,-1.012 -1.656,-1.513Z" style="fill:#eb6300;fill-rule:nonzero;"/><path id="Tracciato_355" d="M1622.63,671.062l3.222,-2.238c0.594,0.5 1.15,1.007 1.656,1.513l-14.016,8.741l9.138,-8.016Z" style="fill:#3b424c;fill-rule:nonzero;"/></g><path id="Tracciato_356" d="M1616.52,600.946l-3.549,-2.457l-0.819,1.365l-1.3,-3.857l3.617,1.126l2.051,3.823Z" style="fill:#eb6300;fill-rule:nonzero;"/><path id="Tracciato_357" d="M1560.16,672.73l-10.786,3.413l6.827,0.957l3.959,-4.37Z" style="fill:#eb6300;fill-rule:nonzero;"/><path id="Tracciato_358" d="M1568.74,676.102l-7.21,-3.03l1.749,4.19l5.461,-1.16Z" style="fill:#eb6300;fill-rule:nonzero;"/><path id="Tracciato_359" d="M1587,742.476l9.282,10.512l5.905,4.412l-9.931,-1.068l-18.43,-28.465l13.174,14.609Z" style="fill:#eb6300;fill-rule:nonzero;"/><path id="Tracciato_360" d="M1547.61,744.66c-4.71,7.168 -8.806,10.24 -8.806,10.24l-5.325,0l6.008,6.826l3.618,-7.03c0,0 2.867,-6.145 4.505,-10.036Z" style="fill:#eb6300;fill-rule:nonzero;"/><path id="Tracciato_361" d="M1533.62,683.576c0,0 20.778,-1.076 26.52,-1.331c11.2,-0.5 32.151,1.024 32.151,1.024c0.462,1.333 0.804,2.705 1.024,4.1c-16.315,5.979 -29.08,27.989 -29.08,27.989l-3.276,-1.093c0,0 -8.575,-8.764 -15.947,-15.864c-9.071,-8.739 -12.723,-8.369 -12.723,-8.369l1.331,-6.456Z" style="fill:#232d36;fill-rule:nonzero;"/><path id="Tracciato_362" d="M1510.75,789.099c-1.024,15.768 -3.734,43.545 -4.678,46.94c-0.512,1.843 -2.729,5.381 -4.3,7.373c-1.982,2.004 -4.066,3.903 -6.244,5.69l-3,3.32l25.256,0.092c0,0 0.41,-4.335 0.41,-6.28c-0.1,-2.662 -0.65,-5.28 0.374,-9.99c0.978,-4.46 2.784,-8.697 5.324,-12.492c1.559,-3.79 8.807,-15.563 8.807,-15.563c0,0 1.558,-7.4 2.662,-13.056c-6.557,-2.185 -19.697,-4.122 -24.611,-6.034Z" style="fill:#232d36;fill-rule:nonzero;"/><path id="Tracciato_363" d="M1637.75,837.063c-2.048,-3.276 -3.481,-10.172 -3.481,-10.172c-4.2,-26.558 -6.375,-36.725 -8.616,-41.642c-3.413,1.91 -21.42,12.155 -21.42,12.155c0,0 1.088,3.406 2.592,7.516c9.284,14.2 16.693,26.512 17.512,31.426c1.194,4.2 2.25,5.7 1.194,9.659c-0.676,2.323 -0.519,4.811 0.444,7.031l23.038,0c1.095,-0.321 0,-1.843 -1.433,-4.095c-3.78,-3.515 -7.085,-7.508 -9.83,-11.878Z" style="fill:#232d36;fill-rule:nonzero;"/><path id="Tracciato_364" d="M1596.32,679.174l-3.277,1.911l-2.217,0.6l-0.514,-3.335l4.1,1.092l1.908,-0.268Z" style="fill:#3b424c;fill-rule:nonzero;"/><path id="Tracciato_365" d="M1626.08,620.332l6.826,6.553l0.819,12.833l-3.276,-10.239l-4.369,-9.147Z" style="fill:#eb6300;fill-rule:nonzero;"/><path id="Tracciato_366" d="M1514.68,840.816l1.366,7.373l-4.847,-0.682c0,0 -0.186,-0.269 1.638,-2.457c0.915,-1.261 1.544,-2.706 1.843,-4.234Z" style="fill:#3b424c;fill-rule:nonzero;"/><path id="Tracciato_367" d="M1559.08,715.581c0,0 -8.191,16.587 -11.878,21.912c2.458,-6.349 9.42,-24.779 9.42,-24.779l2.458,2.867Z" style="fill:#eb6300;fill-rule:nonzero;"/><path id="Tracciato_368" d="M1405.77,586.65c23.517,-0.118 56,0.019 56,0.019c4.128,0 7.255,-1.966 7.255,-4.392l-67.917,0c0,0 0.832,4.392 4.662,4.373Z" style="fill:#babcbd;"/><g id="Raggruppa_193"><path id="Tracciato_369" d="M1452.87,578.915c0.701,-0.243 1.282,-0.749 1.62,-1.411c0.131,-0.312 0.194,-0.648 0.186,-0.986l0,-22.633c-0.3,-0.189 -0.613,-0.373 -0.913,-0.569c-6.262,-4.092 -12.522,-8.186 -18.778,-12.284c-0.309,-0.256 -0.763,-0.25 -1.064,0.014c-2.416,1.6 -4.854,3.176 -7.28,4.766c-2.526,1.656 -5.049,3.317 -7.568,4.983l0,25.474c-0.018,0.747 0.281,1.467 0.824,1.981c0.294,0.293 0.7,0.378 0.985,0.665l7.216,0c0.012,-0.239 0.035,-0.478 0.035,-0.717c0,-5.731 0.008,-11.461 -0.011,-17.192c0,-0.509 0.146,-0.625 0.636,-0.622c3.787,0.02 7.574,0.02 11.361,0c0.544,0 0.7,0.129 0.695,0.686c-0.021,5.711 -0.013,11.421 -0.011,17.132c0,0.238 0.028,0.477 0.043,0.715l12.024,-0.002Z" style="fill:#e9f2f3;fill-rule:nonzero;"/><path id="Tracciato_370" d="M1440.84,578.915c-0.015,-0.238 -0.043,-0.477 -0.043,-0.715c0,-5.711 -0.01,-11.421 0.011,-17.132c0,-0.557 -0.151,-0.689 -0.695,-0.686c-3.788,0.024 -7.575,0.024 -11.361,0c-0.49,0 -0.637,0.113 -0.636,0.622c0.019,5.731 0.013,11.461 0.011,17.192c0,0.239 -0.023,0.478 -0.035,0.717l12.748,0.002Z" style="fill:#f9930f;fill-rule:nonzero;"/><path id="Tracciato_371" d="M1420.88,578.915c-0.282,-0.287 -0.691,-0.372 -0.985,-0.665c-0.543,-0.514 -0.842,-1.234 -0.824,-1.981c0.008,-8.492 0.008,-16.984 0,-25.474c-1.679,0.981 -3.219,2.181 -4.927,3.118c0,7.265 0.015,14.53 -0.015,21.794c-0.192,1.387 0.619,2.73 1.936,3.208l4.815,0Z" style="fill:#d7e9ef;fill-rule:nonzero;"/><path id="Tracciato_372" d="M1414.14,553.913c1.708,-0.937 3.248,-2.137 4.927,-3.118c2.522,-1.662 5.045,-3.323 7.568,-4.983c2.426,-1.59 4.864,-3.161 7.28,-4.766c0.301,-0.264 0.755,-0.27 1.064,-0.014c6.252,4.105 12.512,8.2 18.778,12.284c0.3,0.2 0.609,0.38 0.913,0.569c0.219,0.068 0.448,0.103 0.677,0.103c1.068,0 2.001,-0.749 2.232,-1.792c0.213,-0.663 0.05,-1.392 -0.425,-1.9c-0.23,-0.252 -0.493,-0.472 -0.782,-0.653c-6.77,-4.506 -13.536,-9.015 -20.3,-13.527c-0.947,-0.734 -2.28,-0.737 -3.229,-0.006c-6.778,4.529 -13.56,9.051 -20.346,13.567c-0.86,0.415 -1.351,1.348 -1.206,2.291c0.129,0.963 0.838,1.754 1.782,1.987c0.354,0.059 0.717,0.044 1.067,-0.042Z" style="fill:#e46097;fill-rule:nonzero;"/><path id="Tracciato_373" d="M1433.85,517.337c-3.724,0.115 -7.268,1.645 -9.906,4.275c-0.258,0.177 -0.413,0.47 -0.413,0.783c0,0.238 0.09,0.468 0.251,0.643c0.394,0.421 0.914,0.4 1.423,-0.09c2.417,-2.399 5.685,-3.753 9.091,-3.767c3.446,-0.076 6.784,1.225 9.271,3.613c0.073,0.068 0.143,0.14 0.218,0.206c0.171,0.21 0.429,0.332 0.7,0.332c0.239,0 0.468,-0.095 0.638,-0.262c0.183,-0.173 0.287,-0.414 0.287,-0.666c0,-0.278 -0.127,-0.541 -0.344,-0.714c-1.007,-1.007 -2.156,-1.861 -3.41,-2.535c-2.4,-1.274 -5.091,-1.9 -7.806,-1.818Z" style="fill:#ffd400;fill-rule:nonzero;"/><path id="Tracciato_374" d="M1427.11,526.099c-0.043,0.378 0.165,0.744 0.513,0.9c0.375,0.176 0.824,0.08 1.095,-0.234c1.027,-1.026 2.318,-1.747 3.73,-2.084c2.751,-0.722 5.689,0.056 7.722,2.046c0.288,0.353 0.79,0.455 1.194,0.243c0.369,-0.194 0.552,-0.626 0.435,-1.026c-0.066,-0.234 -0.207,-0.44 -0.4,-0.587c-3.874,-3.655 -10.006,-3.655 -13.879,0c-0.229,0.233 -0.442,0.471 -0.41,0.742Z" style="fill:#ffd400;fill-rule:nonzero;"/><path id="Tracciato_375" d="M1434.29,527.554c-1.235,0.018 -2.42,0.494 -3.324,1.334c-0.539,0.473 -0.613,1.035 -0.218,1.461c0.395,0.426 0.88,0.387 1.427,-0.074c1.286,-1.191 3.298,-1.191 4.585,0c0.546,0.461 1.044,0.487 1.427,0.074c0.383,-0.413 0.32,-0.978 -0.222,-1.457c-1.006,-0.904 -2.324,-1.383 -3.675,-1.338Z" style="fill:#ffd400;fill-rule:nonzero;"/></g><g id="Raggruppa_194"><path id="Tracciato_376" d="M1452.87,578.915c0.701,-0.243 1.282,-0.749 1.62,-1.411c0.131,-0.312 0.194,-0.648 0.186,-0.986l0,-22.633c-0.3,-0.189 -0.613,-0.373 -0.913,-0.569c-6.262,-4.092 -12.522,-8.186 -18.778,-12.284c-0.309,-0.256 -0.763,-0.25 -1.064,0.014c-2.416,1.6 -4.854,3.176 -7.28,4.766c-2.526,1.656 -5.049,3.317 -7.568,4.983l0,25.474c-0.018,0.747 0.281,1.467 0.824,1.981c0.294,0.293 0.7,0.378 0.985,0.665l7.216,0c0.012,-0.239 0.035,-0.478 0.035,-0.717c0,-5.731 0.008,-11.461 -0.011,-17.192c0,-0.509 0.146,-0.625 0.636,-0.622c3.787,0.02 7.574,0.02 11.361,0c0.544,0 0.7,0.129 0.695,0.686c-0.021,5.711 -0.013,11.421 -0.011,17.132c0,0.238 0.028,0.477 0.043,0.715l12.024,-0.002Z" style="fill:#e7e9e5;fill-rule:nonzero;"/><path id="Tracciato_377" d="M1440.84,578.915c-0.015,-0.238 -0.043,-0.477 -0.043,-0.715c0,-5.711 -0.01,-11.421 0.011,-17.132c0,-0.557 -0.151,-0.689 -0.695,-0.686c-3.788,0.024 -7.575,0.024 -11.361,0c-0.49,0 -0.637,0.113 -0.636,0.622c0.019,5.731 0.013,11.461 0.011,17.192c0,0.239 -0.023,0.478 -0.035,0.717l12.748,0.002Z" style="fill:#f9930f;fill-rule:nonzero;"/><path id="Tracciato_378" d="M1420.88,578.915c-0.282,-0.287 -0.691,-0.372 -0.985,-0.665c-0.543,-0.514 -0.842,-1.234 -0.824,-1.981c0.008,-8.492 0.008,-16.984 0,-25.474c-1.679,0.981 -3.219,2.181 -4.927,3.118c0,7.265 0.015,14.53 -0.015,21.794c-0.192,1.387 0.619,2.73 1.936,3.208l4.815,0Z" style="fill:#d1d2d2;fill-rule:nonzero;"/><path id="Tracciato_379" d="M1414.14,553.913c1.708,-0.937 3.248,-2.137 4.927,-3.118c2.522,-1.662 5.045,-3.323 7.568,-4.983c2.426,-1.59 4.864,-3.161 7.28,-4.766c0.301,-0.264 0.755,-0.27 1.064,-0.014c6.252,4.105 12.512,8.2 18.778,12.284c0.3,0.2 0.609,0.38 0.913,0.569c0.219,0.068 0.448,0.103 0.677,0.103c1.068,0 2.001,-0.749 2.232,-1.792c0.213,-0.663 0.05,-1.392 -0.425,-1.9c-0.23,-0.252 -0.493,-0.472 -0.782,-0.653c-6.77,-4.506 -13.536,-9.015 -20.3,-13.527c-0.947,-0.734 -2.28,-0.737 -3.229,-0.006c-6.778,4.529 -13.56,9.051 -20.346,13.567c-0.86,0.415 -1.351,1.348 -1.206,2.291c0.129,0.963 0.838,1.754 1.782,1.987c0.354,0.059 0.717,0.044 1.067,-0.042Z" style="fill:#e1383f;fill-rule:nonzero;"/><path id="Tracciato_380" d="M1433.85,517.337c-3.724,0.115 -7.268,1.645 -9.906,4.275c-0.258,0.177 -0.413,0.47 -0.413,0.783c0,0.238 0.09,0.468 0.251,0.643c0.394,0.421 0.914,0.4 1.423,-0.09c2.417,-2.399 5.685,-3.753 9.091,-3.767c3.446,-0.076 6.784,1.225 9.271,3.613c0.073,0.068 0.143,0.14 0.218,0.206c0.171,0.21 0.429,0.332 0.7,0.332c0.239,0 0.468,-0.095 0.638,-0.262c0.183,-0.173 0.287,-0.414 0.287,-0.666c0,-0.278 -0.127,-0.541 -0.344,-0.714c-1.007,-1.007 -2.156,-1.861 -3.41,-2.535c-2.4,-1.274 -5.091,-1.9 -7.806,-1.818Z" style="fill:#ffd400;fill-rule:nonzero;"/><path id="Tracciato_381" d="M1427.11,526.099c-0.043,0.378 0.165,0.744 0.513,0.9c0.375,0.176 0.824,0.08 1.095,-0.234c1.027,-1.026 2.318,-1.747 3.73,-2.084c2.751,-0.722 5.689,0.056 7.722,2.046c0.288,0.353 0.79,0.455 1.194,0.243c0.369,-0.194 0.552,-0.626 0.435,-1.026c-0.066,-0.234 -0.207,-0.44 -0.4,-0.587c-3.874,-3.655 -10.006,-3.655 -13.879,0c-0.229,0.233 -0.442,0.471 -0.41,0.742Z" style="fill:#ffd400;fill-rule:nonzero;"/><path id="Tracciato_382" d="M1434.29,527.554c-1.235,0.018 -2.42,0.494 -3.324,1.334c-0.539,0.473 -0.613,1.035 -0.218,1.461c0.395,0.426 0.88,0.387 1.427,-0.074c1.286,-1.191 3.298,-1.191 4.585,0c0.546,0.461 1.044,0.487 1.427,0.074c0.383,-0.413 0.32,-0.978 -0.222,-1.457c-1.006,-0.904 -2.324,-1.383 -3.675,-1.338Z" style="fill:#ffd400;fill-rule:nonzero;"/></g><path id="Rettangolo_98" d="M1474.6,580.977c0,-1.203 -0.977,-2.179 -2.18,-2.179l-74.711,0c-1.203,0 -2.179,0.976 -2.179,2.179c0,1.203 0.976,2.18 2.179,2.18l74.711,0c1.203,0 2.18,-0.977 2.18,-2.18Z" style="fill:#d1d2d2;"/></g></g><defs><linearGradient id="_Linear2" x1="0" y1="0" x2="1" y2="0" gradientUnits="userSpaceOnUse" gradientTransform="matrix(5.22788e-14,853.777,-853.777,5.22788e-14,955.506,0.0125178)"><stop offset="0" style="stop-color:#fff;stop-opacity:1"/><stop offset="1" style="stop-color:#e2f1ff;stop-opacity:1"/></linearGradient></defs></svg>