<?xml version="1.0" encoding="UTF-8" standalone="no"?><!DOCTYPE svg PUBLIC "-//W3C//DTD SVG 1.1//EN" "http://www.w3.org/Graphics/SVG/1.1/DTD/svg11.dtd"><svg width="100%" height="100%" viewBox="0 0 1913 681" version="1.1" xmlns="http://www.w3.org/2000/svg" xmlns:xlink="http://www.w3.org/1999/xlink" xml:space="preserve" xmlns:serif="http://www.serif.com/" style="fill-rule:evenodd;clip-rule:evenodd;stroke-linejoin:round;stroke-miterlimit:2;"><rect id="Tavola-da-disegno2" serif:id="Tavola da disegno2" x="0" y="0" width="1912.62" height="680.546" style="fill:none;"/><clipPath id="_clip1"><rect x="0" y="0" width="1912.62" height="680.546"/></clipPath><g clip-path="url(#_clip1)"><rect id="Tavola-da-disegno1" serif:id="Tavola da disegno1" x="-1" y="-1" width="1918.38" height="684.036" style="fill:none;"/><g id="Raggruppa_490"><path id="Tracciato_1" d="M-3.939,683.6l1920,-142.768l0,-541.832l-1920,0l0,684.6Z" style="fill:url(#_Linear2);fill-rule:nonzero;"/><g><path d="M1566.9,269.093c13.596,-0.462 22.593,3.888 30.364,8.238c7.634,4.273 14.087,8.545 22.555,8.257c17.091,-0.581 20.007,-18.975 20.007,-18.975c0,0 -4.159,-18.153 -21.25,-17.572c-17.09,0.582 -24.725,19.136 -51.676,20.052Z" style="fill:#f58600;fill-rule:nonzero;"/><path d="M1580.95,269.315c-0.942,-0.225 -1.909,-0.426 -2.905,-0.601c9.064,-2.234 15.567,-6.544 21.492,-10.471c6.342,-4.203 11.82,-7.834 19.08,-8.081c0.256,-0.009 0.51,-0.013 0.763,-0.013c4.271,0 8.007,1.24 11.162,3.699c-2.648,-1.573 -5.908,-2.613 -9.901,-2.613c-0.262,0 -0.529,0.005 -0.798,0.014c-14.03,0.477 -21.69,13.065 -38.893,18.066Z" style="fill:#fff;fill-rule:nonzero;"/><path d="M1589.9,268.151c8.754,-0.298 14.563,2.904 19.581,6.105c4.941,3.151 9.115,6.302 14.579,6.116c11.015,-0.374 12.84,-13.819 12.84,-13.819c0,0 -2.735,-13.29 -13.749,-12.916c-11.015,0.375 -15.881,13.923 -33.251,14.514Z" style="fill:#a65b00;fill-rule:nonzero;"/><path d="M1605.95,267.829c5.417,-0.184 9.013,1.797 12.119,3.779c3.058,1.95 5.642,3.9 9.024,3.785c6.817,-0.232 7.948,-8.553 7.948,-8.553c0,0 -1.694,-8.226 -8.511,-7.995c-6.817,0.232 -9.83,8.618 -20.58,8.984Z" style="fill:#fff;fill-rule:nonzero;"/><path d="M1578.04,268.714c9.195,1.614 15.975,5.472 22.154,8.988c6.613,3.763 12.33,7.013 19.584,6.765c6.664,-0.227 11.865,-3.291 15.457,-9.109c2.393,-3.874 3.258,-7.762 3.441,-8.706c-0.246,-0.927 -1.373,-4.748 -4.024,-8.452c-3.98,-5.56 -9.381,-8.263 -16.04,-8.038c-7.26,0.247 -12.738,3.878 -19.08,8.081c-5.925,3.927 -12.428,8.237 -21.492,10.471Zm40.976,18.009c-7.502,0 -13.546,-3.439 -19.931,-7.073c-8.186,-4.657 -17.464,-9.934 -32.149,-9.436c-0.624,0.02 -1.138,-0.463 -1.159,-1.082c-0.001,-0.014 -0.001,-0.027 -0.001,-0.04c0.001,-0.601 0.478,-1.098 1.083,-1.119c14.687,-0.499 23.584,-6.397 31.434,-11.599c6.35,-4.209 12.349,-8.184 20.243,-8.453c7.379,-0.254 13.601,2.874 17.986,9.038c3.267,4.595 4.35,9.209 4.395,9.403c0.031,0.141 0.037,0.285 0.014,0.427c-0.032,0.196 -0.798,4.873 -3.746,9.68c-3.955,6.447 -9.949,9.988 -17.331,10.24c-0.281,0.009 -0.561,0.014 -0.838,0.014Z" style="fill:#371a45;fill-rule:nonzero;"/><path d="M1648.13,286.199l-6.48,-1.231c-2.931,-0.556 -5.321,-2.68 -6.22,-5.524c-0.94,-2.981 -1.59,-6.032 -1.945,-9.112c-0.214,-1.849 -0.319,-3.707 -0.319,-5.565c0,-3.852 0.458,-7.704 1.373,-11.483c0.353,-1.45 1.088,-2.745 2.096,-3.771c1.011,-1.027 2.291,-1.785 3.735,-2.162l6.282,-1.645l0.099,-0.024l1.379,40.517Z" style="fill-rule:nonzero;"/><path d="M1635.67,253.862c0.022,-0.095 0.045,-0.19 0.068,-0.285c0.597,-2.462 2.49,-4.389 4.942,-5.03l4.222,-1.105c-0.196,0.675 -0.381,1.352 -0.553,2.032l-3.983,1.043c-1.444,0.377 -2.724,1.135 -3.735,2.162c-0.356,0.362 -0.678,0.758 -0.961,1.183Z" style="fill:#6e6e6e;fill-rule:nonzero;"/><path d="M1648.13,286.199l-6.48,-1.231c-2.931,-0.556 -5.321,-2.68 -6.22,-5.524c-0.94,-2.981 -1.59,-6.032 -1.945,-9.112c1.839,0.779 4.557,1.391 6.205,-0.708c2.943,-3.747 1.827,-17.425 6.962,-23.918l0.099,-0.024l1.379,40.517Z" style="fill:#6f6f6f;fill-rule:nonzero;"/><path d="M1630.16,230.395c3.282,1.874 18.771,10.556 18.734,20.207l15.963,-7.621c-0.061,-0.47 -0.151,-0.96 -0.273,-1.46l0.001,-0.003c-1.751,-7.193 -10.048,-17.159 -33.787,-11.945c-0.177,0.037 -0.354,0.078 -0.533,0.118c-0.338,0.076 -0.406,0.531 -0.105,0.704Z" style="fill:#f58600;fill-rule:nonzero;"/><path d="M1630.16,230.395c3.282,1.874 18.771,10.556 18.734,20.207l15.963,-7.621c-0.061,-0.47 -0.151,-0.96 -0.273,-1.46l0.222,0.673c-1.189,-0.515 -3.092,-1.055 -4.893,-0.826c-6.615,0.845 -10.099,0.799 -13.412,-2.554c-4.153,-4.204 -11.875,-8.572 -15.703,-9.241c-0.177,0.037 -0.354,0.078 -0.533,0.118c-0.338,0.076 -0.406,0.531 -0.105,0.704Z" style="fill:#a65b00;fill-rule:nonzero;"/><path d="M1658.31,236.823c-3.968,-3.557 -10.271,-6.454 -19.233,-6.454c-1.566,0 -3.213,0.088 -4.944,0.277c-0.275,-0.116 -0.545,-0.225 -0.808,-0.326c3.429,-0.635 6.629,-0.951 9.576,-0.951c5.909,0 10.792,1.273 14.415,3.8c1.208,0.842 2.188,1.755 2.982,2.681c-0.687,0.326 -1.35,0.651 -1.988,0.973Z" style="fill:#fff;fill-rule:nonzero;"/><path d="M1633.22,230.755c-0.172,-0.105 -0.347,-0.209 -0.522,-0.314c0.212,-0.042 0.424,-0.082 0.634,-0.121c0.263,0.101 0.533,0.21 0.808,0.326c-0.304,0.033 -0.611,0.07 -0.92,0.109Z" style="fill:#fff;fill-rule:nonzero;"/><path d="M1648.89,251.84l-0.004,0c-0.683,-0.003 -1.235,-0.559 -1.232,-1.241c0.012,-3.281 -2.304,-10.118 -17.956,-19.041l-0.156,-0.089c-0.583,-0.333 -0.897,-0.979 -0.797,-1.644c0.098,-0.666 0.586,-1.192 1.242,-1.341c12.482,-2.834 22.153,-1.94 28.743,2.656c5.784,4.034 7.067,9.512 7.349,11.681c0.088,0.677 -0.389,1.298 -1.066,1.386c-0.676,0.086 -1.298,-0.389 -1.386,-1.066c-0.241,-1.843 -1.336,-6.503 -6.312,-9.972c-5.541,-3.864 -14.023,-4.796 -24.625,-2.728c14.385,8.601 17.454,15.679 17.437,20.167c-0.003,0.682 -0.556,1.232 -1.237,1.232Z" style="fill:#371a45;fill-rule:nonzero;"/><path d="M1666.41,288.575c-0.45,7.284 -7.43,20.111 -33.596,16.017c-0.343,-0.053 -0.442,-0.504 -0.153,-0.696c3.148,-2.092 17.996,-12.24 17.304,-21.866l16.445,6.545Z" style="fill:#a7a7a7;fill-rule:nonzero;"/><path d="M1632.81,304.594c-0.342,-0.056 -0.441,-0.505 -0.152,-0.698c1.611,-1.072 6.294,-4.257 10.384,-8.405c3.867,-3.917 7.205,-8.696 6.924,-13.358c-0.001,-0.034 -0.005,-0.07 -0.007,-0.103l0.101,0.039l16.344,6.505c-0.126,2.045 -0.766,4.527 -2.204,6.948c-3.674,6.205 -12.567,12.015 -31.39,9.072Z" style="fill:#f58600;fill-rule:nonzero;"/><path d="M1642.17,304.134c-2.207,0 -4.547,-0.152 -7.007,-0.458c0.295,-0.209 0.6,-0.427 0.913,-0.656c1.744,0.157 3.389,0.232 4.942,0.232c9.809,-0.001 15.909,-2.955 19.526,-6.674c0.606,-0.126 1.192,-0.271 1.76,-0.432c-0.762,1.045 -1.726,2.092 -2.943,3.07c-4.057,3.26 -9.909,4.918 -17.191,4.918Z" style="fill:#ff808c;fill-rule:nonzero;"/><path d="M1643.04,295.491c3.867,-3.917 7.205,-8.696 6.924,-13.358c0.031,-0.021 0.062,-0.044 0.094,-0.064l16.344,6.505c-0.126,2.045 -0.766,4.527 -2.204,6.948c-5.146,1.945 -12.074,2.444 -21.158,-0.031Z" style="fill:#a65b00;fill-rule:nonzero;"/><path d="M1642.33,306.627c-3.003,0 -6.241,-0.27 -9.707,-0.812c-0.664,-0.105 -1.187,-0.596 -1.331,-1.254c-0.143,-0.657 0.124,-1.322 0.684,-1.694c4.086,-2.716 17.367,-12.237 16.756,-20.748c-0.049,-0.681 0.464,-1.274 1.145,-1.323c0.682,-0.048 1.273,0.464 1.321,1.146c0.622,8.644 -9.864,17.379 -16.028,21.734c10.576,1.317 18.912,-0.212 24.198,-4.46c5.024,-4.038 5.715,-9.224 5.808,-10.716c0.041,-0.682 0.628,-1.199 1.31,-1.159c0.682,0.042 1.2,0.629 1.158,1.311c-0.138,2.242 -1.071,7.947 -6.727,12.492c-4.542,3.65 -10.771,5.483 -18.587,5.483Z" style="fill:#371a45;fill-rule:nonzero;"/><path d="M1790.94,261.06c0,0 -18.371,33.792 -72.612,39.386c-46.2,4.761 -70.195,-14.247 -70.195,-14.247c-4.285,-10.45 -5.42,-21.868 -3.357,-32.865c0.485,-2.585 1.146,-5.136 1.978,-7.652c0,0 1.045,-0.953 3.147,-2.427c0.795,-0.557 1.738,-1.188 2.836,-1.874l0.003,-0.003c2.096,-1.308 4.742,-2.807 7.945,-4.338c0.678,-0.324 1.379,-0.649 2.109,-0.974c0.22,-0.098 0.442,-0.194 0.665,-0.293c4.526,-1.979 9.977,-3.939 16.367,-5.532c7.702,-1.92 16.761,-3.314 27.198,-3.579c2.833,-0.074 5.766,-0.063 8.8,0.04c4.229,0.145 8.257,0.479 12.085,0.967c7.287,0.924 13.86,2.412 19.757,4.258c25.803,8.066 38.689,22.978 42.238,27.677c0.699,0.928 1.036,1.456 1.036,1.456Z" style="fill:#fff;fill-rule:nonzero;"/><path d="M1690.29,251.009c-11.864,-2.362 -21.406,-7.568 -26.139,-14.193c0.112,-0.049 0.224,-0.098 0.336,-0.146c0.708,-0.304 1.448,-0.611 2.221,-0.92c0.257,0.238 0.523,0.475 0.797,0.711c4.118,3.538 10.01,5.408 15.845,6.353c0.068,0.122 0.139,0.244 0.213,0.365c0,0 0.001,0.001 0.001,0.002c0.003,0.004 0.006,0.009 0.009,0.015c0.001,0.001 0.002,0.003 0.003,0.004c0.003,0.005 0.006,0.01 0.009,0.014c0.002,0.004 0.005,0.008 0.007,0.012c0.001,0.002 0.002,0.004 0.004,0.005c0.002,0.005 0.005,0.009 0.007,0.013c0.592,0.948 1.386,1.854 2.403,2.698c1.678,1.394 3.681,1.928 5.768,1.928c0.518,0 1.041,-0.033 1.566,-0.094c-1.124,0.97 -2.147,2.054 -3.05,3.233Zm33.243,-1.068c-0.462,-0.528 -0.948,-1.034 -1.459,-1.515c0.918,-0.352 1.798,-0.853 2.615,-1.533c1.967,-1.633 3.265,-3.577 3.854,-5.713c4.903,-0.999 9.647,-2.731 13.051,-5.656c0.231,-0.198 0.454,-0.397 0.671,-0.596c0.004,-0.003 0.007,-0.006 0.011,-0.009c0.001,-0.003 0.003,-0.004 0.005,-0.006c0.923,-0.849 1.729,-1.711 2.423,-2.579c0.85,0.241 1.692,0.493 2.529,0.753c-3.061,7.451 -11.921,13.619 -23.7,16.854Z" style="fill:#cdc6d0;fill-rule:nonzero;"/><path d="M1703.87,297.525c-33.724,0 -51.16,-13.814 -51.16,-13.814c-1.353,-3.299 -2.364,-6.702 -3.033,-10.158c0.039,-0.001 0.078,-0.003 0.117,-0.004c6.956,-0.233 12.605,-4.709 14.824,-6.743c0.079,0.052 0.156,0.103 0.231,0.154c0.51,-0.479 0.784,-0.776 0.784,-0.776c0,0 -0.062,-0.06 -0.184,-0.169c-0.002,-0.001 -0.003,-0.002 -0.004,-0.004c0.123,-0.127 0.188,-0.197 0.188,-0.197c0,0 -0.063,-0.06 -0.185,-0.17c-1.161,-1.036 -7.642,-6.484 -15.56,-6.484c-0.194,0 -0.39,0.003 -0.585,0.009c-0.147,0.005 -0.295,0.013 -0.441,0.021c0.149,-1.915 0.402,-3.826 0.757,-5.723c0.233,-1.238 0.51,-2.467 0.829,-3.687c0.586,-2.243 1.935,-4.213 3.831,-5.547c0.019,-0.014 0.038,-0.027 0.058,-0.041c0.731,-0.512 1.599,-1.093 2.609,-1.724c-1.599,2.398 -3.044,4.974 -2.632,8.487c0.916,7.784 15.216,13.915 15.216,13.915c0,0 -3.19,7.85 3.997,14.388c4.916,4.473 11.938,7.107 20.14,8.254c-3.012,-3.186 -4.922,-7.443 -5.081,-12.168c-0.01,-0.287 -0.013,-0.573 -0.01,-0.857c3.687,6.607 10.751,11.044 18.763,11.044c0.245,0 0.493,-0.004 0.739,-0.013c7.59,-0.258 14.139,-4.444 17.754,-10.535c-0.062,4.453 -1.695,8.55 -4.385,11.738c10.821,-1.734 21.926,-4.911 31.999,-9.05c-0.25,3.243 -0.615,6.488 -1.095,9.728c-9.243,4.37 -20.8,7.954 -35.046,9.422c-4.731,0.488 -9.213,0.704 -13.435,0.704Z" style="fill:#cdc6d0;fill-rule:nonzero;"/><path d="M1790.94,261.06c0,0 -0.16,0.294 -0.492,0.835l-0.006,0.006c-0.334,0.538 -0.844,1.317 -1.536,2.291c-0.062,0.093 -0.13,0.182 -0.198,0.275c-0.182,0.254 -0.38,0.52 -0.587,0.795c-0.025,0.037 -0.053,0.074 -0.081,0.108c-0.105,0.139 -0.213,0.282 -0.325,0.427c-0.006,0.012 -0.015,0.021 -0.027,0.033c-0.149,0.195 -0.303,0.393 -0.464,0.597c-0.009,0.013 -0.019,0.025 -0.028,0.038c-0.123,0.151 -0.244,0.305 -0.371,0.463c-0.457,0.569 -0.955,1.166 -1.497,1.79c-0.098,0.118 -0.2,0.232 -0.302,0.349c-0.619,0.705 -1.29,1.444 -2.016,2.208c-0.105,0.115 -0.214,0.229 -0.322,0.34c-1.623,1.685 -3.502,3.485 -5.661,5.336c-0.163,0.14 -0.331,0.282 -0.497,0.424c-0.043,0.031 -0.084,0.068 -0.127,0.105c-0.254,0.21 -0.507,0.424 -0.767,0.637c-0.13,0.105 -0.26,0.21 -0.392,0.318c-0.13,0.109 -0.264,0.214 -0.396,0.319c-0.399,0.325 -0.81,0.647 -1.228,0.965c-0.138,0.108 -0.278,0.216 -0.417,0.321c-0.285,0.214 -0.569,0.43 -0.856,0.643c-0.146,0.112 -0.291,0.216 -0.439,0.325c-0.44,0.321 -0.888,0.643 -1.343,0.968c-0.154,0.108 -0.306,0.213 -0.46,0.321c-0.461,0.321 -0.934,0.643 -1.413,0.965c-4.477,2.992 -9.717,5.923 -15.798,8.521c0.642,-3.609 1.143,-7.238 1.505,-10.874c14.596,-5.618 27.504,-13.109 35.505,-21.305c0.09,0.117 0.171,0.226 0.245,0.327c0.04,0.053 0.074,0.103 0.111,0.152c0.179,0.244 0.322,0.449 0.427,0.603c0.065,0.092 0.117,0.167 0.157,0.226c0.025,0.04 0.047,0.071 0.062,0.093c0.022,0.034 0.034,0.052 0.034,0.055Z" style="fill:#ce2030;fill-rule:nonzero;"/><path d="M1790.94,261.062c0,0 -10.256,18.851 -38.05,30.72c1.189,-6.679 1.894,-13.418 2.111,-20.162c0.3,-9.247 -0.312,-18.507 -1.833,-27.646c-0.613,-3.682 -1.373,-7.346 -2.279,-10.982c0.102,0.034 0.201,0.071 0.3,0.105c1.704,0.6 3.346,1.231 4.928,1.883c18.922,7.798 29.276,18.937 33.097,23.736c0.714,0.899 1.203,1.579 1.469,1.969c0.173,0.244 0.257,0.377 0.257,0.377Z" style="fill:#f58600;fill-rule:nonzero;"/><path d="M1790.94,261.063l0,-0.001l0,0.001Zm0,-0.001c-0.002,-0.003 -0.01,-0.016 -0.025,-0.04c0,0 0,0 -0.001,0c0.016,0.024 0.024,0.037 0.026,0.04Zm-0.04,-0.063l-0.001,0c-0.014,-0.021 -0.032,-0.049 -0.053,-0.08c0.021,0.031 0.04,0.059 0.054,0.08Zm-0.086,-0.128c-0.001,-0.001 -0.002,-0.002 -0.003,-0.003c-0.021,-0.031 -0.045,-0.066 -0.071,-0.104c-0.001,0 -0.002,-0.002 -0.003,-0.003c0.029,0.04 0.055,0.078 0.077,0.11Zm-0.26,-0.374c-0.002,-0.002 -0.004,-0.005 -0.006,-0.007c-0.254,-0.363 -0.638,-0.889 -1.154,-1.548c0.519,0.662 0.905,1.192 1.16,1.555Zm-1.339,-1.781c-0.003,-0.005 -0.007,-0.009 -0.01,-0.014c0.003,0.005 0.007,0.009 0.01,0.014Zm-0.012,-0.016c-0.003,-0.003 -0.006,-0.007 -0.008,-0.01c0.002,0.003 0.005,0.006 0.008,0.01Zm-0.011,-0.014c-0.007,-0.008 -0.013,-0.016 -0.02,-0.025c0.007,0.009 0.013,0.017 0.02,0.025Zm-0.025,-0.031c-0.002,-0.002 -0.003,-0.004 -0.005,-0.006c0.002,0.002 0.003,0.004 0.005,0.006Zm-0.009,-0.011c-0.002,-0.003 -0.005,-0.006 -0.007,-0.009c0.002,0.003 0.005,0.006 0.007,0.009Zm-0.018,-0.022l0,-0.001l0,0.001Zm-34.138,-24.094c-0.002,-0.001 -0.003,-0.001 -0.005,-0.002c0,0 -0.002,-0.001 -0.003,-0.001l-0.003,-0.001c-0.882,-0.352 -1.784,-0.696 -2.703,-1.032c0.923,0.337 1.828,0.682 2.714,1.036Z" style="fill:#9dd5ff;fill-rule:nonzero;"/><path d="M1790.74,260.764c-0.018,-0.025 -0.037,-0.051 -0.056,-0.079c-0.04,-0.058 -0.085,-0.124 -0.136,-0.195c0.002,0.002 0.004,0.005 0.006,0.007c0.048,0.068 0.091,0.131 0.13,0.188c0.019,0.027 0.036,0.052 0.053,0.076c0.001,0.001 0.002,0.003 0.003,0.003Zm-34.151,-25.588c-0.002,-0.002 -0.005,-0.002 -0.007,-0.003c0.002,0.001 0.005,0.002 0.007,0.003Zm-0.048,-0.021c-0.005,-0.001 -0.011,-0.004 -0.015,-0.006c0.004,0.002 0.009,0.005 0.015,0.006Zm-0.05,-0.02c-0.008,-0.004 -0.016,-0.007 -0.024,-0.01c0.008,0.003 0.016,0.006 0.024,0.01Zm-0.051,-0.021c-0.009,-0.004 -0.02,-0.009 -0.03,-0.013c0.011,0.004 0.02,0.008 0.03,0.013Zm-0.052,-0.022c-0.012,-0.005 -0.024,-0.01 -0.036,-0.015c0.012,0.006 0.024,0.01 0.036,0.015Zm-0.053,-0.022c-0.014,-0.006 -0.026,-0.011 -0.04,-0.016c0.014,0.005 0.026,0.011 0.04,0.016Zm-0.054,-0.022c-0.015,-0.006 -0.031,-0.013 -0.046,-0.019c0.016,0.006 0.031,0.013 0.046,0.019Zm-0.053,-0.023c-0.016,-0.006 -0.032,-0.012 -0.048,-0.019c0.016,0.006 0.032,0.013 0.048,0.019Zm-0.055,-0.022c-0.019,-0.008 -0.036,-0.015 -0.055,-0.023c0.018,0.008 0.036,0.015 0.055,0.023Zm-0.914,-0.372c-0.087,-0.036 -0.174,-0.07 -0.262,-0.105c0.002,0.001 0.003,0.001 0.005,0.002c0.086,0.034 0.172,0.068 0.257,0.103Zm-0.265,-0.106c-0.001,-0.001 -0.002,-0.001 -0.003,-0.001l0.003,0.001Z" style="fill:#fff;fill-rule:nonzero;"/><path d="M1790.91,261.022c-0.005,-0.006 -0.01,-0.014 -0.016,-0.023l0.001,0c0.005,0.009 0.01,0.016 0.014,0.023c0.001,0 0.001,0 0.001,0Zm-0.069,-0.103c-0.011,-0.016 -0.023,-0.033 -0.035,-0.051c0.001,0.001 0.002,0.002 0.003,0.003c0.011,0.017 0.022,0.033 0.032,0.048Z" style="fill:#e79098;fill-rule:nonzero;"/><path d="M1789.43,263.442c-0.024,-0.034 -0.046,-0.065 -0.074,-0.105c-0.265,-0.39 -0.754,-1.069 -1.468,-1.969c-1.574,-1.977 -4.26,-5.03 -8.194,-8.483c-0.619,0.179 -1.292,0.27 -1.999,0.27c-1.897,0 -4.031,-0.651 -5.985,-1.963c-2.936,-1.974 -4.646,-4.893 -4.621,-7.423c-3.615,-2.15 -7.701,-4.243 -12.298,-6.137c-0.561,-0.231 -1.13,-0.458 -1.706,-0.684c-0.252,-1.153 -0.518,-2.306 -0.798,-3.456c0.919,0.336 1.821,0.68 2.703,1.032c0.001,0 0.002,0 0.003,0.001c0.001,0 0.003,0.001 0.003,0.001c0.088,0.035 0.175,0.069 0.262,0.105c0.288,0.116 0.574,0.232 0.859,0.349c0.019,0.008 0.036,0.015 0.055,0.023c0.002,0.001 0.004,0.002 0.007,0.003c0.016,0.007 0.032,0.013 0.048,0.019c0.002,0.002 0.005,0.003 0.007,0.004c0.015,0.006 0.031,0.013 0.046,0.019c0.005,0.002 0.01,0.003 0.014,0.006c0.014,0.005 0.026,0.01 0.04,0.016c0.006,0.002 0.011,0.005 0.017,0.007c0.012,0.005 0.024,0.01 0.036,0.015c0.007,0.003 0.015,0.006 0.022,0.009c0.01,0.004 0.021,0.009 0.03,0.013c0.009,0.003 0.018,0.007 0.027,0.011c0.008,0.003 0.016,0.006 0.024,0.01c0.011,0.005 0.023,0.01 0.035,0.014c0.004,0.002 0.01,0.005 0.015,0.006c0.014,0.006 0.027,0.012 0.041,0.018c0.002,0.001 0.005,0.001 0.007,0.003c4.26,1.781 8.075,3.731 11.479,5.736c5.931,3.491 10.6,7.148 14.129,10.374c3.24,2.963 5.524,5.563 6.943,7.335l0,0.001c0.004,0.005 0.007,0.009 0.011,0.013c0.002,0.003 0.005,0.006 0.007,0.009c0.001,0.001 0.002,0.003 0.004,0.005c0.002,0.002 0.003,0.004 0.005,0.006c0.002,0.003 0.003,0.004 0.005,0.006c0.007,0.009 0.013,0.017 0.02,0.025c0.001,0.001 0.001,0.002 0.003,0.004c0.002,0.003 0.005,0.007 0.008,0.01c0,0.001 0.001,0.001 0.002,0.002c0.003,0.005 0.007,0.009 0.01,0.014c0.061,0.077 0.121,0.152 0.179,0.226c0.516,0.659 0.9,1.185 1.154,1.548c0.051,0.071 0.096,0.137 0.136,0.195c0.019,0.028 0.038,0.054 0.056,0.079c0.026,0.038 0.05,0.073 0.071,0.104c0.012,0.018 0.024,0.035 0.035,0.051c0.021,0.031 0.039,0.059 0.053,0.08c0.006,0.009 0.011,0.017 0.016,0.023c0.015,0.024 0.023,0.037 0.025,0.04c0.001,0 0.001,0 0.001,0l-0.001,0l0,0.001c-0.015,0.028 -0.496,0.904 -1.509,2.379Z" style="fill:#fff;fill-rule:nonzero;"/><path d="M1786.31,260.804l-0.006,0.006c-7.929,11.885 -19.081,19.972 -32.499,25.862c0.557,-3.123 0.99,-6.264 1.303,-9.411c12.633,-4.862 23.805,-11.346 30.731,-18.439c0.794,0.248 0.76,1.516 0.471,1.982Z" style="fill:#a65b00;fill-rule:nonzero;"/><path d="M1752.63,234.936c4.204,18.069 4.831,36.479 1.863,54.788c18.44,-8.367 28.586,-19.66 33.062,-25.782c1.222,-1.67 1.145,-3.943 -0.187,-5.526c-4.882,-5.806 -15.771,-16.385 -34.738,-23.48Zm0.259,58.082c-0.275,0 -0.547,-0.092 -0.77,-0.268c-0.356,-0.283 -0.528,-0.738 -0.447,-1.185c3.473,-19.473 2.807,-39.078 -1.983,-58.273c-0.109,-0.441 0.031,-0.907 0.367,-1.213c0.335,-0.307 0.812,-0.405 1.24,-0.254c20.855,7.272 32.738,18.784 37.965,24.999c2.067,2.458 2.187,5.986 0.291,8.578c-4.793,6.554 -15.866,18.845 -36.178,27.517c-0.155,0.067 -0.321,0.099 -0.485,0.099Z" style="fill:#371a45;fill-rule:nonzero;"/><path d="M1649.15,285.417c1.245,0.914 7.113,4.991 17.294,8.568c10.604,3.727 28.192,7.659 51.759,5.228c12.136,-1.251 23.433,-4.044 33.59,-8.304c3.305,-19.036 2.653,-38.195 -1.937,-56.967c-10.423,-3.56 -21.884,-5.579 -34.077,-6.003c-23.681,-0.821 -40.958,4.293 -51.285,8.731c-9.914,4.26 -15.491,8.726 -16.672,9.722c-2.068,6.347 -3.002,12.948 -2.775,19.627c0.227,6.677 1.607,13.201 4.103,19.398Zm54.705,17.02c-16.861,0 -29.818,-3.148 -38.359,-6.164c-11.833,-4.177 -17.88,-8.905 -18.131,-9.105c-0.166,-0.132 -0.296,-0.304 -0.376,-0.501c-2.688,-6.562 -4.173,-13.48 -4.414,-20.564c-0.241,-7.086 0.771,-14.088 3.006,-20.813c0.067,-0.201 0.185,-0.382 0.342,-0.525c0.238,-0.216 5.948,-5.343 17.471,-10.314c10.576,-4.563 28.263,-9.827 52.471,-8.983c12.689,0.441 24.611,2.579 35.438,6.357c0.394,0.137 0.692,0.464 0.793,0.868c4.871,19.529 5.552,39.477 2.02,59.288c-0.067,0.412 -0.34,0.773 -0.735,0.942c-10.544,4.504 -22.294,7.448 -34.925,8.75c-5.148,0.531 -10.019,0.764 -14.601,0.764Z" style="fill:#371a45;fill-rule:nonzero;"/><path d="M1648.13,287.437c-0.077,0 -0.154,-0.007 -0.233,-0.022l-6.481,-1.232c-3.383,-0.643 -6.13,-3.084 -7.168,-6.368c-2.745,-8.69 -3.061,-17.964 -0.912,-26.821c0.812,-3.347 3.387,-5.968 6.719,-6.84l6.382,-1.67c0.661,-0.173 1.337,0.223 1.51,0.884c0.173,0.661 -0.222,1.336 -0.884,1.509l-6.381,1.67c-2.452,0.641 -4.345,2.568 -4.942,5.03c-2.043,8.419 -1.743,17.234 0.866,25.493c0.764,2.416 2.784,4.21 5.273,4.683l6.48,1.232c0.672,0.128 1.112,0.776 0.985,1.446c-0.113,0.593 -0.632,1.006 -1.214,1.006Z" style="fill:#371a45;fill-rule:nonzero;"/><path d="M1649.8,273.549c-9.078,0.307 -18.262,-6.576 -18.262,-6.576c0,0 0.032,-0.029 0.095,-0.078c0.962,-0.805 9.15,-7.432 17.676,-7.726c8.181,-0.28 14.956,5.413 16.145,6.475c0.122,0.11 0.185,0.17 0.185,0.17c0,0 -6.821,7.433 -15.839,7.735Z" style="fill:#f58600;fill-rule:nonzero;"/><path d="M1632.02,267.687c-0.312,-0.217 -0.481,-0.343 -0.481,-0.343c0,0 0.034,-0.029 0.094,-0.079c0.037,-0.031 0.085,-0.071 0.144,-0.119c0.063,0.044 0.137,0.096 0.222,0.156c0.007,0.128 0.013,0.257 0.021,0.385Z" style="fill:#fff380;fill-rule:nonzero;"/><path d="M1664.85,266.96c-0.075,-0.051 -0.152,-0.102 -0.231,-0.154c0.379,-0.347 0.658,-0.624 0.827,-0.795c0.001,0.002 0.002,0.003 0.004,0.004c0.122,0.109 0.184,0.169 0.184,0.169c0,0 -0.274,0.297 -0.784,0.776Z" style="fill:#e6e3e8;fill-rule:nonzero;"/><path d="M1632.62,268.097c-0.241,-0.158 -0.444,-0.297 -0.608,-0.41c-0.008,-0.128 -0.014,-0.257 -0.021,-0.385c0.228,0.158 0.534,0.366 0.912,0.61c-0.096,0.062 -0.19,0.123 -0.283,0.185Z" style="fill:#9b8da2;fill-rule:nonzero;"/><path d="M1632.91,267.912c-0.378,-0.244 -0.684,-0.452 -0.912,-0.61c-0.085,-0.06 -0.159,-0.112 -0.222,-0.156c1.455,-1.189 9.34,-7.322 17.533,-7.606c0.198,-0.007 0.393,-0.01 0.588,-0.01c7.904,0 14.379,5.433 15.554,6.481c-0.169,0.171 -0.448,0.448 -0.827,0.795c-3.329,-2.205 -8.613,-4.895 -14.608,-4.895c-0.225,0 -0.452,0.004 -0.68,0.012c-6.333,0.219 -12.507,3.449 -16.426,5.989Z" style="fill:#ff808c;fill-rule:nonzero;"/><path d="M1649.8,273.549c-9.078,0.307 -18.262,-6.576 -18.262,-6.576c0,0 0.032,-0.029 0.095,-0.078l33.821,-1.251c0.122,0.11 0.185,0.17 0.185,0.17c0,0 -6.821,7.433 -15.839,7.735Z" style="fill:#a65b00;fill-rule:nonzero;"/><path d="M1633.63,266.902c2.812,1.808 9.57,5.63 16.127,5.412c6.54,-0.22 11.955,-4.528 14.044,-6.438c-2.214,-1.764 -7.902,-5.696 -14.449,-5.47c-6.556,0.226 -13.04,4.501 -15.722,6.496Zm15.573,7.895c-9.182,0 -18.027,-6.549 -18.407,-6.834c-0.301,-0.225 -0.482,-0.573 -0.495,-0.948c-0.012,-0.374 0.145,-0.734 0.429,-0.979c0.368,-0.317 9.133,-7.779 18.538,-8.102c9.432,-0.317 16.908,6.685 17.222,6.984c0.489,0.464 0.515,1.235 0.059,1.731c-0.293,0.32 -7.279,7.819 -16.708,8.137c-0.213,0.008 -0.426,0.011 -0.638,0.011Z" style="fill:#371a45;fill-rule:nonzero;"/><path d="M1708.04,284.283c-11.174,0.379 -20.54,-8.371 -20.92,-19.545c-0.38,-11.174 8.371,-20.54 19.544,-20.92c11.174,-0.38 20.54,8.37 20.92,19.544c0.381,11.174 -8.37,20.54 -19.544,20.921Z" style="fill:#f58600;fill-rule:nonzero;"/><path d="M1707.58,278.904c-0.598,0 -1.187,-0.038 -1.767,-0.111c-1.117,-0.186 -2.206,-0.463 -3.255,-0.824c-5.074,-1.962 -8.758,-6.809 -8.954,-12.581c-0.262,-7.71 5.797,-14.196 13.507,-14.457c0.175,-0.007 0.35,-0.011 0.523,-0.011c3.546,0 6.9,1.338 9.503,3.77c2.731,2.55 4.306,6.013 4.433,9.748c0.126,3.735 -1.209,7.295 -3.759,10.026c-2.552,2.731 -6.014,4.305 -9.749,4.432c-0.161,0.005 -0.322,0.008 -0.482,0.008Zm0.444,-1.119l0.004,0l-0.004,0Zm-12.376,-9.143c1.92,4.736 6.564,8.04 11.93,8.04c0.148,0 0.297,-0.003 0.446,-0.008c4.699,-0.161 8.726,-2.82 10.845,-6.658l0.001,-0.001c0.002,-0.005 0.005,-0.01 0.008,-0.015c0.001,-0.002 0.001,-0.002 0.002,-0.004c0.002,-0.004 0.005,-0.008 0.007,-0.012c0.001,-0.003 0.003,-0.006 0.004,-0.008c0.002,-0.003 0.003,-0.006 0.005,-0.009c0.002,-0.003 0.003,-0.006 0.005,-0.009c0.001,-0.003 0.003,-0.005 0.004,-0.008c0.002,-0.003 0.003,-0.006 0.005,-0.009c0.001,-0.003 0.003,-0.005 0.004,-0.007c0.002,-0.004 0.004,-0.008 0.005,-0.011c0.002,-0.002 0.003,-0.003 0.004,-0.006c0.002,-0.004 0.005,-0.008 0.007,-0.012c0.001,-0.002 0.001,-0.003 0.002,-0.004c0.002,-0.005 0.005,-0.009 0.008,-0.015c0,0 0,-0.001 0.001,-0.001c0.002,-0.006 0.005,-0.01 0.008,-0.016c0,0 0,0 0.001,-0.001c1.034,-1.933 1.588,-4.156 1.508,-6.505c-0.237,-6.959 -5.953,-12.441 -12.864,-12.441c-0.147,0 -0.296,0.003 -0.445,0.008c-6.081,0.207 -11.035,4.598 -12.187,10.314c-0.162,0.795 -0.249,1.616 -0.254,2.455c-0.001,0.179 0.001,0.359 0.008,0.54c0.052,1.557 0.379,3.039 0.932,4.403Z" style="fill:#ff808c;fill-rule:nonzero;"/><path d="M1724.64,256.154c-1.659,-2.873 -3.998,-5.292 -6.793,-7.047c0.098,0.002 0.196,0.003 0.293,0.003c0.303,0 0.606,-0.01 0.907,-0.032c2.382,1.865 4.314,4.286 5.593,7.076Zm-32.373,-3.673c0.373,-0.484 0.772,-0.954 1.194,-1.406c3.279,-3.51 7.665,-5.613 12.425,-5.976c0.512,0.298 1.073,0.611 1.673,0.924c-0.15,-0.004 -0.301,-0.005 -0.451,-0.005c-0.233,0 -0.467,0.004 -0.701,0.012c-5.606,0.19 -10.601,2.643 -14.14,6.451Z" style="fill:#ff808c;fill-rule:nonzero;"/><path d="M1708.04,284.281c-11.171,0.379 -20.541,-8.367 -20.92,-19.541c-0.118,-3.515 0.666,-6.849 2.146,-9.783c-0.283,1.469 -0.409,2.989 -0.357,4.549c0.38,11.176 9.746,19.926 20.921,19.547c7.661,-0.262 14.183,-4.752 17.399,-11.147c-1.748,9.063 -9.571,16.047 -19.189,16.375Z" style="fill:#a65b00;fill-rule:nonzero;"/><path d="M1707.36,245.043c-0.217,0 -0.435,0.004 -0.654,0.011c-5.074,0.173 -9.777,2.311 -13.243,6.021c-3.466,3.71 -5.28,8.547 -5.107,13.621c0.349,10.255 8.804,18.361 18.988,18.361c0.217,0 0.435,-0.003 0.655,-0.011c10.474,-0.356 18.705,-9.167 18.35,-19.642c-0.349,-10.255 -8.804,-18.361 -18.989,-18.361Zm-0.017,40.488c-11.511,0 -21.065,-9.16 -21.459,-20.75c-0.402,-11.838 8.901,-21.797 20.738,-22.199c11.843,-0.399 21.796,8.901 22.198,20.738c0.403,11.838 -8.9,21.796 -20.738,22.198c-0.246,0.009 -0.494,0.013 -0.739,0.013Z" style="fill:#371a45;fill-rule:nonzero;"/><path d="M1708.02,276.673c-7.108,0.241 -13.067,-5.326 -13.308,-12.434c-0.243,-7.109 5.324,-13.067 12.433,-13.309c7.109,-0.242 13.068,5.325 13.309,12.433c0.242,7.109 -5.325,13.068 -12.434,13.31Z" style="fill:#383939;fill-rule:nonzero;"/><path d="M1707.56,276.681c-0.188,0 -0.375,-0.005 -0.561,-0.013c0.19,0.008 0.382,0.012 0.574,0.012c0.101,0 0.202,-0.001 0.303,-0.004c-0.105,0.003 -0.21,0.005 -0.316,0.005Z" style="fill:#ff4d5e;fill-rule:nonzero;"/><path d="M1707.57,276.682c-5.366,0 -10.01,-3.304 -11.93,-8.04c1.852,4.565 6.236,7.8 11.357,8.026c0.186,0.008 0.373,0.013 0.561,0.013c0.106,0 0.211,-0.002 0.316,-0.005c0.047,0 0.095,-0.002 0.142,-0.003c4.7,-0.16 8.726,-2.819 10.845,-6.657c-2.119,3.838 -6.146,6.497 -10.845,6.658c-0.149,0.005 -0.298,0.008 -0.446,0.008Zm11.292,-6.667c0.002,-0.005 0.005,-0.01 0.008,-0.015c-0.003,0.005 -0.006,0.01 -0.008,0.015Zm0.01,-0.019c0.002,-0.004 0.005,-0.008 0.007,-0.012c-0.002,0.004 -0.005,0.008 -0.007,0.012Zm0.011,-0.02c0.002,-0.003 0.003,-0.006 0.005,-0.009c-0.002,0.003 -0.003,0.006 -0.005,0.009Zm0.01,-0.018c0.001,-0.003 0.003,-0.005 0.004,-0.008c-0.001,0.003 -0.003,0.005 -0.004,0.008Zm0.009,-0.017c0.001,-0.003 0.003,-0.005 0.004,-0.007c-0.001,0.002 -0.003,0.004 -0.004,0.007Zm0.009,-0.018c0.002,-0.002 0.003,-0.004 0.004,-0.006c-0.001,0.003 -0.002,0.004 -0.004,0.006Zm0.011,-0.018c0.001,-0.002 0.001,-0.003 0.002,-0.004c-0.001,0.001 -0.001,0.002 -0.002,0.004Zm0.01,-0.019c0,0 0,-0.001 0.001,-0.001c-0.001,0 -0.001,0.001 -0.001,0.001Zm0.009,-0.017c0,0 0,0 0.001,-0.001c-0.001,0.001 -0.001,0.001 -0.001,0.001Zm-24.241,-6.17c0.005,-0.839 0.092,-1.66 0.254,-2.455c-0.161,0.795 -0.248,1.616 -0.254,2.455Z" style="fill:#ffa6af;fill-rule:nonzero;"/><path d="M1707.58,276.68c-0.192,0 -0.384,-0.004 -0.574,-0.012c-5.121,-0.226 -9.505,-3.461 -11.357,-8.026c-0.553,-1.364 -0.879,-2.847 -0.932,-4.403c-0.006,-0.181 -0.009,-0.361 -0.008,-0.54c0.006,-0.839 0.093,-1.66 0.254,-2.455c0.097,-0.483 0.222,-0.955 0.373,-1.417c-0.001,0.143 0.002,0.286 0.006,0.433c0.237,6.96 5.951,12.442 12.862,12.442c0.148,0 0.297,-0.002 0.446,-0.007c5.57,-0.187 10.192,-3.886 11.816,-8.897c0.002,2.189 -0.545,4.257 -1.515,6.07c-0.001,0.001 -0.001,0.001 -0.001,0.001c-0.003,0.006 -0.006,0.011 -0.008,0.016c-0.001,0 -0.001,0.001 -0.001,0.001c-0.003,0.006 -0.006,0.01 -0.008,0.015c-0.001,0.001 -0.001,0.002 -0.002,0.004c-0.002,0.004 -0.005,0.008 -0.007,0.012c-0.001,0.002 -0.002,0.004 -0.004,0.006c-0.001,0.003 -0.003,0.007 -0.005,0.011c-0.001,0.002 -0.003,0.004 -0.004,0.007c-0.002,0.003 -0.003,0.007 -0.005,0.009c-0.001,0.003 -0.003,0.005 -0.004,0.008c-0.002,0.003 -0.004,0.006 -0.005,0.009c-0.002,0.003 -0.003,0.006 -0.005,0.009c-0.001,0.002 -0.003,0.005 -0.004,0.008c-0.002,0.004 -0.005,0.008 -0.007,0.012c-0.001,0.002 -0.001,0.002 -0.002,0.004c-0.003,0.005 -0.006,0.01 -0.008,0.015l-0.001,0.001c-2.119,3.838 -6.145,6.497 -10.845,6.657c-0.047,0.001 -0.095,0.003 -0.142,0.003c-0.101,0.003 -0.202,0.004 -0.303,0.004Z" style="fill:#0a0a0a;fill-rule:nonzero;"/><path d="M1719.62,268.796c0.001,-0.22 0.002,-0.441 -0.006,-0.666c-0.242,-7.109 -6.199,-12.677 -13.308,-12.435c-5.351,0.181 -9.83,3.602 -11.61,8.315c0.117,-6.813 5.557,-12.408 12.442,-12.642c7.105,-0.242 13.066,5.322 13.307,12.43c0.057,1.76 -0.235,3.451 -0.825,4.998Z" style="fill:#c5c5c5;fill-rule:nonzero;"/><path d="M1707.59,252.034c-0.137,0 -0.273,0.003 -0.41,0.007c-3.142,0.107 -6.053,1.431 -8.199,3.727c-2.146,2.297 -3.268,5.292 -3.161,8.433c0.107,3.141 1.43,6.053 3.727,8.199c2.296,2.145 5.294,3.266 8.433,3.162c3.141,-0.107 6.053,-1.431 8.198,-3.728c2.146,-2.297 3.269,-5.291 3.162,-8.433c-0.107,-3.141 -1.43,-6.052 -3.727,-8.198c-2.197,-2.052 -5.032,-3.169 -8.023,-3.169Zm-0.023,25.758c-3.555,0 -6.926,-1.328 -9.538,-3.767c-2.731,-2.552 -4.305,-6.013 -4.431,-9.748c-0.128,-3.735 1.207,-7.296 3.758,-10.027c2.551,-2.731 6.014,-4.304 9.748,-4.431c3.737,-0.128 7.296,1.207 10.026,3.759c2.731,2.551 4.306,6.013 4.433,9.747c0.126,3.736 -1.209,7.297 -3.759,10.028c-2.552,2.73 -6.014,4.304 -9.749,4.431c-0.163,0.006 -0.325,0.008 -0.488,0.008Z" style="fill:#371a45;fill-rule:nonzero;"/><path d="M1738.22,174.824l0,42.128c0,7.085 -5.798,12.88 -12.88,12.88l-42.593,0c-7.082,0 -12.88,-5.795 -12.88,-12.88l0,-42.128c0,-4.172 2.009,-7.895 5.105,-10.251c2.166,-1.65 4.862,-2.63 7.775,-2.63l42.593,0c3.185,0 6.111,1.174 8.366,3.111c2.76,2.365 4.514,5.87 4.514,9.77Z" style="fill:#fff;fill-rule:nonzero;"/><path d="M1684.09,163.178c-7.159,0 -12.983,5.824 -12.983,12.984l0,39.451c0,7.159 5.824,12.983 12.983,12.983l39.911,0c7.159,0 12.983,-5.824 12.983,-12.983l0,-39.451c0,-7.16 -5.824,-12.984 -12.983,-12.984l-39.911,0Zm39.911,67.891l-39.911,0c-8.523,0 -15.457,-6.934 -15.457,-15.456l0,-39.451c0,-8.524 6.934,-15.457 15.457,-15.457l39.911,0c8.523,0 15.456,6.933 15.456,15.457l0,39.451c0,8.522 -6.933,15.456 -15.456,15.456Z" style="fill:#371a45;fill-rule:nonzero;"/><path d="M1688.55,160.258c-15.653,5.375 -21.173,21.183 -23.482,21.23c-2.31,0.048 -3.799,-3.908 -5.808,-6.522c-2.083,-2.712 -4.566,-2.444 -8.099,-2.176c-2.597,0.197 -5.761,0.395 -9.748,-0.592c-4.645,-1.15 0.14,12.798 2.193,18.08c2.671,6.876 8.502,15.319 19.341,15.092c15.79,-0.329 16.268,-19.745 16.268,-19.745l9.335,-25.367Z" style="fill:#fff;fill-rule:nonzero;"/><path d="M1662.54,204.138c-9.202,0 -14.25,-6.715 -16.791,-12.005c0.174,0.027 0.342,0.051 0.492,0.069c0.339,0.045 0.68,0.089 1.029,0.122c0.752,0.077 1.522,0.131 2.306,0.131c0.657,0 1.324,-0.038 1.998,-0.132c1.392,-0.195 2.846,-0.653 4.061,-1.52c-1.52,2.377 -2.935,4.803 -1.591,6.668c1.98,2.751 6.001,3.453 10.197,3.453c0.268,0 0.537,-0.003 0.806,-0.009c10.221,-0.201 9.452,-10.772 12.4,-16.433c-1.11,2.982 -1.869,6.081 -2.45,9.201c-0.255,1.385 -0.49,2.774 -0.699,4.168c-2.631,4.07 -6.449,6.18 -11.383,6.283c-0.126,0.003 -0.251,0.004 -0.375,0.004Z" style="fill:#cdc6d0;fill-rule:nonzero;"/><path d="M1662.52,206.612c-12.532,0 -18.202,-11.078 -20.071,-15.886c-0.485,-1.249 -2.154,-5.654 -3.246,-9.889c-1.641,-6.367 -0.937,-8.222 -0.141,-9.128c0.368,-0.419 1.202,-1.069 2.645,-0.712c3.938,0.975 7.097,0.733 9.635,0.539c3.466,-0.265 6.46,-0.494 8.896,2.676c0.622,0.809 1.182,1.715 1.724,2.59c0.954,1.543 2.028,3.282 2.934,3.439c0.465,-0.372 1.452,-1.823 2.329,-3.113c3.365,-4.949 9.628,-14.162 20.92,-18.039c0.646,-0.223 1.349,0.122 1.572,0.768c0.221,0.646 -0.123,1.35 -0.768,1.571c-10.514,3.61 -16.251,12.049 -19.679,17.091c-1.891,2.782 -2.841,4.178 -4.18,4.206c-0.023,0 -0.047,0 -0.07,0c-2.305,0 -3.757,-2.349 -5.162,-4.622c-0.509,-0.823 -1.036,-1.674 -1.581,-2.384c-1.555,-2.024 -3.191,-1.989 -6.747,-1.717c-2.713,0.208 -6.093,0.466 -10.417,-0.604c-0.108,-0.027 -0.174,-0.03 -0.212,-0.03c-0.117,0.183 -0.691,1.433 0.679,6.777c1.056,4.124 2.697,8.456 3.175,9.685c2.114,5.44 7.295,14.517 18.163,14.304c5.998,-0.125 10.344,-3.216 12.918,-9.186c1.992,-4.622 2.138,-9.308 2.139,-9.355c0.018,-0.682 0.587,-1.232 1.268,-1.204c0.682,0.018 1.221,0.583 1.205,1.266c-0.005,0.208 -0.15,5.149 -2.312,10.205c-2.944,6.885 -8.189,10.601 -15.166,10.747c-0.152,0.003 -0.301,0.005 -0.45,0.005Z" style="fill:#371a45;fill-rule:nonzero;"/><path d="M1666.69,205.81c-0.178,0 -0.358,-0.051 -0.517,-0.159c-0.424,-0.286 -0.536,-0.861 -0.25,-1.286c6.743,-10.005 -0.537,-22.416 -0.611,-22.541c-0.263,-0.439 -0.12,-1.008 0.318,-1.27c0.439,-0.264 1.008,-0.121 1.271,0.317c0.329,0.548 7.968,13.537 0.559,24.53c-0.179,0.266 -0.472,0.409 -0.77,0.409Z" style="fill:#371a45;fill-rule:nonzero;"/><path d="M1642.48,175.193c-7.353,-1.173 -7.478,-7.242 -4.336,-9.766c1.927,-1.548 8.24,-2.536 9.105,0.751c0.807,3.064 -4.104,3.342 -4.072,4.736c0.019,0.831 0.669,1.646 3.356,1.892l-4.053,2.387Z" style="fill:#fff;fill-rule:nonzero;"/><path d="M1643.18,170.913c0.019,0.832 0.669,1.647 3.355,1.894l-4.053,2.386c-0.975,-0.157 -1.823,-0.398 -2.554,-0.706c-1.045,-2.17 -0.311,-4.741 1.47,-6.173c1.132,-0.91 3.776,-1.624 5.94,-1.394c-0.101,2.377 -4.187,2.722 -4.158,3.993Z" style="fill:#fff;fill-rule:nonzero;"/><path d="M1647.25,166.183c-0.001,-0.002 -0.001,-0.003 -0.002,-0.005c-0.021,-0.083 -0.047,-0.163 -0.075,-0.24c0.028,0.063 0.054,0.144 0.077,0.245Z" style="fill:#3986d0;fill-rule:nonzero;"/><path d="M1647.34,166.92c-0.277,-0.029 -0.562,-0.044 -0.852,-0.044c-0.293,0 -0.59,0.015 -0.886,0.042c0.598,-0.518 1.058,-1.164 1.356,-1.164c0.088,0 0.161,0.055 0.221,0.184c0.028,0.077 0.054,0.157 0.075,0.24c0.001,0.002 0.001,0.003 0.002,0.005c0.039,0.179 0.067,0.42 0.084,0.737Z" style="fill:#cdc6d0;fill-rule:nonzero;"/><path d="M1643.18,170.979c-0.116,-0.023 -0.231,-0.047 -0.347,-0.071c-0.964,-0.192 -1.934,-0.419 -2.943,-0.625c0.335,-0.759 0.849,-1.441 1.505,-1.969c0.743,-0.597 2.274,-0.267 3.597,-0.969c0.215,-0.113 0.417,-0.264 0.605,-0.427c0.296,-0.027 0.593,-0.042 0.886,-0.042c0.29,0 0.575,0.015 0.852,0.044c-0.1,2.371 -4.163,2.72 -4.158,3.982l0,0.011c0,0.022 0.001,0.044 0.003,0.066Z" style="fill:#cdc6d0;fill-rule:nonzero;"/><path d="M1642.48,176.429c-0.065,0 -0.13,-0.005 -0.196,-0.015c-3.785,-0.604 -6.381,-2.554 -7.123,-5.352c-0.631,-2.379 0.256,-5.031 2.208,-6.599c1.705,-1.37 5.617,-2.242 8.3,-1.358c1.467,0.484 2.427,1.437 2.775,2.758c0.748,2.837 -1.773,4.116 -3.128,4.803c-0.228,0.115 -0.53,0.269 -0.75,0.401c0.26,0.175 0.884,0.398 2.079,0.508c0.68,0.062 1.181,0.664 1.118,1.344c-0.062,0.68 -0.663,1.184 -1.344,1.118c-2.932,-0.268 -4.439,-1.31 -4.48,-3.095c-0.029,-1.321 1.186,-1.937 2.258,-2.481c1.683,-0.854 2.047,-1.241 1.856,-1.968c-0.082,-0.309 -0.29,-0.753 -1.159,-1.039c-1.883,-0.62 -4.963,0.123 -5.976,0.937c-1.202,0.966 -1.751,2.588 -1.366,4.037c0.487,1.836 2.306,3.094 5.121,3.543c0.675,0.108 1.134,0.741 1.027,1.416c-0.097,0.608 -0.623,1.042 -1.22,1.042Z" style="fill:#371a45;fill-rule:nonzero;"/><path d="M1650.55,172.784c-3.558,0.258 -6.439,-0.255 -8.913,-0.768c-3.607,-0.748 -6.346,-1.497 -9.049,0.145c-3.494,2.123 -2.378,9.639 0.19,12.208c3.85,3.85 10.921,6.168 13.31,6.514c4.707,0.683 11.022,1.074 12.752,-8.079l-8.29,-10.02Z" style="fill:#fff;fill-rule:nonzero;"/><path d="M1650.64,174.017c-1.394,0.088 -2.799,0.146 -4.192,0.029c-1.392,-0.096 -2.775,-0.291 -4.115,-0.547c-1.341,-0.247 -2.651,-0.544 -3.903,-0.747c-1.251,-0.201 -2.434,-0.287 -3.472,-0.067c-0.269,0.033 -0.511,0.137 -0.76,0.222c-0.256,0.063 -0.479,0.226 -0.721,0.336l-0.178,0.09l-0.127,0.089c-0.091,0.049 -0.16,0.134 -0.244,0.194c-0.147,0.156 -0.299,0.312 -0.419,0.516c-0.511,0.787 -0.74,1.944 -0.749,3.104c-0.006,1.169 0.189,2.379 0.55,3.506c0.18,0.562 0.408,1.104 0.68,1.59c0.132,0.247 0.284,0.468 0.436,0.677c0.168,0.208 0.283,0.352 0.532,0.575c1.742,1.677 3.995,2.982 6.327,4.035c1.171,0.526 2.377,0.991 3.596,1.381c0.607,0.185 1.224,0.37 1.817,0.496c0.301,0.067 0.553,0.111 0.894,0.158c0.322,0.047 0.643,0.092 0.959,0.125c1.267,0.149 2.513,0.207 3.686,0.057c1.176,-0.143 2.249,-0.526 3.164,-1.145c0.449,-0.322 0.872,-0.688 1.25,-1.12c0.212,-0.193 0.361,-0.449 0.537,-0.684l0.265,-0.355c0.084,-0.123 0.149,-0.262 0.226,-0.392c0.652,-1.024 1.06,-2.237 1.553,-3.451l0.02,-0.049c0.129,-0.318 0.491,-0.471 0.809,-0.342c0.256,0.104 0.404,0.36 0.386,0.621c-0.099,1.382 -0.303,2.8 -0.899,4.15c-0.072,0.169 -0.131,0.342 -0.214,0.508l-0.271,0.491c-0.186,0.325 -0.362,0.657 -0.613,0.95l-0.355,0.452l-0.18,0.226l-0.21,0.203l-0.429,0.395c-0.142,0.134 -0.286,0.265 -0.452,0.37c-1.251,0.957 -2.785,1.454 -4.249,1.659c-1.477,0.206 -2.921,0.143 -4.304,0.001c-0.349,-0.033 -0.69,-0.077 -1.029,-0.122c-0.321,-0.039 -0.73,-0.103 -1.079,-0.178c-0.717,-0.145 -1.382,-0.337 -2.055,-0.532c-1.33,-0.408 -2.626,-0.89 -3.898,-1.442c-2.533,-1.116 -5.012,-2.471 -7.159,-4.476c-0.254,-0.218 -0.585,-0.574 -0.827,-0.893c-0.241,-0.329 -0.464,-0.664 -0.647,-1.005c-0.378,-0.681 -0.666,-1.379 -0.893,-2.088c-0.449,-1.417 -0.683,-2.877 -0.674,-4.378c0.006,-0.751 0.083,-1.515 0.261,-2.283c0.18,-0.767 0.455,-1.549 0.933,-2.281c0.226,-0.369 0.526,-0.711 0.848,-1.029c0.177,-0.147 0.34,-0.308 0.536,-0.432l0.287,-0.194l0.266,-0.14c0.361,-0.176 0.699,-0.393 1.092,-0.507c0.382,-0.134 0.763,-0.276 1.16,-0.336c1.585,-0.333 3.114,-0.161 4.485,0.08c1.382,0.249 2.673,0.565 3.955,0.82c2.553,0.534 5.08,0.771 7.628,0.643l0.039,-0.002c0.682,-0.034 1.263,0.49 1.297,1.172c0.035,0.677 -0.483,1.254 -1.157,1.296Z" style="fill:#371a45;fill-rule:nonzero;"/><path d="M1650.55,172.784c-3.558,0.258 -6.439,-0.255 -8.913,-0.768c-3.607,-0.748 -6.346,-1.497 -9.049,0.145c-3.494,2.123 -2.378,9.639 0.19,12.208c3.85,3.85 10.921,6.168 13.31,6.514c4.707,0.683 11.022,1.074 12.752,-8.079l-8.29,-10.02Z" style="fill:#fff;fill-rule:nonzero;"/><path d="M1648.52,191.155c-0.832,-0.055 -1.65,-0.159 -2.423,-0.271c-1.235,-0.18 -3.716,-0.884 -6.358,-2.054c2.642,1.17 5.123,1.874 6.357,2.053c0.773,0.112 1.591,0.217 2.424,0.272Zm-10.924,-3.367c-1.77,-0.945 -3.481,-2.091 -4.81,-3.418c-0.258,-0.258 -0.501,-0.567 -0.727,-0.915c0.225,0.348 0.469,0.656 0.727,0.914c1.329,1.328 3.04,2.474 4.81,3.419Zm-6.92,-7.852c-0.303,-1.409 -0.381,-2.909 -0.155,-4.242c0,0.002 0,0.004 0.001,0.006c-0.226,1.332 -0.148,2.829 0.154,4.236Z" style="fill:#371a45;fill-rule:nonzero;"/><path d="M1649.7,191.196c-0.396,0 -0.792,-0.015 -1.184,-0.041c-0.833,-0.055 -1.651,-0.16 -2.424,-0.272c-1.234,-0.179 -3.715,-0.883 -6.357,-2.053c-0.71,-0.314 -1.431,-0.661 -2.143,-1.042c-1.77,-0.945 -3.481,-2.091 -4.81,-3.419c-0.258,-0.258 -0.502,-0.566 -0.727,-0.914c-0.616,-0.95 -1.099,-2.194 -1.383,-3.519c-0.302,-1.407 -0.38,-2.904 -0.154,-4.236c0.317,2.226 1.192,4.364 2.354,5.528c3.996,3.996 11.331,6.399 13.812,6.76c1.181,0.172 2.462,0.325 3.747,0.325c3.177,0 6.395,-0.937 8.278,-4.864c-1.428,6.386 -5.248,7.747 -9.009,7.747Z" style="fill:#cdc6d0;fill-rule:nonzero;"/><path d="M1650.64,174.017c-2.788,0.194 -5.618,-0.057 -8.291,-0.6c-1.338,-0.255 -2.644,-0.563 -3.899,-0.777c-1.255,-0.214 -2.455,-0.311 -3.52,-0.083c-0.274,0.034 -0.523,0.139 -0.779,0.226c-0.262,0.065 -0.491,0.231 -0.739,0.344l-0.183,0.092l-0.134,0.094c-0.096,0.053 -0.17,0.141 -0.259,0.205c-0.156,0.164 -0.315,0.329 -0.44,0.541c-0.533,0.821 -0.764,1.999 -0.774,3.175c-0.01,1.187 0.193,2.409 0.561,3.549c0.184,0.57 0.417,1.117 0.695,1.612c0.134,0.251 0.291,0.476 0.447,0.691c0.172,0.213 0.3,0.364 0.55,0.584c1.776,1.674 4.054,2.944 6.401,3.969c1.176,0.516 2.386,0.973 3.607,1.352c0.609,0.181 1.227,0.361 1.819,0.482c0.303,0.065 0.552,0.106 0.895,0.151c0.321,0.047 0.642,0.094 0.957,0.129c1.266,0.152 2.509,0.216 3.682,0.072c1.175,-0.138 2.249,-0.516 3.168,-1.13c0.451,-0.319 0.878,-0.683 1.258,-1.116c0.212,-0.193 0.363,-0.448 0.539,-0.684l0.267,-0.356c0.083,-0.123 0.149,-0.261 0.225,-0.392c0.654,-1.026 1.058,-2.242 1.539,-3.458l0.019,-0.049c0.126,-0.319 0.487,-0.475 0.806,-0.349c0.259,0.103 0.411,0.363 0.39,0.628c-0.111,1.379 -0.318,2.794 -0.914,4.143c-0.071,0.168 -0.13,0.342 -0.212,0.507l-0.271,0.491c-0.185,0.325 -0.36,0.656 -0.611,0.95l-0.353,0.453l-0.179,0.226l-0.208,0.202l-0.427,0.398c-0.142,0.133 -0.286,0.265 -0.451,0.37c-1.246,0.964 -2.78,1.465 -4.244,1.676c-1.478,0.211 -2.924,0.154 -4.309,0.016c-0.701,-0.07 -1.347,-0.144 -2.111,-0.304c-0.715,-0.15 -1.38,-0.346 -2.051,-0.548c-1.327,-0.417 -2.62,-0.907 -3.887,-1.47c-2.519,-1.143 -4.972,-2.534 -7.086,-4.541c-0.252,-0.221 -0.57,-0.57 -0.808,-0.883c-0.237,-0.325 -0.456,-0.655 -0.636,-0.992c-0.372,-0.673 -0.655,-1.364 -0.877,-2.066c-0.442,-1.404 -0.669,-2.851 -0.664,-4.336c0.005,-0.743 0.082,-1.496 0.256,-2.254c0.177,-0.755 0.447,-1.523 0.913,-2.238c0.22,-0.361 0.514,-0.694 0.827,-1.004c0.172,-0.143 0.331,-0.301 0.522,-0.421l0.278,-0.189l0.262,-0.138c0.355,-0.172 0.688,-0.387 1.073,-0.499c0.376,-0.132 0.75,-0.273 1.141,-0.331c1.559,-0.326 3.071,-0.165 4.44,0.063c1.378,0.237 2.672,0.544 3.958,0.789c2.559,0.517 5.098,0.732 7.643,0.562l0.01,-0.001c0.682,-0.046 1.272,0.469 1.318,1.151c0.045,0.682 -0.468,1.271 -1.149,1.316Z" style="fill:#371a45;fill-rule:nonzero;"/><path d="M1659.27,176.239c0,0 0.883,-10.459 -5.036,-12.048c-5.102,-1.37 -6.48,0.422 -6.586,1.542c-0.18,1.912 3.924,3.117 3.987,3.75c0.063,0.634 -3.105,4.247 -0.19,6.497" style="fill:#fff;fill-rule:nonzero;"/><path d="M1658.04,176.134c0.061,-2.642 -0.197,-5.536 -1.232,-7.803c-0.512,-1.132 -1.253,-2.036 -2.18,-2.508c-0.12,-0.051 -0.239,-0.105 -0.358,-0.161l-0.378,-0.124c-0.313,-0.076 -0.644,-0.163 -0.962,-0.229c-0.641,-0.129 -1.275,-0.212 -1.874,-0.227c-0.586,-0.006 -1.155,0.063 -1.517,0.24c-0.379,0.162 -0.514,0.394 -0.54,0.529c0.002,0.017 -0.01,-0.015 -0.005,0.002c0.006,0.013 0.011,0.049 0.053,0.11c0.076,0.122 0.244,0.302 0.456,0.478c0.432,0.358 1.006,0.698 1.627,1.057l0.492,0.29c0.176,0.11 0.353,0.217 0.59,0.404c0.051,0.038 0.136,0.117 0.199,0.177c0.04,0.038 0.09,0.095 0.132,0.144l0.066,0.082c0.03,0.043 0.059,0.087 0.086,0.132c0.028,0.046 0.054,0.092 0.077,0.14c0.025,0.049 0.063,0.149 0.084,0.227c0.025,0.083 0.042,0.169 0.053,0.253c0.006,0.069 0.006,0.132 0.005,0.199c-0.002,0.065 -0.007,0.131 -0.016,0.195l-0.022,0.106c-0.014,0.062 -0.036,0.148 -0.05,0.187c-0.125,0.352 -0.219,0.501 -0.312,0.685c-0.36,0.661 -0.658,1.209 -0.859,1.773c-0.201,0.555 -0.317,1.051 -0.315,1.501c-0.007,0.449 0.144,0.922 0.485,1.498l0.029,0.049c0.182,0.306 0.081,0.701 -0.225,0.882c-0.175,0.104 -0.383,0.115 -0.56,0.047c-0.403,-0.154 -0.779,-0.413 -1.112,-0.756c-0.322,-0.348 -0.591,-0.789 -0.736,-1.267c-0.301,-0.967 -0.171,-1.946 0.09,-2.745c0.258,-0.803 0.639,-1.532 0.948,-2.143c0.069,-0.136 0.142,-0.307 0.134,-0.297c0.001,-0.003 -0.014,0.038 -0.016,0.056l-0.006,0.04c-0.008,0.043 -0.012,0.086 -0.014,0.129c0,0.044 0.003,0.085 0.008,0.131c0.004,0.063 0.016,0.127 0.034,0.188c0.014,0.057 0.05,0.134 0.063,0.165c0.012,0.027 0.026,0.055 0.041,0.081c0.016,0.026 0.033,0.051 0.052,0.075l0.022,0.031c0.011,0.016 0.033,0.037 0.04,0.044c-0.004,0.002 0.018,0.015 -0.005,0.001c-0.046,-0.034 -0.177,-0.117 -0.309,-0.191l-0.445,-0.247c-0.632,-0.344 -1.322,-0.707 -2.019,-1.245c-0.348,-0.274 -0.708,-0.597 -1.032,-1.074c-0.161,-0.236 -0.308,-0.531 -0.406,-0.862c-0.102,-0.328 -0.125,-0.727 -0.084,-1.066c0.083,-0.652 0.364,-1.226 0.746,-1.679c0.382,-0.448 0.853,-0.79 1.32,-0.996c0.945,-0.445 1.85,-0.516 2.695,-0.53c0.841,0.015 1.637,0.125 2.407,0.278c0.387,0.079 0.753,0.174 1.138,0.268l0.648,0.211l0.627,0.28c0.821,0.415 1.532,1.018 2.091,1.691c0.564,0.675 0.989,1.413 1.323,2.162c0.665,1.502 0.966,3.046 1.142,4.564c0.084,0.761 0.128,1.519 0.142,2.276c0.007,0.767 -0.019,1.492 -0.091,2.3c-0.063,0.68 -0.663,1.181 -1.343,1.12c-0.651,-0.06 -1.138,-0.613 -1.124,-1.256l0.002,-0.072Z" style="fill:#371a45;fill-rule:nonzero;"/><path d="M1644.66,173.593c-0.066,0.019 -0.184,0.094 -0.31,0.213c-0.127,0.121 -0.258,0.293 -0.382,0.479c-0.249,0.38 -0.463,0.848 -0.648,1.332c-0.368,0.978 -0.623,2.048 -0.797,3.13c-0.175,1.084 -0.27,2.19 -0.278,3.292c-0.006,1.1 0.069,2.208 0.313,3.249l0.002,0.01c0.078,0.332 -0.129,0.665 -0.462,0.743c-0.313,0.074 -0.627,-0.109 -0.727,-0.408c-0.385,-1.163 -0.568,-2.348 -0.67,-3.532c-0.099,-1.185 -0.104,-2.373 -0.021,-3.563c0.084,-1.191 0.25,-2.383 0.581,-3.587c0.17,-0.602 0.375,-1.207 0.696,-1.82c0.165,-0.307 0.35,-0.615 0.605,-0.921c0.26,-0.303 0.579,-0.61 1.028,-0.847l0.134,-0.07c0.609,-0.321 1.364,-0.088 1.686,0.523c0.321,0.609 0.086,1.363 -0.524,1.685c-0.071,0.038 -0.151,0.069 -0.226,0.092Z" style="fill:#371a45;fill-rule:nonzero;"/><path d="M1633.81,174.328c0.73,-0.075 1.438,-0.111 2.161,-0.12c0.721,-0.006 1.447,0.014 2.18,0.089c0.733,0.076 1.473,0.197 2.224,0.439c0.374,0.123 0.753,0.277 1.127,0.493c0.371,0.217 0.746,0.503 1.055,0.903l0.042,0.055c0.315,0.408 0.239,0.993 -0.169,1.308c-0.407,0.314 -0.993,0.239 -1.307,-0.169c-0.029,-0.037 -0.056,-0.08 -0.079,-0.12c-0.195,-0.355 -0.688,-0.703 -1.246,-0.953c-0.565,-0.256 -1.206,-0.441 -1.86,-0.581c-0.656,-0.141 -1.334,-0.237 -2.016,-0.306c-0.68,-0.067 -1.379,-0.107 -2.054,-0.112l-0.012,0c-0.257,-0.002 -0.463,-0.211 -0.462,-0.468c0.002,-0.237 0.185,-0.433 0.416,-0.458Z" style="fill:#371a45;fill-rule:nonzero;"/><path d="M1633.4,178.751c0.731,-0.062 1.427,-0.063 2.142,-0.031c0.711,0.034 1.425,0.112 2.137,0.238c0.712,0.133 1.422,0.326 2.123,0.585c0.697,0.271 1.379,0.631 2.021,1.088c0.418,0.297 0.516,0.877 0.218,1.295c-0.297,0.419 -0.877,0.517 -1.295,0.22c-0.028,-0.02 -0.054,-0.04 -0.079,-0.063l-0.021,-0.018c-0.442,-0.393 -0.945,-0.745 -1.503,-1.039c-0.563,-0.282 -1.162,-0.524 -1.788,-0.715c-0.627,-0.185 -1.274,-0.331 -1.93,-0.438c-0.653,-0.104 -1.335,-0.177 -1.979,-0.196l-0.02,0c-0.256,-0.007 -0.458,-0.221 -0.45,-0.477c0.006,-0.239 0.192,-0.429 0.424,-0.449Z" style="fill:#371a45;fill-rule:nonzero;"/><path d="M1719.75,160.258c15.653,5.375 21.172,21.183 23.482,21.23c2.31,0.048 3.798,-3.908 5.807,-6.522c2.083,-2.712 4.567,-2.444 8.1,-2.176c2.597,0.197 5.76,0.395 9.748,-0.592c4.645,-1.15 -0.14,12.798 -2.193,18.08c-2.671,6.876 -8.503,15.319 -19.341,15.092c-15.79,-0.329 -16.268,-19.745 -16.268,-19.745l-9.335,-25.367Z" style="fill:#fff;fill-rule:nonzero;"/><path d="M1745.79,204.138c-0.134,0 -0.27,-0.001 -0.406,-0.004c-5.102,-0.107 -9.01,-2.359 -11.647,-6.704c-0.185,-1.199 -0.388,-2.394 -0.606,-3.586c-0.654,-3.552 -1.527,-7.082 -2.928,-10.43c3.749,5.265 2.142,17.286 13.048,17.501c0.27,0.006 0.538,0.009 0.807,0.009c4.196,0 8.217,-0.702 10.196,-3.453c1.345,-1.865 -0.07,-4.291 -1.59,-6.668c1.214,0.867 2.669,1.325 4.061,1.52c0.674,0.094 1.34,0.132 1.997,0.132c0.784,0 1.555,-0.054 2.307,-0.131c0.349,-0.033 0.69,-0.077 1.029,-0.122c0.15,-0.018 0.319,-0.042 0.492,-0.07c-2.538,5.288 -7.574,12.006 -16.76,12.006Zm-16.46,-21.665c-0.002,-0.021 -0.004,-0.043 -0.005,-0.065c0.022,0.021 0.044,0.042 0.066,0.062l-0.003,0c-0.02,0 -0.039,0.001 -0.058,0.003Z" style="fill:#cdc6d0;fill-rule:nonzero;"/><path d="M1745.78,206.612c-0.149,0 -0.298,-0.001 -0.449,-0.005c-6.978,-0.146 -12.223,-3.862 -15.167,-10.747c-2.161,-5.056 -2.306,-9.997 -2.311,-10.205c-0.017,-0.683 0.523,-1.25 1.206,-1.267c0.681,-0.021 1.25,0.523 1.267,1.206c0.001,0.046 0.146,4.732 2.139,9.354c2.574,5.97 6.92,9.061 12.918,9.186c10.871,0.232 16.049,-8.864 18.163,-14.304c0.477,-1.229 2.118,-5.561 3.175,-9.685c1.37,-5.344 0.796,-6.594 0.678,-6.777c-0.037,0.001 -0.103,0.003 -0.211,0.03c-4.325,1.07 -7.704,0.812 -10.418,0.604c-3.555,-0.272 -5.191,-0.307 -6.747,1.717c-0.544,0.71 -1.071,1.561 -1.58,2.384c-1.405,2.273 -2.858,4.622 -5.162,4.622c-0.024,0 -0.047,0 -0.071,0c-1.339,-0.028 -2.289,-1.424 -4.18,-4.207c-3.427,-5.041 -9.165,-13.48 -19.678,-17.09c-0.646,-0.221 -0.989,-0.925 -0.768,-1.571c0.222,-0.646 0.925,-0.991 1.572,-0.768c11.292,3.877 17.555,13.09 20.92,18.038c0.877,1.291 1.864,2.742 2.329,3.114c0.905,-0.157 1.98,-1.895 2.934,-3.439c0.541,-0.875 1.102,-1.781 1.723,-2.589c2.437,-3.171 5.429,-2.942 8.897,-2.677c2.538,0.194 5.696,0.436 9.635,-0.539c1.444,-0.357 2.276,0.293 2.645,0.712c0.796,0.906 1.5,2.761 -0.142,9.128c-1.092,4.235 -2.761,8.64 -3.246,9.889c-1.868,4.807 -7.539,15.885 -20.071,15.886Z" style="fill:#371a45;fill-rule:nonzero;"/><path d="M1741.61,205.81c-0.298,0 -0.59,-0.143 -0.769,-0.409c-7.409,-10.993 0.23,-23.982 0.559,-24.53c0.263,-0.438 0.832,-0.581 1.27,-0.317c0.439,0.262 0.581,0.831 0.319,1.27c-0.074,0.125 -7.354,12.536 -0.612,22.541c0.286,0.425 0.174,1.001 -0.25,1.286c-0.159,0.108 -0.339,0.159 -0.517,0.159Z" style="fill:#371a45;fill-rule:nonzero;"/><path d="M1765.82,175.193c7.352,-1.173 7.477,-7.242 4.336,-9.766c-1.928,-1.548 -8.24,-2.536 -9.106,0.751c-0.806,3.064 4.104,3.342 4.073,4.736c-0.019,0.831 -0.67,1.646 -3.356,1.892l4.053,2.387Z" style="fill:#fff;fill-rule:nonzero;"/><path d="M1765.12,170.913c-0.02,0.832 -0.669,1.647 -3.355,1.894l4.052,2.386c0.975,-0.157 1.824,-0.398 2.554,-0.706c1.045,-2.17 0.311,-4.741 -1.469,-6.173c-1.132,-0.91 -3.776,-1.624 -5.941,-1.394c0.101,2.377 4.187,2.722 4.159,3.993Z" style="fill:#fff;fill-rule:nonzero;"/><path d="M1761.05,166.183c0.023,-0.101 0.048,-0.182 0.077,-0.245c-0.029,0.077 -0.054,0.157 -0.076,0.24c0,0.002 -0.001,0.003 -0.001,0.005Z" style="fill:#3986d0;fill-rule:nonzero;"/><path d="M1760.96,166.92c0.018,-0.317 0.046,-0.558 0.085,-0.737c0,-0.002 0.001,-0.003 0.001,-0.005c0.022,-0.083 0.047,-0.163 0.076,-0.24c0.059,-0.129 0.133,-0.184 0.22,-0.184c0.299,0 0.759,0.646 1.357,1.164c-0.296,-0.027 -0.594,-0.042 -0.887,-0.042c-0.289,0 -0.574,0.015 -0.852,0.044Z" style="fill:#cdc6d0;fill-rule:nonzero;"/><path d="M1765.12,170.979c0.002,-0.022 0.003,-0.044 0.003,-0.066l0,-0.014c-0.003,-1.26 -4.058,-1.61 -4.159,-3.979c0.278,-0.029 0.563,-0.044 0.852,-0.044c0.293,0 0.591,0.015 0.887,0.042c0.188,0.163 0.39,0.314 0.604,0.427c1.324,0.702 2.855,0.372 3.598,0.969c0.656,0.528 1.169,1.21 1.505,1.969c-1.01,0.206 -1.979,0.433 -2.944,0.625c-0.115,0.024 -0.23,0.048 -0.346,0.071Z" style="fill:#cdc6d0;fill-rule:nonzero;"/><path d="M1765.82,176.429c-0.598,0 -1.123,-0.434 -1.22,-1.042c-0.108,-0.675 0.352,-1.308 1.026,-1.416c2.816,-0.449 4.635,-1.707 5.122,-3.543c0.385,-1.449 -0.164,-3.071 -1.366,-4.037c-1.013,-0.813 -4.094,-1.557 -5.977,-0.937c-0.868,0.286 -1.076,0.73 -1.158,1.039c-0.192,0.727 0.173,1.114 1.855,1.968c1.073,0.544 2.288,1.16 2.258,2.481c-0.04,1.785 -1.548,2.827 -4.479,3.095c-0.68,0.066 -1.283,-0.438 -1.345,-1.118c-0.062,-0.68 0.439,-1.282 1.119,-1.344c1.195,-0.11 1.818,-0.333 2.079,-0.508c-0.22,-0.132 -0.523,-0.286 -0.751,-0.401c-1.354,-0.687 -3.875,-1.966 -3.128,-4.803c0.348,-1.321 1.308,-2.274 2.776,-2.758c2.683,-0.884 6.595,-0.012 8.3,1.358c1.952,1.568 2.839,4.22 2.208,6.599c-0.742,2.798 -3.339,4.748 -7.123,5.352c-0.066,0.01 -0.132,0.015 -0.196,0.015Z" style="fill:#371a45;fill-rule:nonzero;"/><path d="M1757.75,172.784c3.558,0.258 6.44,-0.255 8.913,-0.768c3.607,-0.748 6.346,-1.497 9.05,0.145c3.494,2.123 2.377,9.639 -0.19,12.208c-3.851,3.85 -10.921,6.168 -13.31,6.514c-4.707,0.683 -11.023,1.074 -12.752,-8.079l8.289,-10.02Z" style="fill:#fff;fill-rule:nonzero;"/><path d="M1757.84,171.551c2.548,0.128 5.075,-0.109 7.627,-0.643c1.282,-0.255 2.573,-0.571 3.955,-0.82c1.371,-0.241 2.901,-0.413 4.486,-0.08c0.397,0.06 0.778,0.202 1.16,0.336c0.392,0.114 0.731,0.331 1.091,0.507l0.267,0.14l0.286,0.194c0.196,0.124 0.36,0.285 0.536,0.432c0.323,0.318 0.623,0.66 0.849,1.029c0.478,0.732 0.753,1.514 0.933,2.281c0.178,0.768 0.255,1.532 0.261,2.283c0.008,1.501 -0.226,2.961 -0.675,4.378c-0.226,0.709 -0.514,1.407 -0.892,2.088c-0.184,0.341 -0.406,0.676 -0.648,1.005c-0.241,0.319 -0.572,0.675 -0.826,0.893c-2.148,2.005 -4.626,3.36 -7.159,4.476c-1.272,0.552 -2.568,1.034 -3.899,1.442c-0.673,0.195 -1.338,0.387 -2.054,0.532c-0.35,0.075 -0.759,0.139 -1.079,0.178c-0.339,0.045 -0.68,0.089 -1.029,0.122c-1.384,0.142 -2.828,0.205 -4.304,-0.001c-1.465,-0.205 -2.999,-0.702 -4.249,-1.659c-0.166,-0.105 -0.311,-0.236 -0.453,-0.37l-0.429,-0.395l-0.209,-0.203l-0.18,-0.226l-0.355,-0.452c-0.251,-0.293 -0.428,-0.625 -0.614,-0.95l-0.271,-0.491c-0.082,-0.166 -0.141,-0.339 -0.213,-0.508c-0.597,-1.35 -0.8,-2.768 -0.899,-4.15c-0.025,-0.343 0.232,-0.64 0.575,-0.664c0.275,-0.02 0.521,0.142 0.619,0.384l0.02,0.05c0.494,1.214 0.901,2.427 1.554,3.451c0.076,0.13 0.142,0.269 0.225,0.392l0.266,0.355c0.176,0.235 0.325,0.491 0.537,0.684c0.378,0.432 0.801,0.798 1.25,1.12c0.914,0.619 1.987,1.002 3.163,1.145c1.173,0.15 2.42,0.092 3.686,-0.057c0.316,-0.033 0.638,-0.078 0.96,-0.125c0.341,-0.047 0.592,-0.091 0.894,-0.158c0.593,-0.126 1.21,-0.311 1.817,-0.496c1.218,-0.39 2.425,-0.855 3.596,-1.381c2.332,-1.053 4.585,-2.358 6.327,-4.035c0.248,-0.223 0.363,-0.367 0.532,-0.575c0.152,-0.209 0.304,-0.43 0.436,-0.677c0.271,-0.486 0.499,-1.028 0.679,-1.59c0.362,-1.127 0.556,-2.337 0.551,-3.506c-0.009,-1.16 -0.239,-2.317 -0.75,-3.104c-0.12,-0.204 -0.271,-0.36 -0.418,-0.516c-0.084,-0.06 -0.153,-0.145 -0.244,-0.194l-0.127,-0.089l-0.178,-0.09c-0.242,-0.11 -0.465,-0.273 -0.722,-0.336c-0.248,-0.085 -0.49,-0.189 -0.759,-0.222c-1.038,-0.22 -2.221,-0.134 -3.473,0.067c-1.251,0.203 -2.561,0.5 -3.902,0.747c-1.34,0.256 -2.723,0.451 -4.115,0.547c-1.393,0.117 -2.799,0.059 -4.193,-0.029c-0.681,-0.042 -1.198,-0.629 -1.156,-1.311c0.043,-0.676 0.621,-1.191 1.296,-1.157l0.04,0.002Z" style="fill:#371a45;fill-rule:nonzero;"/><path d="M1757.75,172.784c3.558,0.258 6.44,-0.255 8.913,-0.768c3.607,-0.748 6.346,-1.497 9.05,0.145c3.494,2.123 2.377,9.639 -0.19,12.208c-3.851,3.85 -10.921,6.168 -13.31,6.514c-4.707,0.683 -11.023,1.074 -12.752,-8.079l8.289,-10.02Z" style="fill:#fff;fill-rule:nonzero;"/><path d="M1759.81,191.154c0.825,-0.056 1.635,-0.16 2.402,-0.271c1.206,-0.175 3.607,-0.852 6.183,-1.976c-2.576,1.124 -4.977,1.802 -6.184,1.977c-0.767,0.111 -1.576,0.214 -2.401,0.27Zm10.959,-3.397c1.751,-0.94 3.438,-2.075 4.753,-3.388c0.255,-0.256 0.496,-0.561 0.72,-0.905c-0.224,0.344 -0.465,0.65 -0.72,0.906c-1.315,1.313 -3.002,2.448 -4.753,3.387Zm5.474,-4.293c0.001,-0.002 0.003,-0.005 0.004,-0.007c-0.001,0.002 -0.003,0.005 -0.004,0.007Zm1.408,-3.618c0.286,-1.381 0.355,-2.842 0.135,-4.146c0,-0.002 0.001,-0.004 0.001,-0.006c0.221,1.305 0.151,2.769 -0.136,4.152Z" style="fill:#371a45;fill-rule:nonzero;"/><path d="M1758.6,191.196c-3.761,0 -7.581,-1.361 -9.009,-7.747c1.883,3.927 5.1,4.864 8.277,4.864c1.286,0 2.566,-0.153 3.747,-0.325c2.482,-0.361 9.816,-2.764 13.813,-6.76c1.161,-1.164 2.037,-3.302 2.354,-5.528c0.22,1.304 0.151,2.765 -0.135,4.146c-0.282,1.359 -0.773,2.639 -1.404,3.611c-0.001,0.002 -0.003,0.005 -0.004,0.007l-0.001,0c-0.224,0.344 -0.465,0.649 -0.72,0.905c-1.315,1.313 -3.002,2.448 -4.753,3.388c-0.787,0.423 -1.589,0.807 -2.374,1.15c-2.576,1.124 -4.977,1.801 -6.183,1.976c-0.767,0.111 -1.577,0.215 -2.402,0.271c-0.4,0.026 -0.803,0.042 -1.206,0.042Z" style="fill:#cdc6d0;fill-rule:nonzero;"/><path d="M1757.84,171.551c2.545,0.17 5.083,-0.045 7.643,-0.562c1.285,-0.245 2.58,-0.552 3.958,-0.789c1.368,-0.228 2.881,-0.389 4.44,-0.063c0.39,0.058 0.765,0.199 1.14,0.331c0.386,0.112 0.719,0.327 1.073,0.499l0.263,0.138l0.278,0.189c0.191,0.12 0.35,0.278 0.522,0.421c0.313,0.31 0.606,0.643 0.827,1.004c0.465,0.715 0.736,1.483 0.913,2.238c0.173,0.758 0.25,1.511 0.255,2.254c0.006,1.485 -0.221,2.932 -0.663,4.336c-0.223,0.702 -0.506,1.393 -0.877,2.066c-0.181,0.337 -0.4,0.667 -0.636,0.992c-0.238,0.313 -0.556,0.662 -0.808,0.883c-2.114,2.007 -4.567,3.398 -7.086,4.541c-1.267,0.563 -2.56,1.053 -3.888,1.47c-0.671,0.202 -1.335,0.398 -2.051,0.548c-0.763,0.16 -1.409,0.234 -2.11,0.304c-1.385,0.138 -2.831,0.195 -4.309,-0.016c-1.464,-0.211 -2.999,-0.712 -4.244,-1.676c-0.166,-0.105 -0.309,-0.237 -0.451,-0.37l-0.427,-0.398l-0.209,-0.202l-0.179,-0.226l-0.352,-0.453c-0.251,-0.294 -0.426,-0.625 -0.612,-0.95l-0.27,-0.491c-0.082,-0.165 -0.141,-0.339 -0.213,-0.507c-0.596,-1.349 -0.802,-2.764 -0.913,-4.143c-0.028,-0.342 0.226,-0.641 0.568,-0.669c0.279,-0.023 0.529,0.143 0.627,0.389l0.02,0.05c0.481,1.216 0.885,2.432 1.538,3.458c0.077,0.131 0.143,0.269 0.226,0.392l0.267,0.356c0.176,0.236 0.327,0.491 0.539,0.684c0.38,0.433 0.806,0.797 1.258,1.116c0.919,0.614 1.993,0.992 3.168,1.13c1.172,0.144 2.416,0.08 3.681,-0.072c0.316,-0.035 0.636,-0.082 0.958,-0.129c0.342,-0.045 0.592,-0.086 0.894,-0.151c0.593,-0.121 1.211,-0.301 1.82,-0.482c1.221,-0.379 2.43,-0.836 3.607,-1.352c2.346,-1.025 4.625,-2.295 6.4,-3.969c0.251,-0.22 0.379,-0.371 0.551,-0.584c0.156,-0.215 0.312,-0.44 0.447,-0.691c0.278,-0.495 0.511,-1.042 0.695,-1.612c0.368,-1.14 0.571,-2.362 0.561,-3.549c-0.011,-1.176 -0.242,-2.354 -0.775,-3.175c-0.125,-0.212 -0.284,-0.377 -0.439,-0.541c-0.09,-0.064 -0.163,-0.152 -0.259,-0.205l-0.135,-0.094l-0.183,-0.092c-0.247,-0.113 -0.476,-0.279 -0.739,-0.344c-0.255,-0.087 -0.504,-0.192 -0.779,-0.226c-1.065,-0.228 -2.264,-0.131 -3.519,0.083c-1.255,0.214 -2.561,0.522 -3.899,0.777c-2.674,0.543 -5.503,0.794 -8.292,0.6c-0.681,-0.047 -1.194,-0.637 -1.148,-1.319c0.048,-0.681 0.638,-1.195 1.32,-1.148l0.008,0.001Z" style="fill:#371a45;fill-rule:nonzero;"/><path d="M1749.03,176.239c0,0 -0.883,-10.459 5.037,-12.048c5.102,-1.37 6.48,0.422 6.585,1.542c0.181,1.912 -3.923,3.117 -3.987,3.75c-0.063,0.634 3.106,4.247 0.191,6.497" style="fill:#fff;fill-rule:nonzero;"/><path d="M1747.8,176.342c-0.073,-0.808 -0.098,-1.533 -0.091,-2.3c0.014,-0.757 0.057,-1.515 0.141,-2.276c0.176,-1.518 0.477,-3.062 1.143,-4.564c0.334,-0.749 0.759,-1.487 1.323,-2.162c0.559,-0.673 1.27,-1.276 2.091,-1.691l0.626,-0.28l0.648,-0.211c0.385,-0.094 0.752,-0.189 1.138,-0.268c0.77,-0.153 1.567,-0.263 2.407,-0.278c0.845,0.014 1.75,0.085 2.696,0.53c0.467,0.206 0.937,0.548 1.32,0.996c0.382,0.453 0.663,1.027 0.745,1.679c0.042,0.339 0.019,0.738 -0.083,1.066c-0.098,0.331 -0.245,0.626 -0.406,0.862c-0.324,0.477 -0.685,0.8 -1.032,1.074c-0.697,0.538 -1.388,0.901 -2.019,1.245l-0.445,0.247c-0.133,0.074 -0.263,0.157 -0.31,0.191c-0.022,0.014 0,0.001 -0.004,-0.001c0.006,-0.007 0.029,-0.028 0.04,-0.044l0.022,-0.031c0.019,-0.024 0.036,-0.049 0.052,-0.075c0.015,-0.026 0.029,-0.054 0.04,-0.081c0.014,-0.031 0.05,-0.108 0.064,-0.165c0.018,-0.061 0.029,-0.125 0.033,-0.188c0.006,-0.046 0.009,-0.087 0.008,-0.131c-0.001,-0.043 -0.005,-0.086 -0.013,-0.129l-0.006,-0.04c-0.003,-0.018 -0.017,-0.059 -0.016,-0.056c-0.008,-0.01 0.065,0.161 0.134,0.297c0.309,0.611 0.689,1.34 0.948,2.143c0.26,0.799 0.39,1.778 0.09,2.745c-0.146,0.478 -0.414,0.919 -0.736,1.267c-0.333,0.343 -0.71,0.602 -1.113,0.756c-0.332,0.128 -0.704,-0.038 -0.831,-0.37c-0.074,-0.189 -0.051,-0.393 0.045,-0.556l0.031,-0.052c0.341,-0.576 0.491,-1.049 0.485,-1.498c0.002,-0.45 -0.114,-0.946 -0.315,-1.501c-0.201,-0.564 -0.499,-1.112 -0.859,-1.773c-0.093,-0.184 -0.187,-0.333 -0.312,-0.685c-0.015,-0.039 -0.036,-0.125 -0.05,-0.187l-0.022,-0.106c-0.009,-0.064 -0.014,-0.13 -0.016,-0.195c-0.002,-0.067 -0.001,-0.13 0.005,-0.199c0.011,-0.084 0.028,-0.17 0.052,-0.253c0.022,-0.078 0.059,-0.178 0.085,-0.227c0.023,-0.048 0.049,-0.094 0.076,-0.14c0.027,-0.045 0.057,-0.089 0.087,-0.132l0.066,-0.082c0.042,-0.049 0.092,-0.106 0.131,-0.144c0.064,-0.06 0.149,-0.139 0.2,-0.177c0.237,-0.187 0.414,-0.294 0.59,-0.404l0.491,-0.29c0.622,-0.359 1.195,-0.699 1.628,-1.057c0.212,-0.176 0.38,-0.356 0.456,-0.478c0.042,-0.061 0.047,-0.097 0.053,-0.11c0.004,-0.017 -0.007,0.015 -0.005,-0.002c-0.027,-0.135 -0.161,-0.367 -0.541,-0.529c-0.362,-0.177 -0.931,-0.246 -1.516,-0.24c-0.599,0.015 -1.233,0.098 -1.874,0.227c-0.318,0.066 -0.649,0.153 -0.962,0.229l-0.379,0.124c-0.118,0.056 -0.237,0.11 -0.358,0.161c-0.927,0.472 -1.667,1.376 -2.18,2.508c-1.034,2.267 -1.292,5.161 -1.231,7.803l0.002,0.068c0.015,0.682 -0.525,1.249 -1.207,1.264c-0.653,0.016 -1.2,-0.483 -1.26,-1.124Z" style="fill:#371a45;fill-rule:nonzero;"/><path d="M1764.72,171.363c0.449,0.237 0.768,0.544 1.027,0.847c0.255,0.306 0.441,0.614 0.606,0.921c0.321,0.613 0.525,1.218 0.695,1.82c0.332,1.204 0.497,2.396 0.582,3.587c0.083,1.19 0.078,2.378 -0.021,3.563c-0.102,1.184 -0.285,2.369 -0.67,3.532c-0.107,0.324 -0.457,0.5 -0.782,0.393c-0.305,-0.101 -0.479,-0.419 -0.408,-0.726l0.003,-0.012c0.243,-1.041 0.319,-2.149 0.312,-3.249c-0.007,-1.102 -0.102,-2.208 -0.278,-3.292c-0.173,-1.082 -0.428,-2.152 -0.796,-3.13c-0.185,-0.484 -0.399,-0.952 -0.649,-1.332c-0.124,-0.186 -0.255,-0.358 -0.381,-0.479c-0.126,-0.119 -0.244,-0.194 -0.31,-0.213c-0.661,-0.196 -1.038,-0.89 -0.842,-1.551c0.196,-0.661 0.891,-1.037 1.551,-0.842c0.078,0.023 0.151,0.054 0.221,0.089l0.14,0.074Z" style="fill:#371a45;fill-rule:nonzero;"/><path d="M1774.43,175.254c-0.674,0.005 -1.374,0.045 -2.053,0.112c-0.683,0.069 -1.36,0.165 -2.016,0.306c-0.655,0.14 -1.295,0.325 -1.86,0.581c-0.559,0.25 -1.051,0.598 -1.246,0.953c-0.249,0.451 -0.816,0.616 -1.266,0.367c-0.452,-0.248 -0.616,-0.815 -0.368,-1.266c0.023,-0.041 0.048,-0.079 0.075,-0.116l0.046,-0.059c0.309,-0.4 0.684,-0.686 1.055,-0.903c0.374,-0.216 0.752,-0.37 1.127,-0.493c0.751,-0.242 1.491,-0.363 2.224,-0.439c0.733,-0.075 1.458,-0.095 2.179,-0.089c0.724,0.009 1.431,0.045 2.161,0.12c0.255,0.027 0.44,0.255 0.414,0.51c-0.025,0.237 -0.224,0.413 -0.456,0.416l-0.016,0Z" style="fill:#371a45;fill-rule:nonzero;"/><path d="M1774.85,179.677c-0.644,0.019 -1.325,0.092 -1.978,0.196c-0.657,0.107 -1.304,0.253 -1.931,0.438c-0.625,0.191 -1.224,0.433 -1.788,0.715c-0.557,0.294 -1.06,0.646 -1.502,1.039l-0.021,0.018c-0.384,0.341 -0.971,0.307 -1.312,-0.077c-0.341,-0.384 -0.306,-0.971 0.077,-1.312c0.025,-0.023 0.053,-0.044 0.079,-0.063c0.642,-0.457 1.323,-0.817 2.021,-1.088c0.701,-0.259 1.411,-0.452 2.122,-0.585c0.713,-0.126 1.426,-0.204 2.137,-0.238c0.716,-0.032 1.412,-0.031 2.143,0.031c0.255,0.022 0.444,0.246 0.423,0.502c-0.02,0.237 -0.217,0.418 -0.449,0.424l-0.021,0Z" style="fill:#371a45;fill-rule:nonzero;"/><path d="M1729.36,183.014c6.779,23.633 3.48,44.923 3.48,44.923l-29.341,0l1.086,0l-29.34,0c0,0 -3.3,-21.416 3.541,-45.133c0,0 0.661,-27.807 25.083,-27.807c24.422,0 25.491,28.017 25.491,28.017Z" style="fill:#fff;fill-rule:nonzero;"/><path d="M1729.96,182.843c1.546,3.516 2.482,7.245 3.173,11.001c0.343,1.88 0.651,3.766 0.906,5.66c0.244,1.895 0.456,3.795 0.605,5.699c0.311,3.808 0.433,7.632 0.352,11.453c-0.033,1.91 -0.134,3.821 -0.278,5.728c-0.151,1.916 -0.33,3.795 -0.65,5.742l-0.157,1.048l-1.065,0l-29.34,0l0,-2.474l1.085,0l0,2.474l-29.34,0l-1.066,0l-0.157,-1.048l0,-0.001c-0.319,-1.955 -0.496,-3.844 -0.647,-5.769c-0.144,-1.917 -0.242,-3.836 -0.273,-5.755c-0.079,-3.839 0.047,-7.681 0.364,-11.507c0.154,-1.913 0.366,-3.823 0.616,-5.726c0.258,-1.902 0.568,-3.797 0.916,-5.685c0.702,-3.772 1.665,-7.512 3.193,-11.05c0.136,-0.317 0.503,-0.462 0.82,-0.326c0.265,0.115 0.41,0.391 0.369,0.663l-0.001,0.005c-0.556,3.764 -1.295,7.434 -1.91,11.141c-0.6,3.708 -1.027,7.441 -1.299,11.186c-0.127,1.873 -0.232,3.748 -0.289,5.625c-0.051,1.877 -0.069,3.754 -0.052,5.631c0.026,1.877 0.076,3.753 0.175,5.626c0.107,1.863 0.251,3.76 0.463,5.564l0,0.001l-1.222,-1.049l29.34,0l0,2.474l-1.085,0l0,-2.474l29.34,0l-1.221,1.048c0.212,-1.796 0.355,-3.684 0.464,-5.538c0.1,-1.863 0.149,-3.73 0.177,-5.598c0.02,-1.868 0,-3.737 -0.048,-5.604c-0.054,-1.868 -0.16,-3.734 -0.284,-5.598c-0.266,-3.727 -0.693,-7.443 -1.284,-11.133c-0.612,-3.69 -1.359,-7.338 -1.879,-11.093l0,-0.004c-0.047,-0.342 0.191,-0.657 0.533,-0.704c0.282,-0.039 0.547,0.118 0.656,0.367Z" style="fill:#371a45;fill-rule:nonzero;"/><path d="M1689.68,212.316c-3.727,1.509 -9.495,1.193 -13.427,0.718c-2.359,-0.286 -4.014,-2.462 -3.666,-4.813c0.316,-2.144 2.204,-3.704 4.369,-3.602c3.679,0.172 9.196,0.253 12.69,-0.522l0.034,8.219Z" style="fill:#fff;fill-rule:nonzero;"/><path d="M1682.99,212.18c-1.66,-0.702 -3.386,-1.426 -5.36,-2.189c-1.251,-0.482 -2.544,-0.733 -3.838,-0.769c-0.034,-0.268 -0.031,-0.543 0.01,-0.82c0.019,-0.13 0.046,-0.257 0.081,-0.38c0.629,0.584 1.442,0.983 2.362,1.094c1.758,0.213 3.884,0.394 6.031,0.394c1.425,0 2.86,-0.079 4.201,-0.282l0,2.66c-1.039,0.167 -2.207,0.265 -3.487,0.292Z" style="fill:#b9afbe;fill-rule:nonzero;"/><path d="M1676.75,205.851c-1.474,0 -2.728,1.075 -2.946,2.551c-0.12,0.806 0.087,1.606 0.581,2.253c0.491,0.645 1.206,1.053 2.01,1.151c5.583,0.675 10.133,0.45 12.816,-0.636c0.602,-0.244 0.832,-1.245 0.904,-1.664c0.28,-1.647 -0.161,-3.52 -0.547,-4.13c-3.569,0.716 -8.831,0.659 -12.675,0.478c-0.048,-0.002 -0.095,-0.003 -0.143,-0.003Zm12.925,6.465l0.003,0l-0.003,0Zm-7.415,2.347c-2.167,0 -4.318,-0.179 -6.161,-0.402c-1.473,-0.178 -2.78,-0.926 -3.681,-2.105c-0.902,-1.182 -1.278,-2.643 -1.061,-4.115c0.412,-2.787 2.846,-4.789 5.651,-4.657c5.397,0.253 9.788,0.078 12.364,-0.495c0.588,-0.13 2.045,-0.146 2.87,2.506c0.804,2.585 0.691,6.937 -2.103,8.068c-2.219,0.898 -5.062,1.2 -7.879,1.2Z" style="fill:#371a45;fill-rule:nonzero;"/><path d="M1731.61,213.034c-1.845,0.223 -4.097,0.411 -6.351,0.39c-0.155,0 -0.309,-0.003 -0.464,-0.007c-0.162,-0.002 -0.327,-0.007 -0.49,-0.014c-0.11,-0.003 -0.218,-0.007 -0.324,-0.012c-0.129,-0.007 -0.257,-0.014 -0.383,-0.021c-0.163,-0.01 -0.325,-0.021 -0.485,-0.033l-0.012,0c-0.16,-0.012 -0.323,-0.026 -0.483,-0.043c-0.105,-0.009 -0.211,-0.02 -0.315,-0.032c-0.089,-0.008 -0.178,-0.019 -0.266,-0.028c-0.138,-0.017 -0.277,-0.036 -0.411,-0.055c-0.13,-0.019 -0.257,-0.037 -0.382,-0.059c-0.025,-0.002 -0.051,-0.004 -0.075,-0.012c-0.148,-0.02 -0.294,-0.046 -0.438,-0.074c-0.145,-0.026 -0.289,-0.055 -0.43,-0.086c-0.012,-0.002 -0.024,-0.004 -0.035,-0.006c-0.08,-0.02 -0.161,-0.036 -0.238,-0.054c-0.087,-0.02 -0.175,-0.04 -0.261,-0.064l-0.003,0c-0.266,-0.066 -0.527,-0.141 -0.781,-0.221c-0.136,-0.042 -0.273,-0.09 -0.407,-0.137c-0.134,-0.047 -0.266,-0.099 -0.393,-0.15l0.017,-3.946l0.018,-4.274c0.894,0.2 1.923,0.341 3.017,0.44c3.182,0.29 6.935,0.21 9.671,0.083c0.066,-0.002 0.132,-0.005 0.201,-0.005c2.08,0 3.863,1.53 4.169,3.607c0.348,2.351 -1.308,4.528 -3.666,4.813Z" style="fill:#fff;fill-rule:nonzero;"/><path d="M1725.62,212.188c-2.384,0 -4.42,-0.23 -5.995,-0.684l0,-2.954c0.047,0.012 0.094,0.024 0.141,0.036l0.003,0c0.087,0.024 0.174,0.044 0.261,0.064c0.077,0.018 0.158,0.035 0.238,0.054l0.035,0.007c0.141,0.03 0.285,0.059 0.431,0.085c0.143,0.028 0.289,0.053 0.437,0.075c0.024,0.007 0.05,0.009 0.076,0.011c0.124,0.022 0.251,0.041 0.381,0.059c0.134,0.019 0.273,0.038 0.412,0.054c0.087,0.01 0.176,0.022 0.265,0.028c0.104,0.012 0.21,0.024 0.316,0.034c0.16,0.016 0.323,0.03 0.482,0.042l0.012,0c0.16,0.012 0.322,0.024 0.485,0.033c0.127,0.007 0.254,0.014 0.384,0.021c0.106,0.004 0.214,0.01 0.324,0.012c0.163,0.007 0.327,0.012 0.489,0.014c0.156,0.004 0.309,0.007 0.464,0.007c0.116,0.001 0.233,0.002 0.349,0.002c2.137,0 4.252,-0.181 6.002,-0.392c0.881,-0.106 1.664,-0.477 2.281,-1.022c0.075,0.199 0.13,0.409 0.162,0.628c0.119,0.806 -0.087,1.606 -0.58,2.253c-0.089,0.115 -0.183,0.223 -0.284,0.322c-0.156,0.052 -0.312,0.109 -0.466,0.168c-0.639,0.247 -1.252,0.489 -1.845,0.728c-1.889,0.211 -3.653,0.315 -5.26,0.315Z" style="fill:#cdc6d0;fill-rule:nonzero;"/><path d="M1718.65,211.17c2.682,1.086 7.232,1.312 12.815,0.636c0.805,-0.098 1.518,-0.506 2.011,-1.151c0.493,-0.647 0.699,-1.447 0.58,-2.253c-0.225,-1.524 -1.543,-2.617 -3.089,-2.548c-3.844,0.181 -9.106,0.238 -12.675,-0.478c-0.387,0.61 -0.827,2.483 -0.547,4.13c0.071,0.419 0.302,1.42 0.905,1.664Zm6.95,3.493c-2.817,0 -5.659,-0.302 -7.878,-1.2c-2.795,-1.131 -2.908,-5.483 -2.103,-8.068c0.824,-2.652 2.28,-2.635 2.869,-2.506c2.577,0.572 6.966,0.748 12.364,0.495c2.805,-0.135 5.239,1.87 5.651,4.657c0.218,1.472 -0.159,2.933 -1.061,4.115c-0.9,1.179 -2.208,1.927 -3.681,2.105c-1.842,0.223 -3.994,0.402 -6.161,0.402Z" style="fill:#371a45;fill-rule:nonzero;"/><path d="M1719.62,201.381l0,13.171c0,2.444 -2,4.445 -4.444,4.445l-24.259,0c-2.44,0 -4.441,-2.001 -4.441,-4.445l0,-13.171c0,-2.444 2.001,-4.441 4.441,-4.441l24.259,0c1.438,0 2.723,0.693 3.537,1.76c0.569,0.746 0.907,1.676 0.907,2.681Z" style="fill:#fff;fill-rule:nonzero;"/><path d="M1719.14,216.569c0.31,-0.607 0.486,-1.292 0.486,-2.017l0,-0.49l0,0.491c0,0.724 -0.176,1.409 -0.486,2.016Zm0.486,-13.47l0,-1.718c0,-0.243 -0.019,-0.481 -0.058,-0.713c0.039,0.232 0.058,0.47 0.058,0.713l0,1.718Z" style="fill:#cdc6d0;fill-rule:nonzero;"/><path d="M1719.62,208.55l0,-2.951l0,2.951Z" style="fill:#cdc6d0;fill-rule:nonzero;"/><path d="M1719.62,211.504l0,-2.954l0,2.954Z" style="fill:#a79bad;fill-rule:nonzero;"/><path d="M1719.62,214.062l0,-2.558l0,2.558Zm0,-8.463l0,-2.5l0,2.5Z" style="fill:#371a45;fill-rule:nonzero;"/><path d="M1718.94,199.02c-0.069,-0.11 -0.143,-0.216 -0.222,-0.319l0,-0.001c0.079,0.103 0.153,0.21 0.222,0.32Z" style="fill:#cdc6d0;fill-rule:nonzero;"/><path d="M1710.3,218.996l-4.251,0c-9.664,-1.683 -14.814,-3.427 -19.567,-5.358l0,-4.012c2.251,4.376 9.176,6.453 15.709,6.453c1.011,0 2.011,-0.05 2.985,-0.149c1.623,-0.164 2.783,-1.706 2.396,-3.291c-0.115,-0.473 -0.177,-0.974 -0.177,-1.493c0,-2.873 1.904,-5.203 4.252,-5.203c2.27,0 4.129,2.18 4.25,4.923c2.91,-3.805 3.068,-8.897 2.823,-12.165c0.079,0.103 0.153,0.209 0.222,0.319c0.311,0.493 0.529,1.05 0.626,1.648c0.039,0.232 0.058,0.47 0.058,0.713l0,13.171c0,0.725 -0.176,1.41 -0.486,2.017c-2.472,0.837 -5.288,1.641 -8.84,2.427Z" style="fill:#cdc6d0;fill-rule:nonzero;"/><path d="M1691.68,198.176c-2.185,0 -3.963,1.777 -3.963,3.962l0,11.658c0,2.186 1.778,3.963 3.963,3.963l22.744,0c2.185,0 3.963,-1.777 3.963,-3.963l0,-11.658c0,-2.185 -1.778,-3.962 -3.963,-3.962l-22.744,0Zm22.744,22.057l-22.744,0c-3.549,0 -6.436,-2.887 -6.436,-6.437l0,-11.658c0,-3.549 2.887,-6.436 6.436,-6.436l22.744,0c3.548,0 6.436,2.887 6.436,6.436l0,11.658c0,3.55 -2.888,6.437 -6.436,6.437Z" style="fill:#371a45;fill-rule:nonzero;"/><path d="M1715.48,207.968c0,2.115 -1.716,3.83 -3.831,3.83c-2.116,0 -3.831,-1.715 -3.831,-3.83c0,-2.117 1.715,-3.831 3.831,-3.831c2.115,0 3.831,1.714 3.831,3.831Z" style="fill:#565656;fill-rule:nonzero;"/><path d="M1715.48,207.968c0,0.208 -0.016,0.412 -0.049,0.611c-0.292,-1.827 -1.874,-3.221 -3.782,-3.221c-1.908,0 -3.49,1.394 -3.782,3.221c-0.034,-0.199 -0.05,-0.403 -0.05,-0.611c0,-2.115 1.716,-3.831 3.832,-3.831c2.115,0 3.831,1.716 3.831,3.831Z" style="fill:#fff;fill-rule:nonzero;"/><path d="M1715.48,207.966c0,2.116 -1.715,3.83 -3.83,3.83c-2.115,0 -3.829,-1.714 -3.829,-3.83c0,-0.489 0.091,-0.955 0.262,-1.386c0.552,1.429 1.941,2.441 3.567,2.441c1.626,0 3.015,-1.012 3.568,-2.441c0.17,0.431 0.262,0.897 0.262,1.386Z" style="fill-rule:nonzero;"/><path d="M1711.65,205.064c-1.601,0 -2.903,1.303 -2.903,2.904c0,1.6 1.302,2.903 2.903,2.903c1.601,0 2.903,-1.303 2.903,-2.903c0,-1.601 -1.302,-2.904 -2.903,-2.904Zm0,7.662c-2.624,0 -4.759,-2.135 -4.759,-4.758c0,-2.624 2.135,-4.758 4.759,-4.758c2.624,0 4.758,2.134 4.758,4.758c0,2.623 -2.134,4.758 -4.758,4.758Z" style="fill-rule:nonzero;"/><path d="M1700.79,220.233c-0.683,0 -1.237,-0.554 -1.237,-1.237l0,-6.357c0,-1.514 -0.722,-2.963 -1.933,-3.874c-1.827,-1.375 -2.918,-3.563 -2.918,-5.85l0,-5.977c0,-0.682 0.554,-1.236 1.236,-1.236c0.684,0 1.237,0.554 1.237,1.236l0,5.977c0,1.515 0.722,2.963 1.933,3.874c1.828,1.376 2.919,3.563 2.919,5.85l0,6.357c0,0.683 -0.554,1.237 -1.237,1.237Z" style="fill:#371a45;fill-rule:nonzero;"/><path d="M1732.43,166.587c-0.428,-0.398 -0.87,-0.791 -1.327,-1.18c0.025,-0.019 0.051,-0.04 0.076,-0.06c0.49,0.326 0.956,0.684 1.397,1.073c-0.049,0.055 -0.098,0.111 -0.146,0.167Z" style="fill:#cdc6d0;fill-rule:nonzero;"/><path d="M1732.58,166.42c-0.441,-0.389 -0.907,-0.747 -1.397,-1.073c0.476,-0.376 0.943,-0.763 1.403,-1.16c0.391,0.268 0.768,0.558 1.127,0.867c-0.369,0.464 -0.747,0.92 -1.133,1.366Z" style="fill:#371a45;fill-rule:nonzero;"/><path d="M1726.95,171.793c-0.344,-0.925 -0.736,-1.867 -1.183,-2.808c1.135,-0.641 2.238,-1.333 3.307,-2.076c0.586,0.481 1.148,0.974 1.686,1.474c-1.205,1.224 -2.478,2.362 -3.81,3.41Z" style="fill:#cdc6d0;fill-rule:nonzero;"/><path d="M1730.76,168.383c-0.538,-0.5 -1.1,-0.993 -1.686,-1.474c0.691,-0.48 1.368,-0.981 2.029,-1.502c0.457,0.389 0.899,0.782 1.327,1.18c-0.541,0.617 -1.098,1.217 -1.67,1.796Z" style="fill:#371a45;fill-rule:nonzero;"/><path d="M1676.29,166.201c-0.071,-0.084 -0.141,-0.167 -0.213,-0.252c0.652,-0.511 1.353,-0.963 2.096,-1.345c-0.655,0.521 -1.283,1.055 -1.883,1.597Z" style="fill:#cdc6d0;fill-rule:nonzero;"/><path d="M1676.08,165.949c-0.377,-0.45 -0.747,-0.909 -1.107,-1.376c0.64,-0.489 1.328,-0.918 2.053,-1.281c0.433,0.402 0.874,0.795 1.323,1.177c-0.059,0.045 -0.115,0.09 -0.173,0.135c-0.743,0.382 -1.444,0.834 -2.096,1.345Z" style="fill:#371a45;fill-rule:nonzero;"/><path d="M1681.25,171.105c-1.154,-0.961 -2.258,-1.992 -3.308,-3.086c0.749,-0.676 1.542,-1.336 2.383,-1.971c0.787,0.592 1.593,1.155 2.419,1.688c-0.578,1.122 -1.072,2.255 -1.494,3.369Z" style="fill:#cdc6d0;fill-rule:nonzero;"/><path d="M1677.94,168.019c-0.564,-0.587 -1.113,-1.194 -1.645,-1.818c0.6,-0.542 1.228,-1.076 1.883,-1.597c0.058,-0.045 0.114,-0.09 0.173,-0.135c0.642,0.547 1.299,1.074 1.972,1.579c-0.841,0.635 -1.634,1.295 -2.383,1.971Z" style="fill:#371a45;fill-rule:nonzero;"/><path d="M1704.56,179.71c-0.857,0 -1.718,-0.031 -2.586,-0.095c-7.795,-0.569 -14.904,-3.659 -20.731,-8.51c0.422,-1.114 0.916,-2.247 1.494,-3.369c4.937,3.185 10.542,5.303 16.529,6.183c2.045,0.3 4.076,0.446 6.084,0.446c7.317,0 14.313,-1.936 20.412,-5.38c0.447,0.941 0.839,1.883 1.183,2.808c-6.369,5.003 -14.111,7.917 -22.385,7.917Z" style="fill:#cdc6d0;fill-rule:nonzero;"/><path d="M1743.42,148.277c-0.453,-0.034 -0.794,-0.429 -0.76,-0.883l1.777,-23.658c0.033,-0.453 0.429,-0.793 0.882,-0.759c4.759,0.357 8.327,4.504 7.97,9.263l-0.606,8.067c-0.356,4.759 -4.504,8.328 -9.263,7.97Z" style="fill:#fff;fill-rule:nonzero;"/><path d="M1745.25,123.197c-0.143,0 -0.281,0.05 -0.391,0.145c-0.122,0.105 -0.195,0.251 -0.208,0.411l-1.775,23.658c-0.012,0.16 0.039,0.316 0.144,0.437c0.104,0.122 0.25,0.196 0.411,0.208c2.243,0.168 4.416,-0.547 6.121,-2.014c1.704,-1.467 2.736,-3.509 2.904,-5.751l0.606,-8.068c0.168,-2.242 -0.547,-4.416 -2.014,-6.121c-1.466,-1.704 -3.509,-2.735 -5.752,-2.904c-0.015,-0.001 -0.03,-0.001 -0.046,-0.001Zm-1.175,25.327c-0.225,0 -0.451,-0.008 -0.677,-0.025c-0.279,-0.021 -0.532,-0.149 -0.715,-0.361c-0.182,-0.212 -0.271,-0.482 -0.25,-0.761l1.776,-23.657c0.021,-0.279 0.149,-0.533 0.36,-0.715c0.212,-0.182 0.483,-0.271 0.761,-0.25c2.361,0.177 4.511,1.264 6.055,3.058c1.544,1.794 2.297,4.082 2.119,6.443l-0.605,8.068c-0.177,2.36 -1.263,4.511 -3.057,6.055c-1.623,1.396 -3.649,2.145 -5.767,2.145Z" style="fill:#371a45;fill-rule:nonzero;"/><path d="M1744.44,147.057c0.639,-1.741 1.167,-3.543 1.574,-5.397c2.186,-0.245 4.148,-1.314 5.539,-2.91l-0.11,1.465c-0.148,1.972 -1.055,3.768 -2.554,5.058c-1.261,1.085 -2.818,1.707 -4.449,1.784Z" style="fill:#cdc6d0;fill-rule:nonzero;"/><path d="M1743.51,147.044l0.001,0l-0.001,0Zm0.413,0.02c1.819,0.043 3.576,-0.591 4.97,-1.791c1.499,-1.29 2.406,-3.086 2.554,-5.058l0.606,-8.068c0.148,-1.972 -0.481,-3.883 -1.771,-5.383c-1.199,-1.394 -2.837,-2.276 -4.648,-2.512l-1.711,22.812Zm0.156,2.475c-0.25,0 -0.502,-0.01 -0.754,-0.029c-0.549,-0.041 -1.049,-0.293 -1.408,-0.711c-0.359,-0.416 -0.534,-0.949 -0.492,-1.497l1.775,-23.658c0.041,-0.549 0.294,-1.049 0.711,-1.408c0.417,-0.359 0.949,-0.534 1.498,-0.492c2.631,0.197 5.027,1.407 6.748,3.407c1.721,2 2.559,4.551 2.362,7.182l-0.605,8.067c-0.198,2.631 -1.408,5.027 -3.408,6.748c-1.808,1.556 -4.066,2.391 -6.427,2.391Z" style="fill:#371a45;fill-rule:nonzero;"/><path d="M1667.23,117.116c0.454,0.034 0.794,0.429 0.76,0.883l-1.775,23.657c-0.035,0.454 -0.43,0.794 -0.883,0.76c-4.759,-0.357 -8.328,-4.504 -7.97,-9.263l0.605,-8.068c0.357,-4.758 4.504,-8.326 9.263,-7.969Z" style="fill:#fff;fill-rule:nonzero;"/><path d="M1666.57,117.313c-2.012,0 -3.937,0.712 -5.478,2.038c-1.705,1.466 -2.736,3.509 -2.904,5.751l-0.606,8.068c-0.168,2.242 0.547,4.416 2.014,6.12c1.466,1.705 3.509,2.736 5.751,2.905c0.159,0.01 0.316,-0.04 0.437,-0.144c0.122,-0.105 0.196,-0.251 0.208,-0.411l1.775,-23.658c0.025,-0.33 -0.224,-0.62 -0.554,-0.645c-0.215,-0.016 -0.43,-0.024 -0.643,-0.024Zm-1.176,25.328c-0.026,0 -0.054,-0.001 -0.08,-0.003c-2.361,-0.177 -4.511,-1.263 -6.055,-3.058c-1.545,-1.795 -2.297,-4.083 -2.12,-6.444l0.606,-8.067c0.177,-2.361 1.263,-4.511 3.057,-6.055c1.795,-1.544 4.084,-2.295 6.444,-2.12c0.575,0.043 1.007,0.546 0.964,1.121l-1.775,23.658c-0.021,0.279 -0.149,0.533 -0.361,0.715c-0.191,0.165 -0.431,0.253 -0.68,0.253Z" style="fill:#371a45;fill-rule:nonzero;"/><path d="M1664.49,141.054c-1.602,-0.326 -3.042,-1.167 -4.125,-2.426c-1.29,-1.499 -1.918,-3.41 -1.77,-5.383l0.108,-1.435c1.186,1.658 2.951,2.891 5.024,3.384c0.114,1.975 0.37,3.933 0.763,5.86Z" style="fill:#cdc6d0;fill-rule:nonzero;"/><path d="M1666.57,118.328c-1.771,0 -3.463,0.626 -4.819,1.792c-1.499,1.29 -2.406,3.086 -2.554,5.058l-0.605,8.067c-0.148,1.973 0.48,3.884 1.77,5.383c1.2,1.395 2.838,2.277 4.648,2.513l1.712,-22.812c-0.051,-0.001 -0.102,-0.001 -0.152,-0.001Zm-1.176,25.328c-0.053,0 -0.106,-0.003 -0.159,-0.006c-2.63,-0.198 -5.027,-1.408 -6.747,-3.408c-1.721,-2 -2.56,-4.551 -2.363,-7.181l0.606,-8.068c0.407,-5.431 5.16,-9.518 10.589,-9.11c1.133,0.085 1.985,1.075 1.9,2.208l-1.776,23.658c-0.041,0.549 -0.293,1.049 -0.711,1.408c-0.376,0.324 -0.847,0.499 -1.339,0.499Z" style="fill:#371a45;fill-rule:nonzero;"/><path d="M1745.33,138.575c-3.246,22.09 -23.786,37.366 -45.876,34.12c-22.091,-3.246 -37.367,-23.785 -34.121,-45.876c3.246,-22.09 23.785,-37.367 45.876,-34.121c22.09,3.246 37.367,23.786 34.121,45.877Z" style="fill:#fff;fill-rule:nonzero;"/><path d="M1705.3,92.487c-19.605,0 -36.819,14.402 -39.752,34.364c-1.562,10.626 1.108,21.223 7.517,29.84c6.409,8.618 15.79,14.223 26.416,15.785c1.972,0.29 3.934,0.43 5.871,0.431c19.606,0 36.82,-14.402 39.753,-34.365c3.223,-21.934 -11.999,-42.401 -33.933,-45.624c-1.973,-0.29 -3.935,-0.431 -5.872,-0.431Zm0.112,80.868c-1.99,0 -3.991,-0.145 -5.996,-0.439c-10.742,-1.579 -20.227,-7.247 -26.708,-15.959c-6.48,-8.713 -9.179,-19.427 -7.6,-30.17c1.578,-10.743 7.246,-20.228 15.958,-26.708c8.713,-6.48 19.428,-9.178 30.17,-7.601c10.743,1.579 20.228,7.247 26.708,15.959c6.48,8.713 9.179,19.427 7.6,30.17c-1.578,10.742 -7.245,20.227 -15.958,26.708c-7.087,5.271 -15.5,8.04 -24.174,8.04Z" style="fill:#371a45;fill-rule:nonzero;"/><path d="M1705.35,171.892c-1.888,0 -3.802,-0.137 -5.724,-0.42c-9.468,-1.391 -17.924,-6.078 -24.078,-13.289c5.868,4.502 14.856,9.17 24.836,10.392c2.199,0.269 4.384,0.392 6.53,0.392c7.579,0 14.649,-1.538 20.032,-3.603c-6.266,4.151 -13.735,6.528 -21.596,6.528Z" style="fill:#cdc6d0;fill-rule:nonzero;"/><path d="M1705.3,93.502c-19.111,0 -35.89,14.039 -38.749,33.497c-1.523,10.357 1.08,20.687 7.327,29.087c6.247,8.4 15.392,13.864 25.749,15.386c1.922,0.283 3.836,0.42 5.724,0.42c19.111,0.001 35.89,-14.039 38.749,-33.497c3.142,-21.381 -11.696,-41.332 -33.077,-44.473c-1.922,-0.283 -3.835,-0.42 -5.723,-0.42Zm0.052,80.863c-2.008,0 -4.039,-0.146 -6.084,-0.446c-11.011,-1.618 -20.733,-7.427 -27.374,-16.357c-6.642,-8.93 -9.409,-19.911 -7.791,-30.923c3.34,-22.729 24.55,-38.502 47.279,-35.164c22.73,3.34 38.505,24.549 35.165,47.279c-3.039,20.685 -20.879,35.611 -41.195,35.611Z" style="fill:#371a45;fill-rule:nonzero;"/><path d="M1745.05,139.583c-1.032,7.844 -4.536,14.791 -9.683,20.243c-3.859,4.088 -18.319,10.228 -34.91,8.196c-15.383,-1.882 -28.286,-11.914 -30.956,-16.86c-3.562,-6.598 -5.15,-14.216 -4.118,-22.059c2.73,-20.756 21.695,-27.015 43.696,-24.121c22,2.894 38.701,13.845 35.971,34.601Z" style="fill:#f58600;fill-rule:nonzero;"/><path d="M1699.36,104.872c-7.417,0 -13.914,1.281 -19.112,3.802c-8.233,3.991 -13.049,10.889 -14.313,20.502c-0.983,7.474 0.419,14.985 4.056,21.722c2.589,4.796 15.359,14.715 30.535,16.573c16.808,2.057 30.939,-4.319 34.437,-8.026c5.256,-5.567 8.553,-12.46 9.537,-19.935l0.551,0.073l-0.551,-0.073c1.264,-9.612 -1.604,-17.52 -8.524,-23.506c-6.178,-5.342 -15.503,-8.963 -26.969,-10.471c-3.355,-0.441 -6.58,-0.661 -9.647,-0.661Zm7.561,64.095c-2.146,0 -4.331,-0.123 -6.53,-0.392c-15.551,-1.904 -28.694,-12.176 -31.379,-17.149c-3.748,-6.944 -5.194,-14.688 -4.18,-22.396c1.317,-10.006 6.34,-17.192 14.931,-21.357c7.545,-3.658 17.708,-4.779 29.39,-3.242c11.681,1.536 21.208,5.248 27.55,10.732c7.222,6.246 10.216,14.486 8.899,24.493c-1.014,7.707 -4.413,14.814 -9.83,20.552c-3.783,4.007 -15.53,8.759 -28.851,8.759Z" style="fill:#371a45;fill-rule:nonzero;"/><path d="M1731.47,142.057c-0.398,0 -0.793,-0.06 -1.178,-0.183c-2.727,-0.874 -3.96,-4.633 -2.754,-8.395c1.035,-3.231 3.531,-5.414 5.942,-5.414c0.397,0 0.792,0.059 1.178,0.182c2.204,0.706 3.431,3.296 3.185,6.25c-0.53,1.696 -1.155,3.346 -1.868,4.948c-1.228,1.627 -2.886,2.612 -4.505,2.612Z" style="fill:#9b8da2;fill-rule:nonzero;"/><path d="M1723.98,151.486c-0.367,0 -0.733,-0.078 -1.076,-0.244c-1.402,-0.675 -1.901,-2.547 -1.114,-4.181c0.594,-1.234 1.752,-1.98 2.887,-1.98c0.368,0 0.733,0.079 1.076,0.244c1.402,0.674 1.902,2.547 1.115,4.181c-0.594,1.234 -1.752,1.98 -2.888,1.98Z" style="fill:#9b8da2;fill-rule:nonzero;"/><path d="M1707.1,167.87c-2.134,0 -4.334,-0.124 -6.581,-0.399c-5.248,-0.643 -10.207,-2.248 -14.557,-4.273c1.82,0.14 3.618,0.207 5.382,0.207c17.389,0 31.665,-6.426 35.897,-10.91c3.603,-3.815 6.571,-8.208 8.728,-13.05c0.6,-0.794 1.097,-1.743 1.437,-2.803c0.231,-0.722 0.372,-1.444 0.431,-2.145c0.773,-2.474 1.344,-5.043 1.692,-7.693c0.306,-2.314 0.418,-4.532 0.355,-6.656c4.051,5.336 5.601,11.825 4.609,19.362l0.551,0.073l-0.551,-0.073c-0.984,7.475 -4.281,14.368 -9.537,19.935c-3.031,3.211 -14.04,8.425 -27.856,8.425Z" style="fill:#a65b00;fill-rule:nonzero;"/><path d="M1707.07,168.424c-2.152,0 -4.365,-0.125 -6.616,-0.4c-5.859,-0.715 -11.355,-2.615 -16.067,-4.967c0.528,0.053 1.054,0.1 1.578,0.141c4.35,2.025 9.309,3.63 14.557,4.273c2.247,0.275 4.447,0.399 6.581,0.399c13.816,0 24.825,-5.214 27.856,-8.425c5.256,-5.567 8.553,-12.46 9.537,-19.935l0.551,0.073c-1.033,7.845 -4.538,14.791 -9.682,20.243c-3.336,3.533 -14.59,8.598 -28.295,8.598Zm37.977,-28.841l-0.551,-0.073c0.992,-7.537 -0.558,-14.026 -4.609,-19.362c-0.01,-0.318 -0.023,-0.634 -0.04,-0.948c4.258,5.287 6.295,12.045 5.2,20.382l0,0.001Z" style="fill:#2a1a3b;fill-rule:nonzero;"/><path d="M1735.97,139.445c0.713,-1.602 1.338,-3.252 1.868,-4.948c-0.059,0.701 -0.2,1.423 -0.431,2.145c-0.34,1.06 -0.837,2.009 -1.437,2.803Z" style="fill:#6b6577;fill-rule:nonzero;"/><path d="M1670.67,111.756l0.037,0.042l-0.037,-0.042Zm72.529,9.931l-0.099,-0.106l-0.073,-0.134c-5.494,-10.332 -17.804,-17.462 -33.774,-19.564c-16.056,-2.111 -29.802,1.77 -37.711,10.65l-0.107,0.106c-0.464,0.402 -1.166,0.351 -1.569,-0.112c-0.38,-0.439 -0.356,-1.091 0.041,-1.501c8.41,-9.419 22.853,-13.554 39.637,-11.347c16.691,2.196 29.61,9.749 35.446,20.724l-0.977,0.527l-0.814,0.757Z" style="fill:#371a45;fill-rule:nonzero;"/><path d="M1672.7,142.628c0,0 -3.735,-21.322 8.374,-28.03c6.687,-3.705 14.522,-4.717 20.112,-4.717c4.533,0 7.59,0.665 7.364,1.099c0,0 -18.136,1.943 -26.842,14.934c-6.713,10.018 -9.008,16.714 -9.008,16.714Z" style="fill:#9b8da2;fill-rule:nonzero;"/><path d="M1703.48,242.062c0,0 -24.343,2.758 -35.162,-6.539c-14.783,-12.701 -2.107,-28.618 8.873,-24.378c9.561,3.691 13.493,6.595 30.474,9.378c14.229,2.332 26.451,16.94 16.241,25.419c-7.208,5.987 -20.426,-3.88 -20.426,-3.88Z" style="fill:#fff;fill-rule:nonzero;"/><path d="M1718.11,246.642c-4.417,0 -9.396,-2.683 -12.029,-4.325c0.23,-0.162 0.355,-0.255 0.355,-0.255c0,0 3.375,0.382 8.17,0.382c3.26,0 7.175,-0.176 11.133,-0.769c-0.552,1.208 -1.431,2.321 -2.628,3.316c-1.433,1.189 -3.169,1.651 -5.001,1.651Zm-37.129,-6.807c-4.496,-0.976 -8.781,-2.601 -11.863,-5.25c-3.341,-2.87 -5.141,-5.848 -5.871,-8.648c0.311,0.295 0.636,0.589 0.977,0.881c4.846,4.164 12.405,5.91 19.273,6.568c-0.882,1.823 -1.337,3.696 -1.253,5.518c-0.395,0.337 -0.814,0.648 -1.263,0.931Z" style="fill:#cdc6d0;fill-rule:nonzero;"/><path d="M1703.82,240.778l0.392,0.292c0.124,0.092 12.523,9.214 18.898,3.921c2.892,-2.402 3.925,-5.499 2.987,-8.954c-1.793,-6.596 -9.98,-12.875 -18.639,-14.294c-13.389,-2.194 -18.797,-4.481 -25.06,-7.128c-1.756,-0.743 -3.572,-1.511 -5.659,-2.316c-4.437,-1.715 -9.605,0.298 -12.289,4.783c-2.577,4.308 -2.705,11.169 4.667,17.503c10.291,8.843 33.978,6.274 34.216,6.247l0.487,-0.054Zm14.317,8.332c-6.391,0 -13.266,-4.544 -15.005,-5.77c-3.603,0.352 -25.249,2.039 -35.627,-6.879c-8.537,-7.335 -8.272,-15.477 -5.177,-20.649c3.303,-5.521 9.739,-7.969 15.303,-5.821c2.122,0.82 3.956,1.596 5.73,2.346c6.117,2.585 11.4,4.819 24.496,6.965c9.54,1.564 18.601,8.63 20.626,16.087c1.195,4.395 -0.153,8.481 -3.794,11.504c-1.935,1.607 -4.211,2.217 -6.552,2.217Z" style="fill:#371a45;fill-rule:nonzero;"/><path d="M1680.74,241.974c-0.332,0 -0.652,-0.178 -0.819,-0.491c-0.24,-0.451 -0.069,-1.013 0.382,-1.253c10.07,-5.368 7.223,-24.173 7.193,-24.363c-0.08,-0.504 0.265,-0.98 0.771,-1.059c0.506,-0.081 0.98,0.265 1.06,0.77c0.13,0.827 3.069,20.306 -8.152,26.287c-0.139,0.074 -0.288,0.109 -0.435,0.109Z" style="fill:#371a45;fill-rule:nonzero;"/><path d="M1706.44,242.062c0,0 24.343,2.758 35.162,-6.539c14.783,-12.701 2.108,-28.618 -8.873,-24.378c-9.561,3.691 -13.492,6.595 -30.474,9.378c-14.229,2.332 -26.451,16.94 -16.241,25.419c7.209,5.987 20.426,-3.88 20.426,-3.88Z" style="fill:#fff;fill-rule:nonzero;"/><path d="M1691.78,247.87c-2.087,0 -4.09,-0.534 -5.768,-1.928c-1.017,-0.844 -1.811,-1.75 -2.403,-2.698c0.592,0.948 1.387,1.854 2.404,2.698c1.677,1.394 3.681,1.928 5.767,1.928c0.518,0 1.042,-0.033 1.567,-0.094l-0.001,0c-0.525,0.061 -1.048,0.094 -1.566,0.094Z" style="fill:#a79bad;fill-rule:nonzero;"/><path d="M1693.34,247.776l0.001,0c3.92,-0.455 7.919,-2.474 10.449,-3.984l0.001,0c-2.53,1.51 -6.529,3.529 -10.451,3.984Z" style="fill:#371a45;fill-rule:nonzero;"/><path d="M1683.61,243.244c-0.002,-0.004 -0.005,-0.008 -0.007,-0.013c0.002,0.005 0.005,0.009 0.007,0.013Zm-0.011,-0.018c-0.002,-0.004 -0.005,-0.008 -0.007,-0.012c0.002,0.005 0.005,0.008 0.007,0.012Zm-0.016,-0.026c-0.001,-0.001 -0.002,-0.003 -0.003,-0.004c0.001,0.001 0.002,0.003 0.003,0.004Zm-0.012,-0.019c0,-0.001 -0.001,-0.002 -0.001,-0.002c0,0 0.001,0.001 0.001,0.002Zm44.979,-2.001l0.001,0c4.902,-1 9.646,-2.731 13.051,-5.657c0.23,-0.197 0.453,-0.396 0.67,-0.595c-0.217,0.199 -0.44,0.398 -0.671,0.596c-3.404,2.925 -8.148,4.657 -13.051,5.656Zm13.733,-6.261c0.001,-0.003 0.003,-0.004 0.005,-0.006c-0.002,0.002 -0.004,0.003 -0.005,0.006Z" style="fill:#a79bad;fill-rule:nonzero;"/><path d="M1714.61,242.444c-4.795,0 -8.17,-0.382 -8.17,-0.382c0,0 -0.125,0.093 -0.355,0.255c-0.001,0 -0.002,0 -0.002,-0.001c0.231,-0.162 0.355,-0.254 0.355,-0.254c0,0 3.377,0.382 8.173,0.382c3.259,0 7.174,-0.176 11.132,-0.77l0,0.001c-3.958,0.593 -7.873,0.769 -11.133,0.769Z" style="fill:#a79bad;fill-rule:nonzero;"/><path d="M1703.79,243.792l-0.001,0c1.058,-0.632 1.858,-1.174 2.288,-1.476c0,0.001 0.001,0.001 0.002,0.001c-0.431,0.301 -1.232,0.844 -2.289,1.475Zm21.947,-2.117l0,-0.001c0.936,-0.14 1.873,-0.304 2.806,-0.494l-0.001,0c-0.932,0.191 -1.87,0.354 -2.805,0.495Z" style="fill:#371a45;fill-rule:nonzero;"/><path d="M1691.78,247.87c-2.086,0 -4.09,-0.534 -5.767,-1.928c-1.017,-0.844 -1.812,-1.75 -2.404,-2.698c-0.002,-0.004 -0.005,-0.008 -0.007,-0.013c-0.002,-0.001 -0.003,-0.003 -0.004,-0.005c-0.002,-0.004 -0.005,-0.007 -0.007,-0.012c-0.003,-0.004 -0.006,-0.009 -0.009,-0.014c-0.001,-0.001 -0.002,-0.003 -0.003,-0.004c-0.003,-0.006 -0.006,-0.011 -0.009,-0.015c0,-0.001 -0.001,-0.002 -0.001,-0.002c-1.411,-2.301 -1.638,-4.849 -0.965,-7.385c0.521,1.762 1.032,4.471 2.869,5.897c2.297,1.783 4.695,2.511 6.991,2.511c3.3,0 6.39,-1.502 8.678,-3.531c2.946,-2.613 2.465,-4.752 4.356,-5.815c0.251,-0.142 0.515,-0.205 0.796,-0.205c2.089,0 5.118,3.462 10.956,3.766c0.964,0.049 1.906,0.074 2.823,0.074c10.925,0 18.444,-3.434 22.142,-7.213c3.487,-3.561 5.149,-7.687 5.825,-10.965c0.937,4.415 -0.441,9.714 -5.753,14.6c-0.002,0.002 -0.004,0.003 -0.005,0.006c-0.004,0.003 -0.007,0.006 -0.011,0.009c-0.217,0.199 -0.44,0.398 -0.67,0.595c-3.405,2.926 -8.149,4.657 -13.051,5.657c-0.933,0.19 -1.87,0.354 -2.806,0.494c-3.958,0.594 -7.873,0.77 -11.132,0.77c-4.796,0 -8.173,-0.382 -8.173,-0.382c0,0 -0.124,0.092 -0.355,0.254c-0.43,0.302 -1.23,0.844 -2.288,1.476c-2.53,1.51 -6.529,3.529 -10.449,3.984c-0.525,0.061 -1.049,0.094 -1.567,0.094Z" style="fill:#cdc6d0;fill-rule:nonzero;"/><path d="M1736.44,211.691c-1.103,0 -2.208,0.197 -3.271,0.608c-2.087,0.805 -3.903,1.573 -5.659,2.316c-6.263,2.647 -11.671,4.934 -25.06,7.128c-8.659,1.419 -16.847,7.698 -18.638,14.294c-0.939,3.455 0.094,6.552 2.987,8.954c6.374,5.293 18.773,-3.829 18.897,-3.921l0.392,-0.292l0.487,0.054c0.238,0.027 23.934,2.588 34.216,-6.247c7.372,-6.334 7.244,-13.195 4.667,-17.503c-2.04,-3.41 -5.518,-5.391 -9.018,-5.391Zm-44.668,37.419c-2.343,0 -4.618,-0.61 -6.553,-2.217c-3.641,-3.023 -4.988,-7.109 -3.794,-11.504c2.026,-7.457 11.086,-14.523 20.626,-16.087c13.096,-2.146 18.379,-4.38 24.496,-6.965c1.774,-0.75 3.608,-1.526 5.731,-2.346c5.563,-2.148 11.999,0.3 15.302,5.821c3.095,5.172 3.36,13.314 -5.177,20.649c-10.379,8.918 -32.023,7.231 -35.627,6.879c-1.739,1.226 -8.615,5.77 -15.004,5.77Z" style="fill:#371a45;fill-rule:nonzero;"/><path d="M1729.17,241.974c-0.147,0 -0.296,-0.035 -0.435,-0.109c-11.221,-5.981 -8.282,-25.46 -8.152,-26.287c0.08,-0.505 0.555,-0.848 1.06,-0.77c0.505,0.079 0.851,0.554 0.771,1.059c-0.029,0.19 -2.865,19.002 7.193,24.363c0.452,0.24 0.622,0.802 0.381,1.253c-0.166,0.313 -0.487,0.491 -0.818,0.491Z" style="fill:#371a45;fill-rule:nonzero;"/><path d="M1620.34,310.064c0.035,0.367 -0.685,0.758 -1.791,1.041c-0.558,0.143 -0.962,0.632 -0.997,1.206c-0.069,1.14 -0.317,1.921 -0.683,1.956c-0.366,0.035 -0.758,-0.686 -1.041,-1.791c-0.142,-0.558 -0.631,-0.962 -1.207,-0.996c-1.139,-0.07 -1.922,-0.318 -1.957,-0.684c-0.036,-0.369 0.686,-0.76 1.792,-1.042c0.559,-0.142 0.963,-0.632 0.998,-1.207c0.069,-1.14 0.317,-1.922 0.683,-1.957c0.367,-0.035 0.758,0.686 1.041,1.793c0.143,0.558 0.632,0.962 1.208,0.997c1.138,0.068 1.919,0.316 1.954,0.684Z" style="fill:#f58600;fill-rule:nonzero;"/><path d="M1637.09,90.502c0.035,0.366 -0.686,0.758 -1.791,1.041c-0.558,0.142 -0.962,0.631 -0.997,1.206c-0.069,1.139 -0.317,1.921 -0.683,1.956c-0.367,0.035 -0.758,-0.686 -1.041,-1.792c-0.143,-0.558 -0.632,-0.961 -1.207,-0.996c-1.139,-0.069 -1.923,-0.317 -1.958,-0.684c-0.035,-0.368 0.687,-0.76 1.793,-1.041c0.559,-0.143 0.963,-0.632 0.997,-1.208c0.069,-1.14 0.318,-1.921 0.684,-1.956c0.367,-0.035 0.757,0.686 1.041,1.792c0.143,0.559 0.632,0.963 1.208,0.997c1.138,0.068 1.919,0.317 1.954,0.685Z" style="fill:#f58600;fill-rule:nonzero;"/><path d="M1602.45,201.594c0.014,0.255 -0.495,0.507 -1.269,0.673c-0.39,0.084 -0.683,0.413 -0.722,0.81c-0.079,0.786 -0.271,1.322 -0.526,1.336c-0.255,0.015 -0.507,-0.496 -0.673,-1.269c-0.084,-0.39 -0.412,-0.683 -0.809,-0.722c-0.788,-0.078 -1.324,-0.271 -1.338,-0.526c-0.015,-0.256 0.496,-0.508 1.269,-0.674c0.391,-0.084 0.684,-0.412 0.724,-0.809c0.078,-0.788 0.271,-1.323 0.525,-1.337c0.255,-0.015 0.507,0.495 0.673,1.269c0.084,0.391 0.413,0.684 0.811,0.723c0.786,0.077 1.321,0.271 1.335,0.526Z" style="fill:#f58600;fill-rule:nonzero;"/><path d="M1775.97,92.347c0,0.416 -0.853,0.778 -2.125,0.978c-0.642,0.101 -1.149,0.607 -1.25,1.249c-0.199,1.273 -0.561,2.125 -0.977,2.125c-0.415,0 -0.778,-0.852 -0.977,-2.125c-0.101,-0.642 -0.607,-1.148 -1.25,-1.249c-1.274,-0.2 -2.127,-0.562 -2.127,-0.978c0,-0.418 0.853,-0.781 2.125,-0.979c0.644,-0.1 1.151,-0.606 1.252,-1.25c0.199,-1.274 0.562,-2.126 0.977,-2.126c0.416,0 0.778,0.852 0.977,2.126c0.101,0.644 0.608,1.15 1.252,1.25c1.271,0.198 2.123,0.561 2.123,0.979Z" style="fill:#f58600;fill-rule:nonzero;"/><path d="M1784.36,208.499c0,0.75 -0.608,1.358 -1.358,1.358c-0.751,0 -1.359,-0.608 -1.359,-1.358c0,-0.751 0.608,-1.359 1.359,-1.359c0.75,0 1.358,0.608 1.358,1.359Z" style="fill:#f58600;fill-rule:nonzero;"/><path d="M1799.97,230.287c0.042,0.747 -0.529,1.387 -1.276,1.429c-0.748,0.043 -1.388,-0.529 -1.43,-1.276c-0.042,-0.748 0.529,-1.388 1.276,-1.43c0.748,-0.042 1.388,0.529 1.43,1.277Z" style="fill:#f58600;fill-rule:nonzero;"/><path d="M1766.78,307.593c0.16,0.876 -0.42,1.715 -1.295,1.875c-0.876,0.16 -1.715,-0.42 -1.875,-1.295c-0.16,-0.876 0.419,-1.715 1.295,-1.875c0.875,-0.16 1.714,0.42 1.875,1.295Z" style="fill:#f58600;fill-rule:nonzero;"/><path d="M1589.99,158.247c0.013,0.889 -0.698,1.621 -1.588,1.633c-0.89,0.013 -1.621,-0.698 -1.634,-1.588c-0.013,-0.89 0.699,-1.621 1.588,-1.634c0.89,-0.013 1.622,0.698 1.634,1.589Z" style="fill:#f58600;fill-rule:nonzero;"/><path d="M1800.64,143.703c0,0.75 -0.607,1.359 -1.358,1.359c-0.75,0 -1.359,-0.609 -1.359,-1.359c0,-0.751 0.609,-1.359 1.359,-1.359c0.751,0 1.358,0.608 1.358,1.359Z" style="fill:#f58600;fill-rule:nonzero;"/><path d="M1600.04,108.527c0.012,0.89 -0.699,1.621 -1.589,1.634c-0.889,0.012 -1.621,-0.699 -1.633,-1.588c-0.013,-0.89 0.698,-1.622 1.588,-1.634c0.889,-0.013 1.621,0.698 1.634,1.588Z" style="fill:#f58600;fill-rule:nonzero;"/><path d="M1585.89,292.218c0.08,0.839 -0.536,1.584 -1.375,1.664c-0.839,0.08 -1.584,-0.535 -1.664,-1.374c-0.08,-0.84 0.536,-1.584 1.375,-1.665c0.839,-0.08 1.584,0.536 1.664,1.375Z" style="fill:#f58600;fill-rule:nonzero;"/><path d="M1802.97,106.688c0,0.386 -0.313,0.698 -0.698,0.698c-0.386,0 -0.699,-0.312 -0.699,-0.698c0,-0.386 0.313,-0.699 0.699,-0.699c0.385,0 0.698,0.313 0.698,0.699Z" style="fill:#f58600;fill-rule:nonzero;"/><path d="M1792.03,289.692c0.083,0.449 -0.215,0.881 -0.665,0.964c-0.451,0.081 -0.882,-0.217 -0.965,-0.666c-0.082,-0.45 0.216,-0.883 0.667,-0.965c0.45,-0.082 0.881,0.217 0.963,0.667Z" style="fill:#f58600;fill-rule:nonzero;"/><path d="M1621.28,130.546c0.007,0.458 -0.358,0.833 -0.816,0.84c-0.458,0.007 -0.834,-0.359 -0.84,-0.817c-0.007,-0.457 0.358,-0.834 0.817,-0.84c0.457,-0.006 0.833,0.359 0.839,0.817Z" style="fill:#f58600;fill-rule:nonzero;"/><path d="M1635.93,205.962c0.006,0.457 -0.359,0.833 -0.817,0.84c-0.457,0.006 -0.834,-0.359 -0.84,-0.817c-0.007,-0.457 0.359,-0.834 0.817,-0.84c0.457,-0.007 0.833,0.359 0.84,0.817Z" style="fill:#f58600;fill-rule:nonzero;"/><path d="M1586.6,229.074c0,0.843 -0.683,1.526 -1.526,1.526c-0.843,0 -1.526,-0.683 -1.526,-1.526c0,-0.843 0.683,-1.526 1.526,-1.526c0.843,0 1.526,0.683 1.526,1.526Z" style="fill:#f58600;fill-rule:nonzero;"/></g></g></g><defs><linearGradient id="_Linear2" x1="0" y1="0" x2="1" y2="0" gradientUnits="userSpaceOnUse" gradientTransform="matrix(4.19197e-14,684.6,-684.6,4.19197e-14,956.061,-1)"><stop offset="0" style="stop-color:#fff;stop-opacity:1"/><stop offset="1" style="stop-color:#e2f1ff;stop-opacity:1"/></linearGradient></defs></svg>