<?xml version="1.0" encoding="UTF-8" standalone="no"?><!DOCTYPE svg PUBLIC "-//W3C//DTD SVG 1.1//EN" "http://www.w3.org/Graphics/SVG/1.1/DTD/svg11.dtd"><svg width="100%" height="100%" viewBox="0 0 1915 852" version="1.1" xmlns="http://www.w3.org/2000/svg" xmlns:xlink="http://www.w3.org/1999/xlink" xml:space="preserve" xmlns:serif="http://www.serif.com/" style="fill-rule:evenodd;clip-rule:evenodd;stroke-linejoin:round;stroke-miterlimit:2;"><rect id="Tavola-da-disegno2" serif:id="Tavola da disegno2" x="0" y="0" width="1914.86" height="851.79" style="fill:none;"/><clipPath id="_clip1"><rect x="0" y="0" width="1914.86" height="851.79"/></clipPath><g clip-path="url(#_clip1)"><rect id="Tavola-da-disegno1" serif:id="Tavola da disegno1" x="1" y="-2" width="1915.48" height="853.68" style="fill:none;"/><g><path id="Tracciato_1" d="M-3.494,851.79l1920,-178.053l0,-675.724l-1920,0l0,853.777Z" style="fill:url(#_Linear2);fill-rule:nonzero;"/><path id="Tracciato_847" d="M263.633,387.37l-71.68,-14.4c4.686,-4.667 7.362,-10.988 7.452,-17.6c0,-15.787 -15.713,-28.584 -35.1,-28.584c-10.727,0 -20.324,3.924 -26.762,10.1c-2.756,-20.509 -24.085,-36.468 -50,-36.468c-3.224,0.001 -6.444,0.254 -9.629,0.758c-6.485,-30.334 -38.975,-53.398 -78.084,-53.398c-41.058,0 -74.825,25.424 -78.865,58c-7.794,-3.562 -16.27,-5.386 -24.839,-5.347c-27.785,0 -50.308,18.344 -50.308,40.974c0.005,3.161 0.452,6.305 1.329,9.342c-1.671,-0.325 -3.369,-0.488 -5.071,-0.488c-12.037,0 -21.8,7.948 -21.8,17.751c0.001,1.244 0.16,2.484 0.474,3.688l-81.847,15.672l524.73,0Z" style="fill:#e2f1ff;fill-rule:nonzero;"/><path id="Tracciato_848" d="M2015.71,312.118l-34.772,-6.983c2.273,-2.263 3.571,-5.329 3.615,-8.537c0,-7.658 -7.622,-13.866 -17.025,-13.866c-4.793,-0.085 -9.441,1.67 -12.982,4.9c-1.337,-9.948 -11.685,-17.69 -24.255,-17.69c-1.564,0.001 -3.126,0.124 -4.671,0.368c-3.148,-14.718 -18.91,-25.91 -37.881,-25.91c-9.198,-0.105 -18.197,2.706 -25.7,8.027c-9.463,-5.373 -20.183,-8.143 -31.064,-8.027c-27.824,0 -50.377,16.9 -50.377,37.749c-0.136,4.776 1.348,9.46 4.208,13.286l-84.108,16.683l315.012,0Z" style="fill:#e2f1ff;fill-rule:nonzero;"/><path id="Tracciato_849" d="M1732.35,220.462l-137.1,0l21.618,-5.273c-0.078,-0.431 -0.118,-0.868 -0.119,-1.306c0,-5.4 5.874,-9.778 13.12,-9.778c1.863,-0.006 3.714,0.296 5.479,0.894c2.787,-9.367 14.002,-16.374 27.402,-16.374c11.723,0 21.762,5.35 25.967,12.952c1.261,-0.359 2.55,-0.611 3.854,-0.754c9.679,-1.072 18.179,3.902 18.979,11.118c0.13,1.198 0.045,2.41 -0.253,3.577l21.053,4.944Z" style="fill:#e2f1ff;fill-rule:nonzero;"/></g><clipPath id="_clip3"><rect x="1409.04" y="496.104" width="299.492" height="354.542"/></clipPath><g clip-path="url(#_clip3)"><g id="Raggruppa_221"><g id="Raggruppa_221-2"><path id="Tracciato_473" d="M1433.47,559.11c0,1.004 0.826,1.831 1.831,1.831c1.004,0 1.83,-0.827 1.83,-1.83l0,-0.002c0,-1.004 -0.826,-1.83 -1.83,-1.83c-1.005,0 -1.831,0.826 -1.831,1.831Z" style="fill:#bababa;fill-rule:nonzero;"/><path id="Tracciato_474" d="M1441.52,556.355l0,1.03c0,0.952 -1.059,1.725 -2.364,1.725l-7.433,0c-1.305,0 -2.364,-0.773 -2.364,-1.725l0,-1.03l12.161,0Z" style="fill:#bababa;fill-rule:nonzero;"/><path id="Tracciato_475" d="M1441.56,550.54c0,-9.053 5.508,-10.511 5.508,-17.907c-0.003,-6.417 -5.284,-11.695 -11.7,-11.695c-6.415,0.002 -11.693,5.28 -11.695,11.695c0,5.575 5.619,9.873 5.619,18.085l12.268,-0.178Z" style="fill:#ffd400;fill-rule:nonzero;"/><path id="Tracciato_476" d="M1440.37,543.385c0.7,-4.845 2.606,-10.8 0.948,-15.447c-1.457,-4.081 -4.081,-5.611 -9.747,-6.358c1.225,-0.423 2.512,-0.638 3.808,-0.638c6.414,0.002 11.692,5.28 11.695,11.695c0,7.4 -5.507,8.854 -5.507,17.907l-7.171,0.143c0.707,-0.631 5.127,-1.4 5.974,-7.302Z" style="fill:#ffb700;fill-rule:nonzero;"/><path id="Tracciato_477" d="M1424.99,532.272c0,3.642 2.979,10.237 5.756,10.237c2.777,0 4.3,-6.6 4.3,-10.237c0,-3.637 -1.231,-8.779 -4.008,-8.779c-2.777,0 -6.048,5.133 -6.048,8.779Z" style="fill:#fff;fill-rule:nonzero;"/><path id="Tracciato_478" d="M1442.26,551.245c0,0.493 -0.407,0.9 -0.9,0.9l-11.967,0c-0.494,0 -0.9,-0.407 -0.9,-0.9c0,-0.494 0.406,-0.9 0.9,-0.9l11.967,0c0.493,0 0.9,0.406 0.9,0.9Z" style="fill:#bababa;fill-rule:nonzero;"/><path id="Tracciato_479" d="M1442.25,551.364c-0.058,0.445 -0.441,0.782 -0.89,0.784l-11.967,0c-0.45,-0.002 -0.832,-0.339 -0.89,-0.784l13.747,0Z" style="fill:#bababa;fill-rule:nonzero;"/><path id="Tracciato_480" d="M1429.26,550.799c0,0.129 0.106,0.236 0.236,0.237l11.622,0c0.129,-0.001 0.236,-0.108 0.237,-0.237c-0.001,-0.13 -0.108,-0.236 -0.237,-0.236l-11.622,0c-0.13,0 -0.236,0.106 -0.236,0.236Z" style="fill:#fff;fill-rule:nonzero;"/><rect id="Rettangolo_100" x="1429.39" y="552.147" width="12.132" height="3.579" style="fill:#bababa;"/><path id="Tracciato_481" d="M1442.24,553.087c0.003,0.032 0.005,0.065 0.005,0.098c0,0.458 -0.35,0.846 -0.805,0.895l-11.9,1.287c-0.033,0.003 -0.066,0.005 -0.098,0.005c-0.458,0 -0.847,-0.35 -0.895,-0.805c-0.004,-0.033 -0.006,-0.066 -0.006,-0.099c0,-0.459 0.35,-0.847 0.806,-0.895l11.9,-1.287c0.032,-0.004 0.065,-0.006 0.098,-0.006c0.458,0 0.846,0.35 0.895,0.806l0,0.001Z" style="fill:#bababa;fill-rule:nonzero;"/><path id="Tracciato_482" d="M1442.24,553.206c-0.011,0.448 -0.355,0.824 -0.8,0.874l-11.9,1.287c-0.446,0.046 -0.863,-0.248 -0.968,-0.683l13.668,-1.478Z" style="fill:#bababa;fill-rule:nonzero;"/><path id="Tracciato_483" d="M1429.26,554.04c0.013,0.129 0.13,0.224 0.26,0.211l11.555,-1.249c0.129,-0.015 0.223,-0.132 0.21,-0.261c-0.013,-0.12 -0.115,-0.212 -0.235,-0.212c-0.009,0 -0.018,0.001 -0.026,0.002l-11.555,1.248c-0.129,0.014 -0.223,0.132 -0.209,0.261Z" style="fill:#fff;fill-rule:nonzero;"/><path id="Tracciato_484" d="M1442.26,556.369c0,0.493 -0.407,0.9 -0.9,0.9l-11.967,0c-0.494,0 -0.9,-0.407 -0.9,-0.9c0,-0.494 0.406,-0.9 0.9,-0.9l11.967,0c0.493,0 0.9,0.406 0.9,0.9Z" style="fill:#bababa;fill-rule:nonzero;"/><path id="Tracciato_485" d="M1442.25,556.487c-0.059,0.445 -0.442,0.781 -0.89,0.783l-11.967,0c-0.449,-0.002 -0.832,-0.338 -0.89,-0.783l13.747,0Z" style="fill:#bababa;fill-rule:nonzero;"/><path id="Tracciato_486" d="M1429.26,555.922c0,0.129 0.106,0.236 0.236,0.237l11.622,0c0.129,-0.001 0.236,-0.108 0.237,-0.237c-0.001,-0.13 -0.108,-0.237 -0.237,-0.237l-11.622,0c-0.13,0 -0.236,0.107 -0.236,0.237Z" style="fill:#fff;fill-rule:nonzero;"/></g><g id="Raggruppa_222"><path id="Tracciato_487" d="M1608.44,585.948c13.09,21.094 40.555,66.145 57.845,82.21c15.577,14.474 34.785,27.618 40.139,30.693c-1.234,12.493 -2.218,23.883 -6.239,28.256c-11.285,-3.242 -47.592,-8.052 -50.164,8.36c-0.614,3.923 0.7,9.058 4.739,15.715c-5.017,6.512 -17.118,15.241 -34.789,16.68c-5.563,-0.667 -13.007,-3.328 -20.05,-7.445c-12.672,-7.407 -36.253,-17.595 -43.145,-22.373c-6.532,-30.285 4.75,-66.806 -1.781,-97.091c-5.938,-22.566 -16.219,-48.027 -22.158,-70.592c26.409,-7.934 59.924,-1.508 75.603,15.587Z" style="fill:#d1d2d2;"/><path id="Tracciato_488" d="M1655,751.727c-16.763,-33.991 -33.457,-80.274 -48.212,-115.687c5.345,35.556 16.7,94.271 16.924,131.386c11.288,-1.6 22.414,-6.266 31.288,-15.699Z" style="fill:#babcbd;"/><path id="Tracciato_489" d="M1699.72,726.975c-11.786,-3.237 -47.155,-7.7 -49.693,8.491c-0.317,2.58 -0.017,5.199 0.874,7.641c-16.034,-34.663 -35.2,-87.182 -48.779,-119.76c-1.143,-11.256 2.575,-32.646 11.405,-23.947c23.07,47.118 70.441,95.45 86.194,127.574l-0.001,0.001Zm-45.078,24l0.124,0.2l-0.014,0.019l-0.11,-0.219Z" style="fill:#d1d2d2;"/><path id="Tracciato_490" d="M1608.44,585.948c13.09,21.094 40.555,66.145 57.845,82.21c15.577,14.474 34.784,27.618 40.139,30.693c4.625,18.088 1.069,36.593 -5.146,40.161c-37.333,-48.4 -65.138,-89.777 -94.553,-154.477c0.584,0.47 1.155,0.941 1.715,1.413Z" style="fill:#e7e9e5;"/></g><g id="Raggruppa_223"><path id="Tracciato_491" d="M1464.61,611.127l7.934,-12.051l25.733,-16.605l6.726,-2.664l25.681,17.832l-0.423,14.945c0,0 -13.991,4.523 -18.21,5.858c-17.425,19.144 -37.638,14.319 -55.383,18.658c-3.415,-2.75 -4.8,-3.807 -10.578,-11.65c-1.783,-3.326 -7.819,-18.356 -9.665,-21.968c6.584,-0.635 8.64,-2.541 13.262,-6.65l8.423,5.501l6.5,8.794Z" style="fill:#f58600;fill-rule:nonzero;"/><path id="Tracciato_492" d="M1604.47,582.357c-4.253,-1.843 -14.785,-7.259 -14.785,-7.259l-19.78,-7.018l-12.547,-2.339c0,0 -10.916,1.417 -15.878,1.984c-7.282,3.768 -19.475,3.571 -36.488,12.078l-7.177,10.039c-7.6,12.818 9.06,31.162 9.06,31.162l10.079,16.189l12.334,22.967c0,0 -5.448,22.907 -8.817,38.8c6.805,3.4 63.576,4.313 63.576,4.313l-2.021,-1.01l2.835,-2.411l2.836,-13.044l-5.671,-32.889l13.4,-29.276l2.765,-5.1c1.304,-15.106 8.122,-21.91 6.279,-37.186Z" style="fill:#f58600;fill-rule:nonzero;"/></g><g id="Raggruppa_225"><path id="Tracciato_493" d="M1464.85,610.665l7.933,-12.051l25.733,-16.606l6.726,-2.664l25.681,17.832l-0.423,14.945c0,0 -13.991,4.523 -18.21,5.858c-17.425,19.144 -37.638,14.319 -55.384,18.658c-3.415,-2.75 -4.8,-3.807 -10.577,-11.65c-1.783,-3.326 -7.819,-18.356 -9.665,-21.968c6.584,-0.635 8.641,-2.541 13.262,-6.65l8.427,5.5l6.497,8.796Z" style="fill:#f58600;fill-rule:nonzero;"/><path id="Tracciato_494" d="M1471.8,610.477l-5.478,2.405l-1.462,-1.978l6.023,-9.518l-1.492,6.6l2.409,2.491Z" style="fill:#eb6300;fill-rule:nonzero;"/><path id="Tracciato_495" d="M1510.28,611.444l-3.758,-0.338l-1.907,-4.981l-1.13,7.333l2.553,0.273l4.242,-2.287Z" style="fill:#eb6300;fill-rule:nonzero;"/><g id="Raggruppa_224"><path id="Tracciato_496" d="M1430.38,589.869c1.718,3.82 8.432,19.1 12.4,27.585c1.643,-0.544 3.12,-1.503 4.285,-2.783l-2.854,-3.788l-5.451,-14.721l10.236,16.231c3.178,-4.3 5.408,-10.077 5.757,-12.784l-19.032,-24.059" style="fill:#232d36;fill-rule:nonzero;"/><path id="Tracciato_497" d="M1449,612.392l6.706,9.753l-6.827,-5.074l-1.809,-2.4c0.696,-0.714 1.34,-1.476 1.93,-2.279Z" style="fill:#eb6300;fill-rule:nonzero;"/><path id="Tracciato_498" d="M1438.77,596.161l10.236,16.231c-0.59,0.803 -1.234,1.564 -1.93,2.278l-2.854,-3.788l-5.452,-14.721Z" style="fill:#3b424c;fill-rule:nonzero;"/></g><path id="Tracciato_499" d="M1464.32,629.903l-5.312,1.781l-5.335,-4.924l5.966,2.738l4.681,0.405Z" style="fill:#eb6300;fill-rule:nonzero;"/><path id="Tracciato_500" d="M1524.66,602.204l0.833,-3.973l-1.425,-1.553l-1.968,3.836l2.56,1.69Z" style="fill:#eb6300;fill-rule:nonzero;"/><path id="Tracciato_501" d="M1495.04,616.081l-6.773,7.118l-5.1,0.306l4.526,-2.572l7.347,-4.852Z" style="fill:#eb6300;fill-rule:nonzero;"/></g><path id="Tracciato_502" d="M1636.34,612.192c-5.3,-6.359 -9.325,-9.75 -11.162,-11.87c-0.284,-1.7 -1.449,-4.1 -1.732,-5.512c-3.277,-5.058 -9.362,-9.185 -13.035,-12.293c-1.555,-0.333 -3.321,0 -7.842,-0.848c-6.359,-2.826 -20.589,-9.71 -24.022,-10.739c1.837,15.905 9.466,32.217 15.4,45.784l2.827,1.413l1.7,13.565l13.733,12.054l-4.549,13.805c1.824,4.509 -4.959,11.418 -2.869,15.868l17.988,-6.683c7.791,-4.054 15.093,-8.986 21.762,-14.7c0.425,-5.582 -3.324,-27.127 -8.199,-39.844Z" style="fill:#f58600;fill-rule:nonzero;"/><path id="Tracciato_503" d="M1564.27,695.562l1.936,-11.544l-39.522,-6.825c0,0 -10.6,34.2 -14.414,51.577c0.165,9.213 0.825,18.412 1.978,27.555c-1.342,8.2 -8.751,15.878 -11.975,28.145c1.357,3.357 0.132,20.03 2.959,20.93c5.563,1.774 15.7,-8.441 21.559,-11.392c1.377,-4.498 2.183,-9.151 2.4,-13.849c0.848,-4.806 0.812,-11.681 2.719,-18.041c2.685,-7.207 11.587,-22.044 15.543,-29.957c3.816,-7.631 12.118,-31.558 12.118,-31.558l4.699,-5.041Z" style="fill:#f58600;fill-rule:nonzero;"/><path id="Tracciato_504" d="M1618.53,775.965c-6.28,-8.025 -9.043,-21.479 -9.043,-21.479c-1.2,-7.538 -1.685,-15.172 -1.447,-22.8c-2.12,-6.783 -4.794,-15.632 -7.207,-21.2l-14.493,-36.086l-25.622,8.679l-6.906,17.844c0,0 9.325,17.241 21.761,37.729c5.222,8.6 7.408,12.165 13.283,21.479c3.684,5.976 6.045,12.674 6.923,19.641c0.658,4.521 1.747,8.97 3.25,13.285c7.207,0.423 14.829,1.046 23.635,-0.33c-0.846,-5.927 0.954,-10.262 -4.134,-16.762Z" style="fill:#f58600;fill-rule:nonzero;"/><g id="Raggruppa_226"><path id="Tracciato_505" d="M1547.16,586.501c-8.333,2.474 -11.074,3.556 -12.246,7.127c-0.873,2.663 -1.96,6.759 2,13.583l10.246,-20.71Z" style="fill:#232d36;"/><path id="Tracciato_506" d="M1546.38,586.32c12.114,11.944 9.5,16.943 0,26.627c-0.382,-4.393 -0.856,-8.417 -1.045,-12.414c-0.298,-4.764 0.054,-9.545 1.045,-14.213Z" style="fill:#232d36;"/></g><path id="Tracciato_507" d="M1537.08,568.79l-0.646,6.219c2.97,4.9 6.711,8.954 8.744,12.546c6.717,-2.974 16.757,-9.914 23.431,-12.705c0.76,-1.66 1.157,-3.462 1.165,-5.287l-0.005,-1.682c3.532,0.477 7.024,1.217 10.446,2.214c3.185,0.86 6.311,1.927 9.358,3.193l-0.837,0.428l0.032,0.019c-0.349,0.159 -0.7,0.33 -1.065,0.509l-0.072,0.037c-11.259,5.613 -28.982,20.285 -42.668,17.087c-0.502,-0.06 -1.007,-0.137 -1.514,-0.231c-6.424,-1.2 -14.3,-5.166 -15.481,-19.755c2.916,-1.245 5.977,-2.116 9.112,-2.592Z" style="fill:#232d36;fill-rule:nonzero;"/><path id="Tracciato_508" d="M1551.67,496.3c0,0 -2.993,1.977 -0.944,4.406c2.049,2.429 -4.759,-0.368 -4.759,-0.368c0,0 0.555,-5.32 5.703,-4.038Z" style="fill:#1e1612;fill-rule:nonzero;"/><g id="Raggruppa_230"><g id="Raggruppa_227"><path id="Tracciato_509" d="M1537.94,560.436l25.832,-13.4l-9.735,5.289l-16.097,8.111Z" style="fill:#e79b54;fill-rule:nonzero;"/><path id="Tracciato_510" d="M1536.97,568.643l0,-7.72l0.965,-0.486l-0.858,8.266l-0.107,-0.06Z" style="fill:#cb7d35;fill-opacity:0.85;fill-rule:nonzero;"/><path id="Tracciato_511" d="M1537.08,568.702l0.858,-8.267l16.1,-8.111l9.734,-5.289l5.927,-3.074l0.052,17.143l0.026,8.358c-0.008,1.825 -0.406,3.627 -1.166,5.287c-6.674,2.79 -16.714,9.731 -23.431,12.7c-2.033,-3.591 -5.774,-7.643 -8.744,-12.545l0.644,-6.202Z" style="fill:#e79b54;fill-rule:nonzero;"/><path id="Tracciato_512" d="M1539.54,570.072l-2.467,-1.37l0.858,-8.266l16.1,-8.111l9.735,-5.289l5.927,-3.074l0.053,17.143l-10.152,10.783l-20.054,-1.816Z" style="fill:#cb7d35;fill-opacity:0.85;fill-rule:nonzero;"/></g><path id="Tracciato_513" d="M1572.63,531.158c-0.027,0.577 -0.173,1.916 0.853,2.241c-0.382,1.853 -0.892,3.678 -1.525,5.461c-2.731,7.718 -3.038,9.15 -4.74,14.232c-2.849,4.671 -2.45,8.728 -3.81,11.237c-1.016,0.176 -7.073,2.753 -9.791,3.067c-6.169,-0.1 -14.795,-1.026 -17.669,-1.777c-0.372,-0.182 -2.11,-1.418 -5.327,-3.348c-0.752,-2.483 -0.643,-6.22 -1.286,-10.293c1.672,-2.3 2.788,-3.861 4.523,-6.118c0.981,-1.668 1.583,-3.425 2.268,-4.748c-0.056,-1.393 -0.207,-2.766 -0.143,-4.861c0.828,-1.957 2.9,-6.052 3.939,-8.443l2.16,-9.479c0.198,-1.094 0.27,-2.207 0.213,-3.317c12.029,-2.376 27.857,0.731 30.335,16.146Z" style="fill:#eab070;fill-rule:nonzero;"/><path id="Tracciato_514" d="M1540.63,530.593l-0.934,1.925l0.543,1.854l2.324,1.377l2.155,0.678l1.333,-2.813l0.092,-3.6l-5.513,0.579Z" style="fill:#d38e4f;fill-rule:nonzero;"/><path id="Tracciato_515" d="M1549.7,496.128c0.075,2.09 -0.054,6.005 5.047,7.611c8.265,2.6 12.7,5.712 16.954,7.829c2.504,1.88 4.858,3.953 7.039,6.2c0.427,5.424 -2.23,8.015 -2.23,8.015c-0.2,2.64 -2.295,6.054 -3.592,10.291c-1.028,-0.325 -3.2,-0.345 -3.175,-0.92c-0.174,-4.387 0.536,-7.6 -1.263,-11.088c-2.559,-0.99 -5.26,-1.564 -8,-1.7c-5.219,0.718 -11.485,3.175 -19.184,-2.748c-5.151,-6.317 -8.612,-19.882 8.404,-23.49Z" style="fill:#1e1612;fill-rule:nonzero;"/><path id="Tracciato_516" d="M1576.53,534.998c-0.482,-2.619 -2.553,-2.11 -3.379,-1.8c-1.224,0.397 -2.169,1.383 -2.513,2.623c-0.333,0.95 -0.857,2.354 -0.572,3.317l0.238,6.261l2.306,-0.53c0,0 4.165,-8.539 3.92,-9.871Z" style="fill:#eab070;fill-rule:nonzero;"/><path id="Tracciato_517" d="M1539.97,529.453l4.792,-2.238l1.58,2.672l-6.247,0.879l-0.125,-1.313Z" style="fill:#2f2622;fill-rule:nonzero;"/><path id="Tracciato_518" d="M1560.43,544.547l-10.318,2.112l-8.557,-1.367l-3.421,-3.5c0,0 -0.59,8.365 0.884,10.567c1.779,2.658 8.238,4.367 12.344,1.93c2.774,-1.648 9.068,-9.742 9.068,-9.742Z" style="fill:#fff;fill-rule:nonzero;"/><path id="Tracciato_519" d="M1550.62,541.095l-7.243,-0.839l1.916,2.607l1.882,0.766l3.445,-2.534Z" style="fill:#cb7d35;fill-rule:nonzero;"/><path id="Tracciato_520" d="M1555.31,530.214l-3.577,0.126l-0.01,4.019l1.546,3.842l6.726,-1.115l1.955,-1.687l0.139,-2.917l-6.779,-2.268Z" style="fill:#d38e4f;fill-rule:nonzero;"/><path id="Tracciato_521" d="M1556.54,532.867l-3.486,-0.248l-0.626,1.058l7.641,1.715l-3.529,-2.525Z" style="fill:#382625;fill-rule:nonzero;"/><path id="Tracciato_522" d="M1561.61,530.952l-8.415,-3.556l-1.331,3l9.656,2.474l0.09,-1.918Z" style="fill:#2f2622;fill-rule:nonzero;"/><path id="Tracciato_523" d="M1545.5,532.38l-2.247,-0.442l-2.7,1.316l5.3,0.054l-0.353,-0.928Z" style="fill:#382625;fill-rule:nonzero;"/><path id="Tracciato_524" d="M1570.44,538.727c0.534,-1.21 4.03,-3.861 4.03,-3.861l-0.044,2.42l-2.055,5.3l-0.966,-1.287l-1.933,1.713c0,0 2.152,-3.45 0.968,-4.285Z" style="fill:#d38e4f;fill-rule:nonzero;"/><path id="Tracciato_525" d="M1546.1,559.1l-5.576,-0.429l1.287,1.716l1.93,0.214l2.359,-1.501Z" style="fill:#d38e4f;fill-rule:nonzero;"/><path id="Tracciato_526" d="M1572.8,533.151c0,0 -14.525,-5.628 -23.343,-6.392c-3.358,-0.36 -6.753,-0.123 -10.028,0.7l-3.023,6.647c0,0 0.918,3.251 3.645,3.422c1.631,0.1 4.646,-1.85 6.6,-1.764c1.583,0.07 3.094,3.04 9.034,3.721c2.386,0.273 6.86,-2.237 8.889,-2.806c1.924,-0.287 3.874,-0.364 5.815,-0.229l2.411,-3.299Z" style="fill:#232d36;fill-rule:nonzero;"/><path id="Tracciato_527" d="M1562.74,533.096c0,-1.716 -6.368,-2.562 -6.368,-2.562c0,0 -5.074,-0.153 -5.522,1.261c-0.469,1.483 2.168,3.8 3.481,4.113c2.531,0.593 8.405,-0.685 8.409,-2.812Z" style="fill:#eab070;fill-rule:nonzero;"/><path id="Tracciato_528" d="M1546.11,531.915c-0.27,0.832 -2.577,1.713 -3.66,2.094c-2.937,1.033 -4.4,-0.668 -4.075,-1.929c0.213,-0.798 0.815,-1.436 1.6,-1.693c1.196,-0.548 2.54,-0.689 3.825,-0.4c1.401,0.399 2.602,1.026 2.31,1.928Z" style="fill:#eab070;fill-rule:nonzero;"/><path id="Tracciato_529" d="M1560.36,534.615l-3.467,-2.609l-4.789,0.393l8.256,2.216Z" style="fill:#1e1612;fill-rule:nonzero;"/><path id="Tracciato_530" d="M1544.7,532.293l-2.967,-1.287l-2.716,1.5l5.683,-0.213Z" style="fill:#1e1612;fill-rule:nonzero;"/><path id="Tracciato_531" d="M1553.25,549.208c-0.156,0.058 -6.011,0.414 -6.011,0.414l-7.6,-1.324l4.6,1.919l5.02,-0.037l3.991,-0.972Z" style="fill:#cac1ca;fill-rule:nonzero;"/><path id="Tracciato_532" d="M1539.83,540.854l-2.379,-0.194l-1,3.1l1.885,-1.88l1.494,-1.026Z" style="fill:#d38e4f;fill-rule:nonzero;"/><path id="Tracciato_533" d="M1560.55,548.1l3.127,-4.441l-7.187,-1.83l3.727,2.509l0.333,3.762Z" style="fill:#d38e4f;fill-rule:nonzero;"/><path id="Tracciato_534" d="M1569.47,558.195l-2.145,10.079l-0.429,-8.364l2.574,-1.715Z" style="fill:#cb7d35;fill-rule:nonzero;"/><path id="Tracciato_535" d="M1561.72,569.561l-5.79,10.294l0.779,-9.2l5.011,-1.094Z" style="fill:#cb7d35;fill-rule:nonzero;"/><path id="Tracciato_536" d="M1557.75,504.985c0,0 -3.589,-0.887 -4.433,-1.859c-2.516,-1.079 -4,0.976 -5.061,1.283c-3.284,0.95 -2.679,-0.9 -3.607,-0.874c-2.856,0.072 -1.9,2.271 -2.963,2.472c-1.462,0.08 -2.929,0.024 -4.38,-0.165c-1.452,-0.19 -0.682,6.432 0.858,7.435c1.024,0.667 3.026,-0.864 4.839,0.664c0.934,0.789 1.349,-1.966 4.8,-0.91c1.1,0.335 1.075,-3.744 2.183,-4.057c0.986,-0.277 2.676,1.081 3.648,0.755c0.944,-0.315 4.116,-4.744 4.116,-4.744Z" style="fill:#434140;fill-opacity:0.52;fill-rule:nonzero;"/><path id="Tracciato_537" d="M1568.02,523.514l0.258,-0.344l-13.381,-10.037c-6.952,-5.212 -9.119,-10.6 -6.622,-16.472l-0.4,-0.168c-2.584,6.079 -0.374,11.634 6.759,16.983l13.386,10.038Z" style="fill:#59524e;fill-opacity:0.36;fill-rule:nonzero;"/><path id="Tracciato_538" d="M1549.17,523.214c0.057,0 0.112,-0.023 0.153,-0.063c0.08,-0.083 0.08,-0.217 0,-0.3c-0.144,-0.142 -14.3,-14.225 -6.7,-23.443c0.072,-0.091 0.059,-0.225 -0.029,-0.3c-0.091,-0.074 -0.226,-0.061 -0.3,0.029c-7.841,9.52 6.588,23.878 6.735,24.022c0.038,0.035 0.088,0.054 0.141,0.055Z" style="fill:#59524e;fill-opacity:0.63;fill-rule:nonzero;"/><path id="Tracciato_539" d="M1566.38,544.388l-2.052,3.988l-2.145,4.289l3.481,-2.422l0.716,-5.855Z" style="fill:#d38e4f;fill-rule:nonzero;"/><path id="Tracciato_540" d="M1546.51,565.722l-2.51,2.3l-6.063,-0.732l-1.045,-3.032l9.618,1.464Z" style="fill:#eab070;fill-rule:nonzero;"/><path id="Tracciato_541" d="M1542.29,564.89l-1.045,-1.115l-0.557,1.882l0.418,0.767l1.184,-1.534Z" style="fill:#d38e4f;fill-rule:nonzero;"/></g><path id="Tracciato_542" d="M1505.58,610.892l2.191,6.853l7.349,9.892l30.1,-2.543l-15.789,6.153l-12.612,3.455c-1.921,0.001 -3.682,-1.099 -4.522,-2.826l-6.5,-13.283l-0.217,-7.701Z" style="fill:#eb6300;fill-rule:nonzero;"/><path id="Tracciato_543" d="M1603.62,605.487l-7.1,9.432l-4.663,3.392l-27.55,3.391l-3.956,-2.4l1.978,3.957l14.7,2.4l9.432,1.766c1.883,0.044 6.253,-1.483 9.22,-2.755l4.523,-10.88l3.416,-8.303Z" style="fill:#eb6300;fill-rule:nonzero;"/><path id="Tracciato_544" d="M1559.72,711.626c-0.565,0.212 7.477,-13.364 11.234,-17.027c5.412,-5.227 11.157,-10.097 17.2,-14.579l-2.516,-4.9l-28.118,18.93l-2.218,9.073l4.418,8.503Z" style="fill:#eb6300;fill-rule:nonzero;"/><path id="Tracciato_545" d="M1555.48,711.06c-3.912,-3.787 -16.142,-17.232 -22.043,-21.125c-2.134,-1.408 -9.327,-5.087 -9.327,-5.087l2.544,-8.267l22.953,19.729l8.451,9.851l-2.578,4.899Z" style="fill:#eb6300;fill-rule:nonzero;"/><path id="Tracciato_546" d="M1608.08,640.028l4.239,3.815l3.957,0.848l1.978,-5.935l-2.826,2.543l-7.348,-1.271Z" style="fill:#eb6300;fill-rule:nonzero;"/><path id="Tracciato_547" d="M1562.26,569.277l-5.723,10.174l0.77,-9.1l4.953,-1.074Z" style="fill:#cb7d35;fill-rule:nonzero;"/><path id="Tracciato_548" d="M1639.45,642.714l1.413,7.348l-4.522,2.543l2.261,-3.674l0.848,-6.217Z" style="fill:#eb6300;fill-rule:nonzero;"/><path id="Tracciato_549" d="M1533.78,654.767l10.174,-11.87l16.108,-0.423c0,0 11.447,9.326 11.022,10.6c-3.392,-0.848 -14.413,-5.935 -14.413,-5.935l-9.327,1.272l-13.564,6.356Z" style="fill:#eb6300;fill-rule:nonzero;"/><path id="Tracciato_550" d="M1541.1,657.971l4.451,0.212l7.842,-3.391l-1.059,3.815c0,0 -6.147,2.331 -7.419,2.331c-1.211,-1.066 -2.485,-2.057 -3.815,-2.967Z" style="fill:#eb6300;fill-rule:nonzero;"/><path id="Tracciato_551" d="M1565.08,656.252l-6.925,0.635l-4.24,-2.9l0.566,3.956c0,0 5.087,2.262 6.359,2.262c1.696,-0.421 4.24,-3.953 4.24,-3.953Z" style="fill:#eb6300;fill-rule:nonzero;"/><path id="Tracciato_552" d="M1526.14,758.485l-5.086,1.979l-2.545,-3.32l-0.563,4.451c-0.024,1.5 0.595,2.941 1.7,3.957c1.055,-1.06 6.494,-7.067 6.494,-7.067Z" style="fill:#eb6300;fill-rule:nonzero;"/><path id="Tracciato_553" d="M1607.26,757.638l-2.854,2.078l-5.371,-0.567l5.371,6.218c0,0 3.108,0.565 4.479,-1.512c-0.662,-2.039 -1.205,-4.115 -1.625,-6.217Z" style="fill:#eb6300;fill-rule:nonzero;"/><path id="Tracciato_554" d="M1521.31,751.59l-3.675,-0.635l-4.8,-7.631l1.412,8.2c0.047,1.819 0.333,3.624 0.849,5.369c1.055,-1.064 6.214,-5.303 6.214,-5.303Z" style="fill:#eb6300;fill-rule:nonzero;"/><g id="Raggruppa_231"><path id="Tracciato_555" d="M1587.51,665.999l6.783,3.073l3.922,-0.423l4.874,-4.452l6.254,-11.551c4.362,1.838 8.43,4.308 12.073,7.332l-3.335,2.316l-9.458,8.3l14.507,-9.047c1.648,1.647 2.771,3.285 2.86,4.695l-19.605,10.952l-3.674,2.259l-6.5,5.23l-5.51,0.848l-2.967,-6.783l-2.544,-4.452l-0.848,-7.419l3.168,-0.878Z" style="fill:#232d36;fill-rule:nonzero;"/><path id="Tracciato_556" d="M1621.41,659.981l1.364,-0.947l9.354,-7.941l-7.6,9.579l-1.4,0.875c-0.528,-0.524 -1.107,-1.048 -1.718,-1.566Z" style="fill:#eb6300;fill-rule:nonzero;"/><path id="Tracciato_557" d="M1618.08,662.297l3.335,-2.316c0.615,0.519 1.19,1.042 1.714,1.566l-14.507,9.047l9.458,-8.297Z" style="fill:#3b424c;fill-rule:nonzero;"/></g><path id="Tracciato_558" d="M1611.75,589.724l-3.673,-2.543l-0.848,1.413l-1.343,-3.992l3.744,1.165l2.12,3.957Z" style="fill:#eb6300;fill-rule:nonzero;"/><path id="Tracciato_559" d="M1553.41,664.023l-11.163,3.532l7.066,0.99l4.097,-4.522Z" style="fill:#eb6300;fill-rule:nonzero;"/><path id="Tracciato_560" d="M1562.29,667.513l-7.462,-3.136l1.81,4.337l5.652,-1.201Z" style="fill:#eb6300;fill-rule:nonzero;"/><path id="Tracciato_561" d="M1581.19,736.215l9.607,10.88l6.112,4.567l-10.279,-1.105l-19.076,-29.462l13.636,15.12Z" style="fill:#eb6300;fill-rule:nonzero;"/><path id="Tracciato_562" d="M1540.43,738.473c-4.875,7.419 -9.115,10.6 -9.115,10.6l-5.511,0l6.218,7.065l3.745,-7.276c0,0 2.967,-6.359 4.663,-10.389Z" style="fill:#eb6300;fill-rule:nonzero;"/><path id="Tracciato_563" d="M1525.94,675.249c0,0 21.5,-1.114 27.448,-1.378c11.588,-0.515 33.279,1.06 33.279,1.06c0.478,1.379 0.832,2.798 1.06,4.24c-16.887,6.188 -30.1,28.97 -30.1,28.97l-3.391,-1.131c0,0 -8.876,-9.071 -16.506,-16.42c-9.39,-9.045 -13.169,-8.662 -13.169,-8.662l1.379,-6.679Z" style="fill:#232d36;fill-rule:nonzero;"/><path id="Tracciato_564" d="M1502.27,784.469c-1.059,16.32 -3.865,45.07 -4.841,48.584c-0.53,1.908 -2.825,5.57 -4.451,7.631c-2.051,2.074 -4.208,4.039 -6.463,5.889l-3.108,3.436l26.141,0.1c0,0 0.424,-4.487 0.424,-6.5c-0.106,-2.755 -0.672,-5.465 0.387,-10.34c1.013,-4.617 2.882,-9.002 5.51,-12.93c1.614,-3.923 9.115,-16.108 9.115,-16.108c0,0 1.614,-7.659 2.755,-13.513c-6.782,-2.265 -20.381,-4.27 -25.469,-6.249Z" style="fill:#232d36;fill-rule:nonzero;"/><path id="Tracciato_565" d="M1633.72,834.113c-2.12,-3.391 -3.6,-10.528 -3.6,-10.528c-4.348,-27.488 -6.6,-38.012 -8.919,-43.1c-3.531,1.977 -22.169,12.581 -22.169,12.581c0,0 1.125,3.525 2.682,7.779c9.61,14.694 17.278,27.441 18.126,32.527c1.236,4.346 2.329,5.9 1.236,10c-0.699,2.404 -0.536,4.979 0.46,7.277l23.845,0c1.133,-0.332 0,-1.908 -1.483,-4.238c-3.914,-3.639 -7.336,-7.773 -10.178,-12.298Z" style="fill:#232d36;fill-rule:nonzero;"/><path id="Tracciato_566" d="M1590.83,670.692l-3.391,1.978l-2.3,0.625l-0.531,-3.451l4.239,1.131l1.983,-0.283Z" style="fill:#3b424c;fill-rule:nonzero;"/><path id="Tracciato_567" d="M1621.64,609.79l7.066,6.783l0.848,13.283l-3.391,-10.6l-4.523,-9.466Z" style="fill:#eb6300;fill-rule:nonzero;"/><path id="Tracciato_568" d="M1506.34,837.998l1.414,7.631l-5.017,-0.706c0,0 -0.193,-0.278 1.7,-2.543c0.945,-1.305 1.595,-2.801 1.903,-4.382Z" style="fill:#3b424c;fill-rule:nonzero;"/><path id="Tracciato_569" d="M1552.3,708.375c0,0 -8.479,17.168 -12.294,22.68c2.544,-6.571 9.75,-25.647 9.75,-25.647l2.544,2.967Z" style="fill:#eb6300;fill-rule:nonzero;"/><path id="Tracciato_570" d="M1412.27,548.657c1.17,2.4 3.677,9.814 3.677,9.814c0,0 3.407,5.023 4.3,5.631c2.478,1.681 0.887,9.673 0.13,8.442c-1.535,-2.5 -6.7,-8.755 -8.207,-11.5c-1.507,-2.745 -2.457,-11.9 -3.047,-13.37c-0.59,-1.47 1.978,-1.417 3.147,0.983Z" style="fill:#232d36;fill-rule:nonzero;"/><path id="Tracciato_571" d="M1416.56,547.697c0.692,2.578 1.637,10.307 1.637,10.307c0,0 2.473,5.677 3.237,6.444c2.114,2.122 -0.362,9.121 -1.294,7.746c-2.497,-4.004 -4.621,-8.229 -6.345,-12.62c-0.956,-2.978 -0.46,-12.668 -0.759,-14.227c-0.299,-1.559 2.831,-0.228 3.524,2.35Z" style="fill:#232d36;fill-rule:nonzero;"/><path id="Tracciato_572" d="M1431.21,591.729l-4.179,-9.875c0,0 -8.312,-11.136 -9.008,-13.259c-0.696,-2.123 -0.688,-9.619 0.717,-11.952c1.052,-1.747 7.1,-6.989 9.314,-9.095c1.433,-1.365 3.264,1.442 1.5,3.954c-2.95,4.193 -5.188,6.753 -5.188,6.753c0,0 -0.44,5.643 0.2,6.776c0.64,1.133 4.958,1.855 4.958,1.855c0,0 1.968,-5.284 6.543,-7.816c3.077,-1.7 5.9,-1.181 4.463,0.258c-2.609,2.6 -6.346,7.337 -3.965,10.9c1.448,2.166 -0.629,5.853 -0.629,5.853l3.171,3.815l-7.897,11.833Z" style="fill:#232d36;fill-rule:nonzero;"/></g></g></g><defs><linearGradient id="_Linear2" x1="0" y1="0" x2="1" y2="0" gradientUnits="userSpaceOnUse" gradientTransform="matrix(5.22788e-14,853.777,-853.777,5.22788e-14,956.506,-1.98748)"><stop offset="0" style="stop-color:#fff;stop-opacity:1"/><stop offset="1" style="stop-color:#e2f1ff;stop-opacity:1"/></linearGradient></defs></svg>