<?xml version="1.0" encoding="UTF-8" standalone="no"?>
<!DOCTYPE svg PUBLIC "-//W3C//DTD SVG 1.1//EN" "http://www.w3.org/Graphics/SVG/1.1/DTD/svg11.dtd">
<svg width="100%" height="100%" viewBox="0 0 82 82" version="1.1" xmlns="http://www.w3.org/2000/svg" xmlns:xlink="http://www.w3.org/1999/xlink" xml:space="preserve" xmlns:serif="http://www.serif.com/" style="fill-rule:evenodd;clip-rule:evenodd;stroke-linejoin:round;stroke-miterlimit:2;">
    <g id="Livello-1" serif:id="Livello 1">
        <g transform="matrix(1,0,0,1,40.999,79.9992)">
            <path d="M0,-77.999C-21.504,-77.999 -38.999,-60.504 -38.999,-38.999C-38.999,-17.495 -21.504,0 0,0C21.506,0 39.001,-17.495 39.001,-38.999C39.001,-60.504 21.506,-77.999 0,-77.999M0,2C-22.607,2 -40.999,-16.393 -40.999,-38.999C-40.999,-61.607 -22.607,-79.999 0,-79.999C22.607,-79.999 41.001,-61.607 41.001,-38.999C41.001,-16.393 22.607,2 0,2" style="fill:rgb(129,135,140);fill-rule:nonzero;"/>
        </g>
        <g transform="matrix(1,0,0,1,32.3154,47.092)">
            <path d="M0,-12.188L3.721,-12.188L3.721,-15.804C3.721,-17.4 3.762,-19.86 4.92,-21.383C6.141,-22.997 7.815,-24.094 10.697,-24.094C15.393,-24.094 17.369,-23.424 17.369,-23.424L16.438,-17.909C16.438,-17.909 14.888,-18.358 13.44,-18.358C11.993,-18.358 10.697,-17.84 10.697,-16.394L10.697,-12.188L16.633,-12.188L16.219,-6.803L10.697,-6.803L10.697,11.906L3.721,11.906L3.721,-6.803L0,-6.803L0,-12.188Z" style="fill:rgb(129,135,140);fill-rule:nonzero;"/>
        </g>
    </g>
</svg>
