<?xml version="1.0" encoding="UTF-8" standalone="no"?>
<!DOCTYPE svg PUBLIC "-//W3C//DTD SVG 1.1//EN" "http://www.w3.org/Graphics/SVG/1.1/DTD/svg11.dtd">
<svg width="100%" height="100%" viewBox="0 0 82 82" version="1.1" xmlns="http://www.w3.org/2000/svg" xmlns:xlink="http://www.w3.org/1999/xlink" xml:space="preserve" xmlns:serif="http://www.serif.com/" style="fill-rule:evenodd;clip-rule:evenodd;stroke-linejoin:round;stroke-miterlimit:2;">
    <g id="Livello-1" serif:id="Livello 1">
        <g transform="matrix(1,0,0,1,40.9999,80.0002)">
            <path d="M0,-78C-21.505,-78 -39,-60.505 -39,-39C-39,-17.495 -21.505,0 0,0C21.505,0 39,-17.495 39,-39C39,-60.505 21.505,-78 0,-78M0,2C-22.607,2 -41,-16.393 -41,-39C-41,-61.607 -22.607,-80 0,-80C22.607,-80 41,-61.607 41,-39C41,-16.393 22.607,2 0,2" style="fill:rgb(129,135,140);fill-rule:nonzero;"/>
        </g>
        <g transform="matrix(1,0,0,1,55.497,29.9654)">
            <path d="M0,22.07C0,23.972 -1.547,25.516 -3.45,25.516L-25.535,25.516C-27.438,25.516 -28.984,23.972 -28.984,22.07L-28.984,7.341L-23.61,7.341C-24.073,8.484 -24.336,9.729 -24.336,11.035C-24.336,16.461 -19.92,20.871 -14.492,20.871C-9.064,20.871 -4.649,16.461 -4.649,11.035C-4.649,9.729 -4.913,8.484 -5.374,7.341L0,7.341L0,22.07ZM-19.629,7.341C-18.479,5.746 -16.607,4.7 -14.492,4.7C-12.377,4.7 -10.507,5.746 -9.356,7.341C-8.605,8.382 -8.153,9.653 -8.153,11.035C-8.153,14.527 -10.998,17.365 -14.492,17.365C-17.987,17.365 -20.829,14.527 -20.829,11.035C-20.829,9.653 -20.379,8.382 -19.629,7.341M-1.455,-2.805L-0.66,-2.809L-0.66,3.287L-6.741,3.31L-6.763,-2.788L-1.455,-2.805ZM-3.45,-6.952L-25.535,-6.952C-29.37,-6.952 -32.492,-3.834 -32.492,-0.001L-32.492,22.07C-32.492,25.903 -29.37,29.022 -25.535,29.022L-3.45,29.022C0.385,29.022 3.508,25.903 3.508,22.07L3.508,7.341L3.508,-0.001C3.508,-3.834 0.385,-6.952 -3.45,-6.952" style="fill:rgb(129,135,140);fill-rule:nonzero;"/>
        </g>
    </g>
</svg>
