<?xml version="1.0" encoding="UTF-8" standalone="no"?>
<!DOCTYPE svg PUBLIC "-//W3C//DTD SVG 1.1//EN" "http://www.w3.org/Graphics/SVG/1.1/DTD/svg11.dtd">
<svg width="100%" height="100%" viewBox="0 0 82 82" version="1.1" xmlns="http://www.w3.org/2000/svg" xmlns:xlink="http://www.w3.org/1999/xlink" xml:space="preserve" xmlns:serif="http://www.serif.com/" style="fill-rule:evenodd;clip-rule:evenodd;stroke-linejoin:round;stroke-miterlimit:2;">
    <g id="Livello-1" serif:id="Livello 1">
        <g transform="matrix(1,0,0,1,41,80.0002)">
            <path d="M0,-78C-21.505,-78 -39,-60.505 -39,-39C-39,-17.495 -21.505,0 0,0C21.505,0 39,-17.495 39,-39C39,-60.505 21.505,-78 0,-78M0,2C-22.607,2 -41,-16.393 -41,-39C-41,-61.607 -22.607,-80 0,-80C22.607,-80 41,-61.607 41,-39C41,-16.393 22.607,2 0,2" style="fill:rgb(129,135,140);fill-rule:nonzero;"/>
        </g>
        <g transform="matrix(1,0,0,1,59,22.823)">
            <path d="M0,33.084L-7.959,33.084L-7.959,21.453C-7.959,18.408 -9.201,16.333 -11.938,16.333C-14.031,16.333 -15.194,17.733 -15.737,19.087C-15.943,19.571 -15.909,20.245 -15.909,20.922L-15.909,33.084L-23.792,33.084C-23.792,33.084 -23.687,12.483 -23.792,10.609L-15.909,10.609L-15.909,14.134C-15.443,12.594 -12.925,10.394 -8.906,10.394C-3.919,10.394 0,13.625 0,20.587L0,33.084ZM-31.764,7.798L-31.815,7.798C-34.354,7.798 -36,6.078 -36,3.9C-36,1.685 -34.306,0 -31.713,0C-29.127,0 -27.535,1.681 -27.483,3.896C-27.483,6.074 -29.127,7.798 -31.764,7.798M-28.074,33.084L-35.095,33.084L-35.095,10.609L-28.074,10.609L-28.074,33.084Z" style="fill:rgb(129,135,140);fill-rule:nonzero;"/>
        </g>
    </g>
</svg>
