<?xml version="1.0" encoding="UTF-8" standalone="no"?>
<!DOCTYPE svg PUBLIC "-//W3C//DTD SVG 1.1//EN" "http://www.w3.org/Graphics/SVG/1.1/DTD/svg11.dtd">
<svg width="100%" height="100%" viewBox="0 0 82 82" version="1.1" xmlns="http://www.w3.org/2000/svg" xmlns:xlink="http://www.w3.org/1999/xlink" xml:space="preserve" xmlns:serif="http://www.serif.com/" style="fill-rule:evenodd;clip-rule:evenodd;stroke-linejoin:round;stroke-miterlimit:2;">
    <g id="Livello-1" serif:id="Livello 1">
        <g transform="matrix(1,0,0,1,40.9999,79.999)">
            <path d="M0,-77.999C-21.505,-77.999 -39,-60.504 -39,-38.999C-39,-17.495 -21.505,0 0,0C21.504,0 38.998,-17.495 38.998,-38.999C38.998,-60.504 21.504,-77.999 0,-77.999M0,2C-22.607,2 -41,-16.392 -41,-38.999C-41,-61.607 -22.607,-79.999 0,-79.999C22.606,-79.999 40.998,-61.607 40.998,-38.999C40.998,-16.392 22.606,2 0,2" style="fill:rgb(129,135,140);fill-rule:nonzero;"/>
        </g>
        <g transform="matrix(1,0,0,1,58.999,54.1107)">
            <path d="M0,-22.328C-1.325,-21.741 -2.749,-21.344 -4.242,-21.165C-2.715,-22.079 -1.544,-23.526 -0.995,-25.25C-2.423,-24.404 -4.001,-23.79 -5.687,-23.46C-7.03,-24.895 -8.952,-25.792 -11.077,-25.792C-15.154,-25.792 -18.461,-22.484 -18.461,-18.407C-18.461,-17.827 -18.398,-17.265 -18.271,-16.724C-24.407,-17.034 -29.849,-19.971 -33.495,-24.442C-34.131,-23.348 -34.493,-22.079 -34.493,-20.726C-34.493,-18.166 -33.189,-15.905 -31.209,-14.578C-32.417,-14.616 -33.558,-14.951 -34.556,-15.501L-34.556,-15.411C-34.556,-11.83 -32.009,-8.845 -28.629,-8.169C-29.248,-7.995 -29.899,-7.909 -30.575,-7.909C-31.051,-7.909 -31.514,-7.953 -31.964,-8.039C-31.024,-5.106 -28.299,-2.97 -25.065,-2.913C-27.594,-0.931 -30.78,0.25 -34.238,0.25C-34.834,0.25 -35.423,0.216 -36,0.148C-32.731,2.241 -28.849,3.464 -24.68,3.464C-11.091,3.464 -3.665,-7.787 -3.665,-17.549C-3.665,-17.87 -3.671,-18.19 -3.686,-18.504C-2.241,-19.547 -0.986,-20.848 0,-22.328" style="fill:rgb(129,135,140);fill-rule:nonzero;"/>
        </g>
    </g>
</svg>
