<svg xmlns="http://www.w3.org/2000/svg" width="47.561" height="33.367" viewBox="0 0 47.561 33.367">
  <g id="Raggruppa_85" data-name="Raggruppa 85" transform="translate(0.72 0.744)">
    <path id="Tracciato_858" data-name="Tracciato 858" d="M22.65,0a45.674,45.674,0,0,1-3.979,3.284C17.58,3.454,12.686,1.157,11.7.911S.847,3.8.115,4.984,2.295,8.978,5.1,8.621s6.97-1.847,8.183-.634c1.968,1.968,7.709,7.989,10.422,10.384C25.98,20.379,32.649,10,32.649,10" transform="translate(13.351)" fill="none" stroke="#f58600" stroke-linejoin="round" stroke-miterlimit="10" stroke-width="2"/>
    <path id="Linea_25" data-name="Linea 25" d="M3.237,3.285,0,0" transform="translate(20.688 25.875)" fill="none" stroke="#f58600" stroke-linejoin="round" stroke-miterlimit="10" stroke-width="2"/>
    <path id="Linea_26" data-name="Linea 26" d="M5.677,6.126-.005,0" transform="translate(23.625 21.261)" fill="none" stroke="#f58600" stroke-linejoin="round" stroke-miterlimit="10" stroke-width="2"/>
    <path id="Linea_27" data-name="Linea 27" d="M6.736,6.979,0,0" transform="translate(27.438 17.563)" fill="none" stroke="#f58600" stroke-linejoin="round" stroke-miterlimit="10" stroke-width="2"/>
    <path id="Tracciato_859" data-name="Tracciato 859" d="M10.523,15.015a2,2,0,0,0,2.828,0l1.777-1.778a2.021,2.021,0,0,0-.319-2.873,2.019,2.019,0,0,0-2.872-.319,2.023,2.023,0,0,0-.319-2.873,2.02,2.02,0,0,0-2.872-.32,2.022,2.022,0,0,0-.32-2.873,2.02,2.02,0,0,0-2.872-.319A2.023,2.023,0,0,0,5.235.785,2.018,2.018,0,0,0,2.364.466L.586,2.244a2,2,0,0,0,0,2.829Z" transform="translate(1.98 14.124)" fill="none" stroke="#f58600" stroke-linejoin="round" stroke-miterlimit="10" stroke-width="2"/>
    <path id="Tracciato_860" data-name="Tracciato 860" d="M0,9.954l.624.63,1.528,1.529c2.332,2.332,4.509.616,5.632-1.319A4.089,4.089,0,0,0,13.16,9.017c2.7,1.335,5.07-1.428,4.876-2.841A3.834,3.834,0,0,0,20.914,0" transform="translate(16.143 18.371)" fill="none" stroke="#f58600" stroke-linejoin="round" stroke-miterlimit="10" stroke-width="2"/>
    <path id="Tracciato_861" data-name="Tracciato 861" d="M0,0,2.135,2.216A6.934,6.934,0,0,0,3.436,4.5" transform="translate(0 11)" fill="none" stroke="#f58600" stroke-linejoin="round" stroke-miterlimit="10" stroke-width="2"/>
    <path id="Linea_28" data-name="Linea 28" d="M3.6,3.6,0,0" transform="translate(10.004 1.228)" fill="none" stroke="#f58600" stroke-linejoin="round" stroke-miterlimit="10" stroke-width="2"/>
    <path id="Linea_29" data-name="Linea 29" d="M3.136,0,0,3.241" transform="translate(4.395 17.785)" fill="none" stroke="#f58600" stroke-linejoin="round" stroke-miterlimit="10" stroke-width="2"/>
    <path id="Linea_30" data-name="Linea 30" d="M3.136,0,0,3.241" transform="translate(4.395 17.785)" fill="none" stroke="#f58600" stroke-linejoin="round" stroke-miterlimit="10" stroke-width="2"/>
    <path id="Linea_31" data-name="Linea 31" d="M3.137,0,0,3.243" transform="translate(7.586 20.976)" fill="none" stroke="#f58600" stroke-linejoin="round" stroke-miterlimit="10" stroke-width="2"/>
    <path id="Linea_32" data-name="Linea 32" d="M3.139,0,0,3.244" transform="translate(10.777 24.168)" fill="none" stroke="#f58600" stroke-linejoin="round" stroke-miterlimit="10" stroke-width="2"/>
  </g>
</svg>
