<svg xmlns="http://www.w3.org/2000/svg" width="238" height="48" viewBox="0 0 238 48">
  <g id="Raggruppa_10" data-name="Raggruppa 10" transform="translate(-1382 -26)">
    <g id="Rettangolo_365" data-name="Rettangolo 365" transform="translate(1382 26)" fill="none" stroke-miterlimit="10">
      <path d="M24,48A24,24,0,0,1,0,24H0A24,24,0,0,1,24,0H214a24,24,0,0,1,24,24h0a24,24,0,0,1-24,24Z" stroke="none"/>
      <path d="M 213.9999389648438 47 C 217.1053771972656 47 220.1173706054688 46.39203262329102 222.9522857666016 45.19297027587891 C 225.6909637451172 44.03459548950195 228.1507873535156 42.37606430053711 230.2634124755859 40.26346969604492 C 232.3760070800781 38.15084457397461 234.0345306396484 35.69103240966797 235.1929016113281 32.95234298706055 C 236.3919677734375 30.1174373626709 236.9999389648438 27.10543823242188 236.9999389648438 24 C 236.9999389648438 20.89456176757812 236.3919677734375 17.8825626373291 235.1929016113281 15.04765605926514 C 234.0345306396484 12.30896854400635 232.3760070800781 9.849156379699707 230.2634124755859 7.736531257629395 C 228.1507873535156 5.623937606811523 225.6909637451172 3.965406179428101 222.9522857666016 2.807031154632568 C 220.1173706054688 1.607968807220459 217.1053771972656 1 213.9999389648438 1 L 24 1 C 20.89456367492676 1 17.8825626373291 1.607968807220459 15.04765701293945 2.807031154632568 C 12.30896949768066 3.965406179428101 9.849157333374023 5.623937606811523 7.736532211303711 7.736531257629395 C 5.623938083648682 9.849156379699707 3.965406894683838 12.30896854400635 2.807031869888306 15.04765605926514 C 1.607969522476196 17.8825626373291 1.000000715255737 20.89456176757812 1.000000715255737 24 C 1.000000715255737 27.10543823242188 1.607969522476196 30.1174373626709 2.807031869888306 32.95234298706055 C 3.965406894683838 35.69103240966797 5.623938083648682 38.15084457397461 7.736532211303711 40.26346969604492 C 9.849157333374023 42.37606430053711 12.30896949768066 44.03459548950195 15.04765701293945 45.19297027587891 C 17.8825626373291 46.39203262329102 20.89456367492676 47 24 47 L 213.9999389648438 47 M 213.9999389648438 48 L 24 48 C 10.74515724182129 48 7.324218813664629e-07 37.25484466552734 7.324218813664629e-07 24 C 7.324218813664629e-07 10.74515628814697 10.74515724182129 0 24 0 L 213.9999389648438 0 C 227.2547760009766 0 237.9999389648438 10.74515628814697 237.9999389648438 24 C 237.9999389648438 37.25484466552734 227.2547760009766 48 213.9999389648438 48 Z" stroke="none" fill="#f58600"/>
    </g>
    <text id="ASSISTENZA_CLIENTI" data-name="ASSISTENZA CLIENTI" transform="translate(1400 48)" fill="#f58600" font-size="15" font-family="Helvetica"><tspan x="0" y="0">ASSISTENZA CLIENTI</tspan></text>
    <text id="Clicca_e_contattaci" data-name="Clicca e contattaci" transform="translate(1400 64)" fill="#232d36" font-size="13" font-family="Helvetica" letter-spacing="0.057em"><tspan x="0" y="0">CLICCA E CONTATTACI</tspan></text>
    <g id="Raggruppa_41" data-name="Raggruppa 41" transform="translate(1572.948 34)">
      <path id="Tracciato_733" data-name="Tracciato 733" d="M14.3,29.049a13.536,13.536,0,0,1-6.426-1.629L3.9,28.872A2.9,2.9,0,0,1,.176,25.15l1.452-3.974A13.532,13.532,0,0,1,.005,14.523,14.524,14.524,0,1,1,14.529,29.047ZM8.235,24.205h0a10.144,10.144,0,0,0,5.988,1.941c.1,0,.2,0,.306,0A11.619,11.619,0,1,0,2.91,14.523a10.259,10.259,0,0,0,1.937,6.294L2.91,26.142l5.325-1.937Z" fill="#f58600" stroke="rgba(0,0,0,0)" stroke-miterlimit="10" stroke-width="1"/>
      <path id="Tracciato_734" data-name="Tracciato 734" d="M2.9,1.451A1.45,1.45,0,1,1,1.454,0,1.45,1.45,0,0,1,2.9,1.451" transform="translate(13.076 13.071)" fill="#f58600" stroke="rgba(0,0,0,0)" stroke-miterlimit="10" stroke-width="1"/>
      <path id="Tracciato_735" data-name="Tracciato 735" d="M2.9,1.451A1.45,1.45,0,1,1,1.45,0,1.45,1.45,0,0,1,2.9,1.451" transform="translate(6.783 13.071)" fill="#f58600" stroke="rgba(0,0,0,0)" stroke-miterlimit="10" stroke-width="1"/>
      <path id="Tracciato_736" data-name="Tracciato 736" d="M2.907,1.451A1.455,1.455,0,1,1,1.452,0a1.452,1.452,0,0,1,1.455,1.45" transform="translate(19.37 13.071)" fill="#f58600" stroke="rgba(0,0,0,0)" stroke-miterlimit="10" stroke-width="1"/>
    </g>
  </g>
</svg>
