<svg xmlns="http://www.w3.org/2000/svg" width="31.062" height="31.049" viewBox="0 0 31.062 31.049">
  <g id="Raggruppa_41" data-name="Raggruppa 41" transform="translate(1.01 1)">
    <path id="Tracciato_733" data-name="Tracciato 733" d="M14.3,29.049a13.536,13.536,0,0,1-6.426-1.629L3.9,28.872A2.9,2.9,0,0,1,.176,25.15l1.452-3.974A13.532,13.532,0,0,1,.005,14.523,14.524,14.524,0,1,1,14.529,29.047ZM8.235,24.205h0a10.144,10.144,0,0,0,5.988,1.941c.1,0,.2,0,.306,0A11.619,11.619,0,1,0,2.91,14.523a10.259,10.259,0,0,0,1.937,6.294L2.91,26.142l5.325-1.937Z" fill="#f58600" stroke="rgba(0,0,0,0)" stroke-miterlimit="10" stroke-width="2"/>
    <path id="Tracciato_734" data-name="Tracciato 734" d="M2.9,1.451A1.45,1.45,0,1,1,1.454,0,1.45,1.45,0,0,1,2.9,1.451" transform="translate(13.076 13.071)" fill="#f58600" stroke="rgba(0,0,0,0)" stroke-miterlimit="10" stroke-width="2"/>
    <path id="Tracciato_735" data-name="Tracciato 735" d="M2.9,1.451A1.45,1.45,0,1,1,1.451,0,1.45,1.45,0,0,1,2.9,1.451" transform="translate(6.783 13.071)" fill="#f58600" stroke="rgba(0,0,0,0)" stroke-miterlimit="10" stroke-width="2"/>
    <path id="Tracciato_736" data-name="Tracciato 736" d="M2.907,1.451A1.455,1.455,0,1,1,1.452,0a1.452,1.452,0,0,1,1.455,1.45" transform="translate(19.37 13.071)" fill="#f58600" stroke="rgba(0,0,0,0)" stroke-miterlimit="10" stroke-width="2"/>
  </g>
</svg>
