<?xml version="1.0" encoding="UTF-8" standalone="no"?><!DOCTYPE svg PUBLIC "-//W3C//DTD SVG 1.1//EN" "http://www.w3.org/Graphics/SVG/1.1/DTD/svg11.dtd"><svg width="100%" height="100%" viewBox="0 0 252 252" version="1.1" xmlns="http://www.w3.org/2000/svg" xmlns:xlink="http://www.w3.org/1999/xlink" xml:space="preserve" xmlns:serif="http://www.serif.com/" style="fill-rule:evenodd;clip-rule:evenodd;stroke-linecap:round;stroke-linejoin:round;stroke-miterlimit:2;"><rect id="Tavola-da-disegno2" serif:id="Tavola da disegno2" x="0" y="0" width="251.535" height="251.535" style="fill:none;"/><path d="M118.26,112.344c3.737,-13.261 10.142,-26.482 21.955,-34.235c0.489,-0.321 1.072,-0.481 1.656,-0.442c0.014,0.001 0.03,0.003 0.044,0.004c1.508,0.112 2.684,1.483 2.483,2.981c-0.716,5.314 -4.101,10.983 -8.024,19.638" style="fill:none;stroke:#222221;stroke-width:2px;"/><path d="M136.585,101.032c4.376,-2.517 11.303,-13.499 18.063,-10.639c3.3,1.397 1.013,4.964 -0.305,6.957c-4.779,6.143 -8.124,8.102 -14.235,15.905" style="fill:none;stroke:#222221;stroke-width:2px;"/><path d="M141.116,117.044c3.298,-3.255 6.832,-8.042 11.428,-9.439c7.455,-2.27 0.035,10.607 -1.205,12.693c-2.588,4.356 -5.761,8.508 -6.981,13.516" style="fill:none;stroke:#222221;stroke-width:2px;"/><path d="M124.915,131.04c-3.686,-6.681 -5.775,-16.177 -8.289,-24.281c-1.011,-4.963 1.455,-9.759 2.926,-15.229c0.659,-0.996 9.558,-22.766 10.475,-33.168c0.087,-0.992 0.08,-2.105 -0.196,-3.017c-0.387,-1.28 -1.857,-1.897 -3.041,-1.275c-1.105,0.58 -2.124,1.577 -3.06,2.99c-10.538,15.934 -16.604,32.68 -21.673,50.084c3.756,31.114 12.477,61.217 16.233,92.332c2.376,15.887 -2.203,31.467 -8.547,46.936l42.528,-0.02c-0.387,-6.728 -0.213,-13.372 0.408,-20.044c0.441,-4.75 1.721,-9.399 3.887,-13.65c7.501,-14.718 5.078,-35.463 0.067,-50.144c-2.701,-7.908 -8.452,-14.336 -11.058,-22.29c-2.575,-7.863 -2.865,-16.313 -4.803,-24.33c-1.174,-4.855 -2.485,-9.679 -4.041,-14.426c-0.578,-1.76 -3.107,-12.074 -4.771,-12.522c-1.219,-0.327 -2.528,0.114 -3.267,1.137c-2.379,3.292 -2.926,7.796 -3.472,12.3c-0.106,16.392 -1.208,32.126 1.169,48.012c0.184,5.133 0.368,10.265 -0.933,14.725" style="fill:none;stroke:#222221;stroke-width:2px;"/><path d="M142.629,31.186c0,7.562 -6.131,13.692 -13.693,13.692c-7.562,0 -13.692,-6.13 -13.692,-13.692c0,-7.563 6.13,-13.693 13.692,-13.693c7.562,0 13.693,6.13 13.693,13.693Z" style="fill:none;stroke:#f58600;stroke-width:2px;"/><path d="M140.119,23.286c9.921,-2.414 18.308,-3.505 18.853,-1.821c0.774,2.399 -12.042,8.694 -28.631,14.063c-16.588,5.369 -30.664,7.777 -31.44,5.379c-0.552,-1.702 6.714,-5.818 16.343,-9.721" style="fill:none;stroke:#f58600;stroke-width:2px;"/><path d="M159.267,73.469l2.26,-2.534c0.199,-0.216 0.551,-0.09 0.569,0.197l0.163,3.288c0.009,0.128 0.09,0.24 0.217,0.285l4.031,1.49c0.262,0.097 0.289,0.454 0.045,0.587l-3.642,1.98c-0.091,0.05 -0.154,0.139 -0.172,0.241l-0.533,4.062c-0.036,0.303 -0.434,0.385 -0.597,0.123l-2.332,-3.911c-0.081,-0.136 -0.253,-0.192 -0.397,-0.136l-4.306,1.683c-0.29,0.113 -0.555,-0.209 -0.39,-0.472l2.515,-3.996c0.065,-0.103 0.066,-0.232 0.005,-0.336l-1.714,-2.895c-0.145,-0.248 0.08,-0.548 0.358,-0.478l3.597,0.92c0.115,0.029 0.242,-0.009 0.323,-0.098Z" style="fill:#f58600;fill-rule:nonzero;"/><path d="M162.494,39.177l2.946,-3.294c0.245,-0.279 0.705,-0.115 0.724,0.259l0.225,4.27c0.01,0.167 0.118,0.313 0.272,0.371l5.242,1.936c0.334,0.126 0.371,0.59 0.054,0.762l-4.736,2.574c-0.118,0.064 -0.199,0.181 -0.208,0.313l-0.696,5.277c-0.054,0.394 -0.569,0.502 -0.777,0.16l-3.037,-5.082c-0.099,-0.175 -0.316,-0.249 -0.506,-0.175l-5.6,2.185c-0.376,0.148 -0.723,-0.272 -0.508,-0.613l3.27,-5.193c0.081,-0.133 0.09,-0.301 0.009,-0.437l-2.229,-3.761c-0.19,-0.321 0.103,-0.712 0.464,-0.62l4.675,1.194c0.154,0.039 0.307,-0.01 0.416,-0.126Z" style="fill:#f58600;fill-rule:nonzero;"/><path d="M82.083,65.495l0.407,-4.088c0.034,-0.347 0.471,-0.477 0.69,-0.207l2.507,3.089c0.098,0.121 0.259,0.171 0.409,0.129l5.001,-1.418c0.322,-0.092 0.602,0.239 0.458,0.541l-2.146,4.529c-0.054,0.113 -0.05,0.244 0.01,0.355l2.371,4.343c0.178,0.325 -0.153,0.691 -0.493,0.546l-5.069,-2.154c-0.175,-0.075 -0.379,-0.012 -0.481,0.149l-3.006,4.709c-0.203,0.317 -0.692,0.191 -0.718,-0.183l-0.39,-5.693c-0.01,-0.147 -0.101,-0.274 -0.235,-0.332l-3.734,-1.607c-0.319,-0.137 -0.314,-0.591 0.008,-0.72l4.168,-1.664c0.134,-0.054 0.228,-0.179 0.243,-0.324Z" style="fill:#f58600;fill-rule:nonzero;"/><path d="M98.389,5.461l2.46,-2.357c0.207,-0.199 0.553,-0.046 0.546,0.242l-0.085,3.296c-0.003,0.129 0.071,0.248 0.188,0.302l3.915,1.801c0.252,0.115 0.25,0.475 -0.003,0.588l-3.792,1.697c-0.095,0.043 -0.163,0.127 -0.185,0.229l-0.846,4.015c-0.063,0.3 -0.47,0.351 -0.605,0.077l-2.032,-4.088c-0.071,-0.141 -0.232,-0.211 -0.384,-0.165l-4.431,1.347c-0.298,0.091 -0.539,-0.252 -0.354,-0.502l2.822,-3.797c0.072,-0.098 0.084,-0.227 0.029,-0.335l-1.486,-3.025c-0.128,-0.258 0.122,-0.541 0.394,-0.448l3.522,1.196c0.114,0.039 0.24,0.011 0.327,-0.073Z" style="fill:#f58600;fill-rule:nonzero;"/></svg>