<?xml version="1.0" encoding="UTF-8" standalone="no"?><!DOCTYPE svg PUBLIC "-//W3C//DTD SVG 1.1//EN" "http://www.w3.org/Graphics/SVG/1.1/DTD/svg11.dtd"><svg width="100%" height="100%" viewBox="0 0 252 252" version="1.1" xmlns="http://www.w3.org/2000/svg" xmlns:xlink="http://www.w3.org/1999/xlink" xml:space="preserve" xmlns:serif="http://www.serif.com/" style="fill-rule:evenodd;clip-rule:evenodd;stroke-linecap:round;stroke-linejoin:round;stroke-miterlimit:2;"><rect id="Tavola-da-disegno1" serif:id="Tavola da disegno1" x="0" y="0" width="251.535" height="251.535" style="fill:none;"/><path d="M149.303,161.262c5.255,-1.188 8.958,-3.992 13.711,-6.358c4.784,-2.38 8.674,-4.214 12.393,-8.149c7.107,-7.519 12.792,-16.264 19.794,-23.829l9.993,-13.827c0.421,-0.541 0.778,-1.084 1.071,-1.623c2.202,-4.044 -2.9,-8.112 -6.388,-5.104l-1.586,1.368" style="fill:none;stroke:#222221;stroke-width:2px;"/><path d="M152.751,145.573c1.54,-1.116 3.471,-2.256 5.091,-3.229c17.174,-10.307 24.174,-21.182 39.044,-35.082c3.479,-3.251 -0.06,-8.946 -4.502,-7.231c-15.003,5.794 -21.69,20.927 -37.877,24.959c-2.128,1.097 -16.607,5.698 -21.803,6.729c-2.119,0.421 -5.372,0.321 -6.439,-1.836c-0.996,-2.015 0.194,-3.975 1.358,-5.576c1.25,-1.724 8.172,-7.454 9.97,-8.63c1.871,-1.223 9.163,-5.037 10.288,-6.475c1.126,-1.443 3.578,-3.364 1.996,-5.342c-1.358,-1.701 -3.764,-0.599 -5.493,-0.185c-1.755,0.419 -3.591,0.708 -5.317,1.229c-7.576,2.283 -14.943,6.393 -21.886,11.466c-2.313,1.692 -4.581,3.49 -6.792,5.364c-8.95,7.35 -15.578,16.583 -21.669,26.371c-1.524,2.446 -3.013,4.928 -4.5,7.426c-8.602,17.832 -20.891,33.477 -34.659,47.341c0,0 -18.276,12.793 -9.625,22.466c11.583,11.216 22.753,20.666 38.513,23.696c1.76,0.338 3.45,-0.855 3.679,-2.633c1.995,-15.478 8.433,-32.231 22.766,-40.908c2.545,-0.98 5.099,-1.928 7.651,-2.869c12.763,-4.705 25.488,-9.22 37.115,-16.614c6.977,-4.439 34.604,-29.124 31.239,-31.49c0,0 -1.789,-1.807 -5.114,0.872" style="fill:none;stroke:#222221;stroke-width:2px;stroke-linecap:butt;stroke-linejoin:miter;"/><path d="M183.852,136.761c1.016,-0.238 6.264,-4.874 7.758,-3.892c1.563,1.028 0.362,4.157 -0.164,5.114c-1.879,3.409 -3.965,6.115 -6.625,8.985c-1.078,1.163 -4.995,5.135 -6.164,6.054c-2.823,2.215 -5.203,4.565 -8.266,6.454c-1.278,0.789 -10.064,7.83 -11.914,9.115c-1.018,0.707 -2.135,1.698 -3.205,2.276" style="fill:none;stroke:#222221;stroke-width:2px;stroke-linecap:butt;stroke-linejoin:miter;"/><path d="M173.959,53.045c0,8.896 -7.213,16.109 -16.109,16.109c-8.896,0 -16.109,-7.213 -16.109,-16.109c0,-8.897 7.213,-16.109 16.109,-16.109c8.896,0 16.109,7.212 16.109,16.109Z" style="fill:none;stroke:#f58600;stroke-width:2px;stroke-linecap:butt;stroke-linejoin:miter;"/><path d="M154.92,53.087c0,-6.567 3.93,-12.211 9.565,-14.72c-2.023,-0.917 -4.268,-1.431 -6.635,-1.431c-8.896,0 -16.109,7.212 -16.109,16.109c0,8.896 7.213,16.109 16.109,16.109c2.329,0 4.542,-0.499 6.542,-1.39c-5.584,-2.529 -9.472,-8.148 -9.472,-14.677Z" style="fill:#f58600;fill-rule:nonzero;stroke:#f58600;stroke-width:1px;stroke-linecap:butt;"/><path d="M154.92,53.087c0,-6.567 3.93,-12.211 9.565,-14.72c-2.023,-0.917 -4.268,-1.431 -6.635,-1.431c-8.896,0 -16.109,7.212 -16.109,16.109c0,8.896 7.213,16.109 16.109,16.109c2.329,0 4.542,-0.499 6.542,-1.39c-5.584,-2.529 -9.472,-8.148 -9.472,-14.677Z" style="fill:none;stroke:#f58600;stroke-width:0.36px;stroke-linecap:butt;stroke-linejoin:miter;"/><path d="M167.465,81.797l6.695,16.736" style="fill:none;stroke:#f58600;stroke-width:2px;stroke-linecap:butt;stroke-linejoin:miter;"/><path d="M148.214,80.858l-6.483,17.734" style="fill:none;stroke:#f58600;stroke-width:2px;stroke-linecap:butt;stroke-linejoin:miter;"/><path d="M156.986,26.108l-0.576,-18.611" style="fill:none;stroke:#f58600;stroke-width:2px;stroke-linecap:butt;stroke-linejoin:miter;"/><path d="M175.399,32.496l11.779,-14.758" style="fill:none;stroke:#f58600;stroke-width:2px;stroke-linecap:butt;stroke-linejoin:miter;"/><path d="M186.316,48.915l17.669,-3.445" style="fill:none;stroke:#f58600;stroke-width:2px;stroke-linecap:butt;stroke-linejoin:miter;"/><path d="M183.444,68.838l15.382,8.646" style="fill:none;stroke:#f58600;stroke-width:2px;stroke-linecap:butt;stroke-linejoin:miter;"/><path d="M134.673,67.608l-17.685,10.024" style="fill:none;stroke:#f58600;stroke-width:2px;stroke-linecap:butt;stroke-linejoin:miter;"/><path d="M131.783,49.474l-20.069,-3.838" style="fill:none;stroke:#f58600;stroke-width:2px;stroke-linecap:butt;stroke-linejoin:miter;"/><path d="M141.21,33.749l-12.787,-15.905" style="fill:none;stroke:#f58600;stroke-width:2px;stroke-linecap:butt;stroke-linejoin:miter;"/><path d="M163.905,32.405l4.123,-14.248" style="fill:none;stroke:#f58600;stroke-width:2px;stroke-linecap:butt;stroke-linejoin:miter;"/><path d="M176.293,41.76l12.546,-8.298" style="fill:none;stroke:#f58600;stroke-width:2px;stroke-linecap:butt;stroke-linejoin:miter;"/><path d="M180.543,56.881l14.237,1.72" style="fill:none;stroke:#f58600;stroke-width:2px;stroke-linecap:butt;stroke-linejoin:miter;"/><path d="M173.481,71.278l9.541,10.324" style="fill:none;stroke:#f58600;stroke-width:2px;stroke-linecap:butt;stroke-linejoin:miter;"/><path d="M158.196,77.183l0.969,14.326" style="fill:none;stroke:#f58600;stroke-width:2px;stroke-linecap:butt;stroke-linejoin:miter;"/><path d="M143.834,71.752l-9.26,11.852" style="fill:none;stroke:#f58600;stroke-width:2px;stroke-linecap:butt;stroke-linejoin:miter;"/><path d="M136.817,58.39l-15.86,3.262" style="fill:none;stroke:#f58600;stroke-width:2px;stroke-linecap:butt;stroke-linejoin:miter;"/><path d="M139.074,43.937l-14.271,-7.829" style="fill:none;stroke:#f58600;stroke-width:2px;stroke-linecap:butt;stroke-linejoin:miter;"/><path d="M150.074,34.329l-5.794,-15.19" style="fill:none;stroke:#f58600;stroke-width:2px;stroke-linecap:butt;stroke-linejoin:miter;"/></svg>