<svg xmlns="http://www.w3.org/2000/svg" width="47" height="37" viewBox="0 0 47 37">
  <g id="Raggruppa_86" data-name="Raggruppa 86" transform="translate(1 1)">
    <path id="Tracciato_862" data-name="Tracciato 862" d="M38,4V0H3A2.946,2.946,0,0,0,0,3" fill="none" stroke="#f58600" stroke-linejoin="round" stroke-miterlimit="10" stroke-width="2"/>
    <path id="Tracciato_863" data-name="Tracciato 863" d="M43,23v9H3a2.949,2.949,0,0,1-3-3V0A2.949,2.949,0,0,0,3,3H43v8" transform="translate(0 3)" fill="none" stroke="#f58600" stroke-linecap="round" stroke-linejoin="round" stroke-miterlimit="10" stroke-width="2"/>
    <path id="Tracciato_864" data-name="Tracciato 864" d="M5,2A4.832,4.832,0,0,0,0,7a4.832,4.832,0,0,0,5,5H16a3,3,0,0,0,3-3V1a1,1,0,0,0-1-1H17a2.175,2.175,0,0,1-2,2H5" transform="translate(26 14)" fill="none" stroke="#f58600" stroke-linecap="round" stroke-linejoin="round" stroke-miterlimit="10" stroke-width="2"/>
    <path id="Linea_33" data-name="Linea 33" d="M0,0H2" transform="translate(30 21)" fill="none" stroke="#f58600" stroke-miterlimit="10" stroke-width="2"/>
  </g>
</svg>
