<?xml version="1.0" encoding="UTF-8" standalone="no"?><!DOCTYPE svg PUBLIC "-//W3C//DTD SVG 1.1//EN" "http://www.w3.org/Graphics/SVG/1.1/DTD/svg11.dtd"><svg width="100%" height="100%" viewBox="0 0 252 252" version="1.1" xmlns="http://www.w3.org/2000/svg" xmlns:xlink="http://www.w3.org/1999/xlink" xml:space="preserve" xmlns:serif="http://www.serif.com/" style="fill-rule:evenodd;clip-rule:evenodd;stroke-linecap:round;stroke-linejoin:round;stroke-miterlimit:2;"><rect id="Tavola-da-disegno4" serif:id="Tavola da disegno4" x="0" y="0" width="251.535" height="251.535" style="fill:none;"/><path d="M155.002,84.887l-5.83,5.831" style="fill:none;stroke:#f58600;stroke-width:1px;"/><path d="M155.002,90.718l-5.83,-5.831" style="fill:none;stroke:#f58600;stroke-width:1px;"/><path d="M152.326,82.568l0,10.47" style="fill:none;stroke:#f58600;stroke-width:1px;"/><path d="M157.583,87.802l-10.515,0" style="fill:none;stroke:#f58600;stroke-width:1px;"/><path d="M135.109,64.144c0,0 1.601,-2.62 1.71,-0.966c0.11,1.654 -3.616,16.177 -7.282,15.417c-2.139,-0.444 5.572,-14.451 5.572,-14.451Z" style="fill:none;stroke:#f58600;stroke-width:2px;"/><path d="M136.573,65.522c0,0 10.889,-6.068 12.97,-1.706c2.082,4.362 -3.533,8.955 -6.764,7.35c-3.231,-1.606 6.153,-4.274 5.644,-0.539c-0.509,3.736 -9.678,16.395 -16.244,6.195" style="fill:none;stroke:#f58600;stroke-width:2px;"/><path d="M133.582,66.36c0,0 -4.841,-18.258 -10.169,-14.841c-5.327,3.418 -3.145,12.445 2.894,12.297c6.039,-0.148 3.045,-6.477 -2.261,-3.568c-5.306,2.911 -7.707,7.285 -7.27,10.918c0.436,3.633 4.184,8.287 12.386,5.232" style="fill:none;stroke:#f58600;stroke-width:2px;"/><path d="M123.53,101.794c0,0 -0.192,-1.196 1.231,-0.499c1.425,0.697 7.214,11.19 6.912,12.054c-0.303,0.864 -1.293,-0.846 -2.084,-1.736c-0.79,-0.891 -6.059,-9.819 -6.059,-9.819Z" style="fill:none;stroke:#f58600;stroke-width:2px;"/><path d="M124.761,101.295c0.045,-0.619 0.987,-13.391 7.884,-12.13c6.896,1.261 7.34,14.269 -0.239,13.815c0,0 -2.872,-0.366 -0.506,-2.313c2.366,-1.948 7.541,-2.319 8.265,2.244c0.725,4.563 -1.343,12.543 -9.588,7.299" style="fill:none;stroke:#f58600;stroke-width:2px;"/><path d="M123.692,101.016c0,0 -7.086,-8.298 -2.36,-10.828c0,0 1.383,-0.79 1.805,1.758c0.423,2.548 0.715,4.385 0.715,4.385c0,0 0.674,-4.559 2.99,-3.497" style="fill:none;stroke:#f58600;stroke-width:2px;"/><path d="M123.53,101.794c0,0 -4.408,-4.212 -9.76,-5.784" style="fill:none;stroke:#f58600;stroke-width:2px;"/><path d="M123.158,101.458c0,0 -7.519,-4.2 -12.226,0.783" style="fill:none;stroke:#f58600;stroke-width:2px;"/><path d="M206.174,235.34l-150.377,0l0,-138.751c0,-41.526 33.663,-75.189 75.188,-75.189c41.526,0 75.189,33.663 75.189,75.189l0,138.751Z" style="fill:none;stroke:#222221;stroke-width:2px;"/><path d="M174.244,118.847c-4.287,-0.827 -8.45,-3.169 -12.862,-3.204" style="fill:none;stroke:#222221;stroke-width:2px;"/><path d="M182.34,131.558c1.46,-6.458 1.043,-14.894 0.074,-21.441c-0.325,-2.193 -1.045,-3.952 -2.869,-5.391c-1.224,-0.963 -2.842,-0.515 -3.595,0.832c-1.196,2.142 -0.896,4.966 -1.054,7.327c-0.18,2.694 -0.415,5.678 -1.571,8.146c-1.16,2.474 -2.915,4.658 -5.116,6.282c-1.217,0.898 -2.561,1.621 -3.978,2.147c-6.611,2.458 -11.363,5.536 -14.237,12.333" style="fill:none;stroke:#222221;stroke-width:2px;"/><path d="M181.684,107.152c0.126,-9.418 -0.299,-19.708 -0.804,-29.084c-0.067,-1.263 -0.545,-4.19 -2.069,-4.762c-2.176,-0.815 -2.648,4.536 -3.069,5.844c-0.478,1.484 -0.869,2.995 -1.191,4.52c-0.63,2.978 -0.986,6.005 -1.227,9.037c-0.483,6.126 -0.837,11.244 -1.439,17.359c-0.205,2.074 -0.284,4.536 -2.103,7.523" style="fill:none;stroke:#222221;stroke-width:2px;"/><path d="M172.397,104.464c-0.505,-5.447 -1.309,-11.951 -1.911,-17.399c-0.194,-1.754 -0.214,-4.798 -2.681,-3.613c-0.593,0.287 -1.009,0.798 -1.337,1.355c-1.303,2.208 -1.128,5.076 -1.197,7.545c-0.228,8.259 1.086,15.3 -1.769,23.272" style="fill:none;stroke:#222221;stroke-width:2px;"/><path d="M182.959,114.666c2.68,-10.753 1.154,-21.309 3.868,-32.283c0.636,-2.57 1.799,-2.625 2.657,-0.12c3.502,10.241 2.242,20.843 2.286,31.23c-0.004,1.203 0.004,2.401 0.039,3.589c0.037,1.302 -0.094,2.605 -0.435,3.862c-0.213,0.79 -0.459,1.571 -0.733,2.341c-0.524,1.459 -1.158,2.877 -1.904,4.22c-4.702,8.975 -13.147,15.352 -19.076,23.444c-7.432,10.142 -9.127,19.441 -6.197,31.159c0.67,2.678 2.076,6.042 2.002,8.814c-0.078,2.89 -0.902,2.836 -3.913,2.793c-6.615,-0.092 -22.751,-4.018 -22.439,-8.33c0.426,-5.907 2.495,-20.118 2.069,-26.079c-0.341,-4.761 -0.455,-5.869 -1.112,-10.567c-2.571,-18.346 17.125,-24.096 18.865,-40.75c0.501,-4.8 0.838,-15.558 0.916,-16.392c0.171,-1.843 2.822,-3.295 3.65,-1.64c0.445,0.887 1.713,3.911 1.741,4.699" style="fill:none;stroke:#222221;stroke-width:2px;"/><path d="M91.098,118.847c4.287,-0.827 8.452,-3.169 12.864,-3.204" style="fill:none;stroke:#222221;stroke-width:2px;"/><path d="M83.003,131.558c-1.46,-6.458 -1.043,-14.894 -0.073,-21.441c0.324,-2.193 1.045,-3.952 2.869,-5.391c1.222,-0.963 2.842,-0.515 3.593,0.832c1.198,2.142 0.898,4.966 1.056,7.327c0.18,2.694 0.413,5.678 1.57,8.146c1.16,2.474 2.915,4.658 5.116,6.282c1.217,0.898 2.56,1.621 3.978,2.147c6.612,2.458 11.362,5.536 14.237,12.333" style="fill:none;stroke:#222221;stroke-width:2px;"/><path d="M83.659,107.152c-0.126,-9.418 0.3,-19.708 0.804,-29.084c0.067,-1.263 0.545,-4.19 2.07,-4.762c2.176,-0.815 2.647,4.536 3.069,5.844c0.478,1.484 0.869,2.995 1.191,4.52c0.629,2.978 0.987,6.005 1.225,9.037c0.485,6.126 0.838,11.244 1.441,17.359c0.204,2.074 0.283,4.536 2.101,7.523" style="fill:none;stroke:#222221;stroke-width:2px;"/><path d="M92.947,104.464c0.505,-5.447 1.308,-11.951 1.911,-17.399c0.193,-1.754 0.214,-4.798 2.679,-3.613c0.595,0.287 1.01,0.798 1.338,1.355c1.303,2.208 1.129,5.076 1.196,7.545c0.23,8.259 -1.085,15.3 1.77,23.272" style="fill:none;stroke:#222221;stroke-width:2px;"/><path d="M82.384,114.666c-2.68,-10.753 -1.153,-21.309 -3.868,-32.283c-0.636,-2.57 -1.8,-2.625 -2.656,-0.12c-3.502,10.241 -2.242,20.843 -2.287,31.23c0.003,1.203 -0.004,2.401 -0.038,3.589c-0.038,1.302 0.093,2.605 0.434,3.862c0.214,0.79 0.458,1.571 0.733,2.341c0.525,1.459 1.159,2.877 1.905,4.22c4.701,8.975 13.146,15.352 19.076,23.444c7.432,10.142 9.127,19.441 6.196,31.159c-0.669,2.678 -2.077,6.042 -2.001,8.814c0.078,2.89 0.901,2.836 3.913,2.793c6.615,-0.092 22.75,-4.018 22.438,-8.33c-0.427,-5.907 -2.496,-20.118 -2.068,-26.079c0.34,-4.761 0.453,-5.869 1.112,-10.567c2.57,-18.346 -17.126,-24.096 -18.865,-40.75c-0.502,-4.8 -0.839,-15.558 -0.916,-16.392c-0.171,-1.843 -2.823,-3.295 -3.651,-1.64c-0.444,0.887 -1.713,3.911 -1.741,4.699" style="fill:none;stroke:#222221;stroke-width:2px;"/><path d="M166.178,50.628l-5.83,5.83" style="fill:none;stroke:#f58600;stroke-width:1px;"/><path d="M166.178,56.458l-5.83,-5.83" style="fill:none;stroke:#f58600;stroke-width:1px;"/><path d="M163.502,48.308l0,10.47" style="fill:none;stroke:#f58600;stroke-width:1px;"/><path d="M168.76,53.543l-10.516,0" style="fill:none;stroke:#f58600;stroke-width:1px;"/><path d="M104.517,54.505l-5.83,5.83" style="fill:none;stroke:#f58600;stroke-width:1px;"/><path d="M104.517,60.335l-5.83,-5.83" style="fill:none;stroke:#f58600;stroke-width:1px;"/><path d="M101.841,52.185l0,10.47" style="fill:none;stroke:#f58600;stroke-width:1px;"/><path d="M107.099,57.42l-10.517,0" style="fill:none;stroke:#f58600;stroke-width:1px;"/><path d="M136.762,62.849c0,0 4.826,-5.167 7.953,-5.957" style="fill:none;stroke:#f58600;stroke-width:2px;"/><path d="M136.003,62.849c0,0 1.245,-9.508 4.686,-11.33" style="fill:none;stroke:#f58600;stroke-width:2px;"/></svg>