<?xml version="1.0" encoding="UTF-8" standalone="no"?><!DOCTYPE svg PUBLIC "-//W3C//DTD SVG 1.1//EN" "http://www.w3.org/Graphics/SVG/1.1/DTD/svg11.dtd"><svg width="100%" height="100%" viewBox="0 0 1917 697" version="1.1" xmlns="http://www.w3.org/2000/svg" xmlns:xlink="http://www.w3.org/1999/xlink" xml:space="preserve" xmlns:serif="http://www.serif.com/" style="fill-rule:evenodd;clip-rule:evenodd;stroke-linejoin:round;stroke-miterlimit:2;"><rect id="Tavola-da-disegno1" serif:id="Tavola da disegno1" x="0" y="0" width="1916.66" height="696.739" style="fill:none;"/><clipPath id="_clip1"><rect x="0" y="0" width="1916.66" height="696.739"/></clipPath><g clip-path="url(#_clip1)"><path id="Tracciato_7190" d="M-2,699.883l1920,-178.051l0,-522.832l-1920,0l0,700.883Z" style="fill:url(#_Linear2);fill-rule:nonzero;"/><path id="Tracciato_847" d="M273.048,352.494l-71.68,-14.4c4.685,-4.667 7.362,-10.988 7.452,-17.6c0,-15.787 -15.713,-28.584 -35.1,-28.584c-10.727,0 -20.324,3.924 -26.762,10.1c-2.756,-20.509 -24.085,-36.468 -50,-36.468c-3.225,0.001 -6.444,0.254 -9.629,0.758c-6.485,-30.334 -38.975,-53.398 -78.084,-53.398c-41.058,0 -74.825,25.424 -78.865,58c-7.794,-3.562 -16.27,-5.386 -24.839,-5.347c-27.785,0 -50.308,18.344 -50.308,40.974c0.004,3.161 0.452,6.305 1.329,9.342c-1.671,-0.325 -3.369,-0.488 -5.071,-0.488c-12.037,0 -21.8,7.948 -21.8,17.751c0.001,1.245 0.16,2.484 0.474,3.688l-81.847,15.672l524.73,0Z" style="fill:#e2f1ff;fill-rule:nonzero;"/><path id="Tracciato_848" d="M2060.18,312.371l-34.772,-6.983c2.273,-2.263 3.571,-5.329 3.615,-8.537c0,-7.658 -7.622,-13.866 -17.025,-13.866c-4.793,-0.085 -9.441,1.669 -12.982,4.9c-1.337,-9.948 -11.685,-17.69 -24.255,-17.69c-1.565,0.001 -3.126,0.124 -4.671,0.368c-3.148,-14.718 -18.91,-25.91 -37.881,-25.91c-9.198,-0.105 -18.197,2.706 -25.7,8.027c-9.463,-5.373 -20.183,-8.143 -31.064,-8.027c-27.824,0 -50.377,16.9 -50.377,37.749c-0.136,4.776 1.348,9.459 4.208,13.286l-84.108,16.683l315.012,0Z" style="fill:#e2f1ff;fill-rule:nonzero;"/><path id="Tracciato_849" d="M1785.27,228.246l-137.1,0l21.618,-5.273c-0.078,-0.431 -0.118,-0.868 -0.119,-1.306c0,-5.4 5.874,-9.778 13.12,-9.778c1.863,-0.007 3.715,0.295 5.479,0.894c2.787,-9.367 14.002,-16.374 27.402,-16.374c11.723,0 21.762,5.35 25.967,12.952c1.261,-0.359 2.551,-0.611 3.854,-0.754c9.679,-1.072 18.179,3.902 18.979,11.118c0.131,1.198 0.045,2.409 -0.253,3.577l21.053,4.944Z" style="fill:#e2f1ff;fill-rule:nonzero;"/></g><defs><linearGradient id="_Linear2" x1="0" y1="0" x2="1" y2="0" gradientUnits="userSpaceOnUse" gradientTransform="matrix(4.29167e-14,700.883,-700.883,4.29167e-14,958,-1)"><stop offset="0" style="stop-color:#fff;stop-opacity:1"/><stop offset="1" style="stop-color:#e2f1ff;stop-opacity:1"/></linearGradient></defs></svg>