<svg xmlns="http://www.w3.org/2000/svg" xmlns:xlink="http://www.w3.org/1999/xlink" width="424.939" height="545.41" viewBox="0 0 424.939 545.41">
  <defs>
    <linearGradient id="linear-gradient" x1="0.5" x2="0.5" y2="1" gradientUnits="objectBoundingBox">
      <stop offset="0" stop-color="#fff"/>
      <stop offset="1" stop-color="#e2f1ff"/>
    </linearGradient>
  </defs>
  <g id="Raggruppa_215" data-name="Raggruppa 215" transform="translate(3808.509 -1020.48)">
    <circle id="Ellisse_6" data-name="Ellisse 6" cx="95" cy="95" r="95" transform="translate(-3586.509 1033.89)" fill="url(#linear-gradient)"/>
    <g id="Raggruppa_197" data-name="Raggruppa 197">
      <path id="Tracciato_383" data-name="Tracciato 383" d="M-3711.806,1294.061c-12.647,20.38-39.182,63.907-55.886,79.427-15.051,13.984-33.607,26.684-38.78,29.654,1.191,12.071,2.143,23.075,6.028,27.3,10.9-3.132,45.98-7.779,48.465,8.078.594,3.789-.674,8.75-4.578,15.182,4.847,6.292,16.538,14.726,33.611,16.116,5.375-.645,12.566-3.216,19.371-7.193,12.242-7.157,35.026-17,41.684-21.616,6.311-29.261-4.59-64.546,1.721-93.806,5.738-21.8,15.671-46.4,21.408-68.2C-3664.277,1271.337-3696.657,1277.546-3711.806,1294.061Z" fill="#d1d2d2" fill-rule="evenodd"/>
      <path id="Tracciato_384" data-name="Tracciato 384" d="M-3756.793,1454.229c16.2-32.84,32.324-77.556,46.581-111.771-5.164,34.353-16.137,91.081-16.352,126.939C-3737.469,1467.852-3748.219,1463.344-3756.793,1454.229Z" fill="#babcbd" fill-rule="evenodd"/>
      <path id="Tracciato_385" data-name="Tracciato 385" d="M-3799.989,1430.316c11.387-3.127,45.558-7.44,48.01,8.2a15.883,15.883,0,0,1-.844,7.382c15.491-33.491,34.014-84.232,47.129-115.707,1.1-10.875-2.488-31.541-11.02-23.136-22.289,45.523-68.056,92.219-83.275,123.257Zm43.551,23.189-.119.2.014.018Z" fill="#d1d2d2" fill-rule="evenodd"/>
      <path id="Tracciato_386" data-name="Tracciato 386" d="M-3711.806,1294.061c-12.647,20.38-39.182,63.907-55.886,79.427-15.051,13.984-33.607,26.684-38.78,29.654-4.469,17.476-1.034,35.354,4.971,38.8,36.07-46.758,62.934-86.738,91.353-149.247Q-3711,1293.379-3711.806,1294.061Z" fill="#e7e9e5" fill-rule="evenodd"/>
    </g>
    <path id="Tracciato_387" data-name="Tracciato 387" d="M-3686.3,1274.39c7.242-1.125,14.713-.716,26.513,3.167,7.9,2.6,15.552,2.87,23.458,5.471,5.89-1.318,16.708-2.376,22.6-3.693,15.428-.233,30.814,8.147,32.249,19.515.646,5.119-14.728,12.988-15.621,17.825-3.954,17.067-11.758,31.323-25.734,40.885-4.261,7.231-5.622,9.48-9.607,16.71-6.429,11.661-12.868,18.748-14.269,24.282-1.371,6.5.633,15.146.69,24.3-4,3.921-7.4,10.344-14.728,14.869-5.729,3.535-16.975,1.165-24.239,1.017-7-.143-16.008-8.481-22.737-8.826-.857-14.222.544-26.617-.132-39.615-5.362-24.668-13.148-43.981-11.93-65.882.29-12.806-3.89-26.433,1.614-34.9C-3712.179,1280.3-3697.292,1276.1-3686.3,1274.39Z" fill="#f58600" fill-rule="evenodd"/>
    <path id="Tracciato_388" data-name="Tracciato 388" d="M-3688.775,1284.584c-1.157,1.094-9.547-7-10.982-7.047,2.118-.865,11.083-2.779,13.46-3.148,6.775-1.051,13.752-.761,24.285,2.46C-3672.265,1277.072-3681.649,1277.842-3688.775,1284.584Z" fill="#eb6300" fill-rule="evenodd"/>
    <path id="Tracciato_389" data-name="Tracciato 389" d="M-3569.919,1549.686c.573,2.422-1.133,10.933.259,14.328a3.226,3.226,0,0,0,2.869,1.852l32.69-.006c2.121-.258,3.749-1.464,3.749-2.728,0-3.551-3.155-4.791-6.782-5.218-2.413-.283-3.428-.74-7.662-2.652-2.925-1.32-10.413-6.443-10.413-6.443S-3567.235,1549.1-3569.919,1549.686Z" fill="#232d36" fill-rule="evenodd"/>
    <g id="Raggruppa_198" data-name="Raggruppa 198">
      <path id="Tracciato_390" data-name="Tracciato 390" d="M-3723.107,1497.133c-14.527.8-14.527.8-25.952,5.344-11.033,12.274-26.336,33.873-35.189,47.646a114.622,114.622,0,0,0,13.376,1.22c11.675-9.7,21.921-16.3,33.379-21.469,9.223-4.158,15.821-7.092,29.671-10.544a12.664,12.664,0,0,0,7.856-5.28C-3706.143,1508.56-3716.931,1502.623-3723.107,1497.133Z" fill="#f58600" fill-rule="evenodd"/>
      <path id="Tracciato_391" data-name="Tracciato 391" d="M-3732.7,1497.225c-5.5.413-9.876,2.675-16.36,5.252-11.033,12.274-26.336,33.873-35.189,47.646a114.622,114.622,0,0,0,13.376,1.22c11.675-9.7,21.921-16.3,33.379-21.469,2.6-1.172,4.99-2.246,7.393-3.263l-6.17-9.843Z" fill="#232d36" fill-rule="evenodd"/>
    </g>
    <path id="Tracciato_392" data-name="Tracciato 392" d="M-3673.778,1437.206a189.936,189.936,0,0,1-16.669,57.632c-2.845,5.923-4.821,11.464-8.043,16.759-.533.875-1.037,1.777-1.608,2.619-1.427-1.258-2.594-2.293-3.893-3.427-4.531-3.953-14.864-9.077-19.842-13.462,1.4-15.906,2.962-37.3,2.962-37.3s7.021-30.338,10.481-40.354C-3698.156,1419.08-3677.53,1416.969-3673.778,1437.206Z" fill="#f58600" fill-rule="evenodd"/>
    <path id="Tracciato_393" data-name="Tracciato 393" d="M-3646.818,1410.659c23.967,7.566,42.054,25.642,64.4,46.54-.139,6.849-5.317,14.216-14.714,18.723-18.813-6.911-30.486-12.506-42.82-19.885-7.226-4.323-21.168-12.445-32-22.288C-3666.823,1428.335-3658.25,1418-3646.818,1410.659Z" fill="#f58600" fill-rule="evenodd"/>
    <path id="Tracciato_394" data-name="Tracciato 394" d="M-3582.391,1457.161c1.679,2.192,3.511,7.167,5.4,12.371,2.744,7.573,5.7,17.374,7.524,21.776,4.483,17.533,8.521,40.28,14.113,57.436-2.858.372-9.874,2.585-13.9,1.7-3.666-6.579-5.089-11.72-8.7-18.05-7.585-13.306-12.274-18.155-22.307-29.293-1.417-12.145.134-22.811,2.384-32.721C-3592.406,1465.872-3587.861,1461.668-3582.391,1457.161Z" fill="#f58600" fill-rule="evenodd"/>
    <path id="Tracciato_395" data-name="Tracciato 395" d="M-3600.752,1496.619a94.892,94.892,0,0,1,2.019-22.234l.177-.251,8.609,23.644Z" fill="#eb6300" fill-rule="evenodd"/>
    <path id="Tracciato_396" data-name="Tracciato 396" d="M-3569.085,1492.5c4.159,17.139,8.722,40.507,13.876,56.322-2.374.855-9.874,3.217-13.9,2.33-10.885-19.532-15.826-31.032-31.154-48.049-.5-4.3-.3-5.669-.489-9.522l20.574,3.994Z" fill="#232d36" fill-rule="evenodd"/>
    <path id="Tracciato_397" data-name="Tracciato 397" d="M-3723.815,1497.124c1.383-15.8,2.944-37.094,2.944-37.094s7.285-31.469,10.746-41.485c5.584-3.717,10.844-1.021,19.542,1.519-6.179,10.919-10.439,19.976-13.673,30.409-5.2,16.779-7.742,32.342-9.5,50.823Z" fill="#eb6300" fill-rule="evenodd"/>
    <path id="Tracciato_398" data-name="Tracciato 398" d="M-3783.943,1549.591q-3.24,5.5-6.481,11-.294,2.652-.589,5.3l26.707-.2q-.294-3.437-.589-6.873l-5.891-7.855Z" fill="#232d36" fill-rule="evenodd"/>
    <path id="Tracciato_399" data-name="Tracciato 399" d="M-3600.684,1328.311c2.537-7.956,3.244-15.255,4.509-23.5,3.142,5.229,4.9,15.348,4.611,21.357C-3594.874,1326.823-3597.5,1327.718-3600.684,1328.311Z" fill="#eb6300" fill-rule="evenodd"/>
    <path id="Tracciato_400" data-name="Tracciato 400" d="M-3665.587,1438.8c19.921,16.5,43.409,28.2,68.9,37.35-27.574-15.961-39.265-24.13-62.5-45.088A65.493,65.493,0,0,1-3665.587,1438.8Z" fill="#eb6300" fill-rule="evenodd"/>
    <path id="Tracciato_401" data-name="Tracciato 401" d="M-3590.225,1495.515l1.132,7.636,23.419,48.4-4.121,6.393a44.049,44.049,0,0,0,.3-8.351c-10.556-18.919-15.167-29.778-30.221-46.491-.5-4.3-.3-5.669-.488-9.522Z" fill="#3b424c" fill-rule="evenodd"/>
    <g id="Raggruppa_199" data-name="Raggruppa 199" opacity="0.23">
      <path id="Tracciato_402" data-name="Tracciato 402" d="M-3777.977,1541.8c9.524-10.515,20.832-21.328,29.761-29.463l33.958-11.27c-.8-.723-7.988-3.17-8.849-3.936-13.2.645-14.527.8-25.952,5.344-9.186,10.218-21.33,26.9-30.249,40.149Z" fill="#5a1824" fill-rule="evenodd" opacity="0.23" style="mix-blend-mode: overlay;isolation: isolate"/>
      <path id="Tracciato_403" data-name="Tracciato 403" d="M-3777.977,1541.8c9.524-10.515,20.832-21.328,29.761-29.463l13.656-4.532,1.861-10.582c-5.5.413-9.876,2.675-16.36,5.252-9.186,10.218-21.33,26.9-30.249,40.149Z" fill="#3b424c" fill-rule="evenodd"/>
    </g>
    <path id="Tracciato_404" data-name="Tracciato 404" d="M-3642.8,1389.571l-11.543-13.466-18.275-.481s-12.986,10.581-12.5,12.023c3.848-.961,16.352-6.733,16.352-6.733l10.581,1.443Z" fill="#eb6300"/>
    <path id="Tracciato_405" data-name="Tracciato 405" d="M-3651.109,1393.21l-5.05.241-8.9-3.848,1.2,4.329s6.974,2.645,8.417,2.645A44.908,44.908,0,0,1-3651.109,1393.21Z" fill="#eb6300"/>
    <path id="Tracciato_406" data-name="Tracciato 406" d="M-3678.314,1391.254l7.857.722,4.809-3.286-.641,4.488s-5.773,2.566-7.215,2.566C-3675.428,1395.263-3678.314,1391.254-3678.314,1391.254Z" fill="#eb6300"/>
    <path id="Tracciato_407" data-name="Tracciato 407" d="M-3665.085,1400.072l12.665,4.007-8.016,1.124Z" fill="#eb6300"/>
    <path id="Tracciato_408" data-name="Tracciato 408" d="M-3675.156,1404.031l8.466-3.558-2.053,4.921Z" fill="#eb6300"/>
    <g id="Raggruppa_200" data-name="Raggruppa 200">
      <path id="Tracciato_409" data-name="Tracciato 409" d="M-3628.127,1287.378h0l1.145-2.145-21.781-34.112-21.687,31.714c.723,3.366,4.629,8.8,6.681,11.791,1.6,2.328,18.143,10.7,18.143,10.7l6.171-2.345,7.143-10.658Z" fill="#e79b54"/>
      <path id="Tracciato_410" data-name="Tracciato 410" d="M-3628.127,1287.379h0l-4.185,4.949-7.143,10.658-5.288,7.891-21.088-12.823-8.214-15.585-7.064.492,9.536,20.788,29.8,17.281s20.534-19,20.7-19.8Z" fill="#232d36"/>
    </g>
    <path id="Tracciato_411" data-name="Tracciato 411" d="M-3656.118,1256.011l-3.945,16.392,12.21,18.791,15.674,2.966,6.791-10.767,4.689.221-17.109-12.894Z" fill="#cb7d35" opacity="0.85"/>
    <path id="Tracciato_412" data-name="Tracciato 412" d="M-3654.1,1243.651c-.085.64-.191,2.148-1.388,2.3a45.954,45.954,0,0,0,.592,6.331c1.472,9.061,1.525,10.7,2.388,16.649,2.21,5.723.96,10.12,1.959,13.16,1.086.4,7.255,4.451,10.192,5.339,6.826,1.117,14.376,1.823,17.7,1.569.448-.127,2.612-1.144,6.547-2.631,1.327-2.589,1.952-6.733,3.475-11.1-1.385-2.872-2.677-11.748-3.169-13.345.339-1.526.781-3.01,1.128-5.335-.522-2.324-2-7.256-2.66-10.1l-.49-10.891s.1-3.306.426-3.7C-3630.2,1226.869-3648.286,1227.136-3654.1,1243.651Z" fill="#eab070"/>
    <path id="Tracciato_413" data-name="Tracciato 413" d="M-3618.685,1249.417l.646,2.31-.969,1.937-2.839,1.055-2.513.318-.91-3.371.617-3.989Z" fill="#d38e4f"/>
    <path id="Tracciato_414" data-name="Tracciato 414" d="M-3621.8,1209.578c-.5,2.291-1.139,6.637-7.088,7.39-9.638,1.218-15.155,3.766-20.27,5.252a67.435,67.435,0,0,0-9.007,5.439c-1.553,5.9.861,9.288.861,9.288-.309,2.953,1.324,7.139,1.907,12.073,1.2-.154,3.6.26,3.688-.38,1.069-4.807.925-8.489,3.608-11.983a28.868,28.868,0,0,1,9.167-.276c5.616,1.835,12.038,5.8,21.716.8C-3610.277,1231.233-3603.75,1216.958-3621.8,1209.578Z" fill="#1e1612"/>
    <path id="Tracciato_415" data-name="Tracciato 415" d="M-3659.167,1247.108c1.055-2.792,3.239-1.818,4.088-1.313a4.3,4.3,0,0,1,2.249,3.4c.179,1.115.477,2.768-.032,3.775l-1.513,6.86-2.438-1.045S-3659.7,1248.53-3659.167,1247.108Z" fill="#eab070"/>
    <path id="Tracciato_416" data-name="Tracciato 416" d="M-3617.726,1248.289l-4.84-3.426-2.277,2.632,6.717,2.217Z" fill="#2f2622"/>
    <path id="Tracciato_417" data-name="Tracciato 417" d="M-3631.793,1259.01l8.16.521-2.635,2.494-2.229.47Z" fill="#cb7d35"/>
    <path id="Tracciato_418" data-name="Tracciato 418" d="M-3634.8,1246.069l3.922.854-.792,4.436-2.473,3.93-7.2-2.573-1.82-2.253.429-3.246Z" fill="#d38e4f"/>
    <path id="Tracciato_419" data-name="Tracciato 419" d="M-3636.687,1248.749l3.9.422.479,1.292-8.773.366Z" fill="#382625"/>
    <path id="Tracciato_420" data-name="Tracciato 420" d="M-3641.9,1245.624l10-2.242.87,3.572-11.148.8Z" fill="#2f2622"/>
    <path id="Tracciato_421" data-name="Tracciato 421" d="M-3624.406,1250.417l2.568-.039,2.722,1.992-5.857-1Z" fill="#382625"/>
    <path id="Tracciato_422" data-name="Tracciato 422" d="M-3653.19,1252.44c-.348-1.442-3.674-5.065-3.674-5.065l-.435,2.679,1.209,6.259,1.322-1.227,1.787,2.279S-3654.663,1253.126-3653.19,1252.44Z" fill="#d38e4f"/>
    <path id="Tracciato_423" data-name="Tracciato 423" d="M-3630.477,1277l6.238.64-1.762,1.636-2.172-.149Z" fill="#d38e4f"/>
    <path id="Tracciato_424" data-name="Tracciato 424" d="M-3654.689,1245.815s17.15-3.309,27.034-2.391a32.173,32.173,0,0,1,10.924,2.774l2.007,7.939s-1.661,3.4-4.7,3.047c-1.82-.213-4.758-2.969-6.927-3.263-1.761-.239-4.021,2.736-10.711,2.3-2.687-.174-7.123-3.838-9.247-4.871-1.743-.847-6.371-1.414-6.371-1.414Z" fill="#232d36"/>
    <path id="Tracciato_425" data-name="Tracciato 425" d="M-3643.571,1247.765c.339-1.894,7.538-1.555,7.538-1.555s5.63.845,5.841,2.495c.22,1.73-3.153,3.764-4.662,3.842C-3637.763,1252.7-3643.991,1250.113-3643.571,1247.765Z" fill="#eab070"/>
    <path id="Tracciato_426" data-name="Tracciato 426" d="M-3624.988,1249.782c.133.972,2.5,2.405,3.62,3.042,3.035,1.726,4.984.141,4.881-1.316a2.739,2.739,0,0,0-1.425-2.187,6.755,6.755,0,0,0-4.141-1.207C-3623.68,1248.277-3625.131,1248.729-3624.988,1249.782Z" fill="#eab070"/>
    <path id="Tracciato_427" data-name="Tracciato 427" d="M-3641.247,1249.918l4.347-2.186,5.206,1.39Z" fill="#1e1612"/>
    <path id="Tracciato_428" data-name="Tracciato 428" d="M-3623.51,1250.481l3.531-.827,2.7,2.2Z" fill="#1e1612"/>
    <path id="Tracciato_429" data-name="Tracciato 429" d="M-3619.84,1260.9l2.664.261.487,3.626-1.7-2.451Z" fill="#d38e4f"/>
    <path id="Tracciato_430" data-name="Tracciato 430" d="M-3644.745,1266.861l-2.563-5.525,8.3-.584-4.614,2.024Z" fill="#d38e4f"/>
    <path id="Tracciato_431" data-name="Tracciato 431" d="M-3626.919,1212.393s2.908,2.779.162,5.05,5.324.544,5.324.544S-3620.983,1212-3626.919,1212.393Z" fill="#1e1612"/>
    <path id="Tracciato_432" data-name="Tracciato 432" d="M-3632.45,1217.746s4.138-.263,5.262-1.166c2.992-.689,4.214,1.874,5.328,2.426,3.435,1.705,3.135-.455,4.155-.243,3.136.651,1.638,2.885,2.776,3.319a26.627,26.627,0,0,0,4.865.693s-.531,7.233-2.431,8.032c-1.263.531-3.167-1.559-5.472-.233-1.187.684-1.095-2.438-5.12-1.964-1.281.151-.438-4.345-1.6-4.912-1.032-.5-3.168.658-4.175.1C-3629.835,1223.266-3632.45,1217.746-3632.45,1217.746Z" fill="#434140" opacity="0.52"/>
    <g id="Raggruppa_201" data-name="Raggruppa 201" opacity="0.36">
      <path id="Tracciato_433" data-name="Tracciato 433" d="M-3647.485,1236.142l-.216-.431,16.769-8.4c8.712-4.363,12.179-9.876,10.6-16.853l.469-.1c1.638,7.223-1.912,12.911-10.85,17.388Z" fill="#59524e"/>
    </g>
    <g id="Raggruppa_202" data-name="Raggruppa 202" opacity="0.63">
      <path id="Tracciato_434" data-name="Tracciato 434" d="M-3626.626,1239.571a.236.236,0,0,1-.156-.1.24.24,0,0,1,.064-.334c.186-.127,18.615-12.841,12.079-24.528a.242.242,0,0,1,.092-.327.24.24,0,0,1,.328.093c6.75,12.07-12.039,25.03-12.229,25.159A.238.238,0,0,1-3626.626,1239.571Z" fill="#59524e"/>
    </g>
    <path id="Tracciato_435" data-name="Tracciato 435" d="M-3649.84,1261.878l1.467,4.81,1.51,5.161-3.358-3.367Z" fill="#d38e4f"/>
    <path id="Tracciato_436" data-name="Tracciato 436" d="M-3632.179,1287.005l2.31,3.039,6.836.4,1.759-3.137Z" fill="#eab070"/>
    <path id="Tracciato_437" data-name="Tracciato 437" d="M-3627.358,1286.925l1.376-1.022.239,2.188-.614.763Z" fill="#d38e4f"/>
    <path id="Tracciato_438" data-name="Tracciato 438" d="M-3619.921,1267.62c-9.325-.2-21.164-4.473-21.164-4.473v3.842a17.8,17.8,0,0,0-.684,2.943c6.133,1.418,8.975,2.743,18.369,1.393C-3622.125,1269.849-3621.463,1269.236-3619.921,1267.62Z" fill="#fff" fill-rule="evenodd"/>
    <path id="Tracciato_439" data-name="Tracciato 439" d="M-3639.693,1266.863l7.049,1.27,6.363.561-5.706.775-5.648-1.268Z" fill="#cac1ca"/>
    <path id="Tracciato_440" data-name="Tracciato 440" d="M-3688.231,1420.731c-5.8,1.756-13.651-2.2-19.459-5.126-.8-13.246.543-11.682-.165-25.309-5.24-24.109-12.795-43.1-12-64.4l20.015-9.094c1.181,7.468,3,21.733,5.663,28.612,4.928,5.128,13.529,8.6,20.963,10.9a51.192,51.192,0,0,0,6.293.581c-8.119,3.939-16.268,4.593-24.243,7.379C-3693.4,1385.428-3684.923,1401.148-3688.231,1420.731Z" fill="#eb6300" fill-rule="evenodd"/>
    <path id="Tracciato_441" data-name="Tracciato 441" d="M-3646.818,1410.659c-15.885,4.886-44.455,2.279-61.133-2.162-1.3,3.276-2.439,11.179-2.439,11.179s19.275-1.348,29.884,9.671c3.427,3.56,4.825,7.773,6.455,10.3,3.8.3,3.987.417,7.362-.2C-3663.5,1437.189-3649.472,1419.547-3646.818,1410.659Z" fill="#232d36" fill-rule="evenodd"/>
    <path id="Tracciato_442" data-name="Tracciato 442" d="M-3621.781,1355.869l-15.369,4.155,10.116,3.173Z" fill="#eb6300" fill-rule="evenodd"/>
    <path id="Tracciato_443" data-name="Tracciato 443" d="M-3609.211,1324.942l-2.485,7.775-8.337,11.222-34.146-2.886,17.914,6.981,14.308,3.921a5.7,5.7,0,0,0,5.13-3.207l7.376-15.069Z" fill="#eb6300"/>
    <path id="Tracciato_444" data-name="Tracciato 444" d="M-3666.666,1281.234l6.493,11.542-.874-10.32Z" fill="#cb7d35"/>
    <path id="Tracciato_445" data-name="Tracciato 445" d="M-3651.246,1290.9l2.4,11.3.481-9.378Z" fill="#cb7d35"/>
    <g id="Raggruppa_203" data-name="Raggruppa 203">
      <path id="Tracciato_446" data-name="Tracciato 446" d="M-3644.887,1314.529c7.109,4.47,9.379,6.191,9.539,9.818.12,2.7.066,6.8-5.4,12.117Q-3642.816,1325.5-3644.887,1314.529Z" fill="#232d36" fill-rule="evenodd"/>
      <path id="Tracciato_447" data-name="Tracciato 447" d="M-3644.112,1314.564c-14.379,7.962-13.244,13.3-6.925,24.776,1.5-3.988,2.985-7.609,4.2-11.279A50.9,50.9,0,0,0-3644.112,1314.564Z" fill="#232d36" fill-rule="evenodd"/>
    </g>
    <g id="Raggruppa_206" data-name="Raggruppa 206">
      <g id="Raggruppa_205" data-name="Raggruppa 205">
        <path id="Tracciato_448" data-name="Tracciato 448" d="M-3545,1289.6s-11.18-3.656-14.694-4.477c-7.01-1.639-30.507.876-30.507.876l-7.2,1.723-10.863,29.02,8.779,12.038s14.045-4.178,18.264-5.462c25.115,5.9,39-9.472,56.022-15.919,1.253-4.185,1.8-5.836,2.116-15.537-.412-3.738-3.933-19.491-4.454-23.5-5.768,3.192-8.531,2.787-14.646,2.019l-3.819,9.275Z" fill="#f58600"/>
        <path id="Tracciato_449" data-name="Tracciato 449" d="M-3549.89,1295.739l4.934-3.485.085-2.45-11.7-3.474,7.156,4.085Z" fill="#eb6300"/>
        <path id="Tracciato_450" data-name="Tracciato 450" d="M-3583.263,1316.823l2.9-2.4-1.243-5.168,5.066,5.386-1.943,1.665Z" fill="#eb6300"/>
        <g id="Raggruppa_204" data-name="Raggruppa 204">
          <path id="Tracciato_451" data-name="Tracciato 451" d="M-3537.807,1238.1l-2.7,21.132.422,4.2-4.242,12.337c1.813,2.027,6.906,5.513,11.941,7.249l-.749-19.1,3.827,15.168-.207,4.717a10.031,10.031,0,0,0,5.09-.126c-1.527-9.214-4.51-23.129-5.254-27.237a69.508,69.508,0,0,1,.166-7.29Z" fill="#232d36"/>
          <path id="Tracciato_452" data-name="Tracciato 452" d="M-3532.386,1283.027l-.006,11.8,2.746-8.02.131-3a21.084,21.084,0,0,1-2.871-.782Z" fill="#eb6300"/>
          <path id="Tracciato_453" data-name="Tracciato 453" d="M-3533.135,1263.919l.749,19.1a21.084,21.084,0,0,0,2.871.782l.207-4.717Z" fill="#3b424c"/>
        </g>
        <path id="Tracciato_454" data-name="Tracciato 454" d="M-3535.089,1306.053l5.368-1.534,1.6-7.055-3.356,5.616Z" fill="#eb6300"/>
        <path id="Tracciato_455" data-name="Tracciato 455" d="M-3600.284,1317.349l-2.926-2.794.294-2.08,3.781,2.041Z" fill="#eb6300"/>
        <path id="Tracciato_456" data-name="Tracciato 456" d="M-3568.124,1312.031l9.58,2.026,4.364-2.628-5.168.441Z" fill="#eb6300"/>
      </g>
      <path id="Tracciato_457" data-name="Tracciato 457" d="M-3583.131,1292l-3.521-1.992-1.905.884,3.049,3.028Z" fill="#eb6300"/>
    </g>
    <g id="Raggruppa_207" data-name="Raggruppa 207">
      <rect id="Rettangolo_99" data-name="Rettangolo 99" width="9.598" height="37.644" transform="translate(-3535.934 1225.129) rotate(22.619)" fill="#d1d2d2"/>
      <path id="Tracciato_458" data-name="Tracciato 458" d="M-3535.945,1219.23l13.066,5.444a6.334,6.334,0,0,1,3.411,8.282,6.332,6.332,0,0,1-8.282,3.41l-13.067-5.444a6.332,6.332,0,0,1-3.41-8.282A6.332,6.332,0,0,1-3535.945,1219.23Z" fill="#f37e03"/>
      <path id="Tracciato_459" data-name="Tracciato 459" d="M-3450.059,1028.815a107.994,107.994,0,0,0-141.223,58.155,108,108,0,0,0,58.154,141.223,108,108,0,0,0,141.224-58.155A108,108,0,0,0-3450.059,1028.815Zm52.792,105.316a94.828,94.828,0,0,1-100.043,89.307,94.826,94.826,0,0,1-89.306-100.042,94.825,94.825,0,0,1,100.042-89.307A94.827,94.827,0,0,1-3397.267,1134.131Z" fill="#f8b20b"/>
      <path id="Tracciato_460" data-name="Tracciato 460" d="M-3612.9,1424.875a14.673,14.673,0,0,1-7.9-19.188l67.726-151.53,17.013,7.169-57.65,155.648A14.673,14.673,0,0,1-3612.9,1424.875Z" fill="#babcbd"/>
      <path id="Tracciato_461" data-name="Tracciato 461" d="M-3620.082,1410.129l5.069,3.8,5.879,1.472,4.351-.892,63-152.484,4.728,1.992-57.588,152.347c-2.493,5.905-11.827,9.643-17.43,6.521C-3617.538,1419.841-3619.289,1415.788-3620.082,1410.129Z" fill="#d1d2d2"/>
      <path id="Tracciato_462" data-name="Tracciato 462" d="M-3621.468,1407.315a14.673,14.673,0,0,0,8.234,18.3c7.248,3.019,15.845.813,20.051-8.8l-11.51.208-11.231-4.919Z" fill="#e7e9e5"/>
    </g>
    <g id="Raggruppa_208" data-name="Raggruppa 208">
      <path id="Tracciato_463" data-name="Tracciato 463" d="M-3522.812,1249.863l-7.3,5.758-.06-6.725-4.423-3.432-3.212-10.644s.549-2.193,1.409-2.172,9.206.589,9.206.589l5.36,14.573Z" fill="#232d36"/>
      <path id="Tracciato_464" data-name="Tracciato 464" d="M-3542.608,1241.629l-4.708,10.953-1.143-6.626.3-5.312,2.647-3.851s1.265-1.875,2.065-1.561,6.552,3.5,6.552,3.5l-2.209,2.932Z" fill="#232d36"/>
    </g>
    <g id="Raggruppa_210" data-name="Raggruppa 210">
      <g id="Raggruppa_209" data-name="Raggruppa 209">
        <path id="Tracciato_465" data-name="Tracciato 465" d="M-3631.169,1360.357c-7.658.543-16.33,5.275-24.137,8.238-10.74,4.077-15.744,4.526-21.978,4.909-10.336.635-19.432-3.259-35.631-10.009-2.321-4.419-4.532-8.465-6.854-12.884-4.252-7.22-5.555-11.665-6.153-16.7-.593-5-.372-15.782,3.068-27.353-1.513-19.519,15.095-34.31,29.553-27.415,14.358,6.846,8.833,28.942,5.65,41.342-1.661,6.467-4.864,12.733-6.185,18.933,7.092-.773,19.966,3.221,32.931,8.5,7.417,3.019,18.6,3.009,24.151,4C-3630.541,1355.18-3629.482,1358.1-3631.169,1360.357Z" fill="#f58600" fill-rule="evenodd"/>
      </g>
      <path id="Tracciato_466" data-name="Tracciato 466" d="M-3725.95,1323.306a81.892,81.892,0,0,1,3.1-16.749,29.062,29.062,0,0,1,8.083-22.939c-4.624,8.862-6.956,18.192-3.1,24.8C-3721.256,1312.762-3723.984,1318.551-3725.95,1323.306Z" fill="#eb6300" fill-rule="evenodd"/>
      <path id="Tracciato_467" data-name="Tracciato 467" d="M-3634.685,1353.217c-13.977-1.543-19.745-2.467-33.739-.919-9.91-8.9-15.527-12.525-31.358-10.524,3.935-11.221,6.311-16.017,3.123-30.639a45.633,45.633,0,0,0,12.02-11.989c-1.718,9.163-3.256,17.272-4.38,25.825-1.683,4.9-3.8,9.689-4.818,14.446,7.093-.773,19.967,3.221,32.931,8.5,7.418,3.019,18.6,3.009,24.151,4q1.159.609,2.083,1.2Z" fill="#eb6300" fill-rule="evenodd"/>
    </g>
    <g id="Raggruppa_211" data-name="Raggruppa 211">
      <path id="Tracciato_468" data-name="Tracciato 468" d="M-3534.7,1265.4a3.493,3.493,0,0,1-1.359-.275l-19.584-8.219a3.515,3.515,0,0,1-1.88-4.6,3.516,3.516,0,0,1,4.6-1.881l19.583,8.22a3.515,3.515,0,0,1,1.881,4.6A3.516,3.516,0,0,1-3534.7,1265.4Z" fill="#e7e9e5"/>
    </g>
    <path id="Tracciato_469" data-name="Tracciato 469" d="M-3617.812,1365.58c-16.329,5.956-31.181,8.146-48.621,11.192a111.3,111.3,0,0,1-13.111-5.071l-.118-.461c-2.995-11.735-2.422-20.226,1.857-27.528l.268-.457a59.06,59.06,0,0,1,18.983-1.14c17.171,3.857,33.937,7.978,51.224,11.277l.017.222a50.533,50.533,0,0,1,13.645-6.86c2.637-.538,13.225,7.285,13.225,7.285l-6.613,23.31-6.867-1.445s-2.578-4.621-2.915-4.488a24.2,24.2,0,0,1-6.324-.373c-3.1-.394-4.968-2.4-7.313-2.4l-7.337-3.061" fill="#232d36" fill-rule="evenodd"/>
    <g id="Raggruppa_212" data-name="Raggruppa 212">
      <path id="Tracciato_470" data-name="Tracciato 470" d="M-3601.03,1371.334l8.187-2.616,4.443,7.4-4.931-1.009-3.507-3.692Z" fill="#3b424c"/>
    </g>
    <g id="Raggruppa_214" data-name="Raggruppa 214">
      <g id="Raggruppa_213" data-name="Raggruppa 213">
        <path id="Tracciato_471" data-name="Tracciato 471" d="M-3681.03,1364.525a66.341,66.341,0,0,0,1.368,6.715l.118.46a111.341,111.341,0,0,0,13.111,5.072c16.91-2.954,31.387-5.1,47.137-10.66l-48.988-2.131Z" fill="#3b424c"/>
      </g>
    </g>
    <path id="Tracciato_472" data-name="Tracciato 472" d="M-3528.348,1202.2a81.013,81.013,0,0,0,41.51,7.412,81.421,81.421,0,0,1-16.011-92,81.356,81.356,0,0,1,66.735-46.551,81.233,81.233,0,0,0-23.128-16.241,81.391,81.391,0,0,0-108.245,39.139A81.39,81.39,0,0,0-3528.348,1202.2Z" fill="#fff" opacity="0.603"/>
  </g>
</svg>
