<svg xmlns="http://www.w3.org/2000/svg" width="299.492" height="354.542" viewBox="0 0 299.492 354.542">
  <g id="Raggruppa_221" data-name="Raggruppa 221" transform="translate(0)">
    <g id="Raggruppa_221-2" data-name="Raggruppa 221" transform="translate(14.639 24.838)">
      <path id="Tracciato_473" data-name="Tracciato 473" d="M-3094.313,289.54a1.831,1.831,0,0,0,1.831,1.831,1.83,1.83,0,0,0,1.83-1.831,1.83,1.83,0,0,0-1.83-1.831A1.831,1.831,0,0,0-3094.313,289.54Z" transform="translate(3104.104 -251.372)" fill="#bababa"/>
      <path id="Tracciato_474" data-name="Tracciato 474" d="M-3086.394,286.816v1.03c0,.952-1.059,1.725-2.364,1.725h-7.433c-1.305,0-2.364-.773-2.364-1.725v-1.03Z" transform="translate(3104.237 -251.403)" fill="#bababa"/>
      <path id="Tracciato_475" data-name="Tracciato 475" d="M-3086.032,282.2c0-9.053,5.508-10.511,5.508-17.907a11.7,11.7,0,0,0-11.7-11.695,11.7,11.7,0,0,0-11.695,11.695c0,5.575,5.619,9.873,5.619,18.085Z" transform="translate(3103.914 -252.602)" fill="#ffd400"/>
      <path id="Tracciato_476" data-name="Tracciato 476" d="M-3095.115,275.045c.7-4.845,2.606-10.8.948-15.447-1.457-4.081-4.081-5.611-9.747-6.358a11.683,11.683,0,0,1,3.808-.638,11.7,11.7,0,0,1,11.695,11.695c0,7.4-5.507,8.854-5.507,17.907l-7.171.143C-3100.382,281.716-3095.962,280.947-3095.115,275.045Z" transform="translate(3111.801 -252.602)" fill="#ffb700"/>
      <path id="Tracciato_477" data-name="Tracciato 477" d="M-3092.3,263.846c0,3.642,2.979,10.237,5.756,10.237s4.3-6.6,4.3-10.237-1.231-8.779-4.008-8.779S-3092.3,260.2-3092.3,263.846Z" transform="translate(3093.61 -252.516)" fill="#fff" style="mix-blend-mode: soft-light;isolation: isolate"/>
      <path id="Tracciato_478" data-name="Tracciato 478" d="M-3085.5,281.91a.9.9,0,0,1-.9.9h-11.967a.9.9,0,0,1-.9-.9h0a.9.9,0,0,1,.9-.9h11.967a.9.9,0,0,1,.9.9Z" transform="translate(3104.078 -251.607)" fill="#bababa"/>
      <path id="Tracciato_479" data-name="Tracciato 479" d="M-3085.509,281.994a.9.9,0,0,1-.89.784h-11.967a.9.9,0,0,1-.89-.784Z" transform="translate(3104.078 -251.572)" fill="#bababa" style="mix-blend-mode: multiply;isolation: isolate"/>
      <path id="Tracciato_480" data-name="Tracciato 480" d="M-3098.388,281.456a.237.237,0,0,0,.236.237h11.622a.238.238,0,0,0,.237-.237h0a.237.237,0,0,0-.237-.236h-11.622a.236.236,0,0,0-.236.236Z" transform="translate(3103.963 -251.599)" fill="#fff" style="mix-blend-mode: soft-light;isolation: isolate"/>
      <rect id="Rettangolo_100" data-name="Rettangolo 100" width="12.132" height="3.579" transform="translate(5.711 31.205)" fill="#bababa"/>
      <path id="Tracciato_481" data-name="Tracciato 481" d="M-3085.552,283.686a.9.9,0,0,1-.8.993l-11.9,1.287a.9.9,0,0,1-.993-.8h0a.9.9,0,0,1,.8-.994l11.9-1.287a.9.9,0,0,1,.993.8Z" transform="translate(3104.109 -251.541)" fill="#bababa"/>
      <path id="Tracciato_482" data-name="Tracciato 482" d="M-3085.578,283.774a.9.9,0,0,1-.8.874l-11.9,1.287a.9.9,0,0,1-.968-.683Z" transform="translate(3104.135 -251.51)" fill="#bababa" style="mix-blend-mode: multiply;isolation: isolate"/>
      <path id="Tracciato_483" data-name="Tracciato 483" d="M-3098.323,284.631a.237.237,0,0,0,.26.211l11.555-1.249a.238.238,0,0,0,.21-.261h0a.236.236,0,0,0-.261-.21l-11.555,1.248a.237.237,0,0,0-.209.261Z" transform="translate(3103.901 -251.533)" fill="#fff" style="mix-blend-mode: soft-light;isolation: isolate"/>
      <path id="Tracciato_484" data-name="Tracciato 484" d="M-3085.5,286.86a.9.9,0,0,1-.9.9h-11.967a.9.9,0,0,1-.9-.9h0a.9.9,0,0,1,.9-.9h11.967a.9.9,0,0,1,.9.9Z" transform="translate(3104.078 -251.433)" fill="#bababa"/>
      <path id="Tracciato_485" data-name="Tracciato 485" d="M-3085.509,286.944a.9.9,0,0,1-.89.783h-11.967a.9.9,0,0,1-.89-.783Z" transform="translate(3104.078 -251.399)" fill="#bababa" style="mix-blend-mode: multiply;isolation: isolate"/>
      <path id="Tracciato_486" data-name="Tracciato 486" d="M-3098.388,286.406a.237.237,0,0,0,.236.237h11.622a.238.238,0,0,0,.237-.237h0a.238.238,0,0,0-.237-.237h-11.622a.237.237,0,0,0-.236.237Z" transform="translate(3103.963 -251.426)" fill="#fff" style="mix-blend-mode: soft-light;isolation: isolate"/>
    </g>
    <g id="Raggruppa_222" data-name="Raggruppa 222" transform="translate(123.798 70.886)">
      <path id="Tracciato_487" data-name="Tracciato 487" d="M-3278.888,316.049c13.09,21.094,40.555,66.145,57.845,82.21,15.577,14.474,34.785,27.618,40.139,30.693-1.234,12.493-2.218,23.883-6.239,28.256-11.285-3.242-47.592-8.052-50.164,8.36-.614,3.923.7,9.058,4.739,15.715-5.017,6.512-17.118,15.241-34.789,16.68-5.563-.667-13.007-3.328-20.05-7.445-12.672-7.407-36.253-17.595-43.145-22.373-6.532-30.285,4.75-66.806-1.781-97.091-5.938-22.566-16.219-48.027-22.158-70.592C-3328.082,292.528-3294.567,298.954-3278.888,316.049Z" transform="translate(3354.491 -297.091)" fill="#d1d2d2" fill-rule="evenodd"/>
      <path id="Tracciato_488" data-name="Tracciato 488" d="M-3256.6,479.491c-16.763-33.991-33.457-80.274-48.212-115.687,5.345,35.556,16.7,94.271,16.924,131.386C-3276.6,493.59-3265.474,488.924-3256.6,479.491Z" transform="translate(3378.765 -294.754)" fill="#babcbd" fill-rule="evenodd"/>
      <path id="Tracciato_489" data-name="Tracciato 489" d="M-3250.208,456.048c-11.786-3.237-47.155-7.7-49.693,8.491a16.448,16.448,0,0,0,.874,7.641c-16.034-34.663-35.2-87.182-48.779-119.76-1.143-11.256,2.575-32.646,11.405-23.947,23.07,47.118,70.441,95.45,86.194,127.574Zm-45.078,24,.124.2-.014.019Z" transform="translate(3417.084 -296.063)" fill="#d1d2d2" fill-rule="evenodd"/>
      <path id="Tracciato_490" data-name="Tracciato 490" d="M-3354.812,315.455c13.09,21.094,40.555,66.145,57.845,82.21,15.577,14.474,34.784,27.618,40.139,30.693,4.625,18.088,1.069,36.593-5.146,40.161-37.333-48.4-65.138-89.777-94.553-154.477Q-3355.651,314.748-3354.812,315.455Z" transform="translate(3430.415 -296.497)" fill="#e7e9e5" fill-rule="evenodd"/>
    </g>
    <g id="Raggruppa_223" data-name="Raggruppa 223" transform="translate(27.375 69.641)">
      <path id="Tracciato_491" data-name="Tracciato 491" d="M-3156.5,340.794l7.934-12.051,25.733-16.605,6.726-2.664,25.681,17.832-.423,14.945s-13.991,4.523-18.21,5.858c-17.425,19.144-37.638,14.319-55.383,18.658-3.415-2.75-4.8-3.807-10.578-11.65-1.783-3.326-7.819-18.356-9.665-21.968,6.584-.635,8.64-2.541,13.262-6.65L-3163,332Z" transform="translate(3184.689 -295.412)" fill="#f58600"/>
      <path id="Tracciato_492" data-name="Tracciato 492" d="M-3147.652,312.5c-4.253-1.843-14.785-7.259-14.785-7.259l-19.78-7.018-12.547-2.339s-10.916,1.417-15.878,1.984c-7.282,3.768-19.475,3.571-36.488,12.078l-7.177,10.039c-7.6,12.818,9.06,31.162,9.06,31.162l10.079,16.189,12.334,22.967s-5.448,22.907-8.817,38.8c6.805,3.4,63.576,4.313,63.576,4.313l-2.021-1.01,2.835-2.411,2.836-13.044-5.671-32.889,13.4-29.276,2.765-5.1C-3152.627,334.58-3145.809,327.776-3147.652,312.5Z" transform="translate(3315.708 -295.888)" fill="#f58600"/>
    </g>
    <g id="Raggruppa_225" data-name="Raggruppa 225" transform="translate(21.34 79.446)">
      <path id="Tracciato_493" data-name="Tracciato 493" d="M-3156.741,340.348l7.933-12.051,25.733-16.606,6.726-2.664,25.681,17.832-.423,14.945s-13.991,4.523-18.21,5.858c-17.425,19.144-37.638,14.319-55.384,18.658-3.415-2.75-4.8-3.807-10.577-11.65-1.783-3.326-7.819-18.356-9.665-21.968,6.584-.635,8.641-2.541,13.262-6.65l8.427,5.5Z" transform="translate(3191.208 -305.233)" fill="#f58600"/>
      <path id="Tracciato_494" data-name="Tracciato 494" d="M-3120.863,339.414l-5.478,2.405-1.462-1.978,6.023-9.518-1.492,6.6Z" transform="translate(3162.278 -304.487)" fill="#eb6300"/>
      <path id="Tracciato_495" data-name="Tracciato 495" d="M-3158.193,340.22l-3.758-.338-1.907-4.981-1.13,7.333,2.553.273Z" transform="translate(3238.096 -304.326)" fill="#eb6300"/>
      <g id="Raggruppa_224" data-name="Raggruppa 224">
        <path id="Tracciato_496" data-name="Tracciato 496" d="M-3111.341,319.68c1.718,3.82,8.432,19.1,12.4,27.585a10.066,10.066,0,0,0,4.285-2.783l-2.854-3.788-5.451-14.721,10.236,16.231c3.178-4.3,5.408-10.077,5.757-12.784L-3106,305.361" transform="translate(3111.341 -305.361)" fill="#232d36"/>
        <path id="Tracciato_497" data-name="Tracciato 497" d="M-3110.328,340.956h0l6.706,9.753-6.827-5.074-1.809-2.4A21.291,21.291,0,0,0-3110.328,340.956Z" transform="translate(3128.947 -304.114)" fill="#eb6300"/>
        <path id="Tracciato_498" data-name="Tracciato 498" d="M-3105.779,325.274l10.236,16.231a21.285,21.285,0,0,1-1.93,2.278l-2.854-3.788Z" transform="translate(3114.163 -304.663)" fill="#3b424c"/>
      </g>
      <path id="Tracciato_499" data-name="Tracciato 499" d="M-3109.932,357.981l-5.312,1.781-5.335-4.924,5.966,2.738Z" transform="translate(3143.868 -303.628)" fill="#eb6300"/>
      <path id="Tracciato_500" data-name="Tracciato 500" d="M-3177.126,331.3l.833-3.973-1.425-1.553-1.968,3.836Z" transform="translate(3271.407 -304.646)" fill="#eb6300"/>
      <path id="Tracciato_501" data-name="Tracciato 501" d="M-3138.383,344.52l-6.773,7.118-5.1.306,4.526-2.572Z" transform="translate(3203.042 -303.989)" fill="#eb6300"/>
    </g>
    <path id="Tracciato_502" data-name="Tracciato 502" d="M-3236.932,342.16c-5.3-6.359-9.325-9.75-11.162-11.87-.284-1.7-1.449-4.1-1.732-5.512-3.277-5.058-9.362-9.185-13.035-12.293-1.555-.333-3.321,0-7.842-.848-6.359-2.826-20.589-9.71-24.022-10.739,1.837,15.905,9.466,32.217,15.4,45.784l2.827,1.413,1.7,13.565,13.733,12.054-4.549,13.805c1.824,4.509-4.959,11.418-2.869,15.868l17.988-6.683a115.027,115.027,0,0,0,21.762-14.7C-3228.308,376.422-3232.057,354.877-3236.932,342.16Z" transform="translate(3464.227 -226.072)" fill="#f58600"/>
    <path id="Tracciato_503" data-name="Tracciato 503" d="M-3157.021,421.933l1.936-11.544-39.522-6.825s-10.6,34.2-14.414,51.577a257.361,257.361,0,0,0,1.978,27.555c-1.342,8.2-8.751,15.878-11.975,28.145,1.357,3.357.132,20.03,2.959,20.93,5.563,1.774,15.7-8.441,21.559-11.392a56.121,56.121,0,0,0,2.4-13.849c.848-4.806.812-11.681,2.719-18.041,2.685-7.207,11.587-22.044,15.543-29.957,3.816-7.631,12.118-31.558,12.118-31.558Z" transform="translate(3312.25 -222.475)" fill="#f58600"/>
    <path id="Tracciato_504" data-name="Tracciato 504" d="M-3208.85,502.43c-6.28-8.025-9.043-21.479-9.043-21.479a121.05,121.05,0,0,1-1.447-22.8c-2.12-6.783-4.794-15.632-7.207-21.2l-14.493-36.086-25.622,8.679-6.906,17.844s9.325,17.241,21.761,37.729c5.222,8.6,7.408,12.165,13.283,21.479a49.12,49.12,0,0,1,6.923,19.641,71.9,71.9,0,0,0,3.25,13.285c7.207.423,14.829,1.046,23.635-.33C-3205.562,513.265-3203.762,508.93-3208.85,502.43Z" transform="translate(3418.34 -222.569)" fill="#f58600"/>
    <g id="Raggruppa_226" data-name="Raggruppa 226" transform="translate(125.05 90.216)">
      <path id="Tracciato_505" data-name="Tracciato 505" d="M-3187.547,315.942c-8.333,2.474-11.074,3.556-12.246,7.127-.873,2.663-1.96,6.759,2,13.583Z" transform="translate(3200.621 -315.761)" fill="#232d36" fill-rule="evenodd"/>
      <path id="Tracciato_506" data-name="Tracciato 506" d="M-3206.591,315.767c12.114,11.944,9.5,16.943,0,26.627-.382-4.393-.856-8.417-1.045-12.414A52.664,52.664,0,0,1-3206.591,315.767Z" transform="translate(3218.883 -315.767)" fill="#232d36" fill-rule="evenodd"/>
    </g>
    <path id="Tracciato_507" data-name="Tracciato 507" d="M-3232.48,298.861l-.646,6.219c2.97,4.9,6.711,8.954,8.744,12.546,6.717-2.974,16.757-9.914,23.431-12.705a12.81,12.81,0,0,0,1.165-5.287l-.005-1.682a71.622,71.622,0,0,1,10.446,2.214,76.264,76.264,0,0,1,9.358,3.193l-.837.428.032.019c-.349.159-.7.33-1.065.509l-.072.037c-11.259,5.613-28.982,20.285-42.668,17.087q-.753-.09-1.514-.231c-6.424-1.2-14.3-5.166-15.481-19.755A37.637,37.637,0,0,1-3232.48,298.861Z" transform="translate(3360.518 -226.175)" fill="#232d36"/>
    <path id="Tracciato_508" data-name="Tracciato 508" d="M-3199.274,228.8s-2.993,1.977-.944,4.406-4.759-.368-4.759-.368S-3204.422,227.518-3199.274,228.8Z" transform="translate(3341.907 -228.604)" fill="#1e1612"/>
    <g id="Raggruppa_230" data-name="Raggruppa 230" transform="translate(120.292 0.024)">
      <g id="Raggruppa_227" data-name="Raggruppa 227" transform="translate(7.1 47.834)">
        <path id="Tracciato_509" data-name="Tracciato 509" d="M-3216.663,291.212v0l25.832-13.4-9.735,5.289Z" transform="translate(3218.166 -274.738)" fill="#e79b54"/>
        <path id="Tracciato_510" data-name="Tracciato 510" d="M-3191.706,298.965v-7.72l.965-.486-.858,8.266Z" transform="translate(3192.244 -274.284)" fill="#cb7d35" opacity="0.85"/>
        <path id="Tracciato_511" data-name="Tracciato 511" d="M-3221.82,299.582l.858-8.267,16.1-8.111,9.734-5.289,5.927-3.074.052,17.143.026,8.358a12.811,12.811,0,0,1-1.166,5.287c-6.674,2.79-16.714,9.731-23.431,12.7-2.033-3.591-5.774-7.643-8.744-12.545Z" transform="translate(3222.465 -274.842)" fill="#e79b54"/>
        <path id="Tracciato_512" data-name="Tracciato 512" d="M-3219.974,300.952l-2.467-1.37.858-8.266,16.1-8.111,9.735-5.289,5.927-3.074.053,17.143-10.152,10.783Z" transform="translate(3223.085 -274.842)" fill="#cb7d35" opacity="0.85"/>
      </g>
      <path id="Tracciato_513" data-name="Tracciato 513" d="M-3182.752,263.042c-.027.577-.173,1.916.853,2.241a41.049,41.049,0,0,1-1.525,5.461c-2.731,7.718-3.038,9.15-4.74,14.232-2.849,4.671-2.45,8.728-3.81,11.237-1.016.176-7.073,2.753-9.791,3.067-6.169-.1-14.795-1.026-17.669-1.777-.372-.182-2.11-1.418-5.327-3.348-.752-2.483-.643-6.22-1.286-10.293,1.672-2.3,2.788-3.861,4.523-6.118.981-1.668,1.583-3.425,2.268-4.748-.056-1.393-.207-2.766-.143-4.861.828-1.957,2.9-6.052,3.939-8.443l2.16-9.479a14.442,14.442,0,0,0,.213-3.317C-3201.058,244.52-3185.23,247.627-3182.752,263.042Z" transform="translate(3226.048 -228.012)" fill="#eab070"/>
      <path id="Tracciato_514" data-name="Tracciato 514" d="M-3198.706,261.945l-.934,1.925.543,1.854,2.324,1.377,2.155.678,1.333-2.813.092-3.6Z" transform="translate(3210.008 -227.48)" fill="#d38e4f"/>
      <path id="Tracciato_515" data-name="Tracciato 515" d="M-3218.552,228.627c.075,2.09-.054,6.005,5.047,7.611,8.265,2.6,12.7,5.712,16.954,7.829a60.048,60.048,0,0,1,7.039,6.2c.427,5.424-2.23,8.015-2.23,8.015-.2,2.64-2.295,6.054-3.592,10.291-1.028-.325-3.2-.345-3.175-.92-.174-4.387.536-7.6-1.263-11.088a25.74,25.74,0,0,0-8-1.7c-5.219.718-11.485,3.175-19.184-2.748C-3232.107,245.8-3235.568,232.235-3218.552,228.627Z" transform="translate(3238.921 -228.627)" fill="#1e1612"/>
      <path id="Tracciato_516" data-name="Tracciato 516" d="M-3222.454,266.251c-.482-2.619-2.553-2.11-3.379-1.8a3.839,3.839,0,0,0-2.513,2.623c-.333.95-.857,2.354-.572,3.317l.238,6.261,2.306-.53S-3222.209,267.583-3222.454,266.251Z" transform="translate(3269.648 -227.381)" fill="#eab070"/>
      <path id="Tracciato_517" data-name="Tracciato 517" d="M-3199.83,260.9l4.792-2.238,1.58,2.672-6.247.879Z" transform="translate(3210.47 -227.575)" fill="#2f2622"/>
      <path id="Tracciato_518" data-name="Tracciato 518" d="M-3191.023,275.5l-10.318,2.112-8.557-1.367-3.421-3.5s-.59,8.365.884,10.567c1.779,2.658,8.238,4.367,12.344,1.93C-3197.317,283.594-3191.023,275.5-3191.023,275.5Z" transform="translate(3222.117 -227.081)" fill="#fff"/>
      <path id="Tracciato_519" data-name="Tracciato 519" d="M-3196.711,272.1l-7.243-.839,1.916,2.607,1.882.766Z" transform="translate(3217.993 -227.133)" fill="#cb7d35"/>
      <path id="Tracciato_520" data-name="Tracciato 520" d="M-3211.452,261.559l-3.577.126-.01,4.019,1.546,3.842,6.726-1.115,1.955-1.687.139-2.917Z" transform="translate(3237.427 -227.473)" fill="#d38e4f"/>
      <path id="Tracciato_521" data-name="Tracciato 521" d="M-3208.976,264.131l-3.486-.248-.626,1.058,7.641,1.715Z" transform="translate(3236.183 -227.392)" fill="#382625"/>
      <path id="Tracciato_522" data-name="Tracciato 522" d="M-3204.834,262.393l-8.415-3.556-1.331,3,9.656,2.474Z" transform="translate(3237.114 -227.569)" fill="#2f2622"/>
      <path id="Tracciato_523" data-name="Tracciato 523" d="M-3194.394,263.667l-2.247-.442-2.7,1.316,5.3.054Z" transform="translate(3210.559 -227.415)" fill="#382625"/>
      <path id="Tracciato_524" data-name="Tracciato 524" d="M-3226.032,269.915c.534-1.21,4.03-3.861,4.03-3.861l-.044,2.42-2.055,5.3-.966-1.287L-3227,274.2S-3224.848,270.75-3226.032,269.915Z" transform="translate(3267.135 -227.316)" fill="#d38e4f"/>
      <path id="Tracciato_525" data-name="Tracciato 525" d="M-3194.012,289.482l-5.576-.429,1.287,1.716,1.93.214Z" transform="translate(3210.774 -226.51)" fill="#d38e4f"/>
      <path id="Tracciato_526" data-name="Tracciato 526" d="M-3189,264.618s-14.525-5.628-23.343-6.392a28.67,28.67,0,0,0-10.028.7l-3.023,6.647s.918,3.251,3.645,3.422c1.631.1,4.646-1.85,6.6-1.764,1.583.07,3.094,3.04,9.034,3.721,2.386.273,6.86-2.237,8.889-2.806a26.913,26.913,0,0,1,5.815-.229Z" transform="translate(3232.469 -227.595)" fill="#232d36"/>
      <path id="Tracciato_527" data-name="Tracciato 527" d="M-3203.722,264.431c0-1.716-6.368-2.562-6.368-2.562s-5.074-.153-5.522,1.261c-.469,1.483,2.168,3.8,3.481,4.113C-3209.6,267.836-3203.726,266.558-3203.722,264.431Z" transform="translate(3237.125 -227.463)" fill="#eab070"/>
      <path id="Tracciato_528" data-name="Tracciato 528" d="M-3191.865,263.273c-.27.832-2.577,1.713-3.66,2.094-2.937,1.033-4.4-.668-4.075-1.929a2.446,2.446,0,0,1,1.6-1.693,6.023,6.023,0,0,1,3.825-.4C-3192.774,261.744-3191.573,262.371-3191.865,263.273Z" transform="translate(3208.641 -227.486)" fill="#eab070"/>
      <path id="Tracciato_529" data-name="Tracciato 529" d="M-3205.11,265.9l-3.467-2.609-4.789.393Z" transform="translate(3236.133 -227.413)" fill="#1e1612"/>
      <path id="Tracciato_530" data-name="Tracciato 530" d="M-3192.558,263.611l-2.967-1.287-2.716,1.5Z" transform="translate(3207.926 -227.446)" fill="#1e1612"/>
      <path id="Tracciato_531" data-name="Tracciato 531" d="M-3192.893,279.941c-.156.058-6.011.414-6.011.414l-7.6-1.324,4.6,1.919,5.02-.037Z" transform="translate(3216.809 -226.861)" fill="#cac1ca"/>
      <path id="Tracciato_532" data-name="Tracciato 532" d="M-3190.147,271.846l-2.379-.194-1,3.1,1.885-1.88Z" transform="translate(3200.64 -227.12)" fill="#d38e4f"/>
      <path id="Tracciato_533" data-name="Tracciato 533" d="M-3212.518,279.052l3.127-4.441-7.187-1.83,3.727,2.509Z" transform="translate(3243.737 -227.08)" fill="#d38e4f"/>
      <path id="Tracciato_534" data-name="Tracciato 534" d="M-3219.6,288.593l-2.145,10.079-.429-8.364Z" transform="translate(3259.741 -226.526)" fill="#cb7d35"/>
      <path id="Tracciato_535" data-name="Tracciato 535" d="M-3208.89,299.575l-5.79,10.294.779-9.2Z" transform="translate(3241.272 -226.142)" fill="#cb7d35"/>
      <path id="Tracciato_536" data-name="Tracciato 536" d="M-3190.25,237.258s-3.589-.887-4.433-1.859c-2.516-1.079-4,.976-5.061,1.283-3.284.95-2.679-.9-3.607-.874-2.856.072-1.9,2.271-2.963,2.472a23.764,23.764,0,0,1-4.38-.165s-.682,6.432.858,7.435c1.024.667,3.026-.864,4.839.664.934.789,1.349-1.966,4.8-.91,1.1.335,1.075-3.744,2.183-4.057.986-.277,2.676,1.081,3.648.755C-3193.422,241.687-3190.25,237.258-3190.25,237.258Z" transform="translate(3218.664 -228.401)" fill="#434140" opacity="0.52"/>
      <g id="Raggruppa_228" data-name="Raggruppa 228" transform="translate(17.502 0.371)" opacity="0.36">
        <path id="Tracciato_537" data-name="Tracciato 537" d="M-3199.835,256l.258-.344-13.381-10.037c-6.952-5.212-9.119-10.6-6.622-16.472l-.4-.168c-2.584,6.079-.374,11.634,6.759,16.983Z" transform="translate(3221.018 -228.985)" fill="#59524e"/>
      </g>
      <g id="Raggruppa_229" data-name="Raggruppa 229" transform="translate(10.618 2.924)" opacity="0.63">
        <path id="Tracciato_538" data-name="Tracciato 538" d="M-3193.546,255.614a.215.215,0,0,0,.153-.063.215.215,0,0,0,0-.3c-.144-.142-14.3-14.225-6.7-23.443a.216.216,0,0,0-.029-.3.214.214,0,0,0-.3.029c-7.841,9.52,6.588,23.878,6.735,24.022A.209.209,0,0,0-3193.546,255.614Z" transform="translate(3202.764 -231.452)" fill="#59524e"/>
      </g>
      <path id="Tracciato_539" data-name="Tracciato 539" d="M-3214.985,275.254l-2.052,3.988-2.145,4.289,3.481-2.422Z" transform="translate(3252.027 -226.994)" fill="#d38e4f"/>
      <path id="Tracciato_540" data-name="Tracciato 540" d="M-3190.367,295.915l-2.51,2.3-6.063-.732-1.045-3.032Z" transform="translate(3207.541 -226.321)" fill="#eab070"/>
      <path id="Tracciato_541" data-name="Tracciato 541" d="M-3194.308,295.1l-1.045-1.115-.557,1.882.418.767Z" transform="translate(3207.264 -226.338)" fill="#d38e4f"/>
    </g>
    <path id="Tracciato_542" data-name="Tracciato 542" d="M-3198.743,339.507l2.191,6.853,7.349,9.892,30.1-2.543-15.789,6.153-12.612,3.455a5.023,5.023,0,0,1-4.522-2.826l-6.5-13.283Z" transform="translate(3295.286 -224.719)" fill="#eb6300"/>
    <path id="Tracciato_543" data-name="Tracciato 543" d="M-3211.887,334.285l-7.1,9.432-4.663,3.392L-3251.2,350.5l-3.956-2.4,1.978,3.957,14.7,2.4,9.432,1.766c1.883.044,6.253-1.483,9.22-2.755l4.523-10.88Z" transform="translate(3406.462 -224.902)" fill="#eb6300"/>
    <path id="Tracciato_544" data-name="Tracciato 544" d="M-3235.8,438.067c-.565.212,7.477-13.364,11.234-17.027a173.923,173.923,0,0,1,17.2-14.579l-2.516-4.9L-3238,420.491l-2.218,9.073Z" transform="translate(3386.478 -222.545)" fill="#eb6300"/>
    <path id="Tracciato_545" data-name="Tracciato 545" d="M-3179.772,437.452c-3.912-3.787-16.142-17.232-22.043-21.125-2.134-1.408-9.327-5.087-9.327-5.087l2.544-8.267,22.953,19.729,8.451,9.851Z" transform="translate(3326.206 -222.496)" fill="#eb6300"/>
    <path id="Tracciato_546" data-name="Tracciato 546" d="M-3269.3,367.7l4.239,3.815,3.957.848,1.978-5.935-2.826,2.543Z" transform="translate(3468.334 -223.776)" fill="#eb6300"/>
    <path id="Tracciato_547" data-name="Tracciato 547" d="M-3209.481,299.3l-5.723,10.174.77-9.1Z" transform="translate(3362.698 -226.127)" fill="#cb7d35"/>
    <path id="Tracciato_548" data-name="Tracciato 548" d="M-3288.034,370.252l1.413,7.348-4.522,2.543,2.261-3.674Z" transform="translate(3518.439 -223.642)" fill="#eb6300"/>
    <path id="Tracciato_549" data-name="Tracciato 549" d="M-3223.739,382.313l10.174-11.87,16.108-.423s11.447,9.326,11.022,10.6c-3.392-.848-14.413-5.935-14.413-5.935l-9.327,1.272Z" transform="translate(3348.473 -223.65)" fill="#eb6300"/>
    <path id="Tracciato_550" data-name="Tracciato 550" d="M-3206.635,385.1l4.451.212,7.842-3.391-1.059,3.815s-6.147,2.331-7.419,2.331A39.72,39.72,0,0,0-3206.635,385.1Z" transform="translate(3338.691 -223.233)" fill="#eb6300"/>
    <path id="Tracciato_551" data-name="Tracciato 551" d="M-3206.761,383.408l-6.925.635-4.24-2.9.566,3.956s5.087,2.262,6.359,2.262C-3209.305,386.94-3206.761,383.408-3206.761,383.408Z" transform="translate(3362.796 -223.26)" fill="#eb6300"/>
    <path id="Tracciato_552" data-name="Tracciato 552" d="M-3172.112,482.15l-5.086,1.979-2.545-3.32-.563,4.451a5.263,5.263,0,0,0,1.7,3.957C-3177.551,488.157-3172.112,482.15-3172.112,482.15Z" transform="translate(3289.216 -219.769)" fill="#eb6300"/>
    <path id="Tracciato_553" data-name="Tracciato 553" d="M-3252.024,481.286l-2.854,2.078-5.371-.567,5.371,6.218s3.108.565,4.479-1.512A55.207,55.207,0,0,1-3252.024,481.286Z" transform="translate(3450.239 -219.752)" fill="#eb6300"/>
    <path id="Tracciato_554" data-name="Tracciato 554" d="M-3167.166,475.723l-3.675-.635-4.8-7.631,1.412,8.2a20.863,20.863,0,0,0,.849,5.369C-3172.325,479.962-3167.166,475.723-3167.166,475.723Z" transform="translate(3279.438 -220.237)" fill="#eb6300"/>
    <g id="Raggruppa_231" data-name="Raggruppa 231" transform="translate(175.295 154.989)">
      <path id="Tracciato_555" data-name="Tracciato 555" d="M-3273.6,393.2l6.783,3.073,3.922-.423,4.874-4.452,6.254-11.551a48.227,48.227,0,0,1,12.073,7.332l-3.335,2.316-9.458,8.3,14.507-9.047c1.648,1.647,2.771,3.285,2.86,4.695l-19.605,10.952-3.674,2.259-6.5,5.23-5.51.848-2.967-6.783-2.544-4.452-.848-7.419Z" transform="translate(3276.774 -378.294)" fill="#232d36"/>
      <path id="Tracciato_556" data-name="Tracciato 556" d="M-3282.711,387.235l1.364-.947,9.354-7.941-7.6,9.579-1.4.875C-3281.521,388.277-3282.1,387.753-3282.711,387.235Z" transform="translate(3319.787 -378.347)" fill="#eb6300"/>
      <path id="Tracciato_557" data-name="Tracciato 557" d="M-3264.553,389.25l3.335-2.316c.615.519,1.19,1.042,1.714,1.566l-14.507,9.047Z" transform="translate(3298.294 -378.046)" fill="#3b424c"/>
    </g>
    <path id="Tracciato_558" data-name="Tracciato 558" d="M-3257.155,319.229l-3.673-2.543-.848,1.413-1.343-3.992,3.744,1.165Z" transform="translate(3459.863 -225.609)" fill="#eb6300"/>
    <path id="Tracciato_559" data-name="Tracciato 559" d="M-3195.5,390.84l-11.163,3.532,7.066.99Z" transform="translate(3339.871 -222.921)" fill="#eb6300"/>
    <path id="Tracciato_560" data-name="Tracciato 560" d="M-3207.774,394.318l-7.462-3.136,1.81,4.337Z" transform="translate(3361.025 -222.909)" fill="#eb6300"/>
    <path id="Tracciato_561" data-name="Tracciato 561" d="M-3235.049,461.1l9.607,10.88,6.112,4.567-10.279-1.105-19.076-29.462Z" transform="translate(3407.202 -220.989)" fill="#eb6300"/>
    <path id="Tracciato_562" data-name="Tracciato 562" d="M-3179.485,462.77c-4.875,7.419-9.115,10.6-9.115,10.6h-5.511l6.218,7.065,3.745-7.276S-3181.181,466.8-3179.485,462.77Z" transform="translate(3310.871 -220.401)" fill="#eb6300"/>
    <path id="Tracciato_563" data-name="Tracciato 563" d="M-3238.433,401.736s21.5-1.114,27.448-1.378c11.588-.515,33.279,1.06,33.279,1.06a24.665,24.665,0,0,1,1.06,4.24c-16.887,6.188-30.1,28.97-30.1,28.97l-3.391-1.131s-8.876-9.071-16.506-16.42c-9.39-9.045-13.169-8.662-13.169-8.662Z" transform="translate(3355.334 -222.591)" fill="#232d36"/>
    <path id="Tracciato_564" data-name="Tracciato 564" d="M-3162.993,507.209c-1.059,16.32-3.865,45.07-4.841,48.584-.53,1.908-2.825,5.57-4.451,7.631a83.916,83.916,0,0,1-6.463,5.889l-3.108,3.436,26.141.1s.424-4.487.424-6.5c-.106-2.755-.672-5.465.387-10.34a37.839,37.839,0,0,1,5.51-12.93c1.614-3.923,9.115-16.108,9.115-16.108s1.614-7.659,2.755-13.513C-3144.306,511.193-3157.905,509.188-3162.993,507.209Z" transform="translate(3256.225 -218.844)" fill="#232d36"/>
    <path id="Tracciato_565" data-name="Tracciato 565" d="M-3261.266,556.988c-2.12-3.391-3.6-10.528-3.6-10.528-4.348-27.488-6.6-38.012-8.919-43.1-3.531,1.977-22.169,12.581-22.169,12.581s1.125,3.525,2.682,7.779c9.61,14.694,17.278,27.441,18.126,32.527,1.236,4.346,2.329,5.9,1.236,10a10.752,10.752,0,0,0,.46,7.277h23.845c1.133-.332,0-1.908-1.483-4.238A61.346,61.346,0,0,1-3261.266,556.988Z" transform="translate(3485.948 -218.979)" fill="#232d36"/>
    <path id="Tracciato_566" data-name="Tracciato 566" d="M-3236.6,397.312l-3.391,1.978-2.3.625-.531-3.451,4.239,1.131Z" transform="translate(3418.392 -222.724)" fill="#3b424c"/>
    <path id="Tracciato_567" data-name="Tracciato 567" d="M-3280.222,338.442l7.066,6.783.848,13.283-3.391-10.6Z" transform="translate(3492.822 -224.756)" fill="#eb6300"/>
    <path id="Tracciato_568" data-name="Tracciato 568" d="M-3158.93,558.926l1.414,7.631-5.017-.706s-.193-.278,1.7-2.543A11.074,11.074,0,0,0-3158.93,558.926Z" transform="translate(3256.225 -217.032)" fill="#3b424c"/>
    <path id="Tracciato_569" data-name="Tracciato 569" d="M-3193.285,433.791s-8.479,17.168-12.294,22.68c2.544-6.571,9.75-25.647,9.75-25.647Z" transform="translate(3336.541 -221.52)" fill="#eb6300"/>
    <path id="Tracciato_570" data-name="Tracciato 570" d="M-3076.063,279.445c1.17,2.4,3.677,9.814,3.677,9.814s3.407,5.023,4.3,5.631c2.478,1.681.887,9.673.13,8.442-1.535-2.5-6.7-8.755-8.207-11.5s-2.457-11.9-3.047-13.37S-3077.232,277.045-3076.063,279.445Z" transform="translate(3079.292 -226.892)" fill="#232d36"/>
    <path id="Tracciato_571" data-name="Tracciato 571" d="M-3076.407,278.553c.692,2.578,1.637,10.307,1.637,10.307s2.473,5.677,3.237,6.444c2.114,2.122-.362,9.121-1.294,7.746a77.121,77.121,0,0,1-6.345-12.62c-.956-2.978-.46-12.668-.759-14.227S-3077.1,275.975-3076.407,278.553Z" transform="translate(3083.929 -226.96)" fill="#232d36"/>
    <path id="Tracciato_572" data-name="Tracciato 572" d="M-3084.33,322.5l-4.179-9.875s-8.312-11.136-9.008-13.259-.688-9.619.717-11.952c1.052-1.747,7.1-6.989,9.314-9.095,1.433-1.365,3.264,1.442,1.5,3.954-2.95,4.193-5.188,6.753-5.188,6.753s-.44,5.643.2,6.776,4.958,1.855,4.958,1.855,1.968-5.284,6.543-7.816c3.077-1.7,5.9-1.181,4.463.258-2.609,2.6-6.346,7.337-3.965,10.9,1.448,2.166-.629,5.853-.629,5.853l3.171,3.815Z" transform="translate(3106.5 -226.875)" fill="#232d36"/>
  </g>
</svg>
