<?xml version="1.0" encoding="UTF-8" standalone="no"?><!DOCTYPE svg PUBLIC "-//W3C//DTD SVG 1.1//EN" "http://www.w3.org/Graphics/SVG/1.1/DTD/svg11.dtd"><svg width="100%" height="100%" viewBox="0 0 771 771" version="1.1" xmlns="http://www.w3.org/2000/svg" xmlns:xlink="http://www.w3.org/1999/xlink" xml:space="preserve" xmlns:serif="http://www.serif.com/" style="fill-rule:evenodd;clip-rule:evenodd;stroke-linejoin:round;stroke-miterlimit:2;"><rect id="Tavola-da-disegno1" serif:id="Tavola da disegno1" x="0" y="0" width="770.463" height="770.463" style="fill:none;"/><path d="M241.369,656.179c35.921,-7.547 71.843,-15.099 110.093,-23.138c-63.731,-12.911 -124.609,-25.248 -185.482,-37.59c-2.023,-0.405 -1.918,-3.326 0.123,-3.595c29.728,-3.906 59.456,-7.807 89.184,-11.713c5.414,-0.711 5.205,-8.613 -0.237,-9.037c-48.044,-3.769 -96.088,-7.538 -148.854,-11.681c-2.907,-0.228 -3.823,-4.047 -1.331,-5.564c4.148,-2.534 7.146,-4.366 10.473,-6.399c-30.534,-40.369 -54.83,-83.842 -64.938,-137.223c134.913,67.322 259.216,57.733 362.961,-52.429c84.225,-89.434 94.675,-196.738 49.06,-314.392c10.997,3.892 19.57,6.298 27.622,9.862c186.813,82.69 246.683,319.337 125.671,480.227c-7.183,9.543 -15.855,17.902 -25.818,24.487c-5.209,3.446 -10.359,6.239 -14.666,7.005c-22.832,4.051 -40.62,-0.087 -64.086,7.31c34.554,5.505 69.113,11.006 103.667,16.512c3.979,0.633 3.997,6.357 0.023,7.013c-25.166,4.17 -50.332,8.34 -79.49,13.171c58.234,27.627 121.769,15.441 178.75,34.021c5.706,1.864 4.417,10.264 -1.586,10.305c-157.216,1.025 -313.553,31.104 -470.87,10.254c-4.184,-0.552 -4.403,-6.536 -0.269,-7.406Z" style="fill:#f58600;fill-rule:nonzero;"/><path d="M461.222,714.017c-32.662,-3.874 -65.325,-7.752 -97.984,-11.626c-0.127,-1.499 -0.255,-2.999 -0.383,-4.498c4.973,-1.053 9.904,-2.767 14.917,-3.026c13.125,-0.693 26.319,-1.504 39.43,-0.935c66.771,2.903 131.969,-9.06 197.769,-17.609c34.13,-4.435 69.719,2.369 104.743,4.808c2.666,0.187 4.712,2.392 4.671,5.063l0,0.087c-0.032,2.16 -1.727,3.928 -3.883,4.051c-27.103,1.55 -54.215,2.935 -81.295,4.785c-16.707,1.14 -33.551,2.037 -49.985,4.991c-7.488,1.344 -13.695,3.951 -16.357,8.795c-7.15,13.012 -19.606,22.2 -34.454,22.2l-150.472,0c-2.465,0 -2.657,-3.628 -0.205,-3.888c24.487,-2.584 48.97,-5.168 73.452,-7.752c3.249,-0.342 3.281,-5.063 0.036,-5.446Z" style="fill-rule:nonzero;"/><path d="M711.41,565.701c-38.555,22.126 -80.101,11.188 -120.63,11.507c-2.602,0.018 -4.79,-1.914 -5.027,-4.507l-0.004,-0.078c-0.151,-1.631 1.057,-3.076 2.689,-3.222c40.264,-3.609 80.529,-7.223 120.794,-10.833c4.101,-0.369 5.751,5.087 2.178,7.133Z" style="fill-rule:nonzero;"/><path d="M155.366,271.771c31.291,5.761 35.958,10.427 41.719,41.719c5.76,-31.292 10.431,-35.958 41.718,-41.719c-31.287,-5.76 -35.958,-10.432 -41.718,-41.723c-5.761,31.291 -10.428,35.963 -41.719,41.723Z" style="fill-rule:nonzero;"/><path d="M318.166,194.314c20.198,3.718 23.21,6.731 26.929,26.929c3.719,-20.198 6.732,-23.211 26.93,-26.929c-20.198,-3.719 -23.211,-6.732 -26.93,-26.926c-3.719,20.194 -6.731,23.207 -26.929,26.926Z" style="fill-rule:nonzero;"/><path d="M234.027,108.015c16.151,2.976 18.558,5.382 21.534,21.533c2.971,-16.151 5.382,-18.557 21.529,-21.533c-16.147,-2.972 -18.558,-5.383 -21.529,-21.53c-2.976,16.147 -5.383,18.558 -21.534,21.53Z" style="fill-rule:nonzero;"/></svg>