<?xml version="1.0" encoding="UTF-8" standalone="no"?><!DOCTYPE svg PUBLIC "-//W3C//DTD SVG 1.1//EN" "http://www.w3.org/Graphics/SVG/1.1/DTD/svg11.dtd"><svg width="100%" height="100%" viewBox="0 0 4002 4004" version="1.1" xmlns="http://www.w3.org/2000/svg" xmlns:xlink="http://www.w3.org/1999/xlink" xml:space="preserve" xmlns:serif="http://www.serif.com/" style="fill-rule:evenodd;clip-rule:evenodd;stroke-linejoin:round;stroke-miterlimit:2;"><rect id="Tavola-da-disegno1" serif:id="Tavola da disegno1" x="0" y="0" width="4001.87" height="4003.49" style="fill:none;"/><g><path d="M2916.42,2287.2l0,855.26c0,93.01 -75.38,168.43 -168.39,168.43l-779.25,0c-93.06,0 -168.44,-75.42 -168.44,-168.43l0,-855.26c0,-32.81 9.35,-63.45 25.6,-89.31c29.79,-47.55 82.59,-79.12 142.84,-79.12l779.25,0c64.42,0 120.39,36.15 148.71,89.31c12.55,23.6 19.68,50.54 19.68,79.12Z" style="fill:#fff;fill-rule:nonzero;"/><path d="M1982.45,2138.01c-89.8,0 -162.86,73.06 -162.86,162.86l0,827.88c0,89.8 73.06,162.86 162.86,162.86l751.87,0c89.8,0 162.86,-73.06 162.86,-162.86l0,-827.88c0,-89.8 -73.06,-162.86 -162.86,-162.86l-751.87,0Zm751.87,1192.12l-751.87,0c-111.04,0 -201.37,-90.34 -201.37,-201.38l0,-827.88c0,-111.04 90.33,-201.37 201.37,-201.37l751.87,0c111.04,0 201.38,90.33 201.38,201.37l0,827.88c0,111.04 -90.34,201.38 -201.38,201.38Z" style="fill:#371a45;fill-rule:nonzero;"/><path d="M2027.12,2185.3c0,0 -395.23,108.73 -453.82,1015.31l924.51,0l-54.78,-1070.91l-415.91,55.6Z" style="fill:#fff;fill-rule:nonzero;"/><path d="M1803.93,3145.09l-98.67,0c-4.22,-23.39 -24.68,-41.13 -49.28,-41.13l-44.56,0c0,-0.01 0,-0.01 0.01,-0.02l21.41,0l-1.2,-18.54c37.97,-31.06 86.27,-56.41 119.43,-132.86c9.01,-20.78 18.96,-39.78 29.71,-57.09l7.46,0c-0.46,22.51 6.66,44.82 20.27,62.64c4.11,5.37 8.68,10.23 13.64,14.53c-3.01,26.44 -5.93,52.89 -8.75,79.35c-3.28,31.05 -6.45,62.07 -9.47,93.12Z" style="fill:#cdc6d0;fill-rule:nonzero;"/><path d="M1593.91,3181.36l883.63,0l-52.67,-1029.8l-393.62,52.62c-10.71,3.49 -100.86,35.96 -196.29,163.86c-92.77,124.33 -209.15,365.99 -241.05,813.32Zm924.17,38.51l-965.32,0l1.32,-20.5c30.58,-473.07 154.31,-727.69 252.73,-857.99c108.83,-144.08 210.91,-173.47 215.2,-174.65l2.55,-0.52l436.63,-58.37l56.89,1112.03Z" style="fill:#371a45;fill-rule:nonzero;"/><path d="M3227.33,3093.93c-59.22,125.33 -177.12,33.92 -177.12,33.92c0,0 -4.41,3.48 -38.33,10.78c-193.06,41.67 -320.31,-70.88 -320.31,-70.88c0,0 -42.65,39.53 -84.55,38.38c-35.93,-0.98 -60.64,-16.7 -73.06,-40.65c-23.02,-44.39 -5.39,-81.21 32.23,-141.81c35.58,-57.39 139.45,-117.41 289.59,-98.71l0,-0.09c8.46,-104.5 -125.03,-221.51 -227.25,-295.06c-62.2,-44.74 -112.78,-73.46 -112.78,-73.46l161.31,-378.229c568.34,475.729 611.53,886.149 550.27,1015.81Z" style="fill:#fff;fill-rule:nonzero;"/><path d="M3034.81,2890.14c-1.8,-1.33 -39.2,-29.07 -103.66,-48.97c-13.22,-19.36 -33,-33.26 -55.81,-38.68c-8.52,-60.93 -17.87,-121.76 -28.38,-182.45c-7.63,-43.98 -15.99,-87.94 -26.83,-131.35c37.31,55.83 72.83,124.6 98.51,173.63c63.26,120.79 115.46,225.94 116.17,227.82Z" style="fill:#cdc6d0;fill-rule:nonzero;"/><path d="M3137.71,3140.79c-38.54,0 -75.33,-27.84 -75.72,-28.14l-11.85,-9.18l-10.19,7.96c-2.52,0.97 -10.81,3.78 -32.12,8.38c-28.38,6.12 -55.3,8.7 -80.53,8.7c-4.91,0 -9.76,-0.1 -14.54,-0.28c-2.28,-25.51 -4.7,-51 -7.48,-76.46c-1.05,-9.87 -2.11,-19.73 -3.18,-29.6c26.19,-0.11 54.12,-2.87 83.6,-9.23c33.92,-7.35 38.29,-10.78 38.29,-10.78c0,0 49.76,25.9 107.77,25.91c32.07,0 66.67,-7.93 96.76,-32.52c-1.56,38.67 -8.68,69.14 -18.61,90.15c-14.07,29.78 -32.69,47.66 -55.36,53.15c-5.58,1.35 -11.23,1.94 -16.84,1.94Z" style="fill:#cdc6d0;fill-rule:nonzero;"/><path d="M3137.91,3179.27c-39.05,0.01 -74.2,-19.34 -90.3,-29.76c-6.69,2.09 -16.64,4.71 -31.66,7.95c-166.93,36.02 -285.99,-36.93 -324.19,-65.04c-17.62,13.2 -50.95,34.12 -85.24,32.97c-41.33,-1.13 -73.17,-19.26 -89.66,-51.03c-28.31,-54.61 -5.33,-99.15 32.95,-160.87c38.59,-62.14 143.58,-120.86 286.44,-109.86c-13.78,-124.77 -239.44,-279.14 -330.01,-330.52c-9.25,-5.25 -12.5,-17 -7.25,-26.25c5.25,-9.25 17,-12.49 26.25,-7.26c14.88,8.44 364.27,208.65 349.74,386.91l-1.63,20.03l-19.94,-2.48c-137.23,-17.06 -236.61,34.56 -270.87,89.74c-38.26,61.67 -48.76,89.5 -31.49,122.82c9.89,19.06 29.44,29.53 56.52,30.27c27.77,0.78 60.58,-23.78 70.92,-33.29l12.79,-11.78l13.04,11.5c1.18,1.03 122.87,105.45 303.51,66.49c21.31,-4.6 29.6,-7.41 32.12,-8.38l10.19,-7.96l11.85,9.18c0.44,0.35 48.68,36.84 92.56,26.2c22.67,-5.49 41.29,-23.37 55.36,-53.15c27.34,-57.86 33.42,-187.51 -39.39,-362.5c-60.27,-144.85 -196.95,-371.78 -505.83,-630.329c-8.16,-6.831 -9.24,-18.971 -2.41,-27.131c6.82,-8.159 18.97,-9.24 27.12,-2.409c314.86,263.549 454.76,496.259 516.68,645.069c77.58,186.44 70.84,325.65 38.66,393.75c-19.34,40.93 -46.71,65.89 -81.36,74.19c-8.57,2.05 -17.12,2.93 -25.47,2.93Z" style="fill:#371a45;fill-rule:nonzero;"/><path d="M1929.85,2409.8c-77.21,342.11 -117.85,860.51 -117.85,860.51l1092.77,0c0,0 -40.64,-518.4 -117.85,-860.51c0,0 -183.82,-360.8 -428.53,-360.8c-244.72,0 -428.54,360.8 -428.54,360.8Z" style="fill:#fff;fill-rule:nonzero;"/><path d="M2872.67,3145.09l-140.62,0l-710.67,0l-178.75,0c2.89,-29.7 5.93,-59.39 9.07,-89.05c2.27,-21.33 4.61,-42.65 7.01,-63.96c4.13,1.11 8.36,1.94 12.67,2.49c32.87,4.13 71.25,7.43 109.88,7.43c18.84,0 37.74,-0.78 56.08,-2.65l0,3.91c0,56.29 45.789,102.08 102.09,102.08l426.43,0c56.3,0 102.09,-45.79 102.09,-102.08l0,-8.32c27.67,5.09 57.62,7.06 87.44,7.06c35.23,0 70.27,-2.75 101.09,-6.37c2.3,20.2 4.54,40.4 6.69,60.61l9.5,88.85Z" style="fill:#cdc6d0;fill-rule:nonzero;"/><path d="M1948.63,2414.04c-15.56,70.19 -28.59,141.12 -40.42,212.29c-11.62,71.22 -21.77,142.74 -31.21,214.37c-9.29,71.65 -17.64,143.46 -25.3,215.34c-7.6,71.85 -14.62,143.93 -20.5,215.77l-19.2,-20.76l1092.77,0l-19.2,20.76l-10.87,-107.77l-11.53,-107.8c-7.64,-71.87 -16.39,-143.61 -25.3,-215.29c-4.65,-35.81 -9.12,-71.66 -14.24,-107.39c-4.72,-35.81 -10.11,-71.48 -15.45,-107.17c-11.33,-71.29 -23.14,-142.24 -30.65,-214.47l-0.01,-0.08c-0.55,-5.32 3.32,-10.08 8.64,-10.64c4.57,-0.47 8.72,2.32 10.16,6.48c23.86,69.2 38.23,140.76 50.64,212.36c12.41,71.63 23.19,143.48 32.92,215.45c9.71,71.96 17.68,144.12 25.4,216.28c3.93,36.08 7.16,72.22 10.28,108.38c3.18,36.17 6.12,72.27 8.41,108.65l1.31,20.76l-20.51,0l-0.01,0l-1092.76,0l-20.9,0l1.7,-20.76c5.94,-72.53 12.97,-144.63 20.6,-216.83c7.69,-72.15 16.07,-144.24 25.4,-216.24c9.49,-71.97 19.7,-143.88 31.4,-215.63c11.92,-71.72 25.06,-143.3 40.86,-214.54c2.31,-10.38 12.59,-16.93 22.97,-14.63c10.39,2.3 16.94,12.59 14.64,22.97l-0.04,0.14Z" style="fill:#371a45;fill-rule:nonzero;"/><path d="M2113.67,2962.15c-66.58,28 -169.63,22.14 -239.88,13.31c-42.14,-5.3 -71.71,-45.68 -65.51,-89.28c5.67,-39.79 39.39,-68.73 78.08,-66.84c65.71,3.19 164.269,4.69 226.69,-9.69l0.62,152.5Z" style="fill:#fff;fill-rule:nonzero;"/><path d="M1980.75,2963.44c-31.7,0 -66.83,-2.35 -104.56,-7.09c-14.65,-1.84 -27.82,-9.52 -37.07,-21.63c-8.62,-11.3 -12.91,-25.04 -12.36,-39.27l27.21,0c6.19,2.66 12.83,4.5 19.81,5.39c31.4,3.94 69.37,7.29 107.71,7.29c18.77,0 37.63,-0.8 55.85,-2.73l0,55.15c-17.31,1.93 -36.25,2.89 -56.59,2.89Z" style="fill:#cdc6d0;fill-rule:nonzero;"/><path d="M2113.67,2962.15l0.05,0l-0.05,0Zm-230.89,-123.64c-27.7,0 -51.28,21.22 -55.43,50.38c-2.35,16.53 1.83,32.8 11.77,45.83c9.25,12.11 22.42,19.79 37.07,21.63c100.07,12.58 181.77,8.33 230.02,-11.95c9.11,-3.83 15.87,-17.13 18.53,-36.48c4.85,-35.24 -5.1,-69.11 -11.87,-78.5c-63.56,13.58 -158.35,12.51 -227.45,9.15c-0.88,-0.04 -1.77,-0.06 -2.64,-0.06Zm98.48,163.49c-38.63,0 -77.01,-3.3 -109.88,-7.43c-24.98,-3.14 -47.3,-16.1 -62.87,-36.48c-16.03,-20.99 -23.06,-48.19 -19.29,-74.63c7.1,-49.89 49.07,-85.67 98.08,-83.36c96.58,4.7 175.22,1.43 221.43,-9.22c9.5,-2.17 33.12,-2.54 47.26,41.24c15.86,49.15 12.57,127.84 -34.85,147.78l0,0.01c-39.35,16.53 -89.81,22.09 -139.88,22.09Z" style="fill:#371a45;fill-rule:nonzero;"/><path d="M2622.98,2962.15c66.58,28 169.63,22.14 239.88,13.31c42.14,-5.3 71.72,-45.68 65.51,-89.28c-5.66,-39.79 -39.39,-68.73 -78.08,-66.84c-65.71,3.19 -164.27,4.69 -226.69,-9.69l-0.62,152.5Z" style="fill:#fff;fill-rule:nonzero;"/><path d="M2755.88,2963.45c-33.43,0 -63.06,-2.62 -87.93,-7.8l0,-54.76c27.34,5.37 57.38,7.4 87.2,7.4c38.34,0 76.3,-3.36 107.73,-7.3c17.36,-2.19 32.61,-10.37 44.1,-22.26c1.04,3.26 1.82,6.65 2.32,10.16c2.35,16.53 -1.83,32.8 -11.78,45.83c-9.25,12.11 -22.4,19.79 -37.06,21.63c-37.74,4.75 -72.87,7.1 -104.58,7.1Z" style="fill:#b9afbe;fill-rule:nonzero;"/><path d="M2630.44,2944.4c48.25,20.29 129.94,24.53 230.02,11.95c14.66,-1.84 27.81,-9.52 37.06,-21.63c9.95,-13.03 14.13,-29.3 11.78,-45.83c-4.28,-30.09 -29.31,-51.73 -58.07,-50.32c-69.1,3.37 -163.88,4.43 -227.45,-9.15c-6.77,9.39 -16.72,43.26 -11.87,78.5c2.66,19.35 9.42,32.65 18.53,36.48Zm124.95,57.6c-50.07,0 -100.53,-5.55 -139.87,-22.09l-0.01,-0.01c-47.42,-19.94 -50.71,-98.63 -34.85,-147.78c14.14,-43.78 37.76,-43.42 47.26,-41.24c46.2,10.65 124.83,13.92 221.43,9.22c48.97,-2.35 90.98,33.47 98.08,83.36c3.76,26.45 -3.27,53.65 -19.3,74.64c-15.56,20.38 -37.89,33.33 -62.86,36.47c-32.86,4.13 -71.26,7.43 -109.88,7.43Z" style="fill:#371a45;fill-rule:nonzero;"/><path d="M2648.7,2759.25l0,244.4c0,45.36 -35.73,82.46 -79.35,82.46l-433.38,0c-43.67,0 -79.35,-37.1 -79.35,-82.46l0,-244.4c0,-45.31 35.68,-82.41 79.35,-82.41l433.38,0c34.85,0 64.68,23.69 75.26,56.34c2.63,8.2 4.09,16.96 4.09,26.07Z" style="fill:#fff;fill-rule:nonzero;"/><path d="M2565.86,3066.83l-234.37,0l0,-71.68c31.7,-1.84 64.19,-7.85 96.7,-19.5c17.59,-6.3 35.81,-16.32 53.31,-27.87c7.66,3.07 15.98,4.76 24.68,4.76c33.16,0 60.81,-24.5 67.09,-57.01c0.01,0.02 0.01,0.04 0.02,0.06c0.89,-4.56 1.34,-9.26 1.34,-14.11c0,-3.61 -0.26,-7.16 -0.76,-10.63c6.51,-6.49 10.21,-10.46 10.21,-10.46c0,0 3.16,92.16 16.27,92.16c0.11,0 0.21,0 0.31,-0.01c14.26,-1.58 23.01,-30.38 28.78,-66.76l0,117.48c0,35.05 -28.52,63.57 -63.58,63.57Zm-272.88,0l-153.55,0c-35.06,0 -63.58,-28.52 -63.58,-63.57l0,-71.26c52.64,27.87 130.58,59.65 217.13,63.4l0,71.43Z" style="fill:#cdc6d0;fill-rule:nonzero;"/><path d="M2139.43,2696.1c-35.06,0 -63.58,28.51 -63.58,63.57l0,243.59c0,35.05 28.52,63.57 63.58,63.57l426.43,0c35.06,0 63.58,-28.52 63.58,-63.57l0,-243.59c0,-35.06 -28.52,-63.57 -63.58,-63.57l-426.43,0Zm426.43,409.24l-426.43,0c-56.301,0 -102.09,-45.79 -102.09,-102.08l0,-243.59c0,-56.29 45.789,-102.09 102.09,-102.09l426.43,0c56.3,0 102.09,45.8 102.09,102.09l0,243.59c0,56.29 -45.79,102.08 -102.09,102.08Z" style="fill:#371a45;fill-rule:nonzero;"/><path d="M2574.61,2881.46c0,39.26 -30.64,71.08 -68.43,71.08c-37.8,0 -68.44,-31.82 -68.44,-71.08c0,-39.25 30.64,-71.07 68.44,-71.07c37.79,0 68.43,31.82 68.43,71.07Z" style="fill:#f58600;fill-rule:nonzero;"/><path d="M2574.63,2881.48c0,4.85 -0.45,9.55 -1.34,14.11c-6.33,-32.55 -33.99,-57.04 -67.12,-57.04c-33.14,0 -60.8,24.49 -67.08,57.04c-0.9,-4.56 -1.34,-9.26 -1.34,-14.11c0,-39.25 30.62,-71.1 68.42,-71.1c37.79,0 68.46,31.85 68.46,71.1Z" style="fill:#fff;fill-rule:nonzero;"/><path d="M2506.18,2952.52c-33.13,0 -60.78,-24.44 -67.09,-56.94c1.31,-6.76 3.54,-13.17 6.54,-19.09c11.49,22.54 34.32,37.91 60.55,37.91c26.23,0 49.05,-15.37 60.54,-37.91c3,5.9 5.24,12.29 6.55,19.03c-6.29,32.53 -33.95,57 -67.09,57Zm-68.32,-66.93c-0.08,-1.37 -0.12,-2.75 -0.12,-4.14c0,-6.58 0.88,-13.01 2.49,-19.03l0,0.01c-1.62,6.07 -2.48,12.46 -2.48,19.05c0,1.38 0.03,2.75 0.11,4.11Z" style="fill:#8f5209;fill-rule:nonzero;"/><path d="M2439.09,2895.58c-0.63,-3.25 -1.05,-6.59 -1.23,-9.99c-0.08,-1.36 -0.11,-2.73 -0.11,-4.11c0,-6.59 0.86,-12.98 2.48,-19.05c1.32,4.92 3.14,9.63 5.4,14.06c-3,5.92 -5.23,12.33 -6.54,19.09Zm134.18,-0.06c-1.31,-6.74 -3.55,-13.13 -6.55,-19.03c2.26,-4.44 4.08,-9.15 5.41,-14.07c1.6,6.02 2.48,12.45 2.48,19.03c0,4.82 -0.46,9.52 -1.34,14.07Z" style="fill:#b9afbe;fill-rule:nonzero;"/><path d="M2506.17,2824.83c-29.77,0 -53.99,25.41 -53.99,56.63c0,31.23 24.22,56.63 53.99,56.63c29.78,0 54,-25.4 54,-56.63c0,-31.22 -24.22,-56.63 -54,-56.63Zm0,142.15c-45.69,0 -82.88,-38.36 -82.88,-85.52c0,-47.15 37.19,-85.51 82.88,-85.51c45.7,0 82.89,38.36 82.89,85.51c0,47.16 -37.19,85.52 -82.89,85.52Z" style="fill:#371a45;fill-rule:nonzero;"/><path d="M2312.23,3105.34c-10.63,0 -19.25,-8.62 -19.25,-19.25l0,-125.09c0,-24.92 -11.38,-48.7 -30.44,-63.59l-11,-8.61c-28.32,-22.14 -45.23,-57.25 -45.23,-93.93l0,-118.03c0,-10.64 8.62,-19.26 19.25,-19.26c10.64,0 19.26,8.62 19.26,19.26l0,118.03c0,24.92 11.38,48.69 30.44,63.59l11,8.6c28.32,22.14 45.23,57.26 45.23,93.94l0,125.09c0,10.63 -8.62,19.25 -19.26,19.25Z" style="fill:#371a45;fill-rule:nonzero;"/><path d="M2872.35,2231.74c-16.75,-17.08 -34.22,-34.35 -52.48,-51.82c4.12,-3.01 8.23,-6.07 12.29,-9.16c19.34,14.57 35.33,33.34 46.61,54.95c-2.13,2.02 -4.26,4.03 -6.42,6.03Z" style="fill:#cdc6d0;fill-rule:nonzero;"/><path d="M2878.77,2225.71c-11.28,-21.61 -27.27,-40.38 -46.61,-54.95c6.79,-5.16 13.53,-10.45 20.17,-15.82c18.22,14.39 33.4,32.48 44.41,53.14c-5.9,5.98 -11.88,11.85 -17.97,17.63Z" style="fill:#371a45;fill-rule:nonzero;"/><path d="M2739.79,2330.61c-14.35,-21.85 -31.73,-46.65 -51.76,-72.23c34.43,-16.28 67.7,-35.02 99.56,-56.03c19.49,18.53 38.11,36.84 55.87,54.91c-32.47,27.29 -67.14,51.84 -103.67,73.35Z" style="fill:#cdc6d0;fill-rule:nonzero;"/><path d="M2843.46,2257.26c-17.76,-18.07 -36.38,-36.38 -55.87,-54.91c10.95,-7.22 21.68,-14.68 32.28,-22.43c18.26,17.47 35.73,34.74 52.48,51.82c-9.41,8.74 -19.06,17.27 -28.89,25.52Z" style="fill:#371a45;fill-rule:nonzero;"/><path d="M2365.56,2432.96c-3.67,0 -7.35,-0.02 -11.03,-0.08c-37.31,-0.55 -73.94,-3.89 -109.71,-9.83l0,-97.82c37.44,5.51 74.72,8.2 111.65,8.2c116.33,0 229.08,-26.62 331.56,-75.05c20.03,25.58 37.41,50.38 51.76,72.23c-110.69,65.19 -238.48,102.35 -374.23,102.35Z" style="fill:#cdc6d0;fill-rule:nonzero;"/><path d="M3085.1,1841.19c-8.66,-0.91 -14.85,-8.93 -13.83,-17.9l53.25,-468.13c1.02,-8.98 8.87,-15.52 17.52,-14.6c90.83,9.59 155.79,93.69 145.08,187.86l-18.16,159.63c-10.71,94.17 -93.03,162.73 -183.86,153.14Z" style="fill:#fff;fill-rule:nonzero;"/><path d="M3140.43,1343.93c-6.25,0 -11.72,4.97 -12.47,11.62l-53.25,468.13c-0.4,3.53 0.57,6.96 2.73,9.65c2.02,2.52 4.87,4.09 8.02,4.42c88.81,9.36 169.58,-57.95 180.06,-150.09l18.16,-159.63c5.21,-45.82 -7.45,-90.4 -35.65,-125.54c-26.72,-33.3 -64.49,-54.07 -106.35,-58.49c-0.42,-0.04 -0.84,-0.07 -1.25,-0.07Zm-38.45,501.61c-5.71,0 -11.45,-0.29 -17.24,-0.91c-5.01,-0.52 -9.51,-3 -12.7,-6.97c-3.32,-4.14 -4.82,-9.38 -4.21,-14.76l53.25,-468.13c1.24,-10.85 10.85,-18.77 21.33,-17.65c43.71,4.61 83.13,26.29 111.02,61.04c29.36,36.59 42.54,82.99 37.12,130.65l-18.15,159.63c-10.23,89.9 -84.86,157.1 -170.42,157.1Z" style="fill:#371a45;fill-rule:nonzero;"/><path d="M3102,1822.83c-1.05,0 -2.1,-0.01 -3.15,-0.04c14.63,-35.69 26.97,-72.78 36.8,-111.09c46.49,-2.74 88.94,-25.61 118.18,-61.03l-4.01,35.2c-8.91,78.35 -73.71,136.96 -147.82,136.96Z" style="fill:#cdc6d0;fill-rule:nonzero;"/><path d="M3090.76,1822.38c78.69,6.29 149.71,-54.22 159.06,-136.51l18.16,-159.63c4.73,-41.6 -6.73,-82.04 -32.27,-113.87c-23.35,-29.1 -56.05,-47.57 -92.37,-52.27l-52.58,462.28Zm11.22,38.96c-6.25,0 -12.55,-0.32 -18.9,-1c-9.23,-0.97 -17.52,-5.51 -23.36,-12.79c-5.98,-7.45 -8.67,-16.84 -7.58,-26.44l53.24,-468.13c2.22,-19.43 19.54,-33.61 38.69,-31.57c47.93,5.05 91.14,28.8 121.68,66.86c32.02,39.9 46.4,90.45 40.5,142.32l-18.16,159.64c-11.14,97.93 -92.64,171.11 -186.11,171.11Z" style="fill:#371a45;fill-rule:nonzero;"/><path d="M1651.55,1183.24c8.66,0.91 14.85,8.93 13.83,17.9l-53.25,468.14c-1.02,8.97 -8.87,15.51 -17.52,14.59c-90.84,-9.58 -155.79,-93.69 -145.08,-187.86l18.16,-159.63c10.71,-94.17 93.03,-162.73 183.86,-153.14Z" style="fill:#fff;fill-rule:nonzero;"/><path d="M1634.67,1185.81c-82.1,0 -153.72,64.57 -163.54,150.96l-18.16,159.63c-5.21,45.82 7.45,90.4 35.65,125.54c26.71,33.3 64.48,54.07 106.34,58.49c6.85,0.71 12.92,-4.47 13.73,-11.55l53.25,-468.13c0.4,-3.53 -0.56,-6.96 -2.73,-9.65c-2.02,-2.52 -4.87,-4.09 -8.02,-4.42c-5.54,-0.59 -11.06,-0.87 -16.52,-0.87Zm-38.45,501.61c-0.66,0 -1.31,-0.04 -1.98,-0.11c-43.71,-4.61 -83.14,-26.29 -111.02,-61.04c-29.36,-36.59 -42.54,-82.99 -37.12,-130.65l18.15,-159.63c10.91,-95.9 95.14,-165.96 187.66,-156.19c5.01,0.52 9.51,3 12.7,6.97c3.32,4.14 4.82,9.39 4.21,14.76l-53.25,468.14c-1.16,10.16 -9.63,17.75 -19.35,17.75Z" style="fill:#371a45;fill-rule:nonzero;"/><path d="M1585.1,1663.02c-33.02,-6.25 -62.58,-24.07 -84.16,-50.96c-25.54,-31.84 -37,-72.27 -32.27,-113.87l3.89,-34.25c21.91,37.83 57.95,66.3 101.59,77.04c0.67,41.11 4.34,81.9 10.95,122.04Z" style="fill:#cdc6d0;fill-rule:nonzero;"/><path d="M1634.67,1201.6c-74.19,0 -138.93,58.6 -147.85,136.96l-18.15,159.63c-4.73,41.6 6.73,82.03 32.27,113.87c23.35,29.1 56.05,47.58 92.37,52.27l52.58,-462.28c-3.75,-0.3 -7.51,-0.45 -11.22,-0.45Zm-38.45,501.62c-1.2,0 -2.42,-0.07 -3.64,-0.2c-47.93,-5.06 -91.15,-28.8 -121.68,-66.86c-32.02,-39.9 -46.4,-90.45 -40.5,-142.32l18.15,-159.64c11.89,-104.48 103.8,-180.84 205.02,-170.11c9.23,0.97 17.52,5.51 23.36,12.79c5.98,7.45 8.67,16.84 7.58,26.44l-53.24,468.13c-2.07,18.19 -17.42,31.77 -35.05,31.77Z" style="fill:#371a45;fill-rule:nonzero;"/><path d="M3129.54,1649.82c-80.13,436.291 -485.85,728.37 -906.21,652.37c-420.36,-75.99 -696.16,-491.28 -616.03,-927.56c80.13,-436.289 485.849,-728.364 906.21,-652.37c420.35,75.993 696.16,491.28 616.03,927.56Z" style="fill:#fff;fill-rule:nonzero;"/><path d="M2380.35,713.746c-367.72,0 -698.47,273.927 -769.65,661.504c-39.62,215.74 5.88,431.9 128.15,608.66c115.83,167.44 288.1,279.26 485.09,314.88c417.8,75.53 822.53,-215.87 902.2,-649.59c39.62,-215.74 -5.89,-431.9 -128.15,-608.65c-115.83,-167.444 -288.1,-279.271 -485.1,-314.885c-44.45,-8.035 -88.76,-11.919 -132.54,-11.919Zm-23.88,1603.88c-44.19,0 -88.88,-3.92 -133.76,-12.03c-198.82,-35.95 -372.67,-148.79 -489.55,-317.76c-123.32,-178.27 -169.23,-396.27 -129.27,-613.84c80.35,-437.459 488.66,-731.332 910.23,-655.144c198.82,35.945 372.68,148.791 489.55,317.754c123.33,178.28 169.23,396.28 129.27,613.84c-71.79,390.89 -405.49,667.18 -776.47,667.18Z" style="fill:#371a45;fill-rule:nonzero;"/><path d="M2356.47,2294.91c-36.89,0 -74.22,-2.83 -111.65,-8.63l0,-61.27c54.84,8.46 107.34,11.94 156.62,11.94c112.22,0 207.73,-18.05 275.96,-36.46c29.05,-7.84 57.14,-16.85 83.6,-26.7c-119.34,77.29 -259.01,121.12 -404.53,121.12Z" style="fill:#b9afbe;fill-rule:nonzero;"/><path d="M2380.35,729.546c-360.26,0 -684.32,268.565 -754.11,648.564c-38.86,211.58 5.75,423.53 125.6,596.81c113.42,163.96 282.08,273.46 474.92,308.32c43.48,7.86 86.88,11.67 129.71,11.67c360.27,0.02 684.33,-268.57 754.13,-648.56c38.86,-211.59 -5.75,-423.54 -125.61,-596.81c-113.42,-163.968 -282.08,-273.468 -474.91,-308.329c-43.49,-7.861 -86.89,-11.665 -129.73,-11.665Zm-23.88,1603.88c-45.12,0 -90.76,-4.01 -136.57,-12.29c-202.97,-36.69 -380.45,-151.87 -499.73,-324.31c-125.72,-181.75 -172.53,-403.96 -131.81,-625.68c81.91,-446.003 498.45,-745.588 928.57,-667.839c202.98,36.694 380.46,151.873 499.74,324.309c125.72,181.76 172.53,403.96 131.81,625.68c-73.19,398.5 -413.55,680.13 -792.01,680.13Z" style="fill:#371a45;fill-rule:nonzero;"/><path d="M3123.38,1669.67c-26.14,154.98 -98.89,290.87 -201.88,396.27c-77.22,79.01 -359.09,193.13 -675.13,144.13c-293.03,-45.44 -531.93,-251.13 -579.04,-350.61c-62.84,-132.69 -87.05,-284.55 -60.91,-439.52c69.17,-410.11 437.41,-524.218 856.32,-455.253c418.92,68.963 729.81,294.883 660.64,704.983Z" style="fill:#f58600;fill-rule:nonzero;"/><path d="M2244.98,960.928c-128.25,0 -241.9,21.941 -335.23,65.332c-159.64,74.23 -256.72,207.52 -288.55,396.17c-24.78,146.93 -4.14,295.84 59.68,430.61c45.34,95.73 280.3,297.62 567.79,342.21c318.54,49.39 592.59,-68.67 662.1,-139.8c104.63,-107.06 173.03,-241.33 197.82,-388.27c25.62,-151.94 -0.96,-284.4 -79.04,-393.69c-106.07,-148.49 -302.91,-250.15 -569.24,-294.003c-75.3,-12.395 -147.37,-18.559 -215.33,-18.559Zm156.46,1276.02c-49.51,0 -102.26,-3.52 -157.37,-12.06c-167.401,-25.96 -303.33,-99.95 -387.88,-157.46c-95.86,-65.19 -175.31,-144.3 -202.42,-201.55c-66.46,-140.35 -87.96,-295.42 -62.15,-448.44c33.56,-198.98 136.34,-339.74 305.48,-418.382c148.27,-68.941 344.71,-85.952 568.08,-49.17c274.38,45.168 477.98,151.042 588.79,306.162c82.87,116.02 111.2,256.02 84.2,416.12c-25.81,153 -97.02,292.79 -205.95,404.25c-45.27,46.33 -142.91,93.87 -254.82,124.07c-68.23,18.41 -163.74,36.46 -275.96,36.46Z" style="fill:#f58600;fill-rule:nonzero;"/><path d="M2863.36,1711.59c-8.3,0 -16.5,-1.38 -24.44,-4.27c-51.5,-18.76 -72.05,-93.93 -45.9,-167.9c22.11,-62.58 70.57,-104.25 116.15,-104.25c8.3,0 16.5,1.38 24.44,4.27c41.62,15.16 63.03,67.16 55.91,125.6c-11.53,33.33 -24.83,65.74 -39.8,97.12c-24.29,30.9 -55.96,49.43 -86.36,49.43Z" style="fill:#9b8da2;fill-rule:nonzero;"/><path d="M2711.6,1894.59c-7.5,0 -14.9,-1.74 -21.74,-5.41c-26.3,-14.12 -34.33,-51.5 -17.94,-83.49c12.13,-23.67 34.24,-37.75 55.57,-37.75c7.5,0 14.9,1.74 21.74,5.41c26.3,14.12 34.33,51.5 17.94,83.49c-12.13,23.67 -34.24,37.75 -55.57,37.75Z" style="fill:#9b8da2;fill-rule:nonzero;"/><path d="M2401.89,2206.98c-49.38,0 -100.71,-3.59 -153.22,-11.73c-1.28,-0.2 -2.57,-0.4 -3.85,-0.61l0,-87.1c255.48,-25.61 457.29,-119.72 527.16,-191.23c72.09,-73.75 132.49,-159.29 177.74,-254.15c12.13,-15.44 22.43,-33.97 29.8,-54.82c5.01,-14.19 8.31,-28.42 10,-42.3c16.82,-48.65 29.83,-99.29 38.66,-151.65c7.28,-43 11.19,-84.43 12.07,-124.29c69.77,106.21 92.75,233.3 68.34,378.08c-24.79,146.94 -93.19,281.21 -197.82,388.27c-58.05,59.4 -258.74,151.54 -508.88,151.53Z" style="fill:#b60;fill-rule:nonzero;"/><path d="M2401.13,2221.9c-50.11,0 -101.97,-3.63 -154.78,-11.81c-0.51,-0.08 -1.02,-0.16 -1.53,-0.24l0,-15.21c1.28,0.21 2.57,0.41 3.85,0.61c52.51,8.14 103.84,11.73 153.22,11.73c250.14,0.01 450.83,-92.13 508.88,-151.53c104.63,-107.06 173.03,-241.33 197.82,-388.27c24.41,-144.78 1.43,-271.87 -68.34,-378.08c0.2,-8.85 0.24,-17.61 0.14,-26.3c77.24,107.07 110.75,242.13 82.98,406.85c-26.14,155 -98.91,290.89 -201.85,396.29c-64.33,65.81 -270.64,155.96 -520.39,155.96Z" style="fill:#2a1a3b;fill-rule:nonzero;"/><path d="M2949.72,1662.16c14.97,-31.38 28.27,-63.79 39.8,-97.12c-1.69,13.88 -4.99,28.11 -10,42.3c-7.37,20.85 -17.67,39.38 -29.8,54.82Z" style="fill:#6b6577;fill-rule:nonzero;"/><path d="M3118.74,1318.53c-5.55,0 -11.05,-2.4 -14.84,-7.03c-0.09,-0.11 -0.26,-0.33 -0.35,-0.44l-1.35,-1.74l-0.94,-1.99c-97.08,-208.35 -327.43,-356.61 -632,-406.758c-306.31,-50.415 -573.29,19.575 -732.47,192.038l-1.19,1.18c-7.81,7.1 -19.92,6.64 -27.12,-1.09c-7.04,-7.58 -6.86,-19.29 0.37,-26.6c168.15,-181.883 447.53,-256.071 766.67,-203.531c317.12,52.215 557.83,208.251 660.47,428.111c3.94,7.95 1.99,17.85 -5.2,23.6c-3.56,2.85 -7.82,4.25 -12.05,4.25Z" style="fill:#371a45;fill-rule:nonzero;"/><path d="M1735.61,1691.95c0,0 -54.18,-424.72 183.14,-551.35c121.49,-64.82 260,-83.25 364.84,-83.25c99.97,0 169.33,16.74 164.22,26c0,0 -348.86,28.97 -526.12,281.96c-136.68,195.08 -186.08,326.64 -186.08,326.64Z" style="fill:#9b8da2;fill-rule:nonzero;"/><path d="M3442.72,3165.39c0,144.18 -585.17,304.06 -1421.32,304.06c-836.15,0 -1421.37,-159.88 -1421.37,-304.06l2842.69,0Z" style="fill-rule:nonzero;"/><path d="M600.029,3158.63c59.223,-10.44 118.446,-13.21 177.668,-14.32c59.224,-1.45 118.446,-0.68 177.669,0.11l88.833,0.64l88.831,0.03l1954.36,0l88.83,-0.02c29.61,0.02 59.22,-0.91 88.83,-1.34c29.62,-0.44 59.23,0.24 88.84,1.94c14.8,0.97 29.61,2.31 44.41,4.44c14.81,2.08 29.62,4.54 44.42,8.52c3.74,1 5.96,4.84 4.95,8.58c-0.67,2.49 -2.62,4.32 -4.95,4.95c-14.8,3.97 -29.61,6.43 -44.42,8.51c-14.8,2.13 -29.61,3.47 -44.41,4.44c-29.61,1.7 -59.22,2.38 -88.84,1.94c-29.61,-0.42 -59.22,-1.36 -88.83,-1.34l-88.83,-0.02l-355.34,0l-710.67,0l-710.68,0l-177.67,0l-88.831,0.04l-88.833,0.63c-59.223,0.79 -118.445,1.56 -177.669,0.11c-59.222,-1.11 -118.445,-3.88 -177.668,-14.31c-3.736,-0.66 -6.232,-4.22 -5.573,-7.96c0.515,-2.92 2.815,-5.08 5.573,-5.57Z" style="fill:#371a45;fill-rule:nonzero;"/><path d="M2855.79,2824.95c-150.16,-18.67 -254,41.34 -289.61,98.7c-37.61,60.62 -55.24,97.44 -32.22,141.84c12.41,23.92 37.15,39.66 73.08,40.65c41.88,1.15 84.52,-38.4 84.52,-38.4c0,0 127.26,112.56 320.33,70.89c33.9,-7.31 38.31,-10.76 38.31,-10.76l18.91,-87.71c0,0 26.31,-113.62 -64.75,-167.93c-76.26,-45.47 -148.57,-47.28 -148.57,-47.28Z" style="fill:#fff;fill-rule:nonzero;"/><path d="M3038.38,3112.67m-0.02,0.01m-0.02,0.01l-0.01,0.02l0.01,-0.02Zm-112.59,54.55c-119.28,0.01 -203.08,-52.08 -233.99,-74.82c-17.62,13.2 -50.95,34.12 -85.24,32.97c-41.33,-1.13 -73.17,-19.26 -89.66,-51.03c-28.31,-54.61 -5.33,-99.15 32.95,-160.87c40.54,-65.27 154.32,-126.8 308.36,-107.65c10.55,1.31 18.04,10.93 16.73,21.48c-1.31,10.56 -10.87,18.05 -21.49,16.74c-137.24,-17.06 -236.61,34.56 -270.87,89.74c-38.25,61.67 -48.76,89.5 -31.49,122.82c9.89,19.06 29.44,29.53 56.52,30.27c27.77,0.78 60.58,-23.78 70.92,-33.29l12.79,-11.78l13.04,11.5c1.18,1.03 122.87,105.45 303.51,66.49c23.63,-5.1 31.25,-8 32.75,-8.63c8.19,-4.73 18.79,-2.83 24.78,4.83c6.55,8.37 5.08,20.48 -3.3,27.03c-2.56,2 -7.88,6.17 -46.11,14.42c-31.88,6.88 -62.04,9.78 -90.2,9.78Z" style="fill:#371a45;fill-rule:nonzero;"/><path d="M2856.83,2805.72c3.34,0.1 5.75,0.18 8.49,0.4c2.67,0.19 5.29,0.44 7.88,0.74c5.22,0.59 10.31,1.38 15.42,2.27c10.15,1.87 20.19,4.18 30.03,7.03c9.86,2.81 19.56,6.1 29.08,9.8c4.74,1.92 9.5,3.73 14.19,5.75l13.86,6.45c18.29,8.96 36.05,18.92 52.59,30.63c8.44,5.54 16.31,11.94 24.19,18.2c7.8,6.38 15.17,13.27 22.51,20.07c3.9,3.62 4.13,9.73 0.51,13.63c-3.07,3.32 -7.93,3.98 -11.72,1.9l-0.7,-0.39c-8.47,-4.67 -16.38,-9.99 -24.81,-14.48c-8.47,-4.43 -16.61,-9.25 -25.23,-13.24c-16.82,-8.66 -34.3,-15.77 -51.78,-22.48c-17.54,-6.59 -35.47,-11.88 -53.41,-16.62c-8.96,-2.44 -18,-4.41 -26.99,-6.39c-4.5,-0.83 -9.01,-1.92 -13.46,-2.62c-2.24,-0.43 -4.46,-0.85 -6.64,-1.18l-6.09,-1.01l-1.64,-0.27c-10.47,-1.75 -17.55,-11.65 -15.81,-22.13c1.6,-9.6 10.06,-16.35 19.53,-16.06Z" style="fill:#371a45;fill-rule:nonzero;"/><path d="M2672.3,3057.65c0.61,-7.79 1.55,-14.22 2.73,-21.16c1.13,-6.81 2.51,-13.54 4.11,-20.23c3.18,-13.36 7.24,-26.52 12.25,-39.35c5.21,-12.79 11.5,-25.18 19.03,-36.84c7.82,-11.55 17.16,-22.09 27.85,-31.03c3.22,-2.69 8.01,-2.26 10.7,0.96c2.44,2.92 2.32,7.12 -0.12,9.89l-0.29,0.33c-8.02,9.13 -14.62,19.3 -19.86,30.24c-4.99,11.11 -8.85,22.71 -11.73,34.62c-2.71,11.98 -4.54,24.18 -5.57,36.44c-0.53,6.13 -0.85,12.29 -0.94,18.4c-0.13,5.98 -0.04,12.53 0.36,17.73c0.83,10.63 -7.13,19.92 -17.76,20.75c-10.64,0.83 -19.93,-7.12 -20.76,-17.76c-0.07,-0.97 -0.06,-2.05 0,-2.99Z" style="fill:#371a45;fill-rule:nonzero;"/><path d="M3031.02,3126.08c2.15,-11 4.62,-21.12 7.41,-31.54c2.78,-10.33 5.9,-20.6 9.5,-30.77c3.64,-10.17 7.74,-20.28 13,-30.13c2.66,-4.92 5.65,-9.78 9.32,-14.42c3.7,-4.59 8.1,-9.19 14.3,-12.32c3.42,-1.74 7.61,-0.36 9.34,3.06c1.49,2.95 0.69,6.45 -1.74,8.48l-0.63,0.52c-5.46,4.56 -9.38,13.6 -12.12,22.56c-2.75,9.15 -4.61,18.85 -6.04,28.65c-1.4,9.82 -2.37,19.78 -3.02,29.77c-0.64,9.9 -1.03,20.22 -0.97,29.72c0.07,10.69 -8.53,19.42 -19.22,19.49c-10.69,0.08 -19.41,-8.53 -19.49,-19.22c-0.01,-1.27 0.13,-2.64 0.36,-3.85Z" style="fill:#371a45;fill-rule:nonzero;"/><rect x="2163.94" y="3085.76" width="903.01" height="79.63" style="fill:#d8d8d8;fill-rule:nonzero;"/><path d="M2183.2,3146.13l864.49,0l0,-41.12l-864.49,0l0,41.12Zm883.75,38.52l-903.01,0c-10.64,0 -19.26,-8.63 -19.26,-19.26l0,-79.63c0,-10.64 8.62,-19.26 19.26,-19.26l903.01,0c10.64,0 19.26,8.62 19.26,19.26l0,79.63c0,10.63 -8.62,19.26 -19.26,19.26Z" style="fill:#371a45;fill-rule:nonzero;"/><path d="M2133.1,2876.19l-1316.17,0c-51.067,0 -92.463,-41.39 -92.463,-92.46l0,-851.42c0,-51.06 41.396,-92.46 92.463,-92.46l1316.17,0c51.07,0 92.46,41.4 92.46,92.46l0,851.42c0,51.07 -41.39,92.46 -92.46,92.46Z" style="fill:#d8d8d8;fill-rule:nonzero;"/><path d="M2133.1,2856.94l-516.32,0l-1.64,-25.26l524.92,0c22.57,0 40.96,-18.39 40.96,-41l0,-865.32c0,-22.62 -18.39,-40.96 -40.96,-40.96l-1330.1,0c-22.574,0 -40.962,18.34 -40.962,40.96l0,865.32c0,22.61 18.388,41 40.962,41l524.944,0l-1.64,25.26l-516.328,0c-40.367,0 -73.208,-32.84 -73.208,-73.21l0,-851.42c0,-40.36 32.841,-73.2 73.208,-73.2l1316.17,0c40.36,0 73.21,32.84 73.21,73.2l0,851.42c0,40.37 -32.85,73.21 -73.21,73.21Z" style="fill:#f3f3f3;fill-rule:nonzero;"/><path d="M2181.02,1925.36l0,865.32c0,22.61 -18.39,41 -40.96,41l-1330.1,0c-22.574,0 -40.962,-18.39 -40.962,-41l0,-865.32c0,-22.62 18.388,-40.96 40.962,-40.96l1330.1,0c22.57,0 40.96,18.34 40.96,40.96Z" style="fill:#d8d8d8;fill-rule:nonzero;"/><path d="M2140.06,2831.68l-524.92,0l-17.65,-271.37c225.1,-135.49 446.39,-336.89 583.53,-634.95l0,865.32c0,22.61 -18.39,41 -40.96,41Zm-805.16,0l-524.944,0c0,0 243.144,-23.02 534.304,-144.03l-9.36,144.03Z" style="fill:#b0a8b3;fill-rule:nonzero;"/><path d="M816.932,1859.11c-40.367,0 -73.208,32.84 -73.208,73.2l0,851.42c0,40.37 32.841,73.21 73.208,73.21l1316.17,0c40.36,0 73.21,-32.84 73.21,-73.21l0,-851.42c0,-40.36 -32.85,-73.2 -73.21,-73.2l-1316.17,0Zm1316.17,1036.34l-1316.17,0c-61.606,0 -111.724,-50.12 -111.724,-111.72l0,-851.42c0,-61.6 50.118,-111.72 111.724,-111.72l1316.17,0c61.6,0 111.72,50.12 111.72,111.72l0,851.42c0,61.6 -50.12,111.72 -111.72,111.72Z" style="fill:#371a45;fill-rule:nonzero;"/><path d="M1694.7,3165.39l-439.38,0c-6.26,0 -11.35,-5.08 -11.35,-11.35c0,-27.66 22.43,-50.08 50.08,-50.08l361.93,0c27.65,0 50.08,22.42 50.08,50.08c0,6.27 -5.09,11.35 -11.36,11.35Z" style="fill:#d8d8d8;fill-rule:nonzero;"/><path d="M1694.7,3165.39l-439.38,0c-6.26,0 -11.35,-5.08 -11.35,-11.35c0,-27.66 22.43,-50.08 50.08,-50.08l361.93,0c27.65,0 50.08,22.42 50.08,50.08c0,6.27 -5.09,11.35 -11.36,11.35Z" style="fill:#b0a8b3;fill-rule:nonzero;"/><path d="M1475.01,2696.82c-36.33,0 -65.81,-29.47 -65.81,-65.81c0,-36.33 29.48,-65.8 65.81,-65.8c36.37,0 65.8,29.47 65.8,65.8c0,36.34 -29.43,65.81 -65.8,65.81Zm119.9,-176.14c-1.6,-24.97 -22.35,-44.39 -47.37,-44.39l-145.06,0c-25.02,0 -45.77,19.42 -47.38,44.39l-37.89,583.26l315.63,0l-37.93,-583.26Z" style="fill:#d8d8d8;fill-rule:nonzero;"/><path d="M1632.84,3103.94l-315.63,0l37.89,-583.26c1.61,-24.97 22.36,-44.39 47.38,-44.39l145.06,0c25.02,0 45.77,19.42 47.37,44.39l37.93,583.26Z" style="fill:#d8d8d8;fill-rule:nonzero;"/><path d="M1632.84,3103.94l-32.38,0l-38.7,0l-244.55,0l37.89,-583.26c1.61,-24.97 22.36,-44.39 47.38,-44.39l145.06,0c25.02,0 45.77,19.42 47.37,44.39l37.93,583.26Zm-33.26,-31.16l-21.23,-326.58l-14.56,-223.51c-0.54,-8.55 -7.66,-15.23 -16.25,-15.23l-145.06,0c-8.59,0 -15.72,6.68 -16.25,15.23l-34.33,528.09l-1.43,22l249.11,0Z" style="fill:#f3f3f3;fill-rule:nonzero;"/><path d="M1599.58,3072.78l-249.11,0l1.43,-22l34.33,-528.09c0.53,-8.55 7.66,-15.23 16.25,-15.23l145.06,0c8.59,0 15.71,6.68 16.25,15.23l14.56,223.51l21.23,326.58Z" style="fill:#d8d8d8;fill-rule:nonzero;"/><path d="M1475.01,2591.18c-21.97,0 -39.84,17.87 -39.84,39.83c0,21.97 17.87,39.84 39.84,39.84c21.97,0 39.84,-17.87 39.84,-39.84c0,-21.96 -17.87,-39.83 -39.84,-39.83Zm0,112.63c-40.14,0 -72.8,-32.66 -72.8,-72.8c0,-40.14 32.66,-72.79 72.8,-72.79c40.14,0 72.8,32.65 72.8,72.79c0,40.14 -32.66,72.8 -72.8,72.8Z" style="fill:#371a45;fill-rule:nonzero;"/><path d="M1599.58,3072.78l-249.11,0l1.43,-22c62.87,-37.62 177.74,-127.82 226.45,-304.58l21.23,326.58Z" style="fill:#b0a8b3;fill-rule:nonzero;"/><path d="M1337.77,3084.69l274.52,0l-36.6,-562.76l0,-0.01c-0.95,-14.79 -13.31,-26.37 -28.15,-26.37l-145.06,0c-14.84,0 -27.21,11.58 -28.16,26.37l-36.55,562.77Zm295.07,38.51l-315.63,0c-5.32,0 -10.41,-2.2 -14.05,-6.09c-3.64,-3.88 -5.51,-9.1 -5.16,-14.42l37.89,-583.25c2.24,-34.99 31.49,-62.4 66.59,-62.4l145.06,0c35.09,0 64.33,27.4 66.59,62.39l37.93,583.26c0.35,5.32 -1.52,10.54 -5.16,14.42c-3.65,3.89 -8.73,6.09 -14.06,6.09Z" style="fill:#371a45;fill-rule:nonzero;"/><path d="M896.851,3230.19c3.374,-0.66 6.787,-1.17 10.114,-2.01c4.52,-1.15 5.5,-2.43 6.019,-7.09c0.347,-3.11 0.635,-6.22 0.995,-9.33c0.029,-0.24 0.419,-0.44 0.945,-0.97c0.645,3.14 1.168,6.08 1.865,8.97c1.284,5.34 2.794,6.6 8.44,6.94c3.108,0.19 6.229,0.15 9.513,1.04c-3.211,0.91 -6.429,1.8 -9.631,2.74c-5.646,1.65 -6.373,2.57 -6.68,8.51c-0.081,1.56 0.013,3.13 -0.035,4.7c-0.036,1.17 -0.17,2.34 -1.137,3.71c-1.012,-3.53 -2.07,-7.06 -3.02,-10.61c-0.734,-2.75 -2.408,-4.32 -5.25,-4.56c-4.021,-0.35 -8.045,-0.67 -12.067,-1c-0.024,-0.35 -0.048,-0.69 -0.071,-1.04Z" style="fill:#e5e9ec;fill-rule:nonzero;"/><path d="M1668.41,3225.6c3.43,0.17 6.87,0.48 10.3,0.46c4.67,-0.04 5.92,-1.06 7.54,-5.46c1.07,-2.93 2.09,-5.89 3.18,-8.82c0.09,-0.23 0.52,-0.33 1.15,-0.72c-0.12,3.2 -0.31,6.18 -0.32,9.16c-0.03,5.49 1.14,7.07 6.54,8.75c2.98,0.92 6.02,1.63 9,3.27c-3.34,0.12 -6.67,0.21 -10.01,0.36c-5.88,0.27 -6.8,0.99 -8.51,6.68c-0.45,1.5 -0.74,3.05 -1.16,4.56c-0.31,1.13 -0.72,2.23 -1.99,3.34c-0.14,-3.68 -0.32,-7.36 -0.4,-11.03c-0.06,-2.85 -1.31,-4.77 -4.01,-5.68c-3.83,-1.3 -7.66,-2.57 -11.49,-3.85c0.06,-0.34 0.12,-0.68 0.18,-1.02Z" style="fill:#e5e9ec;fill-rule:nonzero;"/><path d="M2096.32,3328.7c3.3,0.95 6.58,2.04 9.93,2.79c4.54,1.03 6,0.33 8.58,-3.58c1.71,-2.62 3.38,-5.26 5.11,-7.87c0.14,-0.2 0.58,-0.2 1.28,-0.43c-0.84,3.09 -1.71,5.94 -2.4,8.84c-1.28,5.34 -0.5,7.14 4.37,10.01c2.69,1.58 5.49,2.96 8.01,5.24c-3.27,-0.65 -6.54,-1.32 -9.82,-1.93c-5.79,-1.08 -6.85,-0.59 -9.82,4.56c-0.78,1.35 -1.41,2.8 -2.16,4.17c-0.56,1.03 -1.21,2.01 -2.7,2.8c0.7,-3.62 1.36,-7.24 2.13,-10.84c0.59,-2.78 -0.19,-4.93 -2.62,-6.44c-3.42,-2.13 -6.86,-4.24 -10.3,-6.36c0.14,-0.32 0.27,-0.64 0.41,-0.96Z" style="fill:#e5e9ec;fill-rule:nonzero;"/><path d="M2720.27,3211.03c4.15,-0.61 8.33,-1.04 12.44,-1.88c5.57,-1.14 6.83,-2.65 7.73,-8.29c0.6,-3.76 1.13,-7.54 1.74,-11.31c0.05,-0.29 0.54,-0.51 1.21,-1.12c0.61,3.86 1.08,7.46 1.76,11.03c1.26,6.57 3.03,8.19 9.88,8.93c3.78,0.41 7.58,0.54 11.53,1.8c-3.96,0.93 -7.93,1.83 -11.89,2.79c-6.97,1.7 -7.9,2.78 -8.62,9.99c-0.19,1.9 -0.16,3.82 -0.31,5.72c-0.11,1.42 -0.34,2.84 -1.59,4.46c-1.03,-4.37 -2.12,-8.72 -3.08,-13.1c-0.73,-3.39 -2.68,-5.39 -6.13,-5.86c-4.88,-0.65 -9.76,-1.27 -14.64,-1.9c-0.01,-0.42 -0.02,-0.84 -0.03,-1.26Z" style="fill:#e5e9ec;fill-rule:nonzero;"/><path d="M3029.32,3238.79c3.32,-0.89 6.69,-1.64 9.95,-2.71c4.43,-1.46 5.32,-2.81 5.52,-7.49c0.13,-3.13 0.2,-6.25 0.34,-9.38c0.01,-0.24 0.39,-0.47 0.88,-1.03c0.86,3.08 1.58,5.98 2.48,8.82c1.65,5.23 3.24,6.38 8.9,6.33c3.11,-0.02 6.23,-0.28 9.56,0.38c-3.14,1.13 -6.28,2.24 -9.41,3.4c-5.52,2.04 -6.18,3.01 -6.08,8.95c0.03,1.57 0.23,3.13 0.29,4.69c0.05,1.18 0,2.35 -0.87,3.79c-1.26,-3.46 -2.56,-6.9 -3.75,-10.38c-0.92,-2.69 -2.7,-4.14 -5.56,-4.19c-4.03,-0.06 -8.07,-0.1 -12.1,-0.16c-0.05,-0.34 -0.1,-0.68 -0.15,-1.02Z" style="fill:#e5e9ec;fill-rule:nonzero;"/><path d="M2418.76,3336.53c3.4,-0.5 6.83,-0.86 10.2,-1.54c4.56,-0.94 5.6,-2.18 6.34,-6.8c0.49,-3.09 0.92,-6.19 1.43,-9.28c0.04,-0.24 0.44,-0.42 0.99,-0.92c0.5,3.16 0.88,6.12 1.44,9.05c1.03,5.39 2.48,6.72 8.11,7.32c3.09,0.34 6.21,0.44 9.45,1.48c-3.25,0.76 -6.5,1.5 -9.75,2.29c-5.71,1.39 -6.48,2.27 -7.07,8.19c-0.15,1.56 -0.13,3.13 -0.25,4.69c-0.09,1.17 -0.28,2.33 -1.31,3.66c-0.85,-3.58 -1.74,-7.15 -2.52,-10.75c-0.61,-2.77 -2.2,-4.42 -5.03,-4.8c-4,-0.53 -8.01,-1.04 -12.01,-1.56c-0.01,-0.34 -0.02,-0.69 -0.02,-1.03Z" style="fill:#e5e9ec;fill-rule:nonzero;"/><path d="M1989.47,3219.53c3.37,-2.06 6.84,-3.97 10.08,-6.21c4.41,-3.04 4.95,-4.81 3.64,-10.03c-0.87,-3.49 -1.8,-6.95 -2.66,-10.44c-0.06,-0.27 0.28,-0.65 0.63,-1.42c1.95,3.12 3.69,6.07 5.6,8.9c3.51,5.24 5.64,5.99 11.85,4.1c3.42,-1.04 6.77,-2.33 10.65,-2.69c-3.09,2.26 -6.19,4.5 -9.26,6.8c-5.42,4.04 -5.83,5.32 -3.79,11.83c0.54,1.71 1.27,3.37 1.84,5.07c0.43,1.27 0.75,2.59 0.26,4.45c-2.5,-3.4 -5.05,-6.77 -7.49,-10.22c-1.89,-2.66 -4.32,-3.68 -7.47,-2.8c-4.47,1.23 -8.93,2.49 -13.39,3.75c-0.16,-0.37 -0.33,-0.73 -0.49,-1.09Z" style="fill:#e5e9ec;fill-rule:nonzero;"/><path d="M1434.22,3306.13c3.4,-0.5 6.83,-0.85 10.2,-1.54c4.57,-0.93 5.61,-2.17 6.34,-6.8c0.49,-3.09 0.93,-6.19 1.43,-9.27c0.04,-0.24 0.44,-0.43 0.99,-0.92c0.5,3.16 0.88,6.12 1.45,9.04c1.03,5.39 2.48,6.72 8.1,7.33c3.1,0.33 6.22,0.44 9.46,1.48c-3.25,0.76 -6.51,1.49 -9.75,2.28c-5.72,1.39 -6.49,2.28 -7.07,8.19c-0.16,1.56 -0.14,3.13 -0.26,4.7c-0.09,1.16 -0.28,2.33 -1.31,3.66c-0.84,-3.59 -1.73,-7.16 -2.52,-10.75c-0.6,-2.78 -2.2,-4.42 -5.03,-4.8c-4,-0.54 -8,-1.05 -12.01,-1.57c0,-0.34 -0.01,-0.68 -0.02,-1.03Z" style="fill:#e5e9ec;fill-rule:nonzero;"/><path d="M1236.17,3217.14c6.25,0.03 12.51,0.33 18.74,0c8.46,-0.44 10.67,-2.38 13.24,-10.49c1.73,-5.42 3.35,-10.87 5.09,-16.28c0.14,-0.42 0.9,-0.64 2.03,-1.39c0.03,5.82 -0.08,11.24 0.14,16.65c0.39,9.97 2.63,12.75 12.57,15.36c5.48,1.44 11.05,2.48 16.59,5.22c-6.05,0.49 -12.1,0.93 -18.14,1.47c-10.65,0.94 -12.27,2.33 -14.92,12.8c-0.7,2.75 -1.09,5.59 -1.73,8.36c-0.48,2.07 -1.14,4.11 -3.35,6.22c-0.55,-6.67 -1.18,-13.33 -1.61,-20c-0.33,-5.15 -2.76,-8.54 -7.74,-9.99c-7.04,-2.04 -14.1,-4.04 -21.15,-6.06c0.08,-0.62 0.16,-1.25 0.24,-1.87Z" style="fill:#e5e9ec;fill-rule:nonzero;"/><path d="M1775.15,3325.76c6.06,1.1 12.09,2.47 18.19,3.23c8.29,1.04 10.76,-0.47 14.66,-7.89c2.6,-4.96 5.12,-9.97 7.74,-14.92c0.21,-0.39 0.99,-0.47 2.21,-1c-0.97,5.65 -2.01,10.89 -2.74,16.18c-1.33,9.74 0.36,12.82 9.56,17.08c5.06,2.34 10.29,4.31 15.19,7.93c-5.95,-0.58 -11.89,-1.19 -17.85,-1.71c-10.5,-0.92 -12.31,0.14 -16.69,9.84c-1.16,2.56 -2.03,5.24 -3.13,7.82c-0.82,1.93 -1.81,3.79 -4.32,5.46c0.62,-6.57 1.16,-13.14 1.89,-19.69c0.57,-5.06 -1.2,-8.76 -5.79,-11.03c-6.48,-3.2 -12.98,-6.36 -19.47,-9.53c0.18,-0.59 0.37,-1.18 0.55,-1.77Z" style="fill:#e5e9ec;fill-rule:nonzero;"/><path d="M2299.98,3209.95c4.74,-0.49 9.52,-0.78 14.22,-1.54c6.39,-1.03 7.9,-2.69 9.19,-9.06c0.86,-4.26 1.64,-8.53 2.51,-12.78c0.07,-0.33 0.64,-0.56 1.43,-1.22c0.51,4.41 0.87,8.54 1.48,12.62c1.12,7.54 3.05,9.46 10.81,10.63c4.28,0.64 8.59,0.97 13.02,2.59c-4.54,0.87 -9.1,1.7 -13.64,2.61c-8.01,1.6 -9.12,2.78 -10.27,10.95c-0.31,2.15 -0.37,4.33 -0.63,6.49c-0.19,1.61 -0.52,3.21 -2.02,4.99c-0.97,-5.01 -2,-10.01 -2.88,-15.04c-0.68,-3.89 -2.8,-6.26 -6.7,-6.94c-5.51,-0.98 -11.03,-1.91 -16.55,-2.86c0.01,-0.48 0.02,-0.96 0.03,-1.44Z" style="fill:#e5e9ec;fill-rule:nonzero;"/><path d="M2640.34,3312.95c6.35,0.05 12.72,0.38 19.06,0.08c8.61,-0.42 10.85,-2.38 13.51,-10.62c1.77,-5.5 3.44,-11.04 5.24,-16.53c0.14,-0.43 0.92,-0.65 2.06,-1.41c0.02,5.92 -0.12,11.43 0.08,16.93c0.36,10.14 2.63,12.97 12.73,15.68c5.55,1.48 11.22,2.56 16.84,5.37c-6.15,0.47 -12.3,0.89 -18.45,1.42c-10.83,0.92 -12.49,2.32 -15.23,12.95c-0.72,2.8 -1.13,5.68 -1.79,8.5c-0.5,2.11 -1.17,4.17 -3.43,6.31c-0.53,-6.78 -1.15,-13.55 -1.56,-20.34c-0.32,-5.25 -2.77,-8.7 -7.83,-10.19c-7.15,-2.11 -14.32,-4.17 -21.48,-6.25c0.08,-0.64 0.17,-1.27 0.25,-1.9Z" style="fill:#e5e9ec;fill-rule:nonzero;"/><path d="M1264.26,3146.13l421.5,0c-3.5,-13.18 -15.52,-22.91 -29.79,-22.91l-361.91,0c-14.27,0 -26.3,9.73 -29.8,22.91Zm430.45,38.52l-439.38,0c-16.88,0 -30.62,-13.73 -30.62,-30.61c0,-38.23 31.11,-69.34 69.35,-69.34l361.91,0c38.24,0 69.34,31.11 69.34,69.34c0,16.88 -13.73,30.61 -30.6,30.61Z" style="fill:#371a45;fill-rule:nonzero;"/><path d="M3184.64,2726.45c-3.06,0 -6.15,-0.73 -9.03,-2.27c-140.72,-74.87 -327.85,-8.73 -329.72,-8.04c-9.98,3.6 -21.03,-1.55 -24.66,-11.56c-3.61,-9.99 1.54,-21.03 11.53,-24.66c8.3,-3 204.92,-72.76 360.94,10.26c9.39,5 12.95,16.66 7.96,26.05c-3.46,6.51 -10.13,10.21 -17.02,10.22Z" style="fill:#371a45;fill-rule:nonzero;"/><path d="M1622.17,2071.23c0.48,-3.58 0.85,-7.119 1.11,-10.629l-10.17,-1.23l9.06,11.859Zm-257.35,87.55c10.54,-14.32 20.96,-28.51 31.35,-42.66c-3.47,0.3 -6.88,0.9 -10.06,1.78c-20.3,5.58 -36.78,17.48 -51.28,31.11l29.99,9.77Zm111.76,-10.28c5.54,0 10.8,1.9 15.21,5.51c5.93,4.83 9.29,11.88 9.16,19.32c-0.13,7.65 -3.9,14.84 -10.35,19.73c-13.63,10.48 -27.36,20.99 -41.09,31.49c-8.59,6.58 -17.19,13.15 -25.77,19.73c47.76,-14.65 83.59,-29.35 115.43,-47.32c15.74,-8.89 27.78,-17.47 37.88,-27.02c12.25,-11.66 22.28,-26.34 30.55,-44.79c-2.1,-2.67 -4.19,-5.42 -6.28,-8.16l-3.99,-5.2c-13.48,-17.669 -26.9,-35.25 -40.46,-52.8c-11.27,1.611 -22.35,4.57 -33.31,8.841c-16.38,6.339 -31.63,16.859 -49.47,34.089c-16.5,15.82 -31.31,32.95 -44.06,50.97c-11.39,16.06 -22.55,32.75 -33.34,48.89l-1.85,2.75l21.81,-16.7c14.7,-11.29 29.41,-22.55 44.17,-33.8c4.82,-3.63 10.25,-5.53 15.76,-5.53Zm-12.54,169.21c10.97,-6.77 19.67,-13.44 27.16,-20.75c10.92,-10.75 17.74,-21.09 21.38,-32.44l-50.26,19.53c0.58,11.09 1.15,22.31 1.72,33.66Zm-23.18,64.02c-13.2,0 -23.33,-10.35 -24.08,-24.6c-0.91,-16.34 -1.7,-32.76 -2.49,-49.18l-0.52,-10.69c-0.22,0.01 -0.44,0.01 -0.66,0.01c-10.61,0 -16.97,-6.44 -21.32,-12.05c-2.64,-3.41 -5.27,-6.84 -7.93,-10.33c-2.31,1.77 -4.63,3.5 -6.98,5.18c-4.24,3.06 -9.14,4.7 -14.13,4.7c-4.46,0 -8.81,-1.26 -12.93,-3.75c-9.38,-5.53 -13.85,-16.44 -10.79,-26.49c1.39,-4.89 4.59,-9.95 8.7,-13.69c2.01,-1.84 4.07,-3.52 6.15,-5.12c-1.29,-1.68 -2.56,-3.35 -3.83,-5.02l-0.7,-0.96c-0.22,-0.31 -0.43,-0.63 -0.67,-0.91c-7.77,-8.22 -10.76,-17.46 -8.85,-26.52l-55.11,-17.83c-9.04,-3.05 -15.44,-9.32 -17.67,-17.25c-2.21,-7.86 -0.06,-16.46 5.91,-23.6c14.36,-17.23 34.12,-39.11 59.55,-55.12c23.21,-14.57 45.74,-21.649 68.92,-21.649c1.69,0 3.4,0.029 5.11,0.109c10.37,0.52 19.45,2.371 27.69,5.621l3.74,-3.551c7.57,-7.199 15.4,-14.65 23.87,-21.45c28.38,-22.86 61.95,-35.68 102.59,-39.18c6.73,-0.59 13.58,-0.88 20.36,-0.88c20.99,0 42.57,2.82 64.12,8.39c3.19,0.81 6.09,1.97 8.66,3c1.08,0.44 2.17,0.88 3.27,1.27c2.14,0.76 4.01,2.11 5.43,3.89c0.61,0.77 2.7,3.56 3.18,4.16c1.21,1.53 2.04,3.34 2.41,5.26c2.67,13.86 1.18,26.91 -0.27,39.53l-0.22,1.86c-4.03,35.61 -14.88,67.84 -32.24,95.77c-13.89,22.38 -31.68,40.73 -52.88,54.53c-4.7,3.05 -9.45,5.98 -14.19,8.9c-2.85,1.76 -5.7,3.53 -8.54,5.31c3.01,28.49 -5.82,54.93 -26.89,80.78c-14.26,17.38 -32.72,32.1 -56.47,45.02c-8.44,4.57 -17.28,9.03 -27.06,13.64c-4.02,1.91 -8.15,2.89 -12.24,2.89Z" style="fill:#fff;fill-rule:nonzero;"/><path d="M1628.97,2100.15c-14.18,-18.579 -28.02,-36.64 -41.89,-54.79c0.02,-0.42 0.14,-0.9 0.2,-1.35c16.15,1.93 32.33,3.91 48.68,5.87c-0.31,17.6 -2.91,33.731 -6.99,50.27Zm-8.51,25.94c-8.38,19.78 -19.38,37.78 -35.05,52.69c-12.09,11.43 -25.82,20.61 -40.26,28.77c-39.18,22.11 -81.17,37.37 -124.1,50.26c-2.1,0.6 -3.38,0.49 -4.77,-1.43c-2.99,-4.26 -6.35,-8.36 -9.52,-12.56c-0.22,-0.24 -0.28,-0.63 -0.59,-1.39c1.1,-0.88 2.27,-1.74 3.46,-2.65c24.5,-18.81 49.12,-37.56 73.62,-56.41c7.09,-5.37 7.39,-14.61 0.83,-19.95c-4.58,-3.75 -10.61,-3.69 -15.89,0.28c-14.74,11.24 -29.45,22.5 -44.16,33.79c-10.96,8.38 -21.84,16.74 -33.24,25.48c-3.92,-5.11 -7.69,-9.78 -11.09,-14.68c-0.58,-0.88 0.01,-3.1 0.8,-4.19c13.06,-19.49 26.01,-39.08 39.6,-58.23c13.45,-19.01 28.73,-36.58 45.55,-52.69c15.76,-15.24 32.84,-28.68 53.5,-36.69c13.24,-5.16 26.9,-8.66 41.02,-10.17c1.28,-0.19 3.13,1.1 4.04,2.28c14.35,18.56 28.54,37.13 42.75,55.761c4.27,5.529 8.48,11.189 12.88,16.659c1.3,1.66 1.46,3.06 0.62,5.07Zm-96.14,141.64c-4.68,14.94 -13.62,27.1 -24.62,37.95c-13.68,13.33 -29.61,23.26 -46.83,32.34c-1.04,-21.16 -2.1,-41.85 -3.14,-62.13c26.04,-10.12 51.49,-20.01 77.08,-29.95c0.99,7.05 -0.22,14.52 -2.49,21.79Zm-154.91,-94.66c-18.42,-6 -37.52,-12.22 -57.13,-18.61c20.27,-21.54 41.72,-40.35 70.6,-48.29c12.48,-3.43 26.91,-3.14 35.42,0.32c-16.17,22.07 -32.38,44.14 -48.89,66.58Zm289.88,-99.56c1.42,-12.45 3.07,-25.05 0.63,-37.71c-1.09,-1.38 -2.09,-2.78 -3.18,-4.16c-3.61,-1.3 -7.12,-3 -10.87,-3.94c-26.41,-6.82 -53.19,-9.52 -80.39,-7.18c-35.47,3.06 -68.03,14 -96.02,36.551c-10.14,8.129 -19.38,17.319 -28.84,26.229c-2.54,2.42 -4.49,3.42 -8.05,1.791c-8.38,-3.811 -17.41,-5.51 -26.58,-5.97c-24.59,-1.111 -46.53,6.829 -67,19.679c-22.18,13.97 -40.06,32.65 -56.7,52.64c-7.09,8.47 -4.34,17.92 6.21,21.48c6.66,2.17 13.32,4.3 19.98,6.48c15.95,5.16 31.87,10.28 47.78,15.44c-0.04,0.5 0.01,0.76 -0.07,0.99c-0.13,0.32 -0.27,0.67 -0.48,0.98c-6.64,8.53 -5.03,16.43 1.97,23.84c0.75,0.83 1.4,1.8 2.06,2.7c3.66,4.82 7.41,9.69 11.29,14.71c-5.3,4.09 -10.51,7.57 -15.12,11.77c-2.32,2.12 -4.38,5.2 -5.25,8.24c-1.5,4.92 1.05,9.95 5.43,12.53c4.64,2.79 9.42,2.68 13.74,-0.44c5.48,-3.9 10.72,-8.12 16.3,-12.39c5.27,6.95 10.26,13.51 15.26,20c5.75,7.39 9.7,8.65 18.6,6.19c1.62,-0.51 3.22,-0.85 5.13,-1.32c0.13,1.9 0.28,3.43 0.36,4.86c1.13,23.01 2.18,46.05 3.44,68.99c0.58,10.88 9.17,16.02 18.99,11.35c8.87,-4.18 17.74,-8.61 26.44,-13.33c20.05,-10.9 38.29,-24.26 52.84,-42.01c18.22,-22.35 28.3,-47.31 23.58,-76.79c-0.2,-1.16 0.77,-3.15 1.78,-3.75c8.94,-5.76 18.12,-11.15 27.07,-16.96c20.22,-13.18 36.48,-30.3 49.18,-50.76c17.28,-27.8 26.82,-58.32 30.49,-90.73Z" style="fill:#371a45;fill-rule:nonzero;"/><path d="M1576.84,2149.38c-18.74,14.11 -45.24,10.66 -59.31,-7.81c-14.15,-18.45 -10.58,-44.93 7.97,-59.239c18.22,-14.021 44.73,-10.401 58.93,8.049c14.05,18.34 10.63,45.22 -7.59,59Zm43,-28.36c-4.4,-5.47 -8.61,-11.13 -12.88,-16.659c-14.21,-18.631 -28.4,-37.201 -42.75,-55.761c-0.91,-1.18 -2.76,-2.47 -4.04,-2.28c-14.12,1.51 -27.78,5.01 -41.02,10.17c-20.66,8.01 -37.74,21.45 -53.5,36.69c-16.82,16.11 -32.1,33.68 -45.55,52.69c-13.59,19.15 -26.54,38.74 -39.6,58.23c-0.79,1.09 -1.38,3.31 -0.8,4.19c3.4,4.9 7.17,9.57 11.09,14.68c11.4,-8.74 22.28,-17.1 33.24,-25.48c14.71,-11.29 29.42,-22.55 44.16,-33.79c5.28,-3.97 11.31,-4.03 15.89,-0.28c6.56,5.34 6.26,14.58 -0.83,19.95c-24.5,18.85 -49.12,37.6 -73.62,56.41c-1.19,0.91 -2.36,1.77 -3.46,2.65c0.31,0.76 0.37,1.15 0.59,1.39c3.17,4.2 6.53,8.3 9.52,12.56c1.39,1.92 2.67,2.03 4.77,1.43c42.93,-12.89 84.92,-28.15 124.1,-50.26c14.44,-8.16 28.17,-17.34 40.26,-28.77c15.67,-14.91 26.67,-32.91 35.05,-52.69c0.84,-2.01 0.68,-3.41 -0.62,-5.07Z" style="fill:#fff;fill-rule:nonzero;"/><path d="M1628.97,2100.13c-14.19,-18.539 -28.03,-36.63 -41.89,-54.78c0.04,-0.43 0.14,-0.88 0.19,-1.35c16.15,1.96 32.34,3.93 48.71,5.88c-0.31,17.59 -2.93,33.731 -7.01,50.25Z" style="fill:#f58600;fill-rule:nonzero;"/><path d="M1418.32,2106.5c-16.19,22.05 -32.4,44.13 -48.9,66.59c-18.45,-6.03 -37.54,-12.24 -57.14,-18.62c20.29,-21.56 41.72,-40.38 70.61,-48.29c12.47,-3.46 26.88,-3.16 35.43,0.32Z" style="fill:#f58600;fill-rule:nonzero;"/><path d="M1499.68,2305.68c-13.68,13.33 -29.59,23.28 -46.82,32.33c-1.05,-21.14 -2.1,-41.83 -3.13,-62.12c26.04,-10.12 51.48,-19.99 77.1,-29.96c0.99,7.06 -0.25,14.52 -2.5,21.82c-4.67,14.94 -13.62,27.09 -24.65,37.93Z" style="fill:#f58600;fill-rule:nonzero;"/><path d="M1564.21,2133.8c-9.49,7.18 -23.42,5.29 -30.82,-4.19c-7.64,-9.77 -5.56,-24.13 4.56,-31.64c9.48,-7.109 23.68,-5.05 30.82,4.48c7.46,9.9 5.4,23.82 -4.56,31.35Zm20.22,-43.42c-14.2,-18.45 -40.71,-22.07 -58.93,-8.049c-18.55,14.309 -22.12,40.789 -7.97,59.239c14.07,18.47 40.57,21.92 59.31,7.81c18.22,-13.78 21.64,-40.66 7.59,-59Z" style="fill:#371a45;fill-rule:nonzero;"/><path d="M1564.2,2133.8c-9.49,7.18 -23.42,5.29 -30.83,-4.2c-7.61,-9.76 -5.54,-24.11 4.57,-31.62c9.5,-7.1 23.68,-5.05 30.81,4.46c7.46,9.91 5.44,23.84 -4.55,31.36Z" style="fill:#f58600;fill-rule:nonzero;"/><path d="M1273.32,1058.43c28.55,-37.49 45.53,-84.259 45.53,-135.014c0,-123.191 -99.87,-223.057 -223.06,-223.057c-123.19,0 -223.055,99.866 -223.055,223.057c0,123.194 99.865,223.054 223.055,223.054c34.27,0 66.72,-7.74 95.73,-21.55l100.32,33.57l-18.52,-100.06Z" style="fill:#fff;fill-rule:nonzero;"/><path d="M1290.49,857.432c-38.17,-68.125 -111.05,-114.173 -194.7,-114.173c-83.64,0 -156.524,46.046 -194.695,114.17c27.553,-81.076 104.425,-139.57 194.695,-139.57c90.27,0 167.14,58.497 194.7,139.573Z" style="fill:#fff;fill-rule:nonzero;"/><path d="M1191.52,1107.42c1.87,0 3.74,0.3 5.55,0.9l72.16,24.15l-13.12,-70.86c-0.9,-4.85 0.29,-9.86 3.29,-13.79c27.44,-36.03 41.95,-79.05 41.95,-124.404c0,-113.345 -92.22,-205.557 -205.56,-205.557c-113.345,0 -205.558,92.212 -205.558,205.557c0,113.344 92.218,205.554 205.558,205.554c30.85,0 60.53,-6.68 88.21,-19.85c2.37,-1.13 4.94,-1.7 7.52,-1.7Zm100.32,68.57c-1.86,0 -3.74,-0.29 -5.55,-0.9l-93.77,-31.38c-30.54,13.45 -63.04,20.26 -96.73,20.27c-132.643,0 -240.558,-107.92 -240.558,-240.564c0,-132.644 107.915,-240.557 240.558,-240.557c132.65,0 240.56,107.913 240.56,240.557c0,50.45 -15.34,98.434 -44.44,139.284l17.14,92.61c1.12,6.09 -1.05,12.32 -5.73,16.39c-3.23,2.81 -7.33,4.29 -11.48,4.29Z" style="fill:#371a45;fill-rule:nonzero;"/><path d="M1269.23,1132.47l-72.16,-24.15c-1.81,-0.6 -3.68,-0.9 -5.55,-0.9c-2.58,0 -5.15,0.57 -7.52,1.7c-27.68,13.17 -57.36,19.85 -88.21,19.85c-106.886,0 -194.986,-82.01 -204.674,-186.412c26.792,64.587 79.59,118.112 150.554,143.712c28.86,10.42 58.36,15.35 87.36,15.35c45.37,0 89.54,-12.08 128.16,-34.18l12.04,65.03Z" style="fill:#b9afbe;fill-rule:nonzero;"/><path d="M1291.84,1158.49l-100.32,-33.57c-29.01,13.81 -61.46,21.55 -95.73,21.55c-123.19,0 -223.055,-99.86 -223.055,-223.054c0,-11.728 0.916,-23.24 2.66,-34.48c3.299,18.447 8.588,36.426 15.721,53.622c9.688,104.402 97.788,186.412 204.674,186.412c30.85,0 60.53,-6.68 88.21,-19.85c2.37,-1.13 4.94,-1.7 7.52,-1.7c1.87,0 3.74,0.3 5.55,0.9l72.16,24.15l-12.04,-65.03c6.01,-3.43 11.87,-7.11 17.59,-11.02c-0.49,0.67 -0.96,1.35 -1.46,2.01l18.52,100.06Z" style="fill:#371a45;fill-rule:nonzero;"/><path d="M1166.75,860.799c-19.3,-19.304 -50.6,-15.845 -69.9,3.459l-3.01,3.004l-3,-3.004c-19.3,-19.304 -50.6,-22.763 -69.91,-3.459c-19.3,19.304 -19.3,50.601 0,69.905l3.009,3.004l60.691,60.691c5.09,5.089 13.34,5.089 18.43,0l60.69,-60.691l3,-3.004c19.31,-19.304 19.31,-50.601 0,-69.905Z" style="fill:#f58600;fill-rule:nonzero;"/></g></svg>