<?xml version="1.0" encoding="UTF-8" standalone="no"?><!DOCTYPE svg PUBLIC "-//W3C//DTD SVG 1.1//EN" "http://www.w3.org/Graphics/SVG/1.1/DTD/svg11.dtd"><svg width="100%" height="100%" viewBox="0 0 3981 3994" version="1.1" xmlns="http://www.w3.org/2000/svg" xmlns:xlink="http://www.w3.org/1999/xlink" xml:space="preserve" xmlns:serif="http://www.serif.com/" style="fill-rule:evenodd;clip-rule:evenodd;stroke-linejoin:round;stroke-miterlimit:2;"><rect id="Tavola-da-disegno1" serif:id="Tavola da disegno1" x="0" y="0" width="3980.88" height="3993.41" style="fill:none;"/><g><path d="M2481.52,2104.01l0,690.66c0,116.16 -95.06,211.16 -211.17,211.16l-698.26,0c-116.11,0 -211.16,-95 -211.16,-211.16l0,-690.66c0,-68.39 32.94,-129.41 83.7,-168.05c35.5,-27.04 79.7,-43.11 127.46,-43.11l698.26,0c52.24,0 100.19,19.25 137.17,51c45.24,38.78 74,96.24 74,160.16Z" style="fill:#fff;fill-rule:nonzero;"/><path d="M2270.33,1857.03l-698.22,0c-136.18,0 -246.97,110.79 -246.97,246.97l0,690.68c0,136.18 110.79,246.97 246.97,246.97l698.22,0c136.18,0 246.97,-110.79 246.97,-246.97l0,-690.68c0,-136.18 -110.79,-246.97 -246.97,-246.97Zm0,35.8c116.14,0 211.17,95.03 211.17,211.17l0,690.68c0,116.14 -95.03,211.16 -211.17,211.16l-698.22,0c-116.14,0 -211.16,-95.02 -211.16,-211.16l0,-690.68c0,-116.14 95.02,-211.17 211.16,-211.17l698.22,0Z" style="fill:#371a45;fill-rule:nonzero;"/><path d="M2186.71,1868.13c260.08,89.31 279.28,295.26 459.2,414.82c77.88,51.74 159.23,39.11 256.38,13.04c51.78,-13.89 76.63,37.44 80.03,125.32c4.74,122.42 -37.38,209.04 -292.15,214.01c-296.94,5.8 -348.35,-345.73 -348.35,-345.73l-155.11,-421.46Z" style="fill:#fff;fill-rule:nonzero;"/><path d="M2682.31,2617.5c-75.05,0 -139.32,-24.32 -192.04,-72.37c0.06,-4.88 -0.28,-9.8 -1.01,-14.73c-5.68,-38.44 -34.05,-68.16 -70.13,-76.5c-4.34,-7.66 -8.39,-15.33 -12.16,-22.94c-0.4,-1.71 -0.8,-3.41 -1.21,-5.11c-13.59,-61.95 -31.12,-123.27 -58.15,-181.29c-0.98,-2.08 -3.1,-3.49 -5.48,-3.49c-0.2,0 -0.4,0.01 -0.6,0.04c-0.37,0.03 -0.72,0.1 -1.06,0.2c-1.28,-4.45 -2.58,-8.9 -3.9,-13.36c95.75,90.89 97.72,313.39 345.34,313.39c2.74,0 5.46,-0.02 8.26,-0.08c56.85,-1.11 103.11,-6.28 140.63,-15.01c7.38,10.9 15.85,21.17 25.36,30.7c9.47,9.46 19.69,17.89 30.52,25.24c-44.22,21.93 -109.28,33.52 -196.86,35.23c-2.52,0.05 -5.02,0.08 -7.51,0.08Z" style="fill:#b9afbe;fill-rule:nonzero;"/><path d="M2683.07,2653.3c-124.94,0 -226.46,-62.03 -293.96,-179.77c-51.07,-89.08 -64.46,-177.62 -65,-181.35c-1.44,-9.78 5.34,-18.87 15.12,-20.31c9.77,-1.4 18.87,5.35 20.3,15.13c0.13,0.84 13.18,86.37 61.15,169.61c62.81,108.97 153.42,163.28 269.14,160.81c121.53,-2.37 199.71,-23.77 239,-65.43c27,-28.62 37.99,-68.71 35.62,-129.98c-2.88,-74.25 -20.33,-97.88 -30.48,-105.35c-4.54,-3.34 -12.27,-7.33 -27.03,-3.37c-92.99,24.95 -183.69,42.53 -270.92,-15.43c-75.87,-50.41 -124.44,-116.05 -171.41,-179.53c-69.31,-93.66 -134.77,-182.12 -283.7,-233.27c-9.36,-3.21 -14.33,-13.39 -11.12,-22.74c3.21,-9.35 13.38,-14.33 22.74,-11.12c159.47,54.76 231.35,151.89 300.86,245.83c47.22,63.8 91.81,124.07 162.44,171c68.09,45.25 137.52,38.65 241.83,10.68c21.66,-5.81 41.56,-2.67 57.55,9.12c27.23,20.07 42.38,64.74 45.01,132.79c1.87,48.25 -1.6,109.57 -45.34,155.94c-46.89,49.69 -130.89,74.05 -264.36,76.66c-2.48,0.05 -4.97,0.08 -7.44,0.08Z" style="fill:#371a45;fill-rule:nonzero;"/><path d="M1654.78,1868.13c-260.08,89.31 -297.68,302.39 -474.73,426.16c-52.84,36.94 -125.6,57.19 -240.754,39.17c-52.967,-8.29 -115.94,-15.67 -126.839,71.6c-8.858,70.92 113.783,230.76 338.873,230.26c296.99,-0.66 348.34,-345.73 348.34,-345.73l155.11,-421.46Z" style="fill:#fff;fill-rule:nonzero;"/><path d="M1151.29,2617.42l-1.05,0c-157.28,0 -244.762,-79.62 -275.104,-113.91c-15.294,-17.29 -26.028,-33.64 -33.186,-48.18c51.515,74.99 163.94,118.84 313.38,118.84l1.62,0c166.95,-0.36 214.18,-101.8 257.91,-196.96c6.73,20.11 11.32,41.51 12.73,63.95c-2.25,4.16 -4.61,8.35 -7.05,12.52c-36.6,8.01 -65.44,37.9 -71.18,76.73c-0.66,4.47 -1,8.93 -1.01,13.36c-47.79,42.69 -111.8,73.46 -197.06,73.65Zm293.18,-228.82c-3.86,-15.1 -8.87,-29.57 -14.71,-43.33c16.09,-33.45 33.45,-64.47 57.59,-87.99c-4.4,9.07 -8.35,18.28 -12.08,27.57c-6.1,14.85 -11.44,29.95 -15.66,45.32c-4.39,15.34 -8.6,30.73 -12.34,46.23c-1,4.05 -1.92,8.12 -2.8,12.2Z" style="fill:#b9afbe;fill-rule:nonzero;"/><path d="M1150.24,2653.23c-171.865,0 -268.359,-88.07 -301.921,-126c-37.952,-42.89 -57.997,-89.39 -53.626,-124.39c4.273,-34.21 16.636,-59.24 36.748,-74.39c32.954,-24.83 77.845,-17.81 110.62,-12.67c98.139,15.34 170.489,3.86 227.739,-36.16c67.8,-47.4 114.12,-107.89 163.16,-171.94c75.59,-98.7 153.75,-200.76 316.01,-256.48c9.34,-3.21 19.53,1.77 22.74,11.12c3.21,9.35 -1.76,19.53 -11.12,22.74c-152.03,52.21 -226.84,149.91 -299.2,244.39c-48.54,63.39 -98.73,128.94 -171.08,179.51c-64.41,45.03 -147.41,58.84 -253.783,42.19c-33.032,-5.17 -64.284,-8.6 -83.539,5.9c-12.252,9.23 -19.698,25.66 -22.767,50.22c-2.295,18.39 8.089,54.62 44.915,96.24c30.342,34.29 117.824,113.91 275.104,113.91l1.05,0c278.37,-0.62 330.18,-327.17 330.67,-330.47c1.46,-9.78 10.56,-16.57 20.35,-15.07c9.78,1.46 16.52,10.57 15.07,20.35c-0.55,3.65 -13.93,90.65 -65.01,178.94c-68.75,118.81 -172.83,181.77 -301,182.05c-0.37,0.01 -0.76,0.01 -1.13,0.01Z" style="fill:#371a45;fill-rule:nonzero;"/><path d="M1440.55,2468.22c-6.9,0 -12.5,-5.6 -12.5,-12.5c0,-148.35 -143.14,-254.73 -144.58,-255.79c-5.58,-4.07 -6.79,-11.89 -2.73,-17.46c4.07,-5.57 11.88,-6.8 17.46,-2.73c6.32,4.61 154.85,114.77 154.85,275.98c0,6.9 -5.59,12.5 -12.5,12.5Z" style="fill:#371a45;fill-rule:nonzero;"/><path d="M959.144,2351.21c-47.005,-54.31 2.92,-88.27 53.106,-59.53c45.6,26.11 86.33,57.59 138.04,42.63c0,0 -3.92,32.84 -45.44,68.87c-41.52,36.04 -145.706,-51.97 -145.706,-51.97Z" style="fill:#fff;fill-rule:nonzero;"/><path d="M945.607,2362.93c-9.418,-9.69 -18.374,-21.26 -22.883,-37.6c-2.146,-8.09 -3.067,-17.72 -0.178,-27.59c1.25,-4.91 3.673,-9.65 6.52,-13.93c2.975,-4.22 6.65,-7.83 10.58,-10.7c7.915,-5.76 16.601,-8.64 24.836,-9.88c8.295,-1.17 16.202,-0.62 23.658,0.77c7.46,1.39 14.45,3.85 20.91,6.96c3.21,1.59 6.38,3.23 9.35,5.1c1.59,0.93 2.91,1.79 4.13,2.62l3.789,2.52c20.121,13.44 38.501,27.62 58.331,37.95c9.88,5.22 20.17,9.24 31.03,11.58c10.84,2.28 22.27,2.66 33.89,1.13l0.04,-0.01c1.41,-0.18 2.71,0.81 2.9,2.22c0.15,1.16 -0.5,2.25 -1.51,2.7c-11.21,4.98 -23.77,7.84 -36.56,7.98c-12.81,0.27 -25.62,-2.17 -37.73,-5.81c-24.26,-7.54 -45.83,-19.49 -66.68,-29.88l-3.9,-1.96c-1.34,-0.69 -2.6,-1.3 -3.64,-1.73c-2.2,-1.03 -4.45,-1.84 -6.67,-2.63c-4.47,-1.5 -8.97,-2.35 -13.23,-2.8c-8.537,-0.92 -16.366,1.36 -19.563,4.18c-1.546,1.48 -2.253,2.49 -2.688,4.15c-0.485,1.57 -0.512,4.22 0.201,7.57c0.786,3.32 2.266,7.27 4.39,11.28c2.124,4.04 4.875,8.17 7.75,12.38l0.572,0.84c5.582,8.17 3.48,19.32 -4.69,24.9c-7.308,4.99 -16.997,3.83 -22.955,-2.31Z" style="fill:#371a45;fill-rule:nonzero;"/><path d="M1172.22,2528.73c-8.32,0.81 -17.24,0.19 -25.62,-3.04c-8.37,-3.22 -15.82,-8.61 -22.04,-14.63c-6.35,-5.99 -11.64,-12.56 -16.72,-19.03l-14.87,-19.12c-9.75,-12.52 -20.05,-24.08 -31.18,-34.55c-11.12,-10.58 -23.23,-19.58 -36.07,-28.05c-13.54,-9.03 -26.61,-17.38 -39.993,-24.84c-13.37,-7.44 -27.008,-13.87 -40.895,-19.08c-27.793,-10.69 -56.769,-14.68 -86.203,-13.92l-0.477,0.01c-9.893,0.25 -18.12,-7.56 -18.374,-17.45c-0.235,-9.16 6.436,-16.88 15.267,-18.19c34.898,-5.21 71.627,-0.03 103.868,13.36c32.517,12.9 60.737,33.63 85.717,53.95c13.36,10.41 25.94,22.48 36.97,35.44c11.21,12.88 20.51,27.15 28.97,41.29c8.4,14.19 15.62,28.65 24.42,40.86c4.44,6.09 9.56,11.32 15.8,15.1c6.27,3.66 13.62,5.92 21.43,6.77l0.03,0.01c1.41,0.15 2.43,1.42 2.28,2.83c-0.14,1.23 -1.12,2.16 -2.31,2.28Z" style="fill:#371a45;fill-rule:nonzero;"/><path d="M2451.07,2992.63l-1059.71,0c0,0 -1.16,-118.41 19.7,-294.26c3.72,-31.55 8.17,-64.99 13.51,-99.94c23.38,-154.1 63.14,-337.38 130.84,-519.54c10.18,-27.41 21.01,-54.77 32.47,-82.02c9.14,-21.64 18.66,-43.16 28.68,-64.57c7.28,-15.68 14.83,-31.28 22.61,-46.8l564.13,0c7.78,15.52 15.33,31.12 22.61,46.8c10.14,21.64 19.77,43.47 28.99,65.34c13.12,31.2 25.39,62.55 36.85,93.91c64.83,177.97 103.31,356.34 126.11,506.84c5.34,35.07 9.79,68.63 13.55,100.29c20.82,175.69 19.66,293.95 19.66,293.95Z" style="fill:#fff;fill-rule:nonzero;"/><path d="M1956.24,2755.04c-24.83,-4.74 -47.89,-9.51 -69.44,-14.31l127.05,0c-17.97,4.81 -37.11,9.58 -57.61,14.31Zm253.24,-82.32c2.73,-8.9 4.2,-18.35 4.2,-28.14l0,-8.89c21.61,3.92 44.69,5.95 68.02,6.65c-25.13,10.45 -48.7,20.56 -72.22,30.38Zm-615.46,-28.49c-1.44,-0.61 -2.88,-1.22 -4.32,-1.83c-1.31,-0.55 -2.62,-1.11 -3.93,-1.66c2.76,-0.23 5.51,-0.48 8.25,-0.76l0,4.25Zm-103.96,-190.96c-7.12,-0.17 -14.11,-0.37 -20.95,-0.61c1.6,-7.24 3.26,-14.45 4.98,-21.66l2.37,-10.24c4.13,11.02 8.67,21.87 13.6,32.51Zm863.18,-0.12c4.72,-10.18 9.08,-20.57 13.07,-31.11c0.75,3.89 1.5,7.78 2.23,11.68c1.3,6.27 2.57,12.55 3.82,18.84c-6.25,0.22 -12.63,0.42 -19.12,0.59Z" style="fill:#b9afbe;fill-rule:nonzero;"/><path d="M2347.61,2244.56c27.03,58.02 44.56,119.34 58.15,181.29c7.42,30.87 12.67,62.18 18.28,93.4c2.66,15.63 4.86,31.34 7.31,47.01l3.67,23.49l3.24,23.56l6.37,47.13l5.82,47.19c3.45,31.51 6.77,63.04 9.36,94.64c5.26,63.31 8.91,126.29 9.16,190.52l0.07,17.73l-17.97,0l-538.87,0l0,-35.81l18.04,0l0,35.81l-538.86,0l-17.97,0l0.06,-17.73c0.25,-64.54 3.93,-127.81 9.24,-191.43c5.35,-63.48 12.54,-126.81 21.95,-189.82l3.41,-23.65l3.89,-23.57c2.65,-15.71 5.06,-31.45 7.92,-47.13c6.02,-31.29 11.48,-62.68 17.75,-93.94c3.12,-15.63 5.82,-31.36 9.64,-46.85c3.74,-15.5 7.95,-30.89 12.34,-46.23c4.22,-15.37 9.56,-30.47 15.66,-45.32c5.97,-14.88 12.53,-29.58 20.57,-43.78c1.67,-2.95 5.42,-3.98 8.36,-2.31c2.03,1.15 3.15,3.27 3.11,5.44l0,0.18c-0.62,32.69 -6.85,63.53 -12.62,94.52c-3.05,15.45 -6.28,30.84 -9.98,46.12l-10.62,45.98c-14.62,61.23 -24.62,123.48 -34.01,185.73c-9.3,62.28 -16.4,124.89 -21.69,187.63c-5.25,62.62 -8.87,125.92 -9.11,188.08l-17.9,-17.73l538.86,0l0,35.81l-18.04,0l0,-35.81l538.87,0l-17.91,17.73c-0.23,-61.86 -3.83,-124.86 -9.03,-187.18c-5.34,-62.42 -12.07,-124.79 -21.72,-186.72l-3.49,-23.24l-3.99,-23.16c-2.78,-15.41 -5.31,-30.87 -8.3,-46.25c-6.16,-30.71 -11.73,-61.52 -18.09,-92.17c-11.59,-61.62 -26.01,-122.34 -32.41,-185.86l-0.01,-0.14c-0.34,-3.32 2.09,-6.28 5.41,-6.61c2.62,-0.27 5.02,1.2 6.08,3.45Z" style="fill:#371a45;fill-rule:nonzero;"/><path d="M1668.21,2605.15c-65.66,26.58 -167.27,21.02 -236.54,12.64c-41.55,-5.03 -70.72,-43.37 -64.6,-84.77c5.59,-37.78 38.84,-65.25 76.99,-63.47c64.8,3.04 161.99,4.46 223.54,-9.19l0.61,144.79Z" style="fill:#fff;fill-rule:nonzero;"/><path d="M1537.13,2606.76c-11.58,0 -23.62,-0.3 -36.08,-0.92c-4.91,-1.93 -9.9,-3.88 -14.98,-5.84c-24,-9.27 -48.91,-13.71 -73.73,-13.71c-2.97,0 -5.93,0.06 -8.9,0.19c-2.79,-2.45 -5.36,-5.21 -7.67,-8.24c-9.34,-12.23 -13.24,-27.37 -10.99,-42.61c0.47,-3.17 1.19,-6.25 2.15,-9.22c11.45,11.97 26.96,20.21 44.74,22.37c30.97,3.76 68.42,6.95 106.23,6.95c18.87,0 37.83,-0.8 56.12,-2.71l0,50.89c-17.38,1.9 -36.41,2.85 -56.89,2.85Z" style="fill:#b9afbe;fill-rule:nonzero;"/><path d="M1668.21,2605.16l0.05,0l-0.05,0Zm-227.69,-117.79c-27.9,0 -51.61,20.33 -55.74,48.26c-2.25,15.24 1.65,30.38 10.99,42.61c9.31,12.2 22.82,19.93 38.04,21.77c98.99,11.99 179.84,7.92 227.68,-11.45c13.78,-5.58 17.9,-27.94 19.03,-37.29c4.05,-33.5 -6.04,-64.82 -12.49,-72.69c-62.45,13.06 -156.4,12.06 -224.81,8.86c-0.9,-0.04 -1.8,-0.07 -2.7,-0.07Zm97.16,155.25c-38.02,0 -75.81,-3.14 -108.16,-7.06c-24.9,-3.01 -47,-15.65 -62.22,-35.6c-15.24,-19.98 -21.62,-44.68 -17.94,-69.55c6.97,-47.12 47.94,-81.08 95.54,-78.74c67.51,3.16 160.27,4.19 218.82,-8.79c9.3,-2.06 32.43,-2.15 46.01,41.51c13.73,44.15 12.16,118.34 -34.8,137.36c-38.57,15.61 -88.1,20.87 -137.25,20.87Z" style="fill:#371a45;fill-rule:nonzero;"/><path d="M2406.96,2617.78c-32.5,3.94 -72.17,7.26 -111.89,6.89c-2.73,0 -5.43,-0.05 -8.16,-0.13c-2.86,-0.04 -5.76,-0.12 -8.63,-0.25c-1.94,-0.04 -3.85,-0.12 -5.72,-0.2c-2.28,-0.13 -4.51,-0.25 -6.75,-0.38c-2.86,-0.16 -5.72,-0.37 -8.54,-0.58l-0.21,0c-2.82,-0.2 -5.68,-0.45 -8.5,-0.74c-1.86,-0.17 -3.73,-0.38 -5.55,-0.58c-1.58,-0.13 -3.15,-0.34 -4.69,-0.5c-2.44,-0.29 -4.89,-0.62 -7.25,-0.96c-2.28,-0.33 -4.52,-0.66 -6.72,-1.03c-0.45,-0.04 -0.91,-0.08 -1.32,-0.21c-2.61,-0.37 -5.18,-0.83 -7.71,-1.33c-2.57,-0.45 -5.1,-0.95 -7.59,-1.49c-0.21,-0.04 -0.41,-0.08 -0.62,-0.12c-1.41,-0.33 -2.82,-0.62 -4.19,-0.96c-1.53,-0.33 -3.06,-0.7 -4.6,-1.11l-0.04,0c-4.68,-1.17 -9.29,-2.49 -13.76,-3.9c-2.41,-0.75 -4.81,-1.58 -7.17,-2.41c-2.37,-0.82 -4.69,-1.74 -6.93,-2.65l0.29,-69.51l0.34,-75.28c15.75,3.52 33.86,6.01 53.14,7.75c56.04,5.1 122.16,3.69 170.37,1.45c1.16,-0.04 2.32,-0.08 3.52,-0.08c36.65,0 68.07,26.94 73.46,63.54c6.13,41.42 -23.05,79.76 -64.58,84.77Z" style="fill:#fff;fill-rule:nonzero;"/><path d="M2301.49,2606.76c-33.42,0 -63.01,-2.54 -87.81,-7.58l0,-56.35c0.54,0.1 1.09,0.2 1.64,0.3c2.53,0.49 5.1,0.95 7.71,1.32c0.42,0.13 0.87,0.17 1.33,0.21c2.2,0.37 4.43,0.71 6.71,1.04c2.37,0.33 4.81,0.66 7.26,0.95c1.53,0.17 3.11,0.37 4.68,0.5c1.83,0.2 3.69,0.41 5.56,0.58c2.82,0.29 5.68,0.54 8.49,0.74l0.21,0c2.82,0.21 5.68,0.42 8.54,0.59c2.24,0.12 4.48,0.24 6.76,0.37c1.86,0.08 3.77,0.16 5.72,0.21c2.86,0.12 5.76,0.2 8.62,0.24c2.74,0.09 5.43,0.13 8.17,0.13c2.05,0.02 4.1,0.03 6.15,0.03c37.64,0 74.91,-3.18 105.73,-6.91c17,-2.05 31.94,-9.69 43.23,-20.84c1.72,4.19 2.96,8.66 3.65,13.35c2.26,15.24 -1.64,30.37 -10.98,42.6c-9.31,12.2 -22.83,19.93 -38.05,21.77c-37.28,4.52 -71.98,6.75 -103.32,6.75Z" style="fill:#b9afbe;fill-rule:nonzero;"/><path d="M2177.13,2588.56c47.84,19.37 128.69,23.44 227.68,11.45c15.22,-1.84 28.74,-9.57 38.05,-21.77c9.34,-12.23 13.24,-27.36 10.98,-42.6c-4.26,-28.84 -29.32,-49.45 -58.44,-48.2c-68.41,3.2 -162.35,4.21 -224.8,-8.87c-6.46,7.88 -16.54,39.2 -12.5,72.7c1.13,9.35 5.25,31.71 19.03,37.29Zm123.82,54.06c-49.16,0 -98.68,-5.25 -137.25,-20.87c-46.97,-19.02 -48.53,-93.21 -34.8,-137.36c13.57,-43.67 36.69,-43.6 46,-41.51c58.55,12.99 151.32,11.94 218.83,8.79c47.54,-2.39 88.57,31.62 95.53,78.73c3.68,24.88 -2.69,49.59 -17.94,69.57c-15.22,19.94 -37.31,32.58 -62.21,35.59c-32.35,3.92 -70.15,7.06 -108.16,7.06Z" style="fill:#371a45;fill-rule:nonzero;"/><path d="M2195.79,2412.51l0,232.04c0,43.05 -35.24,78.29 -78.29,78.29l-427.34,0c-43,0 -78.24,-35.24 -78.24,-78.29l0,-232.04c0,-43.06 35.24,-78.24 78.24,-78.24l427.34,0c25.34,0 47.97,12.21 62.32,31.02c10.01,13.13 15.97,29.51 15.97,47.22Z" style="fill:#fff;fill-rule:nonzero;"/><path d="M2117.53,2704.93l-364.75,0c-45.11,-14.4 -83.31,-29.28 -120.93,-44.84c-1.32,-4.95 -2.02,-10.15 -2.02,-15.51l0,-60.55c51.23,59.14 157.69,87.4 258.81,87.4c17.82,0 35.45,-0.88 52.6,-2.62c28.58,-2.89 49.03,-30.05 42.21,-57.96c-2.04,-8.34 -3.13,-17.16 -3.13,-26.31c0,-15.51 3.15,-30.12 8.71,-42.92c6.09,31.01 33.42,54.4 66.21,54.4c32.8,0 60.14,-23.4 66.22,-54.42c4.98,11.44 8.03,24.33 8.63,38.01c28.7,-37.52 42.21,-82.15 47.78,-124.27l0,189.24c0,24.26 -14.39,45.22 -35.08,54.8c-2.84,1.07 -5.7,2.14 -8.59,3.2c-5.3,1.53 -10.89,2.35 -16.67,2.35Z" style="fill:#b9afbe;fill-rule:nonzero;"/><path d="M1690.18,2352.15c-33.28,0 -60.35,27.08 -60.35,60.35l0,232.08c0,33.28 27.07,60.35 60.35,60.35l427.35,0c33.27,0 60.34,-27.07 60.34,-60.35l0,-232.08c0,-33.27 -27.07,-60.35 -60.34,-60.35l-427.35,0Zm427.35,388.58l-427.35,0c-53.03,0 -96.16,-43.13 -96.16,-96.15l0,-232.08c0,-53.01 43.13,-96.15 96.16,-96.15l427.35,0c53.01,0 96.15,43.14 96.15,96.15l0,232.08c0,53.02 -43.14,96.15 -96.15,96.15Z" style="fill:#371a45;fill-rule:nonzero;"/><path d="M2122.73,2528.54c0,37.27 -30.22,67.48 -67.49,67.48c-37.27,0 -67.48,-30.21 -67.48,-67.48c0,-37.27 30.21,-67.48 67.48,-67.48c37.27,0 67.49,30.21 67.49,67.48Z" style="fill:#f58600;fill-rule:nonzero;"/><path d="M2122.74,2528.56c0,3.66 -0.28,7.25 -0.88,10.75c-5.14,-32.17 -33.01,-56.74 -66.62,-56.74c-33.61,0 -61.48,24.57 -66.62,56.74c-0.6,-3.5 -0.88,-7.09 -0.88,-10.75c0,-37.27 30.23,-67.5 67.5,-67.5c37.27,0 67.5,30.23 67.5,67.5Z" style="fill:#fff;fill-rule:nonzero;"/><path d="M2055.23,2596c-33.64,0 -61.52,-24.61 -66.63,-56.81c0.01,0.04 0.01,0.08 0.02,0.12c1.41,-8.86 4.55,-17.14 9.06,-24.49c11.81,19.37 33.17,32.28 57.55,32.28c24.39,0 45.76,-12.92 57.57,-32.29c4.5,7.35 7.64,15.62 9.05,24.47c-5.14,32.15 -33.01,56.72 -66.62,56.72Z" style="fill:#a15e0d;fill-rule:nonzero;"/><path d="M1988.62,2539.31c-0.01,-0.04 -0.01,-0.08 -0.02,-0.12c-0.55,-3.48 -0.84,-7.04 -0.84,-10.66c0,-8.62 1.62,-16.84 4.63,-24.42c1.45,3.74 3.22,7.33 5.29,10.71c-4.51,7.35 -7.65,15.63 -9.06,24.49Zm133.23,-0.03c-1.41,-8.85 -4.55,-17.12 -9.05,-24.47c2.06,-3.38 3.83,-6.96 5.28,-10.7c3.01,7.58 4.63,15.8 4.63,24.42c0,3.66 -0.29,7.25 -0.86,10.75Z" style="fill:#b9afbe;fill-rule:nonzero;"/><path d="M2055.24,2474.49c-29.8,0 -54.05,24.24 -54.05,54.05c0,29.81 24.25,54.06 54.05,54.06c29.81,0 54.06,-24.25 54.06,-54.06c0,-29.81 -24.25,-54.05 -54.06,-54.05Zm0,134.96c-44.61,0 -80.91,-36.3 -80.91,-80.91c0,-44.61 36.3,-80.91 80.91,-80.91c44.62,0 80.91,36.3 80.91,80.91c0,44.61 -36.29,80.91 -80.91,80.91Z" style="fill:#371a45;fill-rule:nonzero;"/><path d="M1864,2737.83c-8.28,0 -15,-6.72 -15,-15l0,-111.98c0,-28.8 -13.74,-56.35 -36.75,-73.68c-30.5,-22.96 -48.71,-59.46 -48.71,-97.64l0,-105.28c0,-8.28 6.71,-15 15,-15c8.28,0 15,6.72 15,15l0,105.28c0,28.81 13.74,56.35 36.75,73.68c30.5,22.96 48.71,59.46 48.71,97.64l0,111.98c0,8.28 -6.71,15 -15,15Z" style="fill:#371a45;fill-rule:nonzero;"/><path d="M2386.66,1968.84c-4.97,-4.82 -10.08,-9.58 -15.33,-14.28c8.46,-6.39 16.78,-12.97 24.94,-19.72c3.85,2.87 7.61,5.88 11.25,9.01c-6.78,8.52 -13.73,16.85 -20.86,24.99Zm-923.45,-9.79c-6.34,-7.54 -12.54,-15.25 -18.58,-23.09c5.87,-4.47 11.98,-8.65 18.31,-12.5c6.96,6.06 14.07,12.02 21.26,17.81c-7.22,5.82 -14.2,11.74 -20.99,17.78Z" style="fill:#b9afbe;fill-rule:nonzero;"/><path d="M2282.04,2065.51c-5.58,-14.689 -11.34,-29.37 -17.29,-44.02c26.58,-13.63 52.24,-28.86 76.84,-45.59c7.22,6.26 14.16,12.66 20.87,19.18c-25.07,25.8 -51.96,49.36 -80.42,70.43Z" style="fill:#b9afbe;fill-rule:nonzero;"/><path d="M2362.46,1995.08c-6.71,-6.52 -13.65,-12.92 -20.87,-19.18c10.1,-6.87 20.01,-13.97 29.74,-21.34c5.25,4.7 10.36,9.46 15.33,14.28c-7.85,8.98 -15.93,17.74 -24.2,26.24Z" style="fill:#371a45;fill-rule:nonzero;"/><path d="M1563.94,2056.32c-27.27,-21.241 -52.95,-44.761 -76.83,-70.321c8.52,-7.57 17.38,-14.97 26.62,-22.16c22.21,16.09 45.34,30.93 69.38,44.46c-6.6,15.98 -13,31.99 -19.17,48.021Z" style="fill:#b9afbe;fill-rule:nonzero;"/><path d="M1487.11,1986c-8.18,-8.75 -16.15,-17.74 -23.9,-26.95c6.79,-6.04 13.77,-11.96 20.99,-17.78c9.64,7.77 19.49,15.3 29.53,22.57c-9.24,7.19 -18.1,14.59 -26.62,22.16Z" style="fill:#371a45;fill-rule:nonzero;"/><path d="M1929.72,2184.13c-14.05,0 -28.16,-0.51 -42.38,-1.55c-120.54,-8.81 -231.07,-54.38 -323.4,-126.259c6.17,-16.031 12.57,-32.041 19.17,-48.021c91.17,51.321 194.9,83.531 306.08,90.81c15.98,1.05 31.86,1.56 47.66,1.56c117.34,0 229,-28.46 327.9,-79.18c5.95,14.65 11.71,29.331 17.29,44.02c-101.53,75.17 -222.96,118.62 -352.32,118.62Z" style="fill:#b9afbe;fill-rule:nonzero;"/><path d="M2618.78,1595.36c-7.92,0.05 -14.37,-6.33 -14.41,-14.25l-2.32,-412.79c-0.05,-7.91 6.33,-14.37 14.25,-14.41c83.03,-0.47 150.72,66.47 151.19,149.5l0.79,140.76c0.47,83.03 -66.47,150.72 -149.5,151.19Z" style="fill:#fff;fill-rule:nonzero;"/><path d="M2617.17,1157.28l-0.85,0c-2.93,0.01 -5.68,1.17 -7.74,3.25c-2.06,2.08 -3.18,4.84 -3.16,7.77l2.32,412.79c0.01,2.93 1.17,5.68 3.25,7.73c2.07,2.05 4.8,3.17 7.71,3.17l0.06,0c39.26,-0.22 76.08,-15.71 103.69,-43.63c27.6,-27.92 42.68,-64.91 42.46,-104.17l-0.79,-140.76c-0.22,-39.26 -15.72,-76.08 -43.63,-103.69c-27.72,-27.4 -64.38,-42.46 -103.32,-42.46Zm1.53,441.45c-4.69,0 -9.11,-1.81 -12.44,-5.11c-3.37,-3.33 -5.23,-7.76 -5.26,-12.49l-2.32,-412.79c-0.03,-4.73 1.79,-9.18 5.11,-12.54c3.33,-3.37 7.76,-5.23 12.49,-5.26c40.97,-0.24 79.75,15.54 108.94,44.41c29.2,28.87 45.4,67.38 45.64,108.44l0.79,140.76c0.23,41.06 -15.54,79.75 -44.41,108.95c-28.87,29.19 -67.38,45.4 -108.44,45.63l-0.1,0Z" style="fill:#371a45;fill-rule:nonzero;"/><path d="M2633.05,1575.76c6.45,-24.41 11.45,-49.22 15,-74.37c1.36,-7.92 2.6,-15.9 3.7,-23.91c40.38,-7.04 75.21,-30.2 97.61,-62.59l0.17,29.39c0.2,35.15 -13.3,68.27 -38.02,93.27c-21.31,21.55 -48.76,34.83 -78.46,38.21Z" style="fill:#b9afbe;fill-rule:nonzero;"/><path d="M2620.82,1172.7l2.27,403.82c33.49,-1.29 64.74,-15.03 88.42,-38.97c24.72,-25 38.22,-58.12 38.02,-93.27l-0.79,-140.77c-0.2,-35.15 -14.07,-68.12 -39.07,-92.83c-23.94,-23.68 -55.35,-37.07 -88.85,-37.98Zm-2.12,441.41c-8.77,0 -17.02,-3.39 -23.26,-9.56c-6.28,-6.21 -9.77,-14.5 -9.82,-23.34l-2.32,-412.79c-0.05,-8.83 3.34,-17.16 9.56,-23.44c6.21,-6.28 14.5,-9.77 23.33,-9.82c45.32,-0.36 87.73,17.1 119.85,48.85c32.11,31.76 49.94,74.13 50.19,119.29l0.8,140.77c0.25,45.16 -17.1,87.72 -48.86,119.84c-31.75,32.12 -74.12,49.94 -119.28,50.2l-0.19,0Z" style="fill:#371a45;fill-rule:nonzero;"/><path d="M1253.77,1161.57c7.92,-0.04 14.37,6.34 14.41,14.25l2.33,412.79c0.04,7.92 -6.34,14.37 -14.25,14.41c-83.04,0.47 -150.73,-66.46 -151.19,-149.5l-0.8,-140.76c-0.46,-83.03 66.47,-150.72 149.5,-151.19Z" style="fill:#fff;fill-rule:nonzero;"/><path d="M1253.79,1164.94c-81.04,0.45 -146.6,66.76 -146.15,147.8l0.79,140.76c0.46,80.76 66.31,146.15 146.97,146.15l0.84,0c2.93,-0.01 5.67,-1.17 7.73,-3.25c2.06,-2.08 3.18,-4.84 3.17,-7.77l-2.32,-412.79c-0.02,-2.93 -1.18,-5.68 -3.26,-7.74c-2.08,-2.05 -4.88,-3.33 -7.77,-3.16Zm1.61,441.45c-84.36,0.01 -153.23,-68.38 -153.71,-152.85l-0.79,-140.76c-0.47,-84.76 68.1,-154.1 152.85,-154.58c4.91,0.11 9.19,1.79 12.55,5.11c3.36,3.33 5.23,7.76 5.25,12.49l2.33,412.79c0.02,4.73 -1.8,9.19 -5.12,12.54c-3.32,3.37 -7.76,5.23 -12.48,5.26l-0.88,0Z" style="fill:#371a45;fill-rule:nonzero;"/><path d="M1243.93,1583.78c-66.89,-5.81 -119.73,-61.92 -120.12,-130.36l-0.16,-28.47c23.62,29.69 58.27,50.23 97.68,55.49c5.02,35.28 12.61,69.78 22.6,103.34Z" style="fill:#b9afbe;fill-rule:nonzero;"/><path d="M1249.46,1180.41c-70.51,2.74 -126.84,61.16 -126.44,132.25l0.79,140.76c0.4,71.08 57.39,128.86 127.92,130.81l-2.27,-403.82Zm5.93,441.36c-92.8,0.01 -168.55,-75.22 -169.07,-168.14l-0.79,-140.76c-0.53,-93.24 74.9,-169.52 168.14,-170.05c8.86,-0.03 17.16,3.35 23.44,9.56c6.28,6.21 9.77,14.5 9.82,23.33l2.32,412.8c0.05,8.83 -3.34,17.16 -9.55,23.44c-6.22,6.28 -14.5,9.77 -23.34,9.82l-0.97,0Z" style="fill:#371a45;fill-rule:nonzero;"/><path d="M2638.3,1424.41c-25.38,387.67 -360.22,681.37 -747.89,655.99c-387.67,-25.37 -681.36,-360.21 -655.99,-747.88c25.38,-387.673 360.22,-681.369 747.89,-655.992c387.67,25.377 681.37,360.212 655.99,747.882Z" style="fill:#fff;fill-rule:nonzero;"/><path d="M1935.89,678.376c-365.37,0 -673.9,284.633 -698.1,654.364c-25.22,385.19 267.65,719.091 652.84,744.3c15.47,1.02 30.91,1.51 46.2,1.52c365.38,0.021 673.91,-284.64 698.11,-654.37c25.21,-385.19 -267.65,-719.086 -652.85,-744.301c-15.47,-1.013 -30.91,-1.513 -46.2,-1.513Zm1.48,1406.93c-15.68,0 -31.39,-0.51 -47.18,-1.55c-388.9,-25.46 -684.58,-362.56 -659.13,-751.46c25.46,-388.904 362.51,-684.571 751.47,-659.134c388.9,25.459 684.59,362.564 659.13,751.464c-12.33,188.39 -97.29,360.71 -239.22,485.2c-130.04,114.07 -293.68,175.48 -465.07,175.48Z" style="fill:#371a45;fill-rule:nonzero;"/><path d="M1936.82,2063.18c-14.95,0 -30.05,-0.5 -45.18,-1.48c-158.22,-10.359 -300.5,-73.95 -410.51,-172.16c107.45,63.45 256.78,120.43 419.39,127.14c13.68,0.57 27.18,0.84 40.58,0.84c154.88,0 290.74,-36.56 392.3,-81.55c-112.56,80.31 -249.9,127.21 -396.58,127.21Z" style="fill:#b9afbe;fill-rule:nonzero;"/><path d="M1935.9,693.754c-357.34,0 -659.1,278.384 -682.77,639.986c-24.66,376.73 261.78,703.29 638.51,727.96c15.13,0.98 30.23,1.48 45.18,1.48c357.35,0.02 659.1,-278.39 682.77,-639.99c24.66,-376.73 -261.77,-703.291 -638.51,-727.954c-15.12,-0.991 -30.23,-1.482 -45.18,-1.482Zm0.95,1406.92c-15.8,0 -31.68,-0.51 -47.66,-1.56c-397.37,-26.019 -699.48,-370.46 -673.47,-767.82c26.01,-397.362 370.36,-699.477 767.82,-673.471c397.36,26.013 699.48,370.461 673.47,767.821c-24.97,381.38 -343.28,675.03 -720.16,675.03Z" style="fill:#371a45;fill-rule:nonzero;"/><path d="M2634.87,1442.3c-6.91,137.47 -57.96,262.86 -139.6,364.63c-61.2,76.29 -303.39,203.02 -593.97,191.02c-269.44,-11.13 -507.25,-167.04 -560.49,-249.09c-71.01,-109.45 -109.22,-239.33 -102.3,-376.81c18.3,-363.8 338.45,-498.901 724.07,-479.503c385.61,19.397 690.6,185.943 672.29,549.753Z" style="fill:#f58600;fill-rule:nonzero;"/><path d="M2634.87,1442.3l0.06,0l-0.06,0Zm-739.16,-532.686c-226.07,0 -618.13,58.853 -638.48,463.386c-6.49,129.07 27.85,255.52 99.31,365.65c50.73,78.19 282.8,229.72 545.53,240.57c291.26,12.06 524.05,-116.04 578.58,-184.02c82.15,-102.41 129.01,-224.77 135.5,-353.85c8.31,-165.24 -51.25,-295.77 -177.04,-387.96c-113.18,-82.956 -278.29,-132.101 -477.47,-142.121c-19.66,-0.986 -41.87,-1.655 -65.93,-1.655Zm45.39,1107.91c-13.4,0 -26.9,-0.27 -40.58,-0.84c-279.33,-11.53 -519.48,-171.38 -575.44,-257.62c-75.78,-116.79 -112.19,-250.94 -105.3,-387.95c8.99,-178.63 87.55,-312.76 233.51,-398.669c127.27,-74.905 303.68,-109.034 510.23,-98.619c206.53,10.388 378.65,62.024 497.75,149.318c136.61,100.13 201.31,241.47 192.33,420.1c-6.89,137.01 -56.58,266.83 -143.7,375.42c-57.75,71.99 -280.24,198.86 -568.8,198.86Z" style="fill:#371a45;fill-rule:nonzero;"/><path d="M2397.29,1504.43c-5.06,-0.01 -10.13,-0.57 -15.16,-1.75c-48.52,-11.33 -75.16,-74.79 -59.52,-141.74c14.02,-60.01 57.24,-102.45 100.99,-102.45c5.06,0 10.14,0.57 15.17,1.75c39.2,9.16 64.13,52.36 63.99,103.94c-6.81,30.14 -15.34,59.65 -25.47,88.43c-20.26,31.87 -50.01,51.82 -80,51.82Z" style="fill:#9b8da2;fill-rule:nonzero;"/><path d="M2282.56,1678.36c-5.2,0 -10.4,-0.92 -15.43,-2.86c-25.26,-9.74 -36.54,-41.51 -25.18,-70.95c9.09,-23.59 29.96,-38.53 50.88,-38.53c5.2,0 10.4,0.92 15.43,2.86c25.26,9.75 36.54,41.52 25.18,70.96c-9.09,23.58 -29.96,38.52 -50.88,38.52Z" style="fill:#9b8da2;fill-rule:nonzero;"/><path d="M1940.55,1980.01c-12.7,0 -25.54,-0.26 -38.48,-0.79c-82.29,-3.4 -161.57,-20.6 -233.22,-45.02c333.37,-8.17 603.23,-153.14 675.34,-243.05c57.13,-71.21 102.46,-151.55 133.1,-238.54c9.29,-14.63 16.59,-31.76 21,-50.63c3,-12.84 4.44,-25.56 4.47,-37.8c9.95,-44 16.25,-89.35 18.58,-135.8c1.78,-34.83 1.16,-68.23 -1.62,-100.25c70.32,83.6 102.7,188.53 96.43,313.22c-6.49,129.08 -53.35,251.44 -135.5,353.85c-52.11,64.96 -266.97,184.82 -540.1,184.81Z" style="fill:#b46505;fill-rule:nonzero;"/><path d="M1939.78,1998.76c-12.74,0 -25.55,-0.25 -38.5,-0.79c-102.6,-4.21 -200.59,-29.45 -285.58,-63.65c7.9,0.16 15.83,0.24 23.67,0.24c9.87,0 19.72,-0.12 29.48,-0.36c71.65,24.42 150.93,41.62 233.22,45.02c12.94,0.53 25.78,0.79 38.48,0.79c273.13,0.01 487.99,-119.85 540.1,-184.81c82.15,-102.41 129.01,-224.77 135.5,-353.85c6.27,-124.69 -26.11,-229.62 -96.43,-313.22c-0.94,-10.85 -2.14,-21.54 -3.57,-32.07c81.26,85.74 126.05,200.09 118.72,346.21c-6.92,137.51 -57.99,262.89 -139.58,364.66c-58.49,72.89 -282.25,191.82 -555.51,191.83Z" style="fill:#2a1a3b;fill-rule:nonzero;"/><path d="M2477.29,1452.61c10.13,-28.78 18.66,-58.29 25.47,-88.43c-0.03,12.24 -1.47,24.96 -4.47,37.8c-4.41,18.87 -11.71,36 -21,50.63Z" style="fill:#6b6577;fill-rule:nonzero;"/><path d="M2590.88,1138.57c-4.53,0 -9.06,-1.67 -12.6,-5.03l-1.87,-1.67l-1.06,-1.84c-109.93,-171.778 -333.7,-278.388 -613.94,-292.489c-281.77,-14.146 -515.06,72.538 -639.99,237.889l-1.32,1.56c-6.74,7.54 -18.2,8.04 -25.74,1.29c-7.34,-6.56 -8.02,-17.84 -1.85,-25.39c132.45,-174.902 376.87,-266.751 670.75,-251.956c291.75,14.68 525.82,127.095 642.4,308.476c5.15,7.01 4.72,16.9 -1.48,23.44c-3.6,3.8 -8.45,5.72 -13.3,5.72Z" style="fill:#371a45;fill-rule:nonzero;"/><path d="M1384.42,1596.37c0,0 -94.63,-364.57 105.99,-497.86c134.81,-89.57 304.7,-112.369 399.39,-112.369c46.21,0 74.5,5.428 72.07,11.175c0,0 -311.82,59.084 -444.62,296.574c-102.4,183.13 -132.83,302.48 -132.83,302.48Z" style="fill:#9b8da2;fill-rule:nonzero;"/><path d="M1955.52,3176.38c0,0 -440.67,49.94 -636.54,-118.36c-267.61,-229.93 -38.15,-518.08 160.65,-441.32c173.07,66.83 244.24,119.38 551.66,169.77c257.6,42.21 478.86,306.67 294.02,460.17c-130.5,108.37 -369.79,-70.26 -369.79,-70.26Z" style="fill:#fff;fill-rule:nonzero;"/><path d="M2220.72,3263.69l-0.03,0c-82.68,-0.01 -175.49,-50.69 -222.89,-80.49c6.39,0.08 12.95,0.12 19.67,0.12c102.52,0 240.9,-9.66 356.84,-51.77c-5.28,38.07 -25.61,72.4 -60.43,101.32c-26.76,22.22 -59.08,30.82 -93.16,30.82Zm-789.17,-158.87c-37.73,-15.86 -72.16,-35.68 -100.9,-60.38c-64.08,-55.06 -97.3,-112.36 -109.49,-165.88c7.45,7.34 15.38,14.64 23.81,21.87c57.86,49.72 137.09,80.39 219.99,98.94c-20.13,34.45 -32.06,70.31 -33.41,105.45Z" style="fill:#b9afbe;fill-rule:nonzero;"/><path d="M1960.54,3157.8l5.69,4.24c1.76,1.31 138.13,101.64 254.46,101.65c34.08,0.01 66.43,-8.6 93.19,-30.82c53.82,-44.7 73.03,-102.35 55.54,-166.72c-32.87,-120.97 -182.66,-236.06 -341.03,-262.02c-241.84,-39.63 -339.53,-80.93 -452.63,-128.75c-31.83,-13.46 -64.74,-27.37 -102.58,-41.98c-82.39,-31.81 -178.24,5.39 -227.94,88.46c-47.6,79.57 -50.16,206.09 85.41,322.58c187.77,161.34 618.53,114.65 622.86,114.16l7.03,-0.8Zm260.28,141.77c-115.95,0.01 -241.49,-84.22 -270.25,-104.66c-59.53,5.94 -455.04,38.41 -643.26,-123.31c-152.44,-130.98 -147.88,-276.04 -92.79,-368.12c58.67,-98.07 172.88,-141.59 271.55,-103.48c38.37,14.81 71.55,28.84 103.63,42.4c110.99,46.93 206.86,87.45 444.48,126.4c171.11,28.05 333.54,154.53 369.79,287.96c21.13,77.79 -2.74,150.11 -67.22,203.65c-34.16,28.37 -74.44,39.16 -115.93,39.16Z" style="fill:#371a45;fill-rule:nonzero;"/><path d="M1543.91,3170.53c-4.47,0 -8.79,-2.41 -11.04,-6.62c-3.25,-6.1 -0.95,-13.67 5.15,-16.91c184.94,-98.58 132.97,-442.02 132.43,-445.47c-1.08,-6.82 3.57,-13.22 10.39,-14.3c6.82,-1.07 13.22,3.58 14.3,10.39c2.34,14.84 55.12,364.57 -145.36,471.44c-1.88,1 -3.89,1.47 -5.87,1.47Z" style="fill:#371a45;fill-rule:nonzero;"/><path d="M1869.53,3176.38c0,0 440.67,49.94 636.55,-118.36c267.6,-229.93 38.14,-518.08 -160.65,-441.32c-173.07,66.83 -244.25,119.38 -551.66,169.77c-257.6,42.21 -478.87,306.67 -294.03,460.17c130.5,108.37 369.79,-70.26 369.79,-70.26Z" style="fill:#fff;fill-rule:nonzero;"/><path d="M1604.15,3281.54c-37.78,0.01 -74.04,-9.67 -104.42,-34.9c-16.51,-13.71 -29.77,-28.31 -40.06,-43.55c10.29,15.25 23.56,29.84 40.07,43.55c30.37,25.22 66.65,34.9 104.41,34.9c85.12,0 177.86,-49.13 228.04,-80.23l0.04,0c-50.18,31.09 -142.96,80.23 -228.08,80.23Zm807.24,-164.97c35.11,-15.74 67.28,-35 94.69,-58.55c4.27,-3.68 8.45,-7.39 12.48,-11.09c-4.04,3.72 -8.2,7.41 -12.5,11.1c-27.39,23.54 -59.57,42.81 -94.67,58.54Z" style="fill:#b38982;fill-rule:nonzero;"/><path d="M2017.47,3183.32c-6.72,0 -13.28,-0.04 -19.67,-0.12c-0.01,0 -0.01,0 -0.02,-0.01c6.4,0.08 12.97,0.12 19.7,0.12c102.53,0 240.89,-9.65 356.83,-51.76c-115.94,42.11 -254.32,51.77 -356.84,51.77Z" style="fill:#8c7b94;fill-rule:nonzero;"/><path d="M1832.19,3201.31c23.23,-14.39 37.34,-24.93 37.34,-24.93c0,0 52.04,5.9 128.25,6.81c0.01,0.01 0.01,0.01 0.02,0.01c-76.24,-0.91 -128.25,-6.8 -128.25,-6.8c0,0 -14.1,10.52 -37.32,24.91l-0.04,0Zm542.12,-69.76c12.65,-4.6 25.04,-9.58 37.08,-14.98c-12.04,5.4 -24.43,10.39 -37.08,14.98Z" style="fill:#371a45;fill-rule:nonzero;"/><path d="M1459.65,3203.06c-0.05,-0.07 -0.1,-0.14 -0.15,-0.22c0.05,0.08 0.1,0.15 0.15,0.22Zm-0.22,-0.33c-0.02,-0.03 -0.04,-0.05 -0.06,-0.08c0.02,0.03 0.04,0.05 0.06,0.08Zm1059.16,-155.84c0.08,-0.07 0.17,-0.15 0.24,-0.22c-0.08,0.08 -0.16,0.15 -0.24,0.22Zm0.41,-0.37c0.03,-0.03 0.07,-0.07 0.1,-0.1c-0.03,0.04 -0.07,0.07 -0.1,0.1Zm0.34,-0.31c0.01,-0.02 0.01,-0.02 0.03,-0.03c-0.01,0.01 -0.02,0.02 -0.03,0.03Z" style="fill:#b38982;fill-rule:nonzero;"/><path d="M1604.15,3281.54c-37.76,0 -74.04,-9.68 -104.41,-34.9c-16.51,-13.71 -29.78,-28.3 -40.07,-43.55c-0.01,-0.01 -0.02,-0.02 -0.02,-0.03c-0.05,-0.07 -0.1,-0.14 -0.15,-0.22c-0.02,-0.03 -0.05,-0.07 -0.07,-0.11c-0.02,-0.03 -0.04,-0.05 -0.06,-0.08c-28.98,-43.21 -34.12,-91.59 -21.35,-139.73c9.44,31.9 18.7,80.96 51.94,106.76c41.59,32.28 85,45.45 126.57,45.45c59.73,0 115.69,-27.17 157.11,-63.92c53.32,-47.29 44.62,-86.03 78.85,-105.27c4.55,-2.56 9.33,-3.7 14.41,-3.7c37.81,0 92.66,62.66 198.34,68.16c17.46,0.91 34.51,1.35 51.1,1.35c197.78,0 333.9,-62.17 400.85,-130.57c63.12,-64.48 93.21,-139.16 105.44,-198.52c16.92,79.69 -7.82,175.29 -103.26,263.52c-0.02,0.01 -0.02,0.01 -0.03,0.03c-0.08,0.07 -0.16,0.14 -0.24,0.21c-0.03,0.03 -0.07,0.07 -0.1,0.1c-0.06,0.05 -0.11,0.1 -0.17,0.15c-0.07,0.07 -0.16,0.15 -0.24,0.22c-0.01,0.01 -0.02,0.03 -0.03,0.04c-4.03,3.7 -8.21,7.41 -12.48,11.09c-27.41,23.55 -59.58,42.81 -94.69,58.55c-12.04,5.4 -24.43,10.38 -37.08,14.98c-115.94,42.11 -254.3,51.76 -356.83,51.76c-6.73,0 -13.3,-0.04 -19.7,-0.12c-76.21,-0.91 -128.25,-6.81 -128.25,-6.81c0,0 -14.11,10.54 -37.34,24.93c-50.18,31.1 -142.92,80.23 -228.04,80.23Z" style="fill:#b9afbe;fill-rule:nonzero;"/><path d="M2412.73,2622.1c-20.52,0 -41.07,3.66 -60.85,11.3c-37.84,14.61 -70.75,28.52 -102.57,41.98c-113.11,47.82 -210.8,89.12 -452.64,128.75c-158.37,25.96 -308.17,141.05 -341.03,262.02c-17.49,64.37 1.71,122.02 55.54,166.72c118.12,98.09 345.37,-69.14 347.65,-70.83l5.67,-4.23l7.04,0.79c4.34,0.49 435.23,47.07 622.87,-114.16c135.57,-116.49 133.01,-243.01 85.4,-322.58c-37.76,-63.12 -102.19,-99.76 -167.08,-99.76Zm-808.49,677.47c-41.51,0 -81.77,-10.78 -115.94,-39.16c-64.48,-53.54 -88.35,-125.86 -67.22,-203.65c36.25,-133.43 198.69,-259.91 369.8,-287.96c237.62,-38.95 333.48,-79.47 444.48,-126.4c32.09,-13.56 65.26,-27.59 103.62,-42.4c98.68,-38.12 212.88,5.41 271.56,103.48c55.09,92.08 59.64,237.14 -92.8,368.12c-188.21,161.72 -583.73,129.25 -643.26,123.31c-28.75,20.44 -154.3,104.66 -270.24,104.66Z" style="fill:#371a45;fill-rule:nonzero;"/><path d="M2281.15,3170.53c-1.98,0 -4,-0.47 -5.87,-1.47c-200.49,-106.87 -147.71,-456.6 -145.36,-471.44c1.08,-6.81 7.48,-11.5 14.29,-10.39c6.82,1.08 11.47,7.48 10.4,14.29c-0.54,3.46 -52.35,346.99 132.43,445.48c6.09,3.24 8.4,10.81 5.15,16.91c-2.25,4.21 -6.57,6.62 -11.04,6.62Z" style="fill:#371a45;fill-rule:nonzero;"/><path d="M2868.89,2410.1c0,-63.36 70.78,-114.72 134.09,-114.72l53.81,0l39.21,229.45l-93.02,0c-31.65,0 -60.31,-12.86 -81.11,-33.61c-20.76,-20.75 -52.98,-49.41 -52.98,-81.12Zm-55.64,0c0,52.41 21.25,99.82 55.56,134.18c34.35,34.31 81.76,55.56 134.17,55.56l181.94,0l-64.86,-379.47l-117.08,0c-104.77,0 -189.73,84.96 -189.73,189.73Z" style="fill:#f58600;fill-rule:nonzero;"/><path d="M3089.5,2581.94l-86.52,0c-25.5,0 -50.17,-5.53 -72.63,-16.01c5.1,-2.66 10.16,-6.1 15.19,-10.38c18.12,5.75 37.41,8.85 57.43,8.85l78.94,0c2.44,5.88 4.98,11.73 7.59,17.54Zm-94.91,-304.25c-0.03,-0.3 -0.05,-0.6 -0.08,-0.9c0,0 -4.06,-6.64 -11.55,-15.61c6.27,-0.84 12.92,-1.26 20.01,-1.26l29.57,0l-0.42,6.56c-0.23,3.67 -0.43,7.34 -0.6,11l-28.54,0c-2.79,0 -5.59,0.07 -8.39,0.21Z" style="fill:#f58600;fill-rule:nonzero;"/><path d="M3002.98,2313.29c-56.32,0 -116.18,33.93 -116.18,96.82c0,95.71 115.02,96.82 116.18,96.82l71.8,0l-33.09,-193.64l-38.71,0Zm114.24,229.44l-114.24,0c-61.09,0 -151.99,-35.32 -151.99,-132.62c0,-83.02 77.28,-132.63 151.99,-132.63l68.92,0l45.32,265.25Zm-114.24,-304.46c-94.74,0 -171.83,77.09 -171.83,171.84c0,45.87 17.87,89.03 50.33,121.52c32.48,32.44 75.64,50.31 121.5,50.31l160.72,0l-58.75,-343.67l-101.97,0Zm203.16,379.47l-203.16,0c-55.42,0 -107.56,-21.58 -146.82,-60.79c-39.22,-39.28 -60.81,-91.42 -60.81,-146.84c0,-114.5 93.14,-207.64 207.63,-207.64l132.18,0l70.98,415.27Z" style="fill:#371a45;fill-rule:nonzero;"/><path d="M3094.82,2593.46c17.65,37.27 52.81,63.56 93.7,68.89c22.55,2.94 45.23,4.41 67.89,4.41c22.71,0 45.4,-1.47 67.94,-4.41c41.08,-5.36 76.23,-31.92 93.92,-69.37c41.94,-88.78 63.73,-185.81 63.73,-284.16c0,-14.12 -0.4,-28.19 -1.32,-42.32l-6.72,-106.45c0,22.68 -97.38,41.06 -217.55,41.06c-120.12,0 -217.5,-18.38 -217.5,-41.06l-6.78,106.45c-7.14,112.89 14.6,225.36 62.69,326.96Z" style="fill:#f58600;fill-rule:nonzero;"/><path d="M3315.75,2445.62c-7.86,-15.73 -19.66,-28.29 -31.9,-40.64c-6.44,-6.47 -12.1,-13.3 -16.86,-20.57c-6.47,-9.9 -11.26,-20.59 -13.89,-32.24c-0.67,-2.91 -1.21,-5.9 -1.58,-8.94c-0.53,-4.04 -0.8,-8.16 -0.82,-12.4c-0.01,-4.45 1.27,-6.43 5.69,-7.38c8.15,-1.75 15.99,-1.64 23.5,0.14l0.01,0.01c5.52,1.29 10.85,3.51 16.01,6.53c37.81,22.17 60.62,72.76 52.17,115.81c-3.03,15.49 -9.13,29.53 -22.88,39.9c0.16,-14.64 -3.22,-27.77 -9.45,-40.22Z" style="fill:#fcf7fb;fill-rule:nonzero;"/><path d="M3232.82,2334.88c0.4,20.66 5.97,38.48 15.28,54.32c7.36,12.54 17.06,23.83 28.37,34.33c5.84,5.41 10.81,11.69 15.3,18.32c9.8,14.48 16.05,30.09 15.67,47.99c-0.11,4.77 -1.87,6.85 -6.41,7.83c-14.38,3.11 -27.8,0.39 -40.2,-6.85c-25.26,-14.78 -43.43,-42.51 -50.19,-72.18c-3.34,-14.58 -3.92,-29.64 -1.21,-43.87c0.01,-0.13 0.02,-0.25 0.06,-0.38c0.59,-3.1 1.35,-6.15 2.26,-9.15c3.63,-11.89 9.79,-22.42 21.07,-30.36Z" style="fill:#fcf7fb;fill-rule:nonzero;"/><path d="M3481.07,2273.12c-0.12,-2.21 -0.25,-4.41 -0.39,-6.62l-6.71,-106.27c0,-0.06 0.01,-0.13 0.01,-0.2l6.71,106.48c0.14,2.2 0.27,4.41 0.38,6.61Zm-44.12,-90.15c16.67,-4.67 28.39,-10.02 33.75,-15.79c-5.35,5.77 -17.07,11.12 -33.75,15.79Zm33.77,-15.81c0.01,-0.01 0.01,-0.02 0.02,-0.03c0,0.01 -0.01,0.02 -0.02,0.03Z" style="fill:#fcede3;fill-rule:nonzero;"/><path d="M3402.28,2602.79c30.77,-77.77 46.68,-160.81 46.68,-244.8c0,-14.14 -0.41,-28.2 -1.3,-42.3l-3.72,-58.36c-1.05,-17.08 -15.31,-29.94 -31.64,-29.94c-2.33,0 -4.69,0.26 -7.07,0.81c-27.31,6.31 -66.81,10.15 -105.85,10.15c-24.61,0 -49.03,-1.53 -70.13,-4.92c-51.69,-8.32 -100.7,-26.4 -143.62,-47.93c39.88,9.49 101.55,15.62 170.79,15.62c75.18,0 141.46,-7.2 180.53,-18.15c16.68,-4.67 28.4,-10.02 33.75,-15.79c0,-0.01 0.01,-0.02 0.02,-0.02c0.01,-0.01 0.02,-0.02 0.02,-0.03c2.07,-2.24 3.17,-4.55 3.23,-6.9l6.71,106.27c0.14,2.21 0.27,4.41 0.39,6.62c0.63,11.91 0.92,23.78 0.92,35.68c0,98.37 -21.8,195.41 -63.74,284.2c-1.07,2.28 -2.21,4.52 -3.42,6.71c-4.17,1.08 -8.36,2.11 -12.55,3.08Z" style="fill:#b26911;fill-rule:nonzero;"/><path d="M3325.56,2662.19c38.05,-5.36 70.9,-28.95 89.28,-62.48c0.01,0 0.02,0 0.03,-0.01c0.37,-0.6 0.74,-1.24 1.07,-1.84c-0.09,0.17 -0.18,0.35 -0.26,0.53c-16.71,34.59 -50.02,58.33 -88.08,63.53c-0.68,0.09 -1.36,0.18 -2.04,0.27Zm-138.32,-0.01c-0.65,-0.09 -1.3,-0.17 -1.95,-0.26c-30.45,-4.16 -57.49,-20.34 -75.92,-44.18l0.6,0c19.04,23.84 46.49,40.09 77.27,44.44Zm-126.21,-155.25c-19.51,-62.52 -29.75,-127.76 -30.22,-193.64l0.01,0c0.46,65.88 10.7,131.12 30.21,193.64Zm-24.82,-304.46l0.24,-3.78l-0.24,3.78Zm25.34,-24.16c-14.43,-5.47 -22.57,-11.64 -22.64,-18.17l0,-0.11c0,6.56 8.14,12.75 22.64,18.25l0,0.03Z" style="fill:#b38982;fill-rule:nonzero;"/><path d="M3081.91,2564.4c-2.99,-7.17 -5.85,-14.41 -8.58,-21.67c2.73,7.26 5.59,14.5 8.58,21.67Zm-49.36,-304.48l-0.01,0l1.38,-21.65l0.01,0l-1.38,21.65Z" style="fill:#138721;fill-rule:nonzero;"/><path d="M3089.5,2581.94c-2.61,-5.81 -5.15,-11.66 -7.59,-17.54c2.44,5.88 4.98,11.73 7.59,17.54Zm-57.97,-304.46l-0.01,0c0.17,-3.66 0.37,-7.33 0.6,-11l0.42,-6.56l0.01,0l-0.42,6.58c-0.23,3.66 -0.43,7.33 -0.6,10.98Z" style="fill:#20612e;fill-rule:nonzero;"/><path d="M3109.97,2617.74l-0.6,0c-5.06,-6.55 -9.48,-13.69 -13.13,-21.31c-2.31,-4.81 -4.55,-9.63 -6.74,-14.49c1.74,3.86 3.51,7.7 5.32,11.52c4.14,8.74 9.24,16.88 15.15,24.28Zm-36.64,-75.01c-4.44,-11.82 -8.54,-23.76 -12.3,-35.8c3.76,12.04 7.86,23.98 12.3,35.8Zm-42.51,-229.44l-0.01,0c-0.09,-11.92 0.15,-23.86 0.71,-35.81l0.01,0c-0.56,11.95 -0.8,23.88 -0.71,35.81Zm3.11,-75.02l-0.01,0l2.29,-35.8l-2.28,35.8Z" style="fill:#371a45;fill-rule:nonzero;"/><path d="M3256.39,2666.75c-23.07,0 -46.18,-1.52 -69.15,-4.57c-30.78,-4.35 -58.23,-20.6 -77.27,-44.44c-5.91,-7.4 -11.01,-15.54 -15.15,-24.28c-1.81,-3.82 -3.58,-7.66 -5.32,-11.52c-2.61,-5.81 -5.15,-11.66 -7.59,-17.54c-2.99,-7.17 -5.85,-14.41 -8.58,-21.67c-4.44,-11.82 -8.54,-23.76 -12.3,-35.8c-19.51,-62.52 -29.75,-127.76 -30.21,-193.64c-0.09,-11.93 0.15,-23.86 0.71,-35.81c0.17,-3.65 0.37,-7.32 0.6,-10.98l0.42,-6.58l1.38,-21.65l2.28,-35.8l0.24,-3.78l2.46,-38.55c0.07,6.53 8.21,12.7 22.64,18.17l-2.4,37.86c-5.82,92.42 7.68,184.56 39.16,270.68c28.21,77.18 101.67,129.37 183.84,129.58l1.32,0c39.88,0 79.72,-4.56 118.81,-13.64c-3.78,9.55 -7.78,19.01 -12,28.39c9.75,-8.99 18.06,-19.6 24.55,-31.47l0.01,0c-18.38,33.53 -51.23,57.12 -89.28,62.48c-22.94,3.04 -46.04,4.56 -69.17,4.56Z" style="fill:#f58600;fill-rule:nonzero;"/><path d="M3390.28,2631.18c4.22,-9.38 8.22,-18.84 12,-28.39c4.19,-0.97 8.38,-2 12.55,-3.08c-6.49,11.87 -14.8,22.48 -24.55,31.47Z" style="fill:#87a38f;fill-rule:nonzero;"/><path d="M3038.91,2160.05c0,22.68 97.38,41.06 217.5,41.06c120.17,0 217.55,-18.38 217.55,-41.06c0,-22.68 -97.38,-41.11 -217.55,-41.11c-120.12,0 -217.5,18.43 -217.5,41.11Z" style="fill:#fff;fill-rule:nonzero;"/><path d="M3038.9,2160.03c0,7.5 10.6,14.5 29.11,20.55c37.61,12.26 107.87,20.51 188.38,20.51c80.52,0 150.83,-8.25 188.49,-20.51c18.5,-6.05 29.11,-13.05 29.11,-20.55c0,-22.65 -97.42,-41.11 -217.6,-41.11c-120.12,0 -217.49,18.46 -217.49,41.11Z" style="fill:#fff;fill-rule:nonzero;"/><path d="M3071.06,2180.56c37.61,12.25 107.87,20.5 188.39,20.5c80.51,0 150.83,-8.25 188.49,-20.5c-37.66,-12.3 -107.98,-20.56 -188.49,-20.56c-80.52,0 -150.78,8.26 -188.39,20.56Z" style="fill:#93603e;fill-rule:nonzero;"/><path d="M3054.63,2194.83l-4.63,72.81c-6.98,110.21 14.54,221.09 62.2,320.67c14.62,30.55 42.99,51.46 75.9,55.93c45.17,6.15 91.53,6.13 136.71,-0.01c32.76,-4.46 60.78,-24.67 74.97,-54.06c42.08,-87.21 64.32,-184.5 64.32,-281.35c0,-14.41 -0.42,-27.87 -1.28,-41.15l-4.6,-72.84c-11.64,4.51 -26.45,8.41 -44.65,11.85c-42.15,7.95 -97.96,12.33 -157.16,12.33c-59.18,0 -114.98,-4.38 -157.12,-12.33c-18.21,-3.44 -33.01,-7.34 -44.66,-11.85Zm201.78,489.84c-24.37,0 -48.97,-1.67 -73.13,-4.95c-44.89,-6.1 -83.53,-34.5 -103.37,-75.95c-50.31,-105.08 -73,-222.1 -65.65,-338.4l6.78,-106.45l35.77,1.13c0,-2.74 -1.12,-4.61 -1.52,-5.05c8.53,9.53 78.35,28.21 201.12,28.21c122.8,0 192.64,-18.68 201.16,-28.21c-0.39,0.44 -1.51,2.31 -1.51,5.05l35.77,-1.12l6.72,106.45c0.91,14.03 1.35,28.25 1.35,43.44c0,102.21 -23.47,204.88 -67.87,296.91c-19.42,40.24 -57.7,67.9 -102.4,73.98c-24.19,3.29 -48.83,4.96 -73.22,4.96Z" style="fill:#371a45;fill-rule:nonzero;"/><path d="M3063.78,2160.05c23.21,9.87 89.09,23.16 192.63,23.16c103.57,0 169.46,-13.29 192.68,-23.16c-23.22,-9.9 -89.12,-23.21 -192.68,-23.21c-103.54,0 -169.42,13.31 -192.63,23.21Zm192.63,58.96c-59.18,0 -114.98,-4.38 -157.12,-12.33c-54.14,-10.22 -78.29,-24.6 -78.29,-46.63c0,-22.02 24.15,-36.41 78.28,-46.65c42.16,-7.97 97.96,-12.36 157.13,-12.36c59.18,0 115,4.39 157.17,12.36c54.14,10.24 78.28,24.63 78.28,46.65c0,22.03 -24.14,36.41 -78.29,46.63c-42.15,7.95 -97.96,12.33 -157.16,12.33Z" style="fill:#371a45;fill-rule:nonzero;"/><path d="M2733.12,2286.64c-15.69,53.63 1.58,104.27 32.56,117.31c65.18,27.44 112.33,-99.73 112.33,-99.73c0,0 -21.9,-91.9 -64.85,-90.38c-30.48,1.08 -65.83,24.28 -80.04,72.8Z" style="fill:#fff;fill-rule:nonzero;"/><path d="M2784.18,2388.89c-3.69,0 -7.37,-0.8 -11.15,-2.39c-20.15,-8.48 -33.96,-47.2 -22.89,-90.34c6.24,21.01 18.32,36.94 33.83,43.46c4.36,1.84 8.65,2.99 12.85,3.52c-1.39,15.07 -1.79,29.89 -1.59,43.45c-3.78,1.53 -7.42,2.3 -11.05,2.3Z" style="fill:#b9afbe;fill-rule:nonzero;"/><path d="M2751.3,2291.96c-13.12,44.81 0.93,85.78 21.73,94.54c7.75,3.26 15.04,3.19 22.96,-0.23c28.14,-12.16 52.6,-60.03 62.16,-83.27c-8.48,-30.87 -27.62,-70.93 -44.32,-70.23c-22.74,0.8 -50.89,19.42 -62.53,59.19Zm32.87,134.77c-8.71,0 -17.4,-1.77 -25.84,-5.32c-42.12,-17.74 -61.18,-79.27 -43.38,-140.08c18.11,-61.87 63.86,-85.22 97.54,-86.41c55.61,-1.8 79.69,87.04 83.94,104.91l1.33,5.58l-1.99,5.39c-3.32,8.97 -33.95,88.23 -84.7,110.21c-8.81,3.81 -17.87,5.72 -26.9,5.72Z" style="fill:#371a45;fill-rule:nonzero;"/><path d="M2994.51,2276.79c0,0 -60.12,-98.46 -145.05,-49.14c-66.02,38.34 -56.17,181.42 -49.43,213.82c24.12,116 108.31,183.08 172.3,82.11c3.06,-4.83 34.57,-121.99 22.18,-246.79Z" style="fill:#fff;fill-rule:nonzero;"/><path d="M2902.82,2572.97c-45.03,0 -86.91,-55.14 -102.81,-131.48c-0.81,-3.9 -1.67,-9.42 -2.43,-16.16c0.01,0 0.01,-0.01 0.02,-0.01c0.76,6.74 1.62,12.25 2.43,16.15c15.87,76.34 57.77,131.5 102.81,131.5c0.31,0 0.63,0 0.95,-0.01c-0.33,0.01 -0.64,0.01 -0.97,0.01Z" style="fill:#371a45;fill-rule:nonzero;"/><path d="M2977.96,2504.21c5.12,-21.08 12.35,-57.7 16.39,-102.17c-4.03,44.48 -11.26,81.09 -16.39,102.17Z" style="fill:#371a45;fill-rule:nonzero;"/><path d="M2974.42,2517.6c0.96,-3.27 2.17,-7.78 3.54,-13.39c-1.36,5.61 -2.58,10.12 -3.54,13.39Z" style="fill:#371a45;fill-rule:nonzero;"/><path d="M2797.58,2425.33c-0.95,-8.42 -1.75,-18.77 -2.14,-30.29c0.39,11.53 1.2,21.86 2.16,30.28c-0.01,0 -0.01,0.01 -0.02,0.01Z" style="fill:#371a45;fill-rule:nonzero;"/><path d="M2902.84,2572.97c-45.04,0 -86.94,-55.16 -102.81,-131.5c-0.81,-3.9 -1.67,-9.41 -2.43,-16.15c-0.96,-8.42 -1.77,-18.75 -2.16,-30.28c-0.57,-16.85 -0.25,-36.23 1.78,-55.85c0.85,8.38 1.85,15.15 2.79,19.69c15.73,75.59 55.59,106.02 100.03,106.02c23.78,0 48.87,-8.71 72.29,-23.88c3.42,-2.22 18.93,-64.43 23.76,-144.62c2.42,37.38 1.17,73.56 -1.74,105.64c-4.04,44.47 -11.27,81.09 -16.39,102.17c-1.37,5.61 -2.58,10.12 -3.54,13.39c-1,3.37 -1.74,5.42 -2.09,5.98c-21.58,34.03 -45.46,48.98 -68.54,49.38c-0.32,0.01 -0.64,0.01 -0.95,0.01Z" style="fill:#b9afbe;fill-rule:nonzero;"/><path d="M2956.34,2513.45c-0.07,0.11 -0.15,0.24 -0.25,0.4c0.08,-0.14 0.17,-0.27 0.25,-0.4Zm-59.3,-280.41c-11.82,0 -24.59,3.16 -38.07,10.99c-53.97,31.34 -47.09,161.45 -40.4,193.59c12.94,62.23 44.84,109.85 77.58,115.81c25.3,4.6 46.08,-18.14 59.33,-38.64c5.06,-14.77 30.72,-120.01 20.62,-231.53c-8.28,-11.99 -37.92,-50.22 -79.06,-50.22Zm5.48,358.82c-4.93,0 -9.36,-0.48 -13.14,-1.17c-49.03,-8.92 -91.38,-65.98 -107.89,-145.36c-6.11,-29.37 -20.51,-188.2 58.46,-234.06c79.85,-46.37 146.58,16.13 170.72,55.65l2.25,3.69l0.43,4.31c12.28,123.6 -17.88,247.53 -25.02,258.8c-30.4,47.96 -63.34,58.14 -85.81,58.14Z" style="fill:#371a45;fill-rule:nonzero;"/><path d="M2511.48,2596.93c-6.12,0 -11.47,-4.49 -12.36,-10.72c-36.08,-251.93 92.52,-341.5 98.01,-345.19c5.74,-3.85 13.5,-2.32 17.35,3.4c3.84,5.72 2.33,13.47 -3.37,17.32c-1.34,0.92 -120.94,85.68 -87.24,320.92c0.97,6.84 -3.77,13.17 -10.6,14.15c-0.6,0.08 -1.2,0.12 -1.79,0.12Z" style="fill:#371a45;fill-rule:nonzero;"/><path d="M3233.32,2044.05l-2.46,-39.45c-0.08,-1.27 0.89,-2.36 2.16,-2.44l0.02,0l0.28,-0.02l17.73,-0.92c2.9,-0.17 6.01,-0.26 8.76,-0.51c2.64,-0.24 5.25,-0.71 7.72,-1.59c9.92,-3.28 17.87,-11.39 20.61,-20.93c2.95,-9.48 0.69,-20.09 -5.35,-27.3c-5.61,-6.95 -14.02,-10.92 -22.79,-10.92c-0.59,0 -1.18,0.02 -1.78,0.05c-23.63,0.74 -47.27,1.74 -70.9,2.21l-35.45,0.86l-17.73,0.43c-2.08,0.03 -3.83,0.13 -6.09,0.13c-1.08,0 -2.29,-0.02 -3.71,-0.09c-3.93,-0.21 -7.84,-0.93 -11.64,-2.07c-15.27,-4.53 -27.86,-17.04 -32.63,-32.53c-2.37,-7.74 -2.84,-15.97 -1.4,-23.95c1.49,-7.99 5.04,-15.56 10.05,-21.93c5.04,-6.35 11.67,-11.41 19.09,-14.77c3.74,-1.62 7.65,-2.89 11.67,-3.58c2.01,-0.36 4.03,-0.65 6.06,-0.72l2.93,-0.15l2.21,-0.03l35.46,-0.42c39.47,-0.33 78.95,-0.51 118.43,-0.51c7.79,0 15.58,0 23.38,0.02l70.9,0.28l4.44,0.04l2.21,0.01c0.31,0.01 0.61,0.01 0.89,0.01c0.42,0 0.78,-0.01 1,-0.03c1.87,-0.05 3.75,-0.21 5.54,-0.68c3.61,-0.86 7.04,-2.5 9.98,-4.83c5.78,-4.76 9.6,-11.89 9.5,-19.53c0.02,-7.54 -3.43,-15.13 -9.64,-19.93c-3.05,-2.42 -6.62,-4.17 -10.43,-5.08l-2.91,-0.52l-3.16,-0.19l-8.86,-0.13c-23.63,-0.24 -47.27,-1.02 -70.9,-1.53c-23.64,-0.61 -47.28,-1.02 -70.91,-1.92l-35.45,-1.18c-13.64,-0.18 -27.74,-5.8 -37.21,-15.68c-9.68,-9.71 -15.14,-23.28 -14.87,-36.62c0.09,-13.34 5.83,-26.35 15.27,-35.14c8.97,-8.57 21.1,-13.39 33.06,-13.39c0.47,0 0.94,0.01 1.4,0.02c11.95,0.6 23.67,1.33 35.52,2.15l-35.39,2.28c-11.24,0.91 -21.74,6.34 -28.71,14.58c-7.02,8.2 -10.52,18.9 -9.72,29.21c0.69,10.33 5.73,19.96 13.35,26.39c7.12,5.99 15.89,9.26 25.11,9.26c0.73,0 1.46,-0.02 2.19,-0.06l35.45,-1.19c23.63,-0.9 47.27,-1.3 70.91,-1.92c23.63,-0.5 47.27,-1.29 70.9,-1.52l8.86,-0.13l0.13,0c1.59,0 3.74,0.1 5.57,0.19c1.95,0.22 3.91,0.48 5.85,0.82c7.75,1.56 15.15,4.87 21.51,9.6c12.85,9.31 21,25.02 21.41,41.11c0.66,16.1 -6.81,32.38 -19.25,42.66c-6.22,5.15 -13.62,8.89 -21.47,10.87c-3.91,1.05 -7.95,1.53 -11.98,1.67c-1.11,0.07 -1.82,0.06 -2.54,0.07l-2.21,0.01l-4.44,0.04l-70.9,0.28c-7.76,0.02 -15.51,0.02 -23.26,0.02c-39.52,0 -79.04,-0.17 -118.55,-0.51l-35.46,-0.42l-2.21,-0.03l-1.5,0.04l-0.29,0c-0.83,0 -1.64,0.11 -2.45,0.23c-1.82,0.23 -3.58,0.76 -5.29,1.41c-3.37,1.42 -6.5,3.59 -8.9,6.42c-2.36,2.85 -4.11,6.2 -4.92,9.82c-0.76,3.63 -0.67,7.51 0.28,11.12c1.94,7.27 7.81,13.46 15.11,16.15c3.82,1.46 6.89,1.53 13.63,1.65l17.73,0.44l35.45,0.86c23.63,0.46 47.27,1.47 70.9,2.21c14.26,0.1 28.73,7.55 36.57,19.42c8.11,11.74 9.74,27.33 4.49,40.07c-5.03,12.83 -16.53,22.55 -29.5,25.25c-2.96,0.71 -6,0.98 -9,0.98c-0.26,0 -0.51,0 -0.77,-0.01c-3.16,-0.05 -5.96,-0.28 -8.96,-0.41l-15.43,-0.8l-2.3,36.87Z" style="fill:#fcede3;fill-rule:nonzero;"/></g></svg>