<svg xmlns="http://www.w3.org/2000/svg" width="71.028" height="64.414" viewBox="0 0 71.028 64.414">
  <g id="Raggruppa_63" data-name="Raggruppa 63" transform="translate(1.414 1.414)">
    <path id="Tracciato_765" data-name="Tracciato 765" d="M9.3,9.3V0H0V18.6" transform="translate(10.85 4.65)" fill="none" stroke="#f58600" stroke-miterlimit="10" stroke-width="2"/>
    <path id="Linea_16" data-name="Linea 16" d="M0,23V0" transform="translate(6 39)" fill="none" stroke="#f58600" stroke-miterlimit="10" stroke-width="2"/>
    <path id="Tracciato_766" data-name="Tracciato 766" d="M34.1,0,0,34.1l6.2,6.2L34.1,12.4,62,40.3l6.2-6.2Z" fill="none" stroke="#f58600" stroke-miterlimit="10" stroke-width="2"/>
    <path id="Rettangolo_382" data-name="Rettangolo 382" d="M0,23V0H12V23Z" transform="translate(17 39)" fill="none" stroke="#f58600" stroke-miterlimit="10" stroke-width="2"/>
    <path id="Linea_17" data-name="Linea 17" d="M0,0H34" transform="translate(0 62)" fill="none" stroke="#f58600" stroke-miterlimit="10" stroke-width="2"/>
    <path id="Ellisse_21" data-name="Ellisse 21" d="M0,5A4.77,4.77,0,0,1,4.5,0,4.77,4.77,0,0,1,9,5a4.77,4.77,0,0,1-4.5,5A4.77,4.77,0,0,1,0,5Z" transform="translate(36 40)" fill="none" stroke="#232d36" stroke-miterlimit="10" stroke-width="2"/>
    <path id="Tracciato_767" data-name="Tracciato 767" d="M4.65,9.3h0A4.65,4.65,0,0,1,0,4.65H0A4.65,4.65,0,0,1,4.65,0h0A4.65,4.65,0,0,1,9.3,4.65h0A4.65,4.65,0,0,1,4.65,9.3Z" transform="translate(49.6 52.7)" fill="none" stroke="#232d36" stroke-miterlimit="10" stroke-width="2"/>
    <path id="Linea_18" data-name="Linea 18" d="M0,22,17,0" transform="translate(39 40)" fill="none" stroke="#232d36" stroke-miterlimit="10" stroke-width="2"/>
  </g>
</svg>
