<?xml version="1.0" encoding="UTF-8" standalone="no"?><!DOCTYPE svg PUBLIC "-//W3C//DTD SVG 1.1//EN" "http://www.w3.org/Graphics/SVG/1.1/DTD/svg11.dtd"><svg width="100%" height="100%" viewBox="0 0 316 383" version="1.1" xmlns="http://www.w3.org/2000/svg" xmlns:xlink="http://www.w3.org/1999/xlink" xml:space="preserve" xmlns:serif="http://www.serif.com/" style="fill-rule:evenodd;clip-rule:evenodd;stroke-linejoin:round;stroke-miterlimit:2;"><g id="Raggruppa_255"></g><g><path d="M6.189,211.236c13.554,-0.461 22.522,3.876 30.27,8.212c7.61,4.26 14.042,8.519 22.485,8.232c17.038,-0.58 19.945,-18.916 19.945,-18.916c0,0 -4.147,-18.097 -21.184,-17.518c-17.038,0.581 -24.649,19.077 -51.516,19.99Z" style="fill:#f58600;fill-rule:nonzero;"/><path d="M20.193,211.457c-0.939,-0.224 -1.903,-0.424 -2.896,-0.598c9.036,-2.228 15.519,-6.525 21.425,-10.439c6.323,-4.191 11.784,-7.81 19.021,-8.056c0.256,-0.009 0.509,-0.013 0.761,-0.013c4.257,0 7.982,1.236 11.127,3.688c-2.64,-1.569 -5.889,-2.605 -9.87,-2.605c-0.261,0 -0.527,0.004 -0.796,0.013c-13.986,0.476 -21.623,13.024 -38.772,18.01Z" style="fill:#fff;fill-rule:nonzero;"/><path d="M29.114,210.297c8.726,-0.297 14.517,2.895 19.52,6.086c4.925,3.142 9.086,6.283 14.533,6.097c10.981,-0.373 12.801,-13.776 12.801,-13.776c0,0 -2.727,-13.249 -13.707,-12.876c-10.981,0.374 -15.832,13.88 -33.147,14.469Z" style="fill:#a65b00;fill-rule:nonzero;"/><path d="M45.12,209.976c5.401,-0.184 8.985,1.792 12.082,3.767c3.048,1.944 5.625,3.888 8.996,3.774c6.796,-0.232 7.923,-8.527 7.923,-8.527c0,0 -1.688,-8.201 -8.484,-7.97c-6.796,0.231 -9.8,8.591 -20.517,8.956Z" style="fill:#fff;fill-rule:nonzero;"/><path d="M17.297,210.859c9.167,1.608 15.926,5.455 22.085,8.959c6.593,3.752 12.292,6.991 19.524,6.744c6.643,-0.226 11.827,-3.281 15.409,-9.081c2.386,-3.862 3.247,-7.737 3.43,-8.678c-0.246,-0.925 -1.369,-4.733 -4.011,-8.426c-3.969,-5.543 -9.353,-8.238 -15.991,-8.013c-7.237,0.246 -12.698,3.865 -19.021,8.056c-5.906,3.914 -12.389,8.211 -21.425,10.439Zm40.849,17.952c-7.479,0 -13.504,-3.428 -19.87,-7.05c-8.159,-4.643 -17.409,-9.904 -32.049,-9.407c-0.621,0.02 -1.134,-0.462 -1.155,-1.079c-0.001,-0.014 -0.001,-0.027 -0.001,-0.04c0.001,-0.6 0.476,-1.095 1.08,-1.115c14.641,-0.498 23.511,-6.378 31.336,-11.564c6.331,-4.196 12.311,-8.159 20.18,-8.426c7.356,-0.254 13.559,2.865 17.93,9.01c3.258,4.58 4.337,9.18 4.382,9.374c0.031,0.14 0.037,0.284 0.014,0.425c-0.031,0.196 -0.795,4.859 -3.734,9.65c-3.943,6.428 -9.918,9.958 -17.277,10.208c-0.28,0.01 -0.56,0.014 -0.836,0.014Z" style="fill:#371a45;fill-rule:nonzero;"/><path d="M87.167,228.289l-6.46,-1.227c-2.922,-0.554 -5.305,-2.672 -6.201,-5.508c-0.937,-2.971 -1.584,-6.013 -1.939,-9.083c-0.213,-1.843 -0.318,-3.695 -0.318,-5.547c0,-3.841 0.457,-7.681 1.369,-11.448c0.351,-1.445 1.084,-2.737 2.089,-3.76c1.008,-1.023 2.285,-1.778 3.724,-2.154l6.263,-1.64l0.098,-0.025l1.375,40.392Z" style="fill-rule:nonzero;"/><path d="M74.749,196.052c0.022,-0.095 0.045,-0.189 0.068,-0.284c0.596,-2.454 2.483,-4.375 4.927,-5.014l4.209,-1.102c-0.196,0.673 -0.38,1.348 -0.551,2.026l-3.971,1.04c-1.439,0.376 -2.716,1.131 -3.724,2.155c-0.354,0.361 -0.676,0.756 -0.958,1.179Z" style="fill:#6e6e6e;fill-rule:nonzero;"/><path d="M87.167,228.289l-6.46,-1.227c-2.922,-0.554 -5.305,-2.672 -6.201,-5.508c-0.937,-2.971 -1.584,-6.013 -1.939,-9.083c1.834,0.777 4.543,1.387 6.186,-0.706c2.934,-3.735 1.821,-17.371 6.941,-23.843l0.098,-0.025l1.375,40.392Z" style="fill:#6f6f6f;fill-rule:nonzero;"/><path d="M69.253,172.658c3.271,1.869 18.712,10.523 18.675,20.145l15.914,-7.598c-0.061,-0.468 -0.151,-0.957 -0.272,-1.455l0.001,-0.003c-1.746,-7.171 -10.018,-17.106 -33.683,-11.909c-0.176,0.038 -0.352,0.079 -0.531,0.118c-0.337,0.076 -0.404,0.53 -0.104,0.702Z" style="fill:#f58600;fill-rule:nonzero;"/><path d="M69.253,172.658c3.271,1.869 18.712,10.523 18.675,20.145l15.914,-7.598c-0.061,-0.468 -0.151,-0.957 -0.272,-1.455l0.221,0.671c-1.185,-0.514 -3.083,-1.053 -4.878,-0.824c-6.594,0.843 -10.067,0.796 -13.37,-2.546c-4.14,-4.191 -11.838,-8.545 -15.655,-9.213c-0.176,0.038 -0.352,0.079 -0.531,0.118c-0.337,0.076 -0.404,0.53 -0.104,0.702Z" style="fill:#a65b00;fill-rule:nonzero;"/><path d="M97.319,179.066c-3.956,-3.546 -10.24,-6.434 -19.174,-6.434c-1.561,0 -3.203,0.088 -4.929,0.276c-0.274,-0.116 -0.543,-0.224 -0.805,-0.325c3.418,-0.632 6.608,-0.948 9.546,-0.948c5.891,0 10.758,1.27 14.37,3.788c1.204,0.84 2.181,1.75 2.973,2.673c-0.685,0.325 -1.346,0.649 -1.981,0.97Z" style="fill:#fff;fill-rule:nonzero;"/><path d="M72.299,173.017c-0.172,-0.104 -0.346,-0.208 -0.52,-0.313c0.211,-0.042 0.422,-0.082 0.632,-0.121c0.262,0.101 0.531,0.209 0.805,0.325c-0.303,0.034 -0.609,0.07 -0.917,0.109Z" style="fill:#fff;fill-rule:nonzero;"/><path d="M87.928,194.037l-0.004,0c-0.681,-0.003 -1.231,-0.557 -1.228,-1.238c0.012,-3.271 -2.297,-10.086 -17.9,-18.982l-0.155,-0.088c-0.582,-0.332 -0.894,-0.976 -0.795,-1.639c0.098,-0.664 0.584,-1.189 1.238,-1.337c12.444,-2.825 22.084,-1.934 28.653,2.647c5.767,4.022 7.046,9.484 7.327,11.645c0.088,0.675 -0.388,1.294 -1.062,1.382c-0.675,0.086 -1.294,-0.388 -1.382,-1.063c-0.24,-1.837 -1.333,-6.482 -6.293,-9.941c-5.523,-3.852 -13.979,-4.781 -24.548,-2.719c14.34,8.574 17.399,15.63 17.383,20.105c-0.003,0.679 -0.554,1.228 -1.234,1.228Z" style="fill:#371a45;fill-rule:nonzero;"/><path d="M105.388,230.658c-0.449,7.261 -7.407,20.049 -33.491,15.967c-0.343,-0.053 -0.442,-0.502 -0.153,-0.694c3.138,-2.086 17.939,-12.202 17.25,-21.798l16.394,6.525Z" style="fill:#a7a7a7;fill-rule:nonzero;"/><path d="M71.897,246.627c-0.342,-0.056 -0.44,-0.503 -0.152,-0.696c1.606,-1.069 6.274,-4.244 10.352,-8.379c3.855,-3.904 7.182,-8.668 6.902,-13.317c-0.001,-0.033 -0.005,-0.069 -0.006,-0.102l0.099,0.039l16.295,6.485c-0.126,2.038 -0.765,4.512 -2.198,6.926c-3.662,6.186 -12.528,11.978 -31.292,9.044Z" style="fill:#f58600;fill-rule:nonzero;"/><path d="M81.23,246.169c-2.2,0 -4.532,-0.153 -6.985,-0.458c0.294,-0.207 0.598,-0.425 0.91,-0.653c1.738,0.157 3.379,0.231 4.927,0.231c9.779,-0.001 15.859,-2.946 19.465,-6.653c0.604,-0.126 1.188,-0.27 1.755,-0.43c-0.76,1.041 -1.721,2.084 -2.934,3.06c-4.045,3.25 -9.878,4.903 -17.138,4.903Z" style="fill:#ff808c;fill-rule:nonzero;"/><path d="M82.097,237.552c3.855,-3.904 7.182,-8.668 6.902,-13.317c0.031,-0.02 0.062,-0.043 0.093,-0.063l16.295,6.485c-0.126,2.038 -0.765,4.512 -2.198,6.926c-5.13,1.939 -12.036,2.437 -21.092,-0.031Z" style="fill:#a65b00;fill-rule:nonzero;"/><path d="M81.383,248.654c-2.994,0 -6.222,-0.27 -9.677,-0.81c-0.662,-0.104 -1.183,-0.594 -1.327,-1.25c-0.143,-0.655 0.124,-1.318 0.682,-1.689c4.073,-2.708 17.313,-12.199 16.703,-20.684c-0.048,-0.679 0.463,-1.269 1.142,-1.318c0.681,-0.048 1.269,0.463 1.318,1.142c0.619,8.618 -9.834,17.325 -15.979,21.666c10.543,1.313 18.853,-0.21 24.123,-4.445c5.009,-4.026 5.697,-9.195 5.79,-10.684c0.041,-0.679 0.626,-1.195 1.306,-1.155c0.679,0.043 1.197,0.627 1.154,1.307c-0.138,2.235 -1.067,7.922 -6.706,12.454c-4.528,3.638 -10.738,5.466 -18.529,5.466Z" style="fill:#371a45;fill-rule:nonzero;"/><path d="M229.531,203.228c0,0 -18.314,33.687 -72.387,39.264c-46.056,4.746 -69.977,-14.203 -69.977,-14.203c-4.272,-10.418 -5.403,-21.8 -3.347,-32.763c0.484,-2.577 1.143,-5.12 1.972,-7.629c0,0 1.042,-0.949 3.138,-2.419c0.792,-0.555 1.732,-1.184 2.826,-1.868l0.003,-0.003c2.09,-1.303 4.728,-2.798 7.921,-4.324c0.676,-0.324 1.375,-0.648 2.103,-0.971c0.218,-0.099 0.44,-0.194 0.662,-0.293c4.513,-1.972 9.946,-3.927 16.317,-5.514c7.678,-1.914 16.709,-3.304 27.113,-3.569c2.824,-0.074 5.749,-0.062 8.773,0.04c4.216,0.145 8.232,0.478 12.048,0.965c7.264,0.921 13.817,2.404 19.695,4.244c25.723,8.041 38.569,22.907 42.107,27.591c0.697,0.925 1.033,1.452 1.033,1.452Z" style="fill:#fff;fill-rule:nonzero;"/><path d="M129.199,193.208c-11.827,-2.355 -21.339,-7.544 -26.058,-14.149c0.111,-0.049 0.223,-0.097 0.335,-0.146c0.706,-0.303 1.444,-0.609 2.214,-0.916c0.256,0.236 0.521,0.473 0.795,0.708c4.105,3.528 9.979,5.391 15.795,6.333c0.068,0.122 0.139,0.244 0.213,0.364c0,0.001 0.001,0.001 0.001,0.002c0.003,0.005 0.006,0.01 0.009,0.015c0.001,0.001 0.002,0.003 0.003,0.004c0.003,0.006 0.005,0.01 0.008,0.014c0.003,0.004 0.005,0.009 0.008,0.012c0.001,0.003 0.002,0.004 0.003,0.005c0.003,0.005 0.006,0.009 0.008,0.013c0.59,0.945 1.382,1.848 2.396,2.69c1.672,1.389 3.669,1.922 5.749,1.922c0.517,0 1.039,-0.033 1.562,-0.094c-1.121,0.967 -2.141,2.048 -3.041,3.223Zm33.14,-1.064c-0.461,-0.527 -0.945,-1.031 -1.455,-1.511c0.916,-0.351 1.792,-0.85 2.607,-1.528c1.962,-1.628 3.256,-3.566 3.842,-5.695c4.889,-0.996 9.617,-2.723 13.011,-5.639c0.23,-0.198 0.453,-0.396 0.669,-0.594c0.004,-0.003 0.007,-0.006 0.01,-0.009c0.002,-0.003 0.004,-0.004 0.006,-0.005c0.92,-0.847 1.723,-1.707 2.415,-2.572c0.847,0.24 1.687,0.491 2.522,0.751c-3.052,7.428 -11.884,13.577 -23.627,16.802Z" style="fill:#cdc6d0;fill-rule:nonzero;"/><path d="M142.736,239.58c-33.62,0 -51.002,-13.771 -51.002,-13.771c-1.348,-3.289 -2.356,-6.681 -3.023,-10.127c0.039,-0.001 0.078,-0.002 0.117,-0.004c6.934,-0.232 12.565,-4.694 14.778,-6.722c0.078,0.052 0.155,0.103 0.23,0.154c0.509,-0.478 0.781,-0.774 0.781,-0.774c0,0 -0.062,-0.06 -0.183,-0.169c-0.001,0 -0.003,-0.002 -0.004,-0.003c0.123,-0.127 0.187,-0.197 0.187,-0.197c0,0 -0.063,-0.06 -0.184,-0.169c-1.157,-1.033 -7.618,-6.465 -15.511,-6.465c-0.194,0 -0.389,0.003 -0.584,0.01c-0.146,0.005 -0.294,0.013 -0.439,0.021c0.148,-1.91 0.4,-3.814 0.754,-5.705c0.232,-1.234 0.508,-2.459 0.827,-3.677c0.584,-2.235 1.929,-4.199 3.819,-5.529c0.019,-0.013 0.038,-0.027 0.057,-0.041c0.73,-0.51 1.594,-1.089 2.601,-1.719c-1.594,2.392 -3.035,4.959 -2.624,8.461c0.914,7.76 15.169,13.872 15.169,13.872c0,0 -3.18,7.826 3.985,14.344c4.901,4.459 11.901,7.085 20.078,8.228c-3.003,-3.177 -4.907,-7.42 -5.066,-12.131c-0.009,-0.286 -0.012,-0.57 -0.009,-0.853c3.675,6.585 10.717,11.009 18.704,11.009c0.244,0 0.491,-0.004 0.737,-0.013c7.567,-0.257 14.095,-4.431 17.699,-10.503c-0.062,4.44 -1.69,8.524 -4.372,11.703c10.788,-1.729 21.858,-4.896 31.9,-9.022c-0.25,3.233 -0.613,6.467 -1.091,9.697c-9.214,4.357 -20.736,7.929 -34.938,9.393c-4.716,0.486 -9.184,0.702 -13.393,0.702Z" style="fill:#cdc6d0;fill-rule:nonzero;"/><path d="M229.531,203.228c0,0 -0.16,0.293 -0.49,0.832l-0.006,0.006c-0.333,0.537 -0.842,1.313 -1.532,2.284c-0.061,0.093 -0.129,0.182 -0.197,0.274c-0.182,0.253 -0.379,0.518 -0.586,0.793c-0.025,0.036 -0.052,0.073 -0.08,0.107c-0.105,0.139 -0.213,0.281 -0.324,0.426c-0.006,0.012 -0.015,0.022 -0.027,0.033c-0.149,0.195 -0.302,0.392 -0.463,0.595c-0.009,0.013 -0.018,0.025 -0.027,0.038c-0.124,0.151 -0.244,0.304 -0.37,0.462c-0.456,0.567 -0.953,1.162 -1.492,1.784c-0.099,0.118 -0.201,0.232 -0.302,0.348c-0.617,0.703 -1.286,1.44 -2.01,2.201c-0.105,0.115 -0.213,0.228 -0.32,0.339c-1.618,1.68 -3.492,3.474 -5.644,5.32c-0.163,0.139 -0.33,0.281 -0.496,0.423c-0.043,0.03 -0.083,0.067 -0.126,0.104c-0.253,0.21 -0.506,0.423 -0.764,0.635c-0.13,0.105 -0.26,0.21 -0.392,0.317c-0.129,0.108 -0.262,0.213 -0.395,0.318c-0.397,0.324 -0.807,0.645 -1.223,0.962c-0.138,0.107 -0.277,0.215 -0.416,0.32c-0.284,0.213 -0.567,0.429 -0.854,0.641c-0.145,0.112 -0.289,0.216 -0.437,0.324c-0.438,0.32 -0.886,0.641 -1.339,0.965c-0.153,0.108 -0.305,0.213 -0.458,0.32c-0.46,0.32 -0.932,0.641 -1.409,0.962c-4.463,2.983 -9.687,5.905 -15.749,8.494c0.64,-3.597 1.14,-7.215 1.5,-10.84c14.551,-5.6 27.419,-13.068 35.395,-21.239c0.09,0.118 0.17,0.225 0.244,0.327c0.04,0.052 0.074,0.102 0.111,0.151c0.179,0.243 0.321,0.447 0.426,0.601c0.064,0.092 0.116,0.166 0.156,0.225c0.026,0.04 0.047,0.071 0.062,0.093c0.022,0.034 0.034,0.052 0.034,0.055Z" style="fill:#ce2030;fill-rule:nonzero;"/><path d="M229.534,203.23c0,0 -10.223,18.792 -37.931,30.625c1.186,-6.659 1.888,-13.377 2.104,-20.1c0.299,-9.218 -0.311,-18.449 -1.827,-27.56c-0.611,-3.671 -1.369,-7.323 -2.272,-10.948c0.102,0.034 0.2,0.071 0.299,0.105c1.698,0.598 3.335,1.227 4.913,1.877c18.863,7.773 29.185,18.878 32.994,23.662c0.712,0.897 1.199,1.574 1.465,1.963c0.172,0.243 0.255,0.376 0.255,0.376Z" style="fill:#f58600;fill-rule:nonzero;"/><path d="M229.534,203.231l0,-0.001l0,0.001Zm0,-0.001c-0.002,-0.003 -0.01,-0.016 -0.025,-0.04c0,0 0,0 -0.001,0c0.016,0.024 0.024,0.037 0.026,0.04Zm-0.04,-0.063l-0.001,0c-0.014,-0.021 -0.032,-0.048 -0.053,-0.08c0.021,0.032 0.04,0.059 0.054,0.08Zm-0.086,-0.127c-0.001,-0.001 -0.001,-0.003 -0.003,-0.003c-0.021,-0.031 -0.044,-0.066 -0.071,-0.104c-0.001,-0.001 -0.001,-0.002 -0.002,-0.003c0.028,0.04 0.054,0.077 0.076,0.11Zm-0.259,-0.374c-0.002,-0.002 -0.004,-0.004 -0.006,-0.006c-0.253,-0.362 -0.636,-0.887 -1.15,-1.543c0.517,0.66 0.902,1.187 1.156,1.549Zm-1.335,-1.775c-0.003,-0.005 -0.007,-0.009 -0.01,-0.014c0.003,0.005 0.007,0.009 0.01,0.014Zm-0.012,-0.016c-0.003,-0.003 -0.006,-0.006 -0.008,-0.01c0.002,0.004 0.005,0.007 0.008,0.01Zm-0.011,-0.014c-0.006,-0.008 -0.013,-0.016 -0.02,-0.024c0.007,0.008 0.014,0.016 0.02,0.024Zm-0.024,-0.03c-0.002,-0.002 -0.004,-0.005 -0.006,-0.007c0.002,0.002 0.004,0.005 0.006,0.007Zm-0.01,-0.012c-0.002,-0.003 -0.004,-0.006 -0.006,-0.008c0.002,0.003 0.004,0.005 0.006,0.008Zm-0.018,-0.021l0,-0.001l0,0.001Zm-34.032,-24.02c-0.001,0 -0.003,-0.001 -0.004,-0.002c-0.001,0 -0.003,-0.001 -0.003,-0.001l-0.003,-0.001c-0.88,-0.35 -1.779,-0.694 -2.695,-1.029c0.92,0.336 1.822,0.681 2.705,1.033Z" style="fill:#9dd5ff;fill-rule:nonzero;"/><path d="M229.334,202.933c-0.018,-0.025 -0.036,-0.051 -0.055,-0.079c-0.04,-0.058 -0.085,-0.123 -0.136,-0.194c0.002,0.002 0.004,0.004 0.006,0.006c0.048,0.068 0.091,0.131 0.13,0.188c0.018,0.027 0.036,0.052 0.053,0.076c0.001,0.001 0.001,0.002 0.002,0.003Zm-34.045,-25.509c-0.002,-0.001 -0.004,-0.002 -0.006,-0.003c0.002,0.001 0.004,0.002 0.006,0.003Zm-0.048,-0.021c-0.004,-0.001 -0.01,-0.003 -0.015,-0.005c0.005,0.002 0.01,0.004 0.015,0.005Zm-0.049,-0.02c-0.008,-0.003 -0.016,-0.006 -0.024,-0.01c0.008,0.004 0.016,0.007 0.024,0.01Zm-0.051,-0.021c-0.009,-0.004 -0.02,-0.008 -0.03,-0.013c0.01,0.005 0.02,0.009 0.03,0.013Zm-0.052,-0.021c-0.012,-0.006 -0.024,-0.011 -0.036,-0.015c0.012,0.005 0.024,0.009 0.036,0.015Zm-0.053,-0.023c-0.014,-0.005 -0.026,-0.011 -0.039,-0.016c0.013,0.005 0.025,0.011 0.039,0.016Zm-0.053,-0.022c-0.015,-0.006 -0.031,-0.012 -0.046,-0.018c0.015,0.006 0.031,0.012 0.046,0.018Zm-0.054,-0.022c-0.016,-0.007 -0.031,-0.012 -0.048,-0.019c0.017,0.006 0.032,0.012 0.048,0.019Zm-0.054,-0.022c-0.019,-0.008 -0.037,-0.016 -0.055,-0.023c0.018,0.007 0.036,0.015 0.055,0.023Zm-0.912,-0.371c-0.086,-0.035 -0.173,-0.07 -0.26,-0.105c0.001,0.001 0.003,0.002 0.004,0.002c0.086,0.034 0.172,0.068 0.256,0.103Zm-0.263,-0.106c-0.002,0 -0.003,0 -0.003,-0.001l0.003,0.001Z" style="fill:#fff;fill-rule:nonzero;"/><path d="M229.509,203.19c-0.005,-0.006 -0.01,-0.014 -0.016,-0.023l0.001,0c0.005,0.009 0.01,0.016 0.014,0.023c0.001,0 0.001,0 0.001,0Zm-0.069,-0.103c-0.011,-0.016 -0.022,-0.033 -0.035,-0.05c0.002,0 0.002,0.002 0.003,0.003c0.011,0.017 0.022,0.032 0.032,0.047Z" style="fill:#e79098;fill-rule:nonzero;"/><path d="M228.029,205.602c-0.024,-0.034 -0.045,-0.065 -0.073,-0.104c-0.265,-0.389 -0.752,-1.066 -1.464,-1.963c-1.569,-1.971 -4.247,-5.015 -8.168,-8.456c-0.618,0.178 -1.288,0.268 -1.993,0.268c-1.891,0 -4.018,-0.648 -5.966,-1.957c-2.927,-1.968 -4.632,-4.877 -4.608,-7.4c-3.603,-2.143 -7.677,-4.229 -12.259,-6.117c-0.559,-0.231 -1.127,-0.457 -1.701,-0.682c-0.251,-1.15 -0.516,-2.299 -0.795,-3.446c0.916,0.335 1.815,0.679 2.695,1.029c0,0.001 0.001,0.001 0.003,0.001c0,0 0.002,0.001 0.003,0.001c0.087,0.035 0.174,0.07 0.26,0.105c0.288,0.115 0.573,0.231 0.857,0.348c0.018,0.007 0.036,0.015 0.055,0.023c0.002,0.001 0.004,0.001 0.006,0.003c0.017,0.007 0.032,0.012 0.048,0.019c0.003,0.002 0.005,0.002 0.008,0.004c0.015,0.006 0.031,0.012 0.046,0.018c0.004,0.002 0.009,0.004 0.014,0.006c0.013,0.005 0.025,0.011 0.039,0.016c0.006,0.003 0.012,0.006 0.017,0.008c0.012,0.004 0.024,0.009 0.036,0.015c0.007,0.003 0.015,0.006 0.022,0.008c0.01,0.005 0.021,0.009 0.03,0.013c0.009,0.004 0.018,0.007 0.027,0.011c0.008,0.004 0.016,0.007 0.024,0.01c0.011,0.005 0.023,0.01 0.034,0.015c0.005,0.002 0.011,0.004 0.015,0.005c0.014,0.006 0.028,0.012 0.042,0.018c0.002,0.001 0.004,0.002 0.006,0.003c4.247,1.776 8.051,3.72 11.444,5.718c5.912,3.481 10.567,7.126 14.085,10.342c3.23,2.954 5.507,5.546 6.921,7.313l0,0.001c0.004,0.004 0.008,0.008 0.012,0.013c0.002,0.002 0.004,0.005 0.006,0.008c0.002,0.002 0.002,0.003 0.004,0.005c0.002,0.002 0.004,0.005 0.006,0.007c0.001,0.002 0.003,0.004 0.004,0.006c0.007,0.008 0.014,0.016 0.02,0.024c0.001,0.002 0.002,0.002 0.003,0.004c0.002,0.004 0.005,0.007 0.008,0.01c0,0.001 0.001,0.002 0.002,0.002c0.003,0.005 0.007,0.009 0.01,0.014c0.061,0.077 0.121,0.152 0.179,0.226c0.514,0.656 0.897,1.181 1.15,1.543c0.051,0.071 0.096,0.136 0.136,0.194c0.019,0.028 0.037,0.054 0.055,0.079c0.027,0.038 0.05,0.073 0.071,0.104c0.013,0.017 0.024,0.034 0.035,0.05c0.021,0.032 0.039,0.059 0.053,0.08c0.006,0.009 0.011,0.017 0.016,0.023c0.015,0.024 0.023,0.037 0.025,0.04c0,0 0,0 0,0l0,0l0,0.001c-0.015,0.027 -0.495,0.901 -1.505,2.371Z" style="fill:#fff;fill-rule:nonzero;"/><path d="M224.922,202.973l-0.005,0.005c-7.905,11.849 -19.023,19.91 -32.399,25.783c0.555,-3.113 0.987,-6.245 1.299,-9.382c12.594,-4.847 23.731,-11.311 30.636,-18.383c0.791,0.248 0.757,1.512 0.469,1.977Z" style="fill:#a65b00;fill-rule:nonzero;"/><path d="M191.345,177.185c4.191,18.013 4.815,36.366 1.857,54.618c18.383,-8.341 28.497,-19.599 32.96,-25.702c1.218,-1.665 1.141,-3.93 -0.187,-5.509c-4.867,-5.787 -15.722,-16.334 -34.63,-23.407Zm0.258,57.902c-0.274,0 -0.546,-0.091 -0.768,-0.267c-0.354,-0.283 -0.526,-0.736 -0.446,-1.182c3.463,-19.412 2.799,-38.957 -1.976,-58.092c-0.109,-0.44 0.031,-0.904 0.365,-1.209c0.335,-0.306 0.81,-0.404 1.237,-0.254c20.79,7.25 32.636,18.726 37.847,24.922c2.061,2.45 2.18,5.967 0.291,8.552c-4.779,6.533 -15.817,18.786 -36.066,27.431c-0.156,0.067 -0.32,0.099 -0.484,0.099Z" style="fill:#371a45;fill-rule:nonzero;"/><path d="M88.18,227.509c1.24,0.911 7.09,4.976 17.24,8.542c10.571,3.715 28.104,7.635 51.598,5.212c12.098,-1.248 23.361,-4.032 33.486,-8.278c3.295,-18.978 2.645,-38.078 -1.931,-56.791c-10.39,-3.549 -21.816,-5.562 -33.971,-5.984c-23.607,-0.819 -40.831,4.28 -51.126,8.703c-9.883,4.248 -15.443,8.699 -16.62,9.692c-2.062,6.327 -2.993,12.909 -2.766,19.567c0.226,6.656 1.602,13.16 4.09,19.337Zm54.535,16.967c-16.809,0 -29.725,-3.138 -38.24,-6.144c-11.796,-4.164 -17.824,-8.878 -18.075,-9.077c-0.165,-0.131 -0.295,-0.303 -0.375,-0.499c-2.68,-6.542 -4.16,-13.439 -4.4,-20.501c-0.24,-7.064 0.769,-14.044 2.997,-20.748c0.067,-0.201 0.184,-0.381 0.341,-0.524c0.236,-0.215 5.929,-5.326 17.416,-10.282c10.544,-4.548 28.176,-9.796 52.308,-8.955c12.65,0.44 24.536,2.571 35.329,6.337c0.392,0.137 0.689,0.463 0.79,0.866c4.856,19.468 5.535,39.354 2.014,59.104c-0.067,0.411 -0.339,0.771 -0.733,0.939c-10.511,4.49 -22.225,7.425 -34.816,8.723c-5.132,0.529 -9.989,0.761 -14.556,0.761Z" style="fill:#371a45;fill-rule:nonzero;"/><path d="M87.169,229.523c-0.077,0 -0.154,-0.007 -0.232,-0.022l-6.461,-1.228c-3.373,-0.641 -6.111,-3.074 -7.146,-6.348c-2.737,-8.663 -3.052,-17.908 -0.909,-26.738c0.809,-3.337 3.376,-5.95 6.698,-6.819l6.362,-1.665c0.659,-0.172 1.332,0.223 1.505,0.881c0.172,0.659 -0.221,1.333 -0.881,1.505l-6.361,1.665c-2.444,0.639 -4.331,2.56 -4.927,5.014c-2.037,8.393 -1.737,17.18 0.864,25.414c0.761,2.408 2.775,4.197 5.256,4.669l6.46,1.228c0.67,0.127 1.109,0.773 0.981,1.442c-0.112,0.591 -0.629,1.002 -1.209,1.002Z" style="fill:#371a45;fill-rule:nonzero;"/><path d="M88.828,215.678c-9.05,0.306 -18.206,-6.555 -18.206,-6.555c0,0 0.032,-0.029 0.094,-0.078c0.96,-0.802 9.123,-7.409 17.622,-7.702c8.156,-0.279 14.909,5.396 16.095,6.455c0.121,0.109 0.184,0.169 0.184,0.169c0,0 -6.8,7.41 -15.789,7.711Z" style="fill:#f58600;fill-rule:nonzero;"/><path d="M71.102,209.834c-0.312,-0.216 -0.479,-0.342 -0.479,-0.342c0,0 0.033,-0.029 0.093,-0.078c0.037,-0.031 0.085,-0.071 0.144,-0.119c0.062,0.044 0.136,0.096 0.221,0.155c0.006,0.128 0.013,0.257 0.021,0.384Z" style="fill:#fff380;fill-rule:nonzero;"/><path d="M103.836,209.11c-0.075,-0.051 -0.152,-0.102 -0.23,-0.154c0.377,-0.346 0.655,-0.622 0.824,-0.792c0.001,0.001 0.003,0.003 0.004,0.003c0.121,0.109 0.183,0.169 0.183,0.169c0,0 -0.272,0.296 -0.781,0.774Z" style="fill:#e6e3e8;fill-rule:nonzero;"/><path d="M71.707,210.243c-0.239,-0.157 -0.442,-0.295 -0.605,-0.409c-0.008,-0.127 -0.015,-0.256 -0.021,-0.384c0.227,0.158 0.533,0.365 0.909,0.609c-0.096,0.061 -0.189,0.123 -0.283,0.184Z" style="fill:#9b8da2;fill-rule:nonzero;"/><path d="M71.99,210.059c-0.376,-0.244 -0.682,-0.451 -0.909,-0.609c-0.085,-0.059 -0.159,-0.111 -0.221,-0.155c1.45,-1.185 9.31,-7.3 17.479,-7.583c0.196,-0.006 0.39,-0.009 0.586,-0.009c7.879,0 14.334,5.416 15.505,6.461c-0.169,0.17 -0.447,0.446 -0.824,0.792c-3.319,-2.198 -8.587,-4.88 -14.563,-4.88c-0.225,0 -0.451,0.004 -0.678,0.012c-6.314,0.218 -12.468,3.439 -16.375,5.971Z" style="fill:#ff808c;fill-rule:nonzero;"/><path d="M88.828,215.678c-9.05,0.306 -18.206,-6.555 -18.206,-6.555c0,0 0.032,-0.029 0.094,-0.078l33.717,-1.247c0.121,0.109 0.184,0.169 0.184,0.169c0,0 -6.8,7.41 -15.789,7.711Z" style="fill:#a65b00;fill-rule:nonzero;"/><path d="M72.708,209.052c2.803,1.802 9.54,5.612 16.077,5.395c6.519,-0.219 11.917,-4.514 14,-6.418c-2.207,-1.759 -7.877,-5.678 -14.404,-5.453c-6.536,0.225 -12.999,4.487 -15.673,6.476Zm15.524,7.871c-9.153,0 -17.971,-6.529 -18.35,-6.814c-0.299,-0.224 -0.48,-0.571 -0.493,-0.944c-0.012,-0.373 0.144,-0.732 0.427,-0.976c0.368,-0.317 9.105,-7.756 18.481,-8.077c9.403,-0.316 16.856,6.664 17.169,6.962c0.487,0.463 0.513,1.231 0.059,1.726c-0.292,0.318 -7.257,7.795 -16.657,8.112c-0.212,0.007 -0.424,0.011 -0.636,0.011Z" style="fill:#371a45;fill-rule:nonzero;"/><path d="M146.889,226.378c-11.139,0.379 -20.477,-8.344 -20.855,-19.483c-0.379,-11.139 8.344,-20.477 19.484,-20.855c11.139,-0.379 20.476,8.343 20.855,19.483c0.379,11.139 -8.345,20.476 -19.484,20.855Z" style="fill:#f58600;fill-rule:nonzero;"/><path d="M146.429,221.016c-0.597,0 -1.184,-0.037 -1.762,-0.11c-1.114,-0.185 -2.199,-0.461 -3.245,-0.821c-5.058,-1.956 -8.731,-6.788 -8.926,-12.542c-0.261,-7.686 5.779,-14.152 13.465,-14.413c0.174,-0.007 0.349,-0.01 0.522,-0.01c3.534,0 6.878,1.333 9.473,3.757c2.723,2.543 4.292,5.995 4.419,9.719c0.126,3.722 -1.205,7.272 -3.748,9.995c-2.543,2.722 -5.994,4.291 -9.718,4.417c-0.16,0.006 -0.321,0.008 -0.48,0.008Zm0.442,-1.115l0.004,0l-0.004,0Zm-12.337,-9.115c1.914,4.721 6.543,8.015 11.893,8.015c0.147,0 0.295,-0.002 0.444,-0.007c4.685,-0.161 8.699,-2.811 10.811,-6.638l0.001,0c0.002,-0.006 0.005,-0.011 0.008,-0.016c0.001,-0.001 0.002,-0.002 0.003,-0.004c0.002,-0.004 0.004,-0.008 0.006,-0.012c0.002,-0.002 0.003,-0.005 0.005,-0.008c0.001,-0.003 0.003,-0.006 0.004,-0.008c0.002,-0.003 0.004,-0.006 0.005,-0.009c0.002,-0.003 0.003,-0.006 0.005,-0.008c0.001,-0.003 0.003,-0.006 0.004,-0.009c0.002,-0.003 0.003,-0.006 0.005,-0.008c0.001,-0.003 0.003,-0.007 0.005,-0.01c0.001,-0.002 0.002,-0.004 0.003,-0.007c0.003,-0.003 0.005,-0.008 0.007,-0.012c0.001,-0.001 0.002,-0.003 0.002,-0.003c0.002,-0.005 0.005,-0.01 0.008,-0.015c0,-0.001 0,-0.002 0.001,-0.002c0.002,-0.005 0.005,-0.01 0.008,-0.015c0,-0.001 0,-0.001 0.001,-0.002c1.031,-1.926 1.584,-4.142 1.504,-6.484c-0.237,-6.938 -5.935,-12.403 -12.824,-12.403c-0.147,0 -0.296,0.003 -0.444,0.008c-6.063,0.207 -11.001,4.584 -12.15,10.282c-0.161,0.793 -0.247,1.611 -0.252,2.448c-0.002,0.179 0,0.357 0.007,0.538c0.052,1.552 0.378,3.03 0.93,4.389Z" style="fill:#ff808c;fill-rule:nonzero;"/><path d="M163.439,198.337c-1.653,-2.864 -3.985,-5.276 -6.771,-7.025c0.097,0.002 0.195,0.003 0.292,0.003c0.302,0 0.603,-0.01 0.904,-0.032c2.375,1.859 4.3,4.273 5.575,7.054Zm-32.272,-3.662c0.372,-0.482 0.769,-0.951 1.19,-1.402c3.269,-3.499 7.641,-5.595 12.387,-5.956c0.51,0.297 1.069,0.609 1.667,0.92c-0.149,-0.003 -0.299,-0.005 -0.449,-0.005c-0.232,0 -0.466,0.005 -0.699,0.012c-5.588,0.19 -10.568,2.635 -14.096,6.431Z" style="fill:#ff808c;fill-rule:nonzero;"/><path d="M146.888,226.377c-11.137,0.378 -20.477,-8.341 -20.855,-19.481c-0.118,-3.503 0.664,-6.828 2.139,-9.753c-0.282,1.465 -0.407,2.981 -0.356,4.536c0.379,11.141 9.716,19.864 20.856,19.486c7.637,-0.261 14.14,-4.737 17.345,-11.112c-1.742,9.035 -9.541,15.997 -19.129,16.324Z" style="fill:#a65b00;fill-rule:nonzero;"/><path d="M146.211,187.26c-0.216,0 -0.433,0.004 -0.652,0.012c-5.058,0.172 -9.747,2.303 -13.202,6.001c-3.455,3.699 -5.263,8.521 -5.091,13.58c0.348,10.223 8.777,18.304 18.929,18.304c0.217,0 0.434,-0.003 0.653,-0.011c10.441,-0.355 18.648,-9.139 18.293,-19.581c-0.348,-10.224 -8.777,-18.305 -18.93,-18.305Zm-0.017,40.363c-11.475,0 -20.999,-9.132 -21.393,-20.686c-0.4,-11.801 8.874,-21.729 20.674,-22.13c11.806,-0.397 21.728,8.874 22.13,20.674c0.402,11.801 -8.873,21.728 -20.674,22.129c-0.246,0.009 -0.493,0.013 -0.737,0.013Z" style="fill:#371a45;fill-rule:nonzero;"/><path d="M146.871,218.792c-7.086,0.241 -13.026,-5.309 -13.267,-12.395c-0.242,-7.087 5.308,-13.027 12.395,-13.268c7.086,-0.241 13.027,5.308 13.268,12.395c0.241,7.087 -5.309,13.027 -12.396,13.268Z" style="fill:#383939;fill-rule:nonzero;"/><path d="M146.415,218.8c-0.188,0 -0.374,-0.004 -0.56,-0.013c0.189,0.008 0.381,0.013 0.572,0.013c0.101,0 0.202,-0.001 0.303,-0.004c-0.105,0.003 -0.21,0.004 -0.315,0.004Z" style="fill:#ff4d5e;fill-rule:nonzero;"/><path d="M146.427,218.801c-5.35,0 -9.979,-3.294 -11.893,-8.015c1.846,4.551 6.217,7.776 11.321,8.001c0.186,0.009 0.372,0.013 0.56,0.013c0.105,0 0.21,-0.001 0.315,-0.004c0.047,-0.001 0.094,-0.002 0.141,-0.004c4.685,-0.159 8.699,-2.809 10.811,-6.636c-2.112,3.827 -6.126,6.477 -10.811,6.638c-0.149,0.005 -0.297,0.007 -0.444,0.007Zm11.256,-6.645c0.002,-0.006 0.005,-0.011 0.008,-0.016c-0.003,0.005 -0.006,0.01 -0.008,0.016Zm0.011,-0.02c0.002,-0.004 0.004,-0.008 0.006,-0.012c-0.002,0.004 -0.004,0.008 -0.006,0.012Zm0.011,-0.02c0.001,-0.003 0.003,-0.006 0.004,-0.008c-0.001,0.002 -0.003,0.005 -0.004,0.008Zm0.009,-0.017c0.002,-0.003 0.003,-0.006 0.005,-0.008c-0.002,0.002 -0.003,0.005 -0.005,0.008Zm0.009,-0.017c0.002,-0.003 0.003,-0.006 0.005,-0.008c-0.002,0.002 -0.003,0.005 -0.005,0.008Zm0.01,-0.018c0.001,-0.002 0.002,-0.005 0.003,-0.007c-0.001,0.003 -0.002,0.005 -0.003,0.007Zm0.01,-0.019c0.001,-0.001 0.002,-0.003 0.002,-0.003c0,0 -0.001,0.002 -0.002,0.003Zm0.01,-0.018c0,-0.001 0,-0.002 0.001,-0.002c-0.001,0 -0.001,0.001 -0.001,0.002Zm0.009,-0.017c0,-0.001 0,-0.001 0.001,-0.002c-0.001,0.001 -0.001,0.001 -0.001,0.002Zm-24.165,-6.151c0.005,-0.837 0.091,-1.655 0.252,-2.448c-0.16,0.793 -0.247,1.611 -0.252,2.448Z" style="fill:#ffa6af;fill-rule:nonzero;"/><path d="M146.427,218.8c-0.191,0 -0.383,-0.005 -0.572,-0.013c-5.104,-0.225 -9.475,-3.45 -11.321,-8.001c-0.552,-1.359 -0.877,-2.837 -0.93,-4.389c-0.006,-0.181 -0.009,-0.359 -0.007,-0.538c0.005,-0.837 0.092,-1.655 0.252,-2.448c0.097,-0.481 0.222,-0.952 0.372,-1.412c-0.001,0.143 0.002,0.285 0.006,0.431c0.236,6.939 5.933,12.404 12.822,12.404c0.148,0 0.296,-0.002 0.445,-0.007c5.553,-0.187 10.16,-3.874 11.779,-8.869c0.003,2.181 -0.543,4.243 -1.51,6.05c-0.001,0.001 -0.001,0.001 -0.001,0.002c-0.003,0.005 -0.006,0.01 -0.008,0.015c-0.001,0 -0.001,0.001 -0.001,0.002c-0.003,0.005 -0.006,0.01 -0.008,0.015c0,0 -0.001,0.002 -0.002,0.003c-0.002,0.004 -0.004,0.009 -0.007,0.012c-0.001,0.002 -0.002,0.005 -0.003,0.007c-0.002,0.003 -0.004,0.007 -0.005,0.01c-0.002,0.002 -0.003,0.005 -0.005,0.008c-0.001,0.003 -0.003,0.006 -0.004,0.009c-0.002,0.002 -0.003,0.005 -0.005,0.008c-0.001,0.003 -0.003,0.006 -0.005,0.009c-0.001,0.002 -0.003,0.005 -0.004,0.008c-0.002,0.003 -0.003,0.006 -0.005,0.008c-0.002,0.004 -0.004,0.008 -0.006,0.012c-0.001,0.002 -0.002,0.003 -0.003,0.004c-0.003,0.005 -0.006,0.01 -0.008,0.016l-0.001,0c-2.112,3.827 -6.126,6.477 -10.811,6.636c-0.047,0.002 -0.094,0.003 -0.141,0.004c-0.101,0.003 -0.202,0.004 -0.303,0.004Z" style="fill:#0a0a0a;fill-rule:nonzero;"/><path d="M158.438,210.94c0.001,-0.22 0.002,-0.44 -0.006,-0.664c-0.241,-7.087 -6.179,-12.637 -13.267,-12.397c-5.334,0.181 -9.799,3.592 -11.574,8.289c0.117,-6.791 5.54,-12.369 12.404,-12.602c7.083,-0.241 13.025,5.305 13.266,12.392c0.057,1.754 -0.234,3.44 -0.823,4.982Z" style="fill:#c5c5c5;fill-rule:nonzero;"/><path d="M146.446,194.23c-0.137,0 -0.273,0.003 -0.41,0.007c-3.131,0.106 -6.033,1.426 -8.173,3.716c-2.139,2.29 -3.258,5.275 -3.151,8.406c0.106,3.132 1.426,6.034 3.715,8.174c2.29,2.138 5.278,3.256 8.407,3.151c3.131,-0.106 6.034,-1.426 8.173,-3.715c2.139,-2.29 3.258,-5.276 3.152,-8.407c-0.106,-3.132 -1.426,-6.034 -3.715,-8.173c-2.191,-2.046 -5.017,-3.159 -7.998,-3.159Zm-0.023,25.678c-3.545,0 -6.905,-1.323 -9.509,-3.755c-2.723,-2.544 -4.291,-5.995 -4.418,-9.719c-0.127,-3.722 1.204,-7.272 3.748,-9.995c2.542,-2.722 5.994,-4.291 9.717,-4.417c3.725,-0.128 7.273,1.203 9.995,3.747c2.723,2.543 4.292,5.994 4.419,9.717c0.126,3.724 -1.205,7.274 -3.748,9.996c-2.543,2.723 -5.994,4.292 -9.718,4.418c-0.163,0.006 -0.324,0.008 -0.486,0.008Z" style="fill:#371a45;fill-rule:nonzero;"/><path d="M176.98,117.259l0,41.998c0,7.063 -5.78,12.84 -12.841,12.84l-42.46,0c-7.061,0 -12.841,-5.777 -12.841,-12.84l0,-41.998c0,-4.159 2.003,-7.87 5.09,-10.219c2.159,-1.645 4.846,-2.622 7.751,-2.622l42.46,0c3.176,0 6.093,1.17 8.341,3.101c2.751,2.358 4.5,5.852 4.5,9.74Z" style="fill:#fff;fill-rule:nonzero;"/><path d="M123.015,105.65c-7.137,0 -12.943,5.806 -12.943,12.943l0,39.329c0,7.136 5.806,12.943 12.943,12.943l39.788,0c7.136,0 12.942,-5.807 12.942,-12.943l0,-39.329c0,-7.137 -5.806,-12.943 -12.942,-12.943l-39.788,0Zm39.788,67.68l-39.788,0c-8.496,0 -15.409,-6.912 -15.409,-15.408l0,-39.329c0,-8.497 6.913,-15.409 15.409,-15.409l39.788,0c8.496,0 15.408,6.912 15.408,15.409l0,39.329c0,8.496 -6.912,15.408 -15.408,15.408Z" style="fill:#371a45;fill-rule:nonzero;"/><path d="M127.459,102.739c-15.604,5.358 -21.107,21.117 -23.409,21.164c-2.303,0.047 -3.787,-3.896 -5.789,-6.502c-2.077,-2.703 -4.553,-2.437 -8.075,-2.169c-2.589,0.197 -5.743,0.393 -9.717,-0.59c-4.631,-1.147 0.139,12.758 2.185,18.024c2.664,6.854 8.476,15.271 19.282,15.045c15.741,-0.329 16.217,-19.685 16.217,-19.685l9.306,-25.287Z" style="fill:#fff;fill-rule:nonzero;"/><path d="M101.536,146.482c-9.173,0 -14.205,-6.694 -16.739,-11.967c0.173,0.027 0.341,0.051 0.49,0.068c0.339,0.045 0.678,0.089 1.026,0.122c0.75,0.077 1.518,0.131 2.3,0.131c0.654,0 1.32,-0.038 1.991,-0.132c1.387,-0.194 2.837,-0.651 4.048,-1.515c-1.515,2.369 -2.925,4.788 -1.586,6.647c1.974,2.742 5.982,3.442 10.166,3.442c0.267,0 0.535,-0.003 0.804,-0.008c10.189,-0.201 9.422,-10.739 12.361,-16.382c-1.107,2.972 -1.864,6.061 -2.443,9.172c-0.254,1.381 -0.488,2.766 -0.696,4.155c-2.623,4.057 -6.429,6.161 -11.348,6.263c-0.126,0.003 -0.25,0.004 -0.374,0.004Z" style="fill:#cdc6d0;fill-rule:nonzero;"/><path d="M101.514,148.949c-12.494,0 -18.146,-11.044 -20.009,-15.837c-0.484,-1.245 -2.148,-5.637 -3.236,-9.859c-1.636,-6.347 -0.935,-8.196 -0.141,-9.099c0.367,-0.418 1.198,-1.066 2.636,-0.71c3.926,0.972 7.076,0.731 9.606,0.538c3.455,-0.265 6.44,-0.493 8.868,2.667c0.62,0.807 1.178,1.71 1.718,2.582c0.951,1.539 2.023,3.272 2.925,3.428c0.464,-0.37 1.448,-1.817 2.322,-3.103c3.355,-4.934 9.599,-14.118 20.856,-17.983c0.644,-0.223 1.345,0.122 1.567,0.765c0.221,0.645 -0.122,1.346 -0.766,1.567c-10.482,3.599 -16.2,12.011 -19.617,17.038c-1.886,2.773 -2.833,4.165 -4.168,4.193c-0.023,0 -0.047,0 -0.07,0c-2.297,0 -3.745,-2.341 -5.146,-4.608c-0.507,-0.82 -1.032,-1.668 -1.576,-2.376c-1.55,-2.018 -3.181,-1.983 -6.725,-1.712c-2.706,0.207 -6.075,0.465 -10.386,-0.602c-0.108,-0.027 -0.173,-0.03 -0.211,-0.03c-0.116,0.182 -0.689,1.428 0.677,6.756c1.053,4.111 2.689,8.429 3.166,9.655c2.106,5.423 7.272,14.472 18.106,14.259c5.979,-0.124 10.312,-3.205 12.878,-9.157c1.986,-4.608 2.131,-9.279 2.132,-9.326c0.018,-0.68 0.586,-1.229 1.264,-1.2c0.681,0.017 1.218,0.581 1.202,1.262c-0.006,0.207 -0.15,5.133 -2.305,10.173c-2.935,6.864 -8.164,10.568 -15.12,10.714c-0.15,0.003 -0.3,0.005 -0.447,0.005Z" style="fill:#371a45;fill-rule:nonzero;"/><path d="M105.667,148.149c-0.177,0 -0.357,-0.051 -0.515,-0.158c-0.422,-0.285 -0.535,-0.859 -0.249,-1.282c6.722,-9.974 -0.535,-22.347 -0.609,-22.471c-0.263,-0.438 -0.12,-1.005 0.317,-1.267c0.437,-0.262 1.004,-0.12 1.266,0.316c0.328,0.547 7.943,13.495 0.557,24.454c-0.178,0.266 -0.47,0.408 -0.767,0.408Z" style="fill:#371a45;fill-rule:nonzero;"/><path d="M81.537,117.627c-7.33,-1.169 -7.455,-7.219 -4.322,-9.735c1.921,-1.544 8.214,-2.528 9.077,0.748c0.804,3.055 -4.092,3.332 -4.06,4.722c0.019,0.828 0.667,1.64 3.346,1.885l-4.041,2.38Z" style="fill:#fff;fill-rule:nonzero;"/><path d="M82.232,113.361c0.019,0.829 0.667,1.642 3.344,1.887l-4.04,2.379c-0.971,-0.156 -1.817,-0.396 -2.545,-0.704c-1.042,-2.163 -0.311,-4.726 1.465,-6.153c1.128,-0.907 3.764,-1.619 5.921,-1.39c-0.1,2.37 -4.173,2.714 -4.145,3.981Z" style="fill:#fff;fill-rule:nonzero;"/><path d="M86.293,108.645c-0.001,-0.002 -0.001,-0.003 -0.001,-0.005c-0.022,-0.082 -0.047,-0.162 -0.076,-0.239c0.029,0.063 0.055,0.143 0.077,0.244Z" style="fill:#3986d0;fill-rule:nonzero;"/><path d="M86.377,109.38c-0.276,-0.029 -0.561,-0.044 -0.849,-0.044c-0.292,0 -0.588,0.015 -0.884,0.042c0.597,-0.517 1.055,-1.16 1.353,-1.16c0.087,0 0.16,0.054 0.219,0.183c0.029,0.077 0.054,0.157 0.076,0.239c0,0.002 0,0.003 0.001,0.005c0.039,0.179 0.067,0.419 0.084,0.735Z" style="fill:#cdc6d0;fill-rule:nonzero;"/><path d="M82.235,113.426c-0.116,-0.023 -0.23,-0.047 -0.345,-0.07c-0.962,-0.192 -1.928,-0.418 -2.935,-0.623c0.334,-0.757 0.847,-1.437 1.501,-1.963c0.74,-0.596 2.266,-0.267 3.585,-0.966c0.215,-0.114 0.416,-0.264 0.603,-0.426c0.296,-0.027 0.592,-0.042 0.884,-0.042c0.288,0 0.573,0.015 0.849,0.044c-0.099,2.363 -4.15,2.711 -4.145,3.97l0,0.011c0.001,0.021 0.001,0.043 0.003,0.065Z" style="fill:#cdc6d0;fill-rule:nonzero;"/><path d="M81.539,118.86c-0.065,0 -0.13,-0.006 -0.196,-0.016c-3.773,-0.602 -6.361,-2.546 -7.101,-5.335c-0.63,-2.372 0.255,-5.016 2.201,-6.579c1.7,-1.365 5.6,-2.235 8.274,-1.353c1.463,0.482 2.42,1.432 2.767,2.749c0.745,2.828 -1.768,4.103 -3.118,4.788c-0.228,0.115 -0.529,0.268 -0.749,0.4c0.26,0.175 0.882,0.397 2.073,0.506c0.678,0.062 1.177,0.662 1.115,1.34c-0.062,0.678 -0.661,1.181 -1.34,1.115c-2.923,-0.268 -4.425,-1.306 -4.466,-3.085c-0.029,-1.317 1.182,-1.932 2.251,-2.474c1.678,-0.852 2.04,-1.237 1.85,-1.962c-0.082,-0.308 -0.289,-0.75 -1.155,-1.036c-1.877,-0.617 -4.948,0.123 -5.958,0.934c-1.198,0.963 -1.745,2.58 -1.362,4.025c0.486,1.83 2.299,3.084 5.106,3.532c0.672,0.107 1.13,0.739 1.023,1.412c-0.097,0.606 -0.621,1.039 -1.215,1.039Z" style="fill:#371a45;fill-rule:nonzero;"/><path d="M89.582,115.226c-3.547,0.256 -6.419,-0.255 -8.885,-0.766c-3.596,-0.746 -6.326,-1.492 -9.021,0.145c-3.483,2.116 -2.371,9.609 0.19,12.17c3.838,3.838 10.886,6.149 13.268,6.494c4.692,0.68 10.988,1.07 12.712,-8.054l-8.264,-9.989Z" style="fill:#fff;fill-rule:nonzero;"/><path d="M89.672,116.455c-1.39,0.087 -2.791,0.146 -4.179,0.029c-1.388,-0.096 -2.767,-0.291 -4.102,-0.546c-1.337,-0.246 -2.643,-0.542 -3.891,-0.744c-1.247,-0.201 -2.427,-0.286 -3.462,-0.067c-0.267,0.033 -0.509,0.137 -0.757,0.221c-0.255,0.063 -0.478,0.225 -0.719,0.335l-0.178,0.09l-0.126,0.089c-0.09,0.049 -0.159,0.133 -0.243,0.193c-0.147,0.155 -0.298,0.311 -0.418,0.514c-0.509,0.785 -0.737,1.938 -0.746,3.095c-0.006,1.165 0.188,2.372 0.548,3.495c0.179,0.561 0.407,1.101 0.678,1.585c0.131,0.247 0.283,0.466 0.434,0.675c0.168,0.207 0.283,0.351 0.531,0.573c1.736,1.672 3.982,2.973 6.307,4.022c1.168,0.525 2.37,0.988 3.585,1.377c0.605,0.185 1.22,0.369 1.811,0.495c0.301,0.067 0.551,0.111 0.892,0.157c0.321,0.047 0.641,0.092 0.955,0.125c1.264,0.148 2.506,0.206 3.675,0.056c1.172,-0.141 2.242,-0.523 3.154,-1.14c0.448,-0.321 0.87,-0.686 1.247,-1.117c0.21,-0.193 0.36,-0.448 0.535,-0.682l0.264,-0.354c0.084,-0.123 0.149,-0.261 0.225,-0.391c0.65,-1.021 1.057,-2.23 1.548,-3.44l0.02,-0.049c0.129,-0.317 0.49,-0.469 0.807,-0.34c0.255,0.103 0.403,0.358 0.384,0.618c-0.098,1.378 -0.301,2.791 -0.896,4.137c-0.071,0.168 -0.13,0.341 -0.213,0.507l-0.27,0.489c-0.185,0.324 -0.361,0.655 -0.611,0.947l-0.354,0.451l-0.179,0.226l-0.209,0.201l-0.428,0.395c-0.142,0.133 -0.285,0.264 -0.451,0.368c-1.247,0.955 -2.776,1.45 -4.236,1.654c-1.473,0.206 -2.912,0.143 -4.291,0.001c-0.348,-0.033 -0.687,-0.077 -1.026,-0.122c-0.32,-0.038 -0.727,-0.102 -1.076,-0.177c-0.713,-0.144 -1.377,-0.336 -2.047,-0.531c-1.327,-0.406 -2.618,-0.886 -3.886,-1.437c-2.526,-1.112 -4.997,-2.464 -7.137,-4.462c-0.254,-0.217 -0.583,-0.573 -0.824,-0.89c-0.241,-0.328 -0.464,-0.662 -0.646,-1.002c-0.377,-0.679 -0.664,-1.375 -0.89,-2.081c-0.448,-1.413 -0.681,-2.868 -0.672,-4.365c0.006,-0.749 0.083,-1.51 0.26,-2.276c0.179,-0.764 0.454,-1.544 0.93,-2.274c0.225,-0.368 0.525,-0.709 0.845,-1.026c0.177,-0.146 0.34,-0.307 0.535,-0.431l0.286,-0.193l0.266,-0.139c0.359,-0.175 0.697,-0.392 1.088,-0.506c0.381,-0.133 0.761,-0.275 1.156,-0.334c1.581,-0.332 3.105,-0.161 4.471,0.079c1.378,0.248 2.665,0.564 3.944,0.818c2.544,0.532 5.063,0.768 7.604,0.64l0.039,-0.002c0.68,-0.034 1.258,0.489 1.292,1.169c0.035,0.675 -0.481,1.25 -1.153,1.292Z" style="fill:#371a45;fill-rule:nonzero;"/><path d="M89.582,115.226c-3.547,0.256 -6.419,-0.255 -8.885,-0.766c-3.596,-0.746 -6.326,-1.492 -9.021,0.145c-3.483,2.116 -2.371,9.609 0.19,12.17c3.838,3.838 10.886,6.149 13.268,6.494c4.692,0.68 10.988,1.07 12.712,-8.054l-8.264,-9.989Z" style="fill:#fff;fill-rule:nonzero;"/><path d="M87.551,133.54c-0.83,-0.056 -1.645,-0.159 -2.416,-0.271c-1.231,-0.178 -3.704,-0.88 -6.338,-2.047c2.634,1.167 5.107,1.869 6.337,2.047c0.771,0.111 1.586,0.215 2.417,0.271Zm-10.89,-3.357c-1.765,-0.942 -3.471,-2.084 -4.795,-3.407c-0.258,-0.258 -0.5,-0.565 -0.725,-0.913c0.224,0.347 0.467,0.654 0.725,0.912c1.324,1.324 3.03,2.466 4.795,3.408Zm-6.899,-7.827c-0.302,-1.405 -0.38,-2.9 -0.155,-4.23c0,0.003 0,0.004 0.001,0.006c-0.225,1.328 -0.147,2.821 0.154,4.224Z" style="fill:#371a45;fill-rule:nonzero;"/><path d="M88.731,133.58c-0.395,0 -0.789,-0.014 -1.18,-0.04c-0.831,-0.056 -1.646,-0.16 -2.417,-0.271c-1.23,-0.178 -3.703,-0.88 -6.337,-2.047c-0.708,-0.313 -1.427,-0.659 -2.136,-1.039c-1.765,-0.942 -3.471,-2.084 -4.795,-3.408c-0.258,-0.258 -0.501,-0.565 -0.725,-0.912c-0.614,-0.946 -1.096,-2.187 -1.379,-3.507c-0.301,-1.403 -0.379,-2.896 -0.154,-4.224c0.316,2.22 1.189,4.351 2.347,5.512c3.984,3.983 11.296,6.378 13.769,6.739c1.178,0.171 2.454,0.324 3.736,0.324c3.167,0 6.375,-0.934 8.252,-4.849c-1.424,6.366 -5.232,7.722 -8.981,7.722Z" style="fill:#cdc6d0;fill-rule:nonzero;"/><path d="M89.672,116.455c-2.78,0.193 -5.6,-0.057 -8.266,-0.598c-1.333,-0.255 -2.636,-0.562 -3.887,-0.775c-1.251,-0.214 -2.446,-0.31 -3.508,-0.083c-0.274,0.034 -0.522,0.139 -0.777,0.226c-0.261,0.065 -0.49,0.23 -0.737,0.342l-0.182,0.092l-0.134,0.094c-0.095,0.053 -0.169,0.14 -0.258,0.205c-0.155,0.163 -0.314,0.327 -0.439,0.539c-0.53,0.818 -0.761,1.992 -0.771,3.165c-0.01,1.183 0.192,2.402 0.559,3.537c0.183,0.569 0.415,1.115 0.693,1.608c0.134,0.25 0.29,0.474 0.446,0.688c0.171,0.213 0.298,0.363 0.548,0.583c1.771,1.669 4.042,2.935 6.381,3.957c1.173,0.514 2.379,0.969 3.596,1.348c0.607,0.18 1.223,0.36 1.813,0.48c0.302,0.064 0.551,0.106 0.892,0.15c0.32,0.047 0.64,0.094 0.954,0.129c1.263,0.152 2.502,0.215 3.671,0.071c1.172,-0.136 2.242,-0.514 3.158,-1.126c0.45,-0.318 0.875,-0.68 1.254,-1.112c0.212,-0.193 0.362,-0.447 0.538,-0.682l0.265,-0.355c0.084,-0.122 0.149,-0.261 0.225,-0.391c0.652,-1.022 1.055,-2.235 1.534,-3.447l0.019,-0.049c0.126,-0.317 0.486,-0.473 0.804,-0.348c0.258,0.103 0.41,0.362 0.388,0.626c-0.111,1.375 -0.316,2.786 -0.91,4.13c-0.071,0.168 -0.13,0.341 -0.212,0.506l-0.27,0.489c-0.185,0.324 -0.359,0.655 -0.609,0.947l-0.352,0.452l-0.178,0.225l-0.208,0.202l-0.426,0.396c-0.141,0.133 -0.284,0.265 -0.449,0.369c-1.242,0.961 -2.771,1.461 -4.231,1.671c-1.474,0.211 -2.915,0.153 -4.296,0.016c-0.698,-0.07 -1.343,-0.144 -2.104,-0.303c-0.713,-0.149 -1.376,-0.345 -2.044,-0.546c-1.324,-0.416 -2.613,-0.904 -3.876,-1.466c-2.511,-1.139 -4.957,-2.525 -7.063,-4.527c-0.252,-0.22 -0.569,-0.568 -0.806,-0.88c-0.236,-0.324 -0.454,-0.653 -0.634,-0.989c-0.371,-0.671 -0.653,-1.36 -0.875,-2.06c-0.44,-1.399 -0.666,-2.842 -0.661,-4.322c0.005,-0.74 0.081,-1.492 0.255,-2.247c0.176,-0.752 0.445,-1.518 0.91,-2.231c0.22,-0.36 0.512,-0.692 0.824,-1.001c0.172,-0.142 0.33,-0.3 0.52,-0.42l0.278,-0.188l0.261,-0.137c0.354,-0.172 0.686,-0.387 1.07,-0.498c0.375,-0.132 0.748,-0.272 1.137,-0.331c1.554,-0.324 3.062,-0.164 4.426,0.064c1.374,0.236 2.664,0.542 3.946,0.786c2.552,0.516 5.082,0.73 7.62,0.56l0.01,0c0.68,-0.046 1.267,0.467 1.313,1.147c0.045,0.679 -0.466,1.267 -1.145,1.312Z" style="fill:#371a45;fill-rule:nonzero;"/><path d="M98.274,118.67c0,0 0.881,-10.426 -5.021,-12.011c-5.086,-1.365 -6.459,0.421 -6.565,1.537c-0.179,1.907 3.912,3.108 3.975,3.739c0.063,0.632 -3.096,4.234 -0.19,6.477" style="fill:#fff;fill-rule:nonzero;"/><path d="M97.046,118.565c0.061,-2.633 -0.197,-5.519 -1.228,-7.779c-0.511,-1.128 -1.249,-2.03 -2.173,-2.5c-0.12,-0.051 -0.239,-0.105 -0.357,-0.161l-0.377,-0.122c-0.312,-0.076 -0.642,-0.164 -0.96,-0.229c-0.638,-0.129 -1.271,-0.212 -1.868,-0.227c-0.584,-0.005 -1.15,0.063 -1.512,0.24c-0.377,0.161 -0.512,0.392 -0.538,0.527c0.002,0.017 -0.01,-0.014 -0.005,0.003c0.006,0.012 0.011,0.048 0.053,0.109c0.076,0.121 0.244,0.301 0.454,0.476c0.431,0.358 1.003,0.696 1.623,1.054l0.49,0.289c0.175,0.11 0.352,0.216 0.588,0.403c0.051,0.038 0.135,0.116 0.199,0.177c0.039,0.037 0.089,0.094 0.131,0.143l0.065,0.082c0.031,0.042 0.06,0.087 0.087,0.132c0.027,0.045 0.053,0.091 0.076,0.139c0.025,0.048 0.063,0.149 0.084,0.226c0.025,0.083 0.042,0.169 0.053,0.252c0.006,0.069 0.006,0.132 0.005,0.198c-0.002,0.066 -0.008,0.131 -0.016,0.196l-0.022,0.105c-0.014,0.062 -0.036,0.147 -0.05,0.186c-0.124,0.351 -0.218,0.499 -0.31,0.683c-0.36,0.659 -0.657,1.206 -0.857,1.767c-0.2,0.554 -0.316,1.049 -0.314,1.497c-0.007,0.447 0.143,0.92 0.483,1.493l0.029,0.049c0.181,0.305 0.081,0.699 -0.224,0.88c-0.175,0.103 -0.382,0.114 -0.558,0.046c-0.402,-0.153 -0.777,-0.411 -1.109,-0.753c-0.321,-0.348 -0.589,-0.787 -0.734,-1.264c-0.3,-0.964 -0.17,-1.94 0.09,-2.736c0.258,-0.801 0.637,-1.527 0.945,-2.136c0.069,-0.136 0.142,-0.307 0.134,-0.296c0.001,-0.003 -0.014,0.037 -0.017,0.056l-0.006,0.04c-0.007,0.042 -0.011,0.085 -0.013,0.128c-0.001,0.044 0.002,0.085 0.008,0.13c0.004,0.063 0.016,0.127 0.034,0.188c0.014,0.056 0.049,0.134 0.062,0.164c0.012,0.028 0.026,0.055 0.042,0.081c0.015,0.026 0.032,0.051 0.051,0.075l0.022,0.031c0.011,0.016 0.033,0.037 0.04,0.044c-0.004,0.002 0.018,0.015 -0.005,0c-0.045,-0.034 -0.176,-0.116 -0.308,-0.19l-0.444,-0.246c-0.629,-0.343 -1.317,-0.704 -2.012,-1.241c-0.347,-0.273 -0.706,-0.595 -1.029,-1.071c-0.161,-0.235 -0.307,-0.529 -0.405,-0.859c-0.102,-0.327 -0.125,-0.725 -0.083,-1.063c0.082,-0.649 0.362,-1.222 0.743,-1.674c0.381,-0.447 0.851,-0.787 1.316,-0.992c0.942,-0.444 1.844,-0.515 2.686,-0.529c0.839,0.015 1.633,0.125 2.401,0.277c0.385,0.079 0.75,0.174 1.134,0.268l0.646,0.209l0.624,0.28c0.819,0.414 1.528,1.015 2.086,1.686c0.561,0.673 0.985,1.409 1.318,2.155c0.663,1.497 0.964,3.037 1.139,4.55c0.083,0.759 0.127,1.515 0.141,2.269c0.007,0.764 -0.019,1.487 -0.091,2.293c-0.062,0.678 -0.661,1.177 -1.338,1.116c-0.649,-0.059 -1.135,-0.61 -1.121,-1.252l0.002,-0.072Z" style="fill:#371a45;fill-rule:nonzero;"/><path d="M83.704,116.032c-0.066,0.019 -0.184,0.094 -0.309,0.212c-0.127,0.121 -0.257,0.292 -0.381,0.478c-0.249,0.379 -0.462,0.845 -0.646,1.328c-0.368,0.975 -0.621,2.041 -0.795,3.12c-0.174,1.081 -0.269,2.183 -0.277,3.282c-0.006,1.097 0.069,2.201 0.312,3.239l0.002,0.01c0.078,0.331 -0.128,0.662 -0.46,0.741c-0.313,0.073 -0.626,-0.109 -0.726,-0.407c-0.383,-1.16 -0.566,-2.341 -0.667,-3.521c-0.099,-1.182 -0.104,-2.366 -0.021,-3.552c0.084,-1.188 0.249,-2.376 0.579,-3.576c0.17,-0.6 0.374,-1.203 0.694,-1.814c0.165,-0.306 0.349,-0.613 0.604,-0.919c0.258,-0.301 0.576,-0.608 1.024,-0.844l0.133,-0.07c0.608,-0.32 1.36,-0.087 1.681,0.521c0.32,0.608 0.086,1.36 -0.522,1.681c-0.071,0.037 -0.151,0.068 -0.225,0.091Z" style="fill:#371a45;fill-rule:nonzero;"/><path d="M72.89,116.765c0.728,-0.075 1.433,-0.111 2.155,-0.12c0.719,-0.006 1.442,0.015 2.173,0.089c0.73,0.076 1.468,0.196 2.217,0.438c0.373,0.122 0.751,0.275 1.123,0.491c0.37,0.217 0.744,0.501 1.052,0.9l0.042,0.056c0.314,0.406 0.238,0.989 -0.168,1.303c-0.407,0.313 -0.99,0.238 -1.304,-0.168c-0.028,-0.037 -0.056,-0.08 -0.078,-0.12c-0.195,-0.354 -0.686,-0.701 -1.243,-0.95c-0.563,-0.255 -1.201,-0.439 -1.854,-0.579c-0.654,-0.141 -1.329,-0.236 -2.009,-0.305c-0.679,-0.067 -1.375,-0.107 -2.048,-0.112l-0.012,0c-0.256,-0.002 -0.462,-0.21 -0.46,-0.466c0.001,-0.237 0.184,-0.432 0.414,-0.457Z" style="fill:#371a45;fill-rule:nonzero;"/><path d="M72.488,121.174c0.728,-0.061 1.422,-0.063 2.135,-0.031c0.709,0.034 1.42,0.112 2.13,0.238c0.71,0.132 1.417,0.325 2.116,0.583c0.696,0.27 1.375,0.629 2.015,1.084c0.417,0.296 0.515,0.875 0.218,1.292c-0.296,0.417 -0.875,0.515 -1.292,0.218c-0.027,-0.019 -0.053,-0.039 -0.078,-0.062l-0.021,-0.018c-0.44,-0.392 -0.942,-0.743 -1.498,-1.035c-0.562,-0.282 -1.159,-0.523 -1.783,-0.713c-0.625,-0.185 -1.269,-0.331 -1.924,-0.437c-0.65,-0.104 -1.33,-0.177 -1.972,-0.195l-0.02,-0.001c-0.256,-0.007 -0.457,-0.22 -0.45,-0.475c0.007,-0.238 0.192,-0.428 0.424,-0.448Z" style="fill:#371a45;fill-rule:nonzero;"/><path d="M158.568,102.739c15.605,5.358 21.107,21.117 23.41,21.164c2.303,0.047 3.786,-3.896 5.789,-6.502c2.077,-2.703 4.553,-2.437 8.074,-2.169c2.59,0.197 5.743,0.393 9.718,-0.59c4.631,-1.147 -0.139,12.758 -2.185,18.024c-2.664,6.854 -8.477,15.271 -19.282,15.045c-15.741,-0.329 -16.217,-19.685 -16.217,-19.685l-9.307,-25.287Z" style="fill:#fff;fill-rule:nonzero;"/><path d="M184.523,146.483c-0.134,0 -0.27,-0.002 -0.405,-0.005c-5.086,-0.106 -8.982,-2.351 -11.61,-6.683c-0.185,-1.195 -0.388,-2.386 -0.605,-3.575c-0.652,-3.541 -1.522,-7.06 -2.919,-10.397c3.738,5.248 2.136,17.232 13.008,17.447c0.268,0.005 0.536,0.008 0.804,0.008c4.184,0 8.192,-0.7 10.165,-3.442c1.34,-1.859 -0.07,-4.278 -1.585,-6.647c1.21,0.864 2.661,1.321 4.048,1.515c0.671,0.094 1.336,0.132 1.991,0.132c0.781,0 1.55,-0.054 2.3,-0.131c0.347,-0.033 0.687,-0.077 1.026,-0.122c0.149,-0.017 0.317,-0.041 0.49,-0.069c-2.53,5.272 -7.551,11.969 -16.708,11.969Zm-16.409,-21.599c-0.002,-0.02 -0.004,-0.042 -0.005,-0.064c0.022,0.021 0.044,0.041 0.065,0.062l-0.003,0c-0.019,0 -0.038,0.001 -0.057,0.002Z" style="fill:#cdc6d0;fill-rule:nonzero;"/><path d="M184.514,148.949c-0.149,0 -0.297,-0.002 -0.447,-0.005c-6.957,-0.146 -12.185,-3.85 -15.12,-10.714c-2.155,-5.04 -2.299,-9.966 -2.305,-10.173c-0.017,-0.681 0.522,-1.246 1.203,-1.263c0.679,-0.021 1.246,0.522 1.263,1.202c0,0.046 0.145,4.717 2.132,9.325c2.566,5.952 6.899,9.033 12.878,9.157c10.837,0.232 16,-8.836 18.106,-14.259c0.476,-1.226 2.112,-5.544 3.166,-9.655c1.366,-5.328 0.793,-6.574 0.676,-6.756c-0.037,0.001 -0.102,0.003 -0.21,0.03c-4.312,1.067 -7.68,0.809 -10.386,0.602c-3.545,-0.271 -5.175,-0.306 -6.726,1.712c-0.543,0.708 -1.068,1.556 -1.575,2.376c-1.401,2.266 -2.85,4.608 -5.146,4.608c-0.024,0 -0.047,0 -0.071,0c-1.335,-0.028 -2.282,-1.42 -4.167,-4.194c-3.417,-5.026 -9.136,-13.438 -19.617,-17.037c-0.644,-0.221 -0.987,-0.922 -0.766,-1.567c0.221,-0.643 0.923,-0.987 1.567,-0.765c11.257,3.865 17.501,13.049 20.855,17.983c0.875,1.286 1.859,2.733 2.323,3.103c0.901,-0.156 1.973,-1.888 2.925,-3.428c0.539,-0.872 1.098,-1.775 1.717,-2.581c2.429,-3.161 5.412,-2.933 8.869,-2.668c2.53,0.193 5.679,0.434 9.605,-0.538c1.44,-0.356 2.269,0.292 2.637,0.71c0.794,0.903 1.495,2.752 -0.141,9.099c-1.089,4.222 -2.752,8.614 -3.236,9.859c-1.863,4.792 -7.516,15.835 -20.009,15.837Z" style="fill:#371a45;fill-rule:nonzero;"/><path d="M180.36,148.149c-0.297,0 -0.588,-0.142 -0.767,-0.408c-7.386,-10.959 0.23,-23.907 0.557,-24.454c0.262,-0.436 0.83,-0.578 1.267,-0.316c0.437,0.262 0.579,0.829 0.317,1.267c-0.074,0.124 -7.331,12.497 -0.609,22.471c0.285,0.423 0.173,0.998 -0.25,1.282c-0.158,0.107 -0.338,0.158 -0.515,0.158Z" style="fill:#371a45;fill-rule:nonzero;"/><path d="M204.491,117.627c7.329,-1.169 7.454,-7.219 4.322,-9.735c-1.921,-1.544 -8.214,-2.528 -9.077,0.748c-0.804,3.055 4.091,3.332 4.059,4.722c-0.018,0.828 -0.667,1.64 -3.345,1.885l4.041,2.38Z" style="fill:#fff;fill-rule:nonzero;"/><path d="M203.796,113.361c-0.02,0.829 -0.667,1.642 -3.344,1.887l4.039,2.379c0.972,-0.156 1.818,-0.396 2.546,-0.704c1.041,-2.163 0.31,-4.726 -1.465,-6.153c-1.128,-0.907 -3.764,-1.619 -5.922,-1.39c0.1,2.37 4.174,2.714 4.146,3.981Z" style="fill:#fff;fill-rule:nonzero;"/><path d="M199.735,108.645c0.022,-0.101 0.047,-0.181 0.076,-0.244c-0.028,0.077 -0.053,0.157 -0.075,0.239c0,0.002 -0.001,0.003 -0.001,0.005Z" style="fill:#3986d0;fill-rule:nonzero;"/><path d="M199.65,109.38c0.018,-0.316 0.046,-0.556 0.085,-0.735c0,-0.002 0.001,-0.003 0.001,-0.005c0.022,-0.082 0.047,-0.162 0.075,-0.239c0.059,-0.129 0.133,-0.183 0.219,-0.183c0.299,0 0.757,0.643 1.353,1.16c-0.295,-0.027 -0.591,-0.042 -0.884,-0.042c-0.288,0 -0.572,0.015 -0.849,0.044Z" style="fill:#cdc6d0;fill-rule:nonzero;"/><path d="M203.793,113.426c0.002,-0.022 0.002,-0.044 0.003,-0.065l0,-0.015c-0.004,-1.255 -4.046,-1.605 -4.146,-3.966c0.277,-0.029 0.561,-0.044 0.849,-0.044c0.293,0 0.589,0.015 0.884,0.042c0.188,0.162 0.389,0.312 0.603,0.426c1.32,0.699 2.845,0.37 3.586,0.966c0.654,0.526 1.166,1.206 1.501,1.963c-1.007,0.205 -1.973,0.431 -2.935,0.623c-0.115,0.023 -0.229,0.047 -0.345,0.07Z" style="fill:#cdc6d0;fill-rule:nonzero;"/><path d="M204.489,118.86c-0.595,0 -1.119,-0.433 -1.215,-1.039c-0.108,-0.673 0.35,-1.305 1.022,-1.412c2.808,-0.448 4.621,-1.702 5.107,-3.532c0.383,-1.445 -0.164,-3.062 -1.362,-4.025c-1.01,-0.81 -4.082,-1.551 -5.958,-0.934c-0.866,0.286 -1.073,0.728 -1.155,1.036c-0.191,0.725 0.172,1.11 1.849,1.962c1.069,0.542 2.281,1.157 2.251,2.474c-0.04,1.779 -1.543,2.817 -4.466,3.085c-0.676,0.066 -1.278,-0.437 -1.34,-1.115c-0.062,-0.678 0.437,-1.278 1.116,-1.34c1.191,-0.109 1.813,-0.331 2.073,-0.506c-0.22,-0.132 -0.522,-0.285 -0.749,-0.4c-1.35,-0.685 -3.863,-1.96 -3.118,-4.788c0.346,-1.317 1.303,-2.267 2.767,-2.749c2.674,-0.882 6.574,-0.012 8.274,1.353c1.946,1.563 2.83,4.207 2.201,6.579c-0.74,2.789 -3.328,4.733 -7.101,5.335c-0.066,0.01 -0.131,0.016 -0.196,0.016Z" style="fill:#371a45;fill-rule:nonzero;"/><path d="M196.445,115.226c3.547,0.256 6.42,-0.255 8.885,-0.766c3.596,-0.746 6.327,-1.492 9.022,0.145c3.483,2.116 2.37,9.609 -0.19,12.17c-3.839,3.838 -10.886,6.149 -13.268,6.494c-4.692,0.68 -10.989,1.07 -12.712,-8.054l8.263,-9.989Z" style="fill:#fff;fill-rule:nonzero;"/><path d="M196.534,113.996c2.541,0.128 5.059,-0.108 7.604,-0.64c1.278,-0.254 2.565,-0.57 3.943,-0.818c1.367,-0.24 2.891,-0.411 4.471,-0.079c0.396,0.059 0.776,0.201 1.157,0.334c0.391,0.114 0.728,0.331 1.088,0.506l0.265,0.139l0.286,0.193c0.196,0.124 0.359,0.285 0.535,0.431c0.321,0.317 0.62,0.658 0.846,1.026c0.476,0.73 0.75,1.51 0.93,2.274c0.177,0.766 0.254,1.527 0.26,2.276c0.008,1.497 -0.225,2.952 -0.673,4.365c-0.225,0.706 -0.512,1.402 -0.889,2.081c-0.183,0.34 -0.405,0.674 -0.646,1.002c-0.241,0.317 -0.57,0.673 -0.824,0.89c-2.14,1.998 -4.612,3.35 -7.137,4.462c-1.268,0.551 -2.559,1.031 -3.887,1.437c-0.67,0.195 -1.333,0.387 -2.047,0.531c-0.349,0.075 -0.756,0.139 -1.075,0.177c-0.339,0.045 -0.679,0.089 -1.026,0.122c-1.38,0.142 -2.819,0.205 -4.291,-0.001c-1.461,-0.204 -2.989,-0.699 -4.236,-1.654c-0.166,-0.104 -0.31,-0.235 -0.452,-0.368l-0.427,-0.395l-0.209,-0.201l-0.179,-0.226l-0.354,-0.451c-0.25,-0.292 -0.427,-0.623 -0.612,-0.947l-0.27,-0.489c-0.082,-0.166 -0.141,-0.339 -0.212,-0.507c-0.596,-1.346 -0.798,-2.759 -0.897,-4.137c-0.025,-0.341 0.232,-0.638 0.573,-0.662c0.274,-0.02 0.52,0.142 0.618,0.384l0.02,0.049c0.492,1.21 0.898,2.419 1.549,3.44c0.076,0.13 0.141,0.268 0.225,0.391l0.264,0.354c0.175,0.234 0.325,0.489 0.535,0.682c0.377,0.431 0.799,0.796 1.247,1.117c0.911,0.617 1.981,0.999 3.153,1.14c1.17,0.15 2.412,0.092 3.675,-0.056c0.315,-0.033 0.635,-0.078 0.956,-0.125c0.34,-0.046 0.59,-0.09 0.892,-0.157c0.59,-0.126 1.206,-0.31 1.811,-0.495c1.214,-0.389 2.417,-0.852 3.585,-1.377c2.325,-1.049 4.571,-2.35 6.307,-4.022c0.248,-0.222 0.362,-0.366 0.531,-0.573c0.151,-0.209 0.303,-0.428 0.434,-0.675c0.271,-0.484 0.498,-1.024 0.678,-1.585c0.36,-1.123 0.554,-2.33 0.548,-3.495c-0.009,-1.157 -0.238,-2.31 -0.747,-3.095c-0.12,-0.203 -0.271,-0.359 -0.417,-0.514c-0.084,-0.06 -0.153,-0.144 -0.243,-0.193l-0.126,-0.089l-0.178,-0.09c-0.241,-0.11 -0.464,-0.272 -0.719,-0.335c-0.248,-0.084 -0.49,-0.188 -0.757,-0.221c-1.035,-0.219 -2.215,-0.134 -3.463,0.067c-1.247,0.202 -2.553,0.498 -3.89,0.744c-1.335,0.255 -2.714,0.45 -4.102,0.546c-1.388,0.117 -2.79,0.058 -4.179,-0.029c-0.68,-0.042 -1.195,-0.627 -1.153,-1.307c0.043,-0.674 0.619,-1.188 1.291,-1.154l0.04,0.002Z" style="fill:#371a45;fill-rule:nonzero;"/><path d="M196.445,115.226c3.547,0.256 6.42,-0.255 8.885,-0.766c3.596,-0.746 6.327,-1.492 9.022,0.145c3.483,2.116 2.37,9.609 -0.19,12.17c-3.839,3.838 -10.886,6.149 -13.268,6.494c-4.692,0.68 -10.989,1.07 -12.712,-8.054l8.263,-9.989Z" style="fill:#fff;fill-rule:nonzero;"/><path d="M198.499,133.538c0.823,-0.055 1.63,-0.159 2.395,-0.269c1.203,-0.175 3.595,-0.85 6.164,-1.97c-2.569,1.12 -4.961,1.796 -6.165,1.97c-0.764,0.111 -1.571,0.214 -2.394,0.269Zm10.926,-3.386c1.745,-0.937 3.427,-2.068 4.737,-3.377c0.255,-0.255 0.496,-0.56 0.719,-0.902c-0.223,0.343 -0.464,0.647 -0.719,0.903c-1.31,1.309 -2.992,2.44 -4.737,3.376Zm5.456,-4.28c0.002,-0.002 0.003,-0.004 0.005,-0.006c-0.002,0.002 -0.003,0.004 -0.005,0.006Zm1.404,-3.607c0.285,-1.376 0.354,-2.833 0.135,-4.133c0,-0.002 0.001,-0.003 0.001,-0.006c0.22,1.302 0.15,2.761 -0.136,4.139Z" style="fill:#371a45;fill-rule:nonzero;"/><path d="M197.297,133.58c-3.749,0 -7.557,-1.356 -8.981,-7.722c1.877,3.915 5.084,4.849 8.252,4.849c1.282,0 2.558,-0.153 3.735,-0.324c2.474,-0.361 9.785,-2.756 13.77,-6.739c1.157,-1.161 2.031,-3.292 2.347,-5.512c0.219,1.3 0.15,2.757 -0.135,4.133c-0.281,1.356 -0.771,2.632 -1.399,3.601c-0.002,0.002 -0.003,0.004 -0.005,0.006l0,0.001c-0.223,0.342 -0.464,0.647 -0.719,0.902c-1.31,1.309 -2.992,2.44 -4.737,3.377c-0.786,0.422 -1.584,0.805 -2.367,1.147c-2.569,1.12 -4.961,1.795 -6.164,1.97c-0.765,0.11 -1.572,0.214 -2.395,0.269c-0.398,0.027 -0.8,0.042 -1.202,0.042Z" style="fill:#cdc6d0;fill-rule:nonzero;"/><path d="M196.534,113.996c2.538,0.17 5.068,-0.044 7.62,-0.56c1.281,-0.244 2.572,-0.55 3.946,-0.786c1.363,-0.228 2.872,-0.388 4.426,-0.064c0.389,0.059 0.762,0.199 1.136,0.331c0.385,0.111 0.717,0.326 1.07,0.498l0.262,0.137l0.278,0.188c0.19,0.12 0.348,0.278 0.519,0.42c0.313,0.309 0.605,0.641 0.825,1.001c0.464,0.713 0.734,1.479 0.91,2.231c0.173,0.755 0.249,1.507 0.254,2.247c0.006,1.48 -0.22,2.923 -0.661,4.322c-0.222,0.7 -0.504,1.389 -0.874,2.06c-0.18,0.336 -0.398,0.665 -0.634,0.989c-0.237,0.312 -0.554,0.66 -0.806,0.88c-2.106,2.002 -4.552,3.388 -7.063,4.527c-1.263,0.562 -2.552,1.05 -3.876,1.466c-0.669,0.201 -1.331,0.397 -2.045,0.546c-0.76,0.159 -1.405,0.233 -2.103,0.303c-1.381,0.137 -2.823,0.195 -4.296,-0.016c-1.46,-0.21 -2.99,-0.71 -4.231,-1.671c-0.165,-0.104 -0.308,-0.236 -0.449,-0.369l-0.426,-0.396l-0.208,-0.202l-0.179,-0.225l-0.351,-0.452c-0.25,-0.292 -0.424,-0.623 -0.61,-0.947l-0.269,-0.489c-0.082,-0.165 -0.141,-0.338 -0.212,-0.506c-0.595,-1.344 -0.8,-2.755 -0.911,-4.13c-0.027,-0.34 0.226,-0.639 0.567,-0.667c0.278,-0.022 0.527,0.143 0.625,0.389l0.02,0.049c0.479,1.212 0.882,2.425 1.533,3.447c0.076,0.13 0.142,0.269 0.226,0.391l0.265,0.355c0.176,0.235 0.326,0.489 0.538,0.682c0.378,0.432 0.803,0.794 1.254,1.112c0.916,0.612 1.986,0.99 3.158,1.126c1.168,0.144 2.408,0.081 3.67,-0.071c0.315,-0.035 0.634,-0.082 0.955,-0.129c0.34,-0.044 0.589,-0.086 0.891,-0.15c0.591,-0.12 1.207,-0.3 1.814,-0.48c1.217,-0.379 2.423,-0.834 3.596,-1.348c2.339,-1.022 4.61,-2.288 6.38,-3.957c0.251,-0.22 0.378,-0.37 0.549,-0.583c0.156,-0.214 0.311,-0.438 0.446,-0.688c0.277,-0.493 0.51,-1.039 0.693,-1.608c0.367,-1.135 0.569,-2.354 0.559,-3.537c-0.011,-1.173 -0.241,-2.347 -0.772,-3.165c-0.125,-0.212 -0.284,-0.376 -0.438,-0.539c-0.09,-0.065 -0.163,-0.152 -0.258,-0.205l-0.135,-0.094l-0.182,-0.092c-0.247,-0.112 -0.475,-0.277 -0.737,-0.342c-0.254,-0.087 -0.502,-0.192 -0.777,-0.226c-1.061,-0.227 -2.257,-0.131 -3.507,0.083c-1.252,0.213 -2.554,0.52 -3.888,0.775c-2.666,0.541 -5.485,0.791 -8.265,0.598c-0.68,-0.047 -1.192,-0.636 -1.145,-1.315c0.047,-0.679 0.636,-1.192 1.315,-1.144l0.008,0Z" style="fill:#371a45;fill-rule:nonzero;"/><path d="M187.753,118.67c0,0 -0.881,-10.426 5.021,-12.011c5.086,-1.365 6.46,0.421 6.565,1.537c0.18,1.907 -3.911,3.108 -3.974,3.739c-0.063,0.632 3.096,4.234 0.189,6.477" style="fill:#fff;fill-rule:nonzero;"/><path d="M186.525,118.773c-0.073,-0.806 -0.098,-1.529 -0.091,-2.293c0.013,-0.754 0.057,-1.51 0.141,-2.269c0.175,-1.513 0.475,-3.053 1.139,-4.55c0.333,-0.746 0.757,-1.482 1.318,-2.155c0.558,-0.671 1.267,-1.272 2.085,-1.686l0.624,-0.28l0.646,-0.209c0.385,-0.094 0.75,-0.189 1.135,-0.268c0.767,-0.152 1.562,-0.262 2.4,-0.277c0.842,0.014 1.744,0.085 2.687,0.529c0.465,0.205 0.934,0.545 1.316,0.992c0.381,0.452 0.661,1.025 0.742,1.674c0.043,0.338 0.02,0.736 -0.082,1.063c-0.098,0.33 -0.244,0.624 -0.405,0.859c-0.323,0.476 -0.682,0.798 -1.029,1.071c-0.695,0.537 -1.383,0.898 -2.012,1.241l-0.444,0.246c-0.133,0.074 -0.263,0.156 -0.309,0.19c-0.022,0.015 0,0.002 -0.004,0c0.006,-0.007 0.029,-0.028 0.04,-0.044l0.021,-0.031c0.02,-0.024 0.037,-0.049 0.052,-0.075c0.016,-0.026 0.03,-0.053 0.041,-0.081c0.014,-0.03 0.049,-0.108 0.063,-0.164c0.018,-0.061 0.029,-0.125 0.034,-0.188c0.006,-0.045 0.009,-0.086 0.007,-0.13c-0.001,-0.043 -0.005,-0.086 -0.013,-0.128l-0.006,-0.04c-0.002,-0.019 -0.017,-0.059 -0.016,-0.056c-0.008,-0.011 0.065,0.16 0.134,0.296c0.307,0.609 0.687,1.335 0.945,2.136c0.26,0.796 0.389,1.772 0.09,2.736c-0.146,0.477 -0.413,0.916 -0.734,1.264c-0.332,0.342 -0.707,0.6 -1.109,0.753c-0.331,0.128 -0.702,-0.037 -0.83,-0.368c-0.073,-0.189 -0.05,-0.393 0.046,-0.555l0.031,-0.052c0.34,-0.573 0.49,-1.046 0.483,-1.493c0.002,-0.448 -0.114,-0.943 -0.314,-1.497c-0.2,-0.561 -0.497,-1.108 -0.857,-1.767c-0.092,-0.184 -0.186,-0.332 -0.31,-0.683c-0.015,-0.039 -0.036,-0.124 -0.05,-0.186l-0.022,-0.105c-0.009,-0.065 -0.014,-0.13 -0.016,-0.196c-0.001,-0.066 -0.001,-0.129 0.005,-0.198c0.011,-0.083 0.028,-0.169 0.052,-0.252c0.021,-0.077 0.059,-0.178 0.084,-0.226c0.024,-0.048 0.05,-0.094 0.076,-0.139c0.028,-0.045 0.057,-0.09 0.088,-0.132l0.065,-0.082c0.042,-0.049 0.092,-0.106 0.13,-0.143c0.065,-0.061 0.149,-0.139 0.2,-0.177c0.236,-0.187 0.412,-0.293 0.588,-0.403l0.489,-0.289c0.621,-0.358 1.192,-0.696 1.623,-1.054c0.211,-0.175 0.379,-0.355 0.455,-0.476c0.042,-0.061 0.047,-0.097 0.053,-0.109c0.004,-0.017 -0.007,0.014 -0.005,-0.003c-0.027,-0.135 -0.161,-0.366 -0.539,-0.527c-0.361,-0.177 -0.928,-0.245 -1.511,-0.24c-0.598,0.015 -1.23,0.098 -1.868,0.227c-0.318,0.065 -0.648,0.153 -0.96,0.229l-0.377,0.122c-0.118,0.056 -0.237,0.11 -0.358,0.161c-0.924,0.47 -1.661,1.372 -2.172,2.5c-1.032,2.26 -1.289,5.146 -1.228,7.779l0.002,0.068c0.015,0.68 -0.524,1.245 -1.203,1.26c-0.651,0.016 -1.197,-0.481 -1.256,-1.12Z" style="fill:#371a45;fill-rule:nonzero;"/><path d="M203.391,113.809c0.448,0.236 0.766,0.543 1.024,0.844c0.255,0.306 0.439,0.613 0.604,0.919c0.32,0.611 0.523,1.214 0.693,1.814c0.331,1.2 0.495,2.388 0.58,3.576c0.082,1.186 0.078,2.37 -0.021,3.552c-0.101,1.18 -0.284,2.361 -0.667,3.521c-0.107,0.323 -0.456,0.498 -0.78,0.391c-0.304,-0.1 -0.478,-0.417 -0.407,-0.723l0.003,-0.012c0.242,-1.038 0.318,-2.142 0.311,-3.239c-0.007,-1.099 -0.102,-2.201 -0.277,-3.282c-0.173,-1.079 -0.427,-2.145 -0.794,-3.12c-0.185,-0.483 -0.397,-0.949 -0.646,-1.328c-0.125,-0.186 -0.255,-0.357 -0.381,-0.478c-0.125,-0.118 -0.243,-0.193 -0.309,-0.212c-0.658,-0.195 -1.034,-0.887 -0.839,-1.546c0.196,-0.659 0.888,-1.034 1.546,-0.839c0.078,0.023 0.151,0.053 0.221,0.089l0.139,0.073Z" style="fill:#371a45;fill-rule:nonzero;"/><path d="M213.079,117.688c-0.672,0.005 -1.369,0.045 -2.047,0.112c-0.68,0.069 -1.356,0.164 -2.01,0.305c-0.652,0.14 -1.29,0.324 -1.853,0.579c-0.558,0.249 -1.048,0.596 -1.243,0.95c-0.248,0.45 -0.813,0.614 -1.262,0.366c-0.45,-0.248 -0.614,-0.812 -0.367,-1.262c0.023,-0.041 0.048,-0.079 0.076,-0.116l0.045,-0.059c0.308,-0.399 0.682,-0.683 1.052,-0.9c0.372,-0.216 0.749,-0.369 1.123,-0.491c0.749,-0.242 1.487,-0.362 2.217,-0.438c0.731,-0.074 1.454,-0.095 2.173,-0.089c0.722,0.009 1.427,0.045 2.154,0.12c0.254,0.027 0.439,0.254 0.412,0.508c-0.024,0.236 -0.222,0.412 -0.454,0.415l-0.016,0Z" style="fill:#371a45;fill-rule:nonzero;"/><path d="M213.494,122.098c-0.642,0.018 -1.322,0.091 -1.972,0.195c-0.655,0.106 -1.3,0.252 -1.925,0.437c-0.623,0.19 -1.221,0.431 -1.782,0.713c-0.556,0.292 -1.058,0.643 -1.498,1.035l-0.021,0.018c-0.383,0.34 -0.968,0.306 -1.308,-0.077c-0.34,-0.383 -0.305,-0.968 0.077,-1.308c0.025,-0.023 0.052,-0.044 0.079,-0.063c0.64,-0.455 1.318,-0.814 2.014,-1.084c0.7,-0.258 1.407,-0.451 2.116,-0.583c0.711,-0.126 1.422,-0.204 2.131,-0.238c0.713,-0.032 1.407,-0.03 2.135,0.031c0.254,0.022 0.444,0.245 0.422,0.5c-0.02,0.237 -0.216,0.417 -0.448,0.423l-0.02,0.001Z" style="fill:#371a45;fill-rule:nonzero;"/><path d="M168.148,125.424c6.758,23.56 3.469,44.784 3.469,44.784l-29.25,0l1.083,0l-29.25,0c0,0 -3.289,-21.35 3.53,-44.993c0,0 0.659,-27.721 25.006,-27.721c24.346,0 25.412,27.93 25.412,27.93Z" style="fill:#fff;fill-rule:nonzero;"/><path d="M168.74,125.254c1.541,3.505 2.474,7.222 3.163,10.966c0.342,1.874 0.649,3.755 0.903,5.643c0.243,1.889 0.455,3.783 0.604,5.681c0.31,3.797 0.431,7.608 0.35,11.418c-0.032,1.904 -0.133,3.808 -0.277,5.71c-0.151,1.91 -0.329,3.783 -0.647,5.725l-0.157,1.044l-1.062,0l-29.249,0l0,-2.466l1.082,0l0,2.466l-29.25,0l-1.062,0l-0.156,-1.045l0,-0.001c-0.318,-1.949 -0.495,-3.832 -0.645,-5.751c-0.145,-1.911 -0.241,-3.824 -0.273,-5.738c-0.078,-3.827 0.047,-7.657 0.363,-11.471c0.153,-1.907 0.365,-3.81 0.614,-5.707c0.258,-1.897 0.567,-3.786 0.913,-5.668c0.701,-3.76 1.66,-7.489 3.184,-11.016c0.136,-0.316 0.501,-0.46 0.817,-0.324c0.264,0.114 0.409,0.389 0.368,0.66l-0.001,0.005c-0.554,3.753 -1.292,7.411 -1.904,11.107c-0.598,3.696 -1.024,7.418 -1.296,11.151c-0.126,1.867 -0.23,3.736 -0.287,5.607c-0.051,1.871 -0.069,3.743 -0.052,5.614c0.026,1.871 0.076,3.742 0.175,5.608c0.106,1.857 0.249,3.749 0.461,5.548l0,0l-1.219,-1.045l29.25,0l0,2.466l-1.082,0l0,-2.466l29.249,0l-1.218,1.044c0.212,-1.79 0.355,-3.673 0.463,-5.52c0.1,-1.858 0.149,-3.719 0.177,-5.582c0.019,-1.862 0,-3.725 -0.048,-5.586c-0.054,-1.862 -0.159,-3.722 -0.284,-5.581c-0.265,-3.715 -0.69,-7.42 -1.279,-11.098c-0.61,-3.678 -1.355,-7.315 -1.873,-11.058l-0.001,-0.005c-0.046,-0.34 0.191,-0.654 0.532,-0.701c0.281,-0.039 0.545,0.118 0.654,0.366Z" style="fill:#371a45;fill-rule:nonzero;"/><path d="M128.584,154.635c-3.715,1.505 -9.465,1.19 -13.385,0.715c-2.352,-0.284 -4.002,-2.454 -3.655,-4.797c0.315,-2.138 2.197,-3.693 4.356,-3.591c3.667,0.172 9.167,0.252 12.65,-0.52l0.034,8.193Z" style="fill:#fff;fill-rule:nonzero;"/><path d="M121.922,154.499c-1.654,-0.699 -3.374,-1.421 -5.343,-2.181c-1.247,-0.481 -2.536,-0.732 -3.826,-0.767c-0.034,-0.268 -0.031,-0.542 0.01,-0.818c0.019,-0.129 0.046,-0.256 0.081,-0.379c0.627,0.583 1.437,0.98 2.355,1.091c1.752,0.213 3.872,0.393 6.012,0.393c1.421,0 2.851,-0.079 4.188,-0.281l0,2.652c-1.036,0.166 -2.2,0.264 -3.477,0.29Z" style="fill:#b9afbe;fill-rule:nonzero;"/><path d="M115.7,148.19c-1.47,0 -2.719,1.071 -2.937,2.543c-0.119,0.804 0.087,1.601 0.579,2.246c0.49,0.643 1.203,1.05 2.004,1.148c5.565,0.673 10.102,0.448 12.776,-0.634c0.6,-0.243 0.83,-1.241 0.901,-1.659c0.279,-1.642 -0.159,-3.51 -0.544,-4.118c-3.559,0.715 -8.805,0.657 -12.637,0.478c-0.047,-0.003 -0.094,-0.004 -0.142,-0.004Zm12.885,6.445l0.003,0l-0.003,0Zm-7.392,2.34c-2.161,0 -4.305,-0.178 -6.142,-0.401c-1.469,-0.177 -2.771,-0.923 -3.669,-2.098c-0.9,-1.179 -1.275,-2.636 -1.058,-4.103c0.41,-2.778 2.837,-4.774 5.633,-4.642c5.381,0.252 9.758,0.077 12.326,-0.493c0.586,-0.13 2.038,-0.147 2.861,2.497c0.801,2.577 0.689,6.916 -2.096,8.043c-2.213,0.896 -5.047,1.197 -7.855,1.197Z" style="fill:#371a45;fill-rule:nonzero;"/><path d="M170.39,155.35c-1.84,0.223 -4.085,0.411 -6.332,0.39c-0.154,0 -0.307,-0.003 -0.462,-0.008c-0.161,-0.002 -0.326,-0.006 -0.488,-0.014c-0.11,-0.002 -0.218,-0.006 -0.324,-0.011c-0.128,-0.007 -0.255,-0.014 -0.382,-0.021c-0.162,-0.01 -0.323,-0.021 -0.483,-0.033l-0.012,0c-0.159,-0.012 -0.321,-0.026 -0.481,-0.042c-0.105,-0.01 -0.211,-0.021 -0.314,-0.033c-0.089,-0.007 -0.178,-0.019 -0.265,-0.028c-0.138,-0.017 -0.277,-0.036 -0.41,-0.055c-0.13,-0.018 -0.256,-0.037 -0.381,-0.058c-0.025,-0.002 -0.051,-0.005 -0.075,-0.012c-0.147,-0.021 -0.293,-0.046 -0.436,-0.075c-0.145,-0.025 -0.289,-0.054 -0.429,-0.085c-0.012,-0.002 -0.024,-0.004 -0.035,-0.006c-0.08,-0.019 -0.16,-0.036 -0.238,-0.054c-0.086,-0.019 -0.173,-0.04 -0.26,-0.064l-0.002,0c-0.265,-0.065 -0.525,-0.14 -0.779,-0.22c-0.136,-0.042 -0.272,-0.089 -0.406,-0.136c-0.133,-0.047 -0.265,-0.099 -0.391,-0.15l0.016,-3.934l0.019,-4.26c0.891,0.199 1.916,0.34 3.007,0.439c3.172,0.288 6.913,0.208 9.641,0.082c0.066,-0.002 0.131,-0.005 0.2,-0.005c2.074,0 3.851,1.525 4.157,3.596c0.346,2.343 -1.305,4.514 -3.655,4.797Z" style="fill:#fff;fill-rule:nonzero;"/><path d="M164.417,154.507c-2.378,0 -4.407,-0.229 -5.977,-0.681l0,-2.946c0.047,0.013 0.094,0.025 0.141,0.037l0.002,0c0.087,0.023 0.174,0.044 0.261,0.063c0.077,0.019 0.157,0.035 0.237,0.054l0.035,0.007c0.14,0.03 0.284,0.059 0.429,0.085c0.143,0.028 0.289,0.053 0.436,0.074c0.024,0.008 0.05,0.01 0.076,0.012c0.124,0.022 0.25,0.04 0.38,0.059c0.133,0.019 0.272,0.037 0.41,0.054c0.087,0.009 0.176,0.021 0.265,0.028c0.103,0.011 0.209,0.023 0.315,0.033c0.159,0.016 0.321,0.03 0.48,0.042l0.012,0c0.16,0.012 0.321,0.024 0.483,0.033c0.127,0.007 0.254,0.014 0.383,0.021c0.106,0.004 0.214,0.01 0.324,0.012c0.162,0.006 0.326,0.012 0.487,0.014c0.156,0.004 0.308,0.006 0.462,0.006c0.116,0.002 0.233,0.003 0.348,0.003c2.131,0 4.24,-0.181 5.984,-0.391c0.878,-0.106 1.659,-0.475 2.274,-1.019c0.075,0.199 0.13,0.408 0.161,0.626c0.119,0.804 -0.086,1.601 -0.578,2.246c-0.088,0.115 -0.183,0.223 -0.283,0.322c-0.155,0.051 -0.311,0.107 -0.465,0.167c-0.636,0.246 -1.247,0.487 -1.839,0.726c-1.883,0.21 -3.642,0.313 -5.243,0.313Z" style="fill:#cdc6d0;fill-rule:nonzero;"/><path d="M157.467,153.493c2.673,1.082 7.21,1.308 12.775,0.634c0.802,-0.098 1.514,-0.505 2.005,-1.148c0.492,-0.645 0.697,-1.442 0.578,-2.246c-0.224,-1.519 -1.538,-2.609 -3.079,-2.539c-3.832,0.179 -9.078,0.236 -12.636,-0.478c-0.385,0.608 -0.824,2.476 -0.545,4.118c0.071,0.417 0.301,1.416 0.902,1.659Zm6.928,3.482c-2.808,0 -5.641,-0.301 -7.853,-1.197c-2.786,-1.127 -2.899,-5.466 -2.097,-8.043c0.822,-2.644 2.274,-2.627 2.861,-2.497c2.568,0.569 6.944,0.745 12.325,0.493c2.796,-0.135 5.223,1.864 5.634,4.642c0.217,1.467 -0.159,2.924 -1.059,4.103c-0.897,1.175 -2.2,1.921 -3.668,2.098c-1.837,0.223 -3.982,0.401 -6.143,0.401Z" style="fill:#371a45;fill-rule:nonzero;"/><path d="M158.44,143.734l0,13.131c0,2.436 -1.994,4.43 -4.43,4.43l-24.184,0c-2.432,0 -4.427,-1.994 -4.427,-4.43l0,-13.131c0,-2.436 1.995,-4.427 4.427,-4.427l24.184,0c1.433,0 2.714,0.691 3.526,1.755c0.567,0.743 0.904,1.67 0.904,2.672Z" style="fill:#fff;fill-rule:nonzero;"/><path d="M157.955,158.875c0.31,-0.605 0.485,-1.288 0.485,-2.01l0,-0.49l0,0.49c0,0.722 -0.175,1.405 -0.485,2.01Zm0.485,-13.428l0,-1.713c0,-0.242 -0.019,-0.48 -0.058,-0.711c0.039,0.231 0.058,0.469 0.058,0.711l0,1.713Z" style="fill:#cdc6d0;fill-rule:nonzero;"/><path d="M158.44,150.88l0,-2.941l0,2.941Z" style="fill:#cdc6d0;fill-rule:nonzero;"/><path d="M158.44,153.826l0,-2.946l0,2.946Z" style="fill:#a79bad;fill-rule:nonzero;"/><path d="M158.44,156.375l0,-2.549l0,2.549Zm0,-8.436l0,-2.492l0,2.492Z" style="fill:#371a45;fill-rule:nonzero;"/><path d="M157.758,141.38c-0.069,-0.109 -0.143,-0.215 -0.221,-0.317l0,-0.001c0.078,0.102 0.152,0.209 0.221,0.318Z" style="fill:#cdc6d0;fill-rule:nonzero;"/><path d="M149.143,161.295l-4.238,0c-9.634,-1.679 -14.768,-3.417 -19.506,-5.342l0,-4c2.244,4.363 9.147,6.433 15.66,6.433c1.008,0 2.005,-0.049 2.976,-0.148c1.618,-0.164 2.774,-1.701 2.389,-3.281c-0.116,-0.471 -0.177,-0.971 -0.177,-1.488c0,-2.864 1.898,-5.187 4.239,-5.187c2.263,0 4.116,2.173 4.236,4.908c2.901,-3.793 3.059,-8.869 2.815,-12.127c0.078,0.102 0.152,0.208 0.221,0.317c0.31,0.492 0.527,1.047 0.624,1.643c0.039,0.231 0.058,0.469 0.058,0.711l0,13.131c0,0.722 -0.175,1.405 -0.485,2.01c-2.464,0.834 -5.271,1.636 -8.812,2.42Z" style="fill:#cdc6d0;fill-rule:nonzero;"/><path d="M130.582,140.539c-2.177,0 -3.95,1.772 -3.95,3.949l0,11.623c0,2.178 1.773,3.95 3.95,3.95l22.674,0c2.179,0 3.951,-1.772 3.951,-3.95l0,-11.623c0,-2.177 -1.772,-3.949 -3.951,-3.949l-22.674,0Zm22.674,21.988l-22.674,0c-3.537,0 -6.415,-2.878 -6.415,-6.416l0,-11.623c0,-3.537 2.878,-6.415 6.415,-6.415l22.674,0c3.537,0 6.416,2.878 6.416,6.415l0,11.623c0,3.538 -2.879,6.416 -6.416,6.416Z" style="fill:#371a45;fill-rule:nonzero;"/><path d="M154.305,150.3c0,2.109 -1.71,3.819 -3.819,3.819c-2.109,0 -3.819,-1.71 -3.819,-3.819c0,-2.109 1.71,-3.819 3.819,-3.819c2.109,0 3.819,1.71 3.819,3.819Z" style="fill:#565656;fill-rule:nonzero;"/><path d="M154.306,150.301c0,0.207 -0.016,0.41 -0.049,0.608c-0.292,-1.821 -1.869,-3.211 -3.771,-3.211c-1.902,0 -3.479,1.39 -3.77,3.211c-0.033,-0.198 -0.049,-0.401 -0.049,-0.608c0,-2.109 1.71,-3.82 3.819,-3.82c2.109,0 3.82,1.711 3.82,3.82Z" style="fill:#fff;fill-rule:nonzero;"/><path d="M154.304,150.299c0,2.109 -1.709,3.818 -3.818,3.818c-2.109,0 -3.818,-1.709 -3.818,-3.818c0,-0.488 0.092,-0.953 0.262,-1.382c0.55,1.425 1.935,2.433 3.556,2.433c1.621,0 3.006,-1.008 3.556,-2.433c0.17,0.429 0.262,0.894 0.262,1.382Z" style="fill-rule:nonzero;"/><path d="M150.486,147.406c-1.595,0 -2.893,1.298 -2.893,2.894c0,1.596 1.298,2.894 2.893,2.894c1.597,0 2.895,-1.298 2.895,-2.894c0,-1.596 -1.298,-2.894 -2.895,-2.894Zm0,7.638c-2.615,0 -4.743,-2.128 -4.743,-4.744c0,-2.616 2.128,-4.743 4.743,-4.743c2.616,0 4.744,2.127 4.744,4.743c0,2.616 -2.128,4.744 -4.744,4.744Z" style="fill-rule:nonzero;"/><path d="M139.664,162.527c-0.68,0 -1.232,-0.552 -1.232,-1.232l0,-6.338c0,-1.509 -0.721,-2.953 -1.928,-3.862c-1.821,-1.371 -2.909,-3.552 -2.909,-5.832l0,-5.958c0,-0.68 0.552,-1.232 1.233,-1.232c0.681,0 1.233,0.552 1.233,1.232l0,5.958c0,1.51 0.72,2.954 1.927,3.862c1.822,1.372 2.91,3.553 2.91,5.832l0,6.338c0,0.68 -0.552,1.232 -1.234,1.232Z" style="fill:#371a45;fill-rule:nonzero;"/><path d="M171.204,109.048c-0.426,-0.397 -0.867,-0.789 -1.323,-1.176c0.025,-0.019 0.051,-0.04 0.076,-0.06c0.489,0.325 0.954,0.682 1.393,1.069c-0.049,0.056 -0.098,0.111 -0.146,0.167Z" style="fill:#cdc6d0;fill-rule:nonzero;"/><path d="M171.35,108.881c-0.439,-0.387 -0.904,-0.744 -1.393,-1.069c0.475,-0.375 0.94,-0.76 1.399,-1.156c0.39,0.267 0.765,0.556 1.124,0.863c-0.368,0.464 -0.745,0.917 -1.13,1.362Z" style="fill:#371a45;fill-rule:nonzero;"/><path d="M165.741,114.237c-0.342,-0.921 -0.733,-1.86 -1.179,-2.799c1.132,-0.638 2.231,-1.329 3.297,-2.069c0.584,0.48 1.144,0.971 1.681,1.47c-1.202,1.219 -2.47,2.354 -3.799,3.398Z" style="fill:#cdc6d0;fill-rule:nonzero;"/><path d="M169.54,110.839c-0.537,-0.499 -1.097,-0.99 -1.681,-1.47c0.688,-0.479 1.363,-0.978 2.022,-1.497c0.456,0.387 0.897,0.779 1.323,1.176c-0.539,0.615 -1.094,1.213 -1.664,1.791Z" style="fill:#371a45;fill-rule:nonzero;"/><path d="M115.244,108.663c-0.071,-0.083 -0.142,-0.167 -0.212,-0.251c0.649,-0.51 1.348,-0.96 2.089,-1.34c-0.654,0.518 -1.28,1.051 -1.877,1.591Z" style="fill:#cdc6d0;fill-rule:nonzero;"/><path d="M115.032,108.412c-0.377,-0.449 -0.745,-0.907 -1.104,-1.372c0.638,-0.487 1.324,-0.915 2.046,-1.276c0.432,0.4 0.872,0.792 1.319,1.172c-0.059,0.045 -0.115,0.09 -0.172,0.136c-0.741,0.38 -1.44,0.83 -2.089,1.34Z" style="fill:#371a45;fill-rule:nonzero;"/><path d="M120.181,113.552c-1.15,-0.958 -2.251,-1.986 -3.298,-3.076c0.747,-0.675 1.537,-1.332 2.375,-1.965c0.785,0.59 1.589,1.151 2.412,1.682c-0.576,1.119 -1.068,2.249 -1.489,3.359Z" style="fill:#cdc6d0;fill-rule:nonzero;"/><path d="M116.883,110.476c-0.562,-0.586 -1.109,-1.191 -1.639,-1.813c0.597,-0.54 1.223,-1.073 1.877,-1.591c0.057,-0.046 0.113,-0.091 0.172,-0.136c0.64,0.546 1.295,1.071 1.965,1.575c-0.838,0.633 -1.628,1.29 -2.375,1.965Z" style="fill:#371a45;fill-rule:nonzero;"/><path d="M143.426,122.13c-0.855,0 -1.713,-0.031 -2.578,-0.094c-7.771,-0.568 -14.858,-3.648 -20.667,-8.484c0.421,-1.11 0.913,-2.24 1.489,-3.359c4.922,3.175 10.51,5.287 16.478,6.164c2.039,0.3 4.063,0.445 6.065,0.445c7.295,0 14.269,-1.93 20.349,-5.364c0.446,0.939 0.837,1.878 1.179,2.799c-6.349,4.988 -14.067,7.893 -22.315,7.893Z" style="fill:#cdc6d0;fill-rule:nonzero;"/><path d="M182.159,90.795c-0.453,-0.034 -0.792,-0.428 -0.758,-0.88l1.771,-23.585c0.033,-0.452 0.427,-0.791 0.88,-0.757c4.743,0.356 8.301,4.49 7.944,9.235l-0.603,8.042c-0.356,4.744 -4.49,8.301 -9.234,7.945Z" style="fill:#fff;fill-rule:nonzero;"/><path d="M183.989,65.792c-0.143,0 -0.28,0.051 -0.39,0.145c-0.121,0.105 -0.195,0.25 -0.207,0.41l-1.77,23.584c-0.012,0.16 0.039,0.315 0.143,0.436c0.105,0.121 0.25,0.195 0.411,0.207c2.236,0.168 4.402,-0.545 6.101,-2.007c1.699,-1.462 2.728,-3.498 2.895,-5.734l0.604,-8.042c0.168,-2.236 -0.545,-4.403 -2.008,-6.102c-1.461,-1.699 -3.498,-2.727 -5.733,-2.895c-0.016,-0.001 -0.031,-0.002 -0.046,-0.002Zm-1.172,25.249c-0.224,0 -0.449,-0.008 -0.675,-0.025c-0.278,-0.021 -0.53,-0.149 -0.712,-0.36c-0.182,-0.211 -0.271,-0.48 -0.25,-0.758l1.771,-23.584c0.02,-0.278 0.148,-0.531 0.359,-0.713c0.211,-0.182 0.481,-0.27 0.758,-0.249c2.354,0.177 4.497,1.26 6.037,3.048c1.539,1.789 2.289,4.07 2.112,6.424l-0.603,8.043c-0.177,2.353 -1.26,4.496 -3.048,6.036c-1.618,1.391 -3.638,2.138 -5.749,2.138Z" style="fill:#371a45;fill-rule:nonzero;"/><path d="M183.182,89.579c0.637,-1.736 1.163,-3.533 1.569,-5.381c2.179,-0.244 4.135,-1.31 5.522,-2.901l-0.109,1.46c-0.148,1.967 -1.053,3.757 -2.547,5.043c-1.257,1.082 -2.809,1.702 -4.435,1.779Z" style="fill:#cdc6d0;fill-rule:nonzero;"/><path d="M182.251,89.565l0.001,0l-0.001,0Zm0.411,0.02c1.814,0.043 3.565,-0.589 4.955,-1.785c1.494,-1.286 2.399,-3.076 2.547,-5.043l0.603,-8.042c0.148,-1.966 -0.479,-3.871 -1.765,-5.366c-1.196,-1.39 -2.829,-2.27 -4.633,-2.505l-1.707,22.741Zm0.156,2.468c-0.249,0 -0.5,-0.01 -0.752,-0.029c-0.547,-0.041 -1.045,-0.293 -1.403,-0.709c-0.358,-0.415 -0.532,-0.946 -0.491,-1.492l1.77,-23.585c0.041,-0.547 0.293,-1.045 0.709,-1.403c0.416,-0.358 0.946,-0.533 1.493,-0.491c2.623,0.196 5.012,1.403 6.727,3.397c1.716,1.994 2.552,4.536 2.355,7.159l-0.604,8.042c-0.196,2.623 -1.403,5.012 -3.397,6.728c-1.802,1.55 -4.053,2.383 -6.407,2.383Z" style="fill:#371a45;fill-rule:nonzero;"/><path d="M106.205,59.73c0.452,0.034 0.791,0.428 0.757,0.88l-1.77,23.585c-0.034,0.452 -0.428,0.791 -0.88,0.757c-4.744,-0.356 -8.301,-4.49 -7.945,-9.234l0.603,-8.043c0.357,-4.744 4.49,-8.301 9.235,-7.945Z" style="fill:#fff;fill-rule:nonzero;"/><path d="M105.548,59.927c-2.007,0 -3.925,0.709 -5.461,2.031c-1.7,1.462 -2.728,3.498 -2.896,5.734l-0.603,8.042c-0.168,2.236 0.544,4.403 2.007,6.102c1.461,1.699 3.498,2.727 5.733,2.895c0.159,0.01 0.315,-0.039 0.436,-0.143c0.122,-0.104 0.195,-0.25 0.207,-0.41l1.77,-23.584c0.025,-0.33 -0.223,-0.618 -0.553,-0.643c-0.214,-0.016 -0.428,-0.024 -0.64,-0.024Zm-1.173,25.249c-0.026,0 -0.053,-0.001 -0.08,-0.003c-2.354,-0.177 -4.497,-1.259 -6.036,-3.048c-1.54,-1.789 -2.29,-4.07 -2.113,-6.424l0.603,-8.042c0.177,-2.354 1.26,-4.497 3.049,-6.037c1.789,-1.539 4.071,-2.288 6.424,-2.113c0.572,0.043 1.004,0.545 0.961,1.118l-1.77,23.585c-0.021,0.277 -0.148,0.53 -0.36,0.712c-0.19,0.164 -0.429,0.252 -0.678,0.252Z" style="fill:#371a45;fill-rule:nonzero;"/><path d="M103.473,83.594c-1.597,-0.325 -3.032,-1.163 -4.112,-2.418c-1.286,-1.494 -1.912,-3.4 -1.765,-5.366l0.108,-1.431c1.182,1.653 2.941,2.882 5.008,3.373c0.114,1.97 0.369,3.921 0.761,5.842Z" style="fill:#cdc6d0;fill-rule:nonzero;"/><path d="M105.549,60.938c-1.765,0 -3.452,0.624 -4.803,1.787c-1.494,1.286 -2.399,3.077 -2.547,5.042l-0.603,8.043c-0.147,1.966 0.479,3.872 1.765,5.366c1.196,1.391 2.829,2.27 4.633,2.505l1.707,-22.741c-0.051,-0.001 -0.102,-0.002 -0.152,-0.002Zm-1.172,25.25c-0.052,0 -0.106,-0.003 -0.158,-0.006c-2.622,-0.197 -5.012,-1.404 -6.727,-3.397c-1.715,-1.994 -2.551,-4.537 -2.355,-7.159l0.604,-8.043c0.406,-5.414 5.144,-9.489 10.556,-9.082c1.13,0.085 1.979,1.072 1.895,2.202l-1.771,23.584c-0.041,0.548 -0.293,1.046 -0.709,1.403c-0.375,0.324 -0.844,0.498 -1.335,0.498Z" style="fill:#371a45;fill-rule:nonzero;"/><path d="M184.061,81.123c-3.236,22.022 -23.712,37.25 -45.734,34.014c-22.022,-3.236 -37.251,-23.712 -34.015,-45.734c3.236,-22.022 23.712,-37.251 45.734,-34.015c22.022,3.236 37.251,23.712 34.015,45.735Z" style="fill:#fff;fill-rule:nonzero;"/><path d="M144.161,35.178c-19.545,0 -36.705,14.358 -39.629,34.257c-1.557,10.593 1.104,21.158 7.493,29.748c6.39,8.591 15.742,14.179 26.334,15.736c1.967,0.289 3.923,0.428 5.854,0.429c19.545,0.001 36.705,-14.357 39.629,-34.258c3.213,-21.866 -11.962,-42.269 -33.828,-45.483c-1.966,-0.289 -3.922,-0.429 -5.853,-0.429Zm0.111,80.617c-1.984,0 -3.979,-0.145 -5.977,-0.438c-10.709,-1.574 -20.165,-7.224 -26.625,-15.909c-6.46,-8.686 -9.151,-19.367 -7.577,-30.077c1.574,-10.709 7.224,-20.165 15.909,-26.625c8.686,-6.46 19.367,-9.15 30.077,-7.577c10.709,1.574 20.164,7.224 26.624,15.909c6.46,8.686 9.151,19.367 7.577,30.077c-1.573,10.709 -7.223,20.164 -15.909,26.624c-7.065,5.255 -15.452,8.016 -24.099,8.016Z" style="fill:#371a45;fill-rule:nonzero;"/><path d="M144.212,114.336c-1.882,0 -3.79,-0.136 -5.706,-0.418c-9.439,-1.387 -17.868,-6.059 -24.004,-13.248c5.851,4.488 14.811,9.142 24.76,10.359c2.192,0.269 4.37,0.391 6.509,0.391c7.556,0 14.604,-1.533 19.971,-3.591c-6.247,4.138 -13.693,6.507 -21.53,6.507Z" style="fill:#cdc6d0;fill-rule:nonzero;"/><path d="M144.162,36.19c-19.052,0 -35.78,13.995 -38.63,33.392c-1.518,10.326 1.077,20.623 7.305,28.997c6.228,8.374 15.344,13.821 25.669,15.339c1.916,0.282 3.824,0.418 5.706,0.418c19.052,0.001 35.779,-13.995 38.629,-33.393c3.133,-21.314 -11.66,-41.203 -32.974,-44.335c-1.917,-0.282 -3.823,-0.418 -5.705,-0.418Zm0.051,80.612c-2.002,0 -4.026,-0.145 -6.065,-0.445c-10.977,-1.613 -20.668,-7.403 -27.289,-16.306c-6.622,-8.902 -9.38,-19.85 -7.767,-30.827c3.33,-22.659 24.474,-38.383 47.133,-35.055c22.659,3.329 38.385,24.473 35.056,47.133c-3.03,20.62 -20.815,35.5 -41.068,35.5Z" style="fill:#371a45;fill-rule:nonzero;"/><path d="M183.783,82.128c-1.028,7.819 -4.522,14.744 -9.653,20.18c-3.847,4.075 -18.262,10.196 -34.801,8.171c-15.336,-1.877 -28.198,-11.877 -30.861,-16.809c-3.551,-6.577 -5.134,-14.171 -4.105,-21.99c2.722,-20.692 21.628,-26.931 43.561,-24.046c21.931,2.885 38.581,13.802 35.859,34.494Z" style="fill:#f58600;fill-rule:nonzero;"/><path d="M138.234,47.525c-7.394,0 -13.871,1.277 -19.053,3.789c-8.207,3.979 -13.008,10.856 -14.269,20.439c-0.98,7.451 0.418,14.939 4.044,21.654c2.581,4.781 15.311,14.67 30.44,16.522c16.756,2.051 30.843,-4.306 34.331,-8.001c5.239,-5.55 8.526,-12.422 9.507,-19.873l0.549,0.073l-0.549,-0.073c1.26,-9.582 -1.599,-17.466 -8.498,-23.433c-6.158,-5.325 -15.454,-8.935 -26.885,-10.439c-3.344,-0.44 -6.56,-0.658 -9.617,-0.658Zm7.537,63.895c-2.139,0 -4.317,-0.122 -6.509,-0.391c-15.503,-1.897 -28.605,-12.138 -31.282,-17.096c-3.737,-6.921 -5.178,-14.641 -4.167,-22.325c1.313,-9.976 6.321,-17.139 14.885,-21.291c7.521,-3.647 17.653,-4.764 29.298,-3.233c11.645,1.532 21.143,5.232 27.465,10.7c7.199,6.226 10.184,14.44 8.872,24.416c-1.011,7.683 -4.4,14.768 -9.8,20.489c-3.771,3.994 -15.482,8.731 -28.762,8.731Z" style="fill:#371a45;fill-rule:nonzero;"/><path d="M170.245,84.594c-0.396,0 -0.79,-0.059 -1.174,-0.183c-2.718,-0.87 -3.948,-4.618 -2.746,-8.369c1.032,-3.221 3.52,-5.397 5.924,-5.397c0.396,0 0.79,0.059 1.174,0.182c2.197,0.704 3.421,3.286 3.176,6.231c-0.529,1.69 -1.152,3.335 -1.863,4.932c-1.224,1.622 -2.876,2.604 -4.491,2.604Z" style="fill:#9b8da2;fill-rule:nonzero;"/><path d="M162.78,93.993c-0.367,0 -0.731,-0.077 -1.073,-0.242c-1.398,-0.673 -1.896,-2.539 -1.111,-4.169c0.592,-1.23 1.746,-1.973 2.878,-1.973c0.367,0 0.731,0.078 1.073,0.243c1.398,0.672 1.896,2.539 1.111,4.168c-0.592,1.23 -1.746,1.973 -2.878,1.973Z" style="fill:#9b8da2;fill-rule:nonzero;"/><path d="M145.957,110.327c-2.127,0 -4.32,-0.124 -6.561,-0.398c-5.231,-0.641 -10.175,-2.241 -14.512,-4.26c1.815,0.14 3.607,0.207 5.366,0.207c17.335,0 31.566,-6.406 35.786,-10.876c3.591,-3.804 6.55,-8.183 8.7,-13.01c0.598,-0.792 1.094,-1.737 1.432,-2.794c0.231,-0.72 0.372,-1.439 0.431,-2.138c0.77,-2.467 1.339,-5.028 1.687,-7.67c0.304,-2.306 0.416,-4.518 0.353,-6.635c4.039,5.32 5.583,11.788 4.595,19.302l0.549,0.073l-0.549,-0.073c-0.981,7.451 -4.268,14.323 -9.507,19.873c-3.022,3.201 -13.997,8.399 -27.77,8.399Z" style="fill:#a65b00;fill-rule:nonzero;"/><path d="M145.924,110.879c-2.145,0 -4.351,-0.124 -6.596,-0.399c-5.841,-0.713 -11.319,-2.606 -16.016,-4.951c0.526,0.053 1.05,0.099 1.572,0.14c4.337,2.019 9.281,3.619 14.512,4.26c2.241,0.274 4.434,0.398 6.561,0.398c13.773,0 24.748,-5.198 27.77,-8.399c5.239,-5.55 8.526,-12.422 9.507,-19.873l0.549,0.073c-1.03,7.82 -4.524,14.744 -9.652,20.18c-3.325,3.522 -14.545,8.571 -28.207,8.571Zm37.859,-28.751l-0.549,-0.073c0.988,-7.514 -0.556,-13.982 -4.595,-19.302c-0.01,-0.317 -0.023,-0.632 -0.04,-0.945c4.245,5.271 6.276,12.008 5.184,20.318l0,0.002Z" style="fill:#2a1a3b;fill-rule:nonzero;"/><path d="M174.736,81.99c0.711,-1.597 1.334,-3.242 1.863,-4.932c-0.059,0.699 -0.2,1.418 -0.431,2.138c-0.338,1.057 -0.834,2.002 -1.432,2.794Z" style="fill:#6b6577;fill-rule:nonzero;"/><path d="M109.639,54.387l0.037,0.042l-0.037,-0.042Zm72.304,9.9l-0.099,-0.106l-0.073,-0.133c-5.476,-10.3 -17.748,-17.408 -33.669,-19.503c-16.006,-2.104 -29.71,1.764 -37.594,10.616l-0.107,0.106c-0.462,0.401 -1.162,0.351 -1.563,-0.112c-0.38,-0.438 -0.355,-1.087 0.04,-1.496c8.384,-9.39 22.782,-13.512 39.514,-11.312c16.639,2.189 29.519,9.72 35.337,20.66l-0.974,0.526l-0.812,0.754Z" style="fill:#371a45;fill-rule:nonzero;"/><path d="M111.662,85.163c0,0 -3.724,-21.256 8.347,-27.943c6.666,-3.693 14.478,-4.702 20.051,-4.702c4.518,0 7.566,0.663 7.34,1.096c0,0 -18.08,1.937 -26.758,14.887c-6.692,9.987 -8.98,16.662 -8.98,16.662Z" style="fill:#9b8da2;fill-rule:nonzero;"/><path d="M142.341,184.288c0,0 -24.267,2.75 -35.053,-6.518c-14.737,-12.662 -2.1,-28.529 8.846,-24.302c9.531,3.68 13.451,6.574 30.379,9.348c14.185,2.325 26.369,16.888 16.191,25.341c-7.186,5.968 -20.363,-3.869 -20.363,-3.869Z" style="fill:#fff;fill-rule:nonzero;"/><path d="M156.932,188.854c-4.404,0 -9.367,-2.674 -11.992,-4.311c0.23,-0.162 0.354,-0.254 0.354,-0.254c0,0 3.364,0.381 8.145,0.381c3.25,0 7.152,-0.176 11.098,-0.767c-0.55,1.204 -1.427,2.314 -2.62,3.306c-1.428,1.185 -3.159,1.645 -4.985,1.645Zm-37.014,-6.785c-4.482,-0.974 -8.754,-2.594 -11.827,-5.234c-3.33,-2.861 -5.125,-5.83 -5.852,-8.621c0.31,0.294 0.634,0.587 0.974,0.878c4.831,4.151 12.366,5.891 19.213,6.548c-0.879,1.817 -1.333,3.685 -1.249,5.501c-0.393,0.336 -0.812,0.645 -1.259,0.928Z" style="fill:#cdc6d0;fill-rule:nonzero;"/><path d="M142.687,183.008l0.391,0.292c0.124,0.092 12.484,9.186 18.839,3.909c2.883,-2.395 3.913,-5.483 2.978,-8.926c-1.787,-6.576 -9.949,-12.835 -18.582,-14.25c-13.347,-2.188 -18.738,-4.467 -24.982,-7.106c-1.75,-0.741 -3.561,-1.506 -5.641,-2.309c-4.423,-1.709 -9.576,0.297 -12.251,4.768c-2.569,4.295 -2.697,11.135 4.652,17.449c10.26,8.815 33.874,6.255 34.111,6.228l0.485,-0.055Zm14.273,8.307c-6.372,0 -13.226,-4.53 -14.959,-5.752c-3.592,0.35 -25.17,2.032 -35.516,-6.858c-8.511,-7.312 -8.246,-15.428 -5.161,-20.585c3.293,-5.504 9.708,-7.944 15.255,-5.802c2.116,0.817 3.944,1.59 5.712,2.338c6.098,2.577 11.365,4.804 24.421,6.944c9.51,1.558 18.543,8.602 20.562,16.036c1.191,4.382 -0.153,8.455 -3.783,11.469c-1.928,1.602 -4.198,2.21 -6.531,2.21Z" style="fill:#371a45;fill-rule:nonzero;"/><path d="M119.674,184.201c-0.33,0 -0.649,-0.177 -0.815,-0.489c-0.241,-0.45 -0.07,-1.01 0.38,-1.25c10.038,-5.35 7.201,-24.097 7.171,-24.286c-0.08,-0.504 0.264,-0.977 0.768,-1.056c0.505,-0.081 0.977,0.263 1.057,0.767c0.13,0.824 3.06,20.243 -8.127,26.206c-0.139,0.073 -0.287,0.108 -0.434,0.108Z" style="fill:#371a45;fill-rule:nonzero;"/><path d="M145.292,184.288c0,0 24.267,2.75 35.053,-6.518c14.737,-12.662 2.101,-28.529 -8.846,-24.302c-9.531,3.68 -13.45,6.574 -30.379,9.348c-14.185,2.325 -26.369,16.888 -16.191,25.341c7.187,5.968 20.363,-3.869 20.363,-3.869Z" style="fill:#fff;fill-rule:nonzero;"/><path d="M130.678,190.079c-2.08,0 -4.077,-0.533 -5.749,-1.922c-1.014,-0.842 -1.806,-1.745 -2.396,-2.69c0.59,0.945 1.382,1.848 2.396,2.69c1.673,1.389 3.67,1.922 5.749,1.922c0.517,0 1.039,-0.033 1.563,-0.094l-0.001,0c-0.523,0.061 -1.045,0.094 -1.562,0.094Z" style="fill:#a79bad;fill-rule:nonzero;"/><path d="M132.24,189.985l0.001,0c3.907,-0.454 7.894,-2.467 10.416,-3.972l0.001,0.001c-2.522,1.504 -6.509,3.517 -10.418,3.971Z" style="fill:#371a45;fill-rule:nonzero;"/><path d="M122.533,185.467c-0.002,-0.004 -0.005,-0.008 -0.008,-0.013c0.003,0.005 0.006,0.009 0.008,0.013Zm-0.011,-0.018c-0.003,-0.003 -0.005,-0.008 -0.008,-0.012c0.003,0.005 0.005,0.009 0.008,0.012Zm-0.016,-0.026c-0.001,-0.001 -0.002,-0.003 -0.003,-0.004c0.001,0.001 0.002,0.003 0.003,0.004Zm-0.012,-0.019c0,-0.001 -0.001,-0.001 -0.001,-0.002c0,0.001 0.001,0.001 0.001,0.002Zm44.839,-1.994l0.001,0c4.888,-0.997 9.616,-2.723 13.011,-5.64c0.229,-0.197 0.452,-0.395 0.668,-0.593c-0.216,0.198 -0.439,0.396 -0.669,0.594c-3.394,2.916 -8.122,4.643 -13.011,5.639Zm13.69,-6.242c0.002,-0.003 0.004,-0.004 0.006,-0.005c-0.002,0.001 -0.004,0.002 -0.006,0.005Z" style="fill:#a79bad;fill-rule:nonzero;"/><path d="M153.439,184.67c-4.781,0 -8.145,-0.381 -8.145,-0.381c0,0 -0.124,0.092 -0.354,0.254c-0.001,0 -0.002,0 -0.002,-0.001c0.231,-0.161 0.354,-0.254 0.354,-0.254c0,0 3.367,0.382 8.147,0.382c3.25,0 7.152,-0.176 11.098,-0.768l0,0.001c-3.946,0.591 -7.848,0.767 -11.098,0.767Z" style="fill:#a79bad;fill-rule:nonzero;"/><path d="M142.658,186.014l-0.001,-0.001c1.055,-0.629 1.853,-1.17 2.281,-1.471c0,0.001 0.001,0.001 0.002,0.001c-0.43,0.3 -1.228,0.841 -2.282,1.471Zm21.879,-2.111l0,-0.001c0.933,-0.14 1.867,-0.303 2.797,-0.492l-0.001,0c-0.929,0.19 -1.864,0.352 -2.796,0.493Z" style="fill:#371a45;fill-rule:nonzero;"/><path d="M130.678,190.079c-2.079,0 -4.076,-0.533 -5.749,-1.922c-1.014,-0.842 -1.806,-1.745 -2.396,-2.69c-0.002,-0.004 -0.005,-0.008 -0.008,-0.013c-0.001,-0.001 -0.002,-0.002 -0.003,-0.005c-0.003,-0.003 -0.005,-0.007 -0.008,-0.012c-0.003,-0.004 -0.006,-0.008 -0.008,-0.014c-0.001,-0.001 -0.002,-0.003 -0.003,-0.004c-0.003,-0.005 -0.006,-0.01 -0.009,-0.015c0,-0.001 -0.001,-0.001 -0.001,-0.002c-1.407,-2.294 -1.633,-4.834 -0.962,-7.362c0.519,1.757 1.029,4.458 2.86,5.879c2.29,1.777 4.68,2.503 6.969,2.503c3.29,0 6.37,-1.497 8.652,-3.52c2.936,-2.605 2.457,-4.737 4.342,-5.797c0.25,-0.141 0.513,-0.204 0.793,-0.204c2.083,0 5.103,3.451 10.922,3.754c0.962,0.049 1.901,0.074 2.814,0.074c10.892,0 18.387,-3.424 22.074,-7.19c3.476,-3.551 5.133,-7.663 5.807,-10.932c0.934,4.401 -0.44,9.684 -5.735,14.556c-0.002,0.001 -0.004,0.002 -0.006,0.005c-0.003,0.003 -0.006,0.006 -0.01,0.009c-0.216,0.198 -0.439,0.396 -0.668,0.593c-3.395,2.917 -8.123,4.643 -13.011,5.64c-0.93,0.189 -1.864,0.352 -2.797,0.492c-3.946,0.592 -7.848,0.768 -11.098,0.768c-4.78,0 -8.147,-0.382 -8.147,-0.382c0,0 -0.123,0.093 -0.354,0.254c-0.428,0.301 -1.226,0.842 -2.281,1.471c-2.522,1.505 -6.509,3.518 -10.416,3.972c-0.524,0.061 -1.046,0.094 -1.563,0.094Z" style="fill:#cdc6d0;fill-rule:nonzero;"/><path d="M175.204,154.012c-1.099,0 -2.201,0.197 -3.261,0.606c-2.08,0.803 -3.891,1.568 -5.641,2.309c-6.244,2.639 -11.635,4.919 -24.982,7.106c-8.633,1.415 -16.795,7.674 -18.581,14.25c-0.936,3.444 0.094,6.531 2.978,8.926c6.354,5.276 18.714,-3.817 18.838,-3.909l0.391,-0.292l0.485,0.055c0.237,0.027 23.861,2.579 34.111,-6.228c7.349,-6.314 7.221,-13.154 4.652,-17.449c-2.034,-3.399 -5.5,-5.374 -8.99,-5.374Zm-44.53,37.303c-2.335,0 -4.603,-0.608 -6.532,-2.21c-3.63,-3.014 -4.973,-7.087 -3.783,-11.469c2.02,-7.434 11.052,-14.478 20.562,-16.036c13.056,-2.14 18.323,-4.367 24.421,-6.944c1.768,-0.748 3.596,-1.521 5.713,-2.338c5.546,-2.142 11.961,0.298 15.254,5.802c3.085,5.157 3.35,13.273 -5.161,20.585c-10.347,8.89 -31.924,7.208 -35.516,6.858c-1.733,1.222 -8.588,5.752 -14.958,5.752Z" style="fill:#371a45;fill-rule:nonzero;"/><path d="M167.959,184.201c-0.147,0 -0.295,-0.035 -0.434,-0.108c-11.187,-5.963 -8.257,-25.382 -8.127,-26.206c0.08,-0.504 0.553,-0.846 1.057,-0.767c0.503,0.079 0.848,0.552 0.769,1.056c-0.03,0.189 -2.857,18.942 7.17,24.286c0.451,0.24 0.621,0.8 0.38,1.25c-0.166,0.312 -0.485,0.489 -0.815,0.489Z" style="fill:#371a45;fill-rule:nonzero;"/><path d="M59.464,252.08c0.035,0.365 -0.683,0.756 -1.785,1.038c-0.557,0.142 -0.959,0.63 -0.994,1.202c-0.069,1.136 -0.316,1.915 -0.681,1.95c-0.365,0.035 -0.756,-0.684 -1.038,-1.786c-0.142,-0.556 -0.629,-0.959 -1.203,-0.993c-1.136,-0.069 -1.917,-0.316 -1.952,-0.681c-0.035,-0.368 0.685,-0.758 1.787,-1.039c0.557,-0.142 0.96,-0.63 0.995,-1.203c0.069,-1.137 0.316,-1.916 0.681,-1.951c0.366,-0.035 0.755,0.683 1.038,1.787c0.142,0.557 0.63,0.96 1.204,0.994c1.135,0.068 1.913,0.315 1.948,0.682Z" style="fill:#f58600;fill-rule:nonzero;"/><path d="M76.162,33.199c0.035,0.365 -0.684,0.755 -1.785,1.037c-0.557,0.143 -0.96,0.63 -0.994,1.203c-0.069,1.135 -0.317,1.915 -0.682,1.949c-0.365,0.035 -0.755,-0.683 -1.037,-1.785c-0.142,-0.557 -0.63,-0.959 -1.203,-0.994c-1.136,-0.068 -1.917,-0.316 -1.952,-0.681c-0.035,-0.367 0.684,-0.758 1.787,-1.039c0.557,-0.142 0.96,-0.629 0.995,-1.203c0.068,-1.137 0.316,-1.916 0.681,-1.951c0.366,-0.034 0.755,0.684 1.037,1.787c0.143,0.557 0.631,0.96 1.205,0.994c1.134,0.068 1.913,0.316 1.948,0.683Z" style="fill:#f58600;fill-rule:nonzero;"/><path d="M41.626,143.947c0.015,0.254 -0.493,0.505 -1.264,0.671c-0.39,0.083 -0.681,0.411 -0.721,0.807c-0.078,0.784 -0.27,1.317 -0.524,1.331c-0.254,0.015 -0.505,-0.493 -0.671,-1.264c-0.084,-0.39 -0.41,-0.681 -0.806,-0.721c-0.786,-0.077 -1.32,-0.269 -1.334,-0.524c-0.015,-0.255 0.494,-0.506 1.265,-0.671c0.39,-0.084 0.682,-0.411 0.722,-0.807c0.078,-0.786 0.27,-1.319 0.524,-1.333c0.254,-0.015 0.505,0.493 0.671,1.265c0.083,0.39 0.411,0.682 0.807,0.721c0.784,0.077 1.317,0.27 1.331,0.525Z" style="fill:#f58600;fill-rule:nonzero;"/><path d="M214.611,35.038c0,0.415 -0.85,0.776 -2.118,0.975c-0.641,0.1 -1.145,0.605 -1.246,1.245c-0.199,1.269 -0.56,2.118 -0.975,2.118c-0.413,0 -0.775,-0.849 -0.973,-2.118c-0.101,-0.64 -0.606,-1.145 -1.246,-1.245c-1.27,-0.199 -2.121,-0.56 -2.121,-0.975c0,-0.416 0.85,-0.778 2.119,-0.976c0.642,-0.1 1.147,-0.604 1.248,-1.246c0.198,-1.27 0.56,-2.119 0.973,-2.119c0.415,0 0.776,0.849 0.975,2.119c0.101,0.642 0.606,1.146 1.248,1.246c1.267,0.198 2.116,0.56 2.116,0.976Z" style="fill:#f58600;fill-rule:nonzero;"/><path d="M222.975,150.829c0,0.749 -0.606,1.355 -1.355,1.355c-0.748,0 -1.354,-0.606 -1.354,-1.355c0,-0.747 0.606,-1.354 1.354,-1.354c0.749,0 1.355,0.607 1.355,1.354Z" style="fill:#f58600;fill-rule:nonzero;"/><path d="M238.538,172.55c0.042,0.746 -0.528,1.383 -1.273,1.425c-0.745,0.042 -1.383,-0.527 -1.425,-1.272c-0.042,-0.746 0.528,-1.383 1.272,-1.426c0.746,-0.042 1.384,0.528 1.426,1.273Z" style="fill:#f58600;fill-rule:nonzero;"/><path d="M205.443,249.617c0.16,0.872 -0.418,1.709 -1.291,1.869c-0.872,0.159 -1.709,-0.419 -1.868,-1.291c-0.16,-0.873 0.418,-1.71 1.291,-1.869c0.872,-0.16 1.709,0.418 1.868,1.291Z" style="fill:#f58600;fill-rule:nonzero;"/><path d="M29.208,100.733c0.013,0.887 -0.696,1.617 -1.583,1.629c-0.887,0.013 -1.616,-0.696 -1.629,-1.584c-0.012,-0.886 0.696,-1.616 1.583,-1.628c0.887,-0.013 1.617,0.696 1.629,1.583Z" style="fill:#f58600;fill-rule:nonzero;"/><path d="M239.208,86.235c0,0.748 -0.606,1.354 -1.354,1.354c-0.748,0 -1.355,-0.606 -1.355,-1.354c0,-0.749 0.607,-1.355 1.355,-1.355c0.748,0 1.354,0.606 1.354,1.355Z" style="fill:#f58600;fill-rule:nonzero;"/><path d="M39.227,51.168c0.013,0.887 -0.696,1.616 -1.583,1.629c-0.887,0.012 -1.616,-0.697 -1.629,-1.583c-0.012,-0.887 0.697,-1.617 1.584,-1.629c0.887,-0.013 1.616,0.696 1.628,1.583Z" style="fill:#f58600;fill-rule:nonzero;"/><path d="M25.122,234.289c0.079,0.837 -0.534,1.579 -1.371,1.659c-0.836,0.08 -1.579,-0.533 -1.658,-1.37c-0.08,-0.837 0.533,-1.579 1.37,-1.659c0.836,-0.08 1.579,0.534 1.659,1.37Z" style="fill:#f58600;fill-rule:nonzero;"/><path d="M241.529,49.334c0,0.385 -0.312,0.697 -0.697,0.697c-0.385,0 -0.696,-0.312 -0.696,-0.697c0,-0.384 0.311,-0.696 0.696,-0.696c0.385,0 0.697,0.312 0.697,0.696Z" style="fill:#f58600;fill-rule:nonzero;"/><path d="M230.623,231.771c0.082,0.448 -0.215,0.878 -0.664,0.961c-0.449,0.081 -0.879,-0.216 -0.961,-0.664c-0.082,-0.449 0.215,-0.88 0.664,-0.962c0.449,-0.082 0.879,0.216 0.961,0.665Z" style="fill:#f58600;fill-rule:nonzero;"/><path d="M60.403,73.119c0.007,0.456 -0.357,0.831 -0.814,0.837c-0.456,0.007 -0.831,-0.357 -0.837,-0.814c-0.007,-0.456 0.357,-0.831 0.814,-0.837c0.456,-0.007 0.832,0.357 0.837,0.814Z" style="fill:#f58600;fill-rule:nonzero;"/><path d="M75.005,148.301c0.007,0.456 -0.357,0.83 -0.814,0.837c-0.456,0.007 -0.831,-0.358 -0.837,-0.814c-0.007,-0.456 0.357,-0.832 0.814,-0.838c0.456,-0.006 0.831,0.358 0.837,0.815Z" style="fill:#f58600;fill-rule:nonzero;"/><path d="M25.832,171.341c0,0.841 -0.681,1.521 -1.522,1.521c-0.84,0 -1.521,-0.68 -1.521,-1.521c0,-0.84 0.681,-1.521 1.521,-1.521c0.841,0 1.522,0.681 1.522,1.521Z" style="fill:#f58600;fill-rule:nonzero;"/></g></svg>