<?xml version="1.0" encoding="UTF-8" standalone="no"?><!DOCTYPE svg PUBLIC "-//W3C//DTD SVG 1.1//EN" "http://www.w3.org/Graphics/SVG/1.1/DTD/svg11.dtd"><svg width="100%" height="100%" viewBox="0 0 252 252" version="1.1" xmlns="http://www.w3.org/2000/svg" xmlns:xlink="http://www.w3.org/1999/xlink" xml:space="preserve" xmlns:serif="http://www.serif.com/" style="fill-rule:evenodd;clip-rule:evenodd;stroke-linecap:round;stroke-linejoin:round;stroke-miterlimit:2;"><rect id="Tavola-da-disegno3" serif:id="Tavola da disegno3" x="0" y="0" width="251.535" height="251.535" style="fill:none;"/><path d="M170.753,195.816c13.535,-5.879 27.027,-14.503 33.557,-28.16c0.273,-0.566 0.361,-1.209 0.229,-1.822c0,-0.016 0,-0.032 -0.009,-0.048c-0.334,-1.584 -1.945,-2.569 -3.52,-2.206c-7.438,1.711 -13.941,5.988 -19.644,11.123" style="fill:none;stroke:#222221;stroke-width:2px;"/><path d="M182.351,173.841c2.043,-5.012 10.853,-12.974 6.838,-19.741c-1.961,-3.301 -5.42,-0.358 -7.339,1.329c-5.835,5.959 -8.413,14.095 -17.214,17.148" style="fill:none;stroke:#222221;stroke-width:2px;"/><path d="M163.008,172.235c2.983,-3.971 7.393,-8.337 8.211,-13.418c1.329,-8.247 -11.269,1.493 -13.305,3.109c-4.252,3.377 -8.399,7.795 -13.539,9.814" style="fill:none;stroke:#222221;stroke-width:2px;"/><path d="M151.676,191.786c7.625,2.948 16.648,3.546 25.616,5.043c5.421,0.36 18.534,-6.029 19.493,-6.865c10.35,-5.668 18.949,-12.348 29.967,-14.337c0.502,0.027 1.083,0 1.673,-0.026c2.349,-0.088 3.819,2.57 2.464,4.497c-0.476,0.687 -1.092,1.364 -1.848,2.024c-15.147,13.263 -31.754,22.055 -49.188,29.845c-0.572,0.254 -1.188,0.395 -1.822,0.404c-33.25,0.387 -66.16,-4.427 -99.42,-3.933c-17.21,-0.239 -33.093,6.872 -48.601,15.84l-6.113,-45.157c10.239,-0.792 20.536,-0.308 30.496,-3.045c0.448,-0.123 0.883,-0.299 1.298,-0.501c20.806,-10.316 38.706,-16.694 56.593,-13.176c8.786,1.727 16.441,6.907 25.262,8.527c8.72,1.601 17.734,0.69 26.527,1.592c5.324,0.546 10.631,1.244 15.894,2.212c1.954,0.36 13.271,1.557 13.985,3.256c0.528,1.25 0.246,2.702 -0.731,3.635c-3.16,3.001 -7.859,4.233 -12.559,5.456c-17.39,2.482 -33.939,5.914 -51.15,5.686c-5.475,0.545 -10.951,1.091 -15.498,3.115" style="fill:none;stroke:#222221;stroke-width:2px;"/><path d="M139.6,136.06l8.074,20.188" style="fill:none;stroke:#f58600;stroke-width:2px;stroke-linejoin:miter;"/><path d="M116.379,134.928l-7.82,21.39" style="fill:none;stroke:#f58600;stroke-width:2px;stroke-linejoin:miter;"/><path d="M126.96,68.886l-0.696,-22.449" style="fill:none;stroke:#f58600;stroke-width:2px;stroke-linejoin:miter;"/><path d="M149.169,76.592l14.208,-17.802" style="fill:none;stroke:#f58600;stroke-width:2px;stroke-linejoin:miter;"/><path d="M162.339,96.396l21.307,-4.155" style="fill:none;stroke:#f58600;stroke-width:2px;stroke-linejoin:miter;"/><path d="M158.873,120.428l18.559,10.429" style="fill:none;stroke:#f58600;stroke-width:2px;stroke-linejoin:miter;"/><path d="M100.044,118.945l-21.331,12.09" style="fill:none;stroke:#f58600;stroke-width:2px;stroke-linejoin:miter;"/><path d="M96.56,97.07l-24.208,-4.629" style="fill:none;stroke:#f58600;stroke-width:2px;stroke-linejoin:miter;"/><path d="M107.931,78.103l-15.427,-19.185" style="fill:none;stroke:#f58600;stroke-width:2px;stroke-linejoin:miter;"/><path d="M135.304,76.482l0.322,-1.114" style="fill:none;stroke:#f58600;stroke-width:2px;stroke-linejoin:miter;"/><path d="M136.245,73.231l3.403,-11.753" style="fill:none;stroke:#f58600;stroke-width:2px;stroke-linejoin:miter;stroke-dasharray:2.53,2.53;"/><path d="M139.957,60.409l0.323,-1.114" style="fill:none;stroke:#f58600;stroke-width:2px;stroke-linejoin:miter;"/><path d="M150.248,87.766l0.966,-0.64" style="fill:none;stroke:#f58600;stroke-width:2px;stroke-linejoin:miter;"/><path d="M153.1,85.879l10.374,-6.86" style="fill:none;stroke:#f58600;stroke-width:2px;stroke-linejoin:miter;stroke-dasharray:2.57,2.57;"/><path d="M164.416,78.396l0.968,-0.639" style="fill:none;stroke:#f58600;stroke-width:2px;stroke-linejoin:miter;"/><path d="M155.374,106.005l1.151,0.14" style="fill:none;stroke:#f58600;stroke-width:2px;stroke-linejoin:miter;"/><path d="M158.65,106.401l11.68,1.411" style="fill:none;stroke:#f58600;stroke-width:2px;stroke-linejoin:miter;stroke-dasharray:2.43,2.43;"/><path d="M171.395,107.942l1.153,0.138" style="fill:none;stroke:#f58600;stroke-width:2px;stroke-linejoin:miter;"/><path d="M146.857,123.371l0.786,0.852" style="fill:none;stroke:#f58600;stroke-width:2px;stroke-linejoin:miter;"/><path d="M149.062,125.758l7.805,8.446" style="fill:none;stroke:#f58600;stroke-width:2px;stroke-linejoin:miter;stroke-dasharray:2.38,2.38;"/><path d="M157.578,134.973l0.786,0.851" style="fill:none;stroke:#f58600;stroke-width:2px;stroke-linejoin:miter;"/><path d="M128.418,130.494l0.078,1.156" style="fill:none;stroke:#f58600;stroke-width:2px;stroke-linejoin:miter;"/><path d="M128.641,133.789l0.796,11.761" style="fill:none;stroke:#f58600;stroke-width:2px;stroke-linejoin:miter;stroke-dasharray:2.44,2.44;"/><path d="M129.509,146.619l0.079,1.155" style="fill:none;stroke:#f58600;stroke-width:2px;stroke-linejoin:miter;"/><path d="M111.094,123.944l-0.712,0.912" style="fill:none;stroke:#f58600;stroke-width:2px;stroke-linejoin:miter;"/><path d="M108.99,126.638l-7.657,9.798" style="fill:none;stroke:#f58600;stroke-width:2px;stroke-linejoin:miter;stroke-dasharray:2.57,2.57;"/><path d="M100.638,137.326l-0.715,0.914" style="fill:none;stroke:#f58600;stroke-width:2px;stroke-linejoin:miter;"/><path d="M102.631,107.826l-1.135,0.232" style="fill:none;stroke:#f58600;stroke-width:2px;stroke-linejoin:miter;"/><path d="M99.088,108.554l-13.249,2.725" style="fill:none;stroke:#f58600;stroke-width:2px;stroke-linejoin:miter;stroke-dasharray:2.79,2.79;"/><path d="M84.636,111.527l-1.136,0.233" style="fill:none;stroke:#f58600;stroke-width:2px;stroke-linejoin:miter;"/><path d="M105.353,90.391l-1.016,-0.557" style="fill:none;stroke:#f58600;stroke-width:2px;stroke-linejoin:miter;"/><path d="M102.168,88.644l-11.928,-6.543" style="fill:none;stroke:#f58600;stroke-width:2px;stroke-linejoin:miter;stroke-dasharray:2.81,2.81;"/><path d="M89.157,81.507l-1.018,-0.558" style="fill:none;stroke:#f58600;stroke-width:2px;stroke-linejoin:miter;"/><path d="M118.622,78.802l-0.414,-1.082" style="fill:none;stroke:#f58600;stroke-width:2px;stroke-linejoin:miter;"/><path d="M117.328,75.412l-4.842,-12.695" style="fill:none;stroke:#f58600;stroke-width:2px;stroke-linejoin:miter;stroke-dasharray:2.81,2.81;"/><path d="M112.046,61.562l-0.413,-1.082" style="fill:none;stroke:#f58600;stroke-width:2px;stroke-linejoin:miter;"/><path d="M150.063,102.647c-22.062,-19.355 -41.427,-2.556 -44.207,-0.251c-0.161,0.134 -0.171,0.377 -0.021,0.526c0.14,0.139 0.278,0.276 0.278,0.276c18.998,18.884 40.092,3.557 43.898,0.502c0.33,-0.264 0.352,-0.755 0.052,-1.053Z" style="fill:none;stroke:#f58600;stroke-width:2px;stroke-linecap:butt;stroke-linejoin:miter;"/><path d="M136.231,102.908c0,5.232 -3.685,9.474 -8.23,9.474c-4.546,0 -8.23,-4.242 -8.23,-9.474c0,-5.231 3.684,-9.473 8.23,-9.473c4.545,0 8.23,4.242 8.23,9.473Z" style="fill:#222221;fill-rule:nonzero;stroke:#f58600;stroke-width:1px;stroke-linecap:butt;"/><path d="M205.824,120.934c0,0 -1.47,11.384 -6.988,11.384c0,0 6.988,4.311 6.988,11.728c0,-7.417 6.381,-11.728 6.381,-11.728c-5.519,0 -6.381,-11.384 -6.381,-11.384Z" style="fill:none;stroke:#f58600;stroke-width:2px;"/><path d="M177.732,24.835c0,0 -1.47,11.383 -6.988,11.383c0,0 6.988,4.311 6.988,11.728c0,-7.417 6.379,-11.728 6.379,-11.728c-5.517,0 -6.379,-11.383 -6.379,-11.383Z" style="fill:none;stroke:#f58600;stroke-width:2px;"/><path d="M58.109,131.331c0,0 -1.469,11.382 -6.988,11.382c0,0 6.988,4.312 6.988,11.729c0,-7.417 6.381,-11.729 6.381,-11.729c-5.518,0 -6.381,-11.382 -6.381,-11.382Z" style="fill:none;stroke:#f58600;stroke-width:2px;"/><path d="M38.561,69.641c0,0 -1.468,11.383 -6.987,11.383c0,0 6.987,4.312 6.987,11.728c0,-7.416 6.382,-11.728 6.382,-11.728c-5.519,0 -6.382,-11.383 -6.382,-11.383Z" style="fill:none;stroke:#f58600;stroke-width:2px;"/></svg>