<svg xmlns="http://www.w3.org/2000/svg" width="72.519" height="66" viewBox="0 0 72.519 66">
  <g id="Raggruppa_62" data-name="Raggruppa 62" transform="translate(1.001 1)">
    <path id="Tracciato_761" data-name="Tracciato 761" d="M21.086,6.092C18.312,2.068,9.665-.388,8.668.864c-.71.895,1.515,4.779,3.034,7.419a14.469,14.469,0,0,0-5.041,6.088,12.477,12.477,0,0,1-5.46.939C-.92,15.3.037,21.17,1.983,24.882,3.76,28.27,15.245,35.246,16.769,35.513v10.2H21.34l3.048-6.1a42.381,42.381,0,0,0,10.667,1.524,36.361,36.361,0,0,0,10.633-1.4l3.081,5.971H53.34l2.01-11.666c3.771-3.606,5.609-8.527,5.609-14.241C60.959,8.37,47.8,0,33.642,0A33.812,33.812,0,0,0,18.555,3.7" transform="translate(0 18.286)" fill="none" stroke="#f58600" stroke-linejoin="round" stroke-miterlimit="10" stroke-width="2"/>
    <path id="Tracciato_762" data-name="Tracciato 762" d="M18.29,13.71C18.29,7.289,9.528,0,0,0" transform="translate(36.578 24.381)" fill="none" stroke="#f58600" stroke-linecap="round" stroke-linejoin="round" stroke-miterlimit="10" stroke-width="2"/>
    <path id="Linea_15" data-name="Linea 15" d="M0,0H3.046" transform="translate(13.721 33.524)" fill="none" stroke="#f58600" stroke-linejoin="round" stroke-miterlimit="10" stroke-width="2"/>
    <path id="Tracciato_763" data-name="Tracciato 763" d="M2.327,15.236a9.146,9.146,0,1,1,13.633,0" transform="translate(24.388)" fill="none" stroke="#232d36" stroke-linejoin="round" stroke-miterlimit="10" stroke-width="2"/>
    <path id="Tracciato_764" data-name="Tracciato 764" d="M0,2.129,2.778.273a1.646,1.646,0,0,1,2.475.852h0a1.646,1.646,0,0,0,2.727.644L9.145.6" transform="translate(60.959 35.965)" fill="none" stroke="#f58600" stroke-linecap="round" stroke-linejoin="round" stroke-miterlimit="10" stroke-width="2"/>
  </g>
</svg>
