<?xml version="1.0" encoding="UTF-8" standalone="no"?><!DOCTYPE svg PUBLIC "-//W3C//DTD SVG 1.1//EN" "http://www.w3.org/Graphics/SVG/1.1/DTD/svg11.dtd"><svg width="100%" height="100%" viewBox="0 0 4000 4000" version="1.1" xmlns="http://www.w3.org/2000/svg" xmlns:xlink="http://www.w3.org/1999/xlink" xml:space="preserve" xmlns:serif="http://www.serif.com/" style="fill-rule:evenodd;clip-rule:evenodd;stroke-linejoin:round;stroke-miterlimit:2;"><g><g><path d="M3277.73,3436.25l-2555.43,0c0,-76.2 6.662,-152.68 20.532,-228.61c24.321,-134.01 70.726,-266.29 140.448,-391.95c109.055,-196.12 262.004,-352.31 439.864,-463.1c28.57,-17.93 57.86,-34.54 87.7,-50.01c160.62,-83.32 337.39,-131.87 518.22,-141.95c1.59,-0.09 3.19,-0.27 4.79,-0.32c11.04,-0.59 22.08,-1.05 33.26,-1.28c22.09,-0.64 44.17,-0.64 66.21,-0.09c150.03,3.74 300.97,34.13 445.85,93.04c47.82,19.35 95.09,41.84 141.31,67.62c9.99,5.52 19.85,11.09 29.57,16.98c5.93,3.42 11.77,7.02 17.47,10.58c390.55,238.83 609.8,657.71 610.21,1089.09Z" style="fill:#f58600;fill-rule:nonzero;"/><path d="M847.83,3246.4c24.319,-134.02 70.725,-266.3 140.446,-391.96c109.054,-196.11 262.004,-352.31 439.874,-463.09c28.56,-17.94 57.85,-34.55 87.69,-50.01c160.62,-83.32 337.39,-131.87 518.22,-141.96c1.59,-0.09 3.19,-0.27 4.79,-0.32c11.039,-0.59 22.079,-1.04 33.26,-1.27c22.09,-0.64 44.17,-0.64 66.21,-0.09c114.7,2.86 229.93,21.35 342.59,56.2c-5.58,-2.35 -11.15,-4.66 -16.74,-6.92c-144.88,-58.91 -295.82,-89.3 -445.85,-93.04c-22.04,-0.55 -44.12,-0.55 -66.21,0.09c-11.18,0.23 -22.22,0.69 -33.26,1.28c-1.6,0.05 -3.2,0.23 -4.79,0.32c-180.83,10.08 -357.6,58.63 -518.21,141.95c-29.85,15.47 -59.14,32.08 -87.71,50.01c-177.86,110.79 -330.808,266.98 -439.863,463.1c-69.722,125.66 -116.129,257.94 -140.448,391.95c-13.872,75.93 -20.534,152.41 -20.534,228.61l120.815,0c2.078,-61.69 8.502,-123.45 19.72,-184.85Z" style="fill:#fcac38;fill-rule:nonzero;"/><path d="M2318.07,2821.78c134.82,6.7 230.05,-39.27 212.72,-102.66c-17.34,-63.39 -140.69,-120.21 -275.5,-126.9c-134.82,-6.7 -230.05,39.26 -212.71,102.65c17.329,63.39 140.68,120.21 275.49,126.91Z" style="fill:#f0b66f;fill-rule:nonzero;"/><path d="M3131.77,3436.23l-300.84,0c48.23,-84.84 116.04,-142.06 179.15,-142.22c62.48,-0.16 108.32,57.54 121.69,142.22Z" style="fill:#fcac38;fill-rule:nonzero;"/><path d="M1416.47,2564.37c-70.05,2.87 -125.27,53.67 -123.34,113.46c1.94,59.79 60.3,105.92 130.36,103.05c70.05,-2.87 125.27,-53.67 123.33,-113.46c-1.93,-59.79 -60.29,-105.93 -130.35,-103.05Z" style="fill:#fcac38;fill-rule:nonzero;"/><path d="M1415.07,2639.39c-48.23,21.1 -72.51,69.38 -54.24,107.84c18.26,38.45 72.16,52.51 120.39,31.41c48.22,-21.11 72.51,-69.39 54.24,-107.84c-18.27,-38.45 -72.17,-52.52 -120.39,-31.41Z" style="fill:#f58600;fill-rule:nonzero;"/><path d="M1423.88,2791.69c-56.45,7.75 -120.76,-21.59 -143.17,-76.63c-25.2,-59.37 9.4,-125.81 64.45,-152.85c77.38,-41.59 195.89,-9.33 214.5,83.83c4.08,21.59 1.2,43.96 -8.31,63.55c-3,6.45 -7.16,12.2 -10.99,18c-1.44,2.19 -4.39,2.79 -6.59,1.34c-2.16,-1.42 -2.74,-4.28 -1.45,-6.45c11.86,-22.77 15.21,-48.84 7.95,-71.94c-21.8,-72.71 -118.84,-94.29 -180.39,-60.18c-71.54,37.7 -78.51,124.55 -8.01,168.11c20.82,13.09 45.8,20.04 71.52,21.42c7.18,0.32 7.55,10.91 0.49,11.8Z" style="fill:#371a45;fill-rule:nonzero;"/><path d="M1584.07,2595.79c36.92,42.73 42.3,108.72 15.54,158.65c-25.76,51.08 -77.37,85.57 -132.1,98.13c-54.56,12.47 -114.14,5.1 -162.07,-24.47c-47.64,-27.91 -82.76,-81.37 -79.76,-137.29c0.37,-5.8 8.83,-6.04 9.51,-0.3c3.32,25.18 12.94,48.65 27.58,68.25c67.98,89.19 214.87,89.92 290.74,10.76c24.63,-25.94 40.26,-60.59 40.18,-96.63c0.2,-24.15 -6.86,-48.39 -19.31,-70.34c-3.54,-6.14 5.11,-12.2 9.69,-6.76Z" style="fill:#371a45;fill-rule:nonzero;"/><path d="M1075.97,2964.74c166.66,15.59 251.32,194.76 208.34,345.99c-12.86,48.78 -36.68,94.22 -69.47,131.08c-2.04,2.29 -5.55,2.5 -7.84,0.46c-1.99,-1.77 -2.39,-4.68 -1.12,-6.91c23.63,-41.5 40.5,-85.79 48.66,-131.27c26.3,-139.38 -38.81,-283.86 -181.1,-325.88c-7.7,-2.22 -5.64,-14.16 2.53,-13.47Z" style="fill:#371a45;fill-rule:nonzero;"/><path d="M1173.69,3302.13c-11.7,57.62 -44.01,104.97 -86.27,134.1l-196.82,0c-59.611,-43.29 -91.366,-124.71 -74.414,-208.6c22.284,-110.3 120.416,-183.05 219.184,-162.51c98.69,20.61 160.61,126.7 138.32,237.01Z" style="fill:#fcac38;fill-rule:nonzero;"/><path d="M1152.22,3341.47c-19.3,42.26 -49.01,74.75 -82.96,94.78l-107.045,0c-53.341,-59.87 -66.345,-159.34 -26.237,-247.36c25.918,-56.67 68.672,-97.46 116.352,-116.9c12.05,2.55 23.91,6.84 35.28,12.91c80.8,42.8 109.73,157.65 64.61,256.57Z" style="fill:#f58600;fill-rule:nonzero;"/><path d="M860.325,3439.37c-19.507,-9.8 -34.477,-28.36 -41.182,-49.02c-1.764,-5.55 5.528,-9.79 9.483,-5.62c7.256,7.35 13.567,14.81 20.261,21.94c5.945,6.54 14.321,15.05 19.858,21.92c4.688,5.63 -1.937,13.95 -8.42,10.78Z" style="fill:#371a45;fill-rule:nonzero;"/><path d="M817.71,3191.18c41.95,-106.46 173.168,-171.9 277.37,-110.04c88.8,52.71 107.98,170.56 63.67,259.07c-6.68,14.3 -15.02,27.71 -24.5,40.18c-19.1,24.78 -43.07,45.71 -70.37,59.83c-5.93,2.98 -11.21,-5.25 -5.91,-9.33c66.97,-50.84 105.34,-140.84 85.24,-223.32c-6.91,-28.94 -21.68,-56.61 -43.67,-76.91c-55.79,-53.95 -144.141,-46.5 -204.288,-2.99c-26.141,18.35 -47.649,42.15 -65.303,69.69c-4.266,7.07 -15.419,1.56 -12.239,-6.18Z" style="fill:#371a45;fill-rule:nonzero;"/><path d="M1768.82,3443.08c-30.28,-28.6 -47.89,-67.8 -58.71,-107.25c-3.45,-13.06 -6.07,-26.31 -7.31,-39.76c-0.26,-2.71 1.74,-5.11 4.44,-5.36c2.08,-0.19 3.99,0.96 4.87,2.73l17.34,35.1c16.92,33.83 36.07,66.44 59.18,96.18c10.01,13.16 -7.53,29.31 -19.81,18.36Z" style="fill:#371a45;fill-rule:nonzero;"/><path d="M2502.45,3212.3c17.08,77.81 4.4,165.07 -44.67,229.25c-10.54,13.96 -31.72,-0.28 -22.7,-15.31c9.92,-15.99 19.18,-32.04 26.87,-48.59c15.49,-33.54 22.9,-70.69 27.49,-107.38c2.14,-18.75 3.32,-37.74 3.55,-56.97c0,-5.54 8.31,-6.46 9.46,-1Z" style="fill:#371a45;fill-rule:nonzero;"/><path d="M2226.87,3436.23l-254.36,0c-69.09,-39.47 -118.75,-110.62 -127.58,-195.86c-14.65,-140.71 87.54,-266.54 228.249,-281.18c140.711,-14.57 266.541,87.62 281.181,228.25c10.75,104.02 -42.26,199.93 -127.49,248.79Z" style="fill:#fcac38;fill-rule:nonzero;"/><path d="M2365.19,3278.01c-11.22,67.09 -52.45,123.2 -109.19,158.22l-280.15,0c-50.86,-31.67 -87.55,-79.82 -102.59,-134.9c37.88,-121.93 168.88,-202.15 308.08,-183.05c78.63,10.91 144.29,51.1 186.08,106.89c1.43,17.27 0.79,35.02 -2.23,52.84Z" style="fill:#f58600;fill-rule:nonzero;"/><path d="M2132.44,2962.04c110.1,9.25 212.42,97.79 226.39,210.03c14.44,92.13 -34.78,187.45 -113.15,235.86c-114.36,73.86 -276.79,51.15 -362.21,-56.27c-73.22,-88.91 -70.22,-220.44 10.36,-303.47c4.74,-4.82 12.16,1.75 8.01,7c-16.03,20.27 -28.62,42.97 -36.94,66.97c-16.52,47.59 -16.07,100.78 2.68,147.4c68.64,173.53 320.7,197.94 424.81,45.37c58.37,-84.37 44.46,-198.33 -28.8,-269.88c-35.35,-35.77 -82.53,-59.68 -133.07,-69.94c-8.11,-1.64 -6.36,-13.77 1.92,-13.07Z" style="fill:#371a45;fill-rule:nonzero;"/><path d="M2486.7,2735.13c44.85,-29.5 78.21,-69.41 94.31,-117.78c29.18,-87.65 -6.38,-177.89 -82.73,-252.93c-50.1,-49.23 -118.35,-89.71 -198.77,-113.5c-203.03,-60.06 -406.78,8.93 -455.1,154.09c-17.98,54.02 -11.9,110.97 13.28,164.28c42.48,89.97 140.75,164.44 268.23,202.15l360.78,-36.31Z" style="fill:#fcac38;fill-rule:nonzero;"/><path d="M2574.5,2615.19c23.41,-82.37 -15.66,-166.07 -73.31,-224.69c-116.53,-118.6 -300.3,-169.26 -461.71,-131.22c-80.3,19.68 -158.03,67.88 -189.83,147.48c-1.12,2.85 -4.37,4.24 -7.21,3.09c-2.63,-1.07 -3.99,-3.91 -3.27,-6.58c5.83,-21.51 15.26,-42.25 27.83,-60.99c37.9,-56.7 100.01,-93.64 164.35,-112.63c206.08,-61.85 490.61,41.35 561.01,256.06c6.31,21.93 9.7,44.85 8.89,67.66c-0.68,22.8 -5.49,45.3 -13.74,66.14c-1.39,3.53 -5.38,5.26 -8.91,3.86c-3.28,-1.3 -5.01,-4.85 -4.1,-8.18Z" style="fill:#371a45;fill-rule:nonzero;"/><path d="M2199.54,2724.64c159.67,17.47 295.06,-63.15 302.38,-180.07c7.32,-116.93 -116.19,-225.88 -275.87,-243.35c-159.671,-17.47 -295.05,63.15 -302.38,180.07c-7.32,116.92 116.19,225.87 275.87,243.35Z" style="fill:#fcac38;fill-rule:nonzero;"/><path d="M2198.49,2611.64c136.04,4.7 243.96,-61.41 241.05,-147.66c-2.91,-86.25 -115.56,-159.97 -251.6,-164.67c-136.041,-4.7 -243.96,61.41 -241.04,147.65c2.91,86.25 115.56,159.98 251.59,164.68Z" style="fill:#f58600;fill-rule:nonzero;"/><path d="M2007.76,2347.06c-66.7,47.42 -90.19,128.37 -52.33,201.78c60.38,115.15 203.91,170.48 329.12,161.97c98.69,-5.61 208.6,-68.22 198.98,-178.75c-12.55,-106.54 -110.8,-179.1 -206.49,-213.07c-6.55,-2.27 -3.59,-12.21 3.14,-10.59c106.41,26.06 217.37,104.27 233.68,220.38c12.71,94.73 -56.51,172.34 -142.23,200.97c-81.18,28.75 -171.98,23.16 -252.11,-5.31c-104.89,-37.36 -211.29,-128.32 -207.97,-248.51c1.52,-29.39 10.85,-58.24 26.8,-82.4c15.74,-23.99 37.47,-43.43 61.87,-57.92c7.64,-4.37 14.47,6.33 7.54,11.45Z" style="fill:#371a45;fill-rule:nonzero;"/><path d="M3057.83,3436.23l-224.83,0c38.92,-63.99 89.7,-106.72 136.33,-107.84c47.99,-1.19 79.99,41.86 88.5,107.84Z" style="fill:#f58600;fill-rule:nonzero;"/><path d="M3112.53,3375.72c-36.79,-49.09 -88.15,-67.58 -144.9,-46.99c-54.87,20.08 -98.77,63.14 -137.96,107.15c-3.98,4.73 -11.93,-0.16 -9.36,-5.87c36.72,-87.38 137.91,-176.53 237.95,-135.12c16.26,7.24 30.59,18.18 41.72,31.16c11.06,13.07 19.48,27.72 24.65,43.21c1.21,3.65 -0.76,7.59 -4.4,8.8c-2.87,0.96 -5.94,-0.08 -7.7,-2.34Z" style="fill:#371a45;fill-rule:nonzero;"/><path d="M3083.94,3350.12c-10,-0.01 -19.94,-6.77 -28.6,-21.1c11.68,4.88 22.75,11.81 33.05,20.65c-1.48,0.3 -2.97,0.45 -4.45,0.45Z" style="fill:#fedeaf;fill-rule:nonzero;"/><path d="M3108.15,3336.68c-2.53,-3.65 -5.26,-7.2 -8.17,-10.63c-11.13,-12.98 -25.46,-23.92 -41.72,-31.16c-6.16,-2.55 -12.32,-4.61 -18.47,-6.2c-0.14,-0.55 -0.28,-1.1 -0.41,-1.66c-98,-401.37 -350.42,-527.95 -356.76,-682.39c-0.98,-23.9 11.67,-35.22 33.36,-35.22c77.11,0 268.41,143.21 367.23,374.17c84.93,198.51 63.39,348.74 24.94,393.09Z" style="fill:#ffedb4;fill-rule:nonzero;"/><path d="M3088.39,3349.67c-10.3,-8.84 -21.37,-15.77 -33.05,-20.65c-5.92,-9.81 -11.24,-23.18 -15.55,-40.33c6.15,1.59 12.31,3.65 18.47,6.2c16.26,7.24 30.59,18.18 41.72,31.16c2.91,3.43 5.64,6.98 8.17,10.63c-6.27,7.23 -12.98,11.64 -19.76,12.99Z" style="fill:#afa3b5;fill-rule:nonzero;"/><path d="M2628.96,2552.7c-8.18,0 -17.48,-1.52 -27.6,-4.6c0.16,-21.06 -3.18,-42.15 -9,-62.39c-23.54,-71.8 -71.03,-131.13 -131.53,-175.99c35.4,13.77 73.67,37.3 112.16,73.42c114.92,107.87 108.2,169.56 55.97,169.56Z" style="fill:#ffedb4;fill-rule:nonzero;"/><path d="M2579.65,2539.59c-9.18,-4.34 -18.77,-9.77 -28.63,-16.35c-14.55,-9.7 -29.36,-18.31 -44.16,-26.09c-25.01,-82.09 -98.53,-141.87 -178.07,-173.25c3.76,-6.57 7.59,-13.09 11.5,-19.56c1.09,-1.79 2.15,-3.58 3.21,-5.37c6.57,-1.85 13.64,-3.24 21.14,-4.09c50.83,23.71 97.47,55.84 136.55,95.62c39.92,40.59 70.93,93.22 78.46,149.09Z" style="fill:#ffedb4;fill-rule:nonzero;"/><path d="M2601.36,2548.1c-6.88,-2.1 -14.15,-4.93 -21.71,-8.51c-7.53,-55.87 -38.54,-108.5 -78.46,-149.09c-39.08,-39.78 -85.72,-71.91 -136.55,-95.62c5.74,-0.65 11.73,-0.99 17.95,-0.99c23.34,0 49.87,4.78 78.24,15.83c60.5,44.86 107.99,104.19 131.53,175.99c5.82,20.24 9.16,41.33 9,62.39Z" style="fill:#afa3b5;fill-rule:nonzero;"/><path d="M2469.43,2479.01c-10.09,-4.53 -20.08,-8.78 -29.84,-12.8c-0.01,-0.74 -0.03,-1.48 -0.05,-2.23c-0.65,-19.12 -6.69,-37.63 -17.18,-54.91c19.77,20.62 36.07,43.96 47.07,69.94Z" style="fill:#fedeaf;fill-rule:nonzero;"/><path d="M2439.59,2466.21c-60.53,-24.95 -113.01,-41.73 -135.54,-70.18c-2.91,-3.67 -5.38,-7.35 -7.44,-11.01c7.74,-15.93 15.94,-31.85 24.58,-47.57c37.26,18.07 72.79,42.04 101.17,71.62c10.49,17.28 16.53,35.79 17.18,54.91c0.02,0.75 0.04,1.49 0.05,2.23Z" style="fill:#ffedb4;fill-rule:nonzero;"/><path d="M2506.86,2497.15c-12.54,-6.59 -25.07,-12.59 -37.43,-18.14c-11,-25.98 -27.3,-49.32 -47.07,-69.94c-28.38,-29.58 -63.91,-53.55 -101.17,-71.62c2.5,-4.54 5.03,-9.05 7.6,-13.55c79.54,31.38 153.06,91.16 178.07,173.25Z" style="fill:#afa3b5;fill-rule:nonzero;"/><path d="M2001.22,2176.04c-11.37,0 -22.61,0.15 -33.66,0.45c-10.39,0.24 -21.09,0.67 -32.8,1.31l-2.33,0.12c-0.88,0.06 -1.76,0.11 -2.64,0.15c-176.72,9.91 -353.48,58.34 -510.94,140.02c-29.45,15.25 -58.54,31.85 -86.45,49.34c-180.03,112.12 -330.03,270.06 -433.829,456.76c-67.339,121.26 -113.97,251.34 -138.589,386.62c-12.436,68.36 -19.189,138.22 -20.103,207.91l2520.15,-1.04c-6.62,-435.04 -230.58,-828.67 -601.63,-1055.59c-5.74,-3.56 -11.44,-7.06 -17.2,-10.43c-9.86,-5.9 -19.87,-11.53 -29.28,-16.8c-45.02,-25.03 -91.93,-47.46 -139.39,-66.65c-140.33,-57.1 -288.24,-87.98 -439.67,-91.79c-10.6,-0.25 -21.17,-0.38 -31.64,-0.38Zm-1278.95,1277.69c-9.658,0 -17.491,-7.83 -17.501,-17.49c-0.068,-77.58 6.919,-155.54 20.777,-231.7c25.302,-139.05 73.222,-272.73 142.431,-397.34c106.68,-191.9 260.86,-354.23 445.88,-469.46c28.68,-17.96 58.6,-35.04 88.89,-50.73c161.81,-83.93 343.46,-133.69 525.31,-143.9l2.2,-0.12c0.95,-0.06 1.9,-0.11 2.85,-0.15c11.82,-0.65 22.88,-1.09 33.56,-1.34c21.76,-0.6 44.33,-0.61 67.05,-0.07c155.69,3.92 307.75,35.66 451.97,94.34c48.75,19.72 96.97,42.78 143.28,68.52c9.69,5.43 19.94,11.2 30.05,17.25c5.87,3.44 11.84,7.09 17.73,10.75c191.2,116.92 349.33,282.33 457.22,478.29c105.08,190.86 160.83,406.83 161.21,624.56c0.01,4.64 -1.83,9.1 -5.11,12.39c-3.29,3.29 -7.74,5.14 -12.38,5.14l-2555.41,1.06l-0.009,0Z" style="fill:#371a45;fill-rule:nonzero;"/><path d="M2588.57,1912.27c-2.66,56.91 -9.25,110.28 -20.2,153.341c-8.67,33.999 -35.98,59.769 -70.47,66.209c-38.51,7.22 -97.6,11.77 -176.11,-0.72l-56.52,-696.79c0,0 61.75,-5.53 127.72,3.24c45.72,6.05 93.43,18.94 124.14,45.19c51.1,43.74 79.77,253.61 71.44,429.53Z" style="fill:#fff;fill-rule:nonzero;"/><path d="M2336.68,2117.18c71.92,10.04 125.44,5.1 158.28,-1.05c28.1,-5.26 50.84,-26.63 57.94,-54.46c10.18,-40.04 17,-91.96 19.72,-150.15l0,-0.01c8.58,-181.2 -22.82,-379.78 -65.88,-416.64c-24.01,-20.53 -62.99,-34.49 -115.85,-41.49c-43.85,-5.83 -86.27,-5.13 -108.39,-4.13l54.18,667.93Zm79.68,37.67c-28.05,0 -60.5,-2.16 -97.08,-7.98c-7.28,-1.16 -12.81,-7.14 -13.41,-14.48l-56.52,-696.79c-0.71,-8.74 5.76,-16.42 14.49,-17.2c2.6,-0.23 64.29,-5.58 131.25,3.32c59.07,7.82 103.62,24.27 132.42,48.88c58.15,49.78 85.25,268.4 77.01,442.41c-2.81,60.31 -9.96,114.44 -20.67,156.54c-10.16,39.84 -42.74,70.44 -83.01,77.97c-20.74,3.89 -49.1,7.33 -84.48,7.33Z" style="fill:#371a45;fill-rule:nonzero;"/><path d="M2416.38,2122.92c-4.56,0 -9.24,-0.06 -14.05,-0.19c7.89,-72.149 -3.64,-131.8 -12.84,-165.09c13.87,2.77 26.99,4.36 39.34,4.76c0.16,0.86 0.33,1.71 0.5,2.57c4.46,22.52 24.38,38.19 46.61,38.19c3,0 6.05,-0.28 9.1,-0.88l49.34,-9.6c15.25,-2.96 28.11,-13.42 34.4,-27.45c-3.59,36.47 -8.96,69.2 -15.88,96.44c-7.1,27.83 -29.84,49.2 -57.94,54.46c-19.25,3.61 -45.59,6.79 -78.58,6.79Zm59.51,-151.69c-6.68,0 -12.71,-4.33 -14.78,-10.73c14.96,-2.43 28.44,-7.09 40.39,-13.97c21.53,-12.4 34.65,-29.85 42.63,-46.65c1.71,0.53 3.4,1.05 5.14,1.57c-1.83,16.4 -4.65,32.76 -8.81,48.37c-1.58,5.95 -6.25,10.36 -12.19,11.51l-49.33,9.6c-1.02,0.2 -2.04,0.3 -3.05,0.3Zm-128.16,-464.44c-13.46,-7.18 -26,-12.61 -36.83,-16.67c13.42,-12.82 26.16,-26.37 38.14,-40.58c10.6,0.58 21.71,1.46 33,2.75c-10.52,14.69 -22.71,33.23 -34.31,54.5Z" style="fill:#d7d1da;fill-rule:nonzero;"/><path d="M2416.44,2138.92c-5.23,0 -10.62,-0.08 -16.14,-0.24c0.78,-5.38 1.46,-10.7 2.03,-15.95c4.81,0.13 9.49,0.19 14.05,0.19c32.99,0 59.33,-3.18 78.58,-6.79c28.1,-5.26 50.84,-26.63 57.94,-54.46c6.92,-27.24 12.29,-59.97 15.88,-96.44c1.03,-2.31 1.89,-4.71 2.55,-7.2c4.13,-15.53 7.06,-31.67 9.05,-47.86c2.7,0.7 5.44,1.4 8.19,2.1c-2.66,56.91 -9.25,110.28 -20.2,153.341c-8.67,33.999 -35.98,59.769 -70.47,66.209c-21.06,3.95 -48.28,7.1 -81.46,7.1Zm-34.4,-686.63c-11.29,-1.29 -22.4,-2.17 -33,-2.75c4.21,-4.99 8.32,-10.06 12.34,-15.22c10.26,0.76 20.88,1.8 31.61,3.23c-3.34,4.33 -7.03,9.27 -10.95,14.74Z" style="fill:#371a45;fill-rule:nonzero;"/><path d="M2475.94,2003.16c-22.23,0 -42.15,-15.67 -46.61,-38.19c-3.67,-18.55 -6.02,-37.8 -6.99,-57.23c-0.43,-8.8 6.35,-16.3 15.16,-16.74c8.76,-0.43 16.3,6.35 16.74,15.16c0.89,17.88 3.05,35.58 6.42,52.6c1.66,8.35 9.85,13.85 18.28,12.17l49.33,-9.6c5.94,-1.15 10.61,-5.56 12.19,-11.51c19.45,-73.07 9.77,-162.4 4.71,-197.41c-0.31,-2.1 -2.09,-3.64 -4.2,-3.64l-0.16,0c-60.96,2.37 -70.86,4.62 -71.79,4.88c-8.5,2.28 -17.29,-2.75 -19.59,-11.25c-2.3,-8.5 2.69,-17.25 11.18,-19.57c3.08,-0.84 12.43,-3.39 78.96,-5.98c18.4,-0.82 34.55,12.6 37.21,30.98c5.35,36.96 15.52,131.44 -5.45,210.2c-4.68,17.59 -19.19,31.2 -36.95,34.65l-49.34,9.6c-3.05,0.6 -6.1,0.88 -9.1,0.88Z" style="fill:#371a45;fill-rule:nonzero;"/><path d="M2537.28,1871.63c-8.48,34.39 -41.7,101.66 -171.9,63.59c0,0 72.65,176.79 -38.75,360.85c-83.6,138.09 -129.9,298.89 -147.82,370.63c-9.49,37.87 -33.91,70.81 -68.49,89.02c-26.11,13.76 -58.32,19.91 -91.25,-0.34c-76,-46.69 -76.72,-65.48 -76.72,-66.21c0,0 -41.46,2.37 -75.42,-10.51l-0.05,-0.05c-21.26,-8.04 -39.57,-22.09 -42.81,-46.45c-0.2,-1.16 -0.29,-2.32 -0.39,-3.53c-2.03,-28.05 6.1,-51.69 20.44,-69.7c19.71,-25.09 51.29,-39.28 83.7,-39.28c0,0 38.36,-161.44 67.42,-251.05l-99.49,-4.55l-0.05,-0.05l-5.81,-0.24c0,0 -111.4,244.6 -153.78,377.8c0,0 -5.23,41.99 -142.5,30.66c-112.56,-9.25 -192,-21.8 -219.12,-54.06c-0.1,-0.14 -0.15,-0.24 -0.24,-0.34c-5.81,-6.97 -9.16,-14.86 -9.88,-23.87c-4.02,-50.86 33.9,-117.9 137.21,-93.68c15.79,-122.69 38.99,-233.65 89.61,-301.07l-19.08,-432.39c0,0 39.57,-188.41 184.15,-235.63c144.53,-47.23 513.85,-36.33 513.85,-36.33c0,0 115.03,19.32 184.05,134.99c31.24,52.31 51.78,103.07 64.95,142.88l0,0.15c9.98,30.22 15.75,54.1 18.6,67.76c2.18,10.27 2.09,20.83 -0.43,31Z" style="fill:#fff;fill-rule:nonzero;"/><path d="M1720.29,2639.42l-0.01,0.01l0.01,-0.01Zm-0.01,0.03l0,0.04l0,-0.04Zm0,0.05l-0.01,0.04l0.01,-0.04Zm-0.01,0.04l-0.01,0.04l0.01,-0.04Zm238.05,49.55l0,0.02l0,-0.02Zm0,0.03l0,0.05l0,-0.05Zm-0.24,-2.69c1.37,2.83 11.54,19.82 69.35,55.34c23.32,14.34 47.999,14.28 75.44,-0.18c29.8,-15.69 51.83,-44.4 60.45,-78.78c20.3,-81.27 66.74,-238.06 149.65,-375.01c105.66,-174.58 38.33,-344.83 37.63,-346.53c-2.31,-5.67 -1.17,-12.18 2.93,-16.73c4.11,-4.55 10.44,-6.38 16.34,-4.64c50.11,14.65 89.03,14.3 115.69,-1.05c22.76,-13.1 32.25,-34.99 36.21,-51.04l0,-0.02c1.93,-7.76 2.03,-15.78 0.32,-23.85c-2.38,-11.38 -7.9,-35.04 -18.14,-66.06c-0.13,-0.38 -0.23,-0.75 -0.33,-1.13c-16.39,-49.31 -37.64,-95.98 -63.17,-138.72c-60.93,-102.11 -161.2,-125.04 -172.06,-127.25c-23.76,-0.63 -371.09,-8.9 -507.17,35.58c-126.57,41.34 -168.52,202.78 -173.06,221.91l18.99,430.23c0.16,3.69 -0.97,7.33 -3.19,10.29c-51.85,69.07 -72.85,187.14 -86.54,293.52c-0.57,4.48 -3.02,8.51 -6.74,11.09c-3.72,2.58 -8.34,3.46 -12.74,2.42c-39.65,-9.28 -71.72,-4.63 -92.78,13.45c-20.63,17.72 -26.38,44.38 -24.87,63.42c0.45,5.61 2.43,10.36 6.23,14.91l0,0.01c0.18,0.22 0.37,0.45 0.54,0.69c25.33,29.24 114.84,40.35 207.86,48c107.07,8.85 124.35,-16.13 125.62,-18.31c0.1,-0.43 0.22,-0.86 0.35,-1.28c42.18,-132.57 153.34,-377.12 154.46,-379.57c2.7,-5.91 8.72,-9.58 15.21,-9.34l5.81,0.25c0.43,0.02 0.86,0.05 1.28,0.1l98.31,4.5c4.98,0.23 9.57,2.77 12.41,6.86c2.83,4.09 3.59,9.28 2.06,14.02c-28.53,87.96 -66.7,248.2 -67.08,249.81c-1.71,7.2 -8.14,12.28 -15.54,12.28c-28.21,0 -54.81,12.4 -71.13,33.17c-12.81,16.1 -18.69,36.36 -17.07,58.69c0.05,0.61 0.09,1.32 0.21,2.04c0.03,0.18 0.05,0.36 0.08,0.54c0.74,5.54 2.98,22.4 32.63,33.61c0.29,0.11 0.59,0.23 0.87,0.36c30.12,11.14 67.67,9.23 68.05,9.19c4.47,-0.18 8.67,1.34 11.86,4.35c2.52,2.38 4.18,5.49 4.77,8.86Zm105.299,97.91c-18.289,0 -36.019,-5.12 -52.669,-15.36c-40.82,-25.06 -67.39,-46.69 -78.46,-63.67c-15.58,-0.13 -44.97,-1.85 -70.98,-11.72c-0.33,-0.12 -0.64,-0.25 -0.95,-0.39c-38.35,-14.83 -49.49,-40 -52.05,-58.68c-0.24,-1.51 -0.38,-3.03 -0.51,-4.61c-2.22,-30.59 6.04,-58.53 23.86,-80.93c19.76,-25.14 50.32,-41.33 83.46,-44.66c8.61,-35.55 35.5,-144.8 58.7,-220.71l-73.81,-3.38c-21.08,46.84 -111.27,249.21 -148.3,365.1c-2.95,15.06 -23.74,54.01 -159.37,42.8c-119.27,-9.8 -199.36,-23.21 -230.03,-59.69c-0.25,-0.29 -0.48,-0.58 -0.7,-0.89c-7.74,-9.47 -12.15,-20.34 -13.12,-32.32c-2.75,-34.81 10.67,-68.52 35.9,-90.19c18.37,-15.78 50.8,-31.78 103.62,-23.67c14.01,-103.69 36.01,-215.58 87.02,-287.07l-18.84,-426.78c-0.06,-1.34 0.05,-2.68 0.33,-3.99c1.69,-8.06 43.21,-198.01 194.82,-247.53c145.5,-47.55 504.09,-37.56 519.28,-37.11c0.73,0.02 1.46,0.09 2.18,0.21c4.99,0.84 123.14,21.93 195.12,142.55c26.89,45.03 49.23,94.17 66.39,146.06c0.13,0.38 0.24,0.77 0.34,1.16c10.52,32.01 16.25,56.61 18.74,68.48c2.71,12.8 2.52,25.63 -0.57,38.12c-5.45,22.09 -18.77,52.34 -51.28,71.06c-28.72,16.54 -66.31,20.24 -112.01,11.11c16.24,58.79 39.75,199.75 -49.2,346.7c-83.75,138.34 -129.99,302.19 -145.99,366.23c-10.83,43.18 -38.72,79.37 -76.54,99.28c-18.33,9.66 -36.621,14.49 -54.381,14.49Z" style="fill:#371a45;fill-rule:nonzero;"/><path d="M2231.36,2087.8l-253.8,131.4c-11.38,5.91 -24.22,8.43 -37.01,7.27l-412.81,-37.06l-32.5,-2.9c-23.88,-2.13 -44.61,-17.34 -53.81,-39.48l-131.99,-317.35c-4.26,-10.17 -2.81,-21.79 3.73,-30.61l21.07,-28.53c6.01,-8.13 15.55,-12.83 25.62,-12.69l441.68,6.54c20.35,0.29 38.37,13.22 45.19,32.41l79.49,223.57l285.28,19.62l13.81,0.97l6.05,46.84Z" style="fill:#b1b1ba;fill-rule:nonzero;"/><path d="M1496.5,2170.6c-17.96,-1.68 -33.41,-13.05 -40.35,-29.73l-125.53,-301.8c0.47,-1.51 1.2,-2.96 2.16,-4.3c2.84,-3.95 7.23,-6.24 12.05,-6.24c0.12,0 0.25,0 0.37,0.01l6.78,0.11c0.37,2.55 1.06,5.08 2.07,7.52l131.99,317.35c2.61,6.3 6.16,12.04 10.46,17.08Zm-171.17,-361.07c0.2,-0.33 0.43,-0.66 0.66,-0.98l21.08,-28.52c2.88,-3.9 7.48,-6.21 12.33,-6.21l0.23,0l21.65,0.32c-0.86,0.91 -1.67,1.87 -2.43,2.89l-20.32,27.52l-12.9,-0.23c-0.4,-0.01 -0.79,-0.02 -1.19,-0.02c-6.77,0 -13.35,1.87 -19.11,5.23Z" style="fill:#e1e1e4;fill-rule:nonzero;"/><path d="M1359.4,1773.82c-4.85,0 -9.45,2.31 -12.33,6.21l-21.08,28.52c-3.18,4.31 -3.88,10.05 -1.82,15l131.98,317.32c6.96,16.73 22.49,28.13 40.53,29.74l445.32,39.97c9.76,0.89 19.51,-1.04 28.2,-5.54l243.89,-126.3l-2.95,-22.75l-286.02,-19.68c-6.34,-0.44 -11.82,-4.6 -13.95,-10.59l-79.47,-223.57c-4.56,-12.84 -16.79,-21.6 -30.42,-21.81l-441.65,-6.52l-0.23,0Zm587.22,468.91c-2.49,0 -4.97,-0.11 -7.47,-0.33l-445.32,-39.97c-29.9,-2.68 -55.64,-21.57 -67.17,-49.29l-131.99,-317.33c-6.34,-15.24 -4.18,-32.97 5.64,-46.24l21.07,-28.52c9.04,-12.23 23.66,-19.54 38.72,-19.17l441.65,6.53c26.91,0.4 51.04,17.69 60.05,43.04l75.96,213.71l288.64,19.86c7.6,0.53 13.77,6.34 14.74,13.89l6.06,46.82c0.86,6.66 -2.54,13.14 -8.5,16.23l-253.81,131.44c-11.88,6.15 -24.98,9.33 -38.27,9.33Z" style="fill:#371a45;fill-rule:nonzero;"/><path d="M1990.28,2228.6c-6.69,0 -12.92,-4.23 -15.15,-10.92l-64.06,-192.26c-2.79,-8.36 1.73,-17.41 10.1,-20.2c8.37,-2.79 17.41,1.74 20.2,10.11l64.06,192.25c2.79,8.37 -1.73,17.41 -10.1,20.2c-1.68,0.55 -3.38,0.82 -5.05,0.82Z" style="fill:#371a45;fill-rule:nonzero;"/><path d="M1973.2,2173.44c-4.47,0 -8.76,-2.48 -10.87,-6.76c-2.96,-5.99 -0.5,-13.25 5.5,-16.21l244.97,-120.86c6.01,-2.96 13.26,-0.5 16.22,5.5c2.95,6 0.49,13.261 -5.51,16.221l-244.97,120.859c-1.72,0.85 -3.55,1.25 -5.34,1.25Z" style="fill:#371a45;fill-rule:nonzero;"/><path d="M1889.89,2233.93c-1.53,0 -3.07,-0.09 -4.61,-0.24c-6.65,-0.7 -11.48,-6.64 -10.8,-13.3c0.7,-6.65 6.7,-11.47 13.3,-10.8c6.83,0.75 13.25,-1.96 17.55,-7.33c4.31,-5.38 5.53,-12.2 3.34,-18.73l-108.21,-323.41c-4.84,-14.46 -18.33,-24.17 -33.57,-24.17l-421.69,-7.41c-4.96,-0.13 -9.5,2.18 -12.42,6.23c-2.91,4.05 -3.61,9.07 -1.93,13.77l3.02,8.42c2.26,6.3 -1.02,13.23 -7.32,15.49c-6.28,2.24 -13.23,-1.03 -15.48,-7.32l-3.02,-8.43c-4.34,-12.12 -2.45,-25.59 5.06,-36.05c7.5,-10.46 19.75,-16.74 32.52,-16.33l421.48,7.41c25.45,0 48.17,16.36 56.32,40.7l108.21,323.41c4.77,14.28 2,29.81 -7.41,41.56c-8.44,10.54 -21.03,16.52 -34.34,16.53Z" style="fill:#371a45;fill-rule:nonzero;"/><path d="M1843.43,1784.58l-43.14,36.8l23.85,-51.44c9.66,-17.6 33.64,0.61 19.29,14.64Z" style="fill:#371a45;fill-rule:nonzero;"/><path d="M1689.47,1994.56c0,47.9 -35.36,86.74 -79,86.74c-16.38,0 -31.61,-5.479 -44.22,-14.86c-6.45,-4.8 -4.38,-14.68 3.4,-16.69c28.99,-7.5 50.21,-31.74 50.21,-60.52c0,-25.33 -16.48,-47.17 -40.23,-57.15c-7.47,-3.14 -8.17,-13.57 -0.86,-17.08c9.68,-4.66 20.4,-7.24 31.7,-7.24c43.64,0 79,38.85 79,86.8Z" style="fill:#371a45;fill-rule:nonzero;"/><path d="M1620.15,2095.84c-16.37,0 -31.62,-5.48 -44.22,-14.871c-3.53,-2.619 -4.5,-6.78 -3.39,-10.31c10.55,6.36 22.56,10.15 35.34,10.6l0.17,0c0.01,0.01 0.02,0.01 0.03,0.01l0.14,0c0.15,0 0.3,0.01 0.44,0.01l0.05,0c0.03,0 0.07,0.01 0.11,0.01l0.43,0c0.03,0.01 0.06,0.01 0.08,0.01l1.14,0c43.64,0 79,-38.84 79,-86.74l0,-0.25c-0.01,-0.02 -0.01,-0.04 -0.01,-0.07l0,-1.02c0,-0.04 -0.01,-0.09 -0.01,-0.13l0,-0.4c-0.29,-15.17 -4.12,-29.37 -10.62,-41.67c12.69,15.38 20.32,35.74 20.32,58.07c0,47.9 -35.36,86.751 -79,86.751Z" style="fill:#e1e1e4;fill-rule:nonzero;"/><path d="M1610.29,2081.3l-0.06,0l0.06,0Zm-0.18,0l-0.07,0l0.07,0Zm-0.18,0l-0.07,0l0.07,0Zm-0.18,0l-0.07,0l0.07,0Zm-0.2,0l-0.05,0l0.05,0Zm-0.22,0c-0.02,0 -0.05,0 -0.08,-0.01c0.03,0.01 0.06,0.01 0.08,0.01Zm-0.17,-0.01l-0.09,0l0.09,0Zm-0.17,0l-0.11,0l0.11,0Zm-0.17,0c-0.04,0 -0.08,-0.01 -0.11,-0.01c0.03,0 0.07,0.01 0.11,0.01Zm-0.16,-0.01c-0.14,0 -0.29,-0.01 -0.44,-0.01c0.15,0 0.3,0.01 0.44,0.01Zm-0.44,-0.01l-0.14,0l0.14,0Zm-0.17,-0.01l-0.14,0l0.14,0Zm-0.17,0c-12.78,-0.45 -24.79,-4.24 -35.34,-10.6l0,-0.01c10.53,6.35 22.55,10.16 35.34,10.61Zm81.59,-86.95c-0.01,-0.02 -0.01,-0.05 -0.01,-0.07c0,0.03 0,0.05 0.01,0.07Zm-0.01,-0.29l0,-0.05l0,0.05Zm0,-0.27l0,-0.08l0,0.08Zm0,-0.26l0,-0.13l0,0.13Zm0,-0.27c0,-0.04 -0.01,-0.09 -0.01,-0.13c0,0.04 0.01,0.09 0.01,0.13Zm-0.01,-0.22l0,-0.3l0,0.3Zm0,-0.31c-0.3,-15.24 -4.18,-29.54 -10.79,-41.87c0.06,0.07 0.12,0.14 0.17,0.2c6.5,12.3 10.33,26.5 10.62,41.67Z" style="fill:#b1a6b7;fill-rule:nonzero;"/><path d="M1946.66,2210.79c-1.55,0 -3.1,-0.07 -4.66,-0.21l-12.68,-1.14c5.16,-10.34 6.08,-22.36 2.32,-33.6l-108.21,-323.41c-2.7,-8.06 -6.99,-15.24 -12.45,-21.25l26.47,-12.85l73.66,207.23l59.7,179.16l-0.61,0.32c-7.31,3.78 -15.37,5.75 -23.54,5.75Zm-46.46,-3.96l-327.95,-29.43c82.36,-22.37 245.71,-90.67 231.53,-307.36l104.89,313.49c2.19,6.53 0.97,13.35 -3.34,18.73c-1.48,1.85 -3.21,3.38 -5.13,4.57Zm99.33,-16.98l-8.02,-24.06l219.81,-108.449l2.77,21.399l-214.56,111.11Zm-15.75,-47.25l-16.35,-49.08c13.87,11.96 32.69,21.14 57.79,21.14c5.75,0 11.84,-0.48 18.28,-1.52l-59.72,29.46Z" style="fill:#9993a3;fill-rule:nonzero;"/><path d="M1946.64,2225.54c-2.02,0 -4.05,-0.09 -6.09,-0.28l-22,-1.97c2.05,-1.76 3.95,-3.73 5.68,-5.89c2,-2.5 3.7,-5.17 5.09,-7.96l12.68,1.14c1.56,0.14 3.11,0.21 4.66,0.21c8.17,0 16.23,-1.97 23.54,-5.75l0.61,-0.32l4.32,12.96c0.15,0.44 0.31,0.87 0.49,1.28c-9.06,4.34 -18.96,6.58 -28.98,6.58Zm-72,-6.19l-59.31,-5.33c-11.7,-4.76 -25.02,-10.13 -40.2,-16.22c-1.94,-0.78 -3.95,-1.15 -5.93,-1.15c-6.34,0 -12.33,3.79 -14.83,10.03c-0.24,0.6 -0.44,1.21 -0.61,1.82l-226.02,-20.29l-0.29,-0.48c4.16,-1.27 21.14,-3.91 44.8,-10.33l327.95,29.43c-3.04,1.88 -6.53,2.89 -10.2,2.89c-0.73,0 -1.47,-0.04 -2.22,-0.13c-0.41,-0.04 -0.82,-0.06 -1.23,-0.06c-5.76,0 -10.81,4.12 -11.91,9.82Zm129.65,-15.19l-4.76,-14.31l214.56,-111.11l-2.77,-21.399l12.19,-6.01c1.14,-0.561 2.15,-1.281 3.02,-2.111l4.66,36.04l-16.44,9.93l-210.46,108.97Zm-93.18,-178.6l-73.66,-207.23l6.43,-3.12l43.32,109.04c-0.95,2.04 -1.43,4.33 -1.33,6.73c0.25,5.9 3.98,10.82 9.12,12.88l6.84,17.2c-4.28,2.67 -7.05,7.5 -6.83,12.9c0.31,7.83 6.75,13.96 14.51,13.96c0.19,0 0.39,-0.01 0.58,-0.01l2.37,-0.09l7.16,18.01c-7.37,3.33 -11.16,11.76 -8.55,19.59l0.04,0.14Z" style="fill:#371a45;fill-rule:nonzero;"/><path d="M1975.62,2218.96c-0.18,-0.41 -0.34,-0.84 -0.49,-1.28l-4.32,-12.96l-59.7,-179.16l-0.04,-0.14c-2.61,-7.83 1.18,-16.26 8.55,-19.59l13.28,33.44c0,0 8.66,31.95 34.53,54.25l16.35,49.08l-15.95,7.87c-6,2.96 -8.46,10.22 -5.5,16.21c2.11,4.28 6.4,6.76 10.87,6.76c1.79,0 3.62,-0.4 5.34,-1.25l12.97,-6.4l8.02,24.06l4.76,14.31l-26.73,13.84c-0.64,0.33 -1.29,0.65 -1.94,0.96Z" style="fill:#371a45;fill-rule:nonzero;"/><path d="M1973.2,2173.44c-4.47,0 -8.76,-2.48 -10.87,-6.76c-2.96,-5.99 -0.5,-13.25 5.5,-16.21l15.95,-7.87l59.72,-29.46c12.78,-2.08 26.919,-6.36 42.55,-13.47c54.54,-24.75 96.1,-45.53 125.45,-60.88l13.81,0.96l1.22,9.47c-0.87,0.83 -1.88,1.55 -3.02,2.111l-12.19,6.01l-219.81,108.449l-12.97,6.4c-1.72,0.85 -3.55,1.25 -5.34,1.25Z" style="fill:#371a45;fill-rule:nonzero;"/><path d="M1918.55,2223.29l-43.91,-3.94c1.1,-5.7 6.15,-9.82 11.91,-9.82c0.41,0 0.82,0.02 1.23,0.06c0.75,0.09 1.49,0.13 2.22,0.13c3.67,0 7.16,-1.01 10.2,-2.89c1.92,-1.19 3.65,-2.72 5.13,-4.57c4.31,-5.38 5.53,-12.2 3.34,-18.73l-104.89,-313.49c-0.71,-10.84 -1.86,-22.07 -3.49,-33.67l10.69,-5.19c5.46,6.01 9.75,13.19 12.45,21.25l108.21,323.41c3.76,11.24 2.84,23.26 -2.32,33.6c-1.39,2.79 -3.09,5.46 -5.09,7.96c-1.73,2.16 -3.63,4.13 -5.68,5.89Z" style="fill:#371a45;fill-rule:nonzero;"/><path d="M1929.3,2503.76c55.7,12.26 107.91,37.51 153.119,71.8c-12.5,-6.04 -25.03,-11.78 -37.969,-16.4c-37.68,-13.8 -78.1,-22.65 -118.08,-23.6c-23.28,-0.85 -20.17,-35.2 2.93,-31.8Z" style="fill:#371a45;fill-rule:nonzero;"/><path d="M1934.78,2675.13c20.35,-5.39 40.3,-5.27 60.67,-5.15c3.21,0.02 6.44,0.04 9.68,0.03c-14.99,7.4 -29.83,15.13 -43.67,24.19c-4.36,2.92 -8.81,6.07 -11.51,9.04c-6.26,6.87 -16.9,7.38 -23.78,1.12c-10.49,-9.46 -4.99,-26.67 8.61,-29.23Z" style="fill:#371a45;fill-rule:nonzero;"/><path d="M1506.05,2484.95c31.77,15.45 64.27,29.76 93.23,50.05c-8.23,-2.97 -16.66,-4.9 -25.15,-6.73c-25.4,-5.28 -51.36,-9.22 -76.98,-12.64c-8.85,-1.15 -15.09,-9.26 -13.94,-18.11c1.2,-10.68 13.21,-17.23 22.84,-12.57Z" style="fill:#371a45;fill-rule:nonzero;"/><path d="M1806.73,2458.14c-7.49,0 -14.17,-5.29 -15.66,-12.92c-10.11,-51.84 -40.56,-94.2 -85.75,-119.27c-46.88,-26.01 -104.01,-30.4 -152.81,-11.75c-8.23,3.15 -17.47,-0.98 -20.62,-9.21c-3.15,-8.25 0.98,-17.48 9.22,-20.62c57.5,-21.99 124.68,-16.88 179.71,13.65c53.58,29.73 89.66,79.83 101.6,141.09c1.69,8.66 -3.96,17.05 -12.62,18.73c-1.03,0.2 -2.06,0.3 -3.07,0.3Z" style="fill:#371a45;fill-rule:nonzero;"/><path d="M1877.42,2273.74l0.02,0.02l-0.02,-0.02Zm0.02,0.02l0.01,0.01l-0.01,-0.01Zm12.46,5.97c-3.47,0 -6.92,-1.13 -9.75,-3.31c-8.78,-4.83 -65.66,-28.42 -116.9,-48.97c-8.19,-3.28 -12.16,-12.58 -8.88,-20.77c3.28,-8.18 12.58,-12.16 20.76,-8.88c121.38,48.66 124.09,52.06 127.23,55.98c5.51,6.89 4.4,16.94 -2.49,22.45c-2.95,2.35 -6.47,3.5 -9.97,3.5Z" style="fill:#371a45;fill-rule:nonzero;"/><path d="M2237.83,2470.24c-5.33,0 -10.55,-2.67 -13.58,-7.54c-30.69,-49.39 -115.53,-158.35 -239.93,-103.59c-8.09,3.54 -17.5,-0.12 -21.06,-8.19c-3.55,-8.07 0.12,-17.5 8.19,-21.05c102.199,-44.97 206.84,-1.63 279.93,115.97c4.66,7.49 2.36,17.34 -5.13,22c-2.62,1.63 -5.54,2.4 -8.42,2.4Z" style="fill:#371a45;fill-rule:nonzero;"/><path d="M2073.35,1794.31c2.66,0 5.35,0.67 7.789,2.04c5.961,3.33 9.141,10.09 7.911,16.8l-5.48,29.96c-3.23,17.69 3.18,35.22 16.72,45.75c18.1,14.06 45.68,26.65 73.79,33.68c32.82,8.21 59.82,-25.15 60.09,-25.49c3.85,-4.83 10.2,-7.06 16.23,-5.63l118.66,28.25c2.18,0.52 4.13,1.46 5.82,2.71c29.19,-39.69 37.28,-94.24 19.99,-137.55c-12.9,-32.28 -37.2,-52.63 -68.54,-57.46l-84.95,5.01c-0.81,0.05 -1.63,0.04 -2.44,-0.04c-55.75,-5.27 -123.12,-7.22 -134.58,-1.75c-48.16,25.43 -101.53,65.09 -105.48,88.48c-1.89,11.19 -0.51,20.18 3.8,24.66c1.7,1.76 3.32,2.21 4.04,2.28c8.52,-5.75 38.55,-31.99 55.949,-47.61c3.01,-2.7 6.821,-4.09 10.681,-4.09Zm111.58,161.53c-5.95,0 -12.17,-0.71 -18.59,-2.32c-32.69,-8.16 -63.91,-22.54 -85.64,-39.44c-19.35,-15.03 -30.16,-38.23 -29.89,-62.76c-11.31,9.67 -22.33,18.74 -27.67,22.11c-10.56,6.68 -24.94,5.96 -36.64,-1.83c-7.81,-5.2 -25.3,-21.24 -19.12,-57.85c8.29,-49.08 103.18,-101.44 122.11,-111.43c23.23,-12.27 112.52,-5.52 151.23,-1.9l85.36,-5.03c1.03,-0.07 2.09,-0.03 3.11,0.12c43.3,5.95 78.05,34.19 95.34,77.48c22.42,56.14 11.38,124.36 -28.12,173.8c-5.51,6.89 -15.55,8.01 -22.45,2.51c-0.14,-0.12 -0.29,-0.24 -0.43,-0.36c-3.45,2.05 -7.66,2.8 -11.87,1.81l-109.52,-26.09c-11.44,11.43 -35.77,31.18 -67.21,31.18Z" style="fill:#371a45;fill-rule:nonzero;"/><path d="M2238.11,1915.49l-27.82,-38.14l8.06,-1.53l-17.35,27.7l8.26,-31.63c1.12,-3.84 5.45,-4.15 8.06,-1.53l37.97,28.06c14.42,11.89 -5.35,31.58 -17.18,17.07Z" style="fill:#371a45;fill-rule:nonzero;"/><path d="M2218.13,1721.64l-17.13,-73.01l43.6,61.02l-26.47,11.99Z" style="fill:#371a45;fill-rule:nonzero;"/><path d="M1719.16,1757.85l14.53,-68.05l14.53,68.05l-29.06,0Z" style="fill:#371a45;fill-rule:nonzero;"/><path d="M1846.29,1799.01c-8.55,0 -15.63,-6.77 -15.95,-15.39c-0.32,-8.81 6.57,-16.22 15.38,-16.54l159.03,-5.78c8.89,-0.33 16.21,6.56 16.54,15.38c0.32,8.81 -6.57,16.22 -15.38,16.54l-159.03,5.78c-0.2,0.01 -0.39,0.01 -0.59,0.01Z" style="fill:#371a45;fill-rule:nonzero;"/><path d="M1909.51,1987.92c-7.76,0 -14.2,-6.13 -14.51,-13.96c-0.32,-8.01 5.92,-14.77 13.94,-15.09l158.489,-6.31c9.031,-0.36 16.101,-7.72 16.101,-16.76l0,-28.85c0,-8.02 6.51,-14.53 14.53,-14.53c8.03,0 14.53,6.51 14.53,14.53l0,28.85c0,24.7 -19.33,44.82 -44.01,45.8l-158.49,6.31c-0.19,0 -0.39,0.01 -0.58,0.01Z" style="fill:#371a45;fill-rule:nonzero;"/><path d="M1900.38,1944.9c-7.75,0 -14.18,-6.11 -14.51,-13.92c-0.34,-8.02 5.88,-14.79 13.91,-15.13l106.21,-4.48c3.47,-0.15 6.67,-1.65 9,-4.23c2.34,-2.57 3.51,-5.9 3.31,-9.37l-2.78,-48.99c-0.45,-8.01 5.67,-14.87 13.68,-15.33c8.01,-0.38 14.87,5.67 15.33,13.68l2.79,48.99c0.64,11.3 -3.19,22.14 -10.78,30.53c-7.6,8.39 -18.02,13.28 -29.33,13.75l-106.21,4.48c-0.21,0.01 -0.42,0.02 -0.62,0.02Z" style="fill:#371a45;fill-rule:nonzero;"/><path d="M2040.17,1907.31l44.67,42.83l-59.3,-17.71c-7.91,-2.37 -12.4,-10.69 -10.04,-18.6c2.87,-10.58 17.01,-14.2 24.67,-6.52Z" style="fill:#371a45;fill-rule:nonzero;"/><path d="M2480,1493.76c-18.02,19.04 -43.22,30.49 -69.43,31.36c17.98,-19.09 43.23,-30.42 69.43,-31.36Z" style="fill:#371a45;fill-rule:nonzero;"/><path d="M1824.07,2632.16c-0.2,-1.16 -0.29,-2.32 -0.39,-3.53c-2.03,-28.05 6.1,-51.69 20.44,-69.7c-5.72,23.73 -12.4,48.87 -20.05,73.23Z" style="fill:#261252;fill-rule:nonzero;"/><path d="M1637.18,2658.19c-12.25,0 -26.25,-0.57 -42.26,-1.89c-93.02,-7.65 -182.53,-18.76 -207.86,-48c-0.17,-0.24 -0.36,-0.47 -0.54,-0.69l0,-0.01c-0.49,-0.59 -0.96,-1.19 -1.39,-1.79c12.33,-10.62 36.03,-24.5 75.65,-24.5c20.08,0 44.25,3.56 73.11,12.93c15.54,5.03 29.45,7.23 41.89,7.23c84.44,0 101,-101.2 101,-101.2c0,0 42.37,-72.08 64.49,-147.87c25.41,24.39 42.67,56.25 49.8,92.82c0.25,1.27 0.64,2.47 1.15,3.59c-27.19,65.55 -54.65,135.48 -71.33,187.9c-0.13,0.42 -0.25,0.85 -0.35,1.28c-1.08,1.85 -13.74,20.2 -83.36,20.2Z" style="fill:#d7d1da;fill-rule:nonzero;"/><path d="M1637.19,2674.16c-12.81,0 -27.25,-0.59 -43.58,-1.94c-112.56,-9.25 -192,-21.8 -219.12,-54.06c-0.19,-0.29 -0.29,-0.43 -0.29,-0.43c0,0 3.28,-5.34 10.93,-11.92c0.43,0.6 0.9,1.2 1.39,1.79l0,0.01c0.18,0.22 0.37,0.45 0.54,0.69c25.33,29.24 114.84,40.35 207.86,48c16.01,1.32 30.01,1.89 42.26,1.89c69.62,0 82.28,-18.35 83.36,-20.2c0.1,-0.43 0.22,-0.86 0.35,-1.28c16.68,-52.42 44.14,-122.35 71.33,-187.9c2.42,5.31 7.6,8.88 13.4,9.29c-26.54,64.11 -53.16,132.07 -69.51,183.46c0,0 -4.08,32.59 -98.92,32.6Z" style="fill:#371a45;fill-rule:nonzero;"/><path d="M1811.8,2402.18c-13.01,-33.59 -34.15,-62.5 -62,-84.76c6.59,-34.43 6.93,-67.41 -4.95,-92.46l16.29,1.46c0.67,0.39 1.37,0.74 2.11,1.03c40.64,16.3 84.84,34.51 105.76,43.76c-10.44,23.24 -32.53,72.86 -57.21,130.97Z" style="fill:#d7d1da;fill-rule:nonzero;"/><path d="M1819.29,2425.37c-2.08,-7.95 -4.58,-15.69 -7.49,-23.19c24.68,-58.11 46.77,-107.73 57.21,-130.97c5.45,2.41 9.32,4.21 11.14,5.21c0.99,0.76 2.05,1.4 3.17,1.9c-11.53,25.65 -36.76,82.35 -64.03,147.05Z" style="fill:#371a45;fill-rule:nonzero;"/><path d="M1761.14,2226.42l-16.29,-1.46c-2.94,-6.2 -6.64,-11.92 -11.16,-17.04l19.67,6.81c0.64,4.78 3.43,9.16 7.78,11.69Z" style="fill:#371a45;fill-rule:nonzero;"/><path d="M1805.62,2458.1c-5.8,-0.41 -10.98,-3.98 -13.4,-9.29c-0.51,-1.12 -0.9,-2.32 -1.15,-3.59c-7.13,-36.57 -24.39,-68.43 -49.8,-92.82c3.4,-11.65 6.32,-23.41 8.53,-34.98c27.85,22.26 48.99,51.17 62,84.76c2.91,7.5 5.41,15.24 7.49,23.19c-4.52,10.72 -9.1,21.68 -13.67,32.73Z" style="fill:#371a45;fill-rule:nonzero;"/><path d="M1883.32,2278.32c-1.12,-0.5 -2.18,-1.14 -3.17,-1.9c-1.82,-1 -5.69,-2.8 -11.14,-5.21c-20.92,-9.25 -65.12,-27.46 -105.76,-43.76c-0.74,-0.29 -1.44,-0.64 -2.11,-1.03c-4.35,-2.53 -7.14,-6.91 -7.78,-11.69l142.34,49.27l-5.81,-0.24c0,0 -2.38,5.22 -6.57,14.56Zm-5.88,-4.56l0.01,0.01l-0.01,-0.01Zm-0.02,-0.02l0.02,0.02l-0.02,-0.02Z" style="fill:#371a45;fill-rule:nonzero;"/><path d="M2063.45,2752.48c-12.45,0 -24.41,-3.57 -36.02,-10.71c-39.99,-24.57 -57.18,-40.27 -64.44,-48.56c10.9,-7.02 22.4,-13.25 34.08,-19.17c25.09,-7.29 44.7,-20.15 48.16,-42.17c7.64,-48.7 4.52,-65.83 2,-71.7c11.96,4.44 23.59,9.79 35.189,15.39c-11.02,-8.36 -22.459,-16.18 -34.27,-23.41c11.821,-20.57 57.401,-100.19 98.451,-175.39c36.84,26.35 63.23,62.73 77.65,85.94c0.63,1.01 1.35,1.92 2.14,2.73c-31.01,78.7 -51.38,150.57 -63.07,197.38c-8.62,34.38 -30.65,63.09 -60.45,78.78c-13.78,7.26 -26.85,10.89 -39.42,10.89Z" style="fill:#d7d1da;fill-rule:nonzero;"/><path d="M2061.3,2769.6c-14.28,0 -29.21,-3.73 -44.31,-13.01c-40.08,-24.63 -59.23,-41.5 -68.37,-52.04c0.46,-0.41 0.91,-0.85 1.33,-1.31c2.7,-2.97 7.15,-6.12 11.51,-9.04c0.51,-0.33 1.02,-0.66 1.53,-0.99c7.26,8.29 24.45,23.99 64.44,48.56c11.61,7.14 23.57,10.71 36.02,10.71c12.57,0 25.64,-3.63 39.42,-10.89c29.8,-15.69 51.83,-44.4 60.45,-78.78c11.69,-46.81 32.06,-118.68 63.07,-197.38c3.05,3.13 7.21,4.81 11.44,4.81c0.81,0 1.61,-0.06 2.42,-0.18c-32.35,81.7 -52.91,155.38 -63.52,197.84c-9.49,37.88 -33.9,70.82 -68.48,89.03c-14.15,7.45 -30.081,12.67 -46.95,12.67Zm-140.5,-79.33c-15.15,-0.71 -36.75,-3.12 -55.94,-10.4l-0.05,-0.05c0,0 24.42,3.04 55.31,3.04c1.09,0 2.19,-0.01 3.29,-0.01c-1.42,2.25 -2.32,4.8 -2.61,7.42Z" style="fill:#371a45;fill-rule:nonzero;"/><path d="M2240.96,2429.88c-23.76,-34.6 -50.44,-61.89 -79.02,-81.41c25.47,-47.37 47,-89.51 54.12,-109.08c21.31,-58.36 -9.39,-76.86 -9.39,-76.86l-199.47,59.32l231.5,-119.89c5.96,-3.09 9.36,-9.57 8.5,-16.23l-6.06,-46.82c-0.72,-5.62 -4.33,-10.28 -9.25,-12.51l-2.6,-38c0,0 -7.12,0.79 -18.09,0.79c-26.66,0 -76.12,-4.67 -101.68,-36.78c1.99,-5.15 3.07,-10.75 3.07,-16.61l0,-1.99c16.39,8.17 34.82,14.99 53.75,19.71c6.42,1.61 12.64,2.32 18.59,2.32c31.44,0 55.77,-19.75 67.21,-31.18l101.13,24.09c11.59,34.76 52.8,185.22 -40.3,339.05c-28.04,46.32 -51.91,94.91 -72.01,142.08Z" style="fill:#d7d1da;fill-rule:nonzero;"/><path d="M2250.61,2444.61c-3.16,-5.05 -6.38,-9.96 -9.65,-14.73c20.1,-47.17 43.97,-95.76 72.01,-142.08c93.1,-153.83 51.89,-304.29 40.3,-339.05l8.39,2c1.25,0.29 2.49,0.43 3.72,0.43c1,0 1.99,-0.09 2.96,-0.27c14.34,45.79 48.7,193.57 -43.78,346.36c-29.02,47.94 -53.54,98.61 -73.95,147.34Z" style="fill:#371a45;fill-rule:nonzero;"/><path d="M2003.24,2223.02l211.51,-127.83l16.61,-8.599l-0.17,-1.331l4.54,-2.75l-3.84,-56.11c4.92,2.23 8.53,6.89 9.25,12.51l6.06,46.82c0.86,6.66 -2.54,13.14 -8.5,16.23l-231.5,119.89l-3.96,1.17Z" style="fill:#371a45;fill-rule:nonzero;"/><path d="M2435.16,1930.63c-8.17,0 -16.84,-0.66 -26.02,-1.98c14.39,-23.47 23.17,-49.87 25.92,-76.58c36.71,-4.92 66.8,-17.9 77.84,-45c4.72,16.65 7.63,29.4 9.19,36.87c1.71,8.07 1.61,16.09 -0.32,23.85l0,0.02c-3.96,16.05 -13.45,37.94 -36.21,51.04c-13.64,7.85 -30.49,11.78 -50.4,11.78Z" style="fill:#d7d1da;fill-rule:nonzero;"/><path d="M2433.03,1947.76c-10.54,0 -22.14,-0.99 -34.9,-3.16c3.98,-5.14 7.64,-10.46 11.01,-15.95c9.18,1.32 17.85,1.98 26.02,1.98c19.91,0 36.76,-3.93 50.4,-11.78c22.76,-13.1 32.25,-34.99 36.21,-51.04l0,-0.02c1.93,-7.76 2.03,-15.78 0.32,-23.85c-1.56,-7.47 -4.47,-20.22 -9.19,-36.87c3.78,-9.27 5.33,-20.19 4.14,-32.99c9.98,30.22 15.74,54.1 18.6,67.76c2.18,10.26 2.08,20.82 -0.44,31c-6.7,27.18 -28.88,74.92 -102.17,74.92Z" style="fill:#371a45;fill-rule:nonzero;"/><path d="M2080.27,1945.76l-35.12,-33.67c1.73,-5.06 2.48,-10.46 2.17,-15.97l-2.27,-39.91c1.89,-1.59 3.82,-3.23 5.76,-4.89c-0.27,24.53 10.54,47.73 29.89,62.76c0.92,0.72 1.87,1.44 2.83,2.15l0,19.57c0,3.73 -1.2,7.18 -3.26,9.96Zm104.36,-21.92c-3.43,0 -6.95,-0.4 -10.55,-1.3c-28.11,-7.03 -55.69,-19.62 -73.79,-33.68c-13.54,-10.53 -19.95,-28.06 -16.72,-45.75l4.88,-26.7c10.2,16.08 33.86,45.96 68.93,45.96c12.44,0 26.31,-3.76 41.54,-13.22l30.37,-17.68c0,0 86.87,23.07 165.21,23.07c2.64,0 5.26,-0.03 7.88,-0.08c-3.4,23.83 -12.53,47.24 -26.85,67.04c-1.69,-0.46 -3.4,-0.94 -5.11,-1.44c-0.44,-0.15 -0.89,-0.28 -1.36,-0.39l-118.66,-28.25c-1.21,-0.29 -2.44,-0.43 -3.65,-0.43c-0.48,0 -0.96,0.02 -1.43,0.06l-28,-20.69c-1.12,-1.12 -2.56,-1.71 -3.92,-1.71c-1.81,0 -3.5,1.05 -4.14,3.24l-8.26,31.63l13.11,-20.93l14.72,20.18c-8.07,7.87 -24.53,21.07 -44.2,21.07Z" style="fill:#d7d1da;fill-rule:nonzero;"/><path d="M2374.88,1922.38c-1.33,-0.99 -2.82,-1.78 -4.46,-2.32c1.71,0.5 3.42,0.98 5.11,1.44c-0.22,0.3 -0.43,0.59 -0.65,0.88Z" style="fill:#371a45;fill-rule:nonzero;"/><path d="M2214.75,2095.19l16.44,-9.93l0.17,1.331l-16.61,8.599Z" style="fill:#371a45;fill-rule:nonzero;"/><path d="M2082.42,2575.56c-11.599,-5.6 -23.229,-10.95 -35.189,-15.39c-1.05,-2.46 -2,-2.94 -2,-2.94c0,0 1.03,-1.78 2.919,-5.08c11.811,7.23 23.25,15.05 34.27,23.41Z" style="fill:#371a45;fill-rule:nonzero;"/><path d="M1948.62,2704.55c-8.19,-9.45 -8.35,-13.83 -8.35,-14.17c0,0 -3.01,0.17 -8.06,0.17c-3.11,0 -6.98,-0.07 -11.41,-0.28c0.29,-2.62 1.19,-5.17 2.61,-7.42c23.81,-0.17 50.97,-2.22 73.66,-8.81c-11.68,5.92 -23.18,12.15 -34.08,19.17c-0.51,0.33 -1.02,0.66 -1.53,0.99c-4.36,2.92 -8.81,6.07 -11.51,9.04c-0.42,0.46 -0.87,0.9 -1.33,1.31Z" style="fill:#371a45;fill-rule:nonzero;"/><path d="M2237.83,2470.24c-4.23,0 -8.39,-1.68 -11.44,-4.81c-0.79,-0.81 -1.51,-1.72 -2.14,-2.73c-14.42,-23.21 -40.81,-59.59 -77.65,-85.94c5.21,-9.54 10.35,-19.02 15.34,-28.29c28.58,19.52 55.26,46.81 79.02,81.41c3.27,4.77 6.49,9.68 9.65,14.73c-3.58,8.55 -7.03,17.04 -10.36,25.45c-0.81,0.12 -1.61,0.18 -2.42,0.18Z" style="fill:#371a45;fill-rule:nonzero;"/><path d="M2184.93,1955.84c-5.95,0 -12.17,-0.71 -18.59,-2.32c-18.93,-4.72 -37.36,-11.54 -53.75,-19.71l0,-26.86c0,-8.02 -6.5,-14.53 -14.53,-14.53c-8.02,0 -14.53,6.51 -14.53,14.53l0,9.28c-0.96,-0.71 -1.91,-1.43 -2.83,-2.15c-19.35,-15.03 -30.16,-38.23 -29.89,-62.76c-1.94,1.66 -3.87,3.3 -5.76,4.89l-0.52,-9.08c-0.39,-6.82 -5.42,-12.22 -11.85,-13.44l50.09,-27.26c0,0 1.93,4.05 5.68,9.98l-4.88,26.7c-3.23,17.69 3.18,35.22 16.72,45.75c18.1,14.06 45.68,26.65 73.79,33.68c3.6,0.9 7.12,1.3 10.55,1.3c19.67,0 36.13,-13.2 44.2,-21.07l9.28,12.72c2.97,3.64 6.43,5.12 9.73,5.12c9.86,0 18.25,-13.28 7.45,-22.19l-9.97,-7.37c0.47,-0.04 0.95,-0.06 1.43,-0.06c1.21,0 2.44,0.14 3.65,0.43l118.66,28.25c0.47,0.11 0.92,0.24 1.36,0.39c1.64,0.54 3.13,1.33 4.46,2.32c0.22,-0.29 0.43,-0.58 0.65,-0.88c14.32,-19.8 23.45,-43.21 26.85,-67.04c11.23,-0.24 22.23,-0.98 32.68,-2.39c-2.75,26.71 -11.53,53.11 -25.92,76.58c-3.37,5.49 -7.03,10.81 -11.01,15.95c-10.76,-1.84 -22.34,-4.52 -34.82,-8.17c0,0 2.09,5.1 5.03,14.48c-0.97,0.18 -1.96,0.27 -2.96,0.27c-1.23,0 -2.47,-0.14 -3.72,-0.43l-8.39,-2l-101.13,-24.09c-11.44,11.43 -35.77,31.18 -67.21,31.18Z" style="fill:#371a45;fill-rule:nonzero;"/><path d="M2071.95,1951.76l-7.791,-7.8l13.99,4.18c-1.76,1.62 -3.859,2.87 -6.199,3.62Z" style="fill:#d7d1da;fill-rule:nonzero;"/><path d="M2247.84,1920.61c-3.3,0 -6.76,-1.48 -9.73,-5.12l-9.28,-12.72l-14.72,-20.18l-13.11,20.93l8.26,-31.63c0.64,-2.19 2.33,-3.24 4.14,-3.24c1.36,0 2.8,0.59 3.92,1.71l28,20.69l9.97,7.37c10.8,8.91 2.41,22.19 -7.45,22.19Z" style="fill:#371a45;fill-rule:nonzero;"/><path d="M2082.77,1962.59l-10.82,-10.83c2.34,-0.75 4.439,-2 6.199,-3.62l6.691,2l-4.57,-4.38c2.06,-2.78 3.26,-6.23 3.26,-9.96l0,-19.57l0,-9.28c0,-8.02 6.51,-14.53 14.53,-14.53c8.03,0 14.53,6.51 14.53,14.53l0,28.85c0,5.86 -1.08,11.46 -3.07,16.61c-2.76,-3.47 -5.24,-7.25 -7.38,-11.38l-19.37,21.56Z" style="fill:#371a45;fill-rule:nonzero;"/><path d="M2045.15,1912.09l-4.98,-4.78c-2.8,-2.8 -6.47,-4.1 -10.13,-4.1c-0.24,0 -0.48,0 -0.72,0.01l1.48,-68.5l1.88,-1.03c6.43,1.22 11.46,6.62 11.85,13.44l0.52,9.08l2.27,39.91c0.31,5.51 -0.44,10.91 -2.17,15.97Z" style="fill:#371a45;fill-rule:nonzero;"/><path d="M2084.84,1950.14l-6.691,-2l-13.99,-4.18l-34.959,-34.99l0.12,-5.75c0.24,-0.01 0.48,-0.01 0.72,-0.01c3.66,0 7.33,1.3 10.13,4.1l4.98,4.78l35.12,33.67l4.57,4.38Z" style="fill:#371a45;fill-rule:nonzero;"/><path d="M2116.22,1655.85c-70.5,-0.01 -125.94,-13.27 -125.94,-13.27l25.34,-11.98c7.83,-1 15.65,-2.16 23.32,-3.47c91.5,-15.81 175.42,-55.34 244.38,-112.47c17.84,5.41 48.5,17.1 80.71,40.19c-58.7,82.22 -163.93,101 -247.81,101Z" style="fill:#d7d1da;fill-rule:nonzero;"/><path d="M2364.03,1554.85c-32.21,-23.09 -62.87,-34.78 -80.71,-40.19c4.7,-3.89 9.34,-7.87 13.9,-11.92l79.45,32.07c-3.92,7.07 -8.14,13.73 -12.64,20.04Z" style="fill:#371a45;fill-rule:nonzero;"/><path d="M1528.68,1389.97c44.13,69.94 106.21,129.17 182.71,170.32c15.6,8.39 31.75,16.03 48.47,22.84c8.13,3.34 16.45,6.46 24.89,9.44c25.48,8.87 51.2,15.55 77,20.15c22.22,4.02 44.52,6.46 66.67,7.46c26.76,1.21 53.38,0.24 79.62,-2.75c9.56,-1.12 19.07,-2.49 28.52,-4.1c172.89,-29.86 325.46,-148.43 388.93,-323.35c93.56,-257.66 -41.66,-539.912 -301.95,-630.471c-50.141,-17.405 -101.31,-26.518 -151.85,-27.866c-5.91,-0.214 -11.84,-0.258 -17.77,-0.179c-15.86,0.106 -31.63,0.953 -47.27,2.536c-36.16,3.675 -71.66,11.248 -105.83,22.383c-34.18,11.094 -67.11,25.798 -98.11,43.774c-9.86,5.708 -19.53,11.738 -29.01,18.127c-14.2,9.582 -27.93,19.838 -41.15,30.889c-65.96,54.829 -118.6,127.088 -149.75,212.93c-53.83,148.207 -31.93,304.537 45.88,427.867Z" style="fill:#fff;fill-rule:nonzero;"/><path d="M1529.87,1389.22c44.88,71.12 107.88,129.85 182.19,169.83c15.75,8.47 32.02,16.13 48.33,22.78c7.52,3.08 15.64,6.16 24.83,9.42c25.04,8.71 50.88,15.46 76.78,20.09c21.71,3.92 44.08,6.42 66.49,7.43c26.23,1.18 52.94,0.27 79.38,-2.74c9.55,-1.12 19.12,-2.5 28.45,-4.08c178.23,-30.79 326.85,-154.35 387.85,-322.45c44.93,-123.76 38.67,-257.13 -17.63,-375.55c-56.76,-119.37 -157.43,-209.258 -283.46,-253.106c-49.171,-17.075 -100.12,-26.421 -151.43,-27.792c-5.62,-0.201 -11.42,-0.264 -17.71,-0.177c-15.76,0.104 -31.62,0.958 -47.15,2.525c-35.7,3.633 -71.22,11.143 -105.54,22.319c-33.99,11.04 -66.91,25.728 -97.83,43.657c-9.95,5.757 -19.68,11.836 -28.93,18.077c-14.43,9.741 -28.24,20.107 -41.04,30.801c-67.71,56.284 -119.35,129.707 -149.33,212.329c-51.87,142.837 -35.2,298.337 45.75,426.637Zm420.9,232.87c-7.5,0 -14.97,-0.17 -22.41,-0.5c-22.53,-1.01 -45.03,-3.53 -66.86,-7.48c-26.04,-4.65 -52.03,-11.44 -77.22,-20.2c-9.24,-3.28 -17.4,-6.37 -24.96,-9.48c-16.4,-6.68 -32.75,-14.38 -48.6,-22.9c-74.74,-40.21 -138.1,-99.27 -183.23,-170.81c-81.42,-129.04 -98.19,-285.44 -46.01,-429.099c30.14,-83.091 82.07,-156.929 150.17,-213.53c12.86,-10.757 26.75,-21.177 41.27,-30.972c9.3,-6.275 19.09,-12.393 29.08,-18.184c31.1,-18.028 64.2,-32.798 98.38,-43.892c34.51,-11.245 70.22,-18.793 106.13,-22.446c15.61,-1.577 31.56,-2.436 47.4,-2.543c6.32,-0.084 12.17,-0.02 17.83,0.185c51.58,1.372 102.82,10.776 152.27,27.94c126.75,44.1 227.99,134.501 285.07,254.56c56.63,119.111 62.93,253.251 17.73,377.721c-61.33,169.05 -210.78,293.3 -390.01,324.26c-9.38,1.6 -19,2.99 -28.6,4.11c-19.1,2.17 -38.33,3.26 -57.43,3.26Z" style="fill:#371a45;fill-rule:nonzero;"/><path d="M1872.67,1598.83c-3.17,0 -6.36,-0.02 -9.54,-0.08c-24.89,-4.5 -49.71,-11.03 -73.71,-19.38c-0.64,-0.22 -1.26,-0.44 -1.89,-0.66c-8.22,-2.94 -15.55,-5.73 -22.39,-8.54c-14.66,-5.98 -29.28,-12.79 -43.51,-20.29c-1.21,-0.63 -2.41,-1.27 -3.61,-1.92c-8.41,-4.52 -16.66,-9.29 -24.76,-14.29c59,22.33 120.5,33.54 181.23,33.54c80.45,0 159.53,-19.69 229.55,-59.3c86.3,-48.82 148.32,-122.18 180.53,-210.46c5.7,-7.14 11.22,-14.45 16.55,-21.93c6.13,7.37 12.77,14.13 19.87,20.18c-21.06,64.06 -56.63,121.32 -105.72,169.38c-87.25,85.39 -211.53,133.76 -342.6,133.75Zm185.009,-3.94c66.951,-24.12 127.671,-61.35 177.171,-109.81c50.38,-49.31 87.38,-107.62 110.09,-172.68c15.96,8.82 32.76,13.81 49.84,14.83c-64.15,135.16 -188.82,234.6 -337.101,267.66Zm349.671,-647.688c-5.08,-0.714 -10.2,-1.072 -15.34,-1.072c-0.3,0 -0.6,0.001 -0.9,0.003c-1.45,-16.21 -3.72,-32.283 -6.76,-48.162c3.77,7.014 7.37,14.143 10.82,21.384c4.37,9.195 8.43,18.479 12.18,27.847Z" style="fill:#d7d1da;fill-rule:nonzero;"/><path d="M1537.86,1384.18c44.01,69.75 105.79,127.34 178.67,166.56c15.46,8.3 31.42,15.82 47.42,22.34c7.4,3.04 15.37,6.06 24.42,9.26c24.52,8.53 49.87,15.16 75.28,19.7c21.33,3.86 43.28,6.31 65.26,7.3c25.77,1.17 51.96,0.26 77.9,-2.69c9.35,-1.1 18.76,-2.45 27.93,-4.01c174.88,-30.21 320.71,-151.44 380.55,-316.36c44.07,-121.37 37.93,-252.15 -17.28,-368.277c-55.67,-117.071 -154.41,-205.23 -278.03,-248.243c-48.26,-16.747 -98.24,-25.923 -148.58,-27.266c-5.56,-0.204 -11.19,-0.268 -17.34,-0.18c-15.53,0.107 -31.09,0.942 -46.31,2.48c-35.04,3.565 -69.89,10.933 -103.57,21.905c-33.38,10.835 -65.68,25.248 -96.02,42.846c-9.77,5.65 -19.32,11.617 -28.39,17.739c-14.17,9.556 -27.72,19.727 -40.26,30.215c-66.45,55.23 -117.1,127.257 -146.51,208.306c-50.87,140.075 -34.52,292.565 44.86,418.375Zm412.91,247.35c-7.64,0 -15.26,-0.17 -22.83,-0.51c-22.95,-1.03 -45.87,-3.59 -68.12,-7.62c-26.51,-4.73 -52.98,-11.65 -78.64,-20.58c-9.44,-3.33 -17.75,-6.49 -25.45,-9.65c-16.68,-6.8 -33.34,-14.65 -49.48,-23.32c-76.17,-40.98 -140.75,-101.18 -186.75,-174.09c-82.98,-131.53 -100.08,-290.94 -46.9,-437.362c30.72,-84.663 83.63,-159.897 153.01,-217.568c13.09,-10.947 27.24,-21.562 42.02,-31.538c9.49,-6.397 19.46,-12.632 29.64,-18.526c31.67,-18.364 65.38,-33.403 100.2,-44.707c35.14,-11.445 71.51,-19.141 108.08,-22.856c15.91,-1.612 32.16,-2.481 48.29,-2.588c6.45,-0.083 12.43,-0.029 18.24,0.185c52.46,1.397 104.65,10.977 155.02,28.458c129.17,44.941 232.34,137.069 290.51,259.428c57.73,121.404 64.15,258.134 18.08,385.004c-62.5,172.22 -214.72,298.8 -397.29,330.34c-9.56,1.63 -19.34,3.03 -29.1,4.18c-19.47,2.21 -39.08,3.32 -58.53,3.32Z" style="fill:#371a45;fill-rule:nonzero;"/><path d="M1540.52,1382.5c43.72,69.29 105.1,126.51 177.5,165.46c15.36,8.26 31.22,15.73 47.12,22.21c7.36,3.02 15.28,6.03 24.28,9.2c24.35,8.48 49.54,15.07 74.79,19.57c21.19,3.83 43,6.27 64.84,7.26c25.59,1.16 51.62,0.25 77.4,-2.68c9.29,-1.09 18.64,-2.43 27.76,-3.98c173.76,-30.02 318.66,-150.47 378.12,-314.33c43.78,-120.57 37.69,-250.5 -17.16,-365.855c-55.3,-116.304 -153.4,-203.887 -276.23,-246.621c-47.94,-16.645 -97.61,-25.762 -147.62,-27.094c-5.54,-0.201 -11.13,-0.265 -17.22,-0.177c-15.45,0.104 -30.91,0.933 -46.04,2.467c-34.81,3.535 -69.44,10.859 -102.91,21.762c-33.16,10.767 -65.26,25.088 -95.42,42.573c-9.7,5.621 -19.19,11.548 -28.2,17.627c-14.08,9.497 -27.54,19.6 -40,30.025c-66.03,54.877 -116.35,126.435 -145.57,206.962c-50.53,139.151 -34.28,290.641 44.56,415.621Zm410.24,252.18c-7.68,0 -15.34,-0.17 -22.97,-0.52c-23.09,-1.03 -46.15,-3.61 -68.53,-7.66c-26.67,-4.76 -53.3,-11.72 -79.11,-20.7c-9.5,-3.36 -17.86,-6.54 -25.61,-9.72c-16.78,-6.84 -33.54,-14.73 -49.78,-23.45c-76.65,-41.25 -141.63,-101.83 -187.92,-175.19c-83.51,-132.36 -100.71,-292.77 -47.2,-440.117c30.91,-85.185 84.15,-160.888 153.96,-218.916c13.16,-11.009 27.4,-21.689 42.27,-31.728c9.55,-6.435 19.58,-12.705 29.82,-18.638c31.86,-18.471 65.78,-33.602 100.81,-44.975c35.34,-11.513 71.93,-19.253 108.74,-22.993c16,-1.621 32.35,-2.495 48.58,-2.608c6.46,-0.088 12.51,-0.024 18.37,0.191c52.76,1.407 105.27,11.04 155.94,28.628c129.97,45.22 233.78,137.925 292.33,261.05c58.08,122.176 64.55,259.756 18.19,387.426c-62.88,173.28 -216.04,300.64 -399.71,332.37c-9.62,1.64 -19.46,3.05 -29.28,4.21c-19.59,2.22 -39.32,3.34 -58.9,3.34Z" style="fill:#371a45;fill-rule:nonzero;"/><path d="M1609.75,1487.64c304.96,182.96 694.86,13.05 695.12,-336.98c0.17,-238.145 -235.87,-420.534 -467.56,-404.443c-168.62,11.711 -328.58,95.937 -383.56,359.163c0,0 -6.13,120.11 31.35,197.37c37.49,77.27 87.19,146.07 87.19,146.07l37.46,38.82Z" style="fill:#f58600;fill-rule:nonzero;"/><path d="M2304.85,1150.66c-0.25,350.02 -390.15,519.93 -695.1,336.99l-7.59,-7.87c325.7,35.82 635.54,-175.49 642.46,-529.434c37.86,58.644 60.28,126.824 60.23,200.314Z" style="fill:#c06900;fill-rule:nonzero;"/><path d="M1863.13,1598.75c134.56,2.41 262.78,-46.22 352.14,-133.67c83.83,-82.07 128.2,-190.91 128.31,-314.74c0.08,-113.01 -49.35,-221.449 -139.2,-305.345c-100.55,-93.877 -239.36,-144.439 -371.37,-135.288c-73.04,5.072 -137.85,22.285 -192.62,51.157c-65.45,54.731 -115.38,125.943 -144.43,206.015c-50.53,139.151 -34.28,290.641 44.56,415.621c43.72,69.29 105.1,126.51 177.5,165.46c15.36,8.26 31.22,15.73 47.12,22.21c7.36,3.02 15.28,6.03 24.28,9.2c24,8.35 48.82,14.88 73.71,19.38Zm9.77,28.09c-3.82,0 -7.62,-0.04 -11.44,-0.12l-2.17,-0.22c-26.7,-4.76 -53.33,-11.72 -79.14,-20.7c-9.5,-3.36 -17.86,-6.54 -25.61,-9.72c-16.78,-6.84 -33.54,-14.73 -49.78,-23.45c-76.65,-41.25 -141.63,-101.83 -187.92,-175.19c-83.51,-132.36 -100.71,-292.77 -47.2,-440.117c30.91,-85.185 84.15,-160.888 153.96,-218.916l1.1,-0.917l1.27,-0.674c58.54,-31.133 127.54,-49.653 205.1,-55.039c139.69,-9.687 286.3,43.672 392.42,142.754c95.59,89.252 148.18,204.969 148.08,325.829c-0.11,131.53 -47.38,247.28 -136.72,334.72c-92.38,90.43 -223.76,141.76 -361.95,141.76Z" style="fill:#371a45;fill-rule:nonzero;"/><path d="M1612.89,1483.69c154.01,92.14 340.25,98.1 486.23,15.51c127.47,-72.11 200.64,-199.15 200.75,-348.55c0.07,-102.63 -44.75,-201.046 -126.22,-277.105c-90.92,-84.898 -216.55,-130.649 -335.99,-122.339c-205.12,14.248 -332.61,133.628 -378.93,354.804c-0.32,7.45 -4.58,121.48 30.87,194.56c35.66,73.51 83.04,140.15 86.55,145.04l36.74,38.08Zm261.6,83.52c-91.05,0 -183.84,-25.21 -267.31,-75.28l-1.03,-0.82l-37.91,-39.36c-0.49,-0.69 -50.4,-70.05 -87.64,-146.81c-37.61,-77.53 -32.1,-194.86 -31.84,-199.81l0.1,-0.77c47.27,-226.352 177.86,-348.526 388.1,-363.135c122.23,-8.427 250.59,38.247 343.52,125.015c83.51,77.969 129.46,178.98 129.38,284.42c-0.11,153.1 -75.13,283.31 -205.82,357.25c-70.02,39.61 -149.1,59.3 -229.55,59.3Z" style="fill:#371a45;fill-rule:nonzero;"/><path d="M2525.3,1114.53c11.81,96.76 -36.19,185.17 -107.24,197.45c-71.05,12.29 -138.23,-56.2 -150.05,-152.95c-0.08,-0.61 -0.14,-1.25 -0.2,-1.87c-11,-96.02 36.88,-183.39 107.44,-195.583c54.89,-9.494 107.46,29.222 134,91.923c7.8,18.46 13.36,39.03 16.05,61.03Z" style="fill:#fff;fill-rule:nonzero;"/><path d="M2401.52,1299.4c-19.17,0 -38.2,-6.69 -55.72,-19.7c-31.5,-23.41 -54.42,-64.89 -62.43,-112.33c3.51,1.33 7.28,2.12 11.29,2.12c3.67,0 7.55,-0.67 11.6,-2.22c10.61,-4.06 23.5,-16.71 35.44,-30.89c0.05,7.77 0.53,15.66 1.46,23.62c8.43,71.36 50.9,124.05 98.55,126.38c0.04,0 0.09,0 0.13,0.01c1.05,0.04 2.11,0.07 3.16,0.07c0.57,0 1.15,-0.01 1.72,-0.02c-9.61,5.81 -20.02,9.83 -31.04,11.74c-4.72,0.81 -9.45,1.22 -14.16,1.22Z" style="fill:#d7d1da;fill-rule:nonzero;"/><path d="M2391.82,974.15c-4.72,0 -9.45,0.406 -14.17,1.221c-63.7,11.011 -106.65,92.629 -95.74,181.939c6.3,51.59 30.18,97.34 63.89,122.39c21.83,16.21 46,22.61 69.88,18.48c63.7,-11.01 106.65,-92.63 95.73,-181.95c-6.3,-51.58 -30.18,-97.33 -63.88,-122.378c-17.52,-13.013 -36.54,-19.702 -55.71,-19.702Zm9.5,353.27c-25.12,0 -49.77,-8.57 -72.22,-25.25c-40.33,-29.97 -67.66,-81.53 -74.98,-141.46c-12.7,-103.89 40.58,-199.416 118.76,-212.928c31.62,-5.468 63.21,2.691 91.35,23.599c40.33,29.969 67.66,81.529 74.98,141.459c12.69,103.9 -40.59,199.42 -118.77,212.93c-6.38,1.1 -12.77,1.65 -19.12,1.65Z" style="fill:#371a45;fill-rule:nonzero;"/><path d="M2537.23,1124.9c9.32,78.93 -26.56,150.77 -80.15,160.47c-53.59,9.7 -104.58,-46.43 -113.91,-125.35c-9.32,-78.93 26.57,-150.78 80.15,-160.472c53.59,-9.695 104.59,46.432 113.91,125.352Z" style="fill:#fff;fill-rule:nonzero;"/><path d="M2341.7,1136.38c-0.05,-8.24 0.39,-16.34 1.27,-24.23c0,0.01 0,0.02 0.01,0.03c-0.89,7.88 -1.33,15.96 -1.28,24.2Z" style="fill:#d7d1da;fill-rule:nonzero;"/><path d="M2441.71,1286.38c-47.65,-2.33 -90.12,-55.02 -98.55,-126.38c-0.93,-7.96 -1.41,-15.85 -1.46,-23.62c0.05,7.77 0.53,15.67 1.47,23.64c8.43,71.33 50.89,124.03 98.54,126.36Z" style="fill:#b7acbc;fill-rule:nonzero;"/><path d="M2536.61,1120.11l0,-0.02l0,0.02Zm-0.04,-0.3c-0.11,-0.75 -0.22,-1.5 -0.34,-2.25c0.12,0.75 0.23,1.5 0.34,2.25Zm-0.36,-2.42c-0.01,-0.02 -0.01,-0.05 -0.01,-0.07c0,0.02 0,0.05 0.01,0.07Z" style="fill:#371a45;fill-rule:nonzero;"/><path d="M2444.99,1286.46c-1.05,0 -2.1,-0.03 -3.15,-0.07c-0.04,-0.01 -0.09,-0.01 -0.13,-0.01c-47.65,-2.33 -90.11,-55.03 -98.54,-126.36c-0.94,-7.97 -1.42,-15.87 -1.47,-23.64c-0.05,-8.24 0.39,-16.32 1.28,-24.2c15.56,57.44 54.52,96.97 97.01,96.97c4.04,0 8.12,-0.36 12.21,-1.09c41.68,-7.5 72.8,-51.91 80.56,-108.01c1.36,5.6 2.52,11.36 3.44,17.27c0,0.02 0,0.05 0.01,0.07c0.01,0.06 0.02,0.11 0.02,0.17c0.12,0.75 0.23,1.5 0.34,2.25c0.01,0.09 0.02,0.18 0.04,0.28l0,0.02c0.22,1.59 0.43,3.18 0.61,4.78c9.33,78.95 -26.54,150.78 -80.15,160.48c-4.05,0.73 -8.08,1.09 -12.08,1.09Z" style="fill:#d7d1da;fill-rule:nonzero;"/><path d="M2435.33,1012.47c-3.18,0 -6.36,0.28 -9.51,0.85c-45.58,8.25 -77.06,74.67 -68.74,145.05c5.12,43.41 24.04,81.06 50.61,100.72c14.91,11.04 31.14,15.35 46.9,12.51c45.57,-8.25 77.05,-74.68 68.74,-145.06c-5.13,-43.41 -24.05,-81.06 -50.61,-100.72c-11.93,-8.82 -24.69,-13.35 -37.39,-13.35Zm9.56,288c-18.63,0 -37,-6.4 -53.86,-18.87c-32.65,-24.17 -55.74,-69.01 -61.76,-119.95c-10.33,-87.47 29.88,-164.722 91.56,-175.874c23.57,-4.272 47.27,1.807 68.54,17.544c32.66,24.16 55.75,69 61.76,119.94c10.34,87.47 -29.88,164.73 -91.55,175.89c-4.9,0.88 -9.8,1.32 -14.69,1.32Z" style="fill:#371a45;fill-rule:nonzero;"/><path d="M1620.25,1325.33c-54.57,-42.19 -87.48,-92.58 -94.17,-165.9c-0.64,-7.23 -1.03,-14.71 -1.18,-22.4c-0.04,-1.77 -0.04,-3.53 -0.02,-5.3l0.02,-0.11c0.8,-15.61 2.63,-26.09 6.65,-49.03c12.08,-69.21 43.87,-160.857 126.6,-209.231c68.49,-40.047 137.71,-51.976 193,-51.976c69.59,0 117.11,18.88 113.43,24.36c0,0 -1.83,-0.059 -5.24,-0.059c-32.88,0 -212.9,5.502 -312.37,122.925c-0.12,0.136 -0.23,0.272 -0.35,0.408c-23.07,27.289 -43.29,95.203 -49.31,130.173c-7.97,46.24 -6.6,69.21 -4.26,98.18c7.14,88.11 27.2,127.96 27.2,127.96Z" style="fill:#9b8da2;fill-rule:nonzero;"/><path d="M2130.15,1176.15c-28.98,0 -57.521,-20.82 -69.231,-53.29c-14.429,-39.99 2.131,-82.5 36.971,-94.96c6.55,-2.34 13.27,-3.45 19.97,-3.45c28.98,0 57.52,20.82 69.23,53.29c14.42,39.98 -2.13,82.5 -36.97,94.96c-6.55,2.34 -13.27,3.45 -19.97,3.45Z" style="fill:#9b8da2;fill-rule:nonzero;"/><path d="M2146.59,1253.96c-0.11,-0.23 -0.22,-0.45 -0.32,-0.68c-7.35,-15.94 -2.03,-33.99 11.87,-40.32c3.28,-1.49 6.74,-2.19 10.21,-2.19c1.92,0 3.85,0.21 5.75,0.63c-8.5,14.72 -17.69,28.91 -27.51,42.56Z" style="fill:#9b8da2;fill-rule:nonzero;"/><path d="M2174.54,1272.9c-11.05,0 -22.23,-7.16 -27.95,-18.94c9.82,-13.65 19.01,-27.84 27.51,-42.56c9.24,2.05 17.87,8.88 22.52,18.99c7.35,15.94 2.04,33.99 -11.87,40.32c-3.27,1.49 -6.73,2.19 -10.21,2.19Z" style="fill:#918796;fill-rule:nonzero;"/><path d="M2955.45,1410.15l32.41,55.66l64.22,4.84c18.3,1.39 27.07,23.14 14.84,36.82l-42.91,48.03l15.23,62.57c4.34,17.83 -13.64,32.89 -30.43,25.49l-58.93,-25.97l-54.81,33.82c-15.61,9.64 -35.49,-2.81 -33.64,-21.06l6.49,-64.08l-49.11,-41.67c-13.98,-11.87 -8.29,-34.62 9.64,-38.5l62.94,-13.63l24.46,-59.58c6.97,-16.97 30.37,-18.59 39.6,-2.74Z" style="fill:#f58600;fill-rule:nonzero;"/><path d="M3017.77,1645.49c-2.93,0 -5.95,-0.6 -8.94,-1.91l-58.94,-25.97l-25.64,15.8l25.63,-15.82l58.93,25.97c3,1.32 6.04,1.93 8.98,1.93c1.92,0 3.81,-0.26 5.61,-0.75c-1.81,0.49 -3.7,0.75 -5.63,0.75Zm6.24,-89.99l42.91,-48.03c12.23,-13.68 3.46,-35.43 -14.84,-36.82l-3.68,-0.27l0,-0.01l3.7,0.27c18.29,1.4 27.06,23.17 14.82,36.85l-42.91,48.01Z" style="fill:#c49fda;fill-rule:nonzero;"/><path d="M2883.49,1654.75c-8.94,0 -17.3,-5.59 -20.64,-13.98c3.34,8.38 11.67,13.95 20.58,13.95c1.56,0 3.14,-0.17 4.72,-0.53c-0.32,-1.85 -0.41,-3.79 -0.18,-5.78l3.01,-29.67l34.79,-21.46l58.94,25.97c3,1.32 6.03,1.92 8.97,1.92c13.53,0 25.04,-12.77 21.48,-27.43l-15.23,-62.56l42.91,-48.01c4.43,-4.97 6.1,-11.02 5.56,-16.79l3.68,0.27c18.3,1.39 27.07,23.14 14.84,36.82l-42.91,48.03l0,0.01l15.22,62.55c3.05,12.57 -4.97,23.75 -15.83,26.68c-1.8,0.49 -3.69,0.75 -5.61,0.75c-2.94,0 -5.98,-0.61 -8.98,-1.93l-58.93,-25.97l-25.63,15.82l-29.19,17.98c-3.73,2.32 -7.7,3.36 -11.57,3.36Zm-20.65,-14c-0.01,-0.01 -0.02,-0.03 -0.02,-0.04c0,0.01 0.01,0.03 0.02,0.04Z" style="fill:#f58600;fill-rule:nonzero;"/><path d="M2862.85,1640.77c-0.01,0 -0.01,-0.01 -0.01,-0.02c0,0.01 0,0.02 0.01,0.02Z" style="fill:#ffeeb6;fill-rule:nonzero;"/><path d="M2861.77,1637.22c-0.46,-2.17 -0.6,-4.47 -0.36,-6.87l6.5,-64.08l0.01,0l-6.49,64.08c-0.14,1.36 -0.16,2.68 -0.06,3.97l-0.01,0c0.04,0.52 0.1,1.04 0.17,1.54c0.07,0.46 0.15,0.91 0.24,1.36Zm-31.77,-103.12l-11.18,-9.49c-14,-11.88 -8.31,-34.64 9.62,-38.52l62.96,-13.64l24.43,-59.58c1.7,-4.09 4.35,-7.29 7.52,-9.57c-3.17,2.28 -5.82,5.49 -7.5,9.59l-24.46,59.58l-62.94,13.63c-17.93,3.88 -23.62,26.63 -9.64,38.5l11.19,9.5Z" style="fill:#f6e7ff;fill-rule:nonzero;"/><path d="M2862.82,1640.71c-0.44,-1.12 -0.8,-2.28 -1.05,-3.49c-0.09,-0.45 -0.17,-0.9 -0.24,-1.36c0.25,1.7 0.69,3.32 1.29,4.85Zm-1.45,-6.39c-0.1,-1.29 -0.08,-2.61 0.06,-3.97l6.49,-64.08l-0.01,0l0,-0.01l-37.91,-32.16l-11.19,-9.5c-13.98,-11.87 -8.29,-34.62 9.64,-38.5l62.94,-13.63l24.46,-59.58c1.68,-4.1 4.33,-7.31 7.5,-9.59c3.83,-2.74 8.42,-4.13 13.02,-4.13c7.38,0 14.77,3.59 19.08,10.99l4.24,7.32c-7.27,1.04 -14.05,5.55 -17.3,13.46l-24.48,59.57l-62.91,13.64c-17.94,3.89 -23.63,26.65 -9.67,38.53l49.14,41.64l-3.49,34.42l-20,12.33c-3.11,1.9 -6.36,2.93 -9.61,3.25Z" style="fill:#ffeeb6;fill-rule:nonzero;"/><path d="M2861.53,1635.86c-0.07,-0.5 -0.13,-1.02 -0.17,-1.54l0.01,0c0.03,0.52 0.09,1.04 0.16,1.54Z" style="fill:#e8daf1;fill-rule:nonzero;"/><path d="M2883.43,1654.72c-8.91,0 -17.24,-5.57 -20.58,-13.95c-0.01,0 -0.01,-0.01 -0.01,-0.02c-0.01,-0.01 -0.02,-0.03 -0.02,-0.04c-0.6,-1.53 -1.04,-3.15 -1.29,-4.85c-0.07,-0.5 -0.13,-1.02 -0.16,-1.54c3.25,-0.32 6.5,-1.35 9.61,-3.25l20,-12.33l-3.01,29.67c-0.23,1.99 -0.14,3.93 0.18,5.78c-1.58,0.36 -3.16,0.53 -4.72,0.53Z" style="fill:#efdfb6;fill-rule:nonzero;"/><path d="M2936.34,1412.71c-0.23,0 -0.43,0.01 -0.61,0.02c-1.59,0.11 -5.51,0.85 -7.34,5.31l-24.46,59.57c-1.7,4.13 -5.31,7.16 -9.67,8.1l-62.94,13.63c-4.71,1.02 -6.12,4.75 -6.51,6.3c-0.39,1.56 -0.9,5.52 2.77,8.63l49.11,41.67c3.39,2.89 5.16,7.26 4.71,11.7l-6.49,64.07c-0.48,4.79 2.63,7.29 3.99,8.14c1.36,0.86 4.97,2.57 9.06,0.03l54.8,-33.82c3.8,-2.35 8.5,-2.68 12.58,-0.87l58.93,25.97c4.4,1.94 7.75,-0.24 8.98,-1.28c1.23,-1.03 3.97,-3.93 2.83,-8.61l-15.23,-62.57c-1.06,-4.33 0.08,-8.91 3.06,-12.23l42.91,-48.02c3.21,-3.6 2.16,-7.44 1.56,-8.93c-0.6,-1.49 -2.51,-4.99 -7.32,-5.36l-64.22,-4.84c-4.45,-0.34 -8.44,-2.84 -10.69,-6.69l-32.41,-55.65c-2.16,-3.71 -5.55,-4.27 -7.4,-4.27Zm-52.89,255.59c-6.55,0 -13.1,-1.83 -18.93,-5.47c-11.6,-7.26 -17.95,-20.23 -16.57,-33.85l5.77,-56.98l-43.67,-37.06c-10.43,-8.86 -14.85,-22.6 -11.53,-35.87c3.32,-13.27 13.68,-23.32 27.06,-26.22l55.98,-12.12l21.76,-52.99c5.19,-12.65 16.9,-21.1 30.55,-22.05c13.66,-0.88 26.41,5.82 33.29,17.64l28.83,49.5l57.11,4.31c13.65,1.03 25.3,9.56 30.42,22.25c5.11,12.69 2.62,26.91 -6.5,37.11l-38.16,42.71l13.55,55.66c3.24,13.29 -1.27,27 -11.76,35.79c-10.49,8.79 -24.79,10.81 -37.3,5.3l-52.42,-23.1l-48.74,30.08c-5.79,3.58 -12.26,5.36 -18.74,5.36Z" style="fill:#371a45;fill-rule:nonzero;"/><path d="M998.204,1613.81l32.416,55.66l64.21,4.84c18.3,1.39 27.07,23.14 14.84,36.82l-42.91,48.03l15.24,62.57c4.33,17.82 -13.65,32.89 -30.44,25.49l-58.929,-25.97l-54.805,33.82c-15.61,9.64 -35.493,-2.81 -33.645,-21.06l6.489,-64.08l-49.104,-41.67c-13.987,-11.87 -8.293,-34.62 9.637,-38.5l62.943,-13.63l24.456,-59.58c6.967,-16.97 30.369,-18.59 39.602,-2.74Z" style="fill:#f58600;fill-rule:nonzero;"/><path d="M1060.53,1849.15c-2.93,0 -5.96,-0.6 -8.95,-1.91l-58.938,-25.97l-25.403,15.65l25.392,-15.67l58.929,25.97c3,1.32 6.04,1.93 8.98,1.93c2.03,0 4.01,-0.29 5.91,-0.83c-1.9,0.54 -3.89,0.83 -5.92,0.83Zm6.23,-89.99l42.91,-48.03c12.23,-13.68 3.46,-35.43 -14.84,-36.82l-3.68,-0.27l0,-0.01l3.7,0.27c18.3,1.4 27.06,23.17 14.82,36.85l-42.91,48.01Z" style="fill:#c49fda;fill-rule:nonzero;"/><path d="M926.244,1858.41c-8.755,0 -16.949,-5.36 -20.43,-13.45c3.479,8.08 11.644,13.42 20.367,13.42c1.563,0 3.144,-0.17 4.719,-0.53c-0.317,-1.85 -0.407,-3.79 -0.181,-5.78l3.012,-29.67l34.793,-21.46l58.946,25.97c2.989,1.32 6.02,1.92 8.96,1.92c13.54,0 25.04,-12.77 21.48,-27.43l-15.221,-62.56l42.901,-48.01c4.43,-4.97 6.1,-11.01 5.56,-16.79l3.68,0.27c18.3,1.39 27.07,23.14 14.84,36.82l-42.91,48.03l15.22,62.56c3.03,12.45 -4.82,23.54 -15.53,26.6c-1.9,0.54 -3.88,0.83 -5.91,0.83c-2.94,0 -5.98,-0.61 -8.98,-1.93l-58.929,-25.97l-25.392,15.67l-29.429,18.13c-3.726,2.32 -7.701,3.36 -11.566,3.36Zm-20.447,-13.49c-0.01,-0.03 -0.019,-0.05 -0.028,-0.07c0.009,0.02 0.018,0.04 0.028,0.07Zm-0.067,-0.16c0,0 -0.001,-0.01 -0.002,-0.01c0.001,0 0.002,0.01 0.002,0.01Z" style="fill:#f58600;fill-rule:nonzero;"/><path d="M905.814,1844.96c-0.006,-0.02 -0.011,-0.03 -0.017,-0.04c0.006,0.01 0.011,0.02 0.017,0.04Zm-0.045,-0.11c-0.013,-0.03 -0.026,-0.06 -0.039,-0.09c0.013,0.03 0.026,0.06 0.039,0.09Z" style="fill:#ffeeb6;fill-rule:nonzero;"/><path d="M904.549,1841.01c-0.478,-2.21 -0.629,-4.55 -0.388,-7l6.503,-64.08l0.006,0l-6.489,64.08c-0.137,1.36 -0.155,2.68 -0.062,3.97l-0.003,0c0.041,0.56 0.103,1.11 0.184,1.65c0.069,0.47 0.152,0.93 0.249,1.38Zm-30.666,-102.29l-12.313,-10.45c-14.002,-11.88 -8.311,-34.64 9.62,-38.53l62.962,-13.64l24.435,-59.57c1.682,-4.07 4.31,-7.25 7.461,-9.53c-3.148,2.28 -5.772,5.47 -7.446,9.55l-24.456,59.58l-62.943,13.63c-17.93,3.88 -23.624,26.63 -9.637,38.5l12.317,10.46Z" style="fill:#f6e7ff;fill-rule:nonzero;"/><path d="M905.728,1844.75c-0.499,-1.19 -0.896,-2.44 -1.179,-3.74c-0.097,-0.45 -0.18,-0.91 -0.249,-1.38c0.27,1.8 0.756,3.52 1.428,5.12Zm-1.609,-6.77c-0.093,-1.29 -0.075,-2.61 0.062,-3.97l6.489,-64.08l-0.006,0l0.001,-0.01l-36.782,-31.2l-12.317,-10.46c-13.987,-11.87 -8.293,-34.62 9.637,-38.5l62.943,-13.63l24.456,-59.58c1.674,-4.08 4.298,-7.27 7.446,-9.55c3.838,-2.76 8.453,-4.18 13.075,-4.18c7.376,0 14.771,3.6 19.075,11l4.242,7.32c-7.268,1.04 -14.043,5.55 -17.296,13.46l-24.48,59.57l-62.916,13.64c-17.932,3.88 -23.622,26.65 -9.665,38.53l49.14,41.64l-3.492,34.42l-19.995,12.33c-3.115,1.89 -6.367,2.93 -9.617,3.25Z" style="fill:#ffeeb6;fill-rule:nonzero;"/><path d="M904.3,1839.63c-0.081,-0.54 -0.143,-1.09 -0.184,-1.65l0.003,0c0.04,0.56 0.101,1.11 0.181,1.65Z" style="fill:#e8daf1;fill-rule:nonzero;"/><path d="M926.181,1858.38c-8.723,0 -16.888,-5.34 -20.367,-13.42c-0.006,-0.02 -0.011,-0.03 -0.017,-0.04c-0.01,-0.03 -0.019,-0.05 -0.028,-0.07c-0.013,-0.03 -0.026,-0.06 -0.039,-0.09c0,0 -0.001,-0.01 -0.002,-0.01c-0.672,-1.6 -1.158,-3.32 -1.428,-5.12c-0.08,-0.54 -0.141,-1.09 -0.181,-1.65c3.25,-0.32 6.502,-1.36 9.617,-3.25l19.995,-12.33l-3.012,29.67c-0.226,1.99 -0.136,3.93 0.181,5.78c-1.575,0.36 -3.156,0.53 -4.719,0.53Z" style="fill:#efdfb6;fill-rule:nonzero;"/><path d="M979.094,1616.37c-0.23,0 -0.43,0.01 -0.606,0.02c-1.601,0.11 -5.522,0.85 -7.353,5.3l-24.454,59.58c-1.694,4.13 -5.307,7.16 -9.668,8.1l-62.944,13.63c-4.707,1.02 -6.118,4.75 -6.509,6.31c-0.39,1.55 -0.898,5.5 2.769,8.62l49.106,41.67c3.404,2.88 5.166,7.26 4.717,11.7l-6.489,64.08c-0.488,4.79 2.622,7.28 3.979,8.13c1.363,0.85 4.966,2.56 9.068,0.03l54.804,-33.82c3.79,-2.35 8.492,-2.67 12.579,-0.87l58.937,25.97c4.4,1.94 7.74,-0.24 8.97,-1.28c1.23,-1.02 3.97,-3.93 2.83,-8.6l-15.23,-62.58c-1.05,-4.33 0.09,-8.91 3.06,-12.23l42.91,-48.03c3.21,-3.58 2.16,-7.43 1.56,-8.92c-0.6,-1.49 -2.51,-4.99 -7.31,-5.35l-64.22,-4.85c-4.45,-0.34 -8.45,-2.84 -10.69,-6.69l-32.414,-55.66c-2.158,-3.7 -5.552,-4.26 -7.402,-4.26Zm-52.896,255.59c-6.553,0 -13.105,-1.83 -18.935,-5.48c-11.597,-7.26 -17.945,-20.23 -16.563,-33.84l5.771,-56.99l-43.671,-37.06c-10.435,-8.85 -14.849,-22.59 -11.529,-35.87c3.321,-13.27 13.692,-23.31 27.066,-26.21l55.981,-12.12l21.748,-52.99c5.196,-12.66 16.905,-21.1 30.552,-22.04c13.687,-0.92 26.412,5.81 33.292,17.63l28.83,49.5l57.12,4.32c13.64,1.03 25.29,9.55 30.41,22.24c5.11,12.69 2.62,26.91 -6.49,37.11l-38.17,42.71l13.55,55.66c3.24,13.29 -1.27,27.01 -11.75,35.79c-10.49,8.79 -24.79,10.82 -37.31,5.3l-52.417,-23.1l-48.745,30.08c-5.786,3.58 -12.265,5.36 -18.74,5.36Z" style="fill:#371a45;fill-rule:nonzero;"/><path d="M1240.78,525.99l32.41,55.652l64.22,4.848c18.29,1.381 27.06,23.14 14.84,36.818l-42.91,48.023l15.23,62.575c4.34,17.825 -13.64,32.888 -30.43,25.49l-58.93,-25.971l-54.81,33.824c-15.61,9.635 -35.49,-2.814 -33.64,-21.066l6.49,-64.074l-49.11,-41.669c-13.99,-11.87 -8.29,-34.626 9.64,-38.509l62.94,-13.629l24.46,-59.578c6.96,-16.97 30.37,-18.586 39.6,-2.734Z" style="fill:#f58600;fill-rule:nonzero;"/><path d="M1303.1,761.328c-2.93,0 -5.95,-0.601 -8.94,-1.913l-58.94,-25.97l-25.93,15.972l25.92,-15.992l58.93,25.971c3,1.322 6.04,1.927 8.98,1.927c1.98,0 3.91,-0.273 5.76,-0.786c-1.86,0.516 -3.8,0.791 -5.78,0.791Zm6.24,-89.991l0,-0.006l42.91,-48.023c12.22,-13.678 3.45,-35.437 -14.84,-36.818l-3.68,-0.278c0,-0.003 0,-0.006 -0.01,-0.01l3.71,0.271c18.29,1.4 27.05,23.171 14.81,36.856l-42.9,48.008Z" style="fill:#c49fda;fill-rule:nonzero;"/><path d="M1168.82,770.586c-8.93,0.001 -17.26,-5.564 -20.63,-13.924c3.36,8.347 11.67,13.897 20.57,13.897c1.56,0 3.14,-0.172 4.72,-0.53c-0.32,-1.851 -0.41,-3.794 -0.19,-5.78l3.02,-29.674l34.79,-21.456l58.94,25.971c2.99,1.312 6.03,1.913 8.96,1.913c13.54,0 25.05,-12.769 21.48,-27.431l-15.22,-62.556l42.91,-48.011c4.42,-4.966 6.1,-11.014 5.56,-16.793l3.68,0.278c18.29,1.381 27.06,23.14 14.84,36.818l-42.91,48.023l0,0.01l15.22,62.555c3.04,12.509 -4.89,23.643 -15.68,26.641c-1.85,0.513 -3.78,0.786 -5.76,0.786c-2.94,0 -5.98,-0.605 -8.98,-1.927l-58.93,-25.971l-25.92,15.992l-28.9,17.812c-3.73,2.312 -7.71,3.356 -11.57,3.357Zm-20.66,-14.011c0,-0.006 -0.01,-0.014 -0.01,-0.02c0,0.007 0.01,0.013 0.01,0.02Z" style="fill:#f58600;fill-rule:nonzero;"/><path d="M1148.19,756.662c-0.01,-0.029 -0.02,-0.058 -0.03,-0.087c0.01,0.029 0.02,0.058 0.03,0.087Z" style="fill:#ffeeb6;fill-rule:nonzero;"/><path d="M1147.12,753.146c-0.48,-2.192 -0.62,-4.526 -0.38,-6.964l6.5,-64.077l0.01,0.004l-6.49,64.074c-0.14,1.359 -0.16,2.685 -0.07,3.973c0.04,0.561 0.1,1.112 0.19,1.657c0.06,0.45 0.14,0.894 0.24,1.333Zm-33.25,-104.454l-9.73,-8.245c-14,-11.879 -8.31,-34.642 9.63,-38.527l62.96,-13.64l24.43,-59.575c1.74,-4.193 4.47,-7.447 7.75,-9.73c-3.27,2.287 -6.01,5.547 -7.73,9.749l-24.46,59.578l-62.94,13.629c-17.93,3.883 -23.63,26.639 -9.64,38.509l9.73,8.252Z" style="fill:#f6e7ff;fill-rule:nonzero;"/><path d="M1148.15,756.555c-0.43,-1.091 -0.78,-2.23 -1.03,-3.409c-0.1,-0.439 -0.18,-0.883 -0.24,-1.333c0.25,1.659 0.68,3.245 1.27,4.742Zm-1.46,-6.399c-0.09,-1.288 -0.07,-2.614 0.07,-3.973l6.49,-64.074l-0.01,-0.004l0,-0.014l-39.37,-33.399l-9.73,-8.252c-13.99,-11.87 -8.29,-34.626 9.64,-38.509l62.94,-13.629l24.46,-59.578c1.72,-4.202 4.46,-7.462 7.73,-9.749c3.78,-2.633 8.28,-3.975 12.79,-3.975c7.37,0 14.77,3.591 19.07,10.995l4.25,7.317c-7.27,1.04 -14.05,5.556 -17.3,13.46l-24.48,59.574l-62.92,13.641c-17.93,3.884 -23.62,26.648 -9.66,38.526l49.14,41.645l-3.49,34.417l-20,12.329c-3.11,1.896 -6.36,2.935 -9.62,3.252Z" style="fill:#ffeeb6;fill-rule:nonzero;"/><path d="M1146.88,751.813c-0.09,-0.545 -0.15,-1.096 -0.19,-1.657c0.04,0.56 0.11,1.113 0.19,1.657Z" style="fill:#e8daf1;fill-rule:nonzero;"/><path d="M1168.76,770.559c-8.9,0 -17.21,-5.55 -20.57,-13.897c-0.01,-0.029 -0.02,-0.058 -0.03,-0.087c0,-0.007 -0.01,-0.013 -0.01,-0.02c-0.59,-1.497 -1.02,-3.083 -1.27,-4.742c-0.08,-0.544 -0.15,-1.097 -0.19,-1.657c3.26,-0.317 6.51,-1.356 9.62,-3.252l20,-12.329l-3.02,29.674c-0.22,1.986 -0.13,3.929 0.19,5.78c-1.58,0.358 -3.16,0.53 -4.72,0.53Z" style="fill:#efdfb6;fill-rule:nonzero;"/><path d="M1221.67,528.545c-0.23,0 -0.43,0.009 -0.61,0.019c-1.6,0.112 -5.52,0.85 -7.35,5.308l-24.46,59.575c-1.69,4.126 -5.3,7.153 -9.66,8.096l-62.95,13.632c-4.7,1.021 -6.12,4.747 -6.51,6.304c-0.39,1.558 -0.89,5.513 2.78,8.628l49.1,41.67c3.4,2.886 5.16,7.261 4.72,11.699l-6.49,64.073c-0.49,4.79 2.62,7.29 3.99,8.139c1.36,0.86 4.96,2.569 9.06,0.029l54.8,-33.823c3.8,-2.353 8.49,-2.671 12.58,-0.869l58.93,25.972c4.44,1.943 7.75,-0.244 8.98,-1.275c1.23,-1.03 3.97,-3.93 2.83,-8.613l-15.24,-62.573c-1.05,-4.331 0.09,-8.906 3.07,-12.232l42.91,-48.022c3.2,-3.594 2.16,-7.441 1.56,-8.931c-0.6,-1.489 -2.52,-4.99 -7.32,-5.351l-64.22,-4.849c-4.45,-0.337 -8.44,-2.837 -10.69,-6.689l-32.41,-55.65c-2.16,-3.706 -5.55,-4.267 -7.4,-4.267Zm-52.89,255.59c-6.55,0 -13.1,-1.826 -18.93,-5.473c-11.6,-7.261 -17.95,-20.23 -16.58,-33.843l5.77,-56.987l-43.67,-37.061c-10.43,-8.852 -14.85,-22.597 -11.53,-35.869c3.32,-13.271 13.7,-23.315 27.07,-26.211l55.98,-12.124l21.75,-52.988c5.2,-12.656 16.91,-21.109 30.56,-22.051c13.67,-0.889 26.4,5.82 33.29,17.642l28.83,49.497l57.11,4.311c13.65,1.03 25.3,9.556 30.41,22.246c5.12,12.691 2.63,26.914 -6.49,37.115l-38.16,42.71l13.55,55.654c3.23,13.296 -1.27,27.012 -11.77,35.796c-10.48,8.779 -24.79,10.815 -37.3,5.293l-52.41,-23.096l-48.74,30.083c-5.79,3.574 -12.26,5.356 -18.74,5.356Z" style="fill:#371a45;fill-rule:nonzero;"/></g></g></svg>